<?xml version="1.0" standalone="no"?>
<!DOCTYPE svg PUBLIC "-//W3C//DTD SVG 1.1//EN" "http://www.w3.org/Graphics/SVG/1.1/DTD/svg11.dtd" >
<svg xmlns="http://www.w3.org/2000/svg">
<metadata>
Created by FontPrep 20130207 at Wed Sep 14 14:58:35 2016
 By Callum Flack
(c) Copyright (c) 2010. All rights reserved. Fakt is a design by Thomas Thiemich, published by OurType. www.ourtype.com
</metadata>
<defs>
<font id="04f6093fa907813065ff2d5be1f91a9e" horiz-adv-x='1024' >
  <font-face 
    font-family="FaktPro-Medium"
    font-weight="500"
    font-stretch="normal"
    units-per-em="2048"
    panose-1="2 0 0 0 0 0 0 0 0 0"
    ascent="1532"
    descent="-516"
    x-height="999"
    cap-height="1409"
    bbox="-356 -641 2447 2073"
    underline-thickness="0"
    underline-position="0"
    unicode-range="U+0020-FB04"
  />
<missing-glyph horiz-adv-x="1458" 
d="M475 377l258 264l258 -264l107 106l-260 267l260 266l-107 106l-258 -264l-258 264l-106 -106l258 -266l-258 -267zM0 0v1475h1458v-1475h-1458z" />
    <glyph glyph-name="ff" unicode="ff" horiz-adv-x="1292" 
d="M195 0v827h-189v172h189v142q0 269 133 313.5t227 44.5h111v-180h-82q-136 0 -152 -65.5t-16 -112.5v-142h407v142q0 358 359 358h133v-180h-103q-134 0 -151 -65.5t-17 -112.5v-142h238v-172h-238v-827h-221v827h-407v-827h-221z" />
    <glyph glyph-name="fi" unicode="fi" horiz-adv-x="1193" 
d="M815 1274v225h238v-225h-238zM823 0v827h-407v-827h-221v827h-189v172h189v142q0 269 133 313.5t227 44.5h111v-180h-82q-136 0 -152 -65.5t-16 -112.5v-142h628v-999h-221z" />
    <glyph glyph-name="fl" unicode="fl" horiz-adv-x="1193" 
d="M195 0v827h-189v172h189v142q0 269 133 313.5t227 44.5h489v-1499h-221v1319h-239q-136 0 -152 -65.5t-16 -112.5v-142h211v-172h-211v-827h-221z" />
    <glyph glyph-name="ffi" unicode="ffi" horiz-adv-x="1820" 
d="M1442 1274v225h237v-225h-237zM823 0v827h-407v-827h-221v827h-189v172h189v142q0 269 133 313.5t227 44.5h123v-180h-94q-136 0 -152 -65.5t-16 -112.5v-142h407v142q0 358 359 358h112v-180h-82q-134 0 -151 -65.5t-17 -112.5v-142h627v-999h-221v827h-406v-827h-221z
" />
    <glyph glyph-name="ffl" unicode="ffl" horiz-adv-x="1820" 
d="M823 0v827h-407v-827h-221v827h-189v172h189v142q0 269 133 313.5t227 44.5h111v-180h-82q-136 0 -152 -65.5t-16 -112.5v-142h407v142q0 358 359 358h489v-1499h-221v1319h-238q-134 0 -151 -65.5t-17 -112.5v-142h248v-172h-248v-827h-221z" />
    <glyph glyph-name="f_b" unicode="fb" horiz-adv-x="1900" 
d="M1044 500q0 -159 77 -252.5t197 -93.5t196.5 96.5t76.5 256.5t-76 249.5t-195 89.5q-118 0 -194 -87.5t-82 -242.5v-16zM1034 150v-150h-211v1319h-239q-136 0 -152 -65.5t-16 -112.5v-142h211v-172h-211v-827h-221v827h-189v172h189v142q0 269 133 313.5t227 44.5h489
v-269q0 -268 -10 -380h8q89 174 332 174q196 0 321.5 -138t125.5 -378.5t-133.5 -386.5t-329.5 -146q-228 0 -316 175h-8z" />
    <glyph glyph-name="f_h" unicode="fh" horiz-adv-x="1863" 
d="M1044 1499v-263q0 -264 -10 -382h8q38 82 118 126t175 44q182 0 288 -100t106 -318v-606h-224v578q0 266 -211 266q-107 0 -178.5 -85.5t-71.5 -234.5v-524h-221v1319h-239q-136 0 -152 -65.5t-16 -112.5v-142h211v-172h-211v-827h-221v827h-189v172h189v142
q0 269 133 313.5t227 44.5h489z" />
    <glyph glyph-name="f_j" unicode="fj" horiz-adv-x="1193" 
d="M815 1274v225h238v-225h-238zM655 -270h52q92 0 104 55t12 94v948h-407v-827h-221v827h-189v172h189v142q0 269 133 313.5t227 44.5h111v-180h-82q-136 0 -152 -65.5t-16 -112.5v-142h628v-1144q0 -306 -315 -306h-74v181z" />
    <glyph glyph-name="f_k" unicode="fk" horiz-adv-x="1751" 
d="M823 0v1319h-239q-136 0 -152 -65.5t-16 -112.5v-142h211v-172h-211v-827h-221v827h-189v172h189v142q0 269 133 313.5t227 44.5h489v-946l404 446h256l-371 -399l410 -600h-258l-299 440l-142 -151v-289h-221z" />
    <glyph glyph-name="f_t" unicode="ft" horiz-adv-x="1335" 
d="M809 319v508h-393v-827h-221v827h-189v172h189v142q0 269 133 313.5t227 44.5h111v-180h-82q-136 0 -152 -65.5t-16 -112.5v-142h393v304h223v-304h254v-172h-254v-495q0 -114 49 -131t84 -17h121v-184h-153q-172 0 -248 76t-76 243z" />
    <glyph glyph-name="f_f_b" unicode="ffb" horiz-adv-x="2527" 
d="M1671 500q0 -159 77 -252.5t196 -93.5t196.5 96t77.5 256.5t-77 250t-194 89.5t-194.5 -87.5t-81.5 -242.5v-16zM1661 150v-150h-211v1319h-238q-134 0 -151 -65.5t-17 -112.5v-142h248v-172h-248v-827h-221v827h-407v-827h-221v827h-189v172h189v142q0 269 133 313.5
t227 44.5h111v-180h-82q-136 0 -152 -65.5t-16 -112.5v-142h407v142q0 358 359 358h489v-269q0 -268 -10 -380h8q89 174 332 174q196 0 321 -137.5t125 -379t-133 -387t-329 -145.5q-228 0 -316 175h-8z" />
    <glyph glyph-name="f_f_h" unicode="ffh" horiz-adv-x="2490" 
d="M2134 578q0 266 -213 266q-107 0 -178.5 -85.5t-71.5 -232.5v-526h-221v1319h-238q-134 0 -151 -65.5t-17 -112.5v-142h248v-172h-248v-827h-221v827h-407v-827h-221v827h-189v172h189v142q0 269 133 313.5t227 44.5h111v-180h-82q-136 0 -152 -65.5t-16 -112.5v-142h407
v142q0 358 359 358h489v-263q0 -264 -10 -382h8q38 82 118 126t175 44q181 0 287 -99t106 -319v-606h-221v578z" />
    <glyph glyph-name="f_f_j" unicode="ffj" horiz-adv-x="1820" 
d="M1442 1274v225h237v-225h-237zM823 0v827h-407v-827h-221v827h-189v172h189v142q0 269 133 313.5t227 44.5h123v-180h-94q-136 0 -152 -65.5t-16 -112.5v-142h407v142q0 358 359 358h112v-180h-82q-134 0 -151 -65.5t-17 -112.5v-142h627v-1144q0 -306 -313 -306h-76v181
h51q93 0 105 55t12 94v948h-406v-827h-221z" />
    <glyph glyph-name="f_f_k" unicode="ffk" horiz-adv-x="2379" 
d="M823 0v827h-407v-827h-221v827h-189v172h189v142q0 269 133 313.5t227 44.5h111v-180h-82q-136 0 -152 -65.5t-16 -112.5v-142h407v142q0 358 359 358h489v-948l404 448h258l-373 -399l412 -600h-258l-302 440l-141 -151v-289h-221v1319h-238q-134 0 -151 -65.5
t-17 -112.5v-142h248v-172h-248v-827h-221z" />
    <glyph glyph-name="f_f_t" unicode="fft" horiz-adv-x="1961" 
d="M823 0v827h-407v-827h-221v827h-189v172h189v142q0 269 133 313.5t227 44.5h111v-180h-82q-136 0 -152 -65.5t-16 -112.5v-142h407v142q0 358 359 358h112v-180h-82q-134 0 -151 -65.5t-17 -112.5v-142h394v304h221v-304h254v-172h-254v-495q0 -114 49 -131t84 -17h121
v-184h-154q-170 0 -245.5 76t-75.5 243v508h-394v-827h-221z" />
    <glyph glyph-name=".notdef" horiz-adv-x="1458" 
d="M475 377l258 264l258 -264l107 106l-260 267l260 266l-107 106l-258 -264l-258 264l-106 -106l258 -266l-258 -267zM0 0v1475h1458v-1475h-1458z" />
    <glyph glyph-name=".null" horiz-adv-x="0" 
 />
    <glyph glyph-name="nonmarkingreturn" horiz-adv-x="681" 
 />
    <glyph glyph-name="space" unicode=" " horiz-adv-x="450" 
 />
    <glyph glyph-name="exclam" unicode="!" horiz-adv-x="581" 
d="M168 0v246h244v-246h-244zM166 1409h250v-389l-64 -614h-125l-61 614v389z" />
    <glyph glyph-name="quotedbl" unicode="&#x22;" horiz-adv-x="841" 
d="M506 1409h211v-186l-35 -361h-141l-35 361v186zM125 1409h211v-186l-35 -361h-141l-35 361v186z" />
    <glyph glyph-name="numbersign" unicode="#" horiz-adv-x="1275" 
d="M539 922l-74 -428h274l74 428h-274zM125 922v159h254l57 328h189l-58 -328h275l57 328h188l-57 -328h209v-159h-238l-73 -428h223v-162h-252l-57 -332h-189l58 332h-275l-57 -332h-189l58 332h-211v162h239l74 428h-225z" />
    <glyph glyph-name="dollar" unicode="$" horiz-adv-x="1163" 
d="M767 209.5q73 62.5 73 178.5t-88 153t-148 55l-174 53q-219 67 -269 184t-50 198q0 158 101 264t263 130v222h197v-222q155 -24 253.5 -123.5t110.5 -248.5h-221q-11 101 -77.5 154t-165.5 53t-166.5 -51t-67.5 -146q0 -96 53 -141.5t166 -79.5l174 -54q172 -55 255 -146
t83 -252t-107 -272t-290 -136v-228h-197v228q-275 37 -335 183t-62 232h221q8 -115 81.5 -182.5t193.5 -67.5t193 62.5z" />
    <glyph glyph-name="percent" unicode="%" horiz-adv-x="1624" 
d="M1257.5 123q32.5 0 59 15.5t43 44t26 71.5t9.5 98.5t-8.5 98.5t-26 71.5t-43 44t-60 15.5t-60.5 -15.5t-43 -44t-26.5 -71.5t-9.5 -98.5t9.5 -98.5t26.5 -71.5t44 -44t59.5 -15.5zM1257.5 -16q-79.5 0 -140 27.5t-99.5 77.5t-58.5 116.5t-19.5 146.5t19.5 146.5t58.5 117
t99.5 78t140 27.5t140 -27.5t99.5 -78t57.5 -117t18.5 -146.5t-18.5 -146.5t-57.5 -116.5t-99.5 -77.5t-140 -27.5zM381 -25q53 111 195.5 401t279 571t238.5 487h151l-713 -1459h-151zM506 1056.5q0 229.5 -119.5 229.5t-138.5 -87t-19 -142.5t9.5 -98.5t27 -71.5t44 -44
t111.5 -15.5t85 229.5zM369 688q-80 0 -140.5 27.5t-99.5 78t-58.5 117t-19.5 146.5t19.5 146.5t58.5 116.5t99.5 77.5t140.5 27.5t139 -27.5t98 -77.5t58.5 -116.5t19.5 -146.5t-19.5 -146.5t-58.5 -117t-98 -78t-139 -27.5z" />
    <glyph glyph-name="ampersand" unicode="&#x26;" horiz-adv-x="1474" 
d="M477.5 994q28.5 -46 114.5 -136q120 55 185 109.5t65 132.5t-50 126t-143 48t-146.5 -49t-53.5 -117t28.5 -114zM624 147q200 0 314 99l-410 407q-108 -57 -162.5 -117t-54.5 -132t24.5 -117t93 -92.5t195.5 -47.5zM88 369q0 208 125 289t195 116q-94 98 -129 166
t-35 143q0 150 109 250.5t295 100.5q187 0 296 -90t109 -256.5t-132.5 -241t-207.5 -109.5l340 -340q55 122 55 285v23h199v-41q0 -224 -115 -406l258 -258h-264l-119 117q-168 -142 -429 -142t-405.5 106.5t-144.5 287.5z" />
    <glyph glyph-name="quotesingle" unicode="'" horiz-adv-x="460" 
d="M125 1409h211v-186l-35 -361h-141l-35 361v186z" />
    <glyph glyph-name="parenleft" unicode="(" horiz-adv-x="608" 
d="M39 601q0 224 100 483t236 440h203q-112 -144 -220 -421t-108 -566.5t106.5 -567t221.5 -436.5h-203q-224 297 -280 570.5t-56 497.5z" />
    <glyph glyph-name="parenright" unicode=")" horiz-adv-x="608" 
d="M250.5 1102q-107.5 276 -219.5 422h200q227 -307 281.5 -571.5t54.5 -489t-101 -490t-235 -440.5h-200q116 163 221.5 438.5t105.5 565t-107.5 565.5z" />
    <glyph glyph-name="asterisk" unicode="*" horiz-adv-x="948" 
d="M389 1425h170l-33 -264l240 115l53 -164l-260 -51l180 -191l-137 -100l-129 229l-127 -227l-137 98l176 193l-254 49l51 164l238 -111z" />
    <glyph glyph-name="plus" unicode="+" horiz-adv-x="1163" 
d="M117 430v180h370v373h189v-373h371v-180h-371v-371h-189v371h-370z" />
    <glyph glyph-name="comma" unicode="," horiz-adv-x="559" 
d="M147 0v262h265v-246l-103 -348h-116l67 332h-113z" />
    <glyph glyph-name="hyphen" unicode="-" horiz-adv-x="811" 
d="M115 420v192h581v-192h-581z" />
    <glyph glyph-name="period" unicode="." horiz-adv-x="559" 
d="M147 0v262h265v-262h-265z" />
    <glyph glyph-name="slash" unicode="/" horiz-adv-x="845" 
d="M12 -25l631 1459h191l-631 -1459h-191z" />
    <glyph glyph-name="zero" unicode="0" horiz-adv-x="1163" 
d="M581.5 1242.5q-272.5 -0.5 -272.5 -538.5t272.5 -538t272.5 538.5t-272.5 538zM582 -25q-131 0 -227.5 54.5t-158 154t-90 231.5t-28.5 289.5t28.5 289.5t90 231.5t158 154t227.5 54.5t227 -54.5t157.5 -154t90 -231.5t28.5 -289.5t-28.5 -289.5t-90 -231.5t-157.5 -154
t-227 -54.5z" />
    <glyph glyph-name="one" unicode="1" horiz-adv-x="1163" 
d="M733 1409v-1225h328v-184h-899v184h350v951l-301 -207l-96 164l463 317h155z" />
    <glyph glyph-name="two" unicode="2" horiz-adv-x="1163" 
d="M586 1249q-238 0 -254 -264h-209q17 342 195 395.5t274 53.5q198 0 325 -107.5t127 -284.5t-75.5 -268t-225.5 -188l-157 -105q-178 -115 -202 -187.5t-28 -109.5h699l2 -184h-955q11 338 131.5 451.5t206.5 171.5l160 104q119 78 170 136t51 156t-58.5 164t-176.5 66z
" />
    <glyph glyph-name="three" unicode="3" horiz-adv-x="1163" 
d="M86 426h217q0 -203 105.5 -237.5t195 -34.5t165 63.5t75.5 175.5t-79.5 178t-191.5 66h-108v182h108q99 0 165.5 62.5t66.5 162.5q0 150 -92.5 180.5t-140.5 30.5q-103 0 -166.5 -60.5t-63.5 -174.5h-201q0 192 122.5 303t314.5 111t315 -106.5t123 -274.5
q0 -100 -60 -190.5t-145 -125.5v-8q115 -33 186.5 -128.5t71.5 -205.5q0 -203 -140.5 -311.5t-359.5 -108.5t-351 113t-132 338z" />
    <glyph glyph-name="four" unicode="4" horiz-adv-x="1163" 
d="M692 514v569l-413 -569h413zM57 330v149l672 930h184v-895h193v-184h-193v-330h-221v330h-635z" />
    <glyph glyph-name="five" unicode="5" horiz-adv-x="1163" 
d="M362 815q96 86 273 86t305.5 -121t128.5 -340t-142 -342t-352 -123t-339 107.5t-146 294.5h221q21 -149 114 -185t151 -36t105.5 18.5t85.5 54t59.5 89t21.5 151t-75.5 175t-189.5 77.5t-167.5 -51.5t-77.5 -81.5l-203 16l43 805h811v-190h-612l-23 -404h8z" />
    <glyph glyph-name="six" unicode="6" horiz-adv-x="1163" 
d="M423 642q-79 -79 -79 -203t74.5 -203.5t188 -79.5t190.5 75.5t77 205.5q0 129 -73.5 206.5t-184.5 77.5q-114 0 -193 -79zM1096 440q0 -213 -142.5 -339t-341.5 -126q-373 0 -448.5 254.5t-75.5 450.5q0 386 154.5 570t386.5 184q194 0 303.5 -99t130.5 -278h-219
q-27 196 -217 196q-123 0 -208.5 -120.5t-99.5 -397.5q40 74 134 120t194 46q201 0 325 -124t124 -337z" />
    <glyph glyph-name="seven" unicode="7" horiz-adv-x="1163" 
d="M98 1212v197h983v-145l-583 -1264h-230l574 1212h-744z" />
    <glyph glyph-name="eight" unicode="8" horiz-adv-x="1163" 
d="M581.5 819q105.5 0 171.5 64t66 162t-68 157.5t-169.5 59.5t-169.5 -59t-68 -158q0 -98 66 -162t171.5 -64zM581.5 154q123.5 0 200 64t76.5 176q0 111 -79.5 177t-197 66t-197 -66t-79.5 -177t76.5 -175.5t200 -64.5zM80 364q0 142 71.5 237t186.5 128v8
q-86 28 -145.5 118.5t-59.5 185.5q0 94 32 164.5t91 121.5t142 79t234 28t274.5 -106t123.5 -277q0 -105 -58.5 -194t-146.5 -120v-8q115 -33 186.5 -128.5t71.5 -205.5t-35.5 -186t-103 -128t-160 -79t-203 -27t-202.5 27t-159.5 79t-103.5 128.5t-36 154.5z" />
    <glyph glyph-name="nine" unicode="9" horiz-adv-x="1163" 
d="M738 767q79 79 79 201t-73.5 203.5t-185 81.5t-190.5 -75.5t-79 -203.5t71.5 -207t185.5 -79q113 0 192 79zM840 674q-90 -166 -354 -166q-72 0 -152 30.5t-174 123t-94 307.5t143 340t340 125q373 0 448.5 -254t75.5 -452q0 -392 -142 -572.5t-384 -180.5
q-391 0 -449 377h219q38 -196 232 -196q206 0 246.5 187t44.5 331z" />
    <glyph glyph-name="colon" unicode=":" horiz-adv-x="559" 
d="M147 0v262h265v-262h-265zM147 737v262h265v-262h-265z" />
    <glyph glyph-name="semicolon" unicode=";" horiz-adv-x="559" 
d="M147 0v262h265v-246l-103 -348h-116l67 332h-113zM147 737v262h265v-262h-265z" />
    <glyph glyph-name="less" unicode="&#x3c;" horiz-adv-x="1163" 
d="M147 430v182l869 367v-195l-656 -260l656 -262v-201z" />
    <glyph glyph-name="equal" unicode="=" horiz-adv-x="1163" 
d="M115 213v180h934v-180h-934zM115 647v180h934v-180h-934z" />
    <glyph glyph-name="greater" unicode="&#x3e;" horiz-adv-x="1163" 
d="M1016 610v-182l-869 -367v195l656 260l-656 262v201z" />
    <glyph glyph-name="question" unicode="?" horiz-adv-x="1044" 
d="M389 0v246h244v-246h-244zM406 414v53q0 127 47 204t140 149.5t129 111t36 98.5q0 103 -61 161t-143 58q-144 0 -206.5 -73.5t-62.5 -192.5h-215q0 189 118.5 320t332.5 131t338 -102t124 -275q0 -113 -47 -182.5t-140.5 -140t-135.5 -119t-42 -132.5v-69h-212z" />
    <glyph glyph-name="at" unicode="@" horiz-adv-x="2115" 
d="M1253 410v92q-29 -29 -56.5 -36t-45.5 -11l-178 -29q-125 -17 -141.5 -68t-16.5 -83q0 -64 46.5 -103t112.5 -39q125 0 202 71.5t77 205.5zM596 261q0 251 334 304l194 31q80 15 104.5 27.5t24.5 53.5q0 82 -47 131.5t-149 49.5q-197 0 -213 -176h-209q8 155 119 248.5
t297 93.5q315 0 369.5 -143.5t54.5 -235.5v-307q0 -175 58 -197t96 -22q91 0 155.5 112t64.5 303q0 358 -219.5 557t-572.5 199q-352 0 -571.5 -234t-219.5 -586q0 -351 213.5 -572.5t548.5 -221.5q286 0 434 148h219q-222 -291 -653 -291q-201 0 -372 68.5t-364.5 263.5
t-193.5 606q0 199 69 374t197 308t307 207t388 74q423 0 690.5 -242.5t267.5 -634.5q0 -292 -123 -433.5t-305 -141.5q-225 0 -293 161q-108 -168 -356 -168t-296 112t-48 174z" />
    <glyph glyph-name="A" unicode="A" horiz-adv-x="1361" 
d="M682 1180h-8l-230 -645h465zM20 0l525 1409h272l524 -1409h-243l-121 342h-602l-121 -342h-234z" />
    <glyph glyph-name="B" unicode="B" horiz-adv-x="1396" 
d="M1014 1032q0 187 -242 187h-375v-398h373q178 0 211 83t33 128zM397 635v-445h414q191 0 224.5 90.5t33.5 139.5q0 97 -65 156t-193 59h-414zM1245 1058q0 -246 -221 -310v-9q198 -38 238.5 -148.5t40.5 -186.5t-31 -153t-124 -164t-319 -87h-663v1409h622
q343 0 400 -140.5t57 -210.5z" />
    <glyph glyph-name="C" unicode="C" horiz-adv-x="1478" 
d="M776 180q308 0 381 275h236q-40 -219 -204.5 -349.5t-414.5 -130.5q-306 0 -495 203.5t-189 522.5t192 526t500 207q247 0 407.5 -129t203.5 -351h-236q-73 275 -375 275q-203 0 -327.5 -145t-124.5 -378q0 -232 124 -379t322 -147z" />
    <glyph glyph-name="D" unicode="D" horiz-adv-x="1474" 
d="M631 1212h-228v-1015h228q266 0 389 143.5t123 364t-123 364t-389 143.5zM172 0v1409h469q358 0 550.5 -194t192.5 -510.5t-192.5 -510.5t-550.5 -194h-469z" />
    <glyph glyph-name="E" unicode="E" horiz-adv-x="1282" 
d="M172 0v1409h987v-197h-756v-399h607v-190h-607v-426h775v-197h-1006z" />
    <glyph glyph-name="F" unicode="F" horiz-adv-x="1208" 
d="M172 0v1409h967v-197h-736v-452h586v-195h-586v-565h-231z" />
    <glyph glyph-name="G" unicode="G" horiz-adv-x="1570" 
d="M1233 186q-139 -211 -448 -211t-502 208t-193 524q0 317 197 522t512 205q252 0 417 -127.5t205 -321.5h-235q-53 169 -179 206.5t-219 37.5t-180.5 -38t-150 -108.5t-95 -167t-32.5 -269t128 -319.5t321 -147t313 99t120 264v24h-413v187h620v-754h-149l-31 186h-6z" />
    <glyph glyph-name="H" unicode="H" horiz-adv-x="1517" 
d="M172 0v1409h231v-598h709v598h234v-1409h-234v614h-709v-614h-231z" />
    <glyph glyph-name="I" unicode="I" horiz-adv-x="577" 
d="M172 0v1409h231v-1409h-231z" />
    <glyph glyph-name="J" unicode="J" horiz-adv-x="1093" 
d="M74 412v65h229v-53q0 -191 80 -221.5t150.5 -30.5t125 63t54.5 195v979h231v-987q0 -338 -168 -392.5t-267 -54.5q-202 0 -318.5 105.5t-116.5 331.5z" />
    <glyph glyph-name="K" unicode="K" horiz-adv-x="1380" 
d="M172 0v1409h231v-713l662 713h270l-575 -610l604 -799h-264l-490 641l-207 -219v-422h-231z" />
    <glyph glyph-name="L" unicode="L" horiz-adv-x="1148" 
d="M172 0v1409h231v-1210h682v-199h-913z" />
    <glyph glyph-name="M" unicode="M" horiz-adv-x="1886" 
d="M172 0v1409h299l473 -1096h6l467 1096h295v-1409h-231l18 1073h-8l-459 -1073h-178l-459 1055h-8l16 -1055h-231z" />
    <glyph glyph-name="N" unicode="N" horiz-adv-x="1533" 
d="M172 0v1409h215l741 -1016h9l-9 1016h234v-1409h-213l-746 1012h-8l8 -1012h-231z" />
    <glyph glyph-name="O" unicode="O" horiz-adv-x="1587" 
d="M330 704.5q0 -112.5 32.5 -209t94 -167t147.5 -109.5t188.5 -39t189.5 39t148.5 109.5t94 167t32.5 209t-32.5 209t-94 167t-148.5 109.5t-189.5 39t-188.5 -39t-147.5 -109.5t-94 -167t-32.5 -209zM90 704.5q0 318.5 195 524t506 205.5q310 0 508 -206t198 -523.5
t-198 -523.5t-508 -206t-505.5 205.5t-195.5 524z" />
    <glyph glyph-name="P" unicode="P" horiz-adv-x="1341" 
d="M733 1217h-330v-549h330q137 0 212 78.5t75 235t-107.5 196t-179.5 39.5zM172 0v1409h571q241 0 375.5 -125t134.5 -333.5t-134.5 -341t-375.5 -132.5h-340v-477h-231z" />
    <glyph glyph-name="Q" unicode="Q" horiz-adv-x="1593" 
d="M330 704.5q0 -112.5 32.5 -209t94 -167t147.5 -109.5t188.5 -39t189.5 39t148.5 109.5t94 167t32.5 209t-32.5 209t-94 167t-148.5 109.5t-189.5 39t-188.5 -39t-147.5 -109.5t-94 -167t-32.5 -209zM90 704.5q0 318.5 195 524t506 205.5q310 0 508 -206t198 -528
q0 -321 -213 -534l264 -277l-151 -149l-287 303q-149 -68 -311 -68t-292 54.5t-273.5 205.5t-143.5 469.5z" />
    <glyph glyph-name="R" unicode="R" horiz-adv-x="1378" 
d="M739 1217h-336v-496h336q130 0 202.5 71.5t72.5 184t-72 176.5t-203 64zM172 0v1409h569q373 0 439.5 -164t66.5 -253q0 -166 -78.5 -278t-224.5 -157l354 -557h-251l-338 530h-306v-530h-231z" />
    <glyph glyph-name="S" unicode="S" horiz-adv-x="1347" 
d="M109 401h229q0 -110 87.5 -177.5t242.5 -67.5t244 63t89 174q0 130 -116.5 164.5t-184.5 46.5l-92 17q-220 37 -348.5 118.5t-128.5 270.5q0 190 147.5 307t388.5 117t385 -110t144 -294h-227q0 105 -83.5 164t-216.5 59t-220 -56t-87 -174.5t125 -150.5t203 -47l92 -16
q205 -33 331 -118t126 -281t-152 -315.5t-419 -119.5t-413 115t-146 311z" />
    <glyph glyph-name="T" unicode="T" horiz-adv-x="1232" 
d="M16 1214v195h1201v-195h-486v-1214h-231v1214h-484z" />
    <glyph glyph-name="U" unicode="U" horiz-adv-x="1460" 
d="M143 561v848h232v-846q0 -281 133 -332t266 -51t221 99t88 284v846h232v-848q0 -304 -154 -445t-505.5 -141t-432 214t-80.5 372z" />
    <glyph glyph-name="V" unicode="V" horiz-adv-x="1320" 
d="M526 0l-510 1409h244l399 -1180h9l403 1180h234l-512 -1409h-267z" />
    <glyph glyph-name="W" unicode="W" horiz-adv-x="1959" 
d="M391 0l-368 1409h245l277 -1163h8l305 1163h258l309 -1163h9l266 1163h237l-362 -1409h-289l-299 1128h-8l-299 -1128h-289z" />
    <glyph glyph-name="X" unicode="X" horiz-adv-x="1280" 
d="M16 0l490 719l-473 690h264l342 -514l340 514h252l-465 -684l498 -725h-263l-368 547l-363 -547h-254z" />
    <glyph glyph-name="Y" unicode="Y" horiz-adv-x="1304" 
d="M532 0v545l-509 864h262l364 -635h8l379 635h244l-516 -854v-555h-232z" />
    <glyph glyph-name="Z" unicode="Z" horiz-adv-x="1224" 
d="M106 1217v192h1047v-141l-784 -1075h778v-193h-1075v141l784 1076h-750z" />
    <glyph glyph-name="bracketleft" unicode="[" horiz-adv-x="696" 
d="M369 -291h297v-176h-498v1991h498v-176h-297v-1639z" />
    <glyph glyph-name="backslash" unicode="\" horiz-adv-x="845" 
d="M643 -25l-631 1459h191l631 -1459h-191z" />
    <glyph glyph-name="bracketright" unicode="]" horiz-adv-x="696" 
d="M31 -291h297v1639h-297v176h499v-1991h-499v176z" />
    <glyph glyph-name="asciicircum" unicode="^" horiz-adv-x="1163" 
d="M672 1409v-2l12 2l379 -688h-213l-270 510l-271 -510h-207l379 688h191z" />
    <glyph glyph-name="underscore" unicode="_" horiz-adv-x="1024" 
d="M0 -147h1024v-175h-1024v175z" />
    <glyph glyph-name="grave" unicode="`" horiz-adv-x="1173" 
d="M510 1163l-299 336h246l209 -336h-156z" />
    <glyph glyph-name="a" unicode="a" horiz-adv-x="1107" 
d="M750 410v92q-28 -28 -56 -35.5t-47 -11.5l-172 -29q-162 -23 -162 -133t64.5 -131t111.5 -21q108 0 184.5 70.5t76.5 198.5zM750 125q-92 -150 -332 -150q-150 0 -238 77.5t-88 204t79 201.5t255 103l195 33q105 16 117 34.5t12 33.5q0 196 -197 196q-146 0 -176.5 -68.5
t-34.5 -107.5h-211q8 152 119.5 247t302.5 95q313 0 365.5 -139.5t52.5 -227.5v-657h-211v125h-10z" />
    <glyph glyph-name="b" unicode="b" horiz-adv-x="1228" 
d="M371 500q0 -158 76 -252t198 -94t197.5 96.5t75.5 256t-75.5 249.5t-194.5 90q-120 0 -196.5 -88t-80.5 -242v-16zM362 150v-150h-212v1499h221v-257q0 -257 -9 -392h9q89 174 331 174q198 0 322.5 -138t124.5 -378.5t-133.5 -386.5t-329.5 -146q-231 0 -315 175h-9z" />
    <glyph glyph-name="c" unicode="c" horiz-adv-x="1093" 
d="M569 -25q-223 0 -357 138t-134 380t138 386.5t348 144.5t327.5 -100.5t138.5 -266.5h-219q-13 82 -72.5 135.5t-169.5 53.5t-186 -94.5t-76 -251.5t76 -251.5t192 -94.5q197 0 236 188h219q-33 -257 -192.5 -312t-268.5 -55z" />
    <glyph glyph-name="d" unicode="d" horiz-adv-x="1228" 
d="M856 500q0 159 -77 252.5t-196 93.5t-196.5 -96t-77.5 -256.5t77 -250t196.5 -89.5t196.5 93.5t77 252.5zM526 -25q-196 0 -321 137.5t-125 378.5t133.5 387t329.5 146q230 0 315 -174h8q-10 112 -10 135v514h221v-1499h-211v150h-8q-89 -175 -332 -175z" />
    <glyph glyph-name="e" unicode="e" horiz-adv-x="1114" 
d="M575 852q-100 0 -166.5 -62.5t-93.5 -177.5h500q-18 180 -103.5 210t-136.5 30zM216.5 877.5q138.5 146.5 352.5 146.5t342.5 -127t128.5 -360v-74h-735q8 -145 82.5 -229t207.5 -84t171.5 61t46.5 92h217q-20 -137 -144.5 -232.5t-305.5 -95.5q-239 0 -370.5 137.5
t-131.5 377.5q0 241 138.5 387.5z" />
    <glyph glyph-name="f" unicode="f" horiz-adv-x="665" 
d="M195 0v827h-189v172h189v142q0 269 133 313.5t227 44.5h133v-180h-104q-136 0 -152 -65.5t-16 -112.5v-142h239v-172h-239v-827h-221z" />
    <glyph glyph-name="g" unicode="g" horiz-adv-x="1228" 
d="M779 247.5q77 93.5 77 252.5v16q-4 154 -81.5 242t-194.5 88t-194 -96t-77 -256.5t77 -250t196.5 -89.5t196.5 93.5zM543 1024q230 0 315 -174h8v149h211v-948q0 -266 -136.5 -392t-358.5 -126t-347 87.5t-129 256.5h209q0 -79 71.5 -128.5t161.5 -49.5q89 0 203.5 39
t114.5 313v99h-8q-89 -175 -332 -175q-196 0 -321 137.5t-125 378.5t133.5 387t329.5 146z" />
    <glyph glyph-name="h" unicode="h" horiz-adv-x="1189" 
d="M834 578q0 266 -213 266q-111 0 -180.5 -89t-69.5 -235v-520h-221v1499h221v-255q0 -255 -9 -390h9q79 170 309 170q262 0 318.5 -152.5t56.5 -265.5v-606h-221v578z" />
    <glyph glyph-name="i" unicode="i" horiz-adv-x="522" 
d="M150 0v999h221v-999h-221zM141 1274v225h238v-225h-238z" />
    <glyph glyph-name="j" unicode="j" horiz-adv-x="522" 
d="M150 -121v1120h221v-1144q0 -226 -113 -266t-201 -40h-75v181h51q65 0 91 36.5t26 112.5zM141 1274v225h238v-225h-238z" />
    <glyph glyph-name="k" unicode="k" horiz-adv-x="1079" 
d="M150 0v1499h221v-948l405 448h256l-373 -399l412 -600h-258l-301 440l-141 -151v-289h-221z" />
    <glyph glyph-name="l" unicode="l" horiz-adv-x="522" 
d="M150 0v1499h221v-1499h-221z" />
    <glyph glyph-name="m" unicode="m" horiz-adv-x="1816" 
d="M1681 618v-618h-221v592q0 198 -71.5 225t-148 27t-145.5 -86.5t-69 -231.5v-526h-221v592q0 196 -73 224t-121 28q-102 0 -171 -86.5t-69 -233.5v-524h-221v999h212v-145h9q79 170 275.5 170t260.5 -72.5t84 -126.5q101 199 336 199q157 0 255.5 -96.5t98.5 -309.5z" />
    <glyph glyph-name="n" unicode="n" horiz-adv-x="1189" 
d="M834 578q0 266 -213 266q-109 0 -179.5 -86t-70.5 -236v-522h-221v999h212v-145h9q79 170 309 170q262 0 318.5 -152.5t56.5 -265.5v-606h-221v578z" />
    <glyph glyph-name="o" unicode="o" horiz-adv-x="1181" 
d="M309 500q0 -154 77 -250t204 -96t203.5 96.5t76.5 253.5q0 158 -76.5 250t-203.5 92t-204 -96t-77 -250zM222 880q142 144 373 144t368 -141.5t137 -381.5t-141 -383t-371 -143t-369 141t-139 380q0 240 142 384z" />
    <glyph glyph-name="p" unicode="p" horiz-adv-x="1228" 
d="M842.5 756q-75.5 90 -194.5 90q-120 0 -196.5 -88t-80.5 -242v-16q0 -158 76 -252t198 -94t197.5 96.5t75.5 256t-75.5 249.5zM371 -64v-387h-221v1450h212v-149h9q89 174 331 174q198 0 322.5 -138t124.5 -378.5t-133.5 -386.5t-329.5 -146q-231 0 -315 175h-9
q9 -202 9 -214z" />
    <glyph glyph-name="q" unicode="q" horiz-adv-x="1222" 
d="M386 243.5q77 -89.5 194 -89.5t194.5 88t81.5 241v17q0 159 -77 252.5t-196 93.5t-196.5 -96t-77.5 -256.5t77 -250zM543 1024q230 0 315 -174h8v149h211v-1450h-221v243q0 243 10 358h-8q-89 -175 -332 -175q-196 0 -321 137.5t-125 378.5t133.5 387t329.5 146z" />
    <glyph glyph-name="r" unicode="r" horiz-adv-x="772" 
d="M593 819q-109 0 -165.5 -89t-56.5 -230v-500h-221v999h212v-145h7q75 170 264 170q78 0 139 -41l-57 -197q-66 33 -122 33z" />
    <glyph glyph-name="s" unicode="s" horiz-adv-x="1042" 
d="M508 131q229 0 229 145q0 78 -56 96.5t-95 24.5l-185 33q-301 48 -301 275q0 147 117.5 233t354.5 86t298.5 -113.5t61.5 -189.5h-207q0 71 -56.5 109t-124.5 38q-116 0 -173.5 -36.5t-57.5 -105.5t60.5 -89.5t105.5 -28.5l185 -30q212 -32 253 -119.5t41 -161.5
q0 -154 -122 -238t-322 -84t-319 79.5t-119 232.5h211q0 -113 89 -134.5t132 -21.5z" />
    <glyph glyph-name="t" unicode="t" horiz-adv-x="706" 
d="M180 319v508h-188v172h188v304h221v-304h256v-172h-256v-495q0 -80 32 -114t108 -34h116v-184h-153q-172 0 -248 76t-76 243z" />
    <glyph glyph-name="u" unicode="u" horiz-adv-x="1181" 
d="M354 422q0 -266 213 -266q109 0 176.5 87t67.5 240v516h221v-999h-211v145h-8q-79 -170 -303 -170q-263 0 -320 152.5t-57 265.5v606h221v-577z" />
    <glyph glyph-name="v" unicode="v" horiz-adv-x="1009" 
d="M381 0l-373 999h242l260 -770h8l260 770h223l-362 -999h-258z" />
    <glyph glyph-name="w" unicode="w" horiz-adv-x="1536" 
d="M299 0l-289 999h226l194 -776h8l215 776h236l217 -776h8l193 776h219l-289 -999h-258l-207 774h-8l-207 -774h-258z" />
    <glyph glyph-name="x" unicode="x" horiz-adv-x="991" 
d="M20 0l355 504l-346 495h254l225 -337l219 337h236l-347 -493l355 -506h-254l-234 350l-227 -350h-236z" />
    <glyph glyph-name="y" unicode="y" horiz-adv-x="1009" 
d="M207 -467h-111v182h66q169 0 241 195l31 90h-53l-373 999h242l260 -770h8l260 770h223l-411 -1138q-114 -328 -383 -328z" />
    <glyph glyph-name="z" unicode="z" horiz-adv-x="944" 
d="M66 825v174h804v-137l-516 -688h525v-174h-807v125l528 700h-534z" />
    <glyph glyph-name="braceleft" unicode="{" horiz-adv-x="757" 
d="M262 -147v335q0 156 -46 213.5t-183 57.5v155q137 0 183 58t46 213v319q0 166 77 243t263 77h125v-170h-102q-133 0 -146.5 -59.5t-13.5 -104.5v-375q0 -167 -74 -213.5t-131 -60.5v-9q205 -50 205 -274v-391q0 -92 34 -128t126 -36h102v-170h-125q-186 0 -263 77
t-77 243z" />
    <glyph glyph-name="bar" unicode="|" horiz-adv-x="555" 
d="M180 -492v2048h195v-2048h-195z" />
    <glyph glyph-name="braceright" unicode="}" horiz-adv-x="757" 
d="M31 -297h102q133 0 146.5 59.5t13.5 104.5v391q0 168 73.5 214t131.5 60v9q-160 39 -182.5 128t-22.5 146v375q0 91 -34.5 127.5t-125.5 36.5h-102v170h123q189 0 264.5 -77.5t75.5 -242.5v-319q0 -155 46 -213t183 -58v-155q-137 0 -183 -57.5t-46 -213.5v-335
q0 -165 -75.5 -242.5t-264.5 -77.5h-123v170z" />
    <glyph glyph-name="asciitilde" unicode="~" horiz-adv-x="1163" 
d="M385 528q-102 0 -102 -161h-177q0 165 77 249t189 84q113 0 209.5 -59t128 -74.5t70.5 -15.5q103 0 103 154h176q0 -165 -78.5 -249.5t-187.5 -84.5q-63 0 -116.5 20.5t-121.5 62.5t-100.5 58t-69.5 16z" />
    <glyph glyph-name="uni00A0" unicode="&#xa0;" horiz-adv-x="450" 
 />
    <glyph glyph-name="exclamdown" unicode="&#xa1;" horiz-adv-x="581" 
d="M414 -410h-246v390l59 614h125l62 -614v-390zM168 754v245h244v-245h-244z" />
    <glyph glyph-name="cent" unicode="&#xa2;" horiz-adv-x="1163" 
d="M508 -25v220q-191 28 -298.5 168t-107.5 347t114.5 347.5t299.5 171.5v205h197v-205q155 -23 248 -120.5t110 -238.5h-219q-20 131 -104 160t-142 29t-109 -24.5t-87.5 -70.5t-57 -111t-20.5 -179t76.5 -210.5t199.5 -96.5q159 0 198.5 74.5t45.5 113.5h219
q-25 -221 -155 -284.5t-211 -75.5v-220h-197z" />
    <glyph glyph-name="sterling" unicode="&#xa3;" horiz-adv-x="1163" 
d="M367 233q-69 43 -129 43t-76.5 -35t-16.5 -55q0 -42 25 -67t59 -25q59 0 89 37.5t49 101.5zM389 430q0 94 -45 229h-221v140h170q-60 159 -60 257q0 181 109 279.5t287 98.5q350 0 379 -361h-209q-18 149 -76.5 172t-96.5 23q-77 0 -125 -48t-48 -137t26.5 -162
t42.5 -122h320v-140h-273q29 -111 29 -203q0 -91 -31 -188q319 -224 349 -98.5t32 178.5h178q-19 -373 -301 -373q-84 0 -158.5 41t-162.5 113q-101 -154 -268 -154q-101 0 -165.5 54t-64.5 147q0 161 96.5 193t153.5 32t131 -28l1 7z" />
    <glyph glyph-name="currency" unicode="&#xa4;" horiz-adv-x="1163" 
d="M582 512q39 0 72.5 13.5t58 39t39 61.5t14.5 79t-14.5 78.5t-39 61t-58 39t-72.5 13.5t-73 -13.5t-58.5 -39t-39 -61t-14.5 -78.5t14.5 -79t39 -61.5t58.5 -39t73 -13.5zM236 707.5q0 92.5 61 183.5l-123 123l105 102l120 -125q82 49 183 49t180 -49l123 125l104 -102
l-123 -123q62 -89 62 -181.5t-60 -189.5l123 -123l-104 -102l-123 123q-74 -49 -180.5 -49t-184.5 49l-123 -123l-104 102l121 123q-57 95 -57 187.5z" />
    <glyph glyph-name="yen" unicode="&#xa5;" horiz-adv-x="1163" 
d="M174 494v124h297v5l-453 786h254l314 -571h8l315 571h236l-453 -788v-3h297v-124h-297v-146h297v-125h-297v-223h-221v223h-297v125h297v146h-297z" />
    <glyph glyph-name="brokenbar" unicode="&#xa6;" horiz-adv-x="555" 
d="M180 -336v721h195v-721h-195zM180 688v721h195v-721h-195z" />
    <glyph glyph-name="section" unicode="&#xa7;" horiz-adv-x="1175" 
d="M317 494q0 -84 47.5 -131.5t157.5 -79.5l115 -35q160 36 190.5 110t30.5 115q0 86 -50 133t-155 78l-127 37q-148 -35 -178.5 -110.5t-30.5 -116.5zM1024 -106q0 -168 -122.5 -264.5t-326.5 -96.5q-303 0 -372.5 122t-75.5 204h207q16 -170 241 -170q174 0 206 68.5
t32 108.5q0 71 -45 110.5t-147 68.5l-195 57q-315 98 -315 359q0 162 91 230.5t146 88.5q-148 73 -172 155.5t-24 150.5t30.5 135t123 140t294.5 73q305 0 373.5 -122t75.5 -204h-207q-12 125 -102.5 147.5t-143.5 22.5q-108 0 -171 -48t-63 -139q0 -92 71 -123.5t120 -45.5
l197 -58q165 -51 239 -137t74 -221q0 -167 -91 -234t-147 -88q199 -85 199 -290z" />
    <glyph glyph-name="dieresis" unicode="&#xa8;" horiz-adv-x="1173" 
d="M266 1229v213h211v-213h-211zM696 1229v213h209v-213h-209z" />
    <glyph glyph-name="copyright" unicode="&#xa9;" horiz-adv-x="1589" 
d="M538 969.5q98 103.5 259 103.5q124 0 209.5 -65.5t101.5 -176.5h-160q-19 54 -54 79.5t-87 25.5q-93 0 -147 -64t-54 -160q0 -95 53.5 -160t125.5 -65t102.5 21.5t41.5 41t19 44.5h160q-16 -109 -101 -175.5t-188 -66.5q-104 0 -169.5 28t-137.5 102.5t-72 228.5
q0 155 98 258.5zM389.5 281.5q160.5 -175.5 402.5 -175.5t405 177.5t163 430t-158.5 416.5t-407 164t-407 -164t-158.5 -419q0 -254 160.5 -429.5zM72 712.5q0 151.5 53 284.5t206.5 285t461.5 152q307 0 516 -207t209 -436.5t-53.5 -364.5t-152 -236.5t-231.5 -158
t-286.5 -56.5t-286.5 56.5t-231.5 158t-151.5 236.5t-53 286.5z" />
    <glyph glyph-name="ordfeminine" unicode="&#xaa;" horiz-adv-x="808" 
d="M530 981v61q-13 -20 -34 -24t-33 -6l-103 -13q-102 -15 -102 -94q0 -90 110 -90t136 62.5t26 103.5zM307 688q-109 0 -172 54t-63 192.5t235 169.5l133 16q73 11 81.5 28t8.5 37q0 46 -31.5 77.5t-90.5 31.5q-120 0 -132 -114h-174q12 186 128 216.5t184 30.5
q143 0 223 -66t80 -196v-460h-180v83h-7q-64 -100 -223 -100z" />
    <glyph glyph-name="guillemotleft" unicode="&#xab;" horiz-adv-x="1099" 
d="M395 98l-293 418l293 418h183l-234 -418l234 -418h-183zM522 516l293 418h182l-233 -418l233 -418h-182z" />
    <glyph glyph-name="logicalnot" unicode="&#xac;" horiz-adv-x="1163" 
d="M117 430v180h930v-553h-191v373h-739z" />
    <glyph glyph-name="uni00AD" unicode="&#xad;" horiz-adv-x="811" 
d="M115 420v192h581v-192h-581z" />
    <glyph glyph-name="registered" unicode="&#xae;" horiz-adv-x="1589" 
d="M940 860q0 70 -113 70h-161v-191h161q52 0 82.5 25.5t30.5 95.5zM500 360v705h334q199 0 235.5 -86t36.5 -130q0 -82 -41.5 -138t-112.5 -84l178 -267h-178l-153 246h-133v-246h-166zM389.5 281.5q160.5 -175.5 402.5 -175.5t405 177.5t163 430t-158.5 416.5t-407 164
t-407 -164t-158.5 -419q0 -254 160.5 -429.5zM72 712.5q0 151.5 53 284.5t206.5 285t461.5 152q307 0 516 -207t209 -436.5t-53.5 -364.5t-152 -236.5t-231.5 -158t-286.5 -56.5t-286.5 56.5t-231.5 158t-151.5 236.5t-53 286.5z" />
    <glyph glyph-name="macron" unicode="&#xaf;" horiz-adv-x="1173" 
d="M289 1251v160h588v-160h-588z" />
    <glyph glyph-name="degree" unicode="&#xb0;" horiz-adv-x="774" 
d="M387 1288q-29 0 -54.5 -10t-45 -30.5t-29.5 -47t-10 -77t40 -90.5t85 -40t69.5 10.5t44 30t29.5 47t10 60.5t-10 59.5t-29.5 47t-45 30.5t-54.5 10zM169.5 927.5q-87.5 81.5 -87.5 212.5t87.5 212.5t217.5 81.5t217.5 -81.5t87.5 -212.5t-87.5 -212.5t-217.5 -81.5
t-217.5 81.5z" />
    <glyph glyph-name="plusminus" unicode="&#xb1;" horiz-adv-x="1163" 
d="M115 0v180h934v-180h-934zM119 659v179h368v344h189v-344h373v-179h-373v-344h-189v344h-368z" />
    <glyph glyph-name="twosuperior" unicode="&#xb2;" 
d="M371 1602q-120 0 -129 -121h-172q4 129 89 192.5t213 63.5t209 -57.5t81 -168.5t-85 -159.5t-139 -73.5l-43 -21q-76 -34 -98.5 -61t-22.5 -37h385v-143h-598q0 204 93.5 268t144.5 88l43 21q108 49 124.5 76.5t16.5 45.5q0 41 -30 64t-82 23z" />
    <glyph glyph-name="threesuperior" unicode="&#xb3;" 
d="M365 1436q118 0 118 90q0 43 -22.5 59.5t-44 22.5t-61 6t-70.5 -27.5t-31 -73.5h-168q0 106 79 165t207 59t205.5 -55t77.5 -144q0 -90 -45 -119.5t-71 -36.5v-6q94 -18 116.5 -77.5t22.5 -101.5q0 -91 -81 -144.5t-228 -53.5q-216 0 -257.5 85.5t-41.5 146.5h170
q0 -77 50 -93t78.5 -16t52 6.5t41 18.5t27 30.5t9.5 56t-37 62.5t-96 25h-50v115h50z" />
    <glyph glyph-name="acute" unicode="&#xb4;" horiz-adv-x="1173" 
d="M508 1163l209 336h246l-299 -336h-156z" />
    <glyph glyph-name="mu" unicode="&#xb5;" horiz-adv-x="1191" 
d="M369 -309v-142h-224v1450h224v-577q0 -208 79.5 -237t131.5 -29q108 0 175.5 88.5t67.5 234.5v520h221v-999h-210v145h-9q-37 -80 -115.5 -125t-162.5 -45q-127 0 -197 48h-6l12 -106q13 -106 13 -226z" />
    <glyph glyph-name="paragraph" unicode="&#xb6;" horiz-adv-x="1286" 
d="M524 0v510q-207 20 -324.5 139.5t-117.5 317.5t138 320t378 122h135v-1409h-209zM893 0v1409h209v-1409h-209z" />
    <glyph glyph-name="periodcentered" unicode="&#xb7;" horiz-adv-x="559" 
d="M147 389v254h265v-254h-265z" />
    <glyph glyph-name="cedilla" unicode="&#xb8;" horiz-adv-x="1173" 
d="M557 -176h-68l62 176h74v-76q133 -6 160.5 -73.5t27.5 -107.5q0 -84 -61 -139t-179 -55h-124v121h108q100 0 100 77t-100 77z" />
    <glyph glyph-name="onesuperior" unicode="&#xb9;" 
d="M487 1720v-561h189v-143h-572v143h201v348l-151 -88l-74 125l297 176h110z" />
    <glyph glyph-name="ordmasculine" unicode="&#xba;" horiz-adv-x="862" 
d="M430 836q82 0 130 61.5t48 189t-68.5 159.5t-129 32t-108.5 -61t-48 -158t47 -160t129 -63zM161 1325q100 102 270 102t271 -99.5t101 -268t-101.5 -270t-272 -101.5t-269.5 100.5t-99 267.5t100 269z" />
    <glyph glyph-name="guillemotright" unicode="&#xbb;" horiz-adv-x="1099" 
d="M102 98l234 418l-234 418h183l293 -418l-293 -418h-183zM522 98l234 418l-234 418h183l292 -418l-292 -418h-183z" />
    <glyph glyph-name="onequarter" unicode="&#xbc;" horiz-adv-x="1624" 
d="M1292 262v219l-174 -219h174zM487 1409v-561h189v-143h-572v143h201v348l-151 -88l-74 125l297 176h110zM455 -25q689 1410 712 1459h154l-713 -1459h-153zM934 125v106l385 476h154v-445h96v-137h-96v-125h-181v125h-358z" />
    <glyph glyph-name="onehalf" unicode="&#xbd;" horiz-adv-x="1624" 
d="M487 1409v-561h189v-143h-572v143h201v348l-151 -88l-74 125l297 176h110zM408 -25q689 1410 712 1459h154l-713 -1459h-153zM1257 721q208 0 250.5 -83t42.5 -132q0 -90 -55 -140.5t-168 -103.5l-41 -20q-76 -34 -99.5 -61t-23.5 -38h385v-143h-598q0 204 93.5 268
t144.5 88l43 21q106 49 123.5 77t17.5 46q0 41 -30 63.5t-115 22.5t-97 -121h-172q4 128 89.5 192t209.5 64z" />
    <glyph glyph-name="threequarters" unicode="&#xbe;" horiz-adv-x="1624" 
d="M1292 262v219l-174 -219h174zM426 -25q53 111 195.5 401t279 571t238.5 487h151l-712 -1459h-152zM70 920h170q0 -51 26.5 -73t50 -29t52 -7t52 6t41 18.5t27 31t9.5 56.5t-38 62.5t-95 24.5h-50v114h50q85 0 101.5 34t16.5 55t-8 39t-22.5 28t-36 16.5t-61 6.5
t-70.5 -27.5t-31 -73.5h-168q0 104 78 163.5t208 59.5t206.5 -55t76.5 -144t-45 -119t-71 -36v-6q94 -18 116.5 -77.5t22.5 -101.5q0 -91 -81 -144.5t-228 -53.5q-216 0 -257.5 85.5t-41.5 146.5zM934 125v106l385 476h154v-445h96v-137h-96v-125h-181v125h-358z" />
    <glyph glyph-name="questiondown" unicode="&#xbf;" horiz-adv-x="1044" 
d="M70 -44q0 100 47 169.5t139 140t134 118.5t42 132v70h215v-54q0 -127 -47 -203.5t-140 -149.5t-129 -111t-36 -98q0 -104 60 -162t142 -58q145 0 207 75t62 191h217q0 -188 -118.5 -319t-333.5 -131t-338 100t-123 290zM418 754v245h244v-245h-244z" />
    <glyph glyph-name="Agrave" unicode="&#xc0;" horiz-adv-x="1361" 
d="M602 1573l-299 336h246l209 -336h-156zM682 1180h-8l-230 -645h465zM20 0l525 1409h272l524 -1409h-243l-121 342h-602l-121 -342h-234z" />
    <glyph glyph-name="Aacute" unicode="&#xc1;" horiz-adv-x="1361" 
d="M600 1573l209 336h246l-299 -336h-156zM682 1180h-8l-230 -645h465zM20 0l525 1409h272l524 -1409h-243l-121 342h-602l-121 -342h-234z" />
    <glyph glyph-name="Acircumflex" unicode="&#xc2;" horiz-adv-x="1361" 
d="M326 1573l262 336h182l262 -336h-194l-160 217l-158 -217h-194zM682 1180h-8l-230 -645h465zM20 0l525 1409h272l524 -1409h-243l-121 342h-602l-121 -342h-234z" />
    <glyph glyph-name="Atilde" unicode="&#xc3;" horiz-adv-x="1361" 
d="M829 1716q65 0 86 99h111q-6 -167 -81 -202.5t-120 -35.5q-73 0 -167 47t-122 47q-83 0 -94 -98h-110q6 168 80 202.5t120 34.5t83.5 -12t89 -36.5t76 -35t48.5 -10.5zM682 1180h-8l-230 -645h465zM20 0l525 1409h272l524 -1409h-243l-121 342h-602l-121 -342h-234z" />
    <glyph glyph-name="Adieresis" unicode="&#xc4;" horiz-adv-x="1361" 
d="M358 1573v213h211v-213h-211zM788 1573v213h209v-213h-209zM682 1180h-8l-230 -645h465zM20 0l525 1409h272l524 -1409h-243l-121 342h-602l-121 -342h-234z" />
    <glyph glyph-name="Aring" unicode="&#xc5;" horiz-adv-x="1361" 
d="M751 1684q31 29 31 62q0 34 -8 52.5t-22.5 32.5t-34 21.5t-50 7.5t-61.5 -29.5t-31 -61.5t8.5 -51.5t31.5 -41t64 -21.5t72 29zM530.5 1611q-63.5 57 -63.5 145q0 89 61.5 146.5t150.5 57.5t150.5 -57.5t61.5 -145.5t-61.5 -145.5t-148.5 -57.5t-150.5 57zM682 1180h-8
l-230 -645h465zM20 0l525 1409h272l524 -1409h-243l-121 342h-602l-121 -342h-234z" />
    <glyph glyph-name="AE" unicode="&#xc6;" horiz-adv-x="2234" 
d="M1122 512v649h-8l-465 -649h473zM2111 1409v-197h-757v-399h606v-190h-606v-426h776v-197h-1008v322h-608l-229 -322h-269l1018 1409h1077z" />
    <glyph glyph-name="Ccedilla" unicode="&#xc7;" horiz-adv-x="1478" 
d="M748 -176h-68l53 153q-290 12 -466.5 214.5t-176.5 515.5t192 520t500 207q247 0 407.5 -129t203.5 -351h-236q-73 275 -375 275q-203 0 -327.5 -145t-124.5 -378q0 -232 124 -379t322 -147q308 0 381 275h236q-41 -213 -189.5 -338.5t-388.5 -139.5v-53
q134 -6 161.5 -73.5t27.5 -107.5q0 -85 -62 -139.5t-178 -54.5h-125v121h109q100 0 100 77t-100 77z" />
    <glyph glyph-name="Egrave" unicode="&#xc8;" horiz-adv-x="1282" 
d="M592 1573l-299 336h246l209 -336h-156zM172 0v1409h987v-197h-756v-399h607v-190h-607v-426h775v-197h-1006z" />
    <glyph glyph-name="Eacute" unicode="&#xc9;" horiz-adv-x="1282" 
d="M590 1573l209 336h245l-299 -336h-155zM172 0v1409h987v-197h-756v-399h607v-190h-607v-426h775v-197h-1006z" />
    <glyph glyph-name="Ecircumflex" unicode="&#xca;" horiz-adv-x="1282" 
d="M315 1573l263 336h182l262 -336h-195l-159 217l-158 -217h-195zM172 0v1409h987v-197h-756v-399h607v-190h-607v-426h775v-197h-1006z" />
    <glyph glyph-name="Edieresis" unicode="&#xcb;" horiz-adv-x="1282" 
d="M348 1573v213h211v-213h-211zM778 1573v213h209v-213h-209zM172 0v1409h987v-197h-756v-399h607v-190h-607v-426h775v-197h-1006z" />
    <glyph glyph-name="Igrave" unicode="&#xcc;" horiz-adv-x="577" 
d="M213 1573l-299 336h246l209 -336h-156zM172 0v1409h231v-1409h-231z" />
    <glyph glyph-name="Iacute" unicode="&#xcd;" horiz-adv-x="577" 
d="M211 1573l209 336h246l-299 -336h-156zM172 0v1409h231v-1409h-231z" />
    <glyph glyph-name="Icircumflex" unicode="&#xce;" horiz-adv-x="577" 
d="M-63 1573l262 336h182l262 -336h-194l-160 217l-158 -217h-194zM172 0v1409h231v-1409h-231z" />
    <glyph glyph-name="Idieresis" unicode="&#xcf;" horiz-adv-x="577" 
d="M-31 1573v213h211v-213h-211zM399 1573v213h209v-213h-209zM172 0v1409h231v-1409h-231z" />
    <glyph glyph-name="Eth" unicode="&#xd0;" horiz-adv-x="1474" 
d="M631 1212h-228v-424h318v-161h-318v-430h228q266 0 389 143.5t123 364t-123 364t-389 143.5zM8 627v161h164v621h469q358 0 550.5 -194t192.5 -510.5t-192.5 -510.5t-550.5 -194h-469v627h-164z" />
    <glyph glyph-name="Ntilde" unicode="&#xd1;" horiz-adv-x="1533" 
d="M620 1810q46 0 83.5 -12t89 -36.5t76.5 -35t47 -10.5q39 0 57 25.5t31 73.5h110q-6 -167 -81 -202.5t-120 -35.5q-72 0 -166.5 47t-122.5 47q-83 0 -94 -98h-110q6 168 80 202.5t120 34.5zM172 0v1409h215l741 -1016h9l-9 1016h234v-1409h-213l-746 1012h-8l8 -1012h-231
z" />
    <glyph glyph-name="Ograve" unicode="&#xd2;" horiz-adv-x="1587" 
d="M717 1573l-299 336h246l208 -336h-155zM330 704.5q0 -112.5 32.5 -209t94 -167t147.5 -109.5t188.5 -39t189.5 39t148.5 109.5t94 167t32.5 209t-32.5 209t-94 167t-148.5 109.5t-189.5 39t-188.5 -39t-147.5 -109.5t-94 -167t-32.5 -209zM90 704.5q0 318.5 195 524
t506 205.5q310 0 508 -206t198 -523.5t-198 -523.5t-508 -206t-505.5 205.5t-195.5 524z" />
    <glyph glyph-name="Oacute" unicode="&#xd3;" horiz-adv-x="1587" 
d="M715 1573l209 336h245l-299 -336h-155zM330 704.5q0 -112.5 32.5 -209t94 -167t147.5 -109.5t188.5 -39t189.5 39t148.5 109.5t94 167t32.5 209t-32.5 209t-94 167t-148.5 109.5t-189.5 39t-188.5 -39t-147.5 -109.5t-94 -167t-32.5 -209zM90 704.5q0 318.5 195 524
t506 205.5q310 0 508 -206t198 -523.5t-198 -523.5t-508 -206t-505.5 205.5t-195.5 524z" />
    <glyph glyph-name="Ocircumflex" unicode="&#xd4;" horiz-adv-x="1587" 
d="M440 1573l262 336h183l262 -336h-195l-159 217l-158 -217h-195zM330 704.5q0 -112.5 32.5 -209t94 -167t147.5 -109.5t188.5 -39t189.5 39t148.5 109.5t94 167t32.5 209t-32.5 209t-94 167t-148.5 109.5t-189.5 39t-188.5 -39t-147.5 -109.5t-94 -167t-32.5 -209z
M90 704.5q0 318.5 195 524t506 205.5q310 0 508 -206t198 -523.5t-198 -523.5t-508 -206t-505.5 205.5t-195.5 524z" />
    <glyph glyph-name="Otilde" unicode="&#xd5;" horiz-adv-x="1587" 
d="M944 1716q65 0 86 99h111q-6 -167 -81 -202.5t-120 -35.5q-73 0 -167 47t-122 47q-83 0 -94 -98h-111q6 168 81 202.5t120 34.5q71 0 169 -47t128 -47zM330 704.5q0 -112.5 32.5 -209t94 -167t147.5 -109.5t188.5 -39t189.5 39t148.5 109.5t94 167t32.5 209t-32.5 209
t-94 167t-148.5 109.5t-189.5 39t-188.5 -39t-147.5 -109.5t-94 -167t-32.5 -209zM90 704.5q0 318.5 195 524t506 205.5q310 0 508 -206t198 -523.5t-198 -523.5t-508 -206t-505.5 205.5t-195.5 524z" />
    <glyph glyph-name="Odieresis" unicode="&#xd6;" horiz-adv-x="1587" 
d="M473 1573v213h211v-213h-211zM903 1573v213h209v-213h-209zM330 704.5q0 -112.5 32.5 -209t94 -167t147.5 -109.5t188.5 -39t189.5 39t148.5 109.5t94 167t32.5 209t-32.5 209t-94 167t-148.5 109.5t-189.5 39t-188.5 -39t-147.5 -109.5t-94 -167t-32.5 -209zM90 704.5
q0 318.5 195 524t506 205.5q310 0 508 -206t198 -523.5t-198 -523.5t-508 -206t-505.5 205.5t-195.5 524z" />
    <glyph glyph-name="multiply" unicode="&#xd7;" horiz-adv-x="1163" 
d="M145 831l129 127l308 -311l307 311l129 -127l-309 -311l311 -313l-129 -127l-309 311l-310 -311l-129 127l312 313z" />
    <glyph glyph-name="Oslash" unicode="&#xd8;" horiz-adv-x="1587" 
d="M813 1229q-227 0 -355 -147t-128 -377q0 -208 100 -345l633 781q-128 88 -250 88zM793 180q208 0 336 147t128 362t-102 358l-633 -781q125 -86 271 -86zM285 182q-195 203 -195 523q0 319 197 524t506 205q228 0 407 -125l100 125h170l-170 -209q197 -205 197 -521
t-200.5 -522.5t-503.5 -206.5q-224 0 -410 121l-98 -121h-168z" />
    <glyph glyph-name="Ugrave" unicode="&#xd9;" horiz-adv-x="1460" 
d="M653 1573l-299 336h246l209 -336h-156zM143 561v848h232v-846q0 -281 133 -332t266 -51t221 99t88 284v846h232v-848q0 -304 -154 -445t-505.5 -141t-432 214t-80.5 372z" />
    <glyph glyph-name="Uacute" unicode="&#xda;" horiz-adv-x="1460" 
d="M651 1573l209 336h246l-299 -336h-156zM143 561v848h232v-846q0 -281 133 -332t266 -51t221 99t88 284v846h232v-848q0 -304 -154 -445t-505.5 -141t-432 214t-80.5 372z" />
    <glyph glyph-name="Ucircumflex" unicode="&#xdb;" horiz-adv-x="1460" 
d="M377 1573l262 336h182l262 -336h-194l-160 217l-158 -217h-194zM143 561v848h232v-846q0 -281 133 -332t266 -51t221 99t88 284v846h232v-848q0 -304 -154 -445t-505.5 -141t-432 214t-80.5 372z" />
    <glyph glyph-name="Udieresis" unicode="&#xdc;" horiz-adv-x="1460" 
d="M410 1573v213h211v-213h-211zM840 1573v213h209v-213h-209zM143 561v848h232v-846q0 -281 133 -332t266 -51t221 99t88 284v846h232v-848q0 -304 -154 -445t-505.5 -141t-432 214t-80.5 372z" />
    <glyph glyph-name="Yacute" unicode="&#xdd;" horiz-adv-x="1304" 
d="M573 1573l209 336h246l-299 -336h-156zM532 0v545l-509 864h262l364 -635h8l379 635h244l-516 -854v-555h-232z" />
    <glyph glyph-name="Thorn" unicode="&#xde;" horiz-adv-x="1341" 
d="M733 993h-330v-549h330q137 0 212 79t75 235t-107.5 195.5t-179.5 39.5zM172 0v1409h231v-223h340q242 0 376 -126t134 -333.5t-135.5 -341t-374.5 -133.5h-340v-252h-231z" />
    <glyph glyph-name="germandbls" unicode="&#xdf;" horiz-adv-x="1210" 
d="M150 0v1036q0 242 127 365t337.5 123t310 -94.5t99.5 -225.5q0 -70 -26.5 -121t-82 -107t-75 -80t-19.5 -66t23.5 -64.5t121 -96t142.5 -140.5t45 -161q0 -181 -115 -274.5t-290 -93.5h-195v176h180q140 0 169.5 63t29.5 117t-37 92.5t-118 94t-122 112t-41 140.5t27 132
t79 101t75.5 86t23.5 74q0 76 -53 120t-131 44t-171 -37t-93 -273v-1042h-221z" />
    <glyph glyph-name="agrave" unicode="&#xe0;" horiz-adv-x="1107" 
d="M487 1163l-299 336h246l209 -336h-156zM750 410v92q-28 -28 -56 -35.5t-47 -11.5l-172 -29q-162 -23 -162 -133t64.5 -131t111.5 -21q108 0 184.5 70.5t76.5 198.5zM750 125q-92 -150 -332 -150q-150 0 -238 77.5t-88 204t79 201.5t255 103l195 33q105 16 117 34.5
t12 33.5q0 196 -197 196q-146 0 -176.5 -68.5t-34.5 -107.5h-211q8 152 119.5 247t302.5 95q313 0 365.5 -139.5t52.5 -227.5v-657h-211v125h-10z" />
    <glyph glyph-name="aacute" unicode="&#xe1;" horiz-adv-x="1107" 
d="M453 1163l209 336h245l-299 -336h-155zM750 410v92q-28 -28 -56 -35.5t-47 -11.5l-172 -29q-162 -23 -162 -133t64.5 -131t111.5 -21q108 0 184.5 70.5t76.5 198.5zM750 125q-92 -150 -332 -150q-150 0 -238 77.5t-88 204t79 201.5t255 103l195 33q105 16 117 34.5
t12 33.5q0 196 -197 196q-146 0 -176.5 -68.5t-34.5 -107.5h-211q8 152 119.5 247t302.5 95q313 0 365.5 -139.5t52.5 -227.5v-657h-211v125h-10z" />
    <glyph glyph-name="acircumflex" unicode="&#xe2;" horiz-adv-x="1107" 
d="M195 1163l262 336h182l262 -336h-194l-160 217l-158 -217h-194zM750 410v92q-28 -28 -56 -35.5t-47 -11.5l-172 -29q-162 -23 -162 -133t64.5 -131t111.5 -21q108 0 184.5 70.5t76.5 198.5zM750 125q-92 -150 -332 -150q-150 0 -238 77.5t-88 204t79 201.5t255 103
l195 33q105 16 117 34.5t12 33.5q0 196 -197 196q-146 0 -176.5 -68.5t-34.5 -107.5h-211q8 152 119.5 247t302.5 95q313 0 365.5 -139.5t52.5 -227.5v-657h-211v125h-10z" />
    <glyph glyph-name="atilde" unicode="&#xe3;" horiz-adv-x="1107" 
d="M404 1309q-83 0 -93 -99h-110q6 169 80.5 204.5t120.5 35.5q68 0 166.5 -47t129.5 -47q64 0 86 98h111q-6 -169 -81 -204.5t-120 -35.5q-73 0 -168 47.5t-122 47.5zM750 410v92q-28 -28 -56 -35.5t-47 -11.5l-172 -29q-162 -23 -162 -133t64.5 -131t111.5 -21
q108 0 184.5 70.5t76.5 198.5zM750 125q-92 -150 -332 -150q-150 0 -238 77.5t-88 204t79 201.5t255 103l195 33q105 16 117 34.5t12 33.5q0 196 -197 196q-146 0 -176.5 -68.5t-34.5 -107.5h-211q8 152 119.5 247t302.5 95q313 0 365.5 -139.5t52.5 -227.5v-657h-211v125
h-10z" />
    <glyph glyph-name="adieresis" unicode="&#xe4;" horiz-adv-x="1107" 
d="M227 1229v213h211v-213h-211zM657 1229v213h209v-213h-209zM750 410v92q-28 -28 -56 -35.5t-47 -11.5l-172 -29q-162 -23 -162 -133t64.5 -131t111.5 -21q108 0 184.5 70.5t76.5 198.5zM750 125q-92 -150 -332 -150q-150 0 -238 77.5t-88 204t79 201.5t255 103l195 33
q105 16 117 34.5t12 33.5q0 196 -197 196q-146 0 -176.5 -68.5t-34.5 -107.5h-211q8 152 119.5 247t302.5 95q313 0 365.5 -139.5t52.5 -227.5v-657h-211v125h-10z" />
    <glyph glyph-name="aring" unicode="&#xe5;" horiz-adv-x="1107" 
d="M619 1273.5q32 28.5 32 63.5q0 34 -8 52t-22.5 32.5t-34 21.5t-51.5 7t-61.5 -30.5t-29.5 -60.5q0 -31 8.5 -51t31.5 -41.5t63 -21.5t72 28.5zM399.5 1202q-63.5 57 -63.5 145t60.5 145.5t151 57.5t151.5 -57.5t61 -145.5q0 -87 -61.5 -144.5t-148.5 -57.5t-150.5 57z
M750 410v92q-28 -28 -56 -35.5t-47 -11.5l-172 -29q-162 -23 -162 -133t64.5 -131t111.5 -21q108 0 184.5 70.5t76.5 198.5zM750 125q-92 -150 -332 -150q-150 0 -238 77.5t-88 204t79 201.5t255 103l195 33q105 16 117 34.5t12 33.5q0 196 -197 196q-146 0 -176.5 -68.5
t-34.5 -107.5h-211q8 152 119.5 247t302.5 95q313 0 365.5 -139.5t52.5 -227.5v-657h-211v125h-10z" />
    <glyph glyph-name="ae" unicode="&#xe6;" horiz-adv-x="1753" 
d="M1226 852q-98 0 -163.5 -64t-85.5 -178h473q-12 175 -93 208.5t-131 33.5zM750 410v92q-28 -28 -56 -35.5t-47 -11.5l-172 -29q-162 -23 -162 -147q0 -98 64.5 -118t112.5 -20q106 0 183 68.5t77 200.5zM92 255q0 252 334 306l195 33q81 12 105 28t24 54q0 78 -50 130
t-147 52q-141 0 -175 -66.5t-36 -109.5h-211q12 171 129 256.5t293 85.5q237 0 338 -133q124 133 331 133t332 -128.5t125 -358.5v-74h-710q8 -146 76.5 -229.5t187.5 -83.5q180 0 219 153h217q-20 -136 -142.5 -232t-295.5 -96q-278 0 -393 201q-123 -201 -387 -201
t-311.5 109t-47.5 171z" />
    <glyph glyph-name="ccedilla" unicode="&#xe7;" horiz-adv-x="1093" 
d="M547 -176h-68l53 153q-213 12 -333.5 150t-120.5 373t138 379.5t348 144.5t327.5 -100.5t138.5 -266.5h-219q-13 82 -72.5 135.5t-169.5 53.5t-186 -94.5t-76 -251.5t76 -251.5t192 -94.5q197 0 236 188h219q-20 -154 -124.5 -252.5t-291.5 -112.5v-53
q134 -6 161.5 -73.5t27.5 -107.5q0 -84 -61 -139t-179 -55h-125v121h109q100 0 100 77t-100 77z" />
    <glyph glyph-name="egrave" unicode="&#xe8;" horiz-adv-x="1114" 
d="M498 1163l-299 336h245l209 -336h-155zM575 852q-100 0 -166.5 -62.5t-93.5 -177.5h500q-18 180 -103.5 210t-136.5 30zM216.5 877.5q138.5 146.5 352.5 146.5t342.5 -127t128.5 -360v-74h-735q8 -145 82.5 -229t207.5 -84t171.5 61t46.5 92h217q-20 -137 -144.5 -232.5
t-305.5 -95.5q-239 0 -370.5 137.5t-131.5 377.5q0 241 138.5 387.5z" />
    <glyph glyph-name="eacute" unicode="&#xe9;" horiz-adv-x="1114" 
d="M496 1163l209 336h245l-299 -336h-155zM575 852q-100 0 -166.5 -62.5t-93.5 -177.5h500q-18 180 -103.5 210t-136.5 30zM216.5 877.5q138.5 146.5 352.5 146.5t342.5 -127t128.5 -360v-74h-735q8 -145 82.5 -229t207.5 -84t171.5 61t46.5 92h217q-20 -137 -144.5 -232.5
t-305.5 -95.5q-239 0 -370.5 137.5t-131.5 377.5q0 241 138.5 387.5z" />
    <glyph glyph-name="ecircumflex" unicode="&#xea;" horiz-adv-x="1114" 
d="M221 1163l262 336h183l262 -336h-195l-160 217l-157 -217h-195zM575 852q-100 0 -166.5 -62.5t-93.5 -177.5h500q-18 180 -103.5 210t-136.5 30zM216.5 877.5q138.5 146.5 352.5 146.5t342.5 -127t128.5 -360v-74h-735q8 -145 82.5 -229t207.5 -84t171.5 61t46.5 92h217
q-20 -137 -144.5 -232.5t-305.5 -95.5q-239 0 -370.5 137.5t-131.5 377.5q0 241 138.5 387.5z" />
    <glyph glyph-name="edieresis" unicode="&#xeb;" horiz-adv-x="1114" 
d="M254 1229v213h211v-213h-211zM684 1229v213h209v-213h-209zM575 852q-100 0 -166.5 -62.5t-93.5 -177.5h500q-18 180 -103.5 210t-136.5 30zM216.5 877.5q138.5 146.5 352.5 146.5t342.5 -127t128.5 -360v-74h-735q8 -145 82.5 -229t207.5 -84t171.5 61t46.5 92h217
q-20 -137 -144.5 -232.5t-305.5 -95.5q-239 0 -370.5 137.5t-131.5 377.5q0 241 138.5 387.5z" />
    <glyph glyph-name="igrave" unicode="&#xec;" horiz-adv-x="522" 
d="M184 1163l-299 336h246l209 -336h-156zM150 0v999h221v-999h-221z" />
    <glyph glyph-name="iacute" unicode="&#xed;" horiz-adv-x="522" 
d="M182 1163l209 336h246l-299 -336h-156zM150 0v999h221v-999h-221z" />
    <glyph glyph-name="icircumflex" unicode="&#xee;" horiz-adv-x="522" 
d="M-92 1163l262 336h182l262 -336h-194l-160 217l-158 -217h-194zM150 0v999h221v-999h-221z" />
    <glyph glyph-name="idieresis" unicode="&#xef;" horiz-adv-x="522" 
d="M-59 1229v213h211v-213h-211zM371 1229v213h209v-213h-209zM150 0v999h221v-999h-221z" />
    <glyph glyph-name="eth" unicode="&#xf0;" horiz-adv-x="1214" 
d="M317 467q0 -140 80.5 -226.5t206.5 -86.5t206.5 86.5t80.5 227.5t-79.5 226.5t-206.5 85.5t-207.5 -86.5t-80.5 -226.5zM1122 553v-4q0 -278 -142 -426t-375 -148t-374 136.5t-141 353.5t142 355t348 138q134 0 199 -42t89 -70h11q-60 220 -232 352l-219 -149l-74 104
l172 119q-150 67 -243 94l53 158q208 -57 354 -140l199 138l72 -107l-154 -106q235 -176 275 -393.5t40 -362.5z" />
    <glyph glyph-name="ntilde" unicode="&#xf1;" horiz-adv-x="1189" 
d="M457 1309q-82 0 -92 -99h-111q6 169 81 204.5t120 35.5t82.5 -12.5t89 -37t76 -34.5t49.5 -10q64 0 86 98h110q-6 -169 -80 -204.5t-120 -35.5q-72 0 -168.5 47.5t-122.5 47.5zM834 578q0 266 -213 266q-109 0 -179.5 -86t-70.5 -236v-522h-221v999h212v-145h9
q79 170 309 170q262 0 318.5 -152.5t56.5 -265.5v-606h-221v578z" />
    <glyph glyph-name="ograve" unicode="&#xf2;" horiz-adv-x="1181" 
d="M514 1163l-299 336h246l209 -336h-156zM309 500q0 -154 77 -250t204 -96t203.5 96.5t76.5 253.5q0 158 -76.5 250t-203.5 92t-204 -96t-77 -250zM222 880q142 144 373 144t368 -141.5t137 -381.5t-141 -383t-371 -143t-369 141t-139 380q0 240 142 384z" />
    <glyph glyph-name="oacute" unicode="&#xf3;" horiz-adv-x="1181" 
d="M512 1163l209 336h246l-299 -336h-156zM309 500q0 -154 77 -250t204 -96t203.5 96.5t76.5 253.5q0 158 -76.5 250t-203.5 92t-204 -96t-77 -250zM222 880q142 144 373 144t368 -141.5t137 -381.5t-141 -383t-371 -143t-369 141t-139 380q0 240 142 384z" />
    <glyph glyph-name="ocircumflex" unicode="&#xf4;" horiz-adv-x="1181" 
d="M238 1163l262 336h182l262 -336h-194l-160 217l-158 -217h-194zM309 500q0 -154 77 -250t204 -96t203.5 96.5t76.5 253.5q0 158 -76.5 250t-203.5 92t-204 -96t-77 -250zM222 880q142 144 373 144t368 -141.5t137 -381.5t-141 -383t-371 -143t-369 141t-139 380
q0 240 142 384z" />
    <glyph glyph-name="otilde" unicode="&#xf5;" horiz-adv-x="1181" 
d="M447 1309q-83 0 -93 -99h-110q6 169 80 204.5t120 35.5q68 0 167 -47t130 -47q64 0 86 98h111q-6 -169 -81 -204.5t-120 -35.5q-73 0 -168 47.5t-122 47.5zM309 500q0 -154 77 -250t204 -96t203.5 96.5t76.5 253.5q0 158 -76.5 250t-203.5 92t-204 -96t-77 -250zM222 880
q142 144 373 144t368 -141.5t137 -381.5t-141 -383t-371 -143t-369 141t-139 380q0 240 142 384z" />
    <glyph glyph-name="odieresis" unicode="&#xf6;" horiz-adv-x="1181" 
d="M270 1229v213h211v-213h-211zM700 1229v213h209v-213h-209zM309 500q0 -154 77 -250t204 -96t203.5 96.5t76.5 253.5q0 158 -76.5 250t-203.5 92t-204 -96t-77 -250zM222 880q142 144 373 144t368 -141.5t137 -381.5t-141 -383t-371 -143t-369 141t-139 380
q0 240 142 384z" />
    <glyph glyph-name="divide" unicode="&#xf7;" horiz-adv-x="1163" 
d="M473 39v221h217v-221h-217zM115 430v180h934v-180h-934zM473 778v221h217v-221h-217z" />
    <glyph glyph-name="oslash" unicode="&#xf8;" horiz-adv-x="1177" 
d="M868 483q0 137 -43 215l-401 -489q63 -55 144 -55q147 0 223.5 96t76.5 233zM607 846q-146 0 -223 -96t-77 -230q0 -135 45 -225l404 491q-69 60 -149 60zM211 121q-133 141 -133 380q0 238 142.5 380.5t367.5 142.5q166 0 297 -80l65 80h144l-125 -152
q131 -148 131 -380q0 -233 -144 -375t-368 -142q-162 0 -293 76l-62 -76h-141z" />
    <glyph glyph-name="ugrave" unicode="&#xf9;" horiz-adv-x="1181" 
d="M518 1163l-299 336h246l209 -336h-156zM354 422q0 -266 213 -266q109 0 176.5 87t67.5 240v516h221v-999h-211v145h-8q-79 -170 -303 -170q-263 0 -320 152.5t-57 265.5v606h221v-577z" />
    <glyph glyph-name="uacute" unicode="&#xfa;" horiz-adv-x="1181" 
d="M516 1163l209 336h246l-299 -336h-156zM354 422q0 -266 213 -266q109 0 176.5 87t67.5 240v516h221v-999h-211v145h-8q-79 -170 -303 -170q-263 0 -320 152.5t-57 265.5v606h221v-577z" />
    <glyph glyph-name="ucircumflex" unicode="&#xfb;" horiz-adv-x="1181" 
d="M242 1163l262 336h182l262 -336h-194l-160 217l-158 -217h-194zM354 422q0 -266 213 -266q109 0 176.5 87t67.5 240v516h221v-999h-211v145h-8q-79 -170 -303 -170q-263 0 -320 152.5t-57 265.5v606h221v-577z" />
    <glyph glyph-name="udieresis" unicode="&#xfc;" horiz-adv-x="1181" 
d="M274 1229v213h211v-213h-211zM705 1229v213h208v-213h-208zM354 422q0 -266 213 -266q109 0 176.5 87t67.5 240v516h221v-999h-211v145h-8q-79 -170 -303 -170q-263 0 -320 152.5t-57 265.5v606h221v-577z" />
    <glyph glyph-name="yacute" unicode="&#xfd;" horiz-adv-x="1009" 
d="M424 1163l209 336h246l-299 -336h-156zM207 -467h-111v182h66q169 0 241 195l31 90h-53l-373 999h242l260 -770h8l260 770h223l-411 -1138q-114 -328 -383 -328z" />
    <glyph glyph-name="thorn" unicode="&#xfe;" horiz-adv-x="1228" 
d="M842.5 756q-75.5 90 -194.5 90q-120 0 -196.5 -88t-80.5 -242v-16q0 -158 76 -252t198 -94t197.5 96.5t75.5 256t-75.5 249.5zM702 1024q198 0 322.5 -138t124.5 -378.5t-133.5 -386.5t-329.5 -146q-231 0 -315 175h-9q9 -212 9 -222v-379h-221v1950h221v-257
q0 -257 -9 -392h9q89 174 331 174z" />
    <glyph glyph-name="ydieresis" unicode="&#xff;" horiz-adv-x="1009" 
d="M182 1229v213h211v-213h-211zM612 1229v213h209v-213h-209zM207 -467h-111v182h66q169 0 241 195l31 90h-53l-373 999h242l260 -770h8l260 770h223l-411 -1138q-114 -328 -383 -328z" />
    <glyph glyph-name="Amacron" unicode="&#x100;" horiz-adv-x="1361" 
d="M381 1589v158h588v-158h-588zM682 1180h-8l-230 -645h465zM20 0l525 1409h272l524 -1409h-243l-121 342h-602l-121 -342h-234z" />
    <glyph glyph-name="amacron" unicode="&#x101;" horiz-adv-x="1107" 
d="M250 1251v160h588v-160h-588zM750 410v92q-28 -28 -56 -35.5t-47 -11.5l-172 -29q-162 -23 -162 -133t64.5 -131t111.5 -21q108 0 184.5 70.5t76.5 198.5zM750 125q-92 -150 -332 -150q-150 0 -238 77.5t-88 204t79 201.5t255 103l195 33q105 16 117 34.5t12 33.5
q0 196 -197 196q-146 0 -176.5 -68.5t-34.5 -107.5h-211q8 152 119.5 247t302.5 95q313 0 365.5 -139.5t52.5 -227.5v-657h-211v125h-10z" />
    <glyph glyph-name="Abreve" unicode="&#x102;" horiz-adv-x="1361" 
d="M641.5 1573q-156.5 0 -208.5 108.5t-60 190.5h129q25 -168 176 -168q152 0 178 168h129q-15 -158 -101 -228.5t-242.5 -70.5zM682 1180h-8l-230 -645h465zM20 0l525 1409h272l524 -1409h-243l-121 342h-602l-121 -342h-234z" />
    <glyph glyph-name="abreve" unicode="&#x103;" horiz-adv-x="1107" 
d="M342 1253q-85 71 -100 228h129q26 -166 157.5 -166t161 63.5t35.5 102.5h129q-15 -157 -100 -228t-206 -71t-206 71zM750 410v92q-28 -28 -56 -35.5t-47 -11.5l-172 -29q-162 -23 -162 -133t64.5 -131t111.5 -21q108 0 184.5 70.5t76.5 198.5zM750 125
q-92 -150 -332 -150q-150 0 -238 77.5t-88 204t79 201.5t255 103l195 33q105 16 117 34.5t12 33.5q0 196 -197 196q-146 0 -176.5 -68.5t-34.5 -107.5h-211q8 152 119.5 247t302.5 95q313 0 365.5 -139.5t52.5 -227.5v-657h-211v125h-10z" />
    <glyph glyph-name="Aogonek" unicode="&#x104;" horiz-adv-x="1361" 
d="M682 1180h-8l-230 -645h465zM1221 -218.5q0 -96.5 108 -96.5h60v-136h-82q-179 0 -211.5 73t-32.5 111q0 73 39 134t127 133h-131l-121 342h-602l-121 -342h-234l525 1409h272l524 -1409h2q-122 -122 -122 -218.5z" />
    <glyph glyph-name="aogonek" unicode="&#x105;" horiz-adv-x="1107" 
d="M750 410v92q-28 -28 -56 -35.5t-47 -11.5l-172 -29q-162 -23 -162 -133t64.5 -131t111.5 -21q108 0 184.5 70.5t76.5 198.5zM750 125q-92 -150 -332 -150q-150 0 -238 77.5t-88 204t79 201.5t255 103l195 33q105 16 117 34.5t12 33.5q0 196 -197 196q-146 0 -176.5 -68.5
t-34.5 -107.5h-211q8 152 119.5 247t302.5 95q313 0 365.5 -139.5t52.5 -227.5v-657q-123 -123 -123 -219t108 -96h60v-136h-82q-179 0 -211.5 73t-32.5 116q0 126 166 262h-96v125h-10z" />
    <glyph glyph-name="Cacute" unicode="&#x106;" horiz-adv-x="1478" 
d="M705 1573l208 336h246l-299 -336h-155zM776 180q308 0 381 275h236q-40 -219 -204.5 -349.5t-414.5 -130.5q-306 0 -495 203.5t-189 522.5t192 526t500 207q247 0 407.5 -129t203.5 -351h-236q-73 275 -375 275q-203 0 -327.5 -145t-124.5 -378q0 -232 124 -379t322 -147
z" />
    <glyph glyph-name="cacute" unicode="&#x107;" horiz-adv-x="1093" 
d="M498 1163l209 336h245l-299 -336h-155zM569 -25q-223 0 -357 138t-134 380t138 386.5t348 144.5t327.5 -100.5t138.5 -266.5h-219q-13 82 -72.5 135.5t-169.5 53.5t-186 -94.5t-76 -251.5t76 -251.5t192 -94.5q197 0 236 188h219q-33 -257 -192.5 -312t-268.5 -55z" />
    <glyph glyph-name="Ccircumflex" unicode="&#x108;" horiz-adv-x="1478" 
d="M430 1573l262 336h182l263 -336h-195l-160 217l-157 -217h-195zM776 180q308 0 381 275h236q-40 -219 -204.5 -349.5t-414.5 -130.5q-306 0 -495 203.5t-189 522.5t192 526t500 207q247 0 407.5 -129t203.5 -351h-236q-73 275 -375 275q-203 0 -327.5 -145t-124.5 -378
q0 -232 124 -379t322 -147z" />
    <glyph glyph-name="ccircumflex" unicode="&#x109;" horiz-adv-x="1093" 
d="M223 1163l262 336h183l262 -336h-195l-160 217l-157 -217h-195zM569 -25q-223 0 -357 138t-134 380t138 386.5t348 144.5t327.5 -100.5t138.5 -266.5h-219q-13 82 -72.5 135.5t-169.5 53.5t-186 -94.5t-76 -251.5t76 -251.5t192 -94.5q197 0 236 188h219
q-33 -257 -192.5 -312t-268.5 -55z" />
    <glyph glyph-name="Cdotaccent" unicode="&#x10a;" horiz-adv-x="1478" 
d="M678 1573v213h211v-213h-211zM776 180q308 0 381 275h236q-40 -219 -204.5 -349.5t-414.5 -130.5q-306 0 -495 203.5t-189 522.5t192 526t500 207q247 0 407.5 -129t203.5 -351h-236q-73 275 -375 275q-203 0 -327.5 -145t-124.5 -378q0 -232 124 -379t322 -147z" />
    <glyph glyph-name="cdotaccent" unicode="&#x10b;" horiz-adv-x="1093" 
d="M471 1229v213h211v-213h-211zM569 -25q-223 0 -357 138t-134 380t138 386.5t348 144.5t327.5 -100.5t138.5 -266.5h-219q-13 82 -72.5 135.5t-169.5 53.5t-186 -94.5t-76 -251.5t76 -251.5t192 -94.5q197 0 236 188h219q-33 -257 -192.5 -312t-268.5 -55z" />
    <glyph glyph-name="Ccaron" unicode="&#x10c;" horiz-adv-x="1478" 
d="M692 1573l-262 336h195l157 -217l160 217h195l-263 -336h-182zM776 180q308 0 381 275h236q-40 -219 -204.5 -349.5t-414.5 -130.5q-306 0 -495 203.5t-189 522.5t192 526t500 207q247 0 407.5 -129t203.5 -351h-236q-73 275 -375 275q-203 0 -327.5 -145t-124.5 -378
q0 -232 124 -379t322 -147z" />
    <glyph glyph-name="ccaron" unicode="&#x10d;" horiz-adv-x="1093" 
d="M485 1163l-262 336h195l157 -217l160 217h195l-262 -336h-183zM569 -25q-223 0 -357 138t-134 380t138 386.5t348 144.5t327.5 -100.5t138.5 -266.5h-219q-13 82 -72.5 135.5t-169.5 53.5t-186 -94.5t-76 -251.5t76 -251.5t192 -94.5q197 0 236 188h219
q-33 -257 -192.5 -312t-268.5 -55z" />
    <glyph glyph-name="Dcaron" unicode="&#x10e;" horiz-adv-x="1474" 
d="M590 1573l-262 336h194l158 -217l160 217h194l-262 -336h-182zM631 1212h-228v-1015h228q266 0 389 143.5t123 364t-123 364t-389 143.5zM172 0v1409h469q358 0 550.5 -194t192.5 -510.5t-192.5 -510.5t-550.5 -194h-469z" />
    <glyph glyph-name="dcaron" unicode="&#x10f;" horiz-adv-x="1228" 
d="M1229 1286v213h223v-192l-94 -250h-103l66 229h-92zM386 243.5q77 -89.5 194 -89.5t194.5 88t81.5 241v17q0 159 -77 252.5t-196 93.5t-196.5 -96t-77.5 -256.5t77 -250zM526 -25q-196 0 -321 137.5t-125 378.5t133.5 387t329.5 146q230 0 315 -174h8q-10 112 -10 135
v514h221v-1499h-211v150h-8q-89 -175 -332 -175z" />
    <glyph glyph-name="Dcroat" unicode="&#x110;" horiz-adv-x="1474" 
d="M631 1212h-228v-424h318v-161h-318v-430h228q266 0 389 143.5t123 364t-123 364t-389 143.5zM8 627v161h164v621h469q358 0 550.5 -194t192.5 -510.5t-192.5 -510.5t-550.5 -194h-469v627h-164z" />
    <glyph glyph-name="dcroat" unicode="&#x111;" horiz-adv-x="1228" 
d="M779 247.5q77 93.5 77 252.5v16q-4 154 -81.5 242t-194.5 88t-194 -96t-77 -256.5t77 -250t196.5 -89.5t196.5 93.5zM856 985v223h-293v133h293v158h221v-158h152v-133h-152v-1208h-211v150h-8q-89 -175 -332 -175q-196 0 -321 137.5t-125 378.5t133.5 387t329.5 146
q230 0 315 -174h8q-10 112 -10 135z" />
    <glyph glyph-name="Emacron" unicode="&#x112;" horiz-adv-x="1282" 
d="M371 1589v158h587v-158h-587zM172 0v1409h987v-197h-756v-399h607v-190h-607v-426h775v-197h-1006z" />
    <glyph glyph-name="emacron" unicode="&#x113;" horiz-adv-x="1114" 
d="M276 1251v160h588v-160h-588zM575 852q-100 0 -166.5 -62.5t-93.5 -177.5h500q-18 180 -103.5 210t-136.5 30zM216.5 877.5q138.5 146.5 352.5 146.5t342.5 -127t128.5 -360v-74h-735q8 -145 82.5 -229t207.5 -84t171.5 61t46.5 92h217q-20 -137 -144.5 -232.5
t-305.5 -95.5q-239 0 -370.5 137.5t-131.5 377.5q0 241 138.5 387.5z" />
    <glyph glyph-name="Ebreve" unicode="&#x114;" horiz-adv-x="1282" 
d="M631 1573q-156 0 -208 108.5t-61 190.5h130q25 -168 176 -168q152 0 178 168h129q-15 -157 -101.5 -228t-242.5 -71zM172 0v1409h987v-197h-756v-399h607v-190h-607v-426h775v-197h-1006z" />
    <glyph glyph-name="ebreve" unicode="&#x115;" horiz-adv-x="1114" 
d="M538.5 1182q-156.5 0 -209.5 108.5t-61 190.5h129q26 -166 175.5 -166t179.5 166h129q-15 -156 -100.5 -227.5t-242 -71.5zM575 852q-100 0 -166.5 -62.5t-93.5 -177.5h500q-18 180 -103.5 210t-136.5 30zM216.5 877.5q138.5 146.5 352.5 146.5t342.5 -127t128.5 -360
v-74h-735q8 -145 82.5 -229t207.5 -84t171.5 61t46.5 92h217q-20 -137 -144.5 -232.5t-305.5 -95.5q-239 0 -370.5 137.5t-131.5 377.5q0 241 138.5 387.5z" />
    <glyph glyph-name="Edotaccent" unicode="&#x116;" horiz-adv-x="1282" 
d="M563 1573v213h211v-213h-211zM172 0v1409h987v-197h-756v-399h607v-190h-607v-426h775v-197h-1006z" />
    <glyph glyph-name="edotaccent" unicode="&#x117;" horiz-adv-x="1114" 
d="M469 1229v213h211v-213h-211zM575 852q-100 0 -166.5 -62.5t-93.5 -177.5h500q-18 180 -103.5 210t-136.5 30zM216.5 877.5q138.5 146.5 352.5 146.5t342.5 -127t128.5 -360v-74h-735q8 -145 82.5 -229t207.5 -84t171.5 61t46.5 92h217q-20 -137 -144.5 -232.5
t-305.5 -95.5q-239 0 -370.5 137.5t-131.5 377.5q0 241 138.5 387.5z" />
    <glyph glyph-name="Eogonek" unicode="&#x118;" horiz-adv-x="1282" 
d="M1057 -219q0 -96 108 -96h60v-136h-82q-179 0 -211.5 73t-32.5 111q0 71 38.5 132.5t127.5 134.5h-893v1409h987v-197h-756v-399h607v-190h-607v-426h775v-197h2q-123 -123 -123 -219z" />
    <glyph glyph-name="eogonek" unicode="&#x119;" horiz-adv-x="1114" 
d="M575 852q-100 0 -166.5 -62.5t-93.5 -177.5h500q-18 180 -103.5 210t-136.5 30zM688 -451q-248 0 -248 199q0 126 160 227h-20q-239 0 -370.5 137.5t-131.5 377.5t138.5 387t352.5 147t342.5 -127t128.5 -360v-74h-735q8 -145 82.5 -229t207.5 -84t171.5 61t46.5 92h217
q-24 -157 -188 -262q-240 -149 -240 -256q0 -100 109 -100h59v-136h-82z" />
    <glyph glyph-name="Ecaron" unicode="&#x11a;" horiz-adv-x="1282" 
d="M578 1573l-263 336h195l158 -217l159 217h195l-262 -336h-182zM172 0v1409h987v-197h-756v-399h607v-190h-607v-426h775v-197h-1006z" />
    <glyph glyph-name="ecaron" unicode="&#x11b;" horiz-adv-x="1114" 
d="M483 1163l-262 336h195l157 -217l160 217h195l-262 -336h-183zM575 852q-100 0 -166.5 -62.5t-93.5 -177.5h500q-18 180 -103.5 210t-136.5 30zM216.5 877.5q138.5 146.5 352.5 146.5t342.5 -127t128.5 -360v-74h-735q8 -145 82.5 -229t207.5 -84t171.5 61t46.5 92h217
q-20 -137 -144.5 -232.5t-305.5 -95.5q-239 0 -370.5 137.5t-131.5 377.5q0 241 138.5 387.5z" />
    <glyph glyph-name="Gcircumflex" unicode="&#x11c;" horiz-adv-x="1570" 
d="M446 1573l263 336h182l262 -336h-195l-159 217l-158 -217h-195zM1233 186q-139 -211 -448 -211t-502 208t-193 524q0 317 197 522t512 205q252 0 417 -127.5t205 -321.5h-235q-53 169 -179 206.5t-219 37.5t-180.5 -38t-150 -108.5t-95 -167t-32.5 -269t128 -319.5
t321 -147t313 99t120 264v24h-413v187h620v-754h-149l-31 186h-6z" />
    <glyph glyph-name="gcircumflex" unicode="&#x11d;" horiz-adv-x="1228" 
d="M229 1163l263 336h182l262 -336h-195l-159 217l-158 -217h-195zM779 247.5q77 93.5 77 252.5v16q-4 154 -81.5 242t-194.5 88t-194 -96t-77 -256.5t77 -250t196.5 -89.5t196.5 93.5zM543 1024q230 0 315 -174h8v149h211v-948q0 -266 -136.5 -392t-358.5 -126t-347 87.5
t-129 256.5h209q0 -79 71.5 -128.5t161.5 -49.5q89 0 203.5 39t114.5 313v99h-8q-89 -175 -332 -175q-196 0 -321 137.5t-125 378.5t133.5 387t329.5 146z" />
    <glyph glyph-name="Gbreve" unicode="&#x11e;" horiz-adv-x="1570" 
d="M762 1573q-156 0 -208 108.5t-60 190.5h129q25 -168 176 -168q152 0 178 168h129q-15 -157 -101.5 -228t-242.5 -71zM1233 186q-139 -211 -448 -211t-502 208t-193 524q0 317 197 522t512 205q252 0 417 -127.5t205 -321.5h-235q-53 169 -179 206.5t-219 37.5t-180.5 -38
t-150 -108.5t-95 -167t-32.5 -269t128 -319.5t321 -147t313 99t120 264v24h-413v187h620v-754h-149l-31 186h-6z" />
    <glyph glyph-name="gbreve" unicode="&#x11f;" horiz-adv-x="1228" 
d="M563.5 1315q131.5 0 161 63.5t35.5 102.5h129q-15 -156 -100.5 -227.5t-242.5 -71.5t-209 108.5t-61 190.5h130q26 -166 157.5 -166zM779 247.5q77 93.5 77 252.5v16q-4 154 -81.5 242t-194.5 88t-194 -96t-77 -256.5t77 -250t196.5 -89.5t196.5 93.5zM543 1024
q230 0 315 -174h8v149h211v-948q0 -266 -136.5 -392t-358.5 -126t-347 87.5t-129 256.5h209q0 -79 71.5 -128.5t161.5 -49.5q89 0 203.5 39t114.5 313v99h-8q-89 -175 -332 -175q-196 0 -321 137.5t-125 378.5t133.5 387t329.5 146z" />
    <glyph glyph-name="Gdotaccent" unicode="&#x120;" horiz-adv-x="1570" 
d="M694 1573v213h211v-213h-211zM1233 186q-139 -211 -448 -211t-502 208t-193 524q0 317 197 522t512 205q252 0 417 -127.5t205 -321.5h-235q-53 169 -179 206.5t-219 37.5t-180.5 -38t-150 -108.5t-95 -167t-32.5 -269t128 -319.5t321 -147t313 99t120 264v24h-413v187
h620v-754h-149l-31 186h-6z" />
    <glyph glyph-name="gdotaccent" unicode="&#x121;" horiz-adv-x="1228" 
d="M477 1229v213h211v-213h-211zM779 247.5q77 93.5 77 252.5v16q-4 154 -81.5 242t-194.5 88t-194 -96t-77 -256.5t77 -250t196.5 -89.5t196.5 93.5zM543 1024q230 0 315 -174h8v149h211v-948q0 -266 -136.5 -392t-358.5 -126t-347 87.5t-129 256.5h209q0 -79 71.5 -128.5
t161.5 -49.5q89 0 203.5 39t114.5 313v99h-8q-89 -175 -332 -175q-196 0 -321 137.5t-125 378.5t133.5 387t329.5 146z" />
    <glyph glyph-name="Gcommaaccent" unicode="&#x122;" horiz-adv-x="1570" 
d="M682 -131h211v-170l-88 -217h-96l61 192h-88v195zM1233 186q-139 -211 -448 -211t-502 208t-193 524q0 317 197 522t512 205q252 0 417 -127.5t205 -321.5h-235q-53 169 -179 206.5t-219 37.5t-180.5 -38t-150 -108.5t-95 -167t-32.5 -269t128 -319.5t321 -147t313 99
t120 264v24h-413v187h620v-754h-149l-31 186h-6z" />
    <glyph glyph-name="gcommaaccent" unicode="&#x123;" horiz-adv-x="1228" 
d="M477 1163v170l88 215h97l-62 -192h88v-193h-211zM779 247.5q77 93.5 77 252.5v16q-4 154 -81.5 242t-194.5 88t-194 -96t-77 -256.5t77 -250t196.5 -89.5t196.5 93.5zM543 1024q230 0 315 -174h8v149h211v-948q0 -266 -136.5 -392t-358.5 -126t-347 87.5t-129 256.5h209
q0 -79 71.5 -128.5t161.5 -49.5q89 0 203.5 39t114.5 313v99h-8q-89 -175 -332 -175q-196 0 -321 137.5t-125 378.5t133.5 387t329.5 146z" />
    <glyph glyph-name="Hcircumflex" unicode="&#x124;" horiz-adv-x="1517" 
d="M406 1573l262 336h182l262 -336h-194l-160 217l-158 -217h-194zM172 0v1409h231v-598h709v598h234v-1409h-234v614h-709v-614h-231z" />
    <glyph glyph-name="hcircumflex" unicode="&#x125;" horiz-adv-x="1189" 
d="M-92 1657l262 336h182l262 -336h-194l-160 217l-158 -217h-194zM834 578q0 266 -213 266q-111 0 -180.5 -89t-69.5 -235v-520h-221v1499h221v-255q0 -255 -9 -390h9q79 170 309 170q262 0 318.5 -152.5t56.5 -265.5v-606h-221v578z" />
    <glyph glyph-name="Hbar" unicode="&#x126;" horiz-adv-x="1517" 
d="M403 1038v-227h709v227h-709zM2 1038v162h170v209h231v-209h709v209h234v-209h170v-162h-170v-1038h-234v614h-709v-614h-231v1038h-170z" />
    <glyph glyph-name="hbar" unicode="&#x127;" horiz-adv-x="1189" 
d="M834 578q0 266 -213 266q-109 0 -179.5 -86t-70.5 -234v-524h-221v1208h-150v133h150v158h221v-158h295v-133h-295v-110q0 -109 -9 -244h9q79 170 309 170q262 0 318.5 -152.5t56.5 -265.5v-606h-221v578z" />
    <glyph glyph-name="Itilde" unicode="&#x128;" horiz-adv-x="577" 
d="M440 1716q65 0 86 99h111q-6 -167 -81 -202.5t-120 -35.5q-73 0 -167 47t-122 47q-83 0 -94 -98h-110q6 168 80.5 202.5t119.5 34.5t83 -12t89.5 -36.5t76 -35t48.5 -10.5zM172 0v1409h231v-1409h-231z" />
    <glyph glyph-name="itilde" unicode="&#x129;" horiz-adv-x="522" 
d="M117 1309q-82 0 -92 -99h-111q6 169 81 204.5t120 35.5t83 -12.5t89 -37t75.5 -34.5t49.5 -10q64 0 86 98h110q-6 -169 -80 -204.5t-120 -35.5q-72 0 -168.5 47.5t-122.5 47.5zM150 0v999h221v-999h-221z" />
    <glyph glyph-name="Imacron" unicode="&#x12a;" horiz-adv-x="577" 
d="M-8 1589v158h588v-158h-588zM172 0v1409h231v-1409h-231z" />
    <glyph glyph-name="imacron" unicode="&#x12b;" horiz-adv-x="522" 
d="M-37 1251v160h588v-160h-588zM150 0v999h221v-999h-221z" />
    <glyph glyph-name="Ibreve" unicode="&#x12c;" horiz-adv-x="577" 
d="M252 1573q-156 0 -208 108.5t-60 190.5h129q25 -168 176 -168q152 0 178 168h129q-15 -157 -101.5 -228t-242.5 -71zM172 0v1409h231v-1409h-231z" />
    <glyph glyph-name="ibreve" unicode="&#x12d;" horiz-adv-x="522" 
d="M55 1253q-85 71 -100 228h129q26 -166 157.5 -166t161 63.5t35.5 102.5h129q-15 -157 -100 -228t-206 -71t-206 71zM150 0v999h221v-999h-221z" />
    <glyph glyph-name="Iogonek" unicode="&#x12e;" horiz-adv-x="577" 
d="M279 -218.5q0 -96.5 108 -96.5h59v-136h-81q-179 0 -211.5 73t-32.5 111q0 73 39 134t127 133h-115v1409h231v-1409h-2q-122 -122 -122 -218.5z" />
    <glyph glyph-name="iogonek" unicode="&#x12f;" horiz-adv-x="522" 
d="M141 1274v225h238v-225h-238zM92 -262q0 126 166 262h-108v999h221v-999h2q-123 -123 -123 -219t108 -96h60v-136h-82q-179 0 -211.5 73t-32.5 116z" />
    <glyph glyph-name="Idotaccent" unicode="&#x130;" horiz-adv-x="577" 
d="M184 1573v213h211v-213h-211zM172 0v1409h231v-1409h-231z" />
    <glyph glyph-name="dotlessi" unicode="&#x131;" horiz-adv-x="522" 
d="M150 0v999h221v-999h-221z" />
    <glyph glyph-name="IJ" unicode="&#x132;" horiz-adv-x="1677" 
d="M1091.5 172q204.5 0 204.5 250v987h232v-987q0 -338 -168 -392.5t-267 -54.5q-201 0 -318.5 104.5t-117.5 332.5v65h230v-59q0 -246 204.5 -246zM172 0v1409h231v-1409h-231z" />
    <glyph glyph-name="ij" unicode="&#x133;" horiz-adv-x="1042" 
d="M672 -121v1120h221v-1144q0 -306 -313 -306h-76v181h51q65 0 91 36.5t26 112.5zM664 1274v225h237v-225h-237zM150 0v999h221v-999h-221zM141 1274v225h238v-225h-238z" />
    <glyph glyph-name="Jcircumflex" unicode="&#x134;" horiz-adv-x="1093" 
d="M481 1573l262 336h183l262 -336h-195l-159 217l-158 -217h-195zM74 412v65h229v-53q0 -191 80 -221.5t150.5 -30.5t125 63t54.5 195v979h231v-987q0 -338 -168 -392.5t-267 -54.5q-202 0 -318.5 105.5t-116.5 331.5z" />
    <glyph glyph-name="jcircumflex" unicode="&#x135;" horiz-adv-x="522" 
d="M-92 1163l262 336h182l262 -336h-194l-160 217l-158 -217h-194zM150 -121v1120h221v-1144q0 -226 -113 -266t-201 -40h-75v181h51q65 0 91 36.5t26 112.5z" />
    <glyph glyph-name="Kcommaaccent" unicode="&#x136;" horiz-adv-x="1380" 
d="M610 -131h211v-170l-88 -217h-96l61 192h-88v195zM172 0v1409h231v-713l662 713h270l-575 -610l604 -799h-264l-490 641l-207 -219v-422h-231z" />
    <glyph glyph-name="kcommaaccent" unicode="&#x137;" horiz-adv-x="1079" 
d="M467 -131h211v-170l-88 -217h-96l61 192h-88v195zM150 0v1499h221v-948l405 448h256l-373 -399l412 -600h-258l-301 440l-141 -151v-289h-221z" />
    <glyph glyph-name="Lacute" unicode="&#x139;" horiz-adv-x="1148" 
d="M207 1573l209 336h246l-300 -336h-155zM172 0v1409h231v-1210h682v-199h-913z" />
    <glyph glyph-name="lacute" unicode="&#x13a;" horiz-adv-x="522" 
d="M182 1657l209 336h246l-299 -336h-156zM150 0v1499h221v-1499h-221z" />
    <glyph glyph-name="Lcommaaccent" unicode="&#x13b;" horiz-adv-x="1148" 
d="M514 -131h211v-170l-88 -217h-96l61 192h-88v195zM172 0v1409h231v-1210h682v-199h-913z" />
    <glyph glyph-name="lcommaaccent" unicode="&#x13c;" horiz-adv-x="522" 
d="M156 -131h211v-170l-88 -217h-97l62 192h-88v195zM150 0v1499h221v-1499h-221z" />
    <glyph glyph-name="Lcaron" unicode="&#x13d;" horiz-adv-x="1148" 
d="M670 1196v213h223v-192l-94 -250h-101l66 229h-94zM172 0v1409h231v-1210h682v-199h-913z" />
    <glyph glyph-name="lcaron" unicode="&#x13e;" horiz-adv-x="522" 
d="M150 0v1499h221v-1499h-221zM522 1286v213h223v-192l-94 -250h-100l63 229h-92z" />
    <glyph glyph-name="Ldot" unicode="&#x13f;" horiz-adv-x="1148" 
d="M643 623v225h223v-225h-223zM172 0v1409h231v-1210h682v-199h-913z" />
    <glyph glyph-name="ldot" unicode="&#x140;" horiz-adv-x="718" 
d="M516 569v226h223v-226h-223zM150 0v1499h221v-1499h-221z" />
    <glyph glyph-name="Lslash" unicode="&#x141;" horiz-adv-x="1148" 
d="M172 1409h231v-596l297 215v-184l-297 -213v-432h682v-199h-913v467l-164 -123v184l164 119v762z" />
    <glyph glyph-name="lslash" unicode="&#x142;" horiz-adv-x="522" 
d="M150 1499h221v-606l141 127v-178l-141 -129v-713h-221v512l-140 -125v176l140 127v809z" />
    <glyph glyph-name="Nacute" unicode="&#x143;" horiz-adv-x="1533" 
d="M688 1573l209 336h246l-299 -336h-156zM172 0v1409h215l741 -1016h9l-9 1016h234v-1409h-213l-746 1012h-8l8 -1012h-231z" />
    <glyph glyph-name="nacute" unicode="&#x144;" horiz-adv-x="1189" 
d="M522 1163l209 336h246l-299 -336h-156zM834 578q0 266 -213 266q-109 0 -179.5 -86t-70.5 -236v-522h-221v999h212v-145h9q79 170 309 170q262 0 318.5 -152.5t56.5 -265.5v-606h-221v578z" />
    <glyph glyph-name="Ncommaaccent" unicode="&#x145;" horiz-adv-x="1533" 
d="M662 -131h210v-170l-88 -217h-96l62 192h-88v195zM172 0v1409h215l741 -1016h9l-9 1016h234v-1409h-213l-746 1012h-8l8 -1012h-231z" />
    <glyph glyph-name="ncommaaccent" unicode="&#x146;" horiz-adv-x="1189" 
d="M487 -131h211v-170l-88 -217h-96l61 192h-88v195zM834 578q0 266 -213 266q-109 0 -179.5 -86t-70.5 -236v-522h-221v999h212v-145h9q79 170 309 170q262 0 318.5 -152.5t56.5 -265.5v-606h-221v578z" />
    <glyph glyph-name="Ncaron" unicode="&#x147;" horiz-adv-x="1533" 
d="M676 1573l-262 336h194l158 -217l160 217h194l-262 -336h-182zM172 0v1409h215l741 -1016h9l-9 1016h234v-1409h-213l-746 1012h-8l8 -1012h-231z" />
    <glyph glyph-name="ncaron" unicode="&#x148;" horiz-adv-x="1189" 
d="M510 1163l-262 336h194l158 -217l160 217h194l-262 -336h-182zM834 578q0 266 -213 266q-109 0 -179.5 -86t-70.5 -236v-522h-221v999h212v-145h9q79 170 309 170q262 0 318.5 -152.5t56.5 -265.5v-606h-221v578z" />
    <glyph glyph-name="napostrophe" unicode="&#x149;" horiz-adv-x="1189" 
d="M152 1356v192h210v-170l-88 -215h-96l62 193h-88zM834 578q0 266 -213 266q-109 0 -179.5 -86t-70.5 -236v-522h-221v999h212v-145h9q79 170 309 170q262 0 318.5 -152.5t56.5 -265.5v-606h-221v578z" />
    <glyph glyph-name="Eng" unicode="&#x14a;" horiz-adv-x="1533" 
d="M172 0v1409h215l743 -1016h9l-11 1016h234v-1462q0 -218 -91 -308t-290 -90h-109v195h86q94 0 136.5 50.5t42.5 164.5v57l-734 996h-8l8 -1012h-231z" />
    <glyph glyph-name="eng" unicode="&#x14b;" horiz-adv-x="1189" 
d="M680 1024q262 0 318.5 -152.5t56.5 -265.5v-751q0 -306 -314 -306h-75v181h51q65 0 91 37t26 112v699q0 266 -213 266q-109 0 -179.5 -86t-70.5 -234v-524h-221v999h212v-145h9q79 170 309 170z" />
    <glyph glyph-name="Omacron" unicode="&#x14c;" horiz-adv-x="1587" 
d="M496 1589v158h587v-158h-587zM330 704.5q0 -112.5 32.5 -209t94 -167t147.5 -109.5t188.5 -39t189.5 39t148.5 109.5t94 167t32.5 209t-32.5 209t-94 167t-148.5 109.5t-189.5 39t-188.5 -39t-147.5 -109.5t-94 -167t-32.5 -209zM90 704.5q0 318.5 195 524t506 205.5
q310 0 508 -206t198 -523.5t-198 -523.5t-508 -206t-505.5 205.5t-195.5 524z" />
    <glyph glyph-name="omacron" unicode="&#x14d;" horiz-adv-x="1181" 
d="M293 1251v160h588v-160h-588zM309 500q0 -154 77 -250t204 -96t203.5 96.5t76.5 253.5q0 158 -76.5 250t-203.5 92t-204 -96t-77 -250zM222 880q142 144 373 144t368 -141.5t137 -381.5t-141 -383t-371 -143t-369 141t-139 380q0 240 142 384z" />
    <glyph glyph-name="Obreve" unicode="&#x14e;" horiz-adv-x="1587" 
d="M756 1573q-156 0 -208 108.5t-61 190.5h129q25 -168 177 -168t178 168h129q-15 -157 -101.5 -228t-242.5 -71zM330 704.5q0 -112.5 32.5 -209t94 -167t147.5 -109.5t188.5 -39t189.5 39t148.5 109.5t94 167t32.5 209t-32.5 209t-94 167t-148.5 109.5t-189.5 39
t-188.5 -39t-147.5 -109.5t-94 -167t-32.5 -209zM90 704.5q0 318.5 195 524t506 205.5q310 0 508 -206t198 -523.5t-198 -523.5t-508 -206t-505.5 205.5t-195.5 524z" />
    <glyph glyph-name="obreve" unicode="&#x14f;" horiz-adv-x="1181" 
d="M385 1253q-85 71 -100 228h129q26 -166 157.5 -166t161 63.5t35.5 102.5h129q-15 -157 -100 -228t-206 -71t-206 71zM309 500q0 -154 77 -250t204 -96t203.5 96.5t76.5 253.5q0 158 -76.5 250t-203.5 92t-204 -96t-77 -250zM222 880q142 144 373 144t368 -141.5
t137 -381.5t-141 -383t-371 -143t-369 141t-139 380q0 240 142 384z" />
    <glyph glyph-name="Ohungarumlaut" unicode="&#x150;" horiz-adv-x="1587" 
d="M518 1573l209 336h246l-299 -336h-156zM907 1573l209 336h244l-299 -336h-154zM330 704.5q0 -112.5 32.5 -209t94 -167t147.5 -109.5t188.5 -39t189.5 39t148.5 109.5t94 167t32.5 209t-32.5 209t-94 167t-148.5 109.5t-189.5 39t-188.5 -39t-147.5 -109.5t-94 -167
t-32.5 -209zM90 704.5q0 318.5 195 524t506 205.5q310 0 508 -206t198 -523.5t-198 -523.5t-508 -206t-505.5 205.5t-195.5 524z" />
    <glyph glyph-name="ohungarumlaut" unicode="&#x151;" horiz-adv-x="1181" 
d="M315 1163l209 336h246l-299 -336h-156zM705 1163l208 336h244l-299 -336h-153zM309 500q0 -154 77 -250t204 -96t203.5 96.5t76.5 253.5q0 158 -76.5 250t-203.5 92t-204 -96t-77 -250zM222 880q142 144 373 144t368 -141.5t137 -381.5t-141 -383t-371 -143t-369 141
t-139 380q0 240 142 384z" />
    <glyph glyph-name="OE" unicode="&#x152;" horiz-adv-x="2158" 
d="M330 704.5q0 -222.5 123 -365t389 -142.5h202v1015h-202q-266 0 -389 -142.5t-123 -365zM834 0q-359 0 -551.5 192.5t-192.5 512t192.5 512t551.5 192.5h1202v-197h-760v-399h610v-190h-610v-426h778v-197h-1220z" />
    <glyph glyph-name="oe" unicode="&#x153;" horiz-adv-x="1894" 
d="M1595 610q-24 242 -239 242q-97 0 -165 -63t-93 -179h497zM307 500q0 -154 77 -250t205 -96t203.5 95t75.5 254q0 158 -75 250.5t-203 92.5t-205.5 -96t-77.5 -250zM78 499.5q0 239.5 142.5 382t367.5 142.5q261 0 391 -188q130 188 377 188q211 0 338 -128.5t127 -358.5
v-74h-734q8 -143 82.5 -228t206.5 -85t170.5 61t46.5 92h219q-20 -139 -145.5 -233.5t-304.5 -94.5q-262 0 -389 185q-133 -185 -376 -185q-242 0 -380.5 142.5t-138.5 382z" />
    <glyph glyph-name="Racute" unicode="&#x154;" horiz-adv-x="1378" 
d="M575 1573l209 336h246l-299 -336h-156zM739 1217h-336v-496h336q130 0 202.5 71.5t72.5 184t-72 176.5t-203 64zM172 0v1409h569q373 0 439.5 -164t66.5 -253q0 -166 -78.5 -278t-224.5 -157l354 -557h-251l-338 530h-306v-530h-231z" />
    <glyph glyph-name="racute" unicode="&#x155;" horiz-adv-x="772" 
d="M385 1163l209 336h246l-299 -336h-156zM593 819q-109 0 -165.5 -89t-56.5 -230v-500h-221v999h212v-145h7q75 170 264 170q78 0 139 -41l-57 -197q-66 33 -122 33z" />
    <glyph glyph-name="Rcommaaccent" unicode="&#x156;" horiz-adv-x="1378" 
d="M584 -131h211v-170l-88 -217h-97l62 192h-88v195zM739 1217h-336v-496h336q130 0 202.5 71.5t72.5 184t-72 176.5t-203 64zM172 0v1409h569q373 0 439.5 -164t66.5 -253q0 -166 -78.5 -278t-224.5 -157l354 -557h-251l-338 530h-306v-530h-231z" />
    <glyph glyph-name="rcommaaccent" unicode="&#x157;" horiz-adv-x="772" 
d="M154 -131h211v-170l-89 -217h-96l62 192h-88v195zM593 819q-109 0 -165.5 -89t-56.5 -230v-500h-221v999h212v-145h7q75 170 264 170q78 0 139 -41l-57 -197q-66 33 -122 33z" />
    <glyph glyph-name="Rcaron" unicode="&#x158;" horiz-adv-x="1378" 
d="M563 1573l-262 336h195l157 -217l160 217h195l-263 -336h-182zM739 1217h-336v-496h336q130 0 202.5 71.5t72.5 184t-72 176.5t-203 64zM172 0v1409h569q373 0 439.5 -164t66.5 -253q0 -166 -78.5 -278t-224.5 -157l354 -557h-251l-338 530h-306v-530h-231z" />
    <glyph glyph-name="rcaron" unicode="&#x159;" horiz-adv-x="772" 
d="M373 1163l-262 336h194l158 -217l160 217h194l-262 -336h-182zM593 819q-109 0 -165.5 -89t-56.5 -230v-500h-221v999h212v-145h7q75 170 264 170q78 0 139 -41l-57 -197q-66 33 -122 33z" />
    <glyph glyph-name="Sacute" unicode="&#x15a;" horiz-adv-x="1347" 
d="M590 1573l209 336h245l-299 -336h-155zM109 401h229q0 -110 87.5 -177.5t242.5 -67.5t244 63t89 174q0 130 -116.5 164.5t-184.5 46.5l-92 17q-220 37 -348.5 118.5t-128.5 270.5q0 190 147.5 307t388.5 117t385 -110t144 -294h-227q0 105 -83.5 164t-216.5 59t-220 -56
t-87 -174.5t125 -150.5t203 -47l92 -16q205 -33 331 -118t126 -281t-152 -315.5t-419 -119.5t-413 115t-146 311z" />
    <glyph glyph-name="sacute" unicode="&#x15b;" horiz-adv-x="1042" 
d="M440 1163l209 336h246l-299 -336h-156zM508 131q229 0 229 145q0 78 -56 96.5t-95 24.5l-185 33q-301 48 -301 275q0 147 117.5 233t354.5 86t298.5 -113.5t61.5 -189.5h-207q0 71 -56.5 109t-124.5 38q-116 0 -173.5 -36.5t-57.5 -105.5t60.5 -89.5t105.5 -28.5l185 -30
q212 -32 253 -119.5t41 -161.5q0 -154 -122 -238t-322 -84t-319 79.5t-119 232.5h211q0 -113 89 -134.5t132 -21.5z" />
    <glyph glyph-name="Scircumflex" unicode="&#x15c;" horiz-adv-x="1347" 
d="M315 1573l263 336h182l262 -336h-195l-159 217l-158 -217h-195zM109 401h229q0 -110 87.5 -177.5t242.5 -67.5t244 63t89 174q0 130 -116.5 164.5t-184.5 46.5l-92 17q-220 37 -348.5 118.5t-128.5 270.5q0 190 147.5 307t388.5 117t385 -110t144 -294h-227
q0 105 -83.5 164t-216.5 59t-220 -56t-87 -174.5t125 -150.5t203 -47l92 -16q205 -33 331 -118t126 -281t-152 -315.5t-419 -119.5t-413 115t-146 311z" />
    <glyph glyph-name="scircumflex" unicode="&#x15d;" horiz-adv-x="1042" 
d="M166 1163l262 336h182l262 -336h-194l-160 217l-158 -217h-194zM508 131q229 0 229 145q0 78 -56 96.5t-95 24.5l-185 33q-301 48 -301 275q0 147 117.5 233t354.5 86t298.5 -113.5t61.5 -189.5h-207q0 71 -56.5 109t-124.5 38q-116 0 -173.5 -36.5t-57.5 -105.5
t60.5 -89.5t105.5 -28.5l185 -30q212 -32 253 -119.5t41 -161.5q0 -154 -122 -238t-322 -84t-319 79.5t-119 232.5h211q0 -113 89 -134.5t132 -21.5z" />
    <glyph glyph-name="Scedilla" unicode="&#x15e;" horiz-adv-x="1347" 
d="M637 -176h-68l54 153q-245 8 -379.5 122t-134.5 302h229q0 -110 87.5 -177.5t242.5 -67.5t244 63t89 174q0 130 -116.5 164.5t-184.5 46.5l-92 17q-220 37 -348.5 118.5t-128.5 270.5q0 190 147.5 307t388.5 117t385 -110t144 -294h-227q0 105 -83.5 164t-216.5 59
t-220 -56t-87 -174.5t125 -150.5t203 -47l92 -16q205 -33 331 -118t126 -276t-139.5 -310.5t-394.5 -129.5v-51q133 -6 160.5 -73.5t27.5 -107.5q0 -84 -61 -139t-179 -55h-125v121h109q100 0 100 77t-100 77z" />
    <glyph glyph-name="scedilla" unicode="&#x15f;" horiz-adv-x="1042" 
d="M479 -330q101 0 101 77t-101 77h-67l53 153q-176 8 -282.5 88t-106.5 222h211q0 -113 89 -134.5t132 -21.5q229 0 229 145q0 78 -56 96.5t-95 24.5l-185 33q-301 48 -301 275q0 147 117.5 233t354.5 86t298.5 -113.5t61.5 -189.5h-207q0 71 -56.5 109t-124.5 38
q-116 0 -173.5 -36.5t-57.5 -105.5t60.5 -89.5t105.5 -28.5l185 -30q212 -32 253 -119.5t41 -160.5q0 -149 -110.5 -230t-300.5 -91v-53q135 -6 161.5 -73.5t26.5 -107.5q0 -86 -61.5 -140t-177.5 -54h-125v121h108z" />
    <glyph glyph-name="Scaron" unicode="&#x160;" horiz-adv-x="1347" 
d="M578 1573l-263 336h195l158 -217l159 217h195l-262 -336h-182zM109 401h229q0 -110 87.5 -177.5t242.5 -67.5t244 63t89 174q0 130 -116.5 164.5t-184.5 46.5l-92 17q-220 37 -348.5 118.5t-128.5 270.5q0 190 147.5 307t388.5 117t385 -110t144 -294h-227
q0 105 -83.5 164t-216.5 59t-220 -56t-87 -174.5t125 -150.5t203 -47l92 -16q205 -33 331 -118t126 -281t-152 -315.5t-419 -119.5t-413 115t-146 311z" />
    <glyph glyph-name="scaron" unicode="&#x161;" horiz-adv-x="1042" 
d="M428 1163l-262 336h194l158 -217l160 217h194l-262 -336h-182zM508 131q229 0 229 145q0 78 -56 96.5t-95 24.5l-185 33q-301 48 -301 275q0 147 117.5 233t354.5 86t298.5 -113.5t61.5 -189.5h-207q0 71 -56.5 109t-124.5 38q-116 0 -173.5 -36.5t-57.5 -105.5
t60.5 -89.5t105.5 -28.5l185 -30q212 -32 253 -119.5t41 -161.5q0 -154 -122 -238t-322 -84t-319 79.5t-119 232.5h211q0 -113 89 -134.5t132 -21.5z" />
    <glyph glyph-name="Tcommaaccent" unicode="&#x162;" horiz-adv-x="1232" 
d="M590 -176h-68l62 176h-84v1214h-484v195h1201v-195h-486v-1214h-74v-76q134 -6 161.5 -73.5t27.5 -107.5q0 -84 -61 -139t-179 -55h-125v121h109q100 0 100 77t-100 77z" />
    <glyph glyph-name="tcommaaccent" unicode="&#x163;" horiz-adv-x="706" 
d="M180 319v508h-188v172h188v304h221v-304h256v-172h-256v-495q0 -80 32 -114t108 -34h116v-184h-115l-98 2v-78q134 -6 161.5 -73.5t27.5 -107.5q0 -84 -61 -139t-179 -55h-127v121h109q102 0 102 77t-102 77h-68l58 192q-185 45 -185 303z" />
    <glyph glyph-name="Tcaron" unicode="&#x164;" horiz-adv-x="1232" 
d="M522 1573l-262 336h195l157 -217l160 217h195l-262 -336h-183zM16 1214v195h1201v-195h-486v-1214h-231v1214h-484z" />
    <glyph glyph-name="tcaron" unicode="&#x165;" horiz-adv-x="706" 
d="M498 1343v213h223v-192l-94 -250h-101l64 229h-92zM180 319v508h-188v172h188v304h221v-304h256v-172h-256v-495q0 -80 32 -114t108 -34h116v-184h-153q-172 0 -248 76t-76 243z" />
    <glyph glyph-name="Tbar" unicode="&#x166;" horiz-adv-x="1232" 
d="M16 1214v195h1201v-195h-486v-497h369v-154h-369v-563h-231v563h-367v154h367v497h-484z" />
    <glyph glyph-name="tbar" unicode="&#x167;" horiz-adv-x="706" 
d="M-8 451v133h188v243h-188v172h188v304h221v-304h256v-172h-256v-243h256v-133h-256v-123q0 -76 32 -110t108 -34h116v-184h-155q-246 0 -284 113.5t-38 193.5v144h-188z" />
    <glyph glyph-name="Utilde" unicode="&#x168;" horiz-adv-x="1460" 
d="M580 1671q-75 0 -86 -98h-111q6 168 81 202.5t120 34.5t83 -12t89 -36.5t75.5 -35t49.5 -10.5q65 0 86 99h110q-6 -167 -80.5 -202.5t-120.5 -35.5q-72 0 -166.5 47t-129.5 47zM143 561v848h232v-846q0 -281 133 -332t266 -51t221 99t88 284v846h232v-848
q0 -304 -154 -445t-505.5 -141t-432 214t-80.5 372z" />
    <glyph glyph-name="utilde" unicode="&#x169;" horiz-adv-x="1181" 
d="M451 1309q-83 0 -93 -99h-110q6 169 80 204.5t120 35.5q68 0 167 -47t130 -47q64 0 86 98h111q-6 -169 -81 -204.5t-120 -35.5q-73 0 -168 47.5t-122 47.5zM354 422q0 -266 213 -266q109 0 176.5 87t67.5 240v516h221v-999h-211v145h-8q-79 -170 -303 -170
q-263 0 -320 152.5t-57 265.5v606h221v-577z" />
    <glyph glyph-name="Umacron" unicode="&#x16a;" horiz-adv-x="1460" 
d="M432 1589v158h588v-158h-588zM143 561v848h232v-846q0 -281 133 -332t266 -51t221 99t88 284v846h232v-848q0 -304 -154 -445t-505.5 -141t-432 214t-80.5 372z" />
    <glyph glyph-name="umacron" unicode="&#x16b;" horiz-adv-x="1181" 
d="M297 1251v160h588v-160h-588zM354 422q0 -266 213 -266q109 0 176.5 87t67.5 240v516h221v-999h-211v145h-8q-79 -170 -303 -170q-263 0 -320 152.5t-57 265.5v606h221v-577z" />
    <glyph glyph-name="Ubreve" unicode="&#x16c;" horiz-adv-x="1460" 
d="M692.5 1573q-156.5 0 -208.5 108.5t-60 190.5h129q25 -168 176 -168q152 0 178 168h129q-15 -158 -101 -228.5t-242.5 -70.5zM143 561v848h232v-846q0 -281 133 -332t266 -51t221 99t88 284v846h232v-848q0 -304 -154 -445t-505.5 -141t-432 214t-80.5 372z" />
    <glyph glyph-name="ubreve" unicode="&#x16d;" horiz-adv-x="1181" 
d="M389 1253q-85 71 -100 228h129q26 -166 157.5 -166t161 63.5t35.5 102.5h129q-15 -157 -100 -228t-206 -71t-206 71zM354 422q0 -266 213 -266q109 0 176.5 87t67.5 240v516h221v-999h-211v145h-8q-79 -170 -303 -170q-263 0 -320 152.5t-57 265.5v606h221v-577z" />
    <glyph glyph-name="Uring" unicode="&#x16e;" horiz-adv-x="1460" 
d="M802.5 1684.5q31.5 29.5 31.5 62.5t-8.5 51.5t-23 32.5t-33.5 21.5t-50 7.5t-61.5 -29t-30.5 -62q0 -32 8 -51.5t31 -41t64 -21.5t72.5 29.5zM581.5 1611q-63.5 57 -63.5 145q0 89 61.5 146.5t150.5 57.5t150.5 -57.5t61.5 -145.5t-61.5 -145.5t-148.5 -57.5t-150.5 57z
M143 561v848h232v-846q0 -281 133 -332t266 -51t221 99t88 284v846h232v-848q0 -304 -154 -445t-505.5 -141t-432 214t-80.5 372z" />
    <glyph glyph-name="uring" unicode="&#x16f;" horiz-adv-x="1181" 
d="M666 1273.5q32 28.5 32 63.5q0 34 -8 52t-22.5 32.5t-34 21.5t-51 7t-61 -29t-29.5 -61t8 -52t32 -41.5t63 -21.5t71 28.5zM446.5 1202q-63.5 57 -63.5 145t61 145.5t151.5 57.5t151 -57.5t60.5 -145.5q0 -87 -61.5 -144.5t-148.5 -57.5t-150.5 57zM354 422
q0 -266 213 -266q109 0 176.5 87t67.5 240v516h221v-999h-211v145h-8q-79 -170 -303 -170q-263 0 -320 152.5t-57 265.5v606h221v-577z" />
    <glyph glyph-name="Uhungarumlaut" unicode="&#x170;" horiz-adv-x="1460" 
d="M455 1573l209 336h245l-299 -336h-155zM844 1573l209 336h243l-299 -336h-153zM143 561v848h232v-846q0 -281 133 -332t266 -51t221 99t88 284v846h232v-848q0 -304 -154 -445t-505.5 -141t-432 214t-80.5 372z" />
    <glyph glyph-name="uhungarumlaut" unicode="&#x171;" horiz-adv-x="1181" 
d="M319 1163l209 336h246l-299 -336h-156zM709 1163l209 336h243l-299 -336h-153zM354 422q0 -266 213 -266q109 0 176.5 87t67.5 240v516h221v-999h-211v145h-8q-79 -170 -303 -170q-263 0 -320 152.5t-57 265.5v606h221v-577z" />
    <glyph glyph-name="Uogonek" unicode="&#x172;" horiz-adv-x="1460" 
d="M901 -451q-248 0 -248 199q0 128 158 232l-15 -1l-67 -4q-425 0 -505.5 214t-80.5 372v848h232v-846q0 -281 133 -332t266 -51t221 99t88 284v846h232v-848q0 -375 -268 -524q-116 -66 -174 -129t-58 -123q0 -100 109 -100h59v-136h-82z" />
    <glyph glyph-name="uogonek" unicode="&#x173;" horiz-adv-x="1181" 
d="M354 422q0 -266 213 -266q109 0 176.5 87t67.5 240v516h221v-999h2q-89 -89 -106 -145t-17 -86.5t25 -57t84 -26.5h59v-136h-82q-180 0 -211.5 73t-31.5 111q0 73 40 135.5t126 131.5h-99v145h-8q-79 -170 -303 -170q-264 0 -320.5 153t-56.5 265v606h221v-577z" />
    <glyph glyph-name="Wcircumflex" unicode="&#x174;" horiz-adv-x="1959" 
d="M631 1573l262 336h182l262 -336h-194l-160 217l-158 -217h-194zM391 0l-368 1409h245l277 -1163h8l305 1163h258l309 -1163h9l266 1163h237l-362 -1409h-289l-299 1128h-8l-299 -1128h-289z" />
    <glyph glyph-name="wcircumflex" unicode="&#x175;" horiz-adv-x="1536" 
d="M416 1163l262 336h182l262 -336h-194l-160 217l-158 -217h-194zM299 0l-289 999h226l194 -776h8l215 776h236l217 -776h8l193 776h219l-289 -999h-258l-207 774h-8l-207 -774h-258z" />
    <glyph glyph-name="Ycircumflex" unicode="&#x176;" horiz-adv-x="1304" 
d="M299 1573l262 336h182l263 -336h-195l-160 217l-157 -217h-195zM532 0v545l-509 864h262l364 -635h8l379 635h244l-516 -854v-555h-232z" />
    <glyph glyph-name="ycircumflex" unicode="&#x177;" horiz-adv-x="1009" 
d="M150 1163l262 336h182l262 -336h-194l-160 217l-158 -217h-194zM207 -467h-111v182h66q169 0 241 195l31 90h-53l-373 999h242l260 -770h8l260 770h223l-411 -1138q-114 -328 -383 -328z" />
    <glyph glyph-name="Ydieresis" unicode="&#x178;" horiz-adv-x="1304" 
d="M332 1573v213h211v-213h-211zM762 1573v213h209v-213h-209zM532 0v545l-509 864h262l364 -635h8l379 635h244l-516 -854v-555h-232z" />
    <glyph glyph-name="Zacute" unicode="&#x179;" horiz-adv-x="1224" 
d="M535 1573l208 336h246l-299 -336h-155zM106 1217v192h1047v-141l-784 -1075h778v-193h-1075v141l784 1076h-750z" />
    <glyph glyph-name="zacute" unicode="&#x17a;" horiz-adv-x="944" 
d="M391 1163l209 336h246l-299 -336h-156zM66 825v174h804v-137l-516 -688h525v-174h-807v125l528 700h-534z" />
    <glyph glyph-name="Zdotaccent" unicode="&#x17b;" horiz-adv-x="1224" 
d="M508 1573v213h211v-213h-211zM106 1217v192h1047v-141l-784 -1075h778v-193h-1075v141l784 1076h-750z" />
    <glyph glyph-name="zdotaccent" unicode="&#x17c;" horiz-adv-x="944" 
d="M365 1229v213h210v-213h-210zM66 825v174h804v-137l-516 -688h525v-174h-807v125l528 700h-534z" />
    <glyph glyph-name="Zcaron" unicode="&#x17d;" horiz-adv-x="1224" 
d="M522 1573l-262 336h195l157 -217l160 217h195l-262 -336h-183zM106 1217v192h1047v-141l-784 -1075h778v-193h-1075v141l784 1076h-750z" />
    <glyph glyph-name="zcaron" unicode="&#x17e;" horiz-adv-x="944" 
d="M379 1163l-262 336h194l158 -217l160 217h194l-262 -336h-182zM66 825v174h804v-137l-516 -688h525v-174h-807v125l528 700h-534z" />
    <glyph glyph-name="longs" unicode="&#x17f;" horiz-adv-x="665" 
d="M195 0v827h-189v172h189v150q0 350 354 350h139v-180h-104q-137 0 -152.5 -65.5t-15.5 -112.5v-1141h-221z" />
    <glyph glyph-name="florin" unicode="&#x192;" horiz-adv-x="1163" 
d="M174 584v147h258l37 350q38 353 356 353q223 0 259 -118t30 -202l-6 -86h-195l7 78q8 158 -103 158t-127 -183l-37 -350h303v-147h-319l-64 -625q-38 -352 -356 -352q-223 0 -259 117.5t-30 201.5l6 86h195l-6 -78q-8 -157 102.5 -157t126.5 182l64 625h-242z" />
    <glyph glyph-name="AEacute" unicode="&#x1fc;" horiz-adv-x="2234" 
d="M1163 1573l209 336h246l-299 -336h-156zM1122 512v649h-8l-465 -649h473zM2111 1409v-197h-757v-399h606v-190h-606v-426h776v-197h-1008v322h-608l-229 -322h-269l1018 1409h1077z" />
    <glyph glyph-name="aeacute" unicode="&#x1fd;" horiz-adv-x="1753" 
d="M786 1163l209 336h246l-299 -336h-156zM1226 852q-98 0 -163.5 -64t-85.5 -178h473q-12 175 -93 208.5t-131 33.5zM750 410v92q-28 -28 -56 -35.5t-47 -11.5l-172 -29q-162 -23 -162 -147q0 -98 64.5 -118t112.5 -20q106 0 183 68.5t77 200.5zM92 255q0 252 334 306
l195 33q81 12 105 28t24 54q0 78 -50 130t-147 52q-141 0 -175 -66.5t-36 -109.5h-211q12 171 129 256.5t293 85.5q237 0 338 -133q124 133 331 133t332 -128.5t125 -358.5v-74h-710q8 -146 76.5 -229.5t187.5 -83.5q180 0 219 153h217q-20 -136 -142.5 -232t-295.5 -96
q-278 0 -393 201q-123 -201 -387 -201t-311.5 109t-47.5 171z" />
    <glyph glyph-name="Oslashacute" unicode="&#x1fe;" horiz-adv-x="1587" 
d="M715 1573l209 336h245l-299 -336h-155zM813 1229q-227 0 -355 -147t-128 -377q0 -208 100 -345l633 781q-128 88 -250 88zM793 180q208 0 336 147t128 362t-102 358l-633 -781q125 -86 271 -86zM285 182q-195 203 -195 523q0 319 197 524t506 205q228 0 407 -125l100 125
h170l-170 -209q197 -205 197 -521t-200.5 -522.5t-503.5 -206.5q-224 0 -410 121l-98 -121h-168z" />
    <glyph glyph-name="oslashacute" unicode="&#x1ff;" horiz-adv-x="1177" 
d="M510 1163l209 336h246l-299 -336h-156zM868 483q0 137 -43 215l-401 -489q63 -55 144 -55q147 0 223.5 96t76.5 233zM607 846q-146 0 -223 -96t-77 -230q0 -135 45 -225l404 491q-69 60 -149 60zM211 121q-133 141 -133 380q0 238 142.5 380.5t367.5 142.5q166 0 297 -80
l65 80h144l-125 -152q131 -148 131 -380q0 -233 -144 -375t-368 -142q-162 0 -293 76l-62 -76h-141z" />
    <glyph glyph-name="Scommaaccent" unicode="&#x218;" horiz-adv-x="1347" 
d="M561 -131h211v-170l-88 -217h-96l61 192h-88v195zM109 401h229q0 -110 87.5 -177.5t242.5 -67.5t244 63t89 174q0 130 -116.5 164.5t-184.5 46.5l-92 17q-220 37 -348.5 118.5t-128.5 270.5q0 190 147.5 307t388.5 117t385 -110t144 -294h-227q0 105 -83.5 164t-216.5 59
t-220 -56t-87 -174.5t125 -150.5t203 -47l92 -16q205 -33 331 -118t126 -281t-152 -315.5t-419 -119.5t-413 115t-146 311z" />
    <glyph glyph-name="scommaaccent" unicode="&#x219;" horiz-adv-x="1042" 
d="M403 -131h211v-170l-88 -217h-96l62 192h-89v195zM508 131q229 0 229 145q0 78 -56 96.5t-95 24.5l-185 33q-301 48 -301 275q0 147 117.5 233t354.5 86t298.5 -113.5t61.5 -189.5h-207q0 71 -56.5 109t-124.5 38q-116 0 -173.5 -36.5t-57.5 -105.5t60.5 -89.5
t105.5 -28.5l185 -30q212 -32 253 -119.5t41 -161.5q0 -154 -122 -238t-322 -84t-319 79.5t-119 232.5h211q0 -113 89 -134.5t132 -21.5z" />
    <glyph glyph-name="uni021A" unicode="&#x21a;" horiz-adv-x="1232" 
d="M514 -131h211v-170l-88 -217h-96l61 192h-88v195zM16 1214v195h1201v-195h-486v-1214h-231v1214h-484z" />
    <glyph glyph-name="uni021B" unicode="&#x21b;" horiz-adv-x="706" 
d="M303 -131h211v-170l-88 -217h-96l61 192h-88v195zM180 319v508h-188v172h188v304h221v-304h256v-172h-256v-495q0 -80 32 -114t108 -34h116v-184h-153q-172 0 -248 76t-76 243z" />
    <glyph glyph-name="circumflex" unicode="&#x2c6;" horiz-adv-x="1173" 
d="M233 1163l263 336h182l262 -336h-195l-159 217l-158 -217h-195z" />
    <glyph glyph-name="caron" unicode="&#x2c7;" horiz-adv-x="1173" 
d="M496 1163l-263 336h195l158 -217l159 217h195l-262 -336h-182z" />
    <glyph glyph-name="uni02C9" unicode="&#x2c9;" horiz-adv-x="1173" 
d="M289 1251v160h588v-160h-588z" />
    <glyph glyph-name="breve" unicode="&#x2d8;" horiz-adv-x="1173" 
d="M567.5 1315q131.5 0 161 63.5t35.5 102.5h129q-15 -156 -100.5 -227.5t-242.5 -71.5t-209 108.5t-60 190.5h129q26 -166 157.5 -166z" />
    <glyph glyph-name="dotaccent" unicode="&#x2d9;" horiz-adv-x="1173" 
d="M481 1229v213h211v-213h-211z" />
    <glyph glyph-name="ring" unicode="&#x2da;" horiz-adv-x="1173" 
d="M658 1273.5q32 28.5 32 63.5q0 34 -8 52t-22.5 32.5t-34 21.5t-51.5 7t-61.5 -30.5t-29.5 -60.5q0 -31 8.5 -51t31.5 -41.5t63 -21.5t72 28.5zM438.5 1202q-63.5 57 -63.5 145t60.5 145.5t151.5 57.5t151.5 -57.5t60.5 -145.5q0 -87 -61.5 -144.5t-148.5 -57.5t-150.5 57
z" />
    <glyph glyph-name="ogonek" unicode="&#x2db;" horiz-adv-x="1173" 
d="M584 0h114q-89 -89 -106 -145t-17 -86.5t25 -57t84 -26.5h59v-136h-81q-179 0 -211.5 73t-32.5 128q0 114 166 250z" />
    <glyph glyph-name="tilde" unicode="&#x2dc;" horiz-adv-x="1173" 
d="M443 1309q-83 0 -93 -99h-110q6 169 80.5 204.5t119.5 35.5q68 0 167 -47t130 -47q64 0 86 98h111q-6 -169 -81 -204.5t-120 -35.5q-73 0 -168 47.5t-122 47.5z" />
    <glyph glyph-name="hungarumlaut" unicode="&#x2dd;" horiz-adv-x="1173" 
d="M311 1163l209 336h246l-299 -336h-156zM700 1163l209 336h244l-299 -336h-154z" />
    <glyph glyph-name="uni0394" unicode="&#x394;" horiz-adv-x="1335" 
d="M668 1180h-9l-337 -996h679zM43 0l498 1409h254l499 -1409h-1251z" />
    <glyph glyph-name="uni03A9" unicode="&#x3a9;" horiz-adv-x="1425" 
d="M827 0v455q111 29 198 135.5t87 274.5t-111 278t-289 110t-288.5 -110.5t-110.5 -278.5t87 -274t198 -135v-455h-483v176h288v174q-223 105 -270 260.5t-47 259.5t44 211t128 186t199.5 123t323.5 44t383 -164.5t175 -419.5t-123.5 -361t-193.5 -139v-174h289v-176h-484z
" />
    <glyph glyph-name="uni03BC" unicode="&#x3bc;" horiz-adv-x="1191" 
d="M369 -309v-142h-224v1450h224v-577q0 -208 79.5 -237t131.5 -29q108 0 175.5 88.5t67.5 234.5v520h221v-999h-210v145h-9q-37 -80 -115.5 -125t-162.5 -45q-127 0 -197 48h-6l12 -106q13 -106 13 -226z" />
    <glyph glyph-name="pi" unicode="&#x3c0;" horiz-adv-x="1226" 
d="M162 0v999h903v-999h-223v819h-457v-819h-223z" />
    <glyph glyph-name="Wgrave" unicode="&#x1e80;" horiz-adv-x="1959" 
d="M907 1573l-299 336h246l209 -336h-156zM391 0l-368 1409h245l277 -1163h8l305 1163h258l309 -1163h9l266 1163h237l-362 -1409h-289l-299 1128h-8l-299 -1128h-289z" />
    <glyph glyph-name="wgrave" unicode="&#x1e81;" horiz-adv-x="1536" 
d="M692 1163l-299 336h246l209 -336h-156zM299 0l-289 999h226l194 -776h8l215 776h236l217 -776h8l193 776h219l-289 -999h-258l-207 774h-8l-207 -774h-258z" />
    <glyph glyph-name="Wacute" unicode="&#x1e82;" horiz-adv-x="1959" 
d="M905 1573l209 336h246l-299 -336h-156zM391 0l-368 1409h245l277 -1163h8l305 1163h258l309 -1163h9l266 1163h237l-362 -1409h-289l-299 1128h-8l-299 -1128h-289z" />
    <glyph glyph-name="wacute" unicode="&#x1e83;" horiz-adv-x="1536" 
d="M690 1163l209 336h246l-299 -336h-156zM299 0l-289 999h226l194 -776h8l215 776h236l217 -776h8l193 776h219l-289 -999h-258l-207 774h-8l-207 -774h-258z" />
    <glyph glyph-name="Wdieresis" unicode="&#x1e84;" horiz-adv-x="1959" 
d="M664 1573v213h210v-213h-210zM1094 1573v213h209v-213h-209zM391 0l-368 1409h245l277 -1163h8l305 1163h258l309 -1163h9l266 1163h237l-362 -1409h-289l-299 1128h-8l-299 -1128h-289z" />
    <glyph glyph-name="wdieresis" unicode="&#x1e85;" horiz-adv-x="1536" 
d="M449 1229v213h210v-213h-210zM879 1229v213h208v-213h-208zM299 0l-289 999h226l194 -776h8l215 776h236l217 -776h8l193 776h219l-289 -999h-258l-207 774h-8l-207 -774h-258z" />
    <glyph glyph-name="Ygrave" unicode="&#x1ef2;" horiz-adv-x="1304" 
d="M575 1573l-299 336h246l209 -336h-156zM532 0v545l-509 864h262l364 -635h8l379 635h244l-516 -854v-555h-232z" />
    <glyph glyph-name="ygrave" unicode="&#x1ef3;" horiz-adv-x="1009" 
d="M426 1163l-299 336h246l209 -336h-156zM207 -467h-111v182h66q169 0 241 195l31 90h-53l-373 999h242l260 -770h8l260 770h223l-411 -1138q-114 -328 -383 -328z" />
    <glyph glyph-name="endash" unicode="&#x2013;" horiz-adv-x="1138" 
d="M115 420v192h909v-192h-909z" />
    <glyph glyph-name="emdash" unicode="&#x2014;" horiz-adv-x="1720" 
d="M115 420v192h1491v-192h-1491z" />
    <glyph glyph-name="quoteleft" unicode="&#x2018;" horiz-adv-x="522" 
d="M141 862v225l88 322h111l-61 -305h102v-242h-240z" />
    <glyph glyph-name="quoteright" unicode="&#x2019;" horiz-adv-x="522" 
d="M141 1167v242h240v-225l-88 -322h-111l64 305h-105z" />
    <glyph glyph-name="quotesinglbase" unicode="&#x201a;" horiz-adv-x="522" 
d="M141 0v242h240v-226l-88 -321h-111l64 305h-105z" />
    <glyph glyph-name="quotedblleft" unicode="&#x201c;" horiz-adv-x="917" 
d="M537 862v225l88 322h110l-61 -305h102v-242h-239zM141 862v225l88 322h111l-61 -305h102v-242h-240z" />
    <glyph glyph-name="quotedblright" unicode="&#x201d;" horiz-adv-x="917" 
d="M537 1167v242h239v-225l-88 -322h-110l63 305h-104zM141 1167v242h240v-225l-88 -322h-111l64 305h-105z" />
    <glyph glyph-name="quotedblbase" unicode="&#x201e;" horiz-adv-x="917" 
d="M537 0v242h239v-226l-88 -321h-110l63 305h-104zM141 0v242h240v-226l-88 -321h-111l64 305h-105z" />
    <glyph glyph-name="dagger" unicode="&#x2020;" horiz-adv-x="931" 
d="M90 897v168h279v344h194v-344h279v-168h-279v-897h-194v897h-279z" />
    <glyph glyph-name="daggerdbl" unicode="&#x2021;" horiz-adv-x="931" 
d="M90 907v170h279v332h194v-332h279v-170h-279v-413h279v-170h-279v-324h-194v324h-279v170h279v413h-279z" />
    <glyph glyph-name="bullet" unicode="&#x2022;" horiz-adv-x="999" 
d="M499.5 164q-73.5 0 -138 26.5t-112.5 74.5t-75 112.5t-27 138.5t27 138.5t75 112.5t112.5 74.5t138 26.5t138 -26.5t113 -74.5t75 -112.5t26.5 -138.5t-26.5 -138.5t-75 -112.5t-113 -74.5t-138 -26.5z" />
    <glyph glyph-name="ellipsis" unicode="&#x2026;" horiz-adv-x="1652" 
d="M147 0v262h265v-262h-265zM694 0v262h264v-262h-264zM1241 0v262h264v-262h-264z" />
    <glyph glyph-name="perthousand" unicode="&#x2030;" horiz-adv-x="2361" 
d="M1994 123q34 0 59.5 15.5t43 44t26.5 71.5t9 127t-36 142.5t-103 58.5q-100 0 -119 -87t-19 -142.5t9.5 -98.5t26 -71.5t43 -44t60.5 -15.5zM1993 -16q-80 0 -139.5 27.5t-98.5 77.5t-58.5 116.5t-19.5 146.5t19.5 146.5t58.5 117t98.5 78t139.5 27.5t140 -27.5t99 -78
t58.5 -117t19.5 -146.5t-19.5 -146.5t-58.5 -116.5t-99 -77.5t-140 -27.5zM1257.5 123q32.5 0 59 15.5t43 44t26 71.5t9.5 98.5t-8.5 98.5t-26 71.5t-43 44t-60 15.5t-60.5 -15.5t-43 -44t-26.5 -71.5t-9.5 -98.5t9.5 -98.5t26.5 -71.5t44 -44t59.5 -15.5zM1257.5 -16
q-79.5 0 -140 27.5t-99.5 77.5t-58.5 116.5t-19.5 146.5t19.5 146.5t58.5 117t99.5 78t140 27.5t140 -27.5t99.5 -78t57.5 -117t18.5 -146.5t-18.5 -146.5t-57.5 -116.5t-99.5 -77.5t-140 -27.5zM381 -25q53 111 195.5 401t279 571t238.5 487h151l-713 -1459h-151z
M506 1056.5q0 229.5 -119.5 229.5t-138.5 -87t-19 -142.5t9.5 -98.5t27 -71.5t44 -44t111.5 -15.5t85 229.5zM369 688q-80 0 -140.5 27.5t-99.5 78t-58.5 117t-19.5 146.5t19.5 146.5t58.5 116.5t99.5 77.5t140.5 27.5t139 -27.5t98 -77.5t58.5 -116.5t19.5 -146.5
t-19.5 -146.5t-58.5 -117t-98 -78t-139 -27.5z" />
    <glyph glyph-name="guilsinglleft" unicode="&#x2039;" horiz-adv-x="681" 
d="M397 98l-295 418l295 418h183l-234 -418l234 -418h-183z" />
    <glyph glyph-name="guilsinglright" unicode="&#x203a;" horiz-adv-x="681" 
d="M102 98l234 418l-234 418h183l295 -418l-295 -418h-183z" />
    <glyph glyph-name="fraction" unicode="&#x2044;" horiz-adv-x="153" 
d="M-356 -25l712 1459h154l-713 -1459h-153z" />
    <glyph glyph-name="uni2070" unicode="&#x2070;" 
d="M403.5 1139q102.5 0 102.5 229t-119.5 229t-138.5 -87t-19 -142t9.5 -98t36 -87t129 -44zM369 999q-80 0 -140.5 28t-99.5 78t-58.5 116.5t-19.5 146.5t19.5 146.5t58.5 116.5t99.5 78t140.5 28t139 -28t98 -78t58.5 -116.5t19.5 -146.5t-19.5 -146.5t-58.5 -116.5
t-98 -78t-139 -28z" />
    <glyph glyph-name="uni2074" unicode="&#x2074;" 
d="M403 1278v219l-174 -219h174zM45 1141v106l385 475h154v-444h96v-137h-96v-125h-181v125h-358z" />
    <glyph glyph-name="uni2075" unicode="&#x2075;" 
d="M264 1204q21 -84 105 -84t102 45t18 115t-124 70q-61 0 -97 -64l-168 14l27 420h500v-143h-346l-15 -160h8q42 53 142 53q178 0 215 -83t37 -143q0 -113 -80.5 -179t-206.5 -66q-205 0 -247 80t-46 125h176z" />
    <glyph glyph-name="uni2076" unicode="&#x2076;" 
d="M376 1350q-24 0 -44.5 -6.5t-36.5 -19.5t-25.5 -34.5t-9.5 -50.5t9.5 -51.5t24.5 -37.5t36.5 -22.5t44 -7.5t44 7.5t37 22.5t24.5 37.5t9 51.5t-9 49.5t-24.5 34.5t-35.5 20.5t-44 6.5zM250 1405q46 65 182 65q97 0 165.5 -55.5t68.5 -169.5t-80.5 -180t-204.5 -66
q-311 0 -311 353q0 385 317 385q244 0 262 -207h-174q0 54 -34.5 68t-58.5 14q-53 0 -88.5 -43t-43.5 -164z" />
    <glyph glyph-name="uni2077" unicode="&#x2077;" 
d="M66 1567v153h608v-110l-328 -594h-192l307 551h-395z" />
    <glyph glyph-name="uni2078" unicode="&#x2078;" 
d="M254 1524q0 -22 8 -38t22.5 -27t36 -17t60 -6t70.5 22.5t32 55.5q0 32 -8 48.5t-23.5 28t-36 17.5t-47 6t-48 -6t-36 -16.5t-22.5 -28t-8 -39.5zM240 1220.5q0 -24.5 9 -43t26.5 -30.5t41 -18.5t52 -6.5t52 6.5t41 18.5t27 30.5t9.5 43t-9.5 44t-27 32t-41 18.5t-52 6
t-52 -6t-41 -18.5t-26.5 -32t-9 -44zM95.5 1315q38.5 47 101.5 59v8q-52 12 -84.5 54.5t-32.5 93.5t19.5 88t57.5 63.5t92 41t152.5 14.5t176 -55t77.5 -144q0 -90 -45 -119.5t-71 -36.5v-8q95 -18 117 -77.5t22 -101.5t-20.5 -80t-60.5 -63.5t-97.5 -39t-131 -13.5
t-131 13.5t-119 51.5t-61.5 121t38.5 130z" />
    <glyph glyph-name="uni2079" unicode="&#x2079;" 
d="M352.5 1386q22.5 0 43 6.5t37 19.5t25.5 34.5t9 50.5t-9 51.5t-24.5 38t-37 22.5t-44 7t-43 -7t-37 -22.5t-25.5 -38t-9 -51.5t9 -49.5t25.5 -34.5t37 -20.5t43 -6.5zM657 1384q0 -385 -301 -385q-129 0 -199.5 56t-78.5 151h174q0 -33 32 -57.5t66 -24.5q61 0 91 43.5
t34 161.5q-17 -40 -75 -51.5t-98 -11.5t-86 12t-81 40t-54.5 70t-19.5 126t82 153.5t205 69.5q309 0 309 -353z" />
    <glyph glyph-name="uni2080" unicode="&#x2080;" 
d="M403.5 -188q102.5 0 102.5 229t-119.5 229t-138.5 -87t-19 -142t9.5 -98t36 -87t129 -44zM369 -328q-80 0 -140.5 28t-99.5 78t-58.5 116.5t-19.5 146.5t19.5 146.5t58.5 116.5t99.5 78t140.5 28t139 -28t98 -78t58.5 -116.5t19.5 -146.5t-19.5 -146.5t-58.5 -116.5
t-98 -78t-139 -28z" />
    <glyph glyph-name="uni2081" unicode="&#x2081;" 
d="M487 393v-561h189v-143h-572v143h201v348l-151 -88l-74 125l297 176h110z" />
    <glyph glyph-name="uni2082" unicode="&#x2082;" 
d="M483 186q0 88 -116 88t-125 -120h-172q4 127 88.5 191.5t213.5 64.5t209.5 -57.5t80.5 -168.5t-85 -160t-139 -73l-43 -21q-76 -34 -98.5 -61t-22.5 -37h385v-143h-598q0 206 93.5 268.5t144.5 87.5l43 21q108 49 124.5 76.5t16.5 43.5z" />
    <glyph glyph-name="uni2083" unicode="&#x2083;" 
d="M365 109q118 0 118 90q0 44 -22.5 59.5t-44 22t-61 6.5t-70.5 -27.5t-31 -73.5h-168q0 106 79 165t207 59t205.5 -55t77.5 -144t-45 -119.5t-71 -36.5v-6q94 -18 116.5 -77.5t22.5 -101.5q0 -91 -81 -144.5t-228 -53.5q-216 0 -257.5 85.5t-41.5 146.5h170q0 -77 50 -93
t78.5 -16t52 6t41 18.5t27 31t9.5 56t-37 62.5t-96 25h-50v115h50z" />
    <glyph glyph-name="uni2084" unicode="&#x2084;" 
d="M403 -49v219l-174 -219h174zM45 -186v106l385 475h154v-444h96v-137h-96v-125h-181v125h-358z" />
    <glyph glyph-name="uni2085" unicode="&#x2085;" 
d="M264 -123q21 -84 105 -84t102 45t18 115t-124 70q-61 0 -97 -64l-168 14l27 420h500v-143h-346l-15 -160h8q42 53 142 53q178 0 215 -84t37 -143q0 -112 -80.5 -178t-206.5 -66q-205 0 -247 80t-46 125h176z" />
    <glyph glyph-name="uni2086" unicode="&#x2086;" 
d="M376 23q-24 0 -44.5 -6.5t-36.5 -19.5t-25.5 -34.5t-9.5 -50.5t9.5 -51.5t24.5 -38t36.5 -22.5t44 -7t44 7t37 22.5t24.5 38t9 51.5t-9 49.5t-24.5 34.5t-35.5 20.5t-44 6.5zM250 78q46 65 182 65q98 0 166 -56t68 -170q0 -113 -80.5 -179t-204.5 -66q-311 0 -311 353
q0 199 84 292t233 93q244 0 262 -207h-174q0 54 -34.5 68t-58.5 14q-53 0 -88.5 -43t-43.5 -164z" />
    <glyph glyph-name="uni2087" unicode="&#x2087;" 
d="M66 240v153h608v-110l-328 -594h-192l307 551h-395z" />
    <glyph glyph-name="uni2088" unicode="&#x2088;" 
d="M254 198q0 -22 8 -38.5t22.5 -27.5t36 -17t60 -6t70.5 22.5t32 55.5q0 32 -8 48.5t-23.5 27.5t-36 17.5t-47 6.5t-48 -6.5t-36 -16.5t-22.5 -27t-8 -39zM240 -106.5q0 -24.5 9 -43t26.5 -31t41 -18.5t52 -6t52 6t41 18.5t27 31t9.5 43t-9.5 44t-27 32t-41 18.5t-52 6
t-52 -6t-41 -18.5t-26.5 -32t-9 -44zM95.5 -12q38.5 47 101.5 59v8q-52 12 -84.5 54.5t-32.5 93.5t19.5 88t57.5 63.5t92 41t152.5 14.5t176 -55t77.5 -144t-45 -119.5t-71 -36.5v-8q95 -18 117 -77.5t22 -101.5t-20.5 -80t-60.5 -63.5t-97.5 -39t-131 -13.5t-131 13.5
t-119 52t-61.5 120.5q0 83 38.5 130z" />
    <glyph glyph-name="uni2089" unicode="&#x2089;" 
d="M352.5 59q22.5 0 43 6.5t37 19.5t25.5 34.5t9 50.5t-9 51.5t-24.5 37.5t-37 22.5t-44 7.5t-43 -7.5t-37 -22.5t-25.5 -37.5t-9 -51.5t9 -49.5t25.5 -34.5t37 -20.5t43 -6.5zM657 57q0 -385 -301 -385q-129 0 -199.5 56t-78.5 151h174q0 -33 32 -57.5t66 -24.5
q61 0 91 43.5t34 161.5q-17 -40 -75 -51.5t-98 -11.5t-86 12t-81 39.5t-54.5 69.5t-19.5 126.5t82 154t205 69.5q309 0 309 -353z" />
    <glyph glyph-name="Euro" unicode="&#x20ac;" horiz-adv-x="1163" 
d="M676 1434q199 0 311 -102t146 -281h-211q-42 151 -113.5 174.5t-124.5 23.5q-222 0 -283 -325h396l-37 -125h-373l-1 -11v-46l1 -113h365l-37 -127h-316q36 -252 133 -297t149 -45q94 0 144 38.5t84 129.5h213q-84 -353 -440 -353q-325 0 -410.5 205t-103.5 322h-182
l37 127h133v9l-2 39l2 122h-131l36 125h109q64 367 233 438.5t273 71.5z" />
    <glyph glyph-name="afii61289" unicode="&#x2113;" horiz-adv-x="843" 
d="M568.5 1310q-29.5 48 -74.5 48q-44 0 -96 -42t-52 -325v-289l4 -2q170 143 209 271.5t39 209.5t-29.5 129zM346 379q0 -283 186 -283q103 0 158 61.5t84 102.5l45 -33q-77 -182 -182 -217t-152 -35q-232 0 -265.5 134t-33.5 229v151l-4 3l-121 -84l-24 49l149 125v278
q0 301 77 416t141 135.5t108 20.5q94 0 149.5 -71t55.5 -179q0 -190 -111 -328t-260 -252v-223z" />
    <glyph glyph-name="afii61352" unicode="&#x2116;" horiz-adv-x="2484" 
d="M1622 358v144h741v-144h-741zM1622 0v143h741v-143h-741zM1817 1058q0 -50 12 -91t34.5 -71t55.5 -46t94 -16t109.5 62t48.5 161q0 158 -68.5 190.5t-109.5 32.5t-74 -15.5t-55.5 -45t-34.5 -70.5t-12 -91zM1724 1326.5q102 100.5 272 100.5t268.5 -100.5t98.5 -269.5
t-101.5 -269t-271.5 -100t-269 100t-99 269t102 269.5zM166 0v1409h219l737 -1020h8l-8 1020h232v-1409h-219l-738 1016h-8l8 -1016h-231z" />
    <glyph glyph-name="trademark" unicode="&#x2122;" horiz-adv-x="1671" 
d="M8 1268v141h643v-141h-235v-563h-168v563h-240zM743 705v704h234l186 -481h8l187 481h235v-704h-168l9 493h-9l-190 -493h-133l-191 493h-8l8 -493h-168z" />
    <glyph glyph-name="Omega" unicode="&#x2126;" horiz-adv-x="1425" 
d="M827 0v455q111 29 198 135.5t87 274.5t-111 278t-289 110t-288.5 -110.5t-110.5 -278.5t87 -274t198 -135v-455h-483v176h288v174q-223 105 -270 260.5t-47 259.5t44 211t128 186t199.5 123t323.5 44t383 -164.5t175 -419.5t-123.5 -361t-193.5 -139v-174h289v-176h-484z
" />
    <glyph glyph-name="estimated" unicode="&#x212e;" horiz-adv-x="1740" 
d="M356 739q0 -12 15 -12h1007q8 0 8 12v396q0 29 -20 49q-147 147 -284.5 176t-208.5 29q-283 0 -494 -211q-23 -23 -23 -54v-385zM1683 684h-994t-333 -8v-397q0 -19 8 -30t34 -39t141.5 -109t342.5 -81t347.5 92.5t167.5 147.5h119q-167 -200 -356.5 -242.5t-321.5 -42.5
t-280 56.5t-261 157t-175.5 233.5t-62.5 282.5t62.5 282.5t175.5 233.5t262 157t313 56.5t312.5 -56.5t261.5 -157t175 -233.5t62 -282v-21z" />
    <glyph glyph-name="uni2153" unicode="&#x2153;" horiz-adv-x="1624" 
d="M487 1409v-561h189v-143h-572v143h201v348l-151 -88l-74 125l297 176h110zM418 -25q689 1410 712 1459h154l-713 -1459h-153zM1386 230q0 75 -133 75h-49v115h49q119 0 119 90q0 43 -22.5 59.5t-44 22.5t-62 6t-70.5 -28t-30 -72h-166q0 106 78 164.5t206 58.5t205.5 -55
t77.5 -144q0 -90 -45 -119.5t-72 -35.5v-7q96 -18 118 -77.5t22 -101.5q0 -91 -80 -144t-230 -53q-213 0 -254.5 85t-41.5 146h167q0 -77 50.5 -93t93 -16t78.5 24.5t36 99.5z" />
    <glyph glyph-name="uni2154" unicode="&#x2154;" horiz-adv-x="1624" 
d="M416 -25q689 1410 712 1459h154l-713 -1459h-153zM1386 230q0 75 -133 75h-49v115h49q119 0 119 90q0 43 -22.5 59.5t-44 22.5t-62 6t-70.5 -28t-30 -72h-166q0 106 78 164.5t206 58.5t205.5 -55t77.5 -144q0 -90 -45 -119.5t-72 -35.5v-7q96 -18 118 -77.5t22 -101.5
q0 -91 -80 -144t-230 -53q-213 0 -254.5 85t-41.5 146h167q0 -77 50.5 -93t93 -16t78.5 24.5t36 99.5zM483 1202q0 88 -116 88t-125 -121h-172q4 128 88 192t214 64t210 -58t80 -168t-85 -159t-139 -73l-43 -21q-76 -34 -98.5 -61t-22.5 -37h385v-143h-598q0 206 93.5 268.5
t144.5 87.5l43 20q141 64 141 121z" />
    <glyph glyph-name="uni2155" unicode="&#x2155;" horiz-adv-x="1624" 
d="M487 1409v-561h189v-143h-572v143h201v348l-151 -88l-74 125l297 176h110zM406 -25q689 1410 712 1459h154l-713 -1459h-153zM1266 104q47 0 71.5 23t33.5 45.5t9 63.5t-32.5 69.5t-81.5 28.5q-81 0 -107 -64l-170 15l27 420h502v-144h-349l-14 -160h8q43 54 142 54
q178 0 214.5 -83.5t36.5 -143.5q0 -112 -79 -178t-207 -66q-206 0 -246.5 79.5t-44.5 124.5h174q21 -84 113 -84z" />
    <glyph glyph-name="uni2156" unicode="&#x2156;" horiz-adv-x="1624" 
d="M406 -25q23 49 712 1459h152l-713 -1459h-151zM1266 104q47 0 71.5 23t33.5 45.5t9 63.5t-32.5 69.5t-81.5 28.5q-81 0 -107 -64l-170 15l27 420h502v-144h-349l-14 -160h8q43 54 142 54q178 0 214.5 -83.5t36.5 -143.5q0 -112 -79 -178t-207 -66q-206 0 -246.5 79.5
t-44.5 124.5h174q21 -84 113 -84zM483 1202q0 88 -116 88t-125 -121h-172q4 128 88 192t214 64t210 -58t80 -168t-85 -159t-139 -73l-43 -21q-76 -34 -98.5 -61t-22.5 -37h385v-143h-598q0 206 93.5 268.5t144.5 87.5l43 20q141 64 141 121z" />
    <glyph glyph-name="uni2157" unicode="&#x2157;" horiz-adv-x="1624" 
d="M383 -25q53 111 195.5 401t279 571t238.5 487h151l-712 -1459h-152zM70 920h170q0 -51 26.5 -73t50 -29t52 -7t52 6t41 18.5t27 31t9.5 56.5t-38 62.5t-95 24.5h-50v114h50q85 0 101.5 34t16.5 55t-8 39t-22.5 28t-36 16.5t-61 6.5t-70.5 -27.5t-31 -73.5h-168
q0 104 78 163.5t208 59.5t206.5 -55t76.5 -144t-45 -119t-71 -36v-6q94 -18 116.5 -77.5t22.5 -101.5q0 -91 -81 -144.5t-228 -53.5q-216 0 -257.5 85.5t-41.5 146.5zM1266 104q47 0 71.5 23t33.5 45.5t9 63.5t-32.5 69.5t-81.5 28.5q-81 0 -107 -64l-170 15l27 420h502
v-144h-349l-14 -160h8q43 54 142 54q178 0 214.5 -83.5t36.5 -143.5q0 -112 -79 -178t-207 -66q-206 0 -246.5 79.5t-44.5 124.5h174q21 -84 113 -84z" />
    <glyph glyph-name="uni2158" unicode="&#x2158;" horiz-adv-x="1624" 
d="M403 967v219l-174 -219h174zM387 -25q53 111 195.5 401t279 571t238.5 487h151l-712 -1459h-152zM45 829v107l385 475h154v-444h96v-138h-96v-124h-181v124h-358zM1266 104q47 0 71.5 23t33.5 45.5t9 63.5t-32.5 69.5t-81.5 28.5q-81 0 -107 -64l-170 15l27 420h502v-144
h-349l-14 -160h8q43 54 142 54q178 0 214.5 -83.5t36.5 -143.5q0 -112 -79 -178t-207 -66q-206 0 -246.5 79.5t-44.5 124.5h174q21 -84 113 -84z" />
    <glyph glyph-name="uni2159" unicode="&#x2159;" horiz-adv-x="1624" 
d="M1265 334q-24 0 -44.5 -6t-37 -19.5t-25.5 -35t-9 -50t9 -51t24.5 -38t37 -23t44 -7.5t44 7.5t37 23t24.5 38t9 51t-9 49t-24.5 35t-35.5 20.5t-44 6zM487 1409v-561h189v-143h-572v143h201v348l-151 -88l-74 125l297 176h110zM424 -25l713 1459h153l-712 -1459h-154z
M958 336q0 296 124 340.5t190 44.5q130 0 196 -57.5t70 -149.5h-174q0 57 -35 69.5t-59 12.5q-54 0 -88.5 -43t-42.5 -166h8q25 44 80 56t94 12q96 0 164.5 -55.5t68.5 -169.5t-79 -180t-205 -66q-312 0 -312 352z" />
    <glyph glyph-name="uni215A" unicode="&#x215a;" horiz-adv-x="1624" 
d="M1265 334q-24 0 -44.5 -6t-37 -19.5t-25.5 -35t-9 -50t9 -51t24.5 -38t37 -23t44 -7.5t44 7.5t37 23t24.5 38t9 51t-9 49t-24.5 35t-35.5 20.5t-44 6zM381 -25q53 111 195.5 401t279 571t238.5 487h151l-713 -1459h-151zM264 893q21 -84 105 -84t102 45t18 114.5
t-123 69.5q-62 0 -98 -63l-168 14l27 420h500v-143h-346l-15 -160h8q42 53 142 53q178 0 215 -84t37 -143q0 -114 -80.5 -179t-206.5 -65q-205 0 -247 80t-46 125h176zM958 336q0 296 124 340.5t190 44.5q130 0 196 -57.5t70 -149.5h-174q0 57 -35 69.5t-59 12.5
q-54 0 -88.5 -43t-42.5 -166h8q25 44 80 56t94 12q96 0 164.5 -55.5t68.5 -169.5t-79 -180t-205 -66q-312 0 -312 352z" />
    <glyph glyph-name="uni215B" unicode="&#x215b;" horiz-adv-x="1624" 
d="M1143 508q0 -22 8 -37.5t22.5 -27t36 -17.5t62 -6t70.5 24t30 55t-8 48.5t-22.5 28t-36 16.5t-48 6t-48 -6t-36 -16.5t-22.5 -28t-8 -39.5zM1128 204.5q0 -24.5 9.5 -43t27 -30.5t41 -18.5t52 -6.5t52 6.5t41 18.5t26.5 30.5t9 43t-9 44t-26.5 32t-41 18.5t-52 6t-52 -6
t-41 -18.5t-27 -32t-9.5 -44zM487 1409v-561h189v-143h-572v143h201v348l-151 -88l-74 125l297 176h110zM416 -25q689 1410 712 1459h154l-713 -1459h-153zM1085 358v9q-52 12 -84 54t-32 93t19.5 88t57 63.5t92 41t153 14.5t176 -55t77.5 -144q0 -90 -45 -119.5t-72 -35.5
v-9q97 -19 118.5 -78t21.5 -101t-20.5 -80t-60.5 -63.5t-97.5 -38.5t-131 -13t-131 13t-119 51t-61.5 122q0 160 139 188z" />
    <glyph glyph-name="uni215C" unicode="&#x215c;" horiz-adv-x="1624" 
d="M1143 508q0 -22 8 -37.5t22.5 -27t36 -17.5t62 -6t70.5 24t30 55t-8 48.5t-22.5 28t-36 16.5t-48 6t-48 -6t-36 -16.5t-22.5 -28t-8 -39.5zM1128 204.5q0 -24.5 9.5 -43t27 -30.5t41 -18.5t52 -6.5t52 6.5t41 18.5t26.5 30.5t9 43t-9 44t-26.5 32t-41 18.5t-52 6t-52 -6
t-41 -18.5t-27 -32t-9.5 -44zM381 -25l713 1459h153l-712 -1459h-154zM70 920h170q0 -51 26.5 -73t50 -29t52 -7t52 6t41 18.5t27 31t9.5 56.5t-38 62.5t-95 24.5h-50v114h50q85 0 101.5 34t16.5 55t-8 39t-22.5 28t-36 16.5t-61 6.5t-70.5 -27.5t-31 -73.5h-168
q0 104 78 163.5t208 59.5t206.5 -55t76.5 -144t-45 -119t-71 -36v-6q94 -18 116.5 -77.5t22.5 -101.5q0 -91 -81 -144.5t-228 -53.5q-216 0 -257.5 85.5t-41.5 146.5zM1085 358v9q-52 12 -84 54t-32 93t19.5 88t57 63.5t92 41t153 14.5t176 -55t77.5 -144q0 -90 -45 -119.5
t-72 -35.5v-9q97 -19 118.5 -78t21.5 -101t-20.5 -80t-60.5 -63.5t-97.5 -38.5t-131 -13t-131 13t-119 51t-61.5 122q0 160 139 188z" />
    <glyph glyph-name="uni215D" unicode="&#x215d;" horiz-adv-x="1624" 
d="M1143 508q0 -22 8 -37.5t22.5 -27t36 -17.5t62 -6t70.5 24t30 55t-8 48.5t-22.5 28t-36 16.5t-48 6t-48 -6t-36 -16.5t-22.5 -28t-8 -39.5zM1128 204.5q0 -24.5 9.5 -43t27 -30.5t41 -18.5t52 -6.5t52 6.5t41 18.5t26.5 30.5t9 43t-9 44t-26.5 32t-41 18.5t-52 6t-52 -6
t-41 -18.5t-27 -32t-9.5 -44zM381 -25q53 111 195.5 401t279 571t238.5 487h151l-713 -1459h-151zM264 893q21 -84 105 -84t102 45t18 114.5t-123 69.5q-62 0 -98 -63l-168 14l27 420h500v-143h-346l-15 -160h8q42 53 142 53q178 0 215 -84t37 -143q0 -114 -80.5 -179
t-206.5 -65q-205 0 -247 80t-46 125h176zM1085 358v9q-52 12 -84 54t-32 93t19.5 88t57 63.5t92 41t153 14.5t176 -55t77.5 -144q0 -90 -45 -119.5t-72 -35.5v-9q97 -19 118.5 -78t21.5 -101t-20.5 -80t-60.5 -63.5t-97.5 -38.5t-131 -13t-131 13t-119 51t-61.5 122
q0 160 139 188z" />
    <glyph glyph-name="uni215E" unicode="&#x215e;" horiz-adv-x="1624" 
d="M1143 508q0 -22 8 -37.5t22.5 -27t36 -17.5t62 -6t70.5 24t30 55t-8 48.5t-22.5 28t-36 16.5t-48 6t-48 -6t-36 -16.5t-22.5 -28t-8 -39.5zM1128 204.5q0 -24.5 9.5 -43t27 -30.5t41 -18.5t52 -6.5t52 6.5t41 18.5t26.5 30.5t9 43t-9 44t-26.5 32t-41 18.5t-52 6t-52 -6
t-41 -18.5t-27 -32t-9.5 -44zM66 1255v154h608v-111l-328 -593h-192l307 550h-395zM324 -25q23 49 712 1459h152l-713 -1459h-151zM1085 358v9q-52 12 -84 54t-32 93t19.5 88t57 63.5t92 41t153 14.5t176 -55t77.5 -144q0 -90 -45 -119.5t-72 -35.5v-9q97 -19 118.5 -78
t21.5 -101t-20.5 -80t-60.5 -63.5t-97.5 -38.5t-131 -13t-131 13t-119 51t-61.5 122q0 160 139 188z" />
    <glyph glyph-name="uni2190" unicode="&#x2190;" horiz-adv-x="1351" 
d="M547 600h747v-168h-381q-381 0 -561 8l334 -329l-117 -107l-512 512l512 512l117 -106l-334 -330q180 8 195 8z" />
    <glyph glyph-name="uni2191" unicode="&#x2191;" horiz-adv-x="1351" 
d="M764 645v-747h-168v381q0 381 8 561l-330 -334l-106 117l512 512l514 -512l-109 -117l-329 334q8 -180 8 -195z" />
    <glyph glyph-name="uni2192" unicode="&#x2192;" horiz-adv-x="1351" 
d="M802 432h-745v168h380q380 0 560 -8l-331 330l116 106l512 -512l-512 -512l-116 107l331 329q-180 -8 -195 -8z" />
    <glyph glyph-name="uni2193" unicode="&#x2193;" horiz-adv-x="1351" 
d="M592 388v747h168v-381q0 -381 -8 -561l329 333l107 -116l-512 -512l-512 512l106 116l330 -333q-8 180 -8 195z" />
    <glyph glyph-name="uni2196" unicode="&#x2196;" horiz-adv-x="1351" 
d="M213 987h725v-153h-461q67 -55 141 -132t103 -102l424 -426l-115 -123l-426 430q-23 23 -82.5 80.5t-152.5 165.5v-465h-156v725z" />
    <glyph glyph-name="uni2197" unicode="&#x2197;" horiz-adv-x="1351" 
d="M420 834v153h725v-725h-154v465q-68 -77 -235 -246l-426 -430l-117 123l299 299q299 299 369 361h-461z" />
    <glyph glyph-name="uni2198" unicode="&#x2198;" horiz-adv-x="1351" 
d="M420 51v156h461q-109 97 -162 152t-80 81l-426 426l117 121l426 -428q169 -169 235 -246v463h154v-725h-725z" />
    <glyph glyph-name="uni2199" unicode="&#x2199;" horiz-adv-x="1351" 
d="M938 207v-156h-725v725h156v-463q114 128 163.5 176t71.5 70l426 428l115 -121q-555 -557 -594 -592.5t-74 -66.5h461z" />
    <glyph glyph-name="partialdiff" unicode="&#x2202;" horiz-adv-x="1163" 
d="M793 464q0 119 -65 188t-182 69q-118 0 -201 -87t-83 -217t66.5 -195.5t174.5 -65.5q116 0 203 94.5t87 213.5zM522.5 1253q-124.5 0 -170.5 -196h-217q57 268 215 322.5t257 54.5q202 0 336 -149t134 -462q0 -446 -171.5 -647t-434.5 -201q-178 0 -306 112.5t-128 325.5
q0 214 142.5 351t348.5 137q168 0 237 -62.5t85 -97.5v11l2 73q0 323 -102.5 375.5t-227 52.5z" />
    <glyph glyph-name="Delta" unicode="&#x2206;" horiz-adv-x="1335" 
d="M668 1180h-9l-337 -996h679zM43 0l498 1409h254l499 -1409h-1251z" />
    <glyph glyph-name="product" unicode="&#x220f;" horiz-adv-x="1499" 
d="M178 0v1409h1143v-1409h-221v1225h-699v-1225h-223z" />
    <glyph glyph-name="summation" unicode="&#x2211;" horiz-adv-x="1103" 
d="M39 0v109l457 585l-441 592v123h975v-182h-678l391 -520l-413 -525h725v-182h-1016z" />
    <glyph glyph-name="minus" unicode="&#x2212;" horiz-adv-x="1163" 
d="M117 430v180h930v-180h-930z" />
    <glyph glyph-name="uni2215" unicode="&#x2215;" horiz-adv-x="153" 
d="M-356 -25l712 1459h154l-713 -1459h-153z" />
    <glyph glyph-name="uni2219" unicode="&#x2219;" horiz-adv-x="559" 
d="M147 389v254h265v-254h-265z" />
    <glyph glyph-name="radical" unicode="&#x221a;" horiz-adv-x="1224" 
d="M55 598v180l316 101l245 -637h9l405 1167h215l-497 -1409h-246l-266 655z" />
    <glyph glyph-name="infinity" unicode="&#x221e;" horiz-adv-x="1449" 
d="M1215.5 584.5q-11.5 31.5 -32 55.5t-50 38t-83.5 14t-110.5 -49t-114.5 -125q132 -174 222.5 -174t135 51t44.5 104.5t-11.5 85zM510 392.5q57 48.5 115 125.5q-96 127 -150.5 150.5t-91.5 23.5t-66.5 -14t-50 -38t-32 -55.5t-11.5 -66.5t11.5 -66.5t44.5 -69.5
t103.5 -38t127.5 48.5zM51 518q0 150 94 244t244 94q196 0 340 -209q153 209 332 209q150 0 244 -94t94 -244t-94 -244t-244 -94q-197 0 -340 207q-152 -207 -332 -207q-150 0 -244 94t-94 244z" />
    <glyph glyph-name="integral" unicode="&#x222b;" horiz-adv-x="745" 
d="M55 -197h60q130 0 161 84.5t19 266.5l-62 1020q-16 242 61 379t310 137h82v-181h-59q-131 0 -162 -84t-19 -266l62 -1020q13 -249 -64 -382.5t-307 -133.5h-82v180z" />
    <glyph glyph-name="approxequal" unicode="&#x2248;" horiz-adv-x="1163" 
d="M385 291q-102 0 -102 -160h-177q0 163 78 248.5t195 85.5q63 0 115.5 -19.5t118 -59.5t97 -55.5t70.5 -15.5q103 0 103 154h176q0 -163 -77 -248.5t-189 -85.5q-63 0 -116.5 20.5t-121.5 61.5t-100.5 57.5t-69.5 16.5zM385 737q-102 0 -102 -159h-177q0 165 77.5 249
t195.5 84q63 0 115.5 -19.5t118 -59t97 -55t70.5 -15.5q103 0 103 153h176q0 -164 -78.5 -248.5t-187.5 -84.5q-63 0 -116.5 20.5t-121.5 61.5t-100.5 57t-69.5 16z" />
    <glyph glyph-name="notequal" unicode="&#x2260;" horiz-adv-x="1163" 
d="M115 647v180h534l152 283l143 -78l-110 -205h215v-180h-312l-135 -254h447v-180h-543l-152 -283l-143 78l108 205h-204v180h301l137 254h-438z" />
    <glyph glyph-name="lessequal" unicode="&#x2264;" horiz-adv-x="1163" 
d="M147 0v180h869v-180h-869zM147 664v182l869 358v-194l-651 -252l651 -254v-201z" />
    <glyph glyph-name="greaterequal" unicode="&#x2265;" horiz-adv-x="1163" 
d="M147 0v180h869v-180h-869zM1016 846v-184l-869 -359v195l652 252l-652 254v200z" />
    <glyph glyph-name="uni25A0" unicode="&#x25a0;" horiz-adv-x="1409" 
d="M0 0v1409h1409v-1409h-1409z" />
    <glyph glyph-name="uni25A1" unicode="&#x25a1;" horiz-adv-x="1409" 
d="M197 184h1015v1041h-1015v-1041zM0 0v1409h1409v-1409h-1409z" />
    <glyph glyph-name="uni25B6" unicode="&#x25b6;" horiz-adv-x="1028" 
d="M90 -25v1049l914 -524z" />
    <glyph glyph-name="uni25B7" unicode="&#x25b7;" horiz-adv-x="1028" 
d="M266 268l418 232l-418 231v-463zM90 -25v1049l914 -524z" />
    <glyph glyph-name="uni25C0" unicode="&#x25c0;" horiz-adv-x="1028" 
d="M25 500l913 524v-1049z" />
    <glyph glyph-name="uni25C1" unicode="&#x25c1;" horiz-adv-x="1028" 
d="M344 500l418 -232v463zM25 500l913 524v-1049z" />
    <glyph glyph-name="lozenge" unicode="&#x25ca;" horiz-adv-x="1337" 
d="M672 1227h-10l-365 -518l371 -527h8l364 516zM565 0l-504 705l504 704h207l504 -704l-504 -705h-207z" />
    <glyph glyph-name="uni25CB" unicode="&#x25cb;" horiz-adv-x="1130" 
d="M332 250q92 -100 236 -100t233.5 98t89.5 249t-91.5 252t-235.5 101t-234 -98t-90 -250t92 -252zM934.5 877q150.5 -147 150.5 -373q0 -225 -150 -377t-370 -152t-370 148.5t-150 372.5t150 376t369.5 152t370 -147z" />
    <glyph glyph-name="uni25CF" unicode="&#x25cf;" horiz-adv-x="1130" 
d="M934.5 877q150.5 -147 150.5 -373q0 -225 -150 -377t-370 -152t-370 148.5t-150 372.5t150 376t369.5 152t370 -147z" />
    <glyph glyph-name="uni25FB" unicode="&#x25fb;" horiz-adv-x="999" 
d="M188 174h623v651h-623v-651zM0 0v999h999v-999h-999z" />
    <glyph glyph-name="uni25FC" unicode="&#x25fc;" horiz-adv-x="999" 
d="M0 0v999h999v-999h-999z" />
    <glyph glyph-name="uni2605" unicode="&#x2605;" horiz-adv-x="1118" 
d="M217 27l139 374l-331 222l10 32l399 -18l109 387h32l107 -387l401 18l11 -32l-334 -222l141 -374l-29 -21l-313 248l-313 -248z" />
    <glyph glyph-name="dotlessj" unicode="&#xf6be;" horiz-adv-x="522" 
d="M150 -121v1120h221v-1144q0 -226 -113 -266t-201 -40h-75v181h51q65 0 91 36.5t26 112.5z" />
    <glyph glyph-name="commaaccent" unicode="&#xf6c3;" horiz-adv-x="1173" 
d="M481 -131h211v-170l-88 -217h-96l61 192h-88v195z" />
    <glyph glyph-name="at.sc" horiz-adv-x="1720" 
d="M946.5 159q54.5 46 54.5 136v70q-21 -21 -27 -22l-52 -9l-119 -15q-117 -15 -117 -102q0 -49 36 -76.5t103 -27.5t121.5 46zM485 249q0 152 267 183l145 17q86 11 95 28t9 39q0 53 -37 88t-88 35q-161 0 -169 -129h-183q17 197 142.5 231.5t197.5 34.5q154 0 242 -72.5
t88 -211.5v-236q0 -154 121 -154q69 0 117.5 78.5t48.5 220.5q0 264 -170.5 412t-448.5 148t-450 -170.5t-172 -430.5t164.5 -424.5t441.5 -164.5q228 0 330 102h184q-181 -231 -514 -231q-164 0 -303.5 54t-292 207.5t-152.5 458.5q0 306 213 517t549 211t493.5 -137.5
t213 -262.5t55.5 -255q0 -236 -98.5 -343.5t-264.5 -107.5t-227 116q-75 -123 -278 -123q-124 0 -196.5 60t-72.5 212z" />
    <glyph glyph-name="a.sc" horiz-adv-x="1120" 
d="M563 854h-8l-168 -448h338zM14 0l418 1065h262l412 -1065h-234l-86 236h-462l-86 -236h-224z" />
    <glyph glyph-name="b.sc" horiz-adv-x="1218" 
d="M842 772q0 119 -156 119h-291v-258h291q112 0 134 54t22 85zM395 463v-289h324q120 0 145 57.5t25 90.5q0 65 -45.5 103t-124.5 38h-324zM172 0v1065h537q266 0 313 -106.5t47 -158.5q0 -190 -178 -231v-6q105 -17 166 -87t61 -151q0 -153 -98 -239t-277 -86h-571z" />
    <glyph glyph-name="c.sc" horiz-adv-x="1210" 
d="M236.5 934q152.5 156 404.5 156q202 0 334 -104.5t166 -274.5h-219q-23 83 -93.5 134.5t-164.5 51.5q-169 0 -260 -99t-91 -262t91 -265.5t250 -102.5q203 0 268 186h219q-32 -169 -165 -274t-337 -105q-252 0 -403.5 159t-151.5 402q0 242 152.5 398z" />
    <glyph glyph-name="d.sc" horiz-adv-x="1253" 
d="M586 883h-191v-701h191q181 0 266.5 100t85.5 250q0 244 -129 297.5t-223 53.5zM172 0v1065h430q265 0 416 -145.5t151 -384.5t-151.5 -387t-415.5 -148h-430z" />
    <glyph glyph-name="e.sc" horiz-adv-x="1114" 
d="M172 0v1065h815v-178h-592v-260h479v-172h-479v-277h611v-178h-834z" />
    <glyph glyph-name="f.sc" horiz-adv-x="1054" 
d="M172 0v1065h801v-178h-578v-303h461v-174h-461v-410h-223z" />
    <glyph glyph-name="g.sc" horiz-adv-x="1323" 
d="M1004 125q-118 -150 -359 -150t-397 160t-156 400t159.5 397.5t420.5 157.5q203 0 337 -101.5t162 -251.5h-225q-20 67 -92 114.5t-167 47.5t-159.5 -26.5t-110.5 -75.5t-70.5 -117t-24.5 -188.5t93 -224t237 -103.5q143 0 233 63.5t90 178.5v2h-301v167h497v-575h-141
l-22 125h-4z" />
    <glyph glyph-name="h.sc" horiz-adv-x="1310" 
d="M172 0v1065h223v-436h520v436h224v-1065h-224v444h-520v-444h-223z" />
    <glyph glyph-name="i.sc" horiz-adv-x="567" 
d="M172 0v1065h223v-1065h-223z" />
    <glyph glyph-name="j.sc" horiz-adv-x="950" 
d="M293 317q0 -159 147.5 -159t147.5 166v741h221v-719q0 -187 -98 -279t-271 -92q-261 0 -310.5 129.5t-49.5 219.5v47h213v-54z" />
    <glyph glyph-name="k.sc" horiz-adv-x="1187" 
d="M172 0v1065h223v-520l484 520h258l-445 -467l473 -598h-260l-356 449l-154 -160v-289h-223z" />
    <glyph glyph-name="l.sc" horiz-adv-x="978" 
d="M172 0v1065h223v-872h539v-193h-762z" />
    <glyph glyph-name="m.sc" horiz-adv-x="1605" 
d="M172 0v1065h293l338 -774h4l344 774h281v-1065h-220l17 760h-6l-342 -760h-160l-338 760h-8l18 -760h-221z" />
    <glyph glyph-name="n.sc" horiz-adv-x="1310" 
d="M172 0v1065h197l546 -711h9l-9 711h224v-1065h-195l-549 711h-8l8 -711h-223z" />
    <glyph glyph-name="o.sc" horiz-adv-x="1312" 
d="M905 270q94 102 94 262q0 159 -93.5 262t-247 103t-249.5 -102t-96 -263t96 -262.5t249 -101.5t247 102zM244 931.5q160 158.5 412 158.5q251 0 412 -158.5t161 -399t-160.5 -399t-410.5 -158.5t-412 158t-162 399t160 399.5z" />
    <glyph glyph-name="p.sc" horiz-adv-x="1157" 
d="M395 887v-363h264q136 0 162.5 70t26.5 130.5t-49 111.5t-140 51h-264zM172 0v1065h504q184 0 289.5 -97t105.5 -260t-104.5 -262.5t-290.5 -99.5h-281v-346h-223z" />
    <glyph glyph-name="q.sc" horiz-adv-x="1312" 
d="M905 270q94 102 94 262q0 159 -93.5 262t-247 103t-249.5 -102t-96 -263t96 -262.5t249 -101.5t247 102zM84 593.5q0 179.5 160 338t412 158.5q251 0 412 -158.5t161 -399.5q0 -173 -62.5 -268.5t-101.5 -132.5l209 -211l-144 -133l-229 236q-251 -93 -470 -7.5t-283 242
t-64 336z" />
    <glyph glyph-name="r.sc" horiz-adv-x="1198" 
d="M668 887h-273v-326h273q130 0 155 63.5t25 101.5q0 77 -48 119t-132 42zM1071 738q0 -259 -233 -332l282 -406h-246l-260 385h-219v-385h-223v1065h510q284 0 336.5 -129.5t52.5 -197.5z" />
    <glyph glyph-name="s.sc" horiz-adv-x="1107" 
d="M576 924q-246 0 -246 -108t60.5 -136t187.5 -49l53 -8q173 -24 279 -87t106 -220t-123 -249t-348 -92q-333 0 -396 127t-63 203h219q0 -116 92 -140t148 -24q239 0 239 156q0 69 -62 95t-185 46l-52 8q-170 24 -274.5 88t-104.5 216t120.5 246t322.5 94t317 -86t115 -236
h-213q0 72 -60 114t-132 42z" />
    <glyph glyph-name="t.sc" horiz-adv-x="1075" 
d="M45 879v186h985v-186h-381v-879h-223v879h-381z" />
    <glyph glyph-name="u.sc" horiz-adv-x="1245" 
d="M139 430v635h223v-631q0 -264 226.5 -264t260.5 101.5t34 162.5v631h223v-635q0 -455 -488 -455q-345 0 -412 166t-67 289z" />
    <glyph glyph-name="v.sc" horiz-adv-x="1103" 
d="M410 0l-396 1065h236l303 -854h8l307 854h222l-400 -1065h-280z" />
    <glyph glyph-name="w.sc" horiz-adv-x="1619" 
d="M309 0l-280 1065h233l199 -832h8l242 832h215l241 -832h9l188 832h227l-276 -1065h-277l-221 778h-6l-223 -778h-279z" />
    <glyph glyph-name="x.sc" horiz-adv-x="1075" 
d="M14 0l396 545l-379 520h262l252 -360l246 360h251l-378 -516l395 -549h-246l-283 395l-276 -395h-240z" />
    <glyph glyph-name="y.sc" horiz-adv-x="1085" 
d="M428 0v408l-420 657h256l281 -455h4l291 455h237l-428 -651v-414h-221z" />
    <glyph glyph-name="z.sc" horiz-adv-x="1060" 
d="M98 881v184h873v-131l-592 -750h586v-184h-887v131l592 750h-572z" />
    <glyph glyph-name="ampersand.sc" horiz-adv-x="1220" 
d="M684 803q0 70 -32.5 102.5t-98.5 32.5t-102.5 -32.5t-36.5 -86.5t34.5 -94.5t61.5 -67.5q174 76 174 146zM301 299q0 -73 67.5 -117.5t184.5 -44.5t203 56l-310 280q-145 -70 -145 -174zM887 74q-142 -99 -354 -99t-328.5 81.5t-116.5 230.5t96.5 208.5t151.5 86.5
q-66 74 -88.5 123.5t-22.5 105.5q0 117 85 194.5t245 77.5q240 0 279.5 -97.5t39.5 -153.5q0 -102 -64 -162t-189 -119l249 -236q43 86 43 189v28h185v-30q0 -119 -35 -197t-59 -112l208 -193h-245z" />
    <glyph glyph-name="fi.sc" horiz-adv-x="1622" 
d="M1227 0v1065h223v-1065h-223zM172 0v1065h801v-178h-578v-305h461v-174h-461v-408h-223z" />
    <glyph glyph-name="fl.sc" horiz-adv-x="2033" 
d="M1227 0v1065h223v-872h539v-193h-762zM172 0v1065h801v-178h-578v-305h461v-174h-461v-408h-223z" />
    <glyph glyph-name="germandbls.sc" horiz-adv-x="2215" 
d="M1684 924q-246 0 -246 -108t60.5 -136t187.5 -49l53 -8q173 -24 279 -87t106 -220t-123 -249t-348 -92q-333 0 -396 127t-63 203h219q0 -116 92 -140t148 -24q239 0 239 156q0 68 -61.5 94.5t-185.5 46.5l-52 8q-170 24 -274.5 88t-104.5 216t120.5 246t322.5 94t317 -86
t115 -236h-213q0 72 -60 114t-132 42zM576 924q-246 0 -246 -108t60.5 -136t187.5 -49l53 -8q173 -24 279 -87t106 -220t-123 -249t-348 -92q-333 0 -396 127t-63 203h219q0 -116 92 -140t148 -24q239 0 239 156q0 69 -62 95t-185 46l-52 8q-170 24 -274.5 88t-104.5 216
t120.5 246t322.5 94t317 -86t115 -236h-213q0 72 -60 114t-132 42z" />
    <glyph glyph-name="t_f" horiz-adv-x="1282" 
d="M813 0v827h-407v-495q0 -84 22 -116t86 -32h102v-184h-129q-166 0 -234.5 74.5t-68.5 244.5v508h-182v172h182v304h222v-304h407v142q0 269 133 313.5t228 44.5h131v-180h-103q-134 0 -151 -65.5t-17 -112.5v-142h238v-172h-238v-827h-221z" />
    <glyph glyph-name="t_t" horiz-adv-x="1333" 
d="M807 319v508h-406v-495q0 -78 30 -113t97 -35h88v-184h-112q-172 0 -248 76t-76 243v508h-182v172h182v304h221v-304h406v304h223v-304h254v-172h-254v-495q0 -114 49 -131t84 -17h121v-184h-154q-171 0 -247 76t-76 243z" />
    <glyph glyph-name="slashedzero" horiz-adv-x="1163" 
d="M582 166q272 0 272 539q0 161 -16.5 233t-26.5 104l-383 -815q70 -61 154 -61zM309 705q0 -202 43 -340l381 815q-55 63 -151 63q-273 0 -273 -538zM582 -25q-131 0 -227.5 54.5t-158 154t-90 231.5t-28.5 289.5t28.5 289.5t90 231.5t158 154t227.5 54.5t227 -54.5
t157.5 -154t90 -231.5t28.5 -289.5t-28.5 -289.5t-90 -231.5t-157.5 -154t-227 -54.5z" />
    <glyph glyph-name="zero.PPF" horiz-adv-x="1210" 
d="M604 166q72 0 126 35t90 104.5t54.5 169.5t18.5 229.5t-18.5 229.5t-54.5 170t-90 104.5t-234.5 34.5t-180.5 -538q0 -398 108.5 -468.5t180.5 -70.5zM86 704.5q0 327.5 128.5 528.5t390.5 201t390.5 -201t128.5 -528.5t-128.5 -528.5t-390.5 -201t-390.5 201
t-128.5 528.5z" />
    <glyph glyph-name="one.PPF" horiz-adv-x="745" 
d="M584 1409v-1409h-222v1135l-237 -162l-96 164l399 272h156z" />
    <glyph glyph-name="two.PPF" horiz-adv-x="1103" 
d="M784 1019q0 48 -12 88t-38.5 72.5t-71 51t-193 18.5t-172.5 -264h-209q17 343 198 396t278 53q200 0 323 -105.5t123 -307.5t-117 -295t-195 -144l-147 -99q-180 -124 -197.5 -192t-21.5 -107h688v-184h-944q8 237 84.5 373.5t245.5 249.5l147 98q124 83 162.5 125.5
t53.5 83.5t15 89z" />
    <glyph glyph-name="three.PPF" horiz-adv-x="1138" 
d="M66 426h215q0 -130 76 -201t237 -71t203.5 93t42.5 147q0 112 -81 177.5t-198 65.5h-106v182h106q96 0 165 61.5t69 160.5t-65.5 156.5t-168.5 57.5q-167 0 -201 -88t-34 -147h-205q0 193 122 303.5t319.5 110.5t321.5 -106.5t124 -274.5q0 -102 -62.5 -193.5
t-146.5 -122.5v-8q113 -28 188.5 -122.5t75.5 -204.5q0 -206 -142.5 -316.5t-364.5 -110.5t-356 113t-134 338z" />
    <glyph glyph-name="four.PPF" horiz-adv-x="1150" 
d="M680 514v553l-414 -553h414zM37 330v149l686 930h180v-895h197v-184h-197v-330h-223v330h-643z" />
    <glyph glyph-name="five.PPF" horiz-adv-x="1105" 
d="M340 811q90 90 265 90t302 -119t127 -338t-141.5 -344t-349.5 -125t-335.5 108t-144.5 294h220q13 -92 79.5 -156.5t179.5 -64.5t191 74.5t78 205.5q0 130 -75.5 207.5t-168.5 77.5t-148 -33t-108 -98l-198 12l45 807h794v-190h-598l-22 -408h8z" />
    <glyph glyph-name="six.PPF" horiz-adv-x="1169" 
d="M413 235q73 -79 191 -79t192 76t74 205t-74.5 206.5t-189.5 77.5t-190.5 -77.5t-75.5 -203.5t73 -205zM608 -25q-522 1 -522 699q0 385 145 572.5t383 187.5q201 0 312.5 -101.5t132.5 -279.5h-217q-28 200 -229 200t-247.5 -187t-50.5 -331q40 74 128 120t192 46
q203 0 330 -123t127 -336q0 -214 -141 -340.5t-343 -126.5z" />
    <glyph glyph-name="seven.PPF" horiz-adv-x="972" 
d="M39 1212v197h907v-145l-584 -1264h-229l574 1212h-668z" />
    <glyph glyph-name="eight.PPF" horiz-adv-x="1165" 
d="M583.5 819q51.5 0 95.5 16.5t76.5 46t50 71.5t17.5 91.5t-17.5 89.5t-50 68.5t-76.5 44t-95.5 15.5t-95.5 -15.5t-76.5 -44t-51 -68.5t-18.5 -89.5t18.5 -91.5t51 -71.5t76.5 -46t95.5 -16.5zM791 219.5q77 65.5 77 174.5t-81.5 176t-203.5 67t-204 -66.5t-82 -176.5
t77.5 -175t208.5 -65t208 65.5zM74 365q0 141 75 238t189 126v8q-89 29 -149 117.5t-60 184.5t33 166.5t93 121.5t144 79t235.5 28t276.5 -105.5t125 -277.5q0 -108 -59 -195t-150 -119v-8q114 -29 189.5 -125.5t75.5 -207.5t-36 -187t-103.5 -128t-162 -79t-207 -27
t-206.5 27t-162 79t-104.5 128t-36.5 156z" />
    <glyph glyph-name="nine.PPF" horiz-adv-x="1169" 
d="M742.5 768q72.5 80 72.5 202t-74 202.5t-191 80.5t-191 -76t-74 -204t75.5 -206.5t192.5 -78.5t189.5 80zM838 674q-90 -166 -346 -166q-74 0 -156 30.5t-177.5 121.5t-95.5 306t141 341.5t343 126.5q522 0 522 -684q0 -406 -140.5 -590.5t-387.5 -184.5
q-199 0 -318 105.5t-127 275.5h217q13 -140 94.5 -170t140.5 -30q129 0 205.5 118.5t84.5 399.5z" />
    <glyph glyph-name="slashedzero.PPF" horiz-adv-x="1210" 
d="M893 679q0 232 -53 378l-391 -834q65 -57 146 -57q153 0 225.5 140.5t72.5 372.5zM611 1243q-296 0 -296 -538q0 -170 19.5 -246t32.5 -109l391 834q-68 59 -147 59zM86 704.5q0 327.5 128.5 528.5t390.5 201t390.5 -201t128.5 -528.5t-128.5 -528.5t-390.5 -201
t-390.5 201t-128.5 528.5z" />
    <glyph glyph-name="zero.sc" horiz-adv-x="1032" 
d="M516 918q-209 0 -209 -333.5t78 -385.5t156 -52t131 99.5t53 385.5t-209 286zM516 -25q-115 0 -199 42t-137 118t-77.5 177.5t-24.5 220t24.5 220t77.5 177.5t137 118t199 42t199 -42t137 -118t77.5 -177.5t24.5 -220t-24.5 -220t-77.5 -177.5t-137 -118t-199 -42z" />
    <glyph glyph-name="one.sc" horiz-adv-x="1032" 
d="M672 1065v-891h268v-174h-772v174h285v631l-238 -146l-88 154l397 252h148z" />
    <glyph glyph-name="two.sc" horiz-adv-x="1032" 
d="M472.5 918q-134.5 0 -150.5 -183h-203q11 269 166 312t238 43q175 0 280.5 -83t105.5 -215t-61 -206t-182 -144l-142 -77q-95 -58 -131.5 -100.5t-40.5 -90.5h568v-174h-818q6 274 107.5 362.5t173.5 129.5l141 77q98 56 125 84.5t38 55t11 58.5t-11 58.5t-45.5 59.5
t-169 33z" />
    <glyph glyph-name="three.sc" horiz-adv-x="1032" 
d="M94 317h207q0 -137 83 -161.5t129 -24.5q94 0 152 43.5t58 127.5t-57 128.5t-150 44.5h-84v154h86q121 0 148.5 59.5t27.5 112.5t-48 93t-129 40t-134 -42t-53 -118h-191q0 145 104 230.5t275 85.5t275 -82.5t104 -212.5t-62.5 -176t-101.5 -58v-8q91 -27 150 -99
t59 -157q0 -159 -122 -240.5t-310 -81.5q-304 0 -360 127t-56 215z" />
    <glyph glyph-name="four.sc" horiz-adv-x="1032" 
d="M582 391v395l-312 -395h312zM55 221v139l561 705h183v-674h162v-170h-162v-221h-217v221h-527z" />
    <glyph glyph-name="five.sc" horiz-adv-x="1032" 
d="M344 610q86 76 229 76t252 -90t109 -259.5t-121.5 -265.5t-294.5 -96q-285 0 -349.5 118t-72.5 190h217q19 -100 87.5 -122t113.5 -22q93 0 149 54t56 143q0 134 -78 162t-119 28q-115 0 -188 -102l-205 20l35 621h704v-180h-516l-16 -275h8z" />
    <glyph glyph-name="six.sc" horiz-adv-x="1032" 
d="M336 330q0 -127 76.5 -156t142.5 -29t120 52t54 137t-54 135.5t-143 50.5t-142.5 -50.5t-53.5 -139.5zM317 578q69 108 275 108q57 0 123.5 -21.5t119 -64.5t81 -109.5t28.5 -193.5t-119.5 -224.5t-289.5 -97.5q-445 0 -445 539q0 298 127 437t315 139t282.5 -81
t111.5 -218h-211q-28 135 -177 135t-181.5 -125t-39.5 -223z" />
    <glyph glyph-name="seven.sc" horiz-adv-x="1032" 
d="M94 872v193h854v-129l-483 -936h-234l471 872h-608z" />
    <glyph glyph-name="eight.sc" horiz-adv-x="1032" 
d="M334 781q0 -36 13 -64.5t39 -48t58.5 -29.5t91.5 -10t110.5 39.5t51.5 113.5q0 108 -71.5 131t-110.5 23t-71.5 -10.5t-58.5 -31t-39 -49t-13 -64.5zM305 302q0 -40 15.5 -71.5t44 -54t67.5 -34t108.5 -11.5t128 46t58.5 126q0 79 -59 125.5t-177.5 46.5t-152 -66.5
t-33.5 -106.5zM133 800q0 54 26.5 110.5t77 96.5t122 61.5t202 21.5t234.5 -82.5t104 -221.5q0 -76 -42.5 -138t-119.5 -87v-8q91 -27 150 -99t59 -157q0 -86 -30.5 -144.5t-89 -98.5t-137.5 -59.5t-223.5 -19.5t-262 80.5t-117.5 226.5t81 201.5t128 69.5v8
q-112 36 -137 110.5t-25 128.5z" />
    <glyph glyph-name="nine.sc" horiz-adv-x="1032" 
d="M521.5 545q66.5 0 119.5 48t53 142q0 131 -76.5 158t-142 27t-117 -51.5t-51.5 -139.5q0 -131 74 -157.5t140.5 -26.5zM496 1090q444 0 444 -540q0 -299 -121 -437t-310 -138q-188 0 -287 81t-118 218h211q20 -92 80 -113.5t104 -21.5q91 0 148.5 77.5t65.5 270.5
q-69 -108 -275 -108q-138 0 -245 88t-107 257.5t119 267.5t291 98z" />
    <glyph glyph-name="slashedzero.sc" horiz-adv-x="1032" 
d="M512 147q213 0 213 385q0 155 -31 240l-278 -594q39 -31 96 -31zM307 532q0 -154 31 -239l278 594q-39 31 -100 31q-209 0 -209 -386zM516 -25q-115 0 -199 42t-137 118t-77.5 177.5t-24.5 220t24.5 220t77.5 177.5t137 118t199 42t199 -42t137 -118t77.5 -177.5
t24.5 -220t-24.5 -220t-77.5 -177.5t-137 -118t-199 -42z" />
    <glyph glyph-name="zero.scppf" horiz-adv-x="1087" 
d="M544 147q54 0 96 26t69.5 75t42 120.5t14.5 164t-14.5 164t-42 120.5t-68.5 75t-96.5 26t-97 -26t-69.5 -75t-42 -120.5t-14 -164t14 -164t42 -120.5t70 -75t96 -26zM545 -25q-117 0 -204 43t-141.5 119t-81 176.5t-26.5 219t26.5 219t81 176.5t141.5 119t204 43t203 -43
t140 -119t80.5 -177.5t26.5 -218t-26.5 -218t-80.5 -177.5t-140 -119t-203 -43z" />
    <glyph glyph-name="one.scppf" horiz-adv-x="690" 
d="M518 1065v-1065h-219v805l-195 -119l-86 154l353 225h147z" />
    <glyph glyph-name="two.scppf" horiz-adv-x="985" 
d="M684 767q0 32 -11 58.5t-35 47t-58.5 33t-105 12.5t-122 -47.5t-55.5 -135.5h-205q8 184 122 269.5t290 85.5t283.5 -84t107.5 -238t-93 -221.5t-155 -104.5l-141 -77q-102 -59 -137 -100t-39 -91h575v-174h-827q5 268 109 359.5t178 132.5l141 77q104 61 128.5 87
t37 52.5t12.5 58.5z" />
    <glyph glyph-name="three.scppf" horiz-adv-x="978" 
d="M55 317h209q0 -136 84 -161t157 -25t132 44t59 132q0 121 -83 144.5t-128 23.5h-86v154h88q79 0 130 43t51 131t-72 109.5t-114 21.5q-83 0 -136 -42.5t-53 -117.5h-193q0 146 105.5 231t280.5 85q174 0 279 -82.5t105 -213.5t-62.5 -176t-100.5 -57v-8q89 -27 148.5 -98
t59.5 -157q0 -161 -123.5 -242t-312.5 -81q-308 0 -366 127t-58 215z" />
    <glyph glyph-name="four.scppf" horiz-adv-x="995" 
d="M569 391v395l-313 -395h313zM41 221v139l563 705h184v-674h158v-170h-158v-221h-219v221h-528z" />
    <glyph glyph-name="five.scppf" horiz-adv-x="985" 
d="M330 610q76 76 226 76t258 -89.5t108 -259t-120.5 -266t-297.5 -96.5q-285 0 -349.5 118t-72.5 190h217q21 -101 90.5 -122.5t112.5 -21.5q85 0 145 52.5t60 142.5t-57.5 141t-139.5 51q-121 0 -191 -102l-204 20l35 621h706v-180h-518l-16 -275h8z" />
    <glyph glyph-name="six.scppf" horiz-adv-x="1036" 
d="M544 520q-94 0 -150 -51t-56 -139q0 -127 80 -156t147 -29t123.5 50.5t56.5 140.5q0 129 -78.5 156.5t-122.5 27.5zM319 578q69 108 283 108q60 0 128.5 -21.5t120.5 -64.5t81 -109.5t29 -193.5t-121.5 -224.5t-294.5 -97.5q-453 0 -453 533q0 307 129.5 444.5
t319.5 137.5t287 -81t114 -218h-211q-20 135 -177 135q-98 0 -159.5 -76.5t-75.5 -271.5z" />
    <glyph glyph-name="seven.scppf" horiz-adv-x="880" 
d="M51 872v193h791v-129l-484 -936h-227l465 872h-545z" />
    <glyph glyph-name="eight.scppf" horiz-adv-x="1009" 
d="M317 781q0 -36 14.5 -64.5t39 -48t58.5 -29.5t95 -10t114.5 40t53.5 111t-53.5 113.5t-113.5 42.5t-95 -10.5t-59.5 -31t-39 -49t-14.5 -64.5zM289 302q0 -40 15 -71.5t45 -54t69 -34t111.5 -11.5t132 47t59.5 126t-60.5 125t-156.5 46q-148 0 -181.5 -66.5t-33.5 -106.5
zM70 274q0 113 58.5 182.5t147.5 96.5v8q-72 23 -116.5 85.5t-44.5 134.5q0 73 27.5 129.5t78.5 96.5t123 61.5t205 21.5t239.5 -83t106.5 -212t-63.5 -175.5t-100.5 -58.5v-8q91 -27 150 -99t59 -157q0 -86 -31.5 -144.5t-90 -98.5t-138.5 -59.5t-176 -19.5t-176 19.5
t-137.5 59.5t-89 99t-31.5 121z" />
    <glyph glyph-name="nine.scppf" horiz-adv-x="1042" 
d="M501 545q90 0 147 50t57 140q0 128 -80 156.5t-124 28.5q-90 0 -147 -51t-57 -140q0 -129 80 -156.5t124 -27.5zM503 139q206 0 220 348q-30 -47 -104.5 -77.5t-156.5 -30.5q-81 0 -149.5 21.5t-121 64.5t-81 109.5t-28.5 194t121 224.5t297 97q450 0 450 -533
q0 -305 -122.5 -443.5t-314.5 -138.5t-293 80.5t-120 218.5h211q20 -91 83 -113t109 -22z" />
    <glyph glyph-name="slashedzero.scppf" horiz-adv-x="1087" 
d="M543 918q-108 0 -164.5 -99.5t-56.5 -270.5t38 -263l285 604q-49 29 -102 29zM682 199q84 52 84 320q0 170 -39 263l-287 -606q48 -29 103 -29t139 52zM545 -25q-117 0 -204 43t-141.5 119t-81 176.5t-26.5 219t26.5 219t81 176.5t141.5 119t204 43t203 -43t140 -119
t80.5 -177.5t26.5 -218t-26.5 -218t-80.5 -177.5t-140 -119t-203 -43z" />
    <glyph glyph-name="zero.TOSF" horiz-adv-x="1163" 
d="M305 500q0 -78 19.5 -141.5t56.5 -109.5t88 -69.5t143.5 -23.5t169 93t76.5 251q0 245 -107.5 294.5t-169 49.5t-112.5 -23.5t-88 -69.5t-56.5 -109.5t-19.5 -141.5zM216.5 877.5q138.5 146.5 367.5 146.5t365 -144t136 -377.5t-137.5 -380.5t-367.5 -147t-366 144.5
t-136 378t138.5 380z" />
    <glyph glyph-name="one.TOSF" horiz-adv-x="1163" 
d="M731 999v-821h342v-178h-932v178h373v557l-274 -190l-95 153l433 301h153z" />
    <glyph glyph-name="two.TOSF" horiz-adv-x="1163" 
d="M111 0q0 298 138 380.5t218 108.5l127 46q76 27 146.5 52t70.5 122q0 58 -53 102.5t-172 44.5q-181 0 -220.5 -81t-43.5 -134h-207q4 199 142 291t334 92t317.5 -83t121.5 -226q0 -194 -123 -246.5t-207 -81.5l-125 -43q-84 -27 -144 -71.5t-60 -96.5h663v-176h-923z" />
    <glyph glyph-name="three.TOSF" horiz-adv-x="1163" 
d="M78 16h217q0 -201 105.5 -236.5t194 -35.5t165 63t76.5 175t-78.5 178.5t-192.5 66.5h-108v183h108q99 0 165.5 62.5t66.5 162.5q0 147 -92.5 179t-140.5 32q-101 0 -165.5 -60.5t-64.5 -175.5h-201q0 191 121 302.5t314 111.5t316.5 -106.5t123.5 -274.5
q0 -99 -60.5 -190.5t-144.5 -124.5v-9q115 -33 186.5 -128.5t71.5 -205.5q0 -202 -139.5 -310.5t-360.5 -108.5t-352 112.5t-131 337.5z" />
    <glyph glyph-name="four.TOSF" horiz-adv-x="1163" 
d="M692 160v528l-409 -528h409zM57 -25v150l672 883h184v-848h193v-185h-193v-385h-221v385h-635z" />
    <glyph glyph-name="five.TOSF" horiz-adv-x="1163" 
d="M379 406q96 86 272 86t305 -121t129 -341t-141.5 -342t-353.5 -122q-211 0 -339 107.5t-145 293.5h222q21 -150 114 -185.5t150 -35.5t105 18.5t86 54.5t59.5 89t21.5 151t-75 175t-189 77t-167.5 -51t-78.5 -82l-202 17l43 804h811v-190h-613l-22 -403h8z" />
    <glyph glyph-name="six.TOSF" horiz-adv-x="1163" 
d="M791.5 232.5q76.5 76.5 76.5 204.5t-73 206t-186 78q-112 0 -191.5 -77.5t-79.5 -202.5t74 -205t188.5 -80t191 76.5zM641 901q201 0 325 -124t124 -337t-143.5 -339t-340.5 -126q-373 0 -448.5 254.5t-75.5 450.5q0 386 154.5 570t386.5 184q194 0 303.5 -99t130.5 -278
h-219q-27 196 -217 196q-123 0 -209.5 -122t-98.5 -396q41 75 134.5 120.5t193.5 45.5z" />
    <glyph glyph-name="seven.TOSF" horiz-adv-x="1163" 
d="M98 803v196h983v-145l-583 -1264h-230l574 1213h-744z" />
    <glyph glyph-name="eight.TOSF" horiz-adv-x="1163" 
d="M581.5 819q105.5 0 171.5 64t66 162t-68 157.5t-169.5 59.5t-169.5 -59t-68 -158q0 -98 66 -162t171.5 -64zM581.5 154q123.5 0 200 64t76.5 176q0 111 -79.5 177t-197 66t-197 -66t-79.5 -177t76.5 -175.5t200 -64.5zM80 364q0 142 71.5 237t186.5 128v8
q-86 28 -145.5 118.5t-59.5 185.5q0 94 32 164.5t91 121.5t142 79t234 28t274.5 -106t123.5 -277q0 -105 -58.5 -194t-146.5 -120v-8q115 -33 186.5 -128.5t71.5 -205.5t-35.5 -186t-103 -128t-160 -79t-203 -27t-202.5 27t-159.5 79t-103.5 128.5t-36 154.5z" />
    <glyph glyph-name="nine.TOSF" horiz-adv-x="1163" 
d="M747.5 358q77.5 79 77.5 200t-73 203.5t-185.5 82.5t-191 -76.5t-78.5 -204.5t72 -206t186 -78q115 0 192.5 79zM557 -254q206 0 246.5 188.5t44.5 329.5q-63 -117 -172.5 -141.5t-181.5 -24.5t-152 31t-174 123.5t-94 306.5t142 339.5t341 125.5q372 0 448 -254t76 -452
q0 -396 -142 -574t-384 -178q-391 0 -449 377h220q38 -197 231 -197z" />
    <glyph glyph-name="slashedzero.TOSF" horiz-adv-x="1163" 
d="M573 156q131 0 208 93t77 235q0 141 -47 223l-373 -510q65 -41 135 -41zM590 844q-134 0 -209.5 -93.5t-75.5 -236.5t47 -221l373 510q-66 41 -135 41zM216.5 877.5q138.5 146.5 367.5 146.5t365 -144t136 -377.5t-137.5 -380.5t-367.5 -147t-366 144.5t-136 378
t138.5 380z" />
    <glyph glyph-name="zero.oldstyle" horiz-adv-x="1222" 
d="M305 500q0 -156 86 -250t221 -94t220.5 96.5t85.5 252.5t-87.5 247.5t-220.5 91.5t-219 -94t-86 -250zM226 875.5q148 148.5 388 148.5t385.5 -145.5t145.5 -375.5t-148 -379t-390 -149t-385.5 147t-143.5 376t148 377.5z" />
    <glyph glyph-name="one.oldstyle" horiz-adv-x="747" 
d="M580 999v-999h-222v725l-239 -162l-94 164l399 272h156z" />
    <glyph glyph-name="two.oldstyle" horiz-adv-x="1040" 
d="M76 0q0 295 133 377t213 112l113 46q102 36 150 69t48 105q0 98 -72.5 122.5t-128.5 24.5q-111 0 -170 -55.5t-67 -159.5h-207q4 198 134.5 290.5t316.5 92.5t299.5 -86t113.5 -229q0 -188 -114.5 -239.5t-194.5 -82.5l-115 -43q-192 -75 -192 -168h614v-176h-874z" />
    <glyph glyph-name="three.oldstyle" horiz-adv-x="1107" 
d="M41 16h215q0 -130 76.5 -201t201.5 -71t202 65.5t77 175.5t-78.5 176t-199.5 66h-105v183h105q100 0 167.5 62t67.5 161t-67 156t-168 57q-166 0 -201 -88t-35 -148h-203q0 191 121 302.5t320 111.5t321.5 -106.5t122.5 -274.5q0 -98 -61 -192.5t-148 -122.5v-9
q116 -28 190 -122t74 -205q0 -206 -142 -316t-365 -110t-355.5 114t-132.5 336z" />
    <glyph glyph-name="four.oldstyle" horiz-adv-x="1130" 
d="M686 160v514l-410 -514h410zM43 -25v150l686 883h180v-848h199v-185h-199v-385h-223v385h-643z" />
    <glyph glyph-name="five.oldstyle" horiz-adv-x="1067" 
d="M340 401q91 91 264 91t301.5 -119.5t128.5 -338.5t-141 -343.5t-351 -124.5t-336.5 108t-142.5 293h220q13 -92 79.5 -156.5t180.5 -64.5q113 0 190.5 75.5t77.5 205.5t-75.5 207t-170.5 77q-94 0 -148 -33t-106 -98l-198 13l45 806h794v-190h-598l-22 -408h8z" />
    <glyph glyph-name="six.oldstyle" horiz-adv-x="1169" 
d="M413 235q73 -79 191 -79t192 76t74 205t-74.5 206.5t-189.5 77.5t-190.5 -77.5t-75.5 -203.5t73 -205zM608 -25q-522 1 -522 699q0 385 145 572.5t383 187.5q201 0 312.5 -101.5t132.5 -279.5h-217q-28 200 -229 200t-247.5 -187t-50.5 -331q40 74 128 120t192 46
q203 0 330 -123t127 -336q0 -214 -141 -340.5t-343 -126.5z" />
    <glyph glyph-name="seven.oldstyle" horiz-adv-x="972" 
d="M33 803v196h907v-145l-584 -1264h-229l573 1213h-667z" />
    <glyph glyph-name="eight.oldstyle" horiz-adv-x="1153" 
d="M577.5 819q51.5 0 94.5 16.5t75.5 46t51 71.5t18.5 91.5t-18.5 89.5t-51 68.5t-75.5 44t-94.5 15.5t-95.5 -15.5t-76.5 -44t-51 -68.5t-18.5 -89.5t18.5 -91.5t51 -71.5t76.5 -46t95.5 -16.5zM784.5 219.5q77.5 65.5 77.5 174.5q0 110 -82 176.5t-204 66.5
q-121 0 -203 -66.5t-82 -176.5t77.5 -175t208 -65t208 65.5zM68 365q0 141 75 238.5t189 125.5v8q-89 29 -149 117.5t-60 184.5t32.5 166.5t93 121.5t144.5 79t235.5 28t276.5 -105.5t125 -277.5q0 -105 -58.5 -193.5t-150.5 -120.5v-8q114 -29 189 -126t75 -208
q0 -208 -138.5 -314t-370.5 -106t-334.5 79t-138 155t-35.5 156z" />
    <glyph glyph-name="nine.oldstyle" horiz-adv-x="1157" 
d="M738 358q73 79 73 204t-74 203.5t-191 78.5t-191 -76t-74 -204t75 -206.5t192 -78.5t190 79zM834 264q-90 -166 -346 -166q-74 0 -156 31t-177.5 121t-95.5 306t140.5 342t343.5 126q522 0 522 -684q0 -406 -141 -590t-387 -184q-202 0 -319.5 106t-125.5 275h217
q13 -139 94.5 -170t140.5 -31q129 0 204.5 118.5t85.5 399.5z" />
    <glyph glyph-name="slashedzero.oldstyle" horiz-adv-x="1222" 
d="M606 156q140 0 226 96.5t86 240.5t-66 230l-389 -530q73 -37 143 -37zM624 844q-147 0 -233 -94t-86 -250q0 -135 66 -224l389 531q-59 37 -136 37zM226 875.5q148 148.5 388 148.5t385.5 -145.5t145.5 -375.5t-148 -379t-390 -149t-385.5 147t-143.5 376t148 377.5z" />
    <glyph glyph-name="percent.sc" horiz-adv-x="1228" 
d="M854 267q0 -167 97.5 -167t97.5 167t-97.5 167t-97.5 -167zM951 -12q-60 0 -105 20.5t-75 57t-44 88t-14 146.5t60.5 170t176.5 75q178 0 209 -107.5t31 -169.5t-14.5 -114t-44 -88.5t-75 -57t-105.5 -20.5zM250 -18l608 1101h123l-610 -1101h-121zM180 800
q0 -167 97.5 -167t97.5 167t-97.5 167t-97.5 -167zM250 520q-90 0 -150.5 75.5t-60.5 203.5q0 197 89 237.5t179 40.5t150.5 -75t60.5 -203q0 -198 -89 -238.5t-179 -40.5z" />
    <glyph glyph-name="perthousand.sc" horiz-adv-x="1808" 
d="M1434 267q0 -167 97 -167t97 167t-97 167t-97 -167zM1503 -12q-90 0 -150.5 75t-60.5 203q0 198 89 238.5t179 40.5t151 -75.5t61 -203.5q0 -196 -89.5 -237t-179.5 -41zM854 267q0 -167 97.5 -167t97.5 167t-97.5 167t-97.5 -167zM951 -12q-60 0 -105 20.5t-75 57
t-44 88t-14 146.5t60.5 170t176.5 75q178 0 209 -107.5t31 -169.5t-14.5 -114t-44 -88.5t-75 -57t-105.5 -20.5zM250 -18l608 1101h123l-610 -1101h-121zM180 800q0 -167 97.5 -167t97.5 167t-97.5 167t-97.5 -167zM250 520q-90 0 -150.5 75.5t-60.5 203.5q0 197 89 237.5
t179 40.5t150.5 -75t60.5 -203q0 -198 -89 -238.5t-179 -40.5z" />
    <glyph glyph-name="a.inferior" horiz-adv-x="811" 
d="M258 -110q0 -43 29.5 -67t70.5 -24q78 0 123 41t49 121v68q-14 -21 -34.5 -25t-32.5 -6l-103 -12q-102 -16 -102 -96zM72 -81.5q0 138.5 235 169.5l133 16q57 8 73.5 20.5t16.5 38.5q0 52 -30.5 82.5t-89.5 30.5q-122 0 -134 -112h-174q12 182 129 214t185 32
q142 0 221.5 -65.5t79.5 -194.5v-461h-180v84h-7q-57 -101 -223 -101q-109 0 -172 54t-63 192.5z" />
    <glyph glyph-name="b.inferior" horiz-adv-x="890" 
d="M287 41q0 -102 47.5 -162.5t147.5 -60.5t126.5 89t26.5 139t-12.5 91t-35 70t-54 43t-91 14t-107.5 -59t-48 -154v-10zM279 -203v-108h-179v1056h187v-156q0 -156 -8 -304h8q57 127 235 127q132 0 218.5 -96t86.5 -269.5t-93 -274t-226 -100.5q-168 0 -221 125h-8z" />
    <glyph glyph-name="c.inferior" horiz-adv-x="817" 
d="M762 -66q-8 -113 -99.5 -187.5t-249.5 -74.5t-254 104t-96 265t101 266t259 105t244.5 -76.5t94.5 -188.5h-184q-20 115 -146 115q-79 0 -127.5 -63t-48.5 -158t44.5 -158t125.5 -63q126 0 152 114h184z" />
    <glyph glyph-name="d.inferior" horiz-adv-x="888" 
d="M556 -122q48 60 48 163v10q-4 96 -51.5 154.5t-122.5 58.5q-76 0 -125 -61.5t-49 -164.5t47.5 -161.5t126 -58.5t126.5 60zM371 -328q-131 0 -219.5 96t-88.5 268t95.5 274t222.5 102q128 0 168.5 -47.5t56.5 -79.5h6q-8 148 -8 155v305h187v-1056h-179v108h-6
q-53 -125 -235 -125z" />
    <glyph glyph-name="e.inferior" horiz-adv-x="835" 
d="M578 123q-24 145 -152 145q-70 0 -112 -38t-54 -107h318zM428 -326q-257 0 -311 140.5t-54 224.5q0 167 102 269t260 102t252.5 -94.5t94.5 -260.5v-49h-518q16 -190 180 -190q116 0 148 86h176q-16 -97 -104.5 -162.5t-225.5 -65.5z" />
    <glyph glyph-name="f.inferior" horiz-adv-x="522" 
d="M154 -311v555h-136v149h136v84q0 209 96 238.5t168 29.5h110v-155h-79q-61 0 -84 -25t-23 -90v-82h162v-149h-162v-555h-188z" />
    <glyph glyph-name="g.inferior" horiz-adv-x="890" 
d="M556 -122q48 60 48 163v10q-4 96 -51.5 154.5t-122.5 58.5q-76 0 -125 -61.5t-49 -164.5t47.5 -161.5t126 -58.5t126.5 60zM262 -397q8 -107 165 -107q185 0 185 240v61h-6q-53 -125 -235 -125q-131 0 -219.5 96t-88.5 268t95.5 274t222.5 102q128 0 168.5 -47.5
t56.5 -79.5h6v108h179v-659q0 -293 -143.5 -334t-223.5 -41q-153 0 -243.5 61t-94.5 183h176z" />
    <glyph glyph-name="h.inferior" horiz-adv-x="858" 
d="M580 90q0 170 -138 170q-109 0 -132 -77t-23 -124v-370h-187v1056h187v-154q0 -154 -8 -302h8q52 123 226 123t213.5 -102.5t39.5 -176.5v-444h-186v401z" />
    <glyph glyph-name="i.inferior" horiz-adv-x="374" 
d="M94 -311v704h187v-704h-187zM88 563v182h199v-182h-199z" />
    <glyph glyph-name="j.inferior" horiz-adv-x="374" 
d="M94 -367v760h187v-768q0 -130 -53 -192t-191 -62h-66v156h41q48 0 65 25.5t17 80.5zM88 563v182h199v-182h-199z" />
    <glyph glyph-name="k.inferior" horiz-adv-x="792" 
d="M100 -311v1056h189v-636l258 284h211l-262 -280l288 -424h-215l-196 291l-84 -91v-200h-189z" />
    <glyph glyph-name="l.inferior" horiz-adv-x="389" 
d="M100 -311v1056h187v-1056h-187z" />
    <glyph glyph-name="m.inferior" horiz-adv-x="1300" 
d="M561 98q0 162 -94 162t-137 -50t-43 -149v-372h-187v704h179v-104h8q52 123 213 123q118 0 163.5 -51.5t59.5 -88.5q65 140 237 140q173 0 210.5 -99.5t37.5 -171.5v-452h-186v411q0 124 -47 142t-79 18q-69 0 -108.5 -52.5t-39.5 -146.5v-372h-187v409z" />
    <glyph glyph-name="n.inferior" horiz-adv-x="858" 
d="M580 90q0 170 -102 170t-146.5 -50.5t-44.5 -148.5v-372h-187v704h179v-104h8q52 123 226 123t213.5 -102.5t39.5 -176.5v-444h-186v401z" />
    <glyph glyph-name="o.inferior" horiz-adv-x="868" 
d="M256 42q0 -50 12.5 -91t36 -71t56 -46t94 -16t109.5 61.5t48 161.5q0 159 -68.5 191t-109.5 32t-73.5 -15.5t-56 -45t-36 -70.5t-12.5 -91zM165 310q102 102 271 102t269 -101t100 -270.5t-103 -269t-271 -99.5t-268 100t-100 268t102 270z" />
    <glyph glyph-name="p.inferior" horiz-adv-x="890" 
d="M635 46q0 50 -12.5 91t-35 70t-54 43t-91 14t-107.5 -59t-48 -154v-10q0 -102 47.5 -162.5t147.5 -60.5t126.5 89t26.5 139zM287 285q54 127 245 127q122 0 208.5 -96t86.5 -269.5t-93 -274t-226 -100.5q-168 0 -221 125h-8q8 -148 8 -155v-271h-187v1022h179v-108h8z
" />
    <glyph glyph-name="q.inferior" horiz-adv-x="890" 
d="M256 36q0 -50 12.5 -91t36 -70t55 -43t70.5 -14t70.5 15t55.5 45t36 71t12 92t-12 92t-36 70.5t-55.5 45t-70.5 15.5t-70.5 -16.5t-55 -46t-36 -72.5t-12.5 -93zM381 412q169 0 225 -127h6v108h179v-1022h-187v139q0 139 8 287h-6q-53 -125 -235 -125q-131 0 -219.5 96
t-88.5 268t94 274t224 102z" />
    <glyph glyph-name="r.inferior" horiz-adv-x="579" 
d="M444 236q-76 0 -115.5 -66.5t-39.5 -171.5v-309h-189v704h181v-133h6q55 152 184 152q52 0 98 -31l-37 -170q-50 25 -88 25z" />
    <glyph glyph-name="s.inferior" horiz-adv-x="776" 
d="M388 -203q98 0 118 31t20 60t-25.5 43.5t-84.5 27.5l-123 25q-217 34 -217 204q0 107 86 165.5t223 58.5t221 -56.5t92 -162.5h-174q-7 92 -131 92q-95 0 -114 -29t-19 -56t26.5 -42.5t82.5 -26.5l125 -25q111 -22 165 -64.5t54 -146.5t-89.5 -163.5t-273.5 -59.5
t-234.5 86.5t-54.5 145.5h175q8 -107 152 -107z" />
    <glyph glyph-name="t.inferior" horiz-adv-x="534" 
d="M143 -70v314h-127v149h127v213h189v-213h168v-149h-168v-293q0 -58 19.5 -81.5t70.5 -23.5h78v-157h-101q-144 0 -200 55.5t-56 185.5z" />
    <glyph glyph-name="u.inferior" horiz-adv-x="858" 
d="M92 -51v444h187v-401q0 -170 137 -170q106 0 130.5 76.5t24.5 126.5v368h187v-704h-178v104h-7q-51 -121 -227 -121t-215 101.5t-39 175.5z" />
    <glyph glyph-name="v.inferior" horiz-adv-x="759" 
d="M272 -311l-264 704h209l170 -518l172 518h193l-254 -704h-226z" />
    <glyph glyph-name="w.inferior" horiz-adv-x="1128" 
d="M217 -311l-209 704h189l139 -522l137 522h186l138 -526l141 526h182l-211 -704h-209l-137 504l-137 -504h-209z" />
    <glyph glyph-name="x.inferior" horiz-adv-x="716" 
d="M8 -311l252 350l-246 354h211l137 -209l142 209h201l-250 -346l254 -358h-211l-144 217l-147 -217h-199z" />
    <glyph glyph-name="y.inferior" horiz-adv-x="759" 
d="M96 -629v156h43q67 0 107 28.5t63 90.5l15 43h-54l-262 704h209l168 -518l174 518h193l-281 -784q-84 -238 -291 -238h-84z" />
    <glyph glyph-name="z.inferior" horiz-adv-x="696" 
d="M49 242v151h592v-117l-344 -436h350v-151h-596v110l348 443h-350z" />
    <glyph glyph-name="dollar.inferior" 
d="M369 -207q127 0 127 72t-52.5 85t-87.5 19l-43 8q-117 22 -179 64t-62 143q0 135 86 173t139 46v113h141v-113q93 -12 153 -66.5t64 -129.5h-174q-5 55 -47 67.5t-66 12.5t-46.5 -5.5t-39 -15.5t-25.5 -26.5t-9 -45t32.5 -46t114.5 -35.5l43 -9q168 -27 201 -90t33 -113
q0 -97 -60.5 -154t-173.5 -71v-127h-141v127q-110 12 -175 70.5t-65 147.5h168q6 -71 60.5 -86t83.5 -15z" />
    <glyph glyph-name="cent.inferior" 
d="M381 -102q85 0 106 75h179q-14 -115 -89 -152.5t-124 -45.5v-103h-144v103q-111 16 -175 86t-64 205.5t91 181t148 53.5v109h144v-109q145 -24 177 -94t36 -103h-179q-22 76 -106 76q-127 0 -127 -141t127 -141z" />
    <glyph glyph-name="euro.inferior" 
d="M700 -106q-46 -222 -282 -222q-133 0 -210.5 74t-98.5 201h-86l16 63h63v62h-57l16 63h48q32 196 138.5 235.5t172.5 39.5q233 0 280 -228h-174q-20 90 -104 90q-104 0 -127 -137h201l-17 -63h-190v-62h170l-17 -63h-147q18 -107 59 -122t68 -15q77 0 104 84h174z" />
    <glyph glyph-name="plus.inferior" 
d="M90 -25v140h205v204h145v-204h205v-140h-205v-204h-145v204h-205z" />
    <glyph glyph-name="minus.inferior" 
d="M90 -25v140h555v-140h-555z" />
    <glyph glyph-name="equal.inferior" 
d="M90 -152v138h555v-138h-555zM90 102v140h555v-140h-555z" />
    <glyph glyph-name="comma.inferior" horiz-adv-x="395" 
d="M102 -311v200h191v-192l-60 -246h-96l47 238h-82z" />
    <glyph glyph-name="period.inferior" horiz-adv-x="395" 
d="M102 -311v200h191v-200h-191z" />
    <glyph glyph-name="hyphen.inferior" horiz-adv-x="577" 
d="M72 -31v152h432v-152h-432z" />
    <glyph glyph-name="parenleft.inferior" horiz-adv-x="471" 
d="M173 325q50 140 114 216h168q-105 -136 -134.5 -280t-29.5 -253.5t51 -248t113 -218.5h-168q-106 127 -135 275.5t-29 258.5t50 250z" />
    <glyph glyph-name="parenright.inferior" horiz-adv-x="471" 
d="M180 76.5q0 111.5 -51.5 248.5t-112.5 216h168q106 -127 135 -275.5t29 -258.5t-50 -250t-114 -216h-168q107 139 135.5 281.5t28.5 254z" />
    <glyph glyph-name="a.denominator" horiz-adv-x="811" 
d="M258 202q0 -43 29 -67t71 -24q164 0 172 161v68q-14 -21 -34.5 -25t-32.5 -6l-103 -12q-102 -15 -102 -95zM307 -16q-111 0 -173 54t-62 192t235 169l133 17q59 8 74.5 20t15.5 38q0 53 -31.5 83.5t-88.5 30.5q-122 0 -134 -113h-174q12 182 129 214t185 32
q141 0 221 -64.5t80 -195.5v-461h-180v84h-7q-56 -100 -223 -100z" />
    <glyph glyph-name="b.denominator" horiz-adv-x="890" 
d="M287 352q0 -159 68.5 -191t127 -32t105.5 64t47 164t-46 159t-146.5 59t-128 -81.5t-27.5 -131.5v-10zM508 -16q-168 0 -221 125h-8v-109h-179v1057h187v-157q0 -156 -8 -304h8q57 127 235 127q131 0 218 -95t87 -270t-93.5 -274.5t-225.5 -99.5z" />
    <glyph glyph-name="c.denominator" horiz-adv-x="817" 
d="M63 392q0 120 100 225.5t259 105.5t245.5 -76.5t94.5 -187.5h-184q-20 114 -146 114q-80 0 -128 -63t-48 -158t44.5 -158t125.5 -63q127 0 152 115h184q-9 -114 -100.5 -188t-235.5 -74q-256 0 -309.5 144t-53.5 264z" />
    <glyph glyph-name="d.denominator" horiz-adv-x="888" 
d="M256 347q0 -156 67.5 -187t125.5 -31t106.5 59.5t48.5 163.5v10q-4 96 -51.5 154.5t-123.5 58.5t-124.5 -62t-48.5 -166zM371 -16q-130 0 -219 95t-89 268q0 172 94.5 274t225.5 102q161 0 223 -127h6q-8 148 -8 156v305h187v-1057h-179v109h-6q-53 -125 -235 -125z" />
    <glyph glyph-name="e.denominator" horiz-adv-x="835" 
d="M578 434q-24 146 -152 146q-101 0 -130.5 -55.5t-35.5 -90.5h318zM63 350q0 166 101 268.5t261 102.5q159 0 253 -94t94 -260v-50h-518q16 -190 180 -190q97 0 119 34t29 52h176q-16 -97 -104 -162t-226 -65q-257 0 -311 140t-54 224z" />
    <glyph glyph-name="f.denominator" horiz-adv-x="522" 
d="M154 0v555h-136v150h136v83q0 208 96 238.5t168 30.5h110v-156h-79q-61 0 -84 -25t-23 -90v-81h162v-150h-162v-555h-188z" />
    <glyph glyph-name="g.denominator" horiz-adv-x="890" 
d="M256 347q0 -156 67.5 -187t125.5 -31t106.5 59.5t48.5 163.5v10q-4 96 -51.5 154.5t-123.5 58.5t-124.5 -62t-48.5 -166zM262 -86q8 -107 165 -107q185 0 185 240v62h-6q-53 -125 -235 -125q-130 0 -219 95t-89 268q0 172 94.5 274t225.5 102q161 0 223 -127h6v109h179
v-660q0 -293 -143.5 -334t-223.5 -41q-153 0 -243.5 61t-94.5 183h176z" />
    <glyph glyph-name="h.denominator" horiz-adv-x="858" 
d="M580 401q0 170 -138 170q-110 0 -132.5 -76.5t-22.5 -123.5v-371h-187v1057h187v-155q0 -154 -8 -302h8q52 123 226 123t213.5 -102.5t39.5 -176.5v-444h-186v401z" />
    <glyph glyph-name="i.denominator" horiz-adv-x="374" 
d="M94 0v705h187v-705h-187zM88 874v183h199v-183h-199z" />
    <glyph glyph-name="j.denominator" horiz-adv-x="374" 
d="M94 -55v760h187v-768q0 -131 -52.5 -192.5t-191.5 -61.5h-66v155h41q48 0 65 25.5t17 81.5zM88 874v183h199v-183h-199z" />
    <glyph glyph-name="k.denominator" horiz-adv-x="792" 
d="M100 0v1057h189v-637l258 285h211l-262 -281l288 -424h-215l-196 291l-84 -90v-201h-189z" />
    <glyph glyph-name="l.denominator" horiz-adv-x="389" 
d="M100 0v1057h187v-1057h-187z" />
    <glyph glyph-name="m.denominator" horiz-adv-x="1300" 
d="M561 410q0 161 -94 161t-137 -49t-43 -149v-373h-187v705h179v-105h8q52 123 213 123q119 0 164 -51t59 -88q64 139 238 139q173 0 210 -99.5t37 -170.5v-453h-186v412q0 123 -47 141t-79 18q-69 0 -108.5 -52t-39.5 -146v-373h-187v410z" />
    <glyph glyph-name="n.denominator" horiz-adv-x="858" 
d="M580 401q0 170 -102.5 170t-146.5 -50t-44 -148v-373h-187v705h179v-105h8q52 123 226 123t213.5 -102.5t39.5 -176.5v-444h-186v401z" />
    <glyph glyph-name="o.denominator" horiz-adv-x="868" 
d="M256 353q0 -50 12.5 -91t36 -70.5t56 -46t93.5 -16.5t109.5 61t48.5 163t-47 162t-152 60t-131 -86t-26 -136zM164 620.5q101 102.5 272 102.5t270 -101t99 -270.5t-102.5 -268.5t-271.5 -99t-268.5 99.5t-99.5 267t101 270z" />
    <glyph glyph-name="p.denominator" horiz-adv-x="890" 
d="M635 357q0 50 -12.5 91t-35 70t-54 43t-91 14t-107.5 -59t-48 -154v-10q0 -159 68.5 -191t107.5 -32t70.5 16.5t54 47t35 72.5t12.5 92zM287 -46v-271h-187v1022h179v-109h8q54 127 235 127q131 0 218 -95t87 -270t-93.5 -274.5t-225.5 -99.5q-168 0 -221 125h-8
q8 -148 8 -155z" />
    <glyph glyph-name="q.denominator" horiz-adv-x="890" 
d="M256 347q0 -50 12.5 -91t36 -69.5t55 -43t70.5 -14.5t70.5 15.5t55.5 45t36 70.5t12 92t-12 92t-36 71t-55.5 45t-70.5 15t-70.5 -16t-55 -46t-36 -73t-12.5 -93zM381 723q171 0 225 -127h6v109h179v-1022h-187v139q0 139 8 287h-6q-53 -125 -235 -125q-130 0 -219 95
t-89 267t93 274.5t225 102.5z" />
    <glyph glyph-name="r.denominator" horiz-adv-x="579" 
d="M100 0v705h181v-134h6q55 152 184 152q52 0 98 -31l-37 -170l-25 12q-25 13 -63 13q-76 0 -115.5 -66.5t-39.5 -171.5v-309h-189z" />
    <glyph glyph-name="s.denominator" horiz-adv-x="776" 
d="M370 109q156 0 156 60t-25.5 74t-84.5 27l-123 25q-217 34 -217 205q0 106 86 164.5t223 58.5t221 -56.5t92 -162.5h-174q-7 92 -131 92q-94 0 -113.5 -28.5t-19.5 -56t24 -41.5t85 -28l125 -24q109 -21 164 -64.5t55 -147.5q0 -103 -88.5 -162.5t-273 -59.5t-235.5 86
t-55 145h175q4 -52 44 -79t90 -27z" />
    <glyph glyph-name="t.denominator" horiz-adv-x="534" 
d="M143 242v313h-127v150h127v213h189v-213h168v-150h-168v-293q0 -57 19 -80.5t71 -23.5h78v-158h-101q-142 0 -199 55t-57 187z" />
    <glyph glyph-name="u.denominator" horiz-adv-x="858" 
d="M92 260v445h187v-402q0 -170 137 -170q106 0 130.5 77t24.5 126v369h187v-705h-178v104h-7q-51 -120 -227 -120t-215 101t-39 175z" />
    <glyph glyph-name="v.denominator" horiz-adv-x="759" 
d="M272 0l-264 705h209l170 -519l172 519h193l-254 -705h-226z" />
    <glyph glyph-name="w.denominator" horiz-adv-x="1128" 
d="M217 0l-209 705h189l139 -523l137 523h186l138 -527l141 527h182l-211 -705h-209l-137 504l-137 -504h-209z" />
    <glyph glyph-name="x.denominator" horiz-adv-x="716" 
d="M8 0l252 350l-246 355h211l137 -209l142 209h201l-250 -347l254 -358h-211l-144 217l-147 -217h-199z" />
    <glyph glyph-name="y.denominator" horiz-adv-x="759" 
d="M96 -317v155h43q67 0 107 28.5t63 90.5l15 43h-54l-262 705h209l168 -519l174 519h193l-281 -785q-84 -237 -291 -237h-84z" />
    <glyph glyph-name="z.denominator" horiz-adv-x="696" 
d="M49 553v152h592v-117l-344 -436h350v-152h-596v111l348 442h-350z" />
    <glyph glyph-name="zero.denominator" 
d="M506 352.5q0 229.5 -119.5 229.5t-138.5 -87t-19 -142.5t9.5 -98.5t27 -71.5t44 -44t111.5 -15.5t85 229.5zM369 -16q-80 0 -140.5 27.5t-99.5 77.5t-58.5 116.5t-19.5 146.5t19.5 146.5t58.5 117t99.5 78t140.5 27.5t139 -27.5t98 -78t58.5 -117t19.5 -146.5
t-19.5 -146.5t-58.5 -116.5t-98 -77.5t-139 -27.5z" />
    <glyph glyph-name="one.denominator" 
d="M487 705v-562h189v-143h-572v143h201v349l-151 -89l-74 125l297 177h110z" />
    <glyph glyph-name="two.denominator" 
d="M371 586q-121 0 -129 -121h-172q4 129 89 192.5t213 63.5t209 -57.5t81 -168.5t-85 -159.5t-139 -73.5l-43 -20q-73 -32 -97 -60t-24 -39h385v-143h-598q0 204 93.5 268t144.5 88l43 21q106 49 123.5 77t17.5 46q0 41 -30 63.5t-82 22.5z" />
    <glyph glyph-name="three.denominator" 
d="M70 215h170q0 -50 26.5 -72t50 -29.5t52 -7.5t52 6.5t41 18.5t27 30.5t9.5 56t-37 62.5t-96 25h-50v115h50q84 0 101 33t17 55t-8 39.5t-22.5 28t-36 16.5t-62 6t-70.5 -28t-30 -72h-168q0 105 79 164t207 59t205.5 -55t77.5 -144q0 -90 -45 -119.5t-71 -35.5v-7
q94 -18 116.5 -77.5t22.5 -101.5q0 -91 -80 -144t-229 -53q-216 0 -257.5 85t-41.5 146z" />
    <glyph glyph-name="four.denominator" 
d="M403 262v219l-174 -219h174zM45 125v106l385 476h154v-445h96v-137h-96v-125h-181v125h-358z" />
    <glyph glyph-name="five.denominator" 
d="M264 188q21 -84 105 -84t102 45.5t18 115t-124 69.5q-63 0 -97 -64l-168 15l27 420h500v-144h-346l-15 -160h8q43 54 142 54q178 0 215 -83.5t37 -143.5q0 -113 -80 -178.5t-207 -65.5q-204 0 -246.5 79.5t-46.5 124.5h176z" />
    <glyph glyph-name="six.denominator" 
d="M376 334q-24 0 -44.5 -6t-36.5 -19.5t-25.5 -35t-9.5 -50t9.5 -51t24.5 -38t36.5 -23t44 -7.5t44 7.5t37 23t24.5 38t9 51t-9 49t-24.5 35t-35.5 20.5t-44 6zM70 336q0 385 317 385q244 0 262 -207h-174q0 56 -34.5 69t-58.5 13q-55 0 -89.5 -43.5t-42.5 -163.5
q30 42 86.5 54t95.5 12q96 0 165 -56t69 -170t-80 -179.5t-205 -65.5q-311 0 -311 352z" />
    <glyph glyph-name="seven.denominator" 
d="M66 551v154h608v-111l-328 -594h-192l307 551h-395z" />
    <glyph glyph-name="eight.denominator" 
d="M254 508q0 -22 8 -37.5t22.5 -27t36 -17.5t60.5 -6t70.5 23.5t31.5 54.5q0 32 -8 48.5t-23.5 28t-36 17.5t-47 6t-48 -6t-36 -16.5t-22.5 -28t-8 -39.5zM240 204.5q0 -24.5 9 -43t26.5 -30.5t41 -18.5t52 -6.5t52 6.5t41 18.5t27 30.5t9.5 43t-9.5 44t-27 32t-41 18.5
t-52 6t-52 -6t-41 -18.5t-26.5 -32t-9 -44zM197 358v9q-53 12 -85 54t-32 93t19.5 88t57.5 63.5t92 41t152.5 14.5t176 -55t77.5 -144q0 -90 -45 -119.5t-71 -35.5v-9q96 -19 117.5 -78t21.5 -101t-20.5 -80t-60.5 -63.5t-97.5 -38.5t-131 -13t-131 13t-119 51t-61.5 122
q0 161 140 188z" />
    <glyph glyph-name="nine.denominator" 
d="M352.5 371q22.5 0 43 6t37 19.5t25.5 35t9 50t-9 51t-24.5 38t-37 22.5t-44 7t-43 -7t-37 -22.5t-25.5 -38t-9 -51t9 -49t25.5 -35t37 -20.5t43 -6zM657 369q0 -385 -301 -385q-131 0 -200.5 56.5t-77.5 149.5h174q0 -33 44 -66.5t109 -5t70 194.5q-17 -40 -75 -51.5
t-98 -11.5t-86 12t-81 40t-54.5 70t-19.5 127t82.5 153.5t204.5 68.5q309 0 309 -352z" />
    <glyph glyph-name="dollar.denominator" 
d="M379 598q-131 0 -131 -60.5t32.5 -78t114.5 -35.5l43 -8q234 -38 234 -204q0 -96 -60 -154t-174 -70v-127h-141v127q-110 12 -175 69.5t-65 147.5h168q6 -69 60.5 -85t83.5 -16q127 0 127 72t-52.5 85t-87.5 20l-43 8q-117 22 -179 64t-62 135q0 94 58.5 152.5
t166.5 74.5v112h141v-112q93 -12 153 -66.5t64 -130.5h-174q-4 37 -35.5 58.5t-66.5 21.5z" />
    <glyph glyph-name="cent.denominator" 
d="M381 209q86 0 106 76h179q-14 -116 -89 -153.5t-124 -45.5v-102h-144v102q-111 16 -175 86t-64 205.5t91 181t148 53.5v109h144v-109q145 -24 177 -93.5t36 -102.5h-179q-22 76 -106 76q-127 0 -127 -141.5t127 -141.5z" />
    <glyph glyph-name="euro.denominator" 
d="M422 121q77 0 104 84h174q-45 -221 -276 -221q-270 0 -315 274h-86l16 64h63v61h-57l16 63h48q32 196 138.5 235.5t172.5 39.5q233 0 280 -227h-174q-13 61 -47.5 75.5t-58.5 14.5q-101 0 -125 -138h201l-17 -63h-190v-61h170l-17 -64h-147q18 -107 59 -122t68 -15z" />
    <glyph glyph-name="plus.denominator" 
d="M90 287v139h205v205h145v-205h205v-139h-205v-205h-145v205h-205z" />
    <glyph glyph-name="minus.denominator" 
d="M90 287v139h555v-139h-555z" />
    <glyph glyph-name="equal.denominator" 
d="M90 160v137h555v-137h-555zM90 414v139h555v-139h-555z" />
    <glyph glyph-name="comma.denominator" horiz-adv-x="395" 
d="M102 0v201h191v-193l-60 -246h-96l47 238h-82z" />
    <glyph glyph-name="period.denominator" horiz-adv-x="395" 
d="M102 0v201h191v-201h-191z" />
    <glyph glyph-name="hyphen.denominator" horiz-adv-x="577" 
d="M72 281v151h432v-151h-432z" />
    <glyph glyph-name="parenleft.denominator" horiz-adv-x="471" 
d="M173 636q50 139 114 216h168q-105 -137 -134.5 -280.5t-29.5 -253t51.5 -249t112.5 -216.5h-168q-106 127 -135 275t-29 258.5t50 249.5z" />
    <glyph glyph-name="parenright.denominator" horiz-adv-x="471" 
d="M180 388q0 112 -51 248t-113 216h168q107 -127 135.5 -275.5t28.5 -258.5t-50.5 -251t-113.5 -214h-168q108 140 136 281.5t28 253.5z" />
    <glyph glyph-name="a.numerator" horiz-adv-x="811" 
d="M357 815q165 0 173 162v67q-13 -20 -34 -24t-33 -6l-103 -13q-102 -15 -102 -95q0 -42 28 -66.5t71 -24.5zM307 688q-109 0 -172 54t-63 192.5t235 169.5l133 16q57 8 73.5 20.5t16.5 38.5q0 52 -30.5 82.5t-89.5 30.5q-122 0 -134 -112h-174q8 123 93.5 184t214.5 61
q226 0 266.5 -97t40.5 -163v-460h-180v83h-7q-56 -100 -223 -100z" />
    <glyph glyph-name="b.numerator" horiz-adv-x="890" 
d="M287 1057q0 -102 47 -162.5t147.5 -60.5t127 89t26.5 139t-12.5 91t-35 69.5t-54 43t-90.5 14.5t-107.5 -59t-48.5 -154v-10zM508 688q-168 0 -221 125h-8v-108h-179v1056h187v-157q0 -156 -8 -304h8q57 127 235 127q131 0 218 -95t87 -269t-93 -274.5t-226 -100.5z" />
    <glyph glyph-name="c.numerator" horiz-adv-x="817" 
d="M426 836q126 0 152 114h184q-8 -113 -99.5 -187.5t-236.5 -74.5q-256 0 -309.5 144.5t-53.5 265t100.5 225t258.5 104.5t245 -75.5t95 -188.5h-184q-20 115 -146 115q-79 0 -127.5 -63t-48.5 -157t44 -158t126 -64z" />
    <glyph glyph-name="d.numerator" horiz-adv-x="888" 
d="M556 894q48 60 48 163v10q-4 97 -52 155t-123 58t-124 -61.5t-49 -164.5t47.5 -161.5t126 -58.5t126.5 60zM371 688q-130 0 -219 95t-89 268t95 274.5t225 101.5q161 0 223 -127h6q-8 148 -8 156v305h187v-1056h-179v108h-6q-53 -125 -235 -125z" />
    <glyph glyph-name="e.numerator" horiz-adv-x="835" 
d="M578 1139q-24 145 -152 145q-70 0 -112 -38t-54 -107h318zM434 831q97 0 119 34t29 53h176q-16 -99 -105 -163.5t-225 -64.5q-257 0 -311 140.5t-54 224.5q0 167 101.5 268.5t260.5 101.5t253 -94t94 -260v-49h-518q16 -191 180 -191z" />
    <glyph glyph-name="f.numerator" horiz-adv-x="522" 
d="M154 705v555h-136v149h136v84q0 209 96 238.5t168 29.5h110v-155h-79q-60 0 -83.5 -24.5t-23.5 -90.5v-82h162v-149h-162v-555h-188z" />
    <glyph glyph-name="g.numerator" horiz-adv-x="890" 
d="M556 894q48 60 48 163v10q-4 97 -52 155t-123 58t-124 -61.5t-49 -164.5t47.5 -161.5t126 -58.5t126.5 60zM383 1427q161 0 223 -127h6v109h179v-659q0 -293 -143.5 -334t-223.5 -41q-153 0 -243.5 61t-94.5 182h176q8 -106 158 -106q192 0 192 240v61h-6
q-53 -125 -235 -125q-130 0 -219 95t-89 268t95 274.5t225 101.5z" />
    <glyph glyph-name="h.numerator" horiz-adv-x="858" 
d="M580 1106q0 170 -138 170q-109 0 -132 -77t-23 -124v-370h-187v1056h187v-156q0 -156 -8 -300h8q52 122 226 122t213.5 -102t39.5 -176v-444h-186v401z" />
    <glyph glyph-name="i.numerator" horiz-adv-x="374" 
d="M94 705v704h187v-704h-187zM88 1579v182h199v-182h-199z" />
    <glyph glyph-name="j.numerator" horiz-adv-x="374" 
d="M94 649v760h187v-768q0 -132 -53.5 -193t-190.5 -61h-66v156h41q48 0 65 25.5t17 80.5zM88 1579v182h199v-182h-199z" />
    <glyph glyph-name="k.numerator" horiz-adv-x="792" 
d="M100 705v1056h189v-637l258 285h211l-262 -281l288 -423h-215l-196 290l-84 -90v-200h-189z" />
    <glyph glyph-name="l.numerator" horiz-adv-x="389" 
d="M100 705v1056h187v-1056h-187z" />
    <glyph glyph-name="m.numerator" horiz-adv-x="1300" 
d="M479 1427q191 0 244 -139q64 139 237 139t210.5 -99t37.5 -171v-452h-186v411q0 160 -125 160q-105 0 -127 -76t-22 -123v-372h-187v409q0 162 -93.5 162t-137 -49.5t-43.5 -149.5v-372h-187v704h179v-104h8q25 58 79.5 90t112.5 32z" />
    <glyph glyph-name="n.numerator" horiz-adv-x="858" 
d="M580 1106q0 170 -102 170t-146.5 -50.5t-44.5 -148.5v-372h-187v704h179v-104h8q52 122 226 122t213.5 -102t39.5 -176v-444h-186v401z" />
    <glyph glyph-name="o.numerator" horiz-adv-x="868" 
d="M256 1058q0 -50 12.5 -91t36 -71t56 -46t94 -16t109.5 61.5t48 161.5q0 159 -68.5 191t-109.5 32t-73.5 -15.5t-56 -45t-36 -70.5t-12.5 -91zM164.5 1325.5q101.5 101.5 271.5 101.5t269.5 -100.5t99.5 -269.5t-102 -269t-272 -100t-269 100.5t-99 268t101.5 269z" />
    <glyph glyph-name="p.numerator" horiz-adv-x="890" 
d="M635 1062q0 50 -12.5 91t-35 69.5t-54 43t-90.5 14.5t-107.5 -59t-48.5 -154v-10q0 -102 47 -162.5t147.5 -60.5t127 89t26.5 139zM287 658v-271h-187v1022h179v-109h8q54 127 235 127q131 0 218 -95t87 -269t-93 -274.5t-226 -100.5q-168 0 -221 125h-8q8 -148 8 -155z
" />
    <glyph glyph-name="q.numerator" horiz-adv-x="890" 
d="M256 1052q0 -50 12.5 -91t36 -70t55 -43t70.5 -14t70.5 15t55.5 45t36 71t12 92t-12 92t-36 70.5t-55.5 45t-70.5 15.5t-70.5 -16.5t-55 -46t-36 -72.5t-12.5 -93zM381 1427q171 0 225 -127h6v109h179v-1022h-187v139q0 139 8 287h-6q-53 -125 -235 -125q-130 0 -219 95
t-89 268q0 172 93.5 274t224.5 102z" />
    <glyph glyph-name="r.numerator" horiz-adv-x="579" 
d="M444 1251q-76 0 -115.5 -66t-39.5 -171v-309h-189v704h181v-133h6q55 151 184 151q53 0 98 -30l-37 -170q-48 24 -88 24z" />
    <glyph glyph-name="s.numerator" horiz-adv-x="776" 
d="M370 813q156 0 156 60t-27 75t-83 27l-123 24q-217 34 -217 205q0 106 85 164.5t228 58.5q209 0 257 -82.5t52 -136.5h-174q-7 92 -136 92q-128 0 -128 -55t24.5 -70.5t84.5 -27.5l125 -25q109 -21 164 -64.5t55 -147.5t-89.5 -163t-273.5 -59t-234.5 86.5t-54.5 145.5
h175q4 -51 44 -79t90 -28z" />
    <glyph glyph-name="t.numerator" horiz-adv-x="534" 
d="M143 946v314h-127v149h127v213h189v-213h168v-149h-168v-293q0 -58 19 -81.5t71 -23.5h78v-157h-101q-143 0 -199.5 54.5t-56.5 186.5z" />
    <glyph glyph-name="u.numerator" horiz-adv-x="858" 
d="M92 965v444h187v-401q0 -170 137 -170q107 0 131 76.5t24 125.5v369h187v-704h-178v104h-7q-51 -121 -227 -121t-215 101.5t-39 175.5z" />
    <glyph glyph-name="v.numerator" horiz-adv-x="759" 
d="M272 705l-264 704h209l170 -518l172 518h193l-254 -704h-226z" />
    <glyph glyph-name="w.numerator" horiz-adv-x="1128" 
d="M217 705l-209 704h189l139 -522l137 522h186l138 -526l141 526h182l-211 -704h-209l-137 503l-137 -503h-209z" />
    <glyph glyph-name="x.numerator" horiz-adv-x="716" 
d="M8 705l252 350l-246 354h211l137 -209l142 209h201l-250 -346l254 -358h-211l-144 217l-147 -217h-199z" />
    <glyph glyph-name="y.numerator" horiz-adv-x="759" 
d="M96 387v156h43q67 0 107 28.5t63 90.5l15 43h-54l-262 704h209l168 -518l174 518h193l-281 -784q-84 -238 -291 -238h-84z" />
    <glyph glyph-name="z.numerator" horiz-adv-x="696" 
d="M49 1257v152h592v-117l-344 -436h350v-151h-596v110l348 442h-350z" />
    <glyph glyph-name="zero.numerator" 
d="M506 1056.5q0 229.5 -119.5 229.5t-138.5 -87t-19 -142.5t9.5 -98.5t27 -71.5t44 -44t111.5 -15.5t85 229.5zM369 688q-80 0 -140.5 27.5t-99.5 78t-58.5 117t-19.5 146.5t19.5 146.5t58.5 116.5t99.5 77.5t140.5 27.5t139 -27.5t98 -77.5t58.5 -116.5t19.5 -146.5
t-19.5 -146.5t-58.5 -117t-98 -78t-139 -27.5z" />
    <glyph glyph-name="one.numerator" 
d="M487 1409v-561h189v-143h-572v143h201v348l-151 -88l-74 125l297 176h110z" />
    <glyph glyph-name="two.numerator" 
d="M483 1202q0 88 -116 88t-125 -121h-172q4 128 88 192t214 64t210 -58t80 -168t-85 -159t-139 -73l-43 -21q-76 -34 -98.5 -61t-22.5 -37h385v-143h-598q0 206 93.5 268.5t144.5 87.5l43 20q141 64 141 121z" />
    <glyph glyph-name="three.numerator" 
d="M70 920h170q0 -51 26.5 -73t50 -29t52 -7t52 6t41 18.5t27 31t9.5 56.5t-38 62.5t-95 24.5h-50v114h50q85 0 101.5 34t16.5 55t-8 39t-22.5 28t-36 16.5t-61 6.5t-70.5 -27.5t-31 -73.5h-168q0 104 78 163.5t208 59.5t206.5 -55t76.5 -144t-45 -119t-71 -36v-6
q94 -18 116.5 -77.5t22.5 -101.5q0 -91 -81 -144.5t-228 -53.5q-216 0 -257.5 85.5t-41.5 146.5z" />
    <glyph glyph-name="four.numerator" 
d="M403 967v219l-174 -219h174zM45 829v107l385 475h154v-444h96v-138h-96v-124h-181v124h-358z" />
    <glyph glyph-name="five.numerator" 
d="M264 893q21 -84 105 -84t102 45t18 114.5t-123 69.5q-62 0 -98 -63l-168 14l27 420h500v-143h-346l-15 -160h8q42 53 142 53q178 0 215 -84t37 -143q0 -114 -80.5 -179t-206.5 -65q-205 0 -247 80t-46 125h176z" />
    <glyph glyph-name="six.numerator" 
d="M376 1038q-24 0 -44.5 -6t-36.5 -19.5t-25.5 -35t-9.5 -50t9.5 -51t24.5 -38t36.5 -22.5t44 -7t44 7t37 22.5t24.5 38t9 51t-9 49t-24.5 35t-35.5 20.5t-44 6zM250 1094q46 65 182 65q98 0 166 -56t68 -170t-80.5 -179.5t-204.5 -65.5q-311 0 -311 352q0 385 317 385
q244 0 262 -206h-174q0 55 -34.5 68t-58.5 13q-54 0 -89 -42.5t-43 -163.5z" />
    <glyph glyph-name="seven.numerator" 
d="M66 1255v154h608v-111l-328 -593h-192l307 550h-395z" />
    <glyph glyph-name="eight.numerator" 
d="M254 1212q0 -22 8 -37.5t22.5 -26.5t36 -17.5t59.5 -6.5t70.5 23t32.5 55t-8 49t-23.5 28t-36 17.5t-47 6.5t-48 -6.5t-36 -16.5t-22.5 -28t-8 -40zM240 909.5q0 -24.5 9 -43t26.5 -31t41 -18.5t52 -6t52 6t41 18.5t27 31t9.5 43t-9.5 44t-27 31.5t-41 18.5t-52 6.5
t-52 -6.5t-41 -18.5t-26.5 -31.5t-9 -44zM95.5 1004q38.5 47 101.5 59v8q-52 12 -84.5 54.5t-32.5 93.5t19.5 87.5t57.5 63.5t92 41t153.5 14t176 -55t76.5 -144t-45 -119t-71 -36v-8q95 -18 117 -77.5t22 -101.5t-20.5 -80t-60.5 -63.5t-97.5 -39t-131 -13.5t-131 13.5
t-119 52t-61.5 120.5q0 83 38.5 130z" />
    <glyph glyph-name="nine.numerator" 
d="M352.5 1075q22.5 0 43 6t37 19.5t25.5 35t9 50t-9 51.5t-24.5 38t-37 22.5t-44 7.5t-43 -7.5t-37 -22.5t-25.5 -38t-9 -51.5t9 -49t25.5 -35t37 -20.5t43 -6zM657 1073q0 -385 -301 -385q-129 0 -199.5 56t-78.5 151h174q0 -33 31 -57.5t66 -24.5q63 0 92.5 44t33.5 161
q-17 -39 -75 -51.5t-98 -12.5t-86 12.5t-81 40t-54.5 69.5t-19.5 126.5t81.5 153.5t205.5 69q309 0 309 -352z" />
    <glyph glyph-name="dollar.numerator" 
d="M369 809q127 0 127 72t-52.5 85t-87.5 19l-43 8q-117 22 -179 64t-62 143q0 135 86 173t139 46v113h141v-113q93 -12 153 -66.5t64 -129.5h-174q-5 55 -47 67.5t-66 12.5t-46.5 -5.5t-39 -15.5t-25.5 -26.5t-9 -46t30.5 -45t116.5 -36.5l43 -8q167 -27 200.5 -90.5
t33.5 -113.5q0 -95 -60 -153.5t-174 -70.5v-127h-141v127q-110 12 -175 70.5t-65 146.5h168q4 -44 44 -72t100 -28z" />
    <glyph glyph-name="cent.numerator" 
d="M381 913q84 0 106 76h179q-14 -115 -89 -152.5t-124 -45.5v-103h-144v103q-110 16 -174.5 85t-64.5 205.5t91 182t148 53.5v108h144v-108q145 -24 177 -94t36 -103h-179q-22 76 -106 76q-127 0 -127 -122t48 -141.5t79 -19.5z" />
    <glyph glyph-name="euro.numerator" 
d="M700 909q-46 -221 -282 -221q-133 0 -210.5 74t-98.5 201h-86l16 63h63v61h-57l16 64h48q32 195 138.5 234.5t172.5 39.5q233 0 280 -227h-174q-20 90 -104 90q-104 0 -127 -137h201l-17 -64h-190v-61h170l-17 -63h-147q18 -106 59 -122t68 -16q76 0 104 84h174z" />
    <glyph glyph-name="plus.numerator" 
d="M90 991v139h205v205h145v-205h205v-139h-205v-205h-145v205h-205z" />
    <glyph glyph-name="minus.numerator" 
d="M90 991v139h555v-139h-555z" />
    <glyph glyph-name="equal.numerator" 
d="M90 864v137h555v-137h-555zM90 1118v139h555v-139h-555z" />
    <glyph glyph-name="comma.numerator" horiz-adv-x="395" 
d="M102 705v200h191v-192l-60 -246h-96l47 238h-82z" />
    <glyph glyph-name="period.numerator" horiz-adv-x="395" 
d="M102 705v200h191v-200h-191z" />
    <glyph glyph-name="hyphen.numerator" horiz-adv-x="577" 
d="M72 985v152h432v-152h-432z" />
    <glyph glyph-name="parenleft.numerator" horiz-adv-x="471" 
d="M173.5 1342q50.5 141 113.5 214h168q-105 -136 -134.5 -279.5t-29.5 -253.5t50.5 -247.5t113.5 -218.5h-168q-107 127 -135.5 275.5t-28.5 258.5t50.5 251z" />
    <glyph glyph-name="parenright.numerator" horiz-adv-x="471" 
d="M180 1092.5q0 111.5 -52 249.5t-112 214h168q106 -127 135 -275t29 -258.5t-50 -249.5t-114 -216h-168q108 140 136 282t28 253.5z" />
    <glyph glyph-name="a.superior" horiz-adv-x="811" 
d="M258 1218q0 -43 29.5 -67.5t70.5 -24.5q78 0 123 41t49 121v68q-14 -21 -34.5 -25t-32.5 -6l-103 -12q-102 -15 -102 -95zM307 999q-109 0 -172 54t-63 192.5t235 169.5l133 17q59 8 74.5 20t15.5 38q0 52 -31 83t-89 31q-122 0 -134 -113h-174q12 182 129 214t185 32
q142 0 221.5 -65.5t79.5 -194.5v-461h-180v84h-7q-57 -101 -223 -101z" />
    <glyph glyph-name="b.superior" horiz-adv-x="890" 
d="M287 1368q0 -159 68.5 -191t127 -32t105.5 64t47 164t-46 159t-146.5 59t-128 -82t-27.5 -131v-10zM508 999q-166 0 -221 125h-8v-108h-179v1057h187v-157q0 -156 -8 -304h8q57 127 235 127q132 0 218.5 -96t86.5 -270t-94 -274t-225 -100z" />
    <glyph glyph-name="c.superior" horiz-adv-x="817" 
d="M426 1147q127 0 152 115h184q-9 -114 -100 -188.5t-249 -74.5t-254 104t-96 265t101 266t259 105t244.5 -76.5t94.5 -187.5h-184q-20 114 -146 114q-79 0 -127.5 -63t-48.5 -158t44.5 -158t125.5 -63z" />
    <glyph glyph-name="d.superior" horiz-adv-x="888" 
d="M256 1363q0 -156 67.5 -187t125.5 -31t106.5 59.5t48.5 163.5v10q-4 96 -51.5 154.5t-123.5 58.5t-124.5 -62t-48.5 -166zM371 999q-129 0 -218.5 95.5t-89.5 268.5q0 172 94.5 274t225.5 102q161 0 223 -127h6q-8 148 -8 156v305h187v-1057h-179v108h-6
q-53 -125 -235 -125z" />
    <glyph glyph-name="e.superior" horiz-adv-x="835" 
d="M578 1450q-24 145 -152 145q-70 0 -112 -38t-54 -107h318zM434 1143q116 0 148 86h176q-16 -97 -104.5 -162.5t-225.5 -65.5q-257 0 -311 140.5t-54 224.5q0 167 102 269t261 102t252.5 -95t93.5 -260v-49h-518q16 -190 180 -190z" />
    <glyph glyph-name="f.superior" horiz-adv-x="522" 
d="M154 1016v555h-136v149h136v84q0 208 96 238.5t168 30.5h110v-156h-79q-61 0 -84 -25t-23 -90v-82h162v-149h-162v-555h-188z" />
    <glyph glyph-name="g.superior" horiz-adv-x="890" 
d="M256 1363q0 -156 67.5 -187t125.5 -31t106.5 59.5t48.5 163.5v10q-4 96 -51.5 154.5t-123.5 58.5t-124.5 -62t-48.5 -166zM262 930q8 -107 165 -107q185 0 185 240v61h-6q-53 -125 -235 -125q-129 0 -218.5 95.5t-89.5 268.5q0 172 94.5 274t225.5 102q161 0 223 -127h6
v108h179v-659q0 -293 -143.5 -334t-223.5 -41q-153 0 -243.5 61t-94.5 183h176z" />
    <glyph glyph-name="h.superior" horiz-adv-x="858" 
d="M580 1417q0 170 -138 170q-109 0 -132 -76.5t-23 -124.5v-370h-187v1057h187v-155q0 -154 -8 -302h8q52 123 226 123t213.5 -102.5t39.5 -176.5v-444h-186v401z" />
    <glyph glyph-name="i.superior" horiz-adv-x="374" 
d="M94 1016v704h187v-704h-187zM88 1890v183h199v-183h-199z" />
    <glyph glyph-name="j.superior" horiz-adv-x="374" 
d="M94 961v759h187v-768q0 -130 -53 -192t-191 -62h-66v156h41q48 0 65 25.5t17 81.5zM88 1890v183h199v-183h-199z" />
    <glyph glyph-name="k.superior" horiz-adv-x="792" 
d="M100 1016v1057h189v-637l258 284h211l-262 -280l288 -424h-215l-196 291l-84 -90v-201h-189z" />
    <glyph glyph-name="l.superior" horiz-adv-x="389" 
d="M100 1016v1057h187v-1057h-187z" />
    <glyph glyph-name="m.superior" horiz-adv-x="1300" 
d="M561 1425q0 162 -94 162t-137 -50t-43 -148v-373h-187v704h179v-104h8q52 123 213 123q119 0 164 -51.5t59 -88.5q65 140 238 140t210 -99.5t37 -171.5v-452h-186v411q0 124 -47 142t-79 18q-69 0 -108.5 -52.5t-39.5 -145.5v-373h-187v409z" />
    <glyph glyph-name="n.superior" horiz-adv-x="858" 
d="M580 1417q0 170 -103 170t-146.5 -51t-43.5 -147v-373h-187v704h179v-104h8q52 123 226 123t213.5 -102.5t39.5 -176.5v-444h-186v401z" />
    <glyph glyph-name="o.superior" horiz-adv-x="868" 
d="M256 1369q0 -50 12.5 -91t36 -70.5t56 -46t93.5 -16.5t109.5 61t48.5 163t-47 162t-152 60t-131 -86t-26 -136zM164 1636.5q101 102.5 272 102.5t270 -101t99 -270.5t-103 -269t-271 -99.5t-268 100t-100 267.5t101 270z" />
    <glyph glyph-name="p.superior" horiz-adv-x="890" 
d="M635 1373q0 50 -12.5 91t-35 70t-54 43t-91 14t-107.5 -59t-48 -154v-10q0 -159 68.5 -191t107.5 -32t70.5 16.5t54 47t35 72.5t12.5 92zM287 1612q54 127 245 127q122 0 208.5 -96t86.5 -270t-94 -274t-225 -100q-166 0 -221 125h-8q8 -148 8 -155v-271h-187v1022h179
v-108h8z" />
    <glyph glyph-name="q.superior" horiz-adv-x="890" 
d="M256 1363q0 -50 12.5 -91t36 -69.5t55 -43t70.5 -14.5t70.5 15.5t55.5 45t36 70.5t12 92t-12 92t-36 71t-55.5 45t-70.5 15t-70.5 -16t-55 -46t-36 -73t-12.5 -93zM381 1739q171 0 225 -127h6v108h179v-1022h-187v139q0 139 8 287h-6q-53 -125 -235 -125
q-129 0 -218.5 95.5t-89.5 267.5t93 274.5t225 102.5z" />
    <glyph glyph-name="r.superior" horiz-adv-x="579" 
d="M444 1563q-76 0 -115.5 -66.5t-39.5 -171.5v-309h-189v704h181v-133h6q55 152 184 152q51 0 98 -31l-37 -170q-50 25 -88 25z" />
    <glyph glyph-name="s.superior" horiz-adv-x="776" 
d="M500.5 1258.5q-25.5 14.5 -84.5 27.5l-123 25q-160 25 -188.5 91t-28.5 116q0 104 86 162.5t223 58.5t221 -56.5t92 -162.5h-174q-7 92 -131 92q-95 0 -114 -29t-19 -56t26.5 -42.5t82.5 -26.5l125 -24q109 -21 164 -64.5t55 -147.5t-89.5 -163.5t-273.5 -59.5
t-234.5 86.5t-54.5 145.5h175q8 -107 152 -107q98 0 118 31t20 60t-25.5 43.5z" />
    <glyph glyph-name="t.superior" horiz-adv-x="534" 
d="M143 1257v314h-127v149h127v213h189v-213h168v-149h-168v-293q0 -58 19 -81t71 -23h78v-158h-101q-144 0 -200 55.5t-56 185.5z" />
    <glyph glyph-name="u.superior" horiz-adv-x="858" 
d="M92 1276v444h187v-401q0 -170 137 -170q106 0 130.5 77t24.5 126v368h187v-704h-178v104h-7q-51 -121 -227 -121t-215 101.5t-39 175.5z" />
    <glyph glyph-name="v.superior" horiz-adv-x="759" 
d="M272 1016l-264 704h209l170 -518l172 518h193l-254 -704h-226z" />
    <glyph glyph-name="w.superior" horiz-adv-x="1128" 
d="M217 1016l-209 704h189l139 -522l137 522h186l138 -526l141 526h182l-211 -704h-209l-137 504l-137 -504h-209z" />
    <glyph glyph-name="x.superior" horiz-adv-x="716" 
d="M8 1016l252 350l-246 354h211l137 -209l142 209h201l-250 -346l254 -358h-211l-144 217l-147 -217h-199z" />
    <glyph glyph-name="y.superior" horiz-adv-x="759" 
d="M96 698v156h43q67 0 107 28.5t63 90.5l15 43h-54l-262 704h209l168 -518l174 518h193l-281 -784q-84 -238 -291 -238h-84z" />
    <glyph glyph-name="z.superior" horiz-adv-x="696" 
d="M49 1569v151h592v-116l-344 -437h350v-151h-596v110l348 443h-350z" />
    <glyph glyph-name="dollar.superior" 
d="M379 1614q-131 0 -131 -60.5t32.5 -78t114.5 -35.5l43 -8q234 -38 234 -204q0 -96 -59.5 -154t-174.5 -70v-127h-141v127q-110 12 -175 69.5t-65 147.5h168q6 -69 60.5 -85t83.5 -16q127 0 127 72t-52.5 85t-87.5 19l-43 9q-119 22 -180 63.5t-61 135.5q0 189 225 227
v112h141v-112q94 -12 153.5 -67.5t63.5 -129.5h-174q-4 37 -35.5 58.5t-66.5 21.5z" />
    <glyph glyph-name="cent.superior" 
d="M381 1225q85 0 106 75h179q-14 -115 -89 -152.5t-124 -45.5v-103h-144v103q-111 16 -175 86t-64 205.5t91 181t148 53.5v109h144v-109q145 -24 177 -94t36 -102h-179q-21 75 -106 75q-127 0 -127 -141t127 -141z" />
    <glyph glyph-name="euro.superior" 
d="M700 1221q-46 -222 -282 -222q-133 0 -210.5 74t-98.5 201h-86l16 63h63v62h-57l16 63h48q32 196 138.5 235.5t172.5 39.5q234 0 280 -228h-174q-20 90 -104 90q-104 0 -127 -137h201l-17 -63h-190v-62h170l-17 -63h-147q18 -107 59 -122t68 -15q77 0 104 84h174z" />
    <glyph glyph-name="plus.superior" 
d="M90 1303v139h205v205h145v-205h205v-139h-205v-205h-145v205h-205z" />
    <glyph glyph-name="minus.superior" 
d="M90 1303v139h555v-139h-555z" />
    <glyph glyph-name="equal.superior" 
d="M90 1176v137h555v-137h-555zM90 1430v139h555v-139h-555z" />
    <glyph glyph-name="comma.superior" horiz-adv-x="395" 
d="M102 1016v201h191v-193l-60 -246h-96l47 238h-82z" />
    <glyph glyph-name="period.superior" horiz-adv-x="395" 
d="M102 1016v201h191v-201h-191z" />
    <glyph glyph-name="hyphen.superior" horiz-adv-x="577" 
d="M72 1296v152h432v-152h-432z" />
    <glyph glyph-name="parenleft.superior" horiz-adv-x="471" 
d="M173 1652q50 140 114 216h168q-105 -136 -134.5 -280t-29.5 -253.5t51 -248t113 -218.5h-168q-106 127 -135 275.5t-29 258.5t50 250z" />
    <glyph glyph-name="parenright.superior" horiz-adv-x="471" 
d="M129 1651q-51 136 -113 217h168q106 -127 135 -275.5t29 -258.5t-50 -250t-114 -216h-168q107 139 135.5 281.5t28.5 254t-51 247.5z" />
    <glyph glyph-name="exclam.sc" horiz-adv-x="573" 
d="M168 0v227h238v-227h-238zM166 1065h242v-291l-60 -450h-123l-59 450v291z" />
    <glyph glyph-name="question.sc" horiz-adv-x="968" 
d="M356 0v227h230v-227h-230zM371 324v36q0 94 42 152.5t126 115t114.5 83t30.5 66.5q0 69 -56 108t-126 39q-120 0 -174 -52t-54 -133h-204q0 151 106 251t302 100t308.5 -79t112.5 -218q0 -86 -43 -140.5t-127 -107.5t-120 -87t-36 -91v-43h-202z" />
    <glyph glyph-name="exclamdown.sc" horiz-adv-x="573" 
d="M166 0v291l59 450h123l60 -450v-291h-242zM168 838v227h238v-227h-238z" />
    <glyph glyph-name="questiondown.sc" horiz-adv-x="968" 
d="M610 1065v-227h-229v227h229zM598 741v-36q0 -94 -42 -152.5t-126 -115t-114.5 -83t-30.5 -66.5q0 -69 56.5 -108t125.5 -39q120 0 172.5 51.5t52.5 133.5h207q0 -151 -107 -251t-302 -100t-307.5 79t-112.5 218q0 86 43 140.5t126 107.5t118.5 87t35.5 91v43h205z" />
    <glyph glyph-name="hyphen.sc" horiz-adv-x="811" 
d="M115 444v191h581v-191h-581z" />
    <glyph glyph-name="endash.sc" horiz-adv-x="1138" 
d="M115 444v191h909v-191h-909z" />
    <glyph glyph-name="emdash.sc" horiz-adv-x="1720" 
d="M115 444v191h1491v-191h-1491z" />
    <glyph glyph-name="periodcentered.sc" horiz-adv-x="530" 
d="M143 420v239h244v-239h-244z" />
    <glyph glyph-name="bullet.sc" horiz-adv-x="835" 
d="M417.5 268q-55.5 0 -104.5 20.5t-87 57.5t-58.5 87t-20.5 105.5t20.5 105.5t58.5 87t87 57.5t104.5 20.5t104.5 -20.5t87 -57.5t58.5 -87t20.5 -105.5t-20.5 -105.5t-58.5 -87t-87 -57.5t-104.5 -20.5z" />
    <glyph glyph-name="guilsinglleft.sc" horiz-adv-x="604" 
d="M328 213l-226 326l226 325h174l-185 -325l185 -326h-174z" />
    <glyph glyph-name="guilsinglright.sc" horiz-adv-x="604" 
d="M102 213l185 326l-185 325h174l226 -325l-226 -326h-174z" />
    <glyph glyph-name="guillemotleft.sc" horiz-adv-x="952" 
d="M326 213l-224 326l224 325h174l-185 -325l185 -326h-174zM676 213l-223 326l223 325h174l-182 -325l182 -326h-174z" />
    <glyph glyph-name="guillemotright.sc" horiz-adv-x="952" 
d="M102 213l185 326l-185 325h174l224 -325l-224 -326h-174zM453 213l184 326l-184 325h174l223 -325l-223 -326h-174z" />
    <glyph glyph-name="parenleft.sc" horiz-adv-x="626" 
d="M168 580.5q0 156.5 71.5 351t166.5 321.5h190q-147 -192 -189 -403t-42 -363t70 -354t161 -321h-190q-157 211 -197.5 411.5t-40.5 357z" />
    <glyph glyph-name="parenright.sc" horiz-adv-x="626" 
d="M262 532.5q0 206.5 -71 405.5t-160 315h192q157 -211 197.5 -411t40.5 -308q0 -205 -71 -399t-167 -323h-192q89 116 160 315t71 405.5z" />
    <glyph glyph-name="bracketleft.sc" horiz-adv-x="620" 
d="M168 -188v1441h422v-166h-232v-1110h232v-165h-422z" />
    <glyph glyph-name="bracketright.sc" horiz-adv-x="620" 
d="M31 -23h231v1110h-231v166h424v-1441h-424v165z" />
    <glyph glyph-name="braceleft.sc" horiz-adv-x="655" 
d="M410 301v-192q0 -79 30.5 -108.5t110.5 -29.5h74v-159h-105q-165 0 -231 68t-66 206v162q0 122 -41 170.5t-149 48.5v139q108 0 149 48.5t41 172.5v152q0 210 106.5 242t190.5 32h105v-159h-74q-83 0 -112 -28.5t-29 -104.5v-187q0 -188 -185 -233v-9q185 -45 185 -231z
" />
    <glyph glyph-name="braceright.sc" horiz-adv-x="655" 
d="M246 774v187q0 75 -29 104t-113 29h-73v159h104q164 0 229.5 -68t65.5 -206v-152q0 -122 41.5 -171.5t149.5 -49.5v-139q-108 0 -149.5 -49.5t-41.5 -169.5v-162q0 -211 -106.5 -242.5t-188.5 -31.5h-104v159h73q82 0 112 30t30 108v192q0 186 184 231v9
q-184 45 -184 233z" />
    <glyph glyph-name="slash.sc" horiz-adv-x="688" 
d="M12 -25l475 1115h189l-475 -1115h-189z" />
    <glyph glyph-name="backslash.sc" horiz-adv-x="688" 
d="M487 -25l-475 1115h189l475 -1115h-189z" />
    <glyph glyph-name="quoteleft.sc" horiz-adv-x="536" 
d="M147 518v225l89 322h110l-61 -305h102v-242h-240z" />
    <glyph glyph-name="quotedblleft.sc" horiz-adv-x="929" 
d="M543 518v225l88 322h110l-61 -305h102v-242h-239zM147 518v225l89 322h110l-61 -305h102v-242h-240z" />
    <glyph glyph-name="quoteright.sc" horiz-adv-x="536" 
d="M147 823v242h240v-225l-88 -322h-111l64 305h-105z" />
    <glyph glyph-name="quotedblright.sc" horiz-adv-x="929" 
d="M543 823v242h239v-225l-88 -322h-110l63 305h-104zM147 823v242h240v-225l-88 -322h-111l64 305h-105z" />
    <glyph glyph-name="asterisk.sc" horiz-adv-x="948" 
d="M389 1083h170l-31 -262l238 113l53 -164l-260 -51l180 -191l-137 -100l-129 229l-127 -229l-137 100l176 193l-254 49l51 164l238 -111z" />
    <glyph glyph-name="degree.sc" horiz-adv-x="774" 
d="M387 944q-29 0 -54.5 -10t-45 -30.5t-29.5 -47.5t-10 -77t40 -90t85 -40t69.5 10.5t44 30t29.5 47t10 60t-10 59.5t-29.5 47.5t-45 30.5t-54.5 10zM82 796q0 131 87.5 212.5t217.5 81.5t217.5 -81.5t87.5 -212.5t-87.5 -212.5t-217.5 -81.5t-217.5 81.5t-87.5 212.5z" />
    <glyph glyph-name="quotesingle.sc" horiz-adv-x="460" 
d="M125 1065h211v-186l-35 -361h-141l-35 361v186z" />
    <glyph glyph-name="quotedbl.sc" horiz-adv-x="841" 
d="M506 1065h211v-186l-35 -361h-141l-35 361v186zM125 1065h211v-186l-35 -361h-141l-35 361v186z" />
    <glyph glyph-name="ordfeminine.sc" horiz-adv-x="612" 
d="M401 741v47q-5 -16 -23 -18t-28 -4l-78 -12q-75 -8 -75 -72q0 -30 21 -49t54 -19q55 0 92 33t37 94zM53 672q0 135 180 162l99 12q46 8 57.5 16t11.5 28q0 40 -23.5 64.5t-70.5 24.5q-90 0 -98 -88h-131q4 93 67.5 140.5t161.5 47.5q236 0 236 -198v-349h-135v60h-2
q-54 -72 -173 -72q-82 0 -131 40.5t-49 111.5z" />
    <glyph glyph-name="ordmasculine.sc" horiz-adv-x="651" 
d="M325.5 631q30.5 0 56.5 12t43 34.5t26.5 53.5t9.5 68t-9.5 68.5t-26.5 53t-43 34t-56.5 12.5t-55 -12.5t-43 -35t-28 -53t-9.5 -67.5t9.5 -68t28 -53.5t43 -34.5t55 -12zM123.5 1004q76.5 75 203.5 75q128 0 203.5 -75.5t75.5 -202t-76 -204t-205 -77.5q-128 0 -203 75
t-75 204.5t76.5 204.5z" />
    <glyph glyph-name="trademark.sc" horiz-adv-x="1294" 
d="M10 944v121h494v-121h-172v-412h-146v412h-176zM571 532v533h195l127 -342h4l129 342h188v-533h-135l8 355h-6l-141 -355h-100l-135 355h-7l9 -355h-136z" />
    <glyph glyph-name="copyright.sc" horiz-adv-x="1251" 
d="M534 423q36 -42 97 -42q62 0 81 28.5t23 43.5h139q-12 -84 -79 -138.5t-147 -54.5q-81 0 -133 21.5t-87 60.5t-53.5 89t-18.5 138.5t73.5 168t185.5 79.5q113 0 180 -54.5t79 -137.5h-139q-21 73 -110 73t-108 -62.5t-19 -116.5t36 -96zM321.5 221q118.5 -131 299.5 -131
t304.5 131.5t123.5 315.5t-121 311t-305 127t-302 -126t-118 -311.5t118.5 -316.5zM1017.5 931.5q156.5 -158.5 156.5 -393.5t-157.5 -399t-394 -164t-390.5 163.5t-154 399.5t154.5 394t391.5 158t393.5 -158.5z" />
    <glyph glyph-name="registered.sc" horiz-adv-x="1251" 
d="M721 619.5q0 68.5 -82 68.5h-98v-137h98q82 0 82 68.5zM393 276v525h266q99 0 154 -46t55 -128t-43 -119t-69 -47l123 -185h-152l-109 166h-77v-166h-148zM321.5 221q118.5 -131 299.5 -131t304.5 131.5t123.5 315.5t-121 311t-305 127t-302 -126t-118 -311.5
t118.5 -316.5zM1017.5 931.5q156.5 -158.5 156.5 -393.5t-157.5 -399t-394 -164t-390.5 163.5t-154 399.5t154.5 394t391.5 158t393.5 -158.5z" />
    <glyph glyph-name="paragraph.sc" horiz-adv-x="1067" 
d="M397 0v385q-143 20 -229 108t-86 238t103.5 242t287.5 92h115v-1065h-191zM719 0v1065h188v-1065h-188z" />
    <glyph glyph-name="dagger.sc" horiz-adv-x="782" 
d="M90 653v150h213v262h176v-262h213v-150h-213v-653h-176v653h-213z" />
    <glyph glyph-name="daggerdbl.sc" horiz-adv-x="782" 
d="M90 678v151h213v236h176v-236h213v-151h-213v-299h213v-152h-213v-227h-176v227h-213v152h213v299h-213z" />
    <glyph glyph-name="section.sc" horiz-adv-x="872" 
d="M250 372q0 -53 30 -79.5t121 -56.5l78 -27q62 15 102 59t40 82q0 64 -31 91t-119 57l-78 24q-61 -16 -102 -57t-41 -93zM631 156q149 -77 149 -213t-94 -215.5t-264 -79.5q-235 0 -288.5 93.5t-57.5 154.5h184q11 -80 71 -95.5t96 -15.5q73 0 117 32t44 98
q0 67 -51.5 88.5t-90.5 33.5l-147 49q-179 53 -204 128t-25 120q0 85 46 147.5t126 93.5q-150 73 -150 226q0 127 94.5 205.5t262.5 78.5q235 0 289.5 -93t58.5 -154h-187q-15 108 -164 108q-119 0 -141 -47t-22 -75q0 -51 31.5 -77t111.5 -53l147 -47q124 -41 176 -97.5
t52 -144.5q0 -87 -45.5 -152t-124.5 -97z" />
    <glyph glyph-name="exclamdown.cap" horiz-adv-x="581" 
d="M166 0v389l61 615h125l64 -615v-389h-250zM168 1163v246h244v-246h-244z" />
    <glyph glyph-name="questiondown.cap" horiz-adv-x="1044" 
d="M70 366q0 100 47 169t139 139.5t134 119t42 132.5v69h215v-53q0 -127 -47 -203.5t-140 -149.5t-129 -112t-36 -99q0 -102 59.5 -160t173.5 -58t176 74.5t62 191.5h217q0 -189 -118.5 -320t-332.5 -131t-338 101t-124 290zM418 1163v246h244v-246h-244z" />
    <glyph glyph-name="hyphen.cap" horiz-adv-x="811" 
d="M115 616v193h581v-193h-581z" />
    <glyph glyph-name="endash.cap" horiz-adv-x="1138" 
d="M115 616v193h909v-193h-909z" />
    <glyph glyph-name="emdash.cap" horiz-adv-x="1720" 
d="M115 616v193h1491v-193h-1491z" />
    <glyph glyph-name="periodcentered.cap" horiz-adv-x="559" 
d="M150 586v254h256v-254h-256z" />
    <glyph glyph-name="bullet.cap" horiz-adv-x="999" 
d="M499.5 360q-73.5 0 -138 27t-112.5 75t-75 112.5t-27 138t27 138t75 113t112.5 75t138 26.5t138 -26.5t113 -75t75 -113t26.5 -138t-26.5 -138t-75 -112.5t-113 -75t-138 -27z" />
    <glyph glyph-name="guilsinglleft.cap" horiz-adv-x="681" 
d="M397 295l-295 418l295 417h183l-234 -417l234 -418h-183z" />
    <glyph glyph-name="guilsinglright.cap" horiz-adv-x="681" 
d="M102 295l234 418l-234 417h183l295 -417l-295 -418h-183z" />
    <glyph glyph-name="guillemotleft.cap" horiz-adv-x="1099" 
d="M395 295l-293 418l293 417h183l-234 -417l234 -418h-183zM815 295l-293 418l293 417h182l-233 -417l233 -418h-182z" />
    <glyph glyph-name="guillemotright.cap" horiz-adv-x="1099" 
d="M102 295l234 418l-234 417h183l293 -417l-293 -418h-183zM522 295l234 418l-234 417h183l292 -417l-292 -418h-183z" />
    <glyph glyph-name="parenleft.cap" horiz-adv-x="686" 
d="M168 763q0 183 84 399t203 368h200q-189 -270 -233.5 -487.5t-44.5 -392t81 -389.5t197 -382h-200q-200 259 -243.5 480t-43.5 404z" />
    <glyph glyph-name="parenright.cap" horiz-adv-x="686" 
d="M309 758.5q0 174.5 -81 389.5t-197 382h200q200 -259 243.5 -480t43.5 -404t-84 -399t-203 -368h-200q189 270 233.5 487.5t44.5 392z" />
    <glyph glyph-name="bracketleft.cap" horiz-adv-x="696" 
d="M168 -121v1651h498v-176h-297v-1299h297v-176h-498z" />
    <glyph glyph-name="bracketright.cap" horiz-adv-x="696" 
d="M31 55h297v1299h-297v176h499v-1651h-499v176z" />
    <glyph glyph-name="braceleft.cap" horiz-adv-x="757" 
d="M465 979q0 -216 -205 -266v-8q205 -50 205 -267v-225q0 -91 35.5 -127.5t126.5 -36.5h100v-170h-125q-269 0 -304.5 119t-35.5 199v180q0 144 -45.5 199t-183.5 55v155q138 0 183.5 55t45.5 199v172q0 162 78 240t262 78h125v-170h-100q-131 0 -146.5 -59.5t-15.5 -104.5
v-217z" />
    </font>
</defs>
</svg>
