<?xml version="1.0" standalone="no"?>
<!DOCTYPE svg PUBLIC "-//W3C//DTD SVG 1.1//EN" "http://www.w3.org/Graphics/SVG/1.1/DTD/svg11.dtd" >
<svg xmlns="http://www.w3.org/2000/svg">
<metadata>
Created by FontPrep 20130207 at Wed Sep 14 14:58:37 2016
 By Callum Flack
(c) Copyright (c) 2010. All rights reserved. Fakt is a design by Thomas Thiemich, published by OurType. www.ourtype.com
</metadata>
<defs>
<font id="ffef269f4240d18c51242590b3fc7b52" horiz-adv-x='1024' >
  <font-face 
    font-family="FaktPro-Normal"
    font-weight="400"
    font-stretch="normal"
    units-per-em="2048"
    panose-1="2 0 0 0 0 0 0 0 0 0"
    ascent="1532"
    descent="-516"
    x-height="999"
    cap-height="1409"
    bbox="-352 -641 2384 2073"
    underline-thickness="0"
    underline-position="0"
    unicode-range="U+0020-FB04"
  />
<missing-glyph horiz-adv-x="1458" 
d="M475 377l258 264l258 -264l107 106l-260 267l260 266l-107 106l-258 -264l-258 264l-106 -106l258 -266l-258 -267zM0 0v1475h1458v-1475h-1458z" />
    <glyph glyph-name="ff" unicode="ff" horiz-adv-x="1245" 
d="M197 0v852h-189v147h189v164q0 250 127 293t208 43h115v-156h-98q-136 0 -154 -70.5t-18 -117.5v-156h434v164q0 250 127 293t209 43h123v-156h-107q-134 0 -153 -70.5t-19 -117.5v-156h246v-147h-246v-852h-180v852h-434v-852h-180z" />
    <glyph glyph-name="fi" unicode="fi" horiz-adv-x="1146" 
d="M803 1294v205h196v-205h-196zM811 0v852h-434v-852h-180v852h-189v147h189v164q0 250 127 293t208 43h115v-156h-98q-136 0 -154 -70.5t-18 -117.5v-156h614v-999h-180z" />
    <glyph glyph-name="fl" unicode="fl" horiz-adv-x="1146" 
d="M197 0v852h-189v147h189v164q0 250 127 293t208 43h459v-1499h-180v1343h-262q-136 0 -154 -70.5t-18 -117.5v-156h221v-147h-221v-852h-180z" />
    <glyph glyph-name="ffi" unicode="ffi" horiz-adv-x="1761" 
d="M1417 1294v205h197v-205h-197zM811 0v852h-434v-852h-180v852h-189v147h189v164q0 250 127 293t208 43h132v-156h-115q-136 0 -154 -70.5t-18 -117.5v-156h434v164q0 250 127 293t209 43h115v-156h-99q-134 0 -153 -70.5t-19 -117.5v-156h615v-999h-181v852h-434v-852
h-180z" />
    <glyph glyph-name="ffl" unicode="ffl" horiz-adv-x="1761" 
d="M811 0v852h-434v-852h-180v852h-189v147h189v164q0 250 127 293t208 43h115v-156h-98q-136 0 -154 -70.5t-18 -117.5v-156h434v164q0 250 127 293t209 43h459v-1499h-181v1343h-262q-134 0 -153 -70.5t-19 -117.5v-156h271v-147h-271v-852h-180z" />
    <glyph glyph-name="f_b" unicode="fb" horiz-adv-x="1851" 
d="M991 500q0 -173 83.5 -271t212 -98t211.5 103t83 274.5t-83.5 265.5t-209.5 94t-209.5 -94t-87.5 -258v-16zM983 156v-156h-172v1343h-262q-136 0 -154 -70.5t-18 -117.5v-156h221v-147h-221v-852h-180v852h-189v147h189v164q0 250 127 293t208 43h459v-237
q0 -238 -8 -418h8q96 180 336 180q195 0 318.5 -138t123.5 -378.5t-131.5 -386.5t-326.5 -146q-230 0 -320 181h-8z" />
    <glyph glyph-name="f_h" unicode="fh" horiz-adv-x="1810" 
d="M991 852q80 172 323 172q150 0 253.5 -98.5t103.5 -319.5v-606h-180v582q0 223 -88 254.5t-143 31.5q-118 0 -193.5 -98.5t-75.5 -253.5v-516h-180v1343h-262q-136 0 -154 -70.5t-18 -117.5v-156h221v-147h-221v-852h-180v852h-189v147h189v164q0 250 127 293t208 43h459
v-233q0 -234 -8 -414h8z" />
    <glyph glyph-name="f_j" unicode="fj" horiz-adv-x="1146" 
d="M803 1294v205h196v-205h-196zM647 -295h49q91 0 103 54.5t12 93.5v999h-434v-852h-180v852h-189v147h189v164q0 250 127 293t208 43h115v-156h-98q-136 0 -154 -70.5t-18 -117.5v-156h614v-1179q0 -271 -278 -271h-66v156z" />
    <glyph glyph-name="f_k" unicode="fk" horiz-adv-x="1687" 
d="M811 0v1343h-262q-136 0 -154 -70.5t-18 -117.5v-156h221v-147h-221v-852h-180v852h-189v147h189v164q0 250 127 293t208 43h459v-981l434 481h213l-370 -399l411 -600h-213l-321 469l-154 -168v-301h-180z" />
    <glyph glyph-name="f_t" unicode="ft" horiz-adv-x="1286" 
d="M1090 0q-295 0 -295 295v557h-418v-852h-180v852h-189v147h189v164q0 250 127 293t208 43h115v-156h-98q-136 0 -154 -70.5t-18 -117.5v-156h418v304h180v-304h262v-147h-262v-549q0 -147 131 -147h131v-156h-147z" />
    <glyph glyph-name="f_f_b" unicode="ffb" horiz-adv-x="2465" 
d="M1606 500q0 -173 83.5 -271t212 -98t211 103t82.5 274.5t-82.5 265.5t-209.5 94q-126 0 -209.5 -94t-87.5 -258v-16zM1597 156v-156h-172v1343h-262q-134 0 -153 -70.5t-19 -117.5v-156h271v-147h-271v-852h-180v852h-434v-852h-180v852h-189v147h189v164q0 250 127 293
t208 43h115v-156h-98q-136 0 -154 -70.5t-18 -117.5v-156h434v164q0 250 127 293t209 43h459v-227q0 -226 -9 -428h9q96 180 336 180q196 0 319 -138.5t123 -378t-132 -386t-327 -146.5q-232 0 -319 181h-9z" />
    <glyph glyph-name="f_f_h" unicode="ffh" horiz-adv-x="2424" 
d="M1606 852q80 172 322 172q151 0 254.5 -99.5t103.5 -318.5v-606h-181v582q0 223 -88 254.5t-143 31.5q-117 0 -192.5 -95.5t-75.5 -248.5v-524h-181v1343h-262q-134 0 -153 -70.5t-19 -117.5v-156h271v-147h-271v-852h-180v852h-434v-852h-180v852h-189v147h189v164
q0 250 127 293t208 43h115v-156h-98q-136 0 -154 -70.5t-18 -117.5v-156h434v164q0 250 127 293t209 43h459v-223q0 -222 -9 -424h9z" />
    <glyph glyph-name="f_f_j" unicode="ffj" horiz-adv-x="1761" 
d="M1417 1294v205h197v-205h-197zM811 0v852h-434v-852h-180v852h-189v147h189v164q0 250 127 293t208 43h132v-156h-115q-136 0 -154 -70.5t-18 -117.5v-156h434v164q0 250 127 293t209 43h115v-156h-99q-134 0 -153 -70.5t-19 -117.5v-156h615v-1179q0 -271 -279 -271h-65
v156h49q90 0 102 54.5t12 93.5v999h-434v-852h-180z" />
    <glyph glyph-name="f_f_k" unicode="ffk" horiz-adv-x="2301" 
d="M811 0v852h-434v-852h-180v852h-189v147h189v164q0 250 127 293t208 43h115v-156h-98q-136 0 -154 -70.5t-18 -117.5v-156h434v164q0 250 127 293t209 43h459v-981l434 481h213l-371 -399l412 -600h-213l-322 469l-153 -168v-301h-181v1343h-262q-134 0 -153 -70.5
t-19 -117.5v-156h271v-147h-271v-852h-180z" />
    <glyph glyph-name="f_f_t" unicode="fft" horiz-adv-x="1900" 
d="M1704 0q-295 0 -295 295v557h-418v-852h-180v852h-434v-852h-180v852h-189v147h189v164q0 250 127 293t208 43h115v-156h-98q-136 0 -154 -70.5t-18 -117.5v-156h434v164q0 250 127 293t209 43h115v-156h-99q-134 0 -153 -70.5t-19 -117.5v-156h418v304h180v-304h262
v-147h-262v-549q0 -147 131 -147h131v-156h-147z" />
    <glyph glyph-name=".notdef" horiz-adv-x="1458" 
d="M475 377l258 264l258 -264l107 106l-260 267l260 266l-107 106l-258 -264l-258 264l-106 -106l258 -266l-258 -267zM0 0v1475h1458v-1475h-1458z" />
    <glyph glyph-name=".null" horiz-adv-x="0" 
 />
    <glyph glyph-name="nonmarkingreturn" horiz-adv-x="681" 
 />
    <glyph glyph-name="space" unicode=" " horiz-adv-x="450" 
 />
    <glyph glyph-name="exclam" unicode="!" horiz-adv-x="573" 
d="M180 0v221h213v-221h-213zM180 1409h213v-393l-57 -623h-98l-58 623v393z" />
    <glyph glyph-name="quotedbl" unicode="&#x22;" horiz-adv-x="802" 
d="M492 1409h180v-172l-33 -344h-115l-32 344v172zM131 1409h180v-172l-32 -344h-115l-33 344v172z" />
    <glyph glyph-name="numbersign" unicode="#" horiz-adv-x="1261" 
d="M522 934l-78 -451h295l78 451h-295zM123 934v139h260l59 336h164l-59 -336h295l59 336h164l-59 -336h215v-139h-240l-78 -451h236v-139h-260l-60 -344h-164l60 344h-295l-60 -344h-163l59 344h-215v139h240l77 451h-235z" />
    <glyph glyph-name="dollar" unicode="$" 
d="M755 159.5q113 36.5 113 225.5q0 127 -94 168t-160 61l-180 58q-211 64 -261 179.5t-50 194.5q0 150 98.5 252t261.5 127v222h181v-222q237 -39 295.5 -165.5t64.5 -202.5h-180q-23 167 -120 198t-182.5 31t-158 -58.5t-72.5 -158.5t55 -150t183 -92l180 -57
q248 -80 288 -195.5t40 -194.5q0 -159 -108 -268t-285 -130v-228h-181v228q-269 37 -330 181t-63 230h180q8 -127 92 -198.5t214 -71.5q66 0 179 36.5z" />
    <glyph glyph-name="percent" unicode="%" horiz-adv-x="1589" 
d="M1229 106q147 0 147 246t-147.5 246t-147.5 -212t56.5 -246t91.5 -34zM360.5 1303q-147.5 0 -147.5 -212.5t56 -246t91 -33.5q148 0 148 246t-147.5 246zM369 -25l712 1459h140l-713 -1459h-139zM1229 -16q-78 0 -135.5 27.5t-94 77.5t-55 117.5t-18.5 145.5t18.5 145.5
t55 118t94 78t135.5 27.5t135 -27.5t95 -78t55.5 -118t17.5 -145.5t-17.5 -145.5t-55.5 -117.5t-95 -77.5t-135 -27.5zM360.5 688q-77.5 0 -135 27.5t-94.5 78t-55.5 118t-18.5 145.5t18.5 145.5t55.5 117.5t94.5 77.5t135 27.5t135 -27.5t95.5 -77.5t55.5 -117.5
t17.5 -145.5t-17.5 -145.5t-55.5 -118t-95.5 -78t-135 -27.5z" />
    <glyph glyph-name="ampersand" unicode="&#x26;" horiz-adv-x="1458" 
d="M450 998q32 -49 128 -150q144 68 209 121.5t65 144.5q0 123 -81 151.5t-133 28.5t-94 -15t-84 -54t-42 -109q0 -69 32 -118zM614 123q228 0 344 121l-430 432q-124 -63 -186.5 -125.5t-62.5 -175.5t97.5 -182.5t237.5 -69.5zM98 369q0 208 127 291t199 118
q-97 101 -133.5 168.5t-36.5 142.5q0 146 103.5 245.5t278.5 99.5t281.5 -87.5t106.5 -232.5q0 -190 -132 -262t-210 -107l369 -372q63 138 63 315v17h164v-41q0 -147 -40 -252t-73 -158l252 -254h-213l-135 135q-169 -160 -429 -160q-261 0 -401.5 106.5t-140.5 287.5z" />
    <glyph glyph-name="quotesingle" unicode="'" horiz-adv-x="442" 
d="M131 1409h180v-172l-32 -344h-115l-33 344v172z" />
    <glyph glyph-name="parenleft" unicode="(" horiz-adv-x="581" 
d="M49 599q0 222 98.5 479t237.5 446h164q-113 -145 -220.5 -423.5t-107.5 -564t104.5 -561t223.5 -442.5h-164q-222 293 -279 568.5t-57 497.5z" />
    <glyph glyph-name="parenright" unicode=")" horiz-adv-x="581" 
d="M254 1099.5q-106 274.5 -221 424.5h164q225 -305 280 -570.5t55 -490t-100 -488.5t-235 -442h-164q116 163 221.5 438.5t105.5 564.5t-106 563.5z" />
    <glyph glyph-name="asterisk" unicode="*" horiz-adv-x="933" 
d="M393 1425h148l-35 -274l250 119l45 -142l-269 -53l187 -198l-119 -86l-135 237l-131 -237l-119 86l184 200l-266 51l45 142l248 -117z" />
    <glyph glyph-name="plus" unicode="+" 
d="M115 442v156h385v385h164v-385h385v-156h-385v-385h-164v385h-385z" />
    <glyph glyph-name="comma" unicode="," horiz-adv-x="540" 
d="M156 0v238h229v-222l-90 -335h-107l66 319h-98z" />
    <glyph glyph-name="hyphen" unicode="-" horiz-adv-x="811" 
d="M123 434v164h565v-164h-565z" />
    <glyph glyph-name="period" unicode="." horiz-adv-x="540" 
d="M156 0v238h229v-238h-229z" />
    <glyph glyph-name="slash" unicode="/" horiz-adv-x="819" 
d="M16 -25l631 1459h156l-631 -1459h-156z" />
    <glyph glyph-name="zero" unicode="0" 
d="M582 1270q-303 0 -303 -566t303 -565.5t303 492.5t-114 565.5t-189 73.5zM582 -25q-129 0 -223.5 54.5t-154 154t-87 231.5t-27.5 289.5t27.5 289.5t87 231.5t154 154t223.5 54.5t223 -54.5t153.5 -154t87 -231.5t27.5 -289.5t-27.5 -289.5t-87 -231.5t-153.5 -154
t-223 -54.5z" />
    <glyph glyph-name="one" unicode="1" 
d="M713 1409v-1253h336v-156h-877v156h360v1030l-327 -228l-82 140l450 311h140z" />
    <glyph glyph-name="two" unicode="2" 
d="M523.5 1278q-196.5 0 -220.5 -287h-164q12 232 137.5 337.5t316.5 105.5t315 -108.5t124 -306.5t-102.5 -275.5t-200.5 -145.5l-156 -106q-202 -136 -225.5 -216.5t-28.5 -119.5h730v-156h-934q8 226 90 357t254 249l155 107q78 53 158 113t80 206q0 96 -66 171
t-262.5 75z" />
    <glyph glyph-name="three" unicode="3" 
d="M98 426h172q0 -143 84 -219t256.5 -76t219.5 99.5t47 159.5q0 119 -89 190t-215 71h-106v156h106q109 0 181.5 68.5t72.5 202t-100 167t-182.5 33.5t-154 -64.5t-71.5 -189.5h-163q0 187 115 298.5t304 111.5q190 0 307 -105.5t117 -275.5q0 -101 -60 -192.5t-144 -123.5
v-8q111 -28 186.5 -126.5t75.5 -207.5q0 -202 -139.5 -311t-351.5 -109t-340 114.5t-128 336.5z" />
    <glyph glyph-name="four" unicode="4" 
d="M713 508v620l-463 -620h463zM66 352v131l679 926h148v-901h205v-156h-205v-352h-180v352h-647z" />
    <glyph glyph-name="five" unicode="5" 
d="M336 803q98 98 282 98t315.5 -122.5t131.5 -336.5t-141 -340.5t-347 -126.5t-334.5 108.5t-144.5 293.5h181q13 -100 89 -173t207 -73q132 0 221 80.5t89 224.5t-86 226.5t-211 82.5q-126 0 -186 -52t-91 -87l-164 8l41 795h795v-164h-631l-24 -442h8z" />
    <glyph glyph-name="six" unicode="6" 
d="M400.5 657.5q-89.5 -87.5 -89.5 -218.5t84 -219.5t213.5 -88.5t215 83.5t85.5 222.5t-83.5 223.5t-209.5 84.5t-215.5 -87.5zM251 1249.5q153 184.5 380 184.5q193 0 299 -100t127 -277h-180q-27 221 -246 221q-141 0 -238.5 -136t-105.5 -427q38 81 143 133.5t210 52.5
q206 0 328 -126t122 -336t-139.5 -337t-352.5 -127t-356.5 166.5t-143.5 544.5q0 379 153 563.5z" />
    <glyph glyph-name="seven" unicode="7" 
d="M106 1245v164h967v-131l-598 -1278h-188l590 1245h-771z" />
    <glyph glyph-name="eight" unicode="8" 
d="M581.5 807q55.5 0 103.5 17.5t84 50t55.5 77.5t19.5 98.5t-19.5 97.5t-55.5 74.5t-84 47t-103.5 16.5t-103.5 -16.5t-84 -47t-55.5 -74.5t-19.5 -97.5t19.5 -98.5t55.5 -77.5t84 -50t103.5 -17.5zM581.5 131q138.5 0 225 69t86.5 188t-89.5 191t-222 72t-222 -72
t-89.5 -191t86.5 -188t225 -69zM90 362q0 142 75.5 240.5t186.5 126.5v8q-81 26 -143 118t-62 186t31 164.5t87.5 121.5t137 79t229.5 28t266.5 -107t117.5 -274q0 -105 -60 -195.5t-145 -120.5v-8q113 -29 187.5 -127.5t74.5 -207.5t-34.5 -185t-100.5 -127t-157 -79
t-199.5 -28t-199.5 28t-156.5 79t-100.5 126.5t-35 153.5z" />
    <glyph glyph-name="nine" unicode="9" 
d="M342 1194q-88 -84 -88 -222t83.5 -223t209.5 -85t215.5 87.5t89.5 218t-85 219.5t-211 89t-214 -84zM494 508q-76 0 -157 31.5t-172 125.5t-91 305q0 210 139.5 337t335.5 127q230 0 373 -166.5t143 -530.5q0 -585 -200.5 -673.5t-308.5 -88.5q-206 0 -314.5 99.5
t-135.5 277.5h181q47 -221 262 -221q317 0 328 561q-61 -124 -184 -154t-199 -30z" />
    <glyph glyph-name="colon" unicode=":" horiz-adv-x="540" 
d="M156 0v238h229v-238h-229zM156 762v237h229v-237h-229z" />
    <glyph glyph-name="semicolon" unicode=";" horiz-adv-x="540" 
d="M156 0v238h229v-222l-90 -335h-107l66 319h-98zM156 762v237h229v-237h-229z" />
    <glyph glyph-name="less" unicode="&#x3c;" 
d="M147 442v156l869 369v-164l-686 -279l686 -278v-172z" />
    <glyph glyph-name="equal" unicode="=" 
d="M115 229v156h934v-156h-934zM115 655v156h934v-156h-934z" />
    <glyph glyph-name="greater" unicode="&#x3e;" 
d="M1016 598v-156l-869 -368v164l687 278l-687 279v172z" />
    <glyph glyph-name="question" unicode="?" horiz-adv-x="1032" 
d="M401 0v221h213v-221h-213zM418 401v58q0 129 46 206.5t138 151.5t130 116.5t38 106.5q0 112 -65 175t-186 63t-189 -83.5t-68 -211.5h-180q0 188 117 319.5t319 131.5t321 -99.5t119 -269.5q0 -113 -47 -181.5t-138 -140t-133 -123t-42 -137.5v-82h-180z" />
    <glyph glyph-name="at" unicode="@" horiz-adv-x="2113" 
d="M1270 418v96q-28 -28 -58 -35.5t-49 -11.5l-196 -33q-135 -23 -153.5 -77t-18.5 -88q0 -71 49.5 -112.5t123.5 -41.5q141 0 221.5 79t80.5 224zM614 260q0 252 328 305l197 33q103 14 117 34.5t14 39.5q0 205 -213 205t-230 -189h-172q8 145 111.5 240.5t291.5 95.5
t290 -97t102 -280v-309q0 -232 164 -232q98 0 172 113.5t74 310.5q0 369 -224 571t-580 202t-579 -236.5t-223 -588.5t217.5 -583t568.5 -231q199 0 297.5 58.5t137.5 97.5h204q-226 -287 -639 -287q-207 0 -381 70.5t-300 199.5t-193.5 301t-67.5 371t69 374t197 306
t307 205t388 74t383 -61.5t303 -177.5t199.5 -278.5t70.5 -334.5q0 -316 -121 -457t-297 -141q-223 0 -286 168q-102 -177 -351 -177q-250 0 -298 112t-48 173z" />
    <glyph glyph-name="A" unicode="A" horiz-adv-x="1318" 
d="M659 1212h-8l-245 -680h499zM25 0l524 1409h221l524 -1409h-196l-133 369h-619l-133 -369h-188z" />
    <glyph glyph-name="B" unicode="B" horiz-adv-x="1359" 
d="M1016 1042q0 203 -262 203h-394v-434h394q123 0 192.5 64.5t69.5 166.5zM360 647v-483h435q203 0 240.5 98t37.5 150q0 108 -72 171.5t-206 63.5h-435zM172 0v1409h582q336 0 393 -140.5t57 -210.5q0 -120 -57.5 -200t-163.5 -113v-8q129 -24 204 -109.5t75 -192.5
q0 -202 -122.5 -318.5t-344.5 -116.5h-623z" />
    <glyph glyph-name="C" unicode="C" horiz-adv-x="1458" 
d="M770 1262q-216 0 -349.5 -155t-133.5 -399t132.5 -402.5t342.5 -158.5q254 0 322.5 112t89.5 183h194q-73 -330 -279 -398.5t-339 -68.5t-257 53.5t-263.5 203t-139.5 470.5t191 526.5t489 205.5q239 0 395.5 -126t202.5 -341h-194q-82 295 -404 295z" />
    <glyph glyph-name="D" unicode="D" horiz-adv-x="1441" 
d="M614 1245h-245v-1081h245q279 0 410 151.5t131 389t-131 389t-410 151.5zM180 0v1409h434q357 0 547.5 -194t190.5 -510.5t-190.5 -510.5t-547.5 -194h-434z" />
    <glyph glyph-name="E" unicode="E" horiz-adv-x="1253" 
d="M180 0v1409h950v-164h-761v-446h606v-164h-606v-471h778v-164h-967z" />
    <glyph glyph-name="F" unicode="F" horiz-adv-x="1179" 
d="M180 0v1409h934v-164h-745v-491h589v-164h-589v-590h-189z" />
    <glyph glyph-name="G" unicode="G" horiz-adv-x="1556" 
d="M1239 205q-144 -230 -453 -230t-502.5 206t-193.5 524t195 523.5t501 205.5q244 0 405.5 -124t209.5 -319h-197q-60 188 -196 229.5t-236 41.5t-191.5 -41t-158 -117t-101 -178.5t-34.5 -282.5t136.5 -338t338.5 -158q203 0 335 106t132 288v41h-443v163h615v-745h-123
l-33 205h-6z" />
    <glyph glyph-name="H" unicode="H" horiz-adv-x="1490" 
d="M180 0v1409h189v-614h753v614h189v-1409h-189v631h-753v-631h-189z" />
    <glyph glyph-name="I" unicode="I" horiz-adv-x="548" 
d="M180 0v1409h189v-1409h-189z" />
    <glyph glyph-name="J" unicode="J" horiz-adv-x="1048" 
d="M74 401v66h188v-49q0 -212 86 -245.5t161.5 -33.5t135.5 68t60 211v991h188v-1008q0 -324 -159 -375t-300 -51t-250.5 102.5t-109.5 323.5z" />
    <glyph glyph-name="K" unicode="K" horiz-adv-x="1335" 
d="M180 0v1409h189v-758l704 758h221l-579 -612l604 -797h-213l-516 666l-221 -236v-430h-189z" />
    <glyph glyph-name="L" unicode="L" horiz-adv-x="1114" 
d="M180 0v1409h189v-1245h688v-164h-877z" />
    <glyph glyph-name="M" unicode="M" horiz-adv-x="1851" 
d="M180 0v1409h230l518 -1155h4l510 1155h229v-1409h-188l16 1114h-8l-492 -1114h-147l-492 1090h-8l17 -1090h-189z" />
    <glyph glyph-name="N" unicode="N" horiz-adv-x="1507" 
d="M180 0v1409h180l779 -1090h8l-8 1090h188v-1409h-180l-778 1081h-9l9 -1081h-189z" />
    <glyph glyph-name="O" unicode="O" horiz-adv-x="1556" 
d="M287 704.5q0 -118.5 34.5 -221t100 -178.5t157 -117t200 -41t199.5 41t156.5 117t100.5 178.5t35 221t-35 221t-100.5 178.5t-156.5 117t-199.5 41t-200 -41t-157 -117t-100 -178.5t-34.5 -221zM90 704.5q0 319.5 192.5 524.5t495.5 205q302 0 495 -206.5t193 -523
t-193 -523t-495 -206.5t-495 205t-193 524.5z" />
    <glyph glyph-name="P" unicode="P" horiz-adv-x="1302" 
d="M369 1245v-590h352q144 0 223.5 85.5t79.5 215.5t-77.5 209.5t-225.5 79.5h-352zM180 0v1409h533q234 0 366.5 -123t132.5 -329q0 -205 -132 -335t-367 -130h-344v-492h-189z" />
    <glyph glyph-name="Q" unicode="Q" horiz-adv-x="1564" 
d="M287 704.5q0 -118.5 34.5 -221t100 -178.5t157 -117t200 -41t199.5 41t156.5 117t100.5 178.5t35 221t-35 221t-100.5 178.5t-156.5 117t-199.5 41t-200 -41t-157 -117t-100 -178.5t-34.5 -221zM90 704.5q0 319.5 192.5 524.5t495.5 205q302 0 495 -206.5t193 -533.5
t-219 -538l269 -279l-132 -131l-286 303q-144 -74 -308 -74t-290.5 54.5t-268 205t-141.5 470z" />
    <glyph glyph-name="R" unicode="R" horiz-adv-x="1335" 
d="M721 1245h-352v-532h352q138 0 216.5 77.5t78.5 197.5q0 121 -77.5 189t-217.5 68zM180 0v1409h533q361 0 426 -159.5t65 -247.5q0 -171 -81 -280.5t-228 -150.5l358 -571h-204l-351 549h-329v-549h-189z" />
    <glyph glyph-name="S" unicode="S" horiz-adv-x="1327" 
d="M115 401h188q0 -117 95 -193.5t261 -76.5t261.5 67.5t95.5 194.5q0 146 -123 181.5t-197 48.5l-90 16q-221 38 -346 117t-125 264t143 299.5t374 114.5t375 -108.5t144 -293.5h-188q0 115 -91.5 180.5t-234.5 65.5t-236 -61t-93 -172.5t87.5 -158t256.5 -75.5l90 -16
q211 -38 330.5 -120t119.5 -274t-149 -309t-405 -117t-399.5 116t-143.5 310z" />
    <glyph glyph-name="T" unicode="T" horiz-adv-x="1204" 
d="M16 1249v160h1172v-160h-492v-1249h-188v1249h-492z" />
    <glyph glyph-name="U" unicode="U" horiz-adv-x="1425" 
d="M147 557v852h189v-852q0 -300 141 -355t282 -55t236 107t95 303v852h188v-852q0 -442 -218 -512t-413.5 -70t-347.5 139t-152 443z" />
    <glyph glyph-name="V" unicode="V" horiz-adv-x="1269" 
d="M528 0l-512 1409h197l422 -1212h8l422 1212h188l-516 -1409h-209z" />
    <glyph glyph-name="W" unicode="W" horiz-adv-x="1916" 
d="M401 0l-376 1409h196l299 -1212h8l324 1212h229l324 -1212h8l291 1212h188l-368 -1409h-238l-319 1196h-9l-319 -1196h-238z" />
    <glyph glyph-name="X" unicode="X" horiz-adv-x="1220" 
d="M16 0l486 719l-469 690h213l362 -541l359 541h204l-460 -684l493 -725h-213l-387 575l-383 -575h-205z" />
    <glyph glyph-name="Y" unicode="Y" horiz-adv-x="1245" 
d="M524 0v553l-499 856h213l380 -664h9l397 664h197l-508 -842v-567h-189z" />
    <glyph glyph-name="Z" unicode="Z" horiz-adv-x="1196" 
d="M115 1249v160h1007v-123l-813 -1126h805v-160h-1040v123l813 1126h-772z" />
    <glyph glyph-name="bracketleft" unicode="[" horiz-adv-x="679" 
d="M344 -319h303v-148h-467v1991h467v-148h-303v-1695z" />
    <glyph glyph-name="backslash" unicode="\" horiz-adv-x="819" 
d="M647 -25l-631 1459h156l631 -1459h-156z" />
    <glyph glyph-name="bracketright" unicode="]" horiz-adv-x="679" 
d="M33 -319h303v1695h-303v148h467v-1991h-467v148z" />
    <glyph glyph-name="asciicircum" unicode="^" 
d="M111 721l385 688h180l385 -688h-189l-290 543l-291 -543h-180z" />
    <glyph glyph-name="underscore" unicode="_" horiz-adv-x="1024" 
d="M0 -147h1024v-140h-1024v140z" />
    <glyph glyph-name="grave" unicode="`" horiz-adv-x="1146" 
d="M508 1163l-295 336h213l213 -336h-131z" />
    <glyph glyph-name="a" unicode="a" horiz-adv-x="1073" 
d="M754 418v96q-28 -28 -58 -35.5t-49 -11.5l-188 -33q-180 -29 -180 -170t192 -141t237.5 111.5t45.5 183.5zM754 133q-82 -158 -332 -158q-148 0 -236 76t-88 267t328 243l197 33q86 16 108.5 31t22.5 53q0 87 -54 143t-159 56q-160 0 -193 -74t-37 -115h-172
q8 149 114 242.5t288 93.5q293 0 343 -141.5t50 -227.5v-655h-172v133h-8z" />
    <glyph glyph-name="b" unicode="b" horiz-adv-x="1196" 
d="M336 500q0 -173 83.5 -271t212 -98t211.5 103t83 274.5t-83.5 265.5t-209.5 94t-209.5 -94t-87.5 -258v-16zM328 156v-156h-172v1499h180v-237q0 -238 -8 -418h8q96 180 336 180q195 0 318.5 -138t123.5 -378t-131 -386.5t-328 -146.5q-232 0 -319 181h-8z" />
    <glyph glyph-name="c" unicode="c" horiz-adv-x="1056" 
d="M217 878.5q135 145.5 331 145.5q197 0 309.5 -99.5t133.5 -260.5h-180q-26 146 -111.5 175t-144.5 29t-111.5 -26.5t-91.5 -75.5t-60.5 -116.5t-21.5 -189.5t81.5 -225.5t197.5 -103.5q117 0 181 55t81 150h180q-21 -163 -134.5 -262t-316.5 -99t-330.5 141.5
t-127.5 379.5q0 237 135 382.5z" />
    <glyph glyph-name="d" unicode="d" horiz-adv-x="1196" 
d="M270 492q0 -86 22.5 -155t62.5 -114t94.5 -68.5t116 -23.5t115.5 24.5t94 71.5t62.5 117t22.5 156t-22.5 155.5t-62.5 116.5t-94 71.5t-115.5 24.5t-116 -25.5t-94.5 -74.5t-62.5 -119.5t-22.5 -156.5zM524 -25q-195 0 -318.5 138t-123.5 378t132 386.5t327 146.5
q231 0 319 -180h8q-8 180 -8 194v461h180v-1499h-172v156h-8q-96 -181 -336 -181z" />
    <glyph glyph-name="e" unicode="e" horiz-adv-x="1073" 
d="M815 610q-23 258 -258 258q-159 0 -211.5 -99t-64.5 -159h534zM218 877.5q136 146.5 337 146.5q202 0 323 -127t121 -348v-74h-729q4 -155 85.5 -249.5t223.5 -94.5q141 0 182.5 68.5t49.5 103.5h180q-20 -138 -138.5 -233t-287.5 -95q-231 0 -357 140.5t-126 378.5
q0 237 136 383.5z" />
    <glyph glyph-name="f" unicode="f" horiz-adv-x="630" 
d="M197 0v852h-189v147h189v164q0 250 127 293t208 43h123v-156h-106q-136 0 -154 -70.5t-18 -117.5v-156h246v-147h-246v-852h-180z" />
    <glyph glyph-name="g" unicode="g" horiz-adv-x="1196" 
d="M270 492q0 -86 22.5 -155t62.5 -114t94.5 -68.5t116 -23.5t115.5 24.5t94 71.5t62.5 117t22.5 156t-22.5 155.5t-62.5 116.5t-94 71.5t-115.5 24.5t-116 -25.5t-94.5 -74.5t-62.5 -119.5t-22.5 -156.5zM541 1024q231 0 319 -180h8v155h172v-950q0 -268 -137 -392
t-343 -124t-330 90.5t-124 253.5h173q0 -91 74.5 -143.5t195.5 -52.5q319 0 319 368v107h-8q-96 -181 -336 -181q-195 0 -318.5 138t-123.5 378t132 386.5t327 146.5z" />
    <glyph glyph-name="h" unicode="h" horiz-adv-x="1155" 
d="M336 852q80 172 322 172q151 0 254.5 -99.5t103.5 -318.5v-606h-180v582q0 286 -230 286q-117 0 -193.5 -95t-76.5 -251v-522h-180v1499h180v-233q0 -234 -8 -414h8z" />
    <glyph glyph-name="i" unicode="i" horiz-adv-x="491" 
d="M156 0v999h180v-999h-180zM147 1294v205h197v-205h-197z" />
    <glyph glyph-name="j" unicode="j" horiz-adv-x="491" 
d="M156 -147v1146h180v-1179q0 -271 -279 -271h-65v156h49q115 0 115 148zM147 1294v205h197v-205h-197z" />
    <glyph glyph-name="k" unicode="k" horiz-adv-x="1032" 
d="M156 0v1499h180v-981l434 481h213l-371 -399l412 -600h-213l-322 469l-153 -168v-301h-180z" />
    <glyph glyph-name="l" unicode="l" horiz-adv-x="491" 
d="M156 0v1499h180v-1499h-180z" />
    <glyph glyph-name="m" unicode="m" horiz-adv-x="1769" 
d="M729.5 1024q143.5 0 220.5 -203q96 203 338 203t292 -147.5t50 -253.5v-623h-180v598q0 210 -76 240t-157.5 30t-157.5 -95t-76 -253v-520h-180v598q0 209 -77 239.5t-129 30.5q-110 0 -185.5 -96.5t-75.5 -253.5v-518h-180v999h172v-147h8q57 123 153.5 147.5t240 24.5z
" />
    <glyph glyph-name="n" unicode="n" horiz-adv-x="1155" 
d="M336 852q80 172 322 172q151 0 254.5 -99.5t103.5 -318.5v-606h-180v582q0 286 -230 286q-115 0 -192.5 -94.5t-77.5 -255.5v-518h-180v999h172v-147h8z" />
    <glyph glyph-name="o" unicode="o" horiz-adv-x="1146" 
d="M573.5 131q133.5 0 218.5 100.5t85 269.5t-84.5 268t-218.5 99t-219 -99.5t-85 -268t85 -269t218.5 -100.5zM220.5 881.5q138.5 142.5 358.5 142.5t353 -141.5t133 -382t-138.5 -383t-358.5 -142.5t-353 141.5t-133 382t138.5 383z" />
    <glyph glyph-name="p" unicode="p" horiz-adv-x="1196" 
d="M842.5 774q-83.5 94 -209.5 94t-209.5 -94t-87.5 -258v-16q0 -173 83.5 -271t212 -98t211.5 103t83 274.5t-83.5 265.5zM336 -38v-413h-180v1450h172v-155h8q96 180 336 180q195 0 318.5 -138t123.5 -378t-131 -386.5t-328 -146.5q-232 0 -319 181h-8q8 -180 8 -194z" />
    <glyph glyph-name="q" unicode="q" horiz-adv-x="1187" 
d="M353.5 225q83.5 -94 209.5 -94t209.5 94t87.5 256v35q-4 164 -87.5 258t-209.5 94t-209.5 -102t-83.5 -274.5t83.5 -266.5zM541 1024q231 0 319 -180h8v155h172v-1450h-180v213q0 214 8 394h-8q-96 -181 -336 -181q-195 0 -318.5 138t-123.5 378t132 386.5t327 146.5z
" />
    <glyph glyph-name="r" unicode="r" horiz-adv-x="737" 
d="M558 852q-104 0 -163 -91.5t-59 -238.5v-522h-180v999h172v-145h6q75 170 264 170q77 0 139 -41l-57 -164q-66 33 -122 33z" />
    <glyph glyph-name="s" unicode="s" horiz-adv-x="1007" 
d="M737 279q0 103 -155 131l-189 32q-130 23 -185.5 64t-80.5 89t-25 119q0 141 114 225.5t284 84.5q271 0 332 -112.5t61 -190.5h-172q0 77 -59.5 120.5t-157.5 43.5t-161.5 -40t-63.5 -118t63.5 -100.5t108.5 -30.5l188 -33q279 -46 279 -268q0 -155 -116.5 -237.5
t-305.5 -82.5t-301.5 81t-112.5 231h172q0 -85 70 -128.5t168 -43.5q245 0 245 164z" />
    <glyph glyph-name="t" unicode="t" horiz-adv-x="671" 
d="M475 0q-295 0 -295 295v557h-188v147h188v304h180v-304h263v-147h-263v-549q0 -116 51.5 -131.5t88.5 -15.5h123v-156h-148z" />
    <glyph glyph-name="u" unicode="u" horiz-adv-x="1146" 
d="M319 418q0 -287 230 -287q115 0 188.5 95.5t73.5 256.5v516h180v-999h-172v147h-8q-92 -172 -303 -172q-259 0 -314 152.5t-55 265.5v606h180v-581z" />
    <glyph glyph-name="v" unicode="v" horiz-adv-x="958" 
d="M385 0l-377 999h197l278 -802h9l278 802h180l-368 -999h-197z" />
    <glyph glyph-name="w" unicode="w" horiz-adv-x="1482" 
d="M295 0l-287 999h189l204 -811h9l229 811h213l229 -811h9l204 811h181l-287 -999h-221l-222 819h-8l-221 -819h-221z" />
    <glyph glyph-name="x" unicode="x" horiz-adv-x="950" 
d="M25 0l352 504l-344 495h213l239 -358l236 358h197l-347 -493l355 -506h-213l-248 371l-244 -371h-196z" />
    <glyph glyph-name="y" unicode="y" horiz-adv-x="958" 
d="M68 -311h65q171 0 246 205l22 63l-393 1042h197l278 -802h9l278 802h180l-424 -1155q-117 -311 -360 -311h-98v156z" />
    <glyph glyph-name="z" unicode="z" horiz-adv-x="909" 
d="M66 852v147h770v-122l-531 -730h539v-147h-770v106l540 746h-548z" />
    <glyph glyph-name="braceleft" unicode="{" horiz-adv-x="729" 
d="M270 -156v361q0 155 -46 212.5t-183 57.5v123q137 0 183 57.5t46 212.5v344q0 154 71 233t249 79h106v-140h-98q-94 0 -129 -37.5t-35 -125.5v-402q0 -172 -73.5 -218t-131.5 -60v-9q160 -39 182.5 -130t22.5 -148v-418q0 -88 35.5 -126t128.5 -38h98v-139h-106
q-178 0 -249 79t-71 232z" />
    <glyph glyph-name="bar" unicode="|" horiz-adv-x="524" 
d="M180 -492v2048h164v-2048h-164z" />
    <glyph glyph-name="braceright" unicode="}" horiz-adv-x="729" 
d="M33 -328h98q93 0 128.5 37.5t35.5 126.5v418q0 170 73.5 217t131.5 61v9q-160 39 -182.5 130t-22.5 148v402q0 89 -35 126t-129 37h-98v140h106q178 0 249 -79t71 -233v-344q0 -155 46 -212.5t183 -57.5v-123q-137 0 -183 -57.5t-46 -212.5v-361q0 -236 -115 -273.5
t-205 -37.5h-106v139z" />
    <glyph glyph-name="asciitilde" unicode="~" 
d="M377 541q-107 0 -107 -164h-155q0 227 104.5 269t162.5 42t110.5 -20.5t119 -60.5t100 -57.5t74.5 -17.5q107 0 107 156h156q0 -148 -73 -229.5t-181 -81.5q-63 0 -117.5 21.5t-123.5 64.5t-103.5 60.5t-73.5 17.5z" />
    <glyph glyph-name="uni00A0" unicode="&#xa0;" horiz-adv-x="450" 
 />
    <glyph glyph-name="exclamdown" unicode="&#xa1;" horiz-adv-x="573" 
d="M393 -410h-213v394l58 622h98l57 -622v-394zM180 778v221h213v-221h-213z" />
    <glyph glyph-name="cent" unicode="&#xa2;" 
d="M516 -25v220q-189 29 -295 166.5t-106 349.5t115.5 351.5t293.5 168.5v203h181v-205q146 -23 238.5 -117.5t113.5 -234.5h-180q-17 90 -85 147t-191 57t-210.5 -101.5t-87.5 -266t87 -267t216 -102.5q175 0 218.5 81t52.5 124h180q-31 -219 -157 -280.5t-204 -73.5v-220
h-180z" />
    <glyph glyph-name="sterling" unicode="&#xa3;" 
d="M309 117.5q32 35.5 56 103.5q-18 10 -35 19.5t-41.5 19.5t-51.5 10q-28 0 -45.5 -7t-31 -19.5t-21.5 -29.5t-8 -37.5t6 -38t25.5 -37t67.5 -19.5q47 0 79 35.5zM483 137q-88 -162 -265 -162q-95 0 -152.5 53.5t-57.5 120.5q0 119 67.5 177.5t153.5 58.5t160 -33
q2 12 2 14l1 12l1 40q0 92 -19.5 153.5t-29.5 96.5h-221v127h178q-55 179 -55 269q0 174 104 272t273 98q249 0 305.5 -136.5t62.5 -224.5h-180q-18 167 -85 190t-109 23q-83 0 -137 -53t-54 -156q0 -102 68 -282h325v-127h-282q28 -117 28 -200t-28 -200q84 -57 99 -67.5
t72.5 -40t118.5 -29.5q133 0 140 205h155q-14 -249 -118 -305t-166 -56q-101 0 -172 39t-183 123z" />
    <glyph glyph-name="currency" unicode="&#xa4;" 
d="M582 500q41 0 76.5 14t62.5 41t42 65.5t15 84t-15 84t-42 65.5t-62.5 41t-76.5 14t-77 -14t-62.5 -41t-42 -65.5t-15.5 -84t15.5 -84t42 -65.5t62.5 -41t77 -14zM238 703.5q0 102.5 65 195.5l-123 125l90 90l123 -127q88 53 187.5 53t187.5 -53l125 127l90 -90l-123 -125
q66 -94 66 -194.5t-64 -190.5l121 -121l-90 -90l-119 121q-79 -55 -191 -55t-194 55l-119 -121l-90 90l119 121q-61 87 -61 189.5z" />
    <glyph glyph-name="yen" unicode="&#xa5;" 
d="M180 508v115h312v12l-459 774h205l348 -606h8l348 606h188l-458 -780v-6h311v-115h-311v-156h311v-114h-311v-238h-180v238h-312v114h312v156h-312z" />
    <glyph glyph-name="brokenbar" unicode="&#xa6;" horiz-adv-x="524" 
d="M180 -336v721h164v-721h-164zM180 688v721h164v-721h-164z" />
    <glyph glyph-name="section" unicode="&#xa7;" horiz-adv-x="1171" 
d="M295 494q0 -89 53 -140t168 -84l117 -37q113 23 178.5 87t65.5 147q0 137 -81.5 174t-140.5 55l-133 39q-164 -42 -195.5 -119t-31.5 -122zM1008 -115q0 -163 -120.5 -257.5t-365 -94.5t-311 122t-72.5 206h172q11 -140 109 -164.5t156 -24.5q118 0 184.5 51.5
t66.5 136.5t-48 125.5t-148 71.5l-189 58q-246 73 -282.5 182t-36.5 170q0 117 64 200.5t175 125.5q-198 84 -198 288q0 163 120.5 258t364.5 95t310.5 -122t72.5 -206h-172q-15 188 -262 188q-187 0 -220.5 -75.5t-33.5 -117.5q0 -79 47.5 -118.5t149.5 -73.5l188 -57
q248 -74 284 -182.5t36 -170.5q0 -117 -65 -200t-175 -125q199 -88 199 -289z" />
    <glyph glyph-name="dieresis" unicode="&#xa8;" horiz-adv-x="1146" 
d="M279 1237v188h180v-188h-180zM688 1237v188h180v-188h-180z" />
    <glyph glyph-name="copyright" unicode="&#xa9;" horiz-adv-x="1589" 
d="M795 475q129 0 163 115h144q-20 -106 -99.5 -172t-223.5 -66t-240.5 105t-96.5 256t96.5 255.5t270.5 104.5t228.5 -92t64.5 -145h-144q-34 114 -163 114q-89 0 -147 -67t-58 -169.5t57.5 -170.5t147.5 -68zM384 278q163 -180 408 -180t410.5 180.5t165.5 433.5
t-161.5 422t-412 169t-412 -169t-161.5 -422.5t163 -433.5zM74 712.5q0 151.5 53 284.5t206.5 285t460.5 152t514.5 -207.5t207.5 -436.5t-53.5 -364t-152 -236.5t-230.5 -158t-285.5 -56.5t-285.5 56.5t-230.5 158t-151.5 236.5t-53 286.5z" />
    <glyph glyph-name="ordfeminine" unicode="&#xaa;" horiz-adv-x="790" 
d="M359 803q72 0 122.5 46.5t50.5 137.5v64q-15 -23 -36 -27t-33 -6l-115 -14q-110 -15 -110 -103q0 -98 121 -98zM532 791q-58 -103 -231 -103q-101 0 -164 54t-63 147q0 184 235 215l133 16q58 9 74 20.5t16 39.5q0 54 -34.5 90.5t-98.5 36.5q-92 0 -114.5 -46.5
t-24.5 -76.5h-154q8 123 90 183t203 60q214 0 255.5 -95t41.5 -158v-469h-157v86h-7z" />
    <glyph glyph-name="guillemotleft" unicode="&#xab;" horiz-adv-x="1048" 
d="M401 98l-295 418l295 418h148l-238 -418l238 -418h-148zM500 516l295 418h147l-237 -418l237 -418h-147z" />
    <glyph glyph-name="logicalnot" unicode="&#xac;" 
d="M115 442v156h934v-541h-164v385h-770z" />
    <glyph glyph-name="uni00AD" unicode="&#xad;" horiz-adv-x="811" 
d="M123 434v164h565v-164h-565z" />
    <glyph glyph-name="registered" unicode="&#xae;" horiz-adv-x="1589" 
d="M950 880.5q0 61.5 -123 61.5h-172v-205h172q89 0 106 41t17 102.5zM508 360v705h323q194 0 230.5 -85t36.5 -128q0 -78 -43.5 -137t-112.5 -82l180 -273h-159l-158 254h-150v-254h-147zM384 278q163 -180 408 -180t410.5 180.5t165.5 433.5t-161.5 422t-412 169
t-412 -169t-161.5 -422.5t163 -433.5zM74 712.5q0 151.5 53 284.5t206.5 285t460.5 152t514.5 -207.5t207.5 -436.5t-53.5 -364t-152 -236.5t-230.5 -158t-285.5 -56.5t-285.5 56.5t-230.5 158t-151.5 236.5t-53 286.5z" />
    <glyph glyph-name="macron" unicode="&#xaf;" horiz-adv-x="1146" 
d="M287 1262v139h565v-139h-565z" />
    <glyph glyph-name="degree" unicode="&#xb0;" horiz-adv-x="737" 
d="M368.5 1303q-28.5 0 -54 -10.5t-45 -31t-30 -47t-10.5 -59.5t10.5 -59.5t30 -47t45 -30.5t54 -10t54.5 10t45 30.5t29.5 47t10.5 59.5t-10.5 59.5t-29.5 47t-45 31t-54.5 10.5zM368.5 877q-59.5 0 -112.5 20.5t-92 57t-60.5 88t-21.5 113t21.5 112.5t60.5 88t92 57.5
t112.5 20.5t113 -20.5t92 -57.5t60 -88t21.5 -112.5t-21.5 -113t-60 -88t-92 -57t-113 -20.5z" />
    <glyph glyph-name="plusminus" unicode="&#xb1;" 
d="M115 0v156h934v-156h-934zM115 647v156h385v356h164v-356h385v-156h-385v-356h-164v356h-385z" />
    <glyph glyph-name="twosuperior" unicode="&#xb2;" horiz-adv-x="720" 
d="M483 1516q0 98 -109 98t-130 -50.5t-23 -80.5h-147q6 189 117.5 221.5t170.5 32.5q123 0 200 -57t77 -169q0 -111 -87 -159.5t-142 -75.5l-50 -25q-35 -15 -74.5 -48.5t-39.5 -55.5h393v-131h-573q0 195 90 258t139 88l49 24q104 54 121.5 82.5t17.5 47.5z" />
    <glyph glyph-name="threesuperior" unicode="&#xb3;" horiz-adv-x="720" 
d="M398.5 1114q105.5 0 105.5 79.5t-38.5 106.5t-105.5 27h-57v107h57q90 0 108.5 35.5t18.5 58t-9 40t-25.5 30t-40 18.5t-67.5 6t-78 -30t-34 -76h-147q0 160 110 190.5t172 30.5q121 0 196 -55.5t75 -144.5t-44 -117.5t-71 -35.5v-6q95 -18 117.5 -79.5t22.5 -102.5
q0 -90 -81 -143.5t-223 -53.5q-290 0 -290 230h147q0 -53 38 -84t143.5 -31z" />
    <glyph glyph-name="acute" unicode="&#xb4;" horiz-adv-x="1146" 
d="M508 1163l213 336h213l-295 -336h-131z" />
    <glyph glyph-name="mu" unicode="&#xb5;" 
d="M336 -295v-156h-180v1450h180v-581q0 -224 86 -255.5t172.5 -31.5t159.5 95t73 257v516h181v-999h-172v147h-9q-92 -172 -303 -172q-123 0 -200 58h-13q25 -178 25 -328z" />
    <glyph glyph-name="paragraph" unicode="&#xb6;" horiz-adv-x="1286" 
d="M541 0v510q-214 16 -336.5 136.5t-122.5 319.5t138 321t378 122h123v-1409h-180zM893 0v1409h180v-1409h-180z" />
    <glyph glyph-name="periodcentered" unicode="&#xb7;" horiz-adv-x="540" 
d="M156 401v230h229v-230h-229z" />
    <glyph glyph-name="cedilla" unicode="&#xb8;" horiz-adv-x="1146" 
d="M655 -254q0 82 -106 82h-66l58 172h65v-74q133 -6 161 -74.5t28 -108.5q0 -84 -61 -139t-177 -55h-115v115h107q79 0 92.5 28.5t13.5 53.5z" />
    <glyph glyph-name="onesuperior" unicode="&#xb9;" horiz-adv-x="720" 
d="M467 1720v-573h188v-131h-549v131h205v385l-164 -94l-65 110l287 172h98z" />
    <glyph glyph-name="ordmasculine" unicode="&#xba;" horiz-adv-x="845" 
d="M422 819q43 0 79 17.5t61.5 49.5t38.5 75t13 96t-13 97t-38.5 76t-61.5 48t-79 16t-78 -16t-60.5 -48t-39 -76t-13.5 -97t13.5 -96t39 -75t60.5 -49.5t78 -17.5zM421 688q-164 0 -262 99.5t-98 268.5t99 270t264 101t262.5 -99.5t97.5 -268.5t-99.5 -270t-263.5 -101z
" />
    <glyph glyph-name="guillemotright" unicode="&#xbb;" horiz-adv-x="1048" 
d="M106 98l238 418l-238 418h148l295 -418l-295 -418h-148zM500 98l237 418l-237 418h147l295 -418l-295 -418h-147z" />
    <glyph glyph-name="onequarter" unicode="&#xbc;" horiz-adv-x="1589" 
d="M1278 254v240l-191 -240h191zM467 1409v-573h188v-131h-549v131h205v385l-164 -95l-65 111l287 172h98zM442 -25l713 1459h139l-712 -1459h-140zM918 131v98l385 476h131v-451h98v-123h-98v-131h-156v131h-360z" />
    <glyph glyph-name="onehalf" unicode="&#xbd;" horiz-adv-x="1589" 
d="M467 1409v-573h188v-131h-549v131h205v385l-164 -95l-65 111l287 172h98zM393 -25l713 1459h139l-713 -1459h-139zM1352 500q0 98 -109.5 98t-130 -50t-22.5 -81h-148q6 189 117 221.5t171 32.5q124 0 200.5 -57.5t76.5 -167.5t-87 -159.5t-142 -76.5l-49 -24
q-69 -30 -92 -62.5t-23 -42.5h393v-131h-573q0 194 90 258t139 88l49 25q103 53 121.5 81.5t18.5 47.5z" />
    <glyph glyph-name="threequarters" unicode="&#xbe;" horiz-adv-x="1589" 
d="M1278 254v240l-191 -240h191zM418 -25l712 1459h140l-713 -1459h-139zM398.5 803q105.5 0 105.5 79.5t-38.5 106.5t-105.5 27h-57v106h57q90 0 108.5 36t18.5 58.5t-9 40t-25.5 29.5t-40 18.5t-66.5 6.5t-78 -29.5t-35 -77.5h-147q0 105 76 163t207 58q186 0 228 -76.5
t42 -112.5q0 -66 -31 -108.5t-84 -54.5v-6q95 -18 117.5 -79.5t22.5 -102.5q0 -90 -81 -143.5t-223 -53.5q-290 0 -290 230h147q0 -53 38 -84t143.5 -31zM918 131v98l385 476h131v-451h98v-123h-98v-131h-156v131h-360z" />
    <glyph glyph-name="questiondown" unicode="&#xbf;" horiz-adv-x="1032" 
d="M82 -52q0 98 47 167t138 141t133 123t42 137v82h181v-57q0 -129 -46.5 -207t-138.5 -151.5t-130 -116t-38 -106.5q0 -112 65.5 -175.5t185.5 -63.5q119 0 188 83.5t69 211.5h180q0 -187 -116 -318.5t-320 -131.5q-203 0 -321.5 98.5t-118.5 283.5zM426 778v221h213v-221
h-213z" />
    <glyph glyph-name="Agrave" unicode="&#xc0;" horiz-adv-x="1318" 
d="M590 1573l-295 336h213l213 -336h-131zM659 1212h-8l-245 -680h499zM25 0l524 1409h221l524 -1409h-196l-133 369h-619l-133 -369h-188z" />
    <glyph glyph-name="Aacute" unicode="&#xc1;" horiz-adv-x="1318" 
d="M590 1573l213 336h213l-295 -336h-131zM659 1212h-8l-245 -680h499zM25 0l524 1409h221l524 -1409h-196l-133 369h-619l-133 -369h-188z" />
    <glyph glyph-name="Acircumflex" unicode="&#xc2;" horiz-adv-x="1318" 
d="M311 1573l262 336h164l262 -336h-172l-172 229l-172 -229h-172zM659 1212h-8l-245 -680h499zM25 0l524 1409h221l524 -1409h-196l-133 369h-619l-133 -369h-188z" />
    <glyph glyph-name="Atilde" unicode="&#xc3;" horiz-adv-x="1318" 
d="M508 1671q-68 0 -90 -98h-99q7 154 79.5 187.5t115.5 33.5t81 -13.5t89 -39t73.5 -35.5t45.5 -10q68 0 90 98h98q-7 -154 -79 -187.5t-115 -33.5t-81 13t-89.5 39t-74 36t-44.5 10zM659 1212h-8l-245 -680h499zM25 0l524 1409h221l524 -1409h-196l-133 369h-619
l-133 -369h-188z" />
    <glyph glyph-name="Adieresis" unicode="&#xc4;" horiz-adv-x="1318" 
d="M360 1573v188h181v-188h-181zM770 1573v188h180v-188h-180zM659 1212h-8l-245 -680h499zM25 0l524 1409h221l524 -1409h-196l-133 369h-619l-133 -369h-188z" />
    <glyph glyph-name="Aring" unicode="&#xc5;" horiz-adv-x="1318" 
d="M655.5 1655q22.5 0 42 8t33.5 22.5t22.5 34t8.5 42t-8.5 42t-22.5 33.5t-33.5 22.5t-42 8.5t-42 -8.5t-34 -22.5t-22.5 -33.5t-8 -42t8 -42t22.5 -34t34 -22.5t42 -8zM655 1565q-41 0 -77.5 14t-65.5 41t-45 62.5t-16 78.5t16 79t45 62.5t65.5 41t77.5 14.5t78 -14.5
t65.5 -41t45 -62.5t16.5 -79t-16.5 -78.5t-45 -62.5t-65.5 -41t-78 -14zM659 1212h-8l-245 -680h499zM25 0l524 1409h221l524 -1409h-196l-133 369h-619l-133 -369h-188z" />
    <glyph glyph-name="AE" unicode="&#xc6;" horiz-adv-x="2179" 
d="M1106 492v696h-8l-500 -696h508zM2056 1409v-164h-762v-446h607v-164h-607v-471h779v-164h-967v328h-625l-235 -328h-221l1015 1409h1016z" />
    <glyph glyph-name="Ccedilla" unicode="&#xc7;" horiz-adv-x="1458" 
d="M844 -254q0 82 -107 82h-65l49 149q-285 16 -458 217t-173 515t191 519.5t489 205.5q239 0 395.5 -126t202.5 -341h-194q-82 295 -404 295q-216 0 -349.5 -155t-133.5 -399t132.5 -402.5t342.5 -158.5q254 0 322.5 112t89.5 183h194q-41 -204 -192 -330.5t-381 -136.5
v-49q132 -6 160 -74.5t28 -108.5q0 -84 -61 -139t-177 -55h-114v115h106q55 0 81 19t26 63z" />
    <glyph glyph-name="Egrave" unicode="&#xc8;" horiz-adv-x="1253" 
d="M590 1573l-295 336h213l213 -336h-131zM180 0v1409h950v-164h-761v-446h606v-164h-606v-471h778v-164h-967z" />
    <glyph glyph-name="Eacute" unicode="&#xc9;" horiz-adv-x="1253" 
d="M590 1573l213 336h213l-295 -336h-131zM180 0v1409h950v-164h-761v-446h606v-164h-606v-471h778v-164h-967z" />
    <glyph glyph-name="Ecircumflex" unicode="&#xca;" horiz-adv-x="1253" 
d="M311 1573l262 336h164l262 -336h-172l-172 229l-172 -229h-172zM180 0v1409h950v-164h-761v-446h606v-164h-606v-471h778v-164h-967z" />
    <glyph glyph-name="Edieresis" unicode="&#xcb;" horiz-adv-x="1253" 
d="M360 1573v188h181v-188h-181zM770 1573v188h180v-188h-180zM180 0v1409h950v-164h-761v-446h606v-164h-606v-471h778v-164h-967z" />
    <glyph glyph-name="Igrave" unicode="&#xcc;" horiz-adv-x="548" 
d="M209 1573l-295 336h213l213 -336h-131zM180 0v1409h189v-1409h-189z" />
    <glyph glyph-name="Iacute" unicode="&#xcd;" horiz-adv-x="548" 
d="M209 1573l213 336h213l-295 -336h-131zM180 0v1409h189v-1409h-189z" />
    <glyph glyph-name="Icircumflex" unicode="&#xce;" horiz-adv-x="548" 
d="M-70 1573l263 336h163l262 -336h-172l-172 229l-172 -229h-172zM180 0v1409h189v-1409h-189z" />
    <glyph glyph-name="Idieresis" unicode="&#xcf;" horiz-adv-x="548" 
d="M-20 1573v188h180v-188h-180zM389 1573v188h180v-188h-180zM180 0v1409h189v-1409h-189z" />
    <glyph glyph-name="Eth" unicode="&#xd0;" horiz-adv-x="1441" 
d="M614 1245h-245v-459h327v-155h-327v-467h245q279 0 410 151.5t131 389t-131 389t-410 151.5zM8 631v155h172v623h434q357 0 547.5 -194t190.5 -510.5t-190.5 -510.5t-547.5 -194h-434v631h-172z" />
    <glyph glyph-name="Ntilde" unicode="&#xd1;" horiz-adv-x="1507" 
d="M606 1671q-68 0 -90 -98h-98q7 154 79 187.5t115 33.5t81 -13.5t89.5 -39t74 -35.5t44.5 -10q68 0 90 98h99q-7 -154 -79.5 -187.5t-115.5 -33.5t-81 13t-89 39t-73.5 36t-45.5 10zM180 0v1409h180l779 -1090h8l-8 1090h188v-1409h-180l-778 1081h-9l9 -1081h-189z" />
    <glyph glyph-name="Ograve" unicode="&#xd2;" horiz-adv-x="1556" 
d="M713 1573l-295 336h213l213 -336h-131zM287 704.5q0 -118.5 34.5 -221t100 -178.5t157 -117t200 -41t199.5 41t156.5 117t100.5 178.5t35 221t-35 221t-100.5 178.5t-156.5 117t-199.5 41t-200 -41t-157 -117t-100 -178.5t-34.5 -221zM90 704.5q0 319.5 192.5 524.5
t495.5 205q302 0 495 -206.5t193 -523t-193 -523t-495 -206.5t-495 205t-193 524.5z" />
    <glyph glyph-name="Oacute" unicode="&#xd3;" horiz-adv-x="1556" 
d="M713 1573l213 336h213l-295 -336h-131zM287 704.5q0 -118.5 34.5 -221t100 -178.5t157 -117t200 -41t199.5 41t156.5 117t100.5 178.5t35 221t-35 221t-100.5 178.5t-156.5 117t-199.5 41t-200 -41t-157 -117t-100 -178.5t-34.5 -221zM90 704.5q0 319.5 192.5 524.5
t495.5 205q302 0 495 -206.5t193 -523t-193 -523t-495 -206.5t-495 205t-193 524.5z" />
    <glyph glyph-name="Ocircumflex" unicode="&#xd4;" horiz-adv-x="1556" 
d="M434 1573l262 336h164l262 -336h-172l-172 229l-172 -229h-172zM287 704.5q0 -118.5 34.5 -221t100 -178.5t157 -117t200 -41t199.5 41t156.5 117t100.5 178.5t35 221t-35 221t-100.5 178.5t-156.5 117t-199.5 41t-200 -41t-157 -117t-100 -178.5t-34.5 -221zM90 704.5
q0 319.5 192.5 524.5t495.5 205q302 0 495 -206.5t193 -523t-193 -523t-495 -206.5t-495 205t-193 524.5z" />
    <glyph glyph-name="Otilde" unicode="&#xd5;" horiz-adv-x="1556" 
d="M631 1671q-68 0 -90 -98h-99q7 154 79.5 187.5t115.5 33.5t81 -13.5t89 -39t73.5 -35.5t45.5 -10q68 0 90 98h98q-7 -154 -79 -187.5t-115 -33.5t-81 13t-89.5 39t-74 36t-44.5 10zM287 704.5q0 -118.5 34.5 -221t100 -178.5t157 -117t200 -41t199.5 41t156.5 117
t100.5 178.5t35 221t-35 221t-100.5 178.5t-156.5 117t-199.5 41t-200 -41t-157 -117t-100 -178.5t-34.5 -221zM90 704.5q0 319.5 192.5 524.5t495.5 205q302 0 495 -206.5t193 -523t-193 -523t-495 -206.5t-495 205t-193 524.5z" />
    <glyph glyph-name="Odieresis" unicode="&#xd6;" horiz-adv-x="1556" 
d="M483 1573v188h181v-188h-181zM893 1573v188h180v-188h-180zM287 704.5q0 -118.5 34.5 -221t100 -178.5t157 -117t200 -41t199.5 41t156.5 117t100.5 178.5t35 221t-35 221t-100.5 178.5t-156.5 117t-199.5 41t-200 -41t-157 -117t-100 -178.5t-34.5 -221zM90 704.5
q0 319.5 192.5 524.5t495.5 205q302 0 495 -206.5t193 -523t-193 -523t-495 -206.5t-495 205t-193 524.5z" />
    <glyph glyph-name="multiply" unicode="&#xd7;" 
d="M156 844l106 106l320 -323l319 323l107 -106l-322 -324l322 -323l-107 -107l-319 324l-320 -324l-106 107l319 323z" />
    <glyph glyph-name="Oslash" unicode="&#xd8;" horiz-adv-x="1556" 
d="M778 1262q-220 0 -355.5 -157t-135.5 -385t112 -388l670 831q-125 99 -291 99zM778 147q220 0 356 157.5t136 391.5t-115 381l-670 -833q131 -97 293 -97zM281 182q-191 208 -191 524t193.5 522t494.5 206q216 0 404 -131l104 131h156l-168 -211q192 -209 192 -522
q0 -312 -144 -464.5t-271 -207t-273 -54.5q-231 0 -405 127l-103 -127h-155z" />
    <glyph glyph-name="Ugrave" unicode="&#xd9;" horiz-adv-x="1425" 
d="M647 1573l-295 336h213l213 -336h-131zM147 557v852h189v-852q0 -300 141 -355t282 -55t236 107t95 303v852h188v-852q0 -442 -218 -512t-413.5 -70t-347.5 139t-152 443z" />
    <glyph glyph-name="Uacute" unicode="&#xda;" horiz-adv-x="1425" 
d="M647 1573l213 336h213l-295 -336h-131zM147 557v852h189v-852q0 -300 141 -355t282 -55t236 107t95 303v852h188v-852q0 -442 -218 -512t-413.5 -70t-347.5 139t-152 443z" />
    <glyph glyph-name="Ucircumflex" unicode="&#xdb;" horiz-adv-x="1425" 
d="M369 1573l262 336h164l262 -336h-172l-172 229l-172 -229h-172zM147 557v852h189v-852q0 -300 141 -355t282 -55t236 107t95 303v852h188v-852q0 -442 -218 -512t-413.5 -70t-347.5 139t-152 443z" />
    <glyph glyph-name="Udieresis" unicode="&#xdc;" horiz-adv-x="1425" 
d="M418 1573v188h180v-188h-180zM827 1573v188h181v-188h-181zM147 557v852h189v-852q0 -300 141 -355t282 -55t236 107t95 303v852h188v-852q0 -442 -218 -512t-413.5 -70t-347.5 139t-152 443z" />
    <glyph glyph-name="Yacute" unicode="&#xdd;" horiz-adv-x="1245" 
d="M557 1573l213 336h213l-295 -336h-131zM524 0v553l-499 856h213l380 -664h9l397 664h197l-508 -842v-567h-189z" />
    <glyph glyph-name="Thorn" unicode="&#xde;" horiz-adv-x="1302" 
d="M369 1016v-590h352q144 0 223.5 85.5t79.5 215.5t-77.5 209.5t-225.5 79.5h-352zM180 0v1409h189v-229h344q235 0 367 -124t132 -328q0 -205 -132.5 -335.5t-366.5 -130.5h-344v-262h-189z" />
    <glyph glyph-name="germandbls" unicode="&#xdf;" 
d="M590 1376q-254 0 -254 -327v-1049h-180v1049q0 240 120.5 357.5t313.5 117.5q192 0 288.5 -91.5t96.5 -220.5q0 -72 -28.5 -122t-85 -106t-78 -81.5t-21.5 -71.5t28.5 -72t126 -97.5t143.5 -138.5t46 -161q0 -177 -114 -269.5t-296 -92.5h-172v147h172q102 0 166 48.5
t64 133.5t-39 129t-122 99t-125 110.5t-42 139.5t27.5 131t82 99.5t79 87t24.5 76.5q0 78 -54.5 126.5t-166.5 48.5z" />
    <glyph glyph-name="agrave" unicode="&#xe0;" horiz-adv-x="1073" 
d="M483 1163l-295 336h213l213 -336h-131zM754 418v96q-28 -28 -58 -35.5t-49 -11.5l-188 -33q-180 -29 -180 -170t192 -141t237.5 111.5t45.5 183.5zM754 133q-82 -158 -332 -158q-148 0 -236 76t-88 267t328 243l197 33q86 16 108.5 31t22.5 53q0 87 -54 143t-159 56
q-160 0 -193 -74t-37 -115h-172q8 149 114 242.5t288 93.5q293 0 343 -141.5t50 -227.5v-655h-172v133h-8z" />
    <glyph glyph-name="aacute" unicode="&#xe1;" horiz-adv-x="1073" 
d="M451 1163l213 336h213l-295 -336h-131zM754 418v96q-28 -28 -58 -35.5t-49 -11.5l-188 -33q-180 -29 -180 -170t192 -141t237.5 111.5t45.5 183.5zM754 133q-82 -158 -332 -158q-148 0 -236 76t-88 267t328 243l197 33q86 16 108.5 31t22.5 53q0 87 -54 143t-159 56
q-160 0 -193 -74t-37 -115h-172q8 149 114 242.5t288 93.5q293 0 343 -141.5t50 -227.5v-655h-172v133h-8z" />
    <glyph glyph-name="acircumflex" unicode="&#xe2;" horiz-adv-x="1073" 
d="M188 1163l263 336h163l263 -336h-172l-173 230l-172 -230h-172zM754 418v96q-28 -28 -58 -35.5t-49 -11.5l-188 -33q-180 -29 -180 -170t192 -141t237.5 111.5t45.5 183.5zM754 133q-82 -158 -332 -158q-148 0 -236 76t-88 267t328 243l197 33q86 16 108.5 31t22.5 53
q0 87 -54 143t-159 56q-160 0 -193 -74t-37 -115h-172q8 149 114 242.5t288 93.5q293 0 343 -141.5t50 -227.5v-655h-172v133h-8z" />
    <glyph glyph-name="atilde" unicode="&#xe3;" horiz-adv-x="1073" 
d="M385 1319q-68 0 -90 -98h-98q7 155 79 188t115 33t81 -13.5t89 -39t73.5 -36t45.5 -10.5q69 0 90 99h98q-7 -156 -79 -188.5t-115 -32.5t-81 13t-89 38.5t-73.5 36t-45.5 10.5zM754 418v96q-28 -28 -58 -35.5t-49 -11.5l-188 -33q-180 -29 -180 -170t192 -141
t237.5 111.5t45.5 183.5zM754 133q-82 -158 -332 -158q-148 0 -236 76t-88 267t328 243l197 33q86 16 108.5 31t22.5 53q0 87 -54 143t-159 56q-160 0 -193 -74t-37 -115h-172q8 149 114 242.5t288 93.5q293 0 343 -141.5t50 -227.5v-655h-172v133h-8z" />
    <glyph glyph-name="adieresis" unicode="&#xe4;" horiz-adv-x="1073" 
d="M238 1237v188h180v-188h-180zM647 1237v188h180v-188h-180zM754 418v96q-28 -28 -58 -35.5t-49 -11.5l-188 -33q-180 -29 -180 -170t192 -141t237.5 111.5t45.5 183.5zM754 133q-82 -158 -332 -158q-148 0 -236 76t-88 267t328 243l197 33q86 16 108.5 31t22.5 53
q0 87 -54 143t-159 56q-160 0 -193 -74t-37 -115h-172q8 149 114 242.5t288 93.5q293 0 343 -141.5t50 -227.5v-655h-172v133h-8z" />
    <glyph glyph-name="aring" unicode="&#xe5;" horiz-adv-x="1073" 
d="M532.5 1245q22.5 0 42 8.5t34 22.5t22.5 33.5t8 42t-8 42t-22.5 34t-34 22.5t-42 8t-42 -8t-34 -22.5t-22.5 -34t-8 -42t8 -42t22.5 -33.5t34 -22.5t42 -8.5zM532.5 1155q-40.5 0 -77.5 14.5t-66 41t-45 62.5t-16 79t16 78.5t45 62.5t66 41t77.5 14t77.5 -14t66 -41
t45 -62.5t16 -78.5t-16 -79t-45 -62.5t-66 -41t-77.5 -14.5zM754 418v96q-28 -28 -58 -35.5t-49 -11.5l-188 -33q-180 -29 -180 -170t192 -141t237.5 111.5t45.5 183.5zM754 133q-82 -158 -332 -158q-148 0 -236 76t-88 267t328 243l197 33q86 16 108.5 31t22.5 53
q0 87 -54 143t-159 56q-160 0 -193 -74t-37 -115h-172q8 149 114 242.5t288 93.5q293 0 343 -141.5t50 -227.5v-655h-172v133h-8z" />
    <glyph glyph-name="ae" unicode="&#xe6;" horiz-adv-x="1728" 
d="M1046.5 799.5q-70.5 -68.5 -96.5 -189.5h514q-8 123 -72.5 190.5t-169.5 67.5t-175.5 -68.5zM279 269q0 -146 195 -146q120 0 200 75t80 220v96q-28 -28 -58 -35.5t-49 -11.5l-188 -33q-140 -24 -160 -77.5t-20 -87.5zM98 252q0 255 328 309l197 33q86 16 108.5 31
t22.5 52q0 88 -54 144t-159 56q-149 0 -188.5 -71t-41.5 -118h-172q12 169 125 252.5t277 83.5q242 0 336 -152q119 152 329 152t329.5 -128.5t119.5 -346.5v-74h-713q4 -156 83.5 -250t203.5 -94q200 0 237 172h181q-20 -138 -137.5 -233t-280.5 -95q-205 0 -286 79
t-109 130q-124 -209 -400 -209q-241 0 -288.5 107.5t-47.5 169.5z" />
    <glyph glyph-name="ccedilla" unicode="&#xe7;" horiz-adv-x="1056" 
d="M639 -254q0 82 -107 82h-65l49 149q-201 12 -317.5 152.5t-116.5 372.5t135 377t331 145q197 0 309.5 -99.5t133.5 -260.5h-180q-26 146 -111.5 175t-144.5 29t-111.5 -26.5t-91.5 -75.5t-60.5 -116.5t-21.5 -189.5t81.5 -225.5t197.5 -103.5q117 0 181 55t81 150h180
q-31 -239 -172 -296.5t-229 -62.5v-51q134 -6 161 -74.5t27 -108.5q0 -86 -61.5 -140t-175.5 -54h-115v115h106q80 0 93.5 28.5t13.5 53.5z" />
    <glyph glyph-name="egrave" unicode="&#xe8;" horiz-adv-x="1073" 
d="M492 1163l-295 336h213l213 -336h-131zM815 610q-23 258 -258 258q-159 0 -211.5 -99t-64.5 -159h534zM218 877.5q136 146.5 337 146.5q202 0 323 -127t121 -348v-74h-729q4 -155 85.5 -249.5t223.5 -94.5q141 0 182.5 68.5t49.5 103.5h180q-20 -138 -138.5 -233
t-287.5 -95q-231 0 -357 140.5t-126 378.5q0 237 136 383.5z" />
    <glyph glyph-name="eacute" unicode="&#xe9;" horiz-adv-x="1073" 
d="M492 1163l213 336h213l-295 -336h-131zM815 610q-23 258 -258 258q-159 0 -211.5 -99t-64.5 -159h534zM218 877.5q136 146.5 337 146.5q202 0 323 -127t121 -348v-74h-729q4 -155 85.5 -249.5t223.5 -94.5q141 0 182.5 68.5t49.5 103.5h180q-20 -138 -138.5 -233
t-287.5 -95q-231 0 -357 140.5t-126 378.5q0 237 136 383.5z" />
    <glyph glyph-name="ecircumflex" unicode="&#xea;" horiz-adv-x="1073" 
d="M213 1163l262 336h164l262 -336h-172l-172 230l-172 -230h-172zM815 610q-23 258 -258 258q-159 0 -211.5 -99t-64.5 -159h534zM218 877.5q136 146.5 337 146.5q202 0 323 -127t121 -348v-74h-729q4 -155 85.5 -249.5t223.5 -94.5q141 0 182.5 68.5t49.5 103.5h180
q-20 -138 -138.5 -233t-287.5 -95q-231 0 -357 140.5t-126 378.5q0 237 136 383.5z" />
    <glyph glyph-name="edieresis" unicode="&#xeb;" horiz-adv-x="1073" 
d="M262 1237v188h180v-188h-180zM672 1237v188h180v-188h-180zM815 610q-23 258 -258 258q-159 0 -211.5 -99t-64.5 -159h534zM218 877.5q136 146.5 337 146.5q202 0 323 -127t121 -348v-74h-729q4 -155 85.5 -249.5t223.5 -94.5q141 0 182.5 68.5t49.5 103.5h180
q-20 -138 -138.5 -233t-287.5 -95q-231 0 -357 140.5t-126 378.5q0 237 136 383.5z" />
    <glyph glyph-name="igrave" unicode="&#xec;" horiz-adv-x="491" 
d="M180 1163l-295 336h213l213 -336h-131zM156 0v999h180v-999h-180z" />
    <glyph glyph-name="iacute" unicode="&#xed;" horiz-adv-x="491" 
d="M180 1163l213 336h213l-295 -336h-131zM156 0v999h180v-999h-180z" />
    <glyph glyph-name="icircumflex" unicode="&#xee;" horiz-adv-x="491" 
d="M-98 1163l262 336h164l262 -336h-172l-172 230l-172 -230h-172zM156 0v999h180v-999h-180z" />
    <glyph glyph-name="idieresis" unicode="&#xef;" horiz-adv-x="491" 
d="M-49 1237v188h180v-188h-180zM360 1237v188h181v-188h-181zM156 0v999h180v-999h-180z" />
    <glyph glyph-name="eth" unicode="&#xf0;" horiz-adv-x="1179" 
d="M279 467q0 -150 89 -243t222 -93t222 93t89 245t-87 243t-222 91t-224 -93t-89 -243zM1090 555v-6q0 -269 -139 -421.5t-363 -152.5q-223 0 -360.5 137.5t-137.5 352.5t141.5 354t341.5 139q135 0 206 -45t98 -77h10q-72 251 -244 385l-225 -156l-66 98l185 127
q-100 52 -164 71t-103 32l41 131q221 -61 359 -142l207 142l65 -99l-166 -114q235 -181 274.5 -397t39.5 -359z" />
    <glyph glyph-name="ntilde" unicode="&#xf1;" horiz-adv-x="1155" 
d="M434 1319q-68 0 -90 -98h-98q7 154 79 187.5t115 33.5t81 -13.5t89.5 -39t74 -36t44.5 -10.5q69 0 90 99h99q-4 -97 -55 -159t-129 -62t-155 38.5t-99.5 49t-45.5 10.5zM336 852q80 172 322 172q151 0 254.5 -99.5t103.5 -318.5v-606h-180v582q0 286 -230 286
q-115 0 -192.5 -94.5t-77.5 -255.5v-518h-180v999h172v-147h8z" />
    <glyph glyph-name="ograve" unicode="&#xf2;" horiz-adv-x="1146" 
d="M508 1163l-295 336h213l213 -336h-131zM573.5 131q133.5 0 218.5 100.5t85 269.5t-84.5 268t-218.5 99t-219 -99.5t-85 -268t85 -269t218.5 -100.5zM220.5 881.5q138.5 142.5 358.5 142.5t353 -141.5t133 -382t-138.5 -383t-358.5 -142.5t-353 141.5t-133 382t138.5 383z
" />
    <glyph glyph-name="oacute" unicode="&#xf3;" horiz-adv-x="1146" 
d="M508 1163l213 336h213l-295 -336h-131zM573.5 131q133.5 0 218.5 100.5t85 269.5t-84.5 268t-218.5 99t-219 -99.5t-85 -268t85 -269t218.5 -100.5zM220.5 881.5q138.5 142.5 358.5 142.5t353 -141.5t133 -382t-138.5 -383t-358.5 -142.5t-353 141.5t-133 382t138.5 383z
" />
    <glyph glyph-name="ocircumflex" unicode="&#xf4;" horiz-adv-x="1146" 
d="M229 1163l263 336h163l263 -336h-173l-172 230l-172 -230h-172zM573.5 131q133.5 0 218.5 100.5t85 269.5t-84.5 268t-218.5 99t-219 -99.5t-85 -268t85 -269t218.5 -100.5zM220.5 881.5q138.5 142.5 358.5 142.5t353 -141.5t133 -382t-138.5 -383t-358.5 -142.5
t-353 141.5t-133 382t138.5 383z" />
    <glyph glyph-name="otilde" unicode="&#xf5;" horiz-adv-x="1146" 
d="M426 1319q-68 0 -90 -98h-98q7 155 79 188t115 33t81 -13.5t89 -39t73.5 -36t45.5 -10.5q69 0 90 99h98q-7 -156 -79 -188.5t-115 -32.5t-81 13t-89 38.5t-73.5 36t-45.5 10.5zM573.5 131q133.5 0 218.5 100.5t85 269.5t-84.5 268t-218.5 99t-219 -99.5t-85 -268t85 -269
t218.5 -100.5zM220.5 881.5q138.5 142.5 358.5 142.5t353 -141.5t133 -382t-138.5 -383t-358.5 -142.5t-353 141.5t-133 382t138.5 383z" />
    <glyph glyph-name="odieresis" unicode="&#xf6;" horiz-adv-x="1146" 
d="M279 1237v188h180v-188h-180zM688 1237v188h180v-188h-180zM573.5 131q133.5 0 218.5 100.5t85 269.5t-84.5 268t-218.5 99t-219 -99.5t-85 -268t85 -269t218.5 -100.5zM220.5 881.5q138.5 142.5 358.5 142.5t353 -141.5t133 -382t-138.5 -383t-358.5 -142.5t-353 141.5
t-133 382t138.5 383z" />
    <glyph glyph-name="divide" unicode="&#xf7;" 
d="M483 53v205h197v-205h-197zM115 442v156h934v-156h-934zM483 778v205h197v-205h-197z" />
    <glyph glyph-name="oslash" unicode="&#xf8;" horiz-adv-x="1146" 
d="M391 195q72 -64 194 -64t207 100.5t85 249.5t-54 244zM756 805q-71 63 -193 63t-207.5 -99.5t-85.5 -249.5t54 -245zM205 127q-123 139 -123 375t138.5 379t352.5 143q179 0 291 -84l70 84h131l-125 -154q125 -141 125 -375t-138.5 -377t-353.5 -143q-174 0 -292 84
l-68 -84h-131z" />
    <glyph glyph-name="ugrave" unicode="&#xf9;" horiz-adv-x="1146" 
d="M512 1163l-295 336h213l213 -336h-131zM319 418q0 -287 230 -287q115 0 188.5 95.5t73.5 256.5v516h180v-999h-172v147h-8q-92 -172 -303 -172q-259 0 -314 152.5t-55 265.5v606h180v-581z" />
    <glyph glyph-name="uacute" unicode="&#xfa;" horiz-adv-x="1146" 
d="M512 1163l213 336h213l-295 -336h-131zM319 418q0 -287 230 -287q115 0 188.5 95.5t73.5 256.5v516h180v-999h-172v147h-8q-92 -172 -303 -172q-259 0 -314 152.5t-55 265.5v606h180v-581z" />
    <glyph glyph-name="ucircumflex" unicode="&#xfb;" horiz-adv-x="1146" 
d="M233 1163l263 336h163l263 -336h-172l-172 230l-172 -230h-173zM319 418q0 -287 230 -287q115 0 188.5 95.5t73.5 256.5v516h180v-999h-172v147h-8q-92 -172 -303 -172q-259 0 -314 152.5t-55 265.5v606h180v-581z" />
    <glyph glyph-name="udieresis" unicode="&#xfc;" horiz-adv-x="1146" 
d="M283 1237v188h180v-188h-180zM692 1237v188h180v-188h-180zM319 418q0 -287 230 -287q115 0 188.5 95.5t73.5 256.5v516h180v-999h-172v147h-8q-92 -172 -303 -172q-259 0 -314 152.5t-55 265.5v606h180v-581z" />
    <glyph glyph-name="yacute" unicode="&#xfd;" horiz-adv-x="958" 
d="M410 1163l213 336h213l-295 -336h-131zM68 -311h65q171 0 246 205l22 63l-393 1042h197l278 -802h9l278 802h180l-424 -1155q-117 -311 -360 -311h-98v156z" />
    <glyph glyph-name="thorn" unicode="&#xfe;" horiz-adv-x="1196" 
d="M842.5 774q-83.5 94 -209.5 94t-209.5 -94t-87.5 -258v-16q0 -173 83.5 -271t212 -98t211.5 103t83 274.5t-83.5 265.5zM672 1024q195 0 318.5 -138t123.5 -378t-131 -386.5t-328 -146.5q-232 0 -319 181h-8q8 -180 8 -194v-413h-180v1950h180v-237q0 -238 -8 -418h8
q96 180 336 180z" />
    <glyph glyph-name="ydieresis" unicode="&#xff;" horiz-adv-x="958" 
d="M180 1237v188h180v-188h-180zM590 1237v188h180v-188h-180zM68 -311h65q171 0 246 205l22 63l-393 1042h197l278 -802h9l278 802h180l-424 -1155q-117 -311 -360 -311h-98v156z" />
    <glyph glyph-name="Amacron" unicode="&#x100;" horiz-adv-x="1318" 
d="M369 1589v140h565v-140h-565zM659 1212h-8l-245 -680h499zM25 0l524 1409h221l524 -1409h-196l-133 369h-619l-133 -369h-188z" />
    <glyph glyph-name="amacron" unicode="&#x101;" horiz-adv-x="1073" 
d="M246 1262v139h565v-139h-565zM754 418v96q-28 -28 -58 -35.5t-49 -11.5l-188 -33q-180 -29 -180 -170t192 -141t237.5 111.5t45.5 183.5zM754 133q-82 -158 -332 -158q-148 0 -236 76t-88 267t328 243l197 33q86 16 108.5 31t22.5 53q0 87 -54 143t-159 56
q-160 0 -193 -74t-37 -115h-172q8 149 114 242.5t288 93.5q293 0 343 -141.5t50 -227.5v-655h-172v133h-8z" />
    <glyph glyph-name="Abreve" unicode="&#x102;" horiz-adv-x="1318" 
d="M620.5 1573q-144.5 0 -198 104.5t-62.5 182.5h115q25 -172 178.5 -172t182.5 172h114q-15 -148 -100 -217.5t-229.5 -69.5zM659 1212h-8l-245 -680h499zM25 0l524 1409h221l524 -1409h-196l-133 369h-619l-133 -369h-188z" />
    <glyph glyph-name="abreve" unicode="&#x103;" horiz-adv-x="1073" 
d="M497.5 1188q-144.5 0 -198 104.5t-61.5 182.5h114q25 -172 180.5 -172t180.5 172h114q-15 -148 -100 -217.5t-229.5 -69.5zM754 418v96q-28 -28 -58 -35.5t-49 -11.5l-188 -33q-180 -29 -180 -170t192 -141t237.5 111.5t45.5 183.5zM754 133q-82 -158 -332 -158
q-148 0 -236 76t-88 267t328 243l197 33q86 16 108.5 31t22.5 53q0 87 -54 143t-159 56q-160 0 -193 -74t-37 -115h-172q8 149 114 242.5t288 93.5q293 0 343 -141.5t50 -227.5v-655h-172v133h-8z" />
    <glyph glyph-name="Aogonek" unicode="&#x104;" horiz-adv-x="1318" 
d="M659 1212h-8l-245 -680h499zM1171 -267.5q0 -60.5 115 -60.5h57v-123h-81q-164 0 -197 74t-33 115q0 134 164 262h-98l-133 369h-619l-133 -369h-188l524 1409h221l524 -1409q-88 -88 -105.5 -147.5t-17.5 -120z" />
    <glyph glyph-name="aogonek" unicode="&#x105;" horiz-adv-x="1073" 
d="M754 418v96q-28 -28 -58 -35.5t-49 -11.5l-188 -33q-180 -29 -180 -170t192 -141t237.5 111.5t45.5 183.5zM754 133q-82 -158 -332 -158q-148 0 -236 76t-88 267t328 243l197 33q86 16 108.5 31t22.5 53q0 87 -54 143t-159 56q-160 0 -193 -74t-37 -115h-172
q8 149 114 242.5t288 93.5q293 0 343 -141.5t50 -227.5v-655q-123 -123 -123 -225.5t115 -102.5h57v-123h-82q-107 0 -168 51.5t-61 137.5q0 134 164 262h-74v133h-8z" />
    <glyph glyph-name="Cacute" unicode="&#x106;" horiz-adv-x="1458" 
d="M705 1573l213 336h212l-294 -336h-131zM770 1262q-216 0 -349.5 -155t-133.5 -399t132.5 -402.5t342.5 -158.5q254 0 322.5 112t89.5 183h194q-73 -330 -279 -398.5t-339 -68.5t-257 53.5t-263.5 203t-139.5 470.5t191 526.5t489 205.5q239 0 395.5 -126t202.5 -341h-194
q-82 295 -404 295z" />
    <glyph glyph-name="cacute" unicode="&#x107;" horiz-adv-x="1056" 
d="M492 1163l213 336h213l-295 -336h-131zM217 878.5q135 145.5 331 145.5q197 0 309.5 -99.5t133.5 -260.5h-180q-26 146 -111.5 175t-144.5 29t-111.5 -26.5t-91.5 -75.5t-60.5 -116.5t-21.5 -189.5t81.5 -225.5t197.5 -103.5q117 0 181 55t81 150h180
q-21 -163 -134.5 -262t-316.5 -99t-330.5 141.5t-127.5 379.5q0 237 135 382.5z" />
    <glyph glyph-name="Ccircumflex" unicode="&#x108;" horiz-adv-x="1458" 
d="M426 1573l262 336h164l262 -336h-172l-172 229l-172 -229h-172zM770 1262q-216 0 -349.5 -155t-133.5 -399t132.5 -402.5t342.5 -158.5q254 0 322.5 112t89.5 183h194q-73 -330 -279 -398.5t-339 -68.5t-257 53.5t-263.5 203t-139.5 470.5t191 526.5t489 205.5
q239 0 395.5 -126t202.5 -341h-194q-82 295 -404 295z" />
    <glyph glyph-name="ccircumflex" unicode="&#x109;" horiz-adv-x="1056" 
d="M213 1163l262 336h164l262 -336h-172l-172 230l-172 -230h-172zM217 878.5q135 145.5 331 145.5q197 0 309.5 -99.5t133.5 -260.5h-180q-26 146 -111.5 175t-144.5 29t-111.5 -26.5t-91.5 -75.5t-60.5 -116.5t-21.5 -189.5t81.5 -225.5t197.5 -103.5q117 0 181 55t81 150
h180q-21 -163 -134.5 -262t-316.5 -99t-330.5 141.5t-127.5 379.5q0 237 135 382.5z" />
    <glyph glyph-name="Cdotaccent" unicode="&#x10a;" horiz-adv-x="1458" 
d="M680 1573v188h180v-188h-180zM770 1262q-216 0 -349.5 -155t-133.5 -399t132.5 -402.5t342.5 -158.5q254 0 322.5 112t89.5 183h194q-73 -330 -279 -398.5t-339 -68.5t-257 53.5t-263.5 203t-139.5 470.5t191 526.5t489 205.5q239 0 395.5 -126t202.5 -341h-194
q-82 295 -404 295z" />
    <glyph glyph-name="cdotaccent" unicode="&#x10b;" horiz-adv-x="1056" 
d="M467 1237v188h180v-188h-180zM217 878.5q135 145.5 331 145.5q197 0 309.5 -99.5t133.5 -260.5h-180q-26 146 -111.5 175t-144.5 29t-111.5 -26.5t-91.5 -75.5t-60.5 -116.5t-21.5 -189.5t81.5 -225.5t197.5 -103.5q117 0 181 55t81 150h180q-21 -163 -134.5 -262
t-316.5 -99t-330.5 141.5t-127.5 379.5q0 237 135 382.5z" />
    <glyph glyph-name="Ccaron" unicode="&#x10c;" horiz-adv-x="1458" 
d="M688 1573l-262 336h172l172 -230l172 230h172l-262 -336h-164zM770 1262q-216 0 -349.5 -155t-133.5 -399t132.5 -402.5t342.5 -158.5q254 0 322.5 112t89.5 183h194q-73 -330 -279 -398.5t-339 -68.5t-257 53.5t-263.5 203t-139.5 470.5t191 526.5t489 205.5
q239 0 395.5 -126t202.5 -341h-194q-82 295 -404 295z" />
    <glyph glyph-name="ccaron" unicode="&#x10d;" horiz-adv-x="1056" 
d="M475 1163l-262 336h172l172 -229l172 229h172l-262 -336h-164zM217 878.5q135 145.5 331 145.5q197 0 309.5 -99.5t133.5 -260.5h-180q-26 146 -111.5 175t-144.5 29t-111.5 -26.5t-91.5 -75.5t-60.5 -116.5t-21.5 -189.5t81.5 -225.5t197.5 -103.5q117 0 181 55t81 150
h180q-21 -163 -134.5 -262t-316.5 -99t-330.5 141.5t-127.5 379.5q0 237 135 382.5z" />
    <glyph glyph-name="Dcaron" unicode="&#x10e;" horiz-adv-x="1441" 
d="M582 1573l-263 336h173l172 -230l172 230h172l-263 -336h-163zM614 1245h-245v-1081h245q279 0 410 151.5t131 389t-131 389t-410 151.5zM180 0v1409h434q357 0 547.5 -194t190.5 -510.5t-190.5 -510.5t-547.5 -194h-434z" />
    <glyph glyph-name="dcaron" unicode="&#x10f;" horiz-adv-x="1196" 
d="M1196 1294v205h197v-188l-82 -254h-90l57 237h-82zM353.5 225q83.5 -94 209.5 -94t209.5 94t87.5 256v35q-4 164 -87.5 258t-209.5 94t-209.5 -102t-83.5 -274.5t83.5 -266.5zM524 -25q-195 0 -318.5 138t-123.5 378t132 386.5t327 146.5q231 0 319 -180h8q-8 180 -8 194
v461h180v-1499h-172v156h-8q-96 -181 -336 -181z" />
    <glyph glyph-name="Dcroat" unicode="&#x110;" horiz-adv-x="1441" 
d="M614 1245h-245v-459h327v-155h-327v-467h245q279 0 410 151.5t131 389t-131 389t-410 151.5zM8 631v155h172v623h434q357 0 547.5 -194t190.5 -510.5t-190.5 -510.5t-547.5 -194h-434v631h-172z" />
    <glyph glyph-name="dcroat" unicode="&#x111;" horiz-adv-x="1196" 
d="M353.5 225q83.5 -94 209.5 -94t209.5 94t87.5 256v19q0 172 -83.5 270t-211.5 98t-211.5 -102t-83.5 -274.5t83.5 -266.5zM860 1038v174h-295v123h295v164h180v-164h156v-123h-156v-1212h-172v156h-8q-96 -181 -336 -181q-195 0 -318.5 138t-123.5 378t132 386.5
t327 146.5q231 0 319 -180h8q-8 180 -8 194z" />
    <glyph glyph-name="Emacron" unicode="&#x112;" horiz-adv-x="1253" 
d="M369 1589v140h565v-140h-565zM180 0v1409h950v-164h-761v-446h606v-164h-606v-471h778v-164h-967z" />
    <glyph glyph-name="emacron" unicode="&#x113;" horiz-adv-x="1073" 
d="M270 1262v139h566v-139h-566zM815 610q-23 258 -258 258q-159 0 -211.5 -99t-64.5 -159h534zM218 877.5q136 146.5 337 146.5q202 0 323 -127t121 -348v-74h-729q4 -155 85.5 -249.5t223.5 -94.5q141 0 182.5 68.5t49.5 103.5h180q-20 -138 -138.5 -233t-287.5 -95
q-231 0 -357 140.5t-126 378.5q0 237 136 383.5z" />
    <glyph glyph-name="Ebreve" unicode="&#x114;" horiz-adv-x="1253" 
d="M620.5 1573q-144.5 0 -198 104.5t-62.5 182.5h115q25 -172 178.5 -172t182.5 172h114q-15 -148 -100 -217.5t-229.5 -69.5zM180 0v1409h950v-164h-761v-446h606v-164h-606v-471h778v-164h-967z" />
    <glyph glyph-name="ebreve" unicode="&#x115;" horiz-adv-x="1073" 
d="M362.5 1258q-85.5 70 -100.5 217h115q25 -172 180 -172t180 172h115q-15 -147 -99.5 -217t-194.5 -70t-195.5 70zM815 610q-23 258 -258 258q-159 0 -211.5 -99t-64.5 -159h534zM218 877.5q136 146.5 337 146.5q202 0 323 -127t121 -348v-74h-729q4 -155 85.5 -249.5
t223.5 -94.5q141 0 182.5 68.5t49.5 103.5h180q-20 -138 -138.5 -233t-287.5 -95q-231 0 -357 140.5t-126 378.5q0 237 136 383.5z" />
    <glyph glyph-name="Edotaccent" unicode="&#x116;" horiz-adv-x="1253" 
d="M565 1573v188h180v-188h-180zM180 0v1409h950v-164h-761v-446h606v-164h-606v-471h778v-164h-967z" />
    <glyph glyph-name="edotaccent" unicode="&#x117;" horiz-adv-x="1073" 
d="M467 1237v188h180v-188h-180zM815 610q-23 258 -258 258q-159 0 -211.5 -99t-64.5 -159h534zM218 877.5q136 146.5 337 146.5q202 0 323 -127t121 -348v-74h-729q4 -155 85.5 -249.5t223.5 -94.5q141 0 182.5 68.5t49.5 103.5h180q-20 -138 -138.5 -233t-287.5 -95
q-231 0 -357 140.5t-126 378.5q0 237 136 383.5z" />
    <glyph glyph-name="Eogonek" unicode="&#x118;" horiz-adv-x="1253" 
d="M885 -262q0 134 164 262h-869v1409h950v-164h-761v-446h606v-164h-606v-471h778v-164q-123 -123 -123 -225.5t115 -102.5h57v-123h-82q-107 0 -168 51.5t-61 137.5z" />
    <glyph glyph-name="eogonek" unicode="&#x119;" horiz-adv-x="1073" 
d="M815 610q-23 258 -258 258q-159 0 -211.5 -99t-64.5 -159h534zM565 -25q-231 0 -357 140.5t-126 378.5t136 384t337 146q202 0 323 -127t121 -348v-74h-729q4 -155 85.5 -249.5t223.5 -94.5q141 0 182.5 68.5t49.5 103.5h180q-23 -151 -177 -260q-154 -110 -194 -182
t-40 -99q0 -50 26 -70t88 -20h58v-123h-82q-170 0 -200 65.5t-30 106.5q0 124 156 256l-12 -1q-11 -1 -19 -1z" />
    <glyph glyph-name="Ecaron" unicode="&#x11a;" horiz-adv-x="1253" 
d="M573 1573l-262 336h172l172 -230l172 230h172l-262 -336h-164zM180 0v1409h950v-164h-761v-446h606v-164h-606v-471h778v-164h-967z" />
    <glyph glyph-name="ecaron" unicode="&#x11b;" horiz-adv-x="1073" 
d="M475 1163l-262 336h172l172 -229l172 229h172l-262 -336h-164zM815 610q-23 258 -258 258q-159 0 -211.5 -99t-64.5 -159h534zM218 877.5q136 146.5 337 146.5q202 0 323 -127t121 -348v-74h-729q4 -155 85.5 -249.5t223.5 -94.5q141 0 182.5 68.5t49.5 103.5h180
q-20 -138 -138.5 -233t-287.5 -95q-231 0 -357 140.5t-126 378.5q0 237 136 383.5z" />
    <glyph glyph-name="Gcircumflex" unicode="&#x11c;" horiz-adv-x="1556" 
d="M442 1573l263 336h163l262 -336h-172l-172 229l-172 -229h-172zM1239 205q-144 -230 -453 -230t-502.5 206t-193.5 524t195 523.5t501 205.5q244 0 405.5 -124t209.5 -319h-197q-60 188 -196 229.5t-236 41.5t-191.5 -41t-158 -117t-101 -178.5t-34.5 -282.5t136.5 -338
t338.5 -158q203 0 335 106t132 288v41h-443v163h615v-745h-123l-33 205h-6z" />
    <glyph glyph-name="gcircumflex" unicode="&#x11d;" horiz-adv-x="1196" 
d="M221 1163l262 336h164l262 -336h-172l-172 230l-172 -230h-172zM270 492q0 -86 22.5 -155t62.5 -114t94.5 -68.5t116 -23.5t115.5 24.5t94 71.5t62.5 117t22.5 156t-22.5 155.5t-62.5 116.5t-94 71.5t-115.5 24.5t-116 -25.5t-94.5 -74.5t-62.5 -119.5t-22.5 -156.5z
M541 1024q231 0 319 -180h8v155h172v-950q0 -268 -137 -392t-343 -124t-330 90.5t-124 253.5h173q0 -91 74.5 -143.5t195.5 -52.5q319 0 319 368v107h-8q-96 -181 -336 -181q-195 0 -318.5 138t-123.5 378t132 386.5t327 146.5z" />
    <glyph glyph-name="Gbreve" unicode="&#x11e;" horiz-adv-x="1556" 
d="M751.5 1573q-144.5 0 -198 104.5t-61.5 182.5h114q25 -172 180.5 -172t180.5 172h114q-15 -148 -100 -217.5t-229.5 -69.5zM1239 205q-144 -230 -453 -230t-502.5 206t-193.5 524t195 523.5t501 205.5q244 0 405.5 -124t209.5 -319h-197q-60 188 -196 229.5t-236 41.5
t-191.5 -41t-158 -117t-101 -178.5t-34.5 -282.5t136.5 -338t338.5 -158q203 0 335 106t132 288v41h-443v163h615v-745h-123l-33 205h-6z" />
    <glyph glyph-name="gbreve" unicode="&#x11f;" horiz-adv-x="1196" 
d="M565 1303q155 0 180 172h115q-15 -148 -100 -217.5t-229.5 -69.5t-198 104.5t-62.5 182.5h115q25 -172 180 -172zM270 492q0 -86 22.5 -155t62.5 -114t94.5 -68.5t116 -23.5t115.5 24.5t94 71.5t62.5 117t22.5 156t-22.5 155.5t-62.5 116.5t-94 71.5t-115.5 24.5
t-116 -25.5t-94.5 -74.5t-62.5 -119.5t-22.5 -156.5zM541 1024q231 0 319 -180h8v155h172v-950q0 -268 -137 -392t-343 -124t-330 90.5t-124 253.5h173q0 -91 74.5 -143.5t195.5 -52.5q319 0 319 368v107h-8q-96 -181 -336 -181q-195 0 -318.5 138t-123.5 378t132 386.5
t327 146.5z" />
    <glyph glyph-name="Gdotaccent" unicode="&#x120;" horiz-adv-x="1556" 
d="M696 1573v188h181v-188h-181zM1239 205q-144 -230 -453 -230t-502.5 206t-193.5 524t195 523.5t501 205.5q244 0 405.5 -124t209.5 -319h-197q-60 188 -196 229.5t-236 41.5t-191.5 -41t-158 -117t-101 -178.5t-34.5 -282.5t136.5 -338t338.5 -158q203 0 335 106t132 288
v41h-443v163h615v-745h-123l-33 205h-6z" />
    <glyph glyph-name="gdotaccent" unicode="&#x121;" horiz-adv-x="1196" 
d="M475 1237v188h180v-188h-180zM270 492q0 -86 22.5 -155t62.5 -114t94.5 -68.5t116 -23.5t115.5 24.5t94 71.5t62.5 117t22.5 156t-22.5 155.5t-62.5 116.5t-94 71.5t-115.5 24.5t-116 -25.5t-94.5 -74.5t-62.5 -119.5t-22.5 -156.5zM541 1024q231 0 319 -180h8v155h172
v-950q0 -268 -137 -392t-343 -124t-330 90.5t-124 253.5h173q0 -91 74.5 -143.5t195.5 -52.5q319 0 319 368v107h-8q-96 -181 -336 -181q-195 0 -318.5 138t-123.5 378t132 386.5t327 146.5z" />
    <glyph glyph-name="Gcommaaccent" unicode="&#x122;" horiz-adv-x="1556" 
d="M688 -139h180v-160l-75 -209h-82l53 189h-76v180zM1239 205q-144 -230 -453 -230t-502.5 206t-193.5 524t195 523.5t501 205.5q244 0 405.5 -124t209.5 -319h-197q-60 188 -196 229.5t-236 41.5t-191.5 -41t-158 -117t-101 -178.5t-34.5 -282.5t136.5 -338t338.5 -158
q203 0 335 106t132 288v41h-443v163h615v-745h-123l-33 205h-6z" />
    <glyph glyph-name="gcommaaccent" unicode="&#x123;" horiz-adv-x="1196" 
d="M475 1163v160l76 209h82l-53 -189h75v-180h-180zM270 492q0 -86 22.5 -155t62.5 -114t94.5 -68.5t116 -23.5t115.5 24.5t94 71.5t62.5 117t22.5 156t-22.5 155.5t-62.5 116.5t-94 71.5t-115.5 24.5t-116 -25.5t-94.5 -74.5t-62.5 -119.5t-22.5 -156.5zM541 1024
q231 0 319 -180h8v155h172v-950q0 -268 -137 -392t-343 -124t-330 90.5t-124 253.5h173q0 -91 74.5 -143.5t195.5 -52.5q319 0 319 368v107h-8q-96 -181 -336 -181q-195 0 -318.5 138t-123.5 378t132 386.5t327 146.5z" />
    <glyph glyph-name="Hcircumflex" unicode="&#x124;" horiz-adv-x="1490" 
d="M401 1573l263 336h163l263 -336h-172l-173 229l-172 -229h-172zM180 0v1409h189v-614h753v614h189v-1409h-189v631h-753v-631h-189z" />
    <glyph glyph-name="hcircumflex" unicode="&#x125;" horiz-adv-x="1155" 
d="M-98 1663l262 336h164l262 -336h-172l-172 229l-172 -229h-172zM336 852q80 172 322 172q151 0 254.5 -99.5t103.5 -318.5v-606h-180v582q0 286 -230 286q-117 0 -193.5 -95t-76.5 -251v-522h-180v1499h180v-233q0 -234 -8 -414h8z" />
    <glyph glyph-name="Hbar" unicode="&#x126;" horiz-adv-x="1490" 
d="M369 1032v-237h753v237h-753zM0 1032v156h180v221h189v-221h753v221h189v-221h180v-156h-180v-1032h-189v631h-753v-631h-189v1032h-180z" />
    <glyph glyph-name="hbar" unicode="&#x127;" horiz-adv-x="1155" 
d="M336 852q80 172 322 172q151 0 254.5 -99.5t103.5 -318.5v-606h-180v582q0 286 -230 286q-115 0 -192.5 -94.5t-77.5 -253.5v-520h-180v1212h-156v123h156v164h180v-164h295v-123h-295v-90q0 -90 -8 -270h8z" />
    <glyph glyph-name="Itilde" unicode="&#x128;" horiz-adv-x="548" 
d="M127 1671q-68 0 -90 -98h-98q7 155 79 188t115 33t81 -13.5t89 -39t73.5 -35.5t45.5 -10q68 0 90 98h98q-7 -154 -79 -187.5t-115 -33.5t-81 13t-89 39t-73.5 36t-45.5 10zM180 0v1409h189v-1409h-189z" />
    <glyph glyph-name="itilde" unicode="&#x129;" horiz-adv-x="491" 
d="M98 1319q-68 0 -90 -98h-98q7 154 79 187.5t115 33.5t81 -13.5t89.5 -39t74 -36t44.5 -10.5q69 0 90 99h99q-4 -97 -55 -159t-129 -62t-155 38.5t-99.5 49t-45.5 10.5zM156 0v999h180v-999h-180z" />
    <glyph glyph-name="Imacron" unicode="&#x12a;" horiz-adv-x="548" 
d="M-12 1589v140h565v-140h-565zM180 0v1409h189v-1409h-189z" />
    <glyph glyph-name="imacron" unicode="&#x12b;" horiz-adv-x="491" 
d="M-41 1262v139h565v-139h-565zM156 0v999h180v-999h-180z" />
    <glyph glyph-name="Ibreve" unicode="&#x12c;" horiz-adv-x="548" 
d="M239.5 1573q-144.5 0 -198 104.5t-61.5 182.5h114q25 -172 180.5 -172t180.5 172h114q-15 -148 -100 -217.5t-229.5 -69.5zM180 0v1409h189v-1409h-189z" />
    <glyph glyph-name="ibreve" unicode="&#x12d;" horiz-adv-x="491" 
d="M246 1303q155 0 180 172h115q-15 -147 -100.5 -217t-230 -70t-198 104.5t-61.5 182.5h115q25 -172 180 -172zM156 0v999h180v-999h-180z" />
    <glyph glyph-name="Iogonek" unicode="&#x12e;" horiz-adv-x="548" 
d="M102 -262q0 134 164 262h-86v1409h189v-1409h-4q-123 -123 -123 -225.5t114 -102.5h58v-123h-82q-164 0 -197 74t-33 115z" />
    <glyph glyph-name="iogonek" unicode="&#x12f;" horiz-adv-x="491" 
d="M147 1294v205h197v-205h-197zM74 -262q0 134 164 262h-82v999h180v-999q-123 -123 -123 -225.5t115 -102.5h57v-123h-82q-107 0 -168 51.5t-61 137.5z" />
    <glyph glyph-name="Idotaccent" unicode="&#x130;" horiz-adv-x="548" 
d="M184 1573v188h181v-188h-181zM180 0v1409h189v-1409h-189z" />
    <glyph glyph-name="dotlessi" unicode="&#x131;" horiz-adv-x="491" 
d="M156 0v999h180v-999h-180z" />
    <glyph glyph-name="IJ" unicode="&#x132;" horiz-adv-x="1605" 
d="M1040.5 139q221.5 0 221.5 271v999h188v-1008q0 -324 -158.5 -375t-300 -51t-251 102.5t-109.5 323.5v66h188v-57q0 -271 221.5 -271zM180 0v1409h189v-1409h-189z" />
    <glyph glyph-name="ij" unicode="&#x133;" horiz-adv-x="983" 
d="M647 -147v1146h180v-1179q0 -271 -278 -271h-66v156h49q91 0 103 54.5t12 93.5zM639 1294v205h197v-205h-197zM156 0v999h180v-999h-180zM147 1294v205h197v-205h-197z" />
    <glyph glyph-name="Jcircumflex" unicode="&#x134;" horiz-adv-x="1048" 
d="M463 1573l262 336h164l262 -336h-172l-172 229l-172 -229h-172zM74 401v66h188v-49q0 -212 86 -245.5t161.5 -33.5t135.5 68t60 211v991h188v-1008q0 -324 -159 -375t-300 -51t-250.5 102.5t-109.5 323.5z" />
    <glyph glyph-name="jcircumflex" unicode="&#x135;" horiz-adv-x="491" 
d="M-98 1163l262 336h164l262 -336h-172l-172 230l-172 -230h-172zM156 -147v1146h180v-1179q0 -271 -279 -271h-65v156h49q115 0 115 148z" />
    <glyph glyph-name="Kcommaaccent" unicode="&#x136;" horiz-adv-x="1335" 
d="M606 -139h180v-160l-75 -209h-82l53 189h-76v180zM180 0v1409h189v-758l704 758h221l-579 -612l604 -797h-213l-516 666l-221 -236v-430h-189z" />
    <glyph glyph-name="kcommaaccent" unicode="&#x137;" horiz-adv-x="1032" 
d="M459 -139h180v-160l-76 -209h-82l54 189h-76v180zM156 0v1499h180v-981l434 481h213l-371 -399l412 -600h-213l-322 469l-153 -168v-301h-180z" />
    <glyph glyph-name="Lacute" unicode="&#x139;" horiz-adv-x="1114" 
d="M205 1573l213 336h213l-295 -336h-131zM180 0v1409h189v-1245h688v-164h-877z" />
    <glyph glyph-name="lacute" unicode="&#x13a;" horiz-adv-x="491" 
d="M180 1663l213 336h213l-295 -336h-131zM156 0v1499h180v-1499h-180z" />
    <glyph glyph-name="Lcommaaccent" unicode="&#x13b;" horiz-adv-x="1114" 
d="M516 -139h180v-160l-75 -209h-82l53 189h-76v180zM180 0v1409h189v-1245h688v-164h-877z" />
    <glyph glyph-name="lcommaaccent" unicode="&#x13c;" horiz-adv-x="491" 
d="M156 -139h180v-160l-76 -209h-82l53 189h-75v180zM156 0v1499h180v-1499h-180z" />
    <glyph glyph-name="Lcaron" unicode="&#x13d;" horiz-adv-x="1114" 
d="M647 1204v205h197v-188l-82 -254h-90l57 237h-82zM180 0v1409h189v-1245h688v-164h-877z" />
    <glyph glyph-name="lcaron" unicode="&#x13e;" horiz-adv-x="491" 
d="M156 0v1499h180v-1499h-180zM492 1294v205h196v-188l-82 -254h-90l57 237h-81z" />
    <glyph glyph-name="Ldot" unicode="&#x13f;" horiz-adv-x="1114" 
d="M623 623v204h196v-204h-196zM180 0v1409h189v-1245h688v-164h-877z" />
    <glyph glyph-name="ldot" unicode="&#x140;" horiz-adv-x="679" 
d="M483 590v205h197v-205h-197zM156 0v1499h180v-1499h-180z" />
    <glyph glyph-name="Lslash" unicode="&#x141;" horiz-adv-x="1114" 
d="M180 1409h189v-631l323 238v-172l-323 -236v-444h688v-164h-877v473l-172 -129v172l172 127v766z" />
    <glyph glyph-name="lslash" unicode="&#x142;" horiz-adv-x="491" 
d="M156 1499h180v-616l147 133v-164l-147 -137v-715h-180v543l-148 -133v163l148 138v788z" />
    <glyph glyph-name="Nacute" unicode="&#x143;" horiz-adv-x="1507" 
d="M688 1573l213 336h213l-295 -336h-131zM180 0v1409h180l779 -1090h8l-8 1090h188v-1409h-180l-778 1081h-9l9 -1081h-189z" />
    <glyph glyph-name="nacute" unicode="&#x144;" horiz-adv-x="1155" 
d="M516 1163l213 336h213l-295 -336h-131zM336 852q80 172 322 172q151 0 254.5 -99.5t103.5 -318.5v-606h-180v582q0 286 -230 286q-115 0 -192.5 -94.5t-77.5 -255.5v-518h-180v999h172v-147h8z" />
    <glyph glyph-name="Ncommaaccent" unicode="&#x145;" horiz-adv-x="1507" 
d="M664 -139h180v-160l-76 -209h-82l53 189h-75v180zM180 0v1409h180l779 -1090h8l-8 1090h188v-1409h-180l-778 1081h-9l9 -1081h-189z" />
    <glyph glyph-name="ncommaaccent" unicode="&#x146;" horiz-adv-x="1155" 
d="M483 -139h181v-160l-76 -209h-82l53 189h-76v180zM336 852q80 172 322 172q151 0 254.5 -99.5t103.5 -318.5v-606h-180v582q0 286 -230 286q-115 0 -192.5 -94.5t-77.5 -255.5v-518h-180v999h172v-147h8z" />
    <glyph glyph-name="Ncaron" unicode="&#x147;" horiz-adv-x="1507" 
d="M672 1573l-262 336h172l172 -230l172 230h172l-262 -336h-164zM180 0v1409h180l779 -1090h8l-8 1090h188v-1409h-180l-778 1081h-9l9 -1081h-189z" />
    <glyph glyph-name="ncaron" unicode="&#x148;" horiz-adv-x="1155" 
d="M500 1163l-262 336h172l172 -229l172 229h172l-262 -336h-164zM336 852q80 172 322 172q151 0 254.5 -99.5t103.5 -318.5v-606h-180v582q0 286 -230 286q-115 0 -192.5 -94.5t-77.5 -255.5v-518h-180v999h172v-147h8z" />
    <glyph glyph-name="napostrophe" unicode="&#x149;" horiz-adv-x="1155" 
d="M147 1352v180h181v-160l-76 -209h-82l53 189h-76zM336 852q80 172 322 172q151 0 254.5 -99.5t103.5 -318.5v-606h-180v582q0 286 -230 286q-115 0 -192.5 -94.5t-77.5 -255.5v-518h-180v999h172v-147h8z" />
    <glyph glyph-name="Eng" unicode="&#x14a;" horiz-adv-x="1507" 
d="M180 0v1409h180l779 -1090h8l-8 1090h188v-1475q0 -309 -139 -347t-230 -38h-98v172h90q145 0 167 83t22 147v59l-770 1071h-9l9 -1081h-189z" />
    <glyph glyph-name="eng" unicode="&#x14b;" horiz-adv-x="1155" 
d="M336 852q80 172 322 172q151 0 254.5 -99.5t103.5 -318.5v-786q0 -271 -279 -271h-65v156h49q115 0 115 148v729q0 286 -230 286q-117 0 -193.5 -95t-76.5 -251v-522h-180v999h172v-147h8z" />
    <glyph glyph-name="Omacron" unicode="&#x14c;" horiz-adv-x="1556" 
d="M492 1589v140h565v-140h-565zM287 704.5q0 -118.5 34.5 -221t100 -178.5t157 -117t200 -41t199.5 41t156.5 117t100.5 178.5t35 221t-35 221t-100.5 178.5t-156.5 117t-199.5 41t-200 -41t-157 -117t-100 -178.5t-34.5 -221zM90 704.5q0 319.5 192.5 524.5t495.5 205
q302 0 495 -206.5t193 -523t-193 -523t-495 -206.5t-495 205t-193 524.5z" />
    <glyph glyph-name="omacron" unicode="&#x14d;" horiz-adv-x="1146" 
d="M287 1262v139h565v-139h-565zM573.5 131q133.5 0 218.5 100.5t85 269.5t-84.5 268t-218.5 99t-219 -99.5t-85 -268t85 -269t218.5 -100.5zM220.5 881.5q138.5 142.5 358.5 142.5t353 -141.5t133 -382t-138.5 -383t-358.5 -142.5t-353 141.5t-133 382t138.5 383z" />
    <glyph glyph-name="Obreve" unicode="&#x14e;" horiz-adv-x="1556" 
d="M743.5 1573q-144.5 0 -198 104.5t-62.5 182.5h115q25 -172 180 -172t180 172h115q-15 -148 -100 -217.5t-229.5 -69.5zM287 704.5q0 -118.5 34.5 -221t100 -178.5t157 -117t200 -41t199.5 41t156.5 117t100.5 178.5t35 221t-35 221t-100.5 178.5t-156.5 117t-199.5 41
t-200 -41t-157 -117t-100 -178.5t-34.5 -221zM90 704.5q0 319.5 192.5 524.5t495.5 205q302 0 495 -206.5t193 -523t-193 -523t-495 -206.5t-495 205t-193 524.5z" />
    <glyph glyph-name="obreve" unicode="&#x14f;" horiz-adv-x="1146" 
d="M573.5 1303q155.5 0 180.5 172h114q-15 -148 -100 -217.5t-229.5 -69.5t-198 104.5t-61.5 182.5h114q25 -172 180.5 -172zM573.5 131q133.5 0 218.5 100.5t85 269.5t-84.5 268t-218.5 99t-219 -99.5t-85 -268t85 -269t218.5 -100.5zM220.5 881.5q138.5 142.5 358.5 142.5
t353 -141.5t133 -382t-138.5 -383t-358.5 -142.5t-353 141.5t-133 382t138.5 383z" />
    <glyph glyph-name="Ohungarumlaut" unicode="&#x150;" horiz-adv-x="1556" 
d="M524 1573l213 336h213l-295 -336h-131zM893 1573l213 336h213l-295 -336h-131zM287 704.5q0 -118.5 34.5 -221t100 -178.5t157 -117t200 -41t199.5 41t156.5 117t100.5 178.5t35 221t-35 221t-100.5 178.5t-156.5 117t-199.5 41t-200 -41t-157 -117t-100 -178.5
t-34.5 -221zM90 704.5q0 319.5 192.5 524.5t495.5 205q302 0 495 -206.5t193 -523t-193 -523t-495 -206.5t-495 205t-193 524.5z" />
    <glyph glyph-name="ohungarumlaut" unicode="&#x151;" horiz-adv-x="1146" 
d="M319 1163l213 336h213l-294 -336h-132zM688 1163l213 336h213l-295 -336h-131zM573.5 131q133.5 0 218.5 100.5t85 269.5t-84.5 268t-218.5 99t-219 -99.5t-85 -268t85 -269t218.5 -100.5zM220.5 881.5q138.5 142.5 358.5 142.5t353 -141.5t133 -382t-138.5 -383
t-358.5 -142.5t-353 141.5t-133 382t138.5 383z" />
    <glyph glyph-name="OE" unicode="&#x152;" horiz-adv-x="2113" 
d="M287 704.5q0 -237.5 131 -389t409 -151.5h213v1081h-213q-278 0 -409 -151.5t-131 -389zM1991 1245h-762v-446h606v-164h-606v-471h778v-164h-1180q-355 0 -546 193t-191 511.5t191 511.5t546 193h1164v-164z" />
    <glyph glyph-name="oe" unicode="&#x153;" horiz-adv-x="1859" 
d="M1602 610q-23 258 -259 258q-98 0 -175 -70t-101 -188h535zM573.5 131q133.5 0 218.5 100.5t85 269.5t-84.5 268t-218.5 99t-219 -99.5t-85 -268t85 -269t218.5 -100.5zM573 -25q-224 0 -357.5 141.5t-133.5 382t138.5 383t352.5 142.5q266 0 396 -205q130 205 374 205
q202 0 322.5 -128t120.5 -347v-74h-729q4 -155 85.5 -249.5t222.5 -94.5t182.5 68.5t49.5 103.5h181q-20 -139 -139 -233.5t-287 -94.5q-271 0 -391 201q-133 -201 -388 -201z" />
    <glyph glyph-name="Racute" unicode="&#x154;" horiz-adv-x="1335" 
d="M573 1573l213 336h213l-294 -336h-132zM721 1245h-352v-532h352q138 0 216.5 77.5t78.5 197.5q0 121 -77.5 189t-217.5 68zM180 0v1409h533q361 0 426 -159.5t65 -247.5q0 -171 -81 -280.5t-228 -150.5l358 -571h-204l-351 549h-329v-549h-189z" />
    <glyph glyph-name="racute" unicode="&#x155;" horiz-adv-x="737" 
d="M385 1163l213 336h213l-295 -336h-131zM558 852q-104 0 -163 -91.5t-59 -238.5v-522h-180v999h172v-145h6q75 170 264 170q77 0 139 -41l-57 -164q-66 33 -122 33z" />
    <glyph glyph-name="Rcommaaccent" unicode="&#x156;" horiz-adv-x="1335" 
d="M578 -139h180v-160l-76 -209h-82l53 189h-75v180zM721 1245h-352v-532h352q138 0 216.5 77.5t78.5 197.5q0 121 -77.5 189t-217.5 68zM180 0v1409h533q361 0 426 -159.5t65 -247.5q0 -171 -81 -280.5t-228 -150.5l358 -571h-204l-351 549h-329v-549h-189z" />
    <glyph glyph-name="rcommaaccent" unicode="&#x157;" horiz-adv-x="737" 
d="M156 -139h180v-160l-76 -209h-82l53 189h-75v180zM558 852q-104 0 -163 -91.5t-59 -238.5v-522h-180v999h172v-145h6q75 170 264 170q77 0 139 -41l-57 -164q-66 33 -122 33z" />
    <glyph glyph-name="Rcaron" unicode="&#x158;" horiz-adv-x="1335" 
d="M557 1573l-262 336h172l172 -230l172 230h172l-262 -336h-164zM721 1245h-352v-532h352q138 0 216.5 77.5t78.5 197.5q0 121 -77.5 189t-217.5 68zM180 0v1409h533q361 0 426 -159.5t65 -247.5q0 -171 -81 -280.5t-228 -150.5l358 -571h-204l-351 549h-329v-549h-189z
" />
    <glyph glyph-name="rcaron" unicode="&#x159;" horiz-adv-x="737" 
d="M369 1163l-263 336h173l172 -229l172 229h172l-263 -336h-163zM558 852q-104 0 -163 -91.5t-59 -238.5v-522h-180v999h172v-145h6q75 170 264 170q77 0 139 -41l-57 -164q-66 33 -122 33z" />
    <glyph glyph-name="Sacute" unicode="&#x15a;" horiz-adv-x="1327" 
d="M590 1573l213 336h213l-295 -336h-131zM115 401h188q0 -117 95 -193.5t261 -76.5t261.5 67.5t95.5 194.5q0 146 -123 181.5t-197 48.5l-90 16q-221 38 -346 117t-125 264t143 299.5t374 114.5t375 -108.5t144 -293.5h-188q0 115 -91.5 180.5t-234.5 65.5t-236 -61
t-93 -172.5t87.5 -158t256.5 -75.5l90 -16q211 -38 330.5 -120t119.5 -274t-149 -309t-405 -117t-399.5 116t-143.5 310z" />
    <glyph glyph-name="sacute" unicode="&#x15b;" horiz-adv-x="1007" 
d="M434 1163l213 336h213l-295 -336h-131zM737 279q0 103 -155 131l-189 32q-130 23 -185.5 64t-80.5 89t-25 119q0 141 114 225.5t284 84.5q271 0 332 -112.5t61 -190.5h-172q0 77 -59.5 120.5t-157.5 43.5t-161.5 -40t-63.5 -118t63.5 -100.5t108.5 -30.5l188 -33
q279 -46 279 -268q0 -155 -116.5 -237.5t-305.5 -82.5t-301.5 81t-112.5 231h172q0 -85 70 -128.5t168 -43.5q245 0 245 164z" />
    <glyph glyph-name="Scircumflex" unicode="&#x15c;" horiz-adv-x="1327" 
d="M311 1573l262 336h164l262 -336h-172l-172 229l-172 -229h-172zM115 401h188q0 -117 95 -193.5t261 -76.5t261.5 67.5t95.5 194.5q0 146 -123 181.5t-197 48.5l-90 16q-221 38 -346 117t-125 264t143 299.5t374 114.5t375 -108.5t144 -293.5h-188q0 115 -91.5 180.5
t-234.5 65.5t-236 -61t-93 -172.5t87.5 -158t256.5 -75.5l90 -16q211 -38 330.5 -120t119.5 -274t-149 -309t-405 -117t-399.5 116t-143.5 310z" />
    <glyph glyph-name="scircumflex" unicode="&#x15d;" horiz-adv-x="1007" 
d="M156 1163l262 336h164l262 -336h-172l-172 230l-172 -230h-172zM737 279q0 103 -155 131l-189 32q-130 23 -185.5 64t-80.5 89t-25 119q0 141 114 225.5t284 84.5q271 0 332 -112.5t61 -190.5h-172q0 77 -59.5 120.5t-157.5 43.5t-161.5 -40t-63.5 -118t63.5 -100.5
t108.5 -30.5l188 -33q279 -46 279 -268q0 -155 -116.5 -237.5t-305.5 -82.5t-301.5 81t-112.5 231h172q0 -85 70 -128.5t168 -43.5q245 0 245 164z" />
    <glyph glyph-name="Scedilla" unicode="&#x15e;" horiz-adv-x="1327" 
d="M737 -254q0 82 -106 82h-66l49 149q-233 8 -366 122.5t-133 301.5h188q0 -117 95 -193.5t261 -76.5t261.5 67.5t95.5 194.5q0 146 -123 181.5t-197 48.5l-90 16q-221 38 -346 117t-125 264t143 299.5t374 114.5t375 -108.5t144 -293.5h-188q0 115 -91.5 180.5
t-234.5 65.5t-236 -61t-93 -172.5t87.5 -158t256.5 -75.5l90 -16q211 -38 330.5 -120t119.5 -272t-138 -304t-386 -124v-49q133 -6 161 -74.5t28 -108.5q0 -85 -62 -139.5t-176 -54.5h-115v115h107q79 0 92.5 28.5t13.5 53.5z" />
    <glyph glyph-name="scedilla" unicode="&#x15f;" horiz-adv-x="1007" 
d="M573 -254q0 82 -106 82h-66l50 149q-261 13 -315 125.5t-54 184.5h172q0 -85 70 -128.5t168 -43.5q245 0 245 164q0 103 -155 131l-189 32q-130 23 -185.5 64t-80.5 89t-25 119q0 141 114 225.5t284 84.5q271 0 332 -112.5t61 -190.5h-172q0 77 -59.5 120.5t-157.5 43.5
t-161.5 -40t-63.5 -118t63.5 -100.5t108.5 -30.5l188 -33q279 -46 279 -268q0 -223 -153 -268t-241 -50v-51q133 -6 161 -74.5t28 -108.5q0 -84 -61 -139t-177 -55h-115v115h107q79 0 92.5 28.5t13.5 53.5z" />
    <glyph glyph-name="Scaron" unicode="&#x160;" horiz-adv-x="1327" 
d="M573 1573l-262 336h172l172 -230l172 230h172l-262 -336h-164zM115 401h188q0 -117 95 -193.5t261 -76.5t261.5 67.5t95.5 194.5q0 146 -123 181.5t-197 48.5l-90 16q-221 38 -346 117t-125 264t143 299.5t374 114.5t375 -108.5t144 -293.5h-188q0 115 -91.5 180.5
t-234.5 65.5t-236 -61t-93 -172.5t87.5 -158t256.5 -75.5l90 -16q211 -38 330.5 -120t119.5 -274t-149 -309t-405 -117t-399.5 116t-143.5 310z" />
    <glyph glyph-name="scaron" unicode="&#x161;" horiz-adv-x="1007" 
d="M418 1163l-262 336h172l172 -229l172 229h172l-262 -336h-164zM737 279q0 103 -155 131l-189 32q-130 23 -185.5 64t-80.5 89t-25 119q0 141 114 225.5t284 84.5q271 0 332 -112.5t61 -190.5h-172q0 77 -59.5 120.5t-157.5 43.5t-161.5 -40t-63.5 -118t63.5 -100.5
t108.5 -30.5l188 -33q279 -46 279 -268q0 -155 -116.5 -237.5t-305.5 -82.5t-301.5 81t-112.5 231h172q0 -85 70 -128.5t168 -43.5q245 0 245 164z" />
    <glyph glyph-name="Tcommaaccent" unicode="&#x162;" horiz-adv-x="1204" 
d="M688 -254q0 82 -106 82h-66l57 172h-65v1249h-492v160h1172v-160h-492v-1249h-57v-74q134 -6 161 -74.5t27 -108.5q0 -86 -61.5 -140t-175.5 -54h-115v115h107q79 0 92.5 28.5t13.5 53.5z" />
    <glyph glyph-name="tcommaaccent" unicode="&#x163;" horiz-adv-x="671" 
d="M180 295v557h-188v147h188v304h180v-304h263v-147h-263v-549q0 -116 51.5 -131.5t88.5 -15.5h123v-156h-111l-94 2v-76q134 -6 161 -74.5t27 -108.5q0 -84 -61 -139t-176 -55h-115v115h106q80 0 93.5 28.5t13.5 53.5q0 82 -107 82h-65l55 188q-170 55 -170 279z" />
    <glyph glyph-name="Tcaron" unicode="&#x164;" horiz-adv-x="1204" 
d="M516 1573l-262 336h172l172 -230l172 230h172l-262 -336h-164zM16 1249v160h1172v-160h-492v-1249h-188v1249h-492z" />
    <glyph glyph-name="tcaron" unicode="&#x165;" horiz-adv-x="671" 
d="M467 1352v204h197v-188l-82 -254h-90l57 238h-82zM475 0q-295 0 -295 295v557h-188v147h188v304h180v-304h263v-147h-263v-549q0 -116 51.5 -131.5t88.5 -15.5h123v-156h-148z" />
    <glyph glyph-name="Tbar" unicode="&#x166;" horiz-adv-x="1204" 
d="M16 1249v160h1172v-160h-492v-520h377v-147h-377v-582h-188v582h-377v147h377v520h-492z" />
    <glyph glyph-name="tbar" unicode="&#x167;" horiz-adv-x="671" 
d="M475 0q-295 0 -295 295v164h-188v123h188v270h-188v147h188v304h180v-304h263v-147h-263v-270h263v-123h-263v-156q0 -116 51.5 -131.5t88.5 -15.5h123v-156h-148z" />
    <glyph glyph-name="Utilde" unicode="&#x168;" horiz-adv-x="1425" 
d="M565 1671q-68 0 -90 -98h-98q7 154 79 187.5t115 33.5t81 -13.5t89.5 -39t74 -35.5t44.5 -10q68 0 90 98h99q-7 -154 -79.5 -187.5t-115.5 -33.5t-81 13t-89 39t-73.5 36t-45.5 10zM147 557v852h189v-852q0 -300 141 -355t282 -55t236 107t95 303v852h188v-852
q0 -442 -218 -512t-413.5 -70t-347.5 139t-152 443z" />
    <glyph glyph-name="utilde" unicode="&#x169;" horiz-adv-x="1146" 
d="M430 1319q-68 0 -90 -98h-98q7 154 79 187.5t115 33.5t81 -13.5t89 -39t73.5 -36t45.5 -10.5q69 0 90 99h98q-7 -157 -79 -189t-115 -32t-81 13t-89 38.5t-73.5 36t-45.5 10.5zM319 418q0 -287 230 -287q115 0 188.5 95.5t73.5 256.5v516h180v-999h-172v147h-8
q-92 -172 -303 -172q-259 0 -314 152.5t-55 265.5v606h180v-581z" />
    <glyph glyph-name="Umacron" unicode="&#x16a;" horiz-adv-x="1425" 
d="M426 1589v140h565v-140h-565zM147 557v852h189v-852q0 -300 141 -355t282 -55t236 107t95 303v852h188v-852q0 -442 -218 -512t-413.5 -70t-347.5 139t-152 443z" />
    <glyph glyph-name="umacron" unicode="&#x16b;" horiz-adv-x="1146" 
d="M291 1262v139h565v-139h-565zM319 418q0 -287 230 -287q115 0 188.5 95.5t73.5 256.5v516h180v-999h-172v147h-8q-92 -172 -303 -172q-259 0 -314 152.5t-55 265.5v606h180v-581z" />
    <glyph glyph-name="Ubreve" unicode="&#x16c;" horiz-adv-x="1425" 
d="M677.5 1573q-144.5 0 -198 104.5t-61.5 182.5h114q25 -172 180.5 -172t180.5 172h115q-15 -147 -100.5 -217t-230 -70zM147 557v852h189v-852q0 -300 141 -355t282 -55t236 107t95 303v852h188v-852q0 -442 -218 -512t-413.5 -70t-347.5 139t-152 443z" />
    <glyph glyph-name="ubreve" unicode="&#x16d;" horiz-adv-x="1146" 
d="M542.5 1188q-144.5 0 -198 104.5t-61.5 182.5h114q25 -172 180.5 -172t180.5 172h114q-15 -148 -100 -217.5t-229.5 -69.5zM319 418q0 -287 230 -287q115 0 188.5 95.5t73.5 256.5v516h180v-999h-172v147h-8q-92 -172 -303 -172q-259 0 -314 152.5t-55 265.5v606h180
v-581z" />
    <glyph glyph-name="Uring" unicode="&#x16e;" horiz-adv-x="1425" 
d="M712.5 1655q22.5 0 42 8t34 22.5t22.5 34t8 42t-8 42t-22.5 33.5t-34 22.5t-42 8.5t-42 -8.5t-33.5 -22.5t-22.5 -33.5t-8.5 -42t8.5 -42t22.5 -34t33.5 -22.5t42 -8zM713 1565q-41 0 -78 14t-65.5 41t-45 62.5t-16.5 78.5t16.5 79t45 62.5t65.5 41t78 14.5t77.5 -14.5
t65.5 -41t45.5 -62.5t16.5 -79t-16.5 -78.5t-45.5 -62.5t-65.5 -41t-77.5 -14zM147 557v852h189v-852q0 -300 141 -355t282 -55t236 107t95 303v852h188v-852q0 -442 -218 -512t-413.5 -70t-347.5 139t-152 443z" />
    <glyph glyph-name="uring" unicode="&#x16f;" horiz-adv-x="1146" 
d="M577.5 1245q22.5 0 42 8.5t34 22.5t22.5 33.5t8 42t-8 42t-22.5 34t-34 22.5t-42 8t-42 -8t-34 -22.5t-22.5 -34t-8 -42t8 -42t22.5 -33.5t34 -22.5t42 -8.5zM577.5 1155q-40.5 0 -77.5 14.5t-65.5 41t-45 62.5t-16.5 79t16.5 78.5t45 62.5t65.5 41t77.5 14t77.5 -14
t66 -41t45 -62.5t16 -78.5t-16 -79t-45 -62.5t-66 -41t-77.5 -14.5zM319 418q0 -287 230 -287q115 0 188.5 95.5t73.5 256.5v516h180v-999h-172v147h-8q-92 -172 -303 -172q-259 0 -314 152.5t-55 265.5v606h180v-581z" />
    <glyph glyph-name="Uhungarumlaut" unicode="&#x170;" horiz-adv-x="1425" 
d="M459 1573l213 336h213l-295 -336h-131zM827 1573l213 336h213l-295 -336h-131zM147 557v852h189v-852q0 -300 141 -355t282 -55t236 107t95 303v852h188v-852q0 -442 -218 -512t-413.5 -70t-347.5 139t-152 443z" />
    <glyph glyph-name="uhungarumlaut" unicode="&#x171;" horiz-adv-x="1146" 
d="M324 1163l213 336h213l-295 -336h-131zM692 1163l213 336h213l-295 -336h-131zM319 418q0 -287 230 -287q115 0 188.5 95.5t73.5 256.5v516h180v-999h-172v147h-8q-92 -172 -303 -172q-259 0 -314 152.5t-55 265.5v606h180v-581z" />
    <glyph glyph-name="Uogonek" unicode="&#x172;" horiz-adv-x="1425" 
d="M760 -25h-47q-262 0 -414 139t-152 443v852h189v-852q0 -300 141 -355t282 -55t236 107t95 303v852h188v-852q0 -366 -246 -510q-235 -137 -235 -268q0 -50 29.5 -78.5t84.5 -28.5h58v-123h-82q-172 0 -205 74t-33 116q0 130 158 243q-42 -7 -47 -7z" />
    <glyph glyph-name="uogonek" unicode="&#x173;" horiz-adv-x="1146" 
d="M868 -267.5q0 -60.5 115 -60.5h57v-123h-82q-163 0 -196 74t-33 115q0 134 164 262h-74v147h-8q-92 -172 -303 -172q-259 0 -314 153t-55 265v606h180v-581q0 -287 230 -287q115 0 188.5 95.5t73.5 256.5v516h180v-999q-88 -88 -105.5 -147.5t-17.5 -120z" />
    <glyph glyph-name="Wcircumflex" unicode="&#x174;" horiz-adv-x="1916" 
d="M618 1573l263 336h163l263 -336h-172l-172 229l-172 -229h-173zM401 0l-376 1409h196l299 -1212h8l324 1212h229l324 -1212h8l291 1212h188l-368 -1409h-238l-319 1196h-9l-319 -1196h-238z" />
    <glyph glyph-name="wcircumflex" unicode="&#x175;" horiz-adv-x="1482" 
d="M397 1163l262 336h164l262 -336h-172l-172 230l-172 -230h-172zM295 0l-287 999h189l204 -811h9l229 811h213l229 -811h9l204 811h181l-287 -999h-221l-222 819h-8l-221 -819h-221z" />
    <glyph glyph-name="Ycircumflex" unicode="&#x176;" horiz-adv-x="1245" 
d="M279 1573l262 336h164l262 -336h-172l-172 229l-172 -229h-172zM524 0v553l-499 856h213l380 -664h9l397 664h197l-508 -842v-567h-189z" />
    <glyph glyph-name="ycircumflex" unicode="&#x177;" horiz-adv-x="958" 
d="M131 1163l262 336h164l262 -336h-172l-172 230l-172 -230h-172zM68 -311h65q171 0 246 205l22 63l-393 1042h197l278 -802h9l278 802h180l-424 -1155q-117 -311 -360 -311h-98v156z" />
    <glyph glyph-name="Ydieresis" unicode="&#x178;" horiz-adv-x="1245" 
d="M328 1573v188h180v-188h-180zM737 1573v188h181v-188h-181zM524 0v553l-499 856h213l380 -664h9l397 664h197l-508 -842v-567h-189z" />
    <glyph glyph-name="Zacute" unicode="&#x179;" horiz-adv-x="1196" 
d="M532 1573l213 336h213l-294 -336h-132zM115 1249v160h1007v-123l-813 -1126h805v-160h-1040v123l813 1126h-772z" />
    <glyph glyph-name="zacute" unicode="&#x17a;" horiz-adv-x="909" 
d="M385 1163l213 336h213l-295 -336h-131zM66 852v147h770v-122l-531 -730h539v-147h-770v106l540 746h-548z" />
    <glyph glyph-name="Zdotaccent" unicode="&#x17b;" horiz-adv-x="1196" 
d="M508 1573v188h180v-188h-180zM115 1249v160h1007v-123l-813 -1126h805v-160h-1040v123l813 1126h-772z" />
    <glyph glyph-name="zdotaccent" unicode="&#x17c;" horiz-adv-x="909" 
d="M360 1237v188h181v-188h-181zM66 852v147h770v-122l-531 -730h539v-147h-770v106l540 746h-548z" />
    <glyph glyph-name="Zcaron" unicode="&#x17d;" horiz-adv-x="1196" 
d="M516 1573l-262 336h172l172 -230l172 230h172l-262 -336h-164zM115 1249v160h1007v-123l-813 -1126h805v-160h-1040v123l813 1126h-772z" />
    <glyph glyph-name="zcaron" unicode="&#x17e;" horiz-adv-x="909" 
d="M369 1163l-263 336h173l172 -229l172 229h172l-263 -336h-163zM66 852v147h770v-122l-531 -730h539v-147h-770v106l540 746h-548z" />
    <glyph glyph-name="longs" unicode="&#x17f;" horiz-adv-x="630" 
d="M197 0v852h-189v147h189v164q0 250 127 293t208 43h123v-156h-106q-136 0 -154 -70.5t-18 -117.5v-1155h-180z" />
    <glyph glyph-name="florin" unicode="&#x192;" 
d="M201 598v131h258l39 369q15 166 104.5 251t224.5 85q292 0 269 -304l-6 -90h-164l6 90q8 156 -113 156q-89 0 -113 -71.5t-28 -116.5l-39 -369h315v-131h-329l-68 -655q-15 -166 -104.5 -251t-225.5 -85q-291 0 -268 303l6 90h164l-6 -90q-8 -156 113 -156q90 0 113.5 72
t27.5 117l67 655h-243z" />
    <glyph glyph-name="AEacute" unicode="&#x1fc;" horiz-adv-x="2179" 
d="M1139 1573l213 336h213l-295 -336h-131zM1106 492v696h-8l-500 -696h508zM2056 1409v-164h-762v-446h607v-164h-607v-471h779v-164h-967v328h-625l-235 -328h-221l1015 1409h1016z" />
    <glyph glyph-name="aeacute" unicode="&#x1fd;" horiz-adv-x="1728" 
d="M786 1163l213 336h213l-294 -336h-132zM1046.5 799.5q-70.5 -68.5 -96.5 -189.5h514q-8 123 -72.5 190.5t-169.5 67.5t-175.5 -68.5zM279 269q0 -146 195 -146q120 0 200 75t80 220v96q-28 -28 -58 -35.5t-49 -11.5l-188 -33q-140 -24 -160 -77.5t-20 -87.5zM98 252
q0 255 328 309l197 33q86 16 108.5 31t22.5 52q0 88 -54 144t-159 56q-149 0 -188.5 -71t-41.5 -118h-172q12 169 125 252.5t277 83.5q242 0 336 -152q119 152 329 152t329.5 -128.5t119.5 -346.5v-74h-713q4 -156 83.5 -250t203.5 -94q200 0 237 172h181
q-20 -138 -137.5 -233t-280.5 -95q-205 0 -286 79t-109 130q-124 -209 -400 -209q-241 0 -288.5 107.5t-47.5 169.5z" />
    <glyph glyph-name="Oslashacute" unicode="&#x1fe;" horiz-adv-x="1556" 
d="M713 1573l213 336h213l-295 -336h-131zM778 1262q-220 0 -355.5 -157t-135.5 -385t112 -388l670 831q-125 99 -291 99zM778 147q220 0 356 157.5t136 391.5t-115 381l-670 -833q131 -97 293 -97zM281 182q-191 208 -191 524t193.5 522t494.5 206q216 0 404 -131l104 131
h156l-168 -211q192 -209 192 -522q0 -312 -144 -464.5t-271 -207t-273 -54.5q-231 0 -405 127l-103 -127h-155z" />
    <glyph glyph-name="oslashacute" unicode="&#x1ff;" horiz-adv-x="1146" 
d="M508 1163l213 336h213l-295 -336h-131zM391 195q72 -64 194 -64t207 100.5t85 249.5t-54 244zM756 805q-71 63 -193 63t-207.5 -99.5t-85.5 -249.5t54 -245zM205 127q-123 139 -123 375t138.5 379t352.5 143q179 0 291 -84l70 84h131l-125 -154q125 -141 125 -375
t-138.5 -377t-353.5 -143q-174 0 -292 84l-68 -84h-131z" />
    <glyph glyph-name="Scommaaccent" unicode="&#x218;" horiz-adv-x="1327" 
d="M565 -139h180v-160l-75 -209h-82l53 189h-76v180zM115 401h188q0 -117 95 -193.5t261 -76.5t261.5 67.5t95.5 194.5q0 146 -123 181.5t-197 48.5l-90 16q-221 38 -346 117t-125 264t143 299.5t374 114.5t375 -108.5t144 -293.5h-188q0 115 -91.5 180.5t-234.5 65.5
t-236 -61t-93 -172.5t87.5 -158t256.5 -75.5l90 -16q211 -38 330.5 -120t119.5 -274t-149 -309t-405 -117t-399.5 116t-143.5 310z" />
    <glyph glyph-name="scommaaccent" unicode="&#x219;" horiz-adv-x="1007" 
d="M401 -139h181v-160l-76 -209h-82l53 189h-76v180zM737 279q0 103 -155 131l-189 32q-130 23 -185.5 64t-80.5 89t-25 119q0 141 114 225.5t284 84.5q271 0 332 -112.5t61 -190.5h-172q0 77 -59.5 120.5t-157.5 43.5t-161.5 -40t-63.5 -118t63.5 -100.5t108.5 -30.5
l188 -33q279 -46 279 -268q0 -155 -116.5 -237.5t-305.5 -82.5t-301.5 81t-112.5 231h172q0 -85 70 -128.5t168 -43.5q245 0 245 164z" />
    <glyph glyph-name="uni021A" unicode="&#x21a;" horiz-adv-x="1204" 
d="M516 -139h180v-160l-75 -209h-82l53 189h-76v180zM16 1249v160h1172v-160h-492v-1249h-188v1249h-492z" />
    <glyph glyph-name="uni021B" unicode="&#x21b;" horiz-adv-x="671" 
d="M295 -139h180v-160l-76 -209h-82l54 189h-76v180zM475 0q-295 0 -295 295v557h-188v147h188v304h180v-304h263v-147h-263v-549q0 -116 51.5 -131.5t88.5 -15.5h123v-156h-148z" />
    <glyph glyph-name="circumflex" unicode="&#x2c6;" horiz-adv-x="1146" 
d="M229 1163l263 336h163l263 -336h-173l-172 230l-172 -230h-172z" />
    <glyph glyph-name="caron" unicode="&#x2c7;" horiz-adv-x="1146" 
d="M492 1163l-263 336h172l172 -229l172 229h173l-263 -336h-163z" />
    <glyph glyph-name="uni02C9" unicode="&#x2c9;" horiz-adv-x="1146" 
d="M287 1262v139h565v-139h-565z" />
    <glyph glyph-name="breve" unicode="&#x2d8;" horiz-adv-x="1146" 
d="M573.5 1303q155.5 0 180.5 172h114q-15 -148 -100 -217.5t-229.5 -69.5t-198 104.5t-61.5 182.5h114q25 -172 180.5 -172z" />
    <glyph glyph-name="dotaccent" unicode="&#x2d9;" horiz-adv-x="1146" 
d="M483 1237v188h181v-188h-181z" />
    <glyph glyph-name="ring" unicode="&#x2da;" horiz-adv-x="1146" 
d="M573.5 1245q22.5 0 42 8.5t34 22.5t22.5 33.5t8 42t-8 42t-22.5 34t-34 22.5t-42 8t-42 -8t-34 -22.5t-22.5 -34t-8 -42t8 -42t22.5 -33.5t34 -22.5t42 -8.5zM573 1155q-41 0 -77.5 14.5t-65.5 41t-45 62.5t-16 79t16 78.5t45 62.5t65.5 41t77.5 14t78 -14t65.5 -41
t45 -62.5t16.5 -78.5t-16.5 -79t-45 -62.5t-65.5 -41t-78 -14.5z" />
    <glyph glyph-name="ogonek" unicode="&#x2db;" horiz-adv-x="1146" 
d="M541 -225.5q0 -102.5 114 -102.5h58v-123h-82q-164 0 -197 74t-33 115q0 134 164 262h99q-123 -123 -123 -225.5z" />
    <glyph glyph-name="tilde" unicode="&#x2dc;" horiz-adv-x="1146" 
d="M426 1319q-68 0 -90 -98h-98q7 155 79 188t115 33t81 -13.5t89 -39t73.5 -36t45.5 -10.5q69 0 90 99h98q-7 -156 -79 -188.5t-115 -32.5t-81 13t-89 38.5t-73.5 36t-45.5 10.5z" />
    <glyph glyph-name="hungarumlaut" unicode="&#x2dd;" horiz-adv-x="1146" 
d="M319 1163l213 336h213l-294 -336h-132zM688 1163l213 336h213l-295 -336h-131z" />
    <glyph glyph-name="uni0394" unicode="&#x394;" horiz-adv-x="1318" 
d="M659 1237h-8l-362 -1081h731zM57 0l492 1409h221l492 -1409h-1205z" />
    <glyph glyph-name="uni03A9" unicode="&#x3a9;" horiz-adv-x="1425" 
d="M836 0v434q118 34 210.5 144.5t92.5 286.5t-117 294.5t-308.5 118.5t-309 -117.5t-117.5 -294.5t91 -285.5t212 -146.5v-434h-467v156h295v184q-224 109 -272 265.5t-48 262.5t44 212t126 186t196 124t317.5 44t374.5 -167t171 -423t-126 -363.5t-193 -140.5v-184h295
v-156h-467z" />
    <glyph glyph-name="uni03BC" unicode="&#x3bc;" 
d="M336 -295v-156h-180v1450h180v-581q0 -224 86 -255.5t172.5 -31.5t159.5 95t73 257v516h181v-999h-172v147h-9q-92 -172 -303 -172q-123 0 -200 58h-13q25 -178 25 -328z" />
    <glyph glyph-name="pi" unicode="&#x3c0;" horiz-adv-x="1204" 
d="M172 0v999h860v-999h-180v844h-500v-844h-180z" />
    <glyph glyph-name="Wgrave" unicode="&#x1e80;" horiz-adv-x="1916" 
d="M897 1573l-295 336h213l213 -336h-131zM401 0l-376 1409h196l299 -1212h8l324 1212h229l324 -1212h8l291 1212h188l-368 -1409h-238l-319 1196h-9l-319 -1196h-238z" />
    <glyph glyph-name="wgrave" unicode="&#x1e81;" horiz-adv-x="1482" 
d="M676 1163l-295 336h213l213 -336h-131zM295 0l-287 999h189l204 -811h9l229 811h213l229 -811h9l204 811h181l-287 -999h-221l-222 819h-8l-221 -819h-221z" />
    <glyph glyph-name="Wacute" unicode="&#x1e82;" horiz-adv-x="1916" 
d="M897 1573l213 336h213l-295 -336h-131zM401 0l-376 1409h196l299 -1212h8l324 1212h229l324 -1212h8l291 1212h188l-368 -1409h-238l-319 1196h-9l-319 -1196h-238z" />
    <glyph glyph-name="wacute" unicode="&#x1e83;" horiz-adv-x="1482" 
d="M676 1163l213 336h213l-295 -336h-131zM295 0l-287 999h189l204 -811h9l229 811h213l229 -811h9l204 811h181l-287 -999h-221l-222 819h-8l-221 -819h-221z" />
    <glyph glyph-name="Wdieresis" unicode="&#x1e84;" horiz-adv-x="1916" 
d="M668 1573v188h180v-188h-180zM1077 1573v188h180v-188h-180zM401 0l-376 1409h196l299 -1212h8l324 1212h229l324 -1212h8l291 1212h188l-368 -1409h-238l-319 1196h-9l-319 -1196h-238z" />
    <glyph glyph-name="wdieresis" unicode="&#x1e85;" horiz-adv-x="1482" 
d="M446 1237v188h181v-188h-181zM856 1237v188h180v-188h-180zM295 0l-287 999h189l204 -811h9l229 811h213l229 -811h9l204 811h181l-287 -999h-221l-222 819h-8l-221 -819h-221z" />
    <glyph glyph-name="Ygrave" unicode="&#x1ef2;" horiz-adv-x="1245" 
d="M557 1573l-295 336h213l213 -336h-131zM524 0v553l-499 856h213l380 -664h9l397 664h197l-508 -842v-567h-189z" />
    <glyph glyph-name="ygrave" unicode="&#x1ef3;" horiz-adv-x="958" 
d="M410 1163l-295 336h213l213 -336h-131zM68 -311h65q171 0 246 205l22 63l-393 1042h197l278 -802h9l278 802h180l-424 -1155q-117 -311 -360 -311h-98v156z" />
    <glyph glyph-name="endash" unicode="&#x2013;" horiz-adv-x="1138" 
d="M123 434v164h893v-164h-893z" />
    <glyph glyph-name="emdash" unicode="&#x2014;" horiz-adv-x="1720" 
d="M123 434v164h1474v-164h-1474z" />
    <glyph glyph-name="quoteleft" unicode="&#x2018;" horiz-adv-x="507" 
d="M147 893v205l82 311h99l-58 -295h90v-221h-213z" />
    <glyph glyph-name="quoteright" unicode="&#x2019;" horiz-adv-x="507" 
d="M147 1188v221h213v-205l-81 -311h-99l58 295h-91z" />
    <glyph glyph-name="quotesinglbase" unicode="&#x201a;" horiz-adv-x="507" 
d="M147 0v221h213v-205l-81 -311h-99l58 295h-91z" />
    <glyph glyph-name="quotedblleft" unicode="&#x201c;" horiz-adv-x="876" 
d="M516 893v205l82 311h98l-57 -295h90v-221h-213zM147 893v205l82 311h99l-58 -295h90v-221h-213z" />
    <glyph glyph-name="quotedblright" unicode="&#x201d;" horiz-adv-x="876" 
d="M516 1188v221h213v-205l-82 -311h-98l57 295h-90zM147 1188v221h213v-205l-81 -311h-99l58 295h-91z" />
    <glyph glyph-name="quotedblbase" unicode="&#x201e;" horiz-adv-x="876" 
d="M516 0v221h213v-205l-82 -311h-98l57 295h-90zM147 0v221h213v-205l-81 -311h-99l58 295h-91z" />
    <glyph glyph-name="dagger" unicode="&#x2020;" horiz-adv-x="901" 
d="M90 918v147h279v344h163v-344h279v-147h-279v-918h-163v918h-279z" />
    <glyph glyph-name="daggerdbl" unicode="&#x2021;" horiz-adv-x="901" 
d="M90 918v147h279v344h163v-344h279v-147h-279v-435h279v-147h-279v-336h-163v336h-279v147h279v435h-279z" />
    <glyph glyph-name="bullet" unicode="&#x2022;" horiz-adv-x="999" 
d="M499.5 164q-73.5 0 -138 26.5t-112.5 74.5t-75 112.5t-27 138.5t27 138.5t75 112.5t112.5 74.5t138 26.5t138 -26.5t113 -74.5t75 -112.5t26.5 -138.5t-26.5 -138.5t-75 -112.5t-113 -74.5t-138 -26.5z" />
    <glyph glyph-name="ellipsis" unicode="&#x2026;" horiz-adv-x="1589" 
d="M156 0v238h229v-238h-229zM680 0v238h229v-238h-229zM1204 0v238h230v-238h-230z" />
    <glyph glyph-name="perthousand" unicode="&#x2030;" horiz-adv-x="2310" 
d="M1950 106q147 0 147 246t-147.5 246t-147.5 -212t56.5 -246t91.5 -34zM1229 106q147 0 147 246t-147.5 246t-147.5 -212t56.5 -246t91.5 -34zM360.5 1303q-147.5 0 -147.5 -212.5t56 -246t91 -33.5q148 0 148 246t-147.5 246zM369 -25l712 1459h140l-713 -1459h-139z
M1950 -16q-78 0 -135.5 27.5t-94.5 77.5t-55 117.5t-18 145.5t18 145.5t55 118t94.5 78t135.5 27.5t135 -27.5t95 -78t55.5 -118t17.5 -145.5t-17.5 -145.5t-55.5 -117.5t-95 -77.5t-135 -27.5zM1229 -16q-78 0 -135.5 27.5t-94 77.5t-55 117.5t-18.5 145.5t18.5 145.5
t55 118t94 78t135.5 27.5t135 -27.5t95 -78t55.5 -118t17.5 -145.5t-17.5 -145.5t-55.5 -117.5t-95 -77.5t-135 -27.5zM360.5 688q-77.5 0 -135 27.5t-94.5 78t-55.5 118t-18.5 145.5t18.5 145.5t55.5 117.5t94.5 77.5t135 27.5t135 -27.5t95.5 -77.5t55.5 -117.5
t17.5 -145.5t-17.5 -145.5t-55.5 -118t-95.5 -78t-135 -27.5z" />
    <glyph glyph-name="guilsinglleft" unicode="&#x2039;" horiz-adv-x="655" 
d="M401 98l-295 418l295 418h148l-238 -418l238 -418h-148z" />
    <glyph glyph-name="guilsinglright" unicode="&#x203a;" horiz-adv-x="655" 
d="M106 98l238 418l-238 418h148l295 -418l-295 -418h-148z" />
    <glyph glyph-name="fraction" unicode="&#x2044;" horiz-adv-x="147" 
d="M-352 -25l712 1459h140l-713 -1459h-139z" />
    <glyph glyph-name="uni2070" unicode="&#x2070;" horiz-adv-x="720" 
d="M360.5 1614q-147.5 0 -147.5 -212.5t56 -246t91 -33.5q148 0 148 246t-147.5 246zM360.5 999q-77.5 0 -135 28t-94.5 78t-55.5 117.5t-18.5 145.5t18.5 145.5t55.5 117.5t94.5 78t135 28t135 -28t95.5 -78t55.5 -117.5t17.5 -145.5t-17.5 -145.5t-55.5 -117.5t-95.5 -78
t-135 -28z" />
    <glyph glyph-name="uni2074" unicode="&#x2074;" horiz-adv-x="720" 
d="M410 1270v239l-191 -239h191zM49 1147v98l385 475h131v-450h99v-123h-99v-131h-155v131h-361z" />
    <glyph glyph-name="uni2075" unicode="&#x2075;" horiz-adv-x="720" 
d="M250 1204q22 -90 116 -90q93 0 113.5 48t20.5 93t-36.5 75t-90.5 30q-86 0 -117 -66l-150 9l25 417h483v-131h-344l-16 -172h8q48 58 139 58q183 0 218.5 -85.5t35.5 -145.5q0 -116 -81 -180.5t-197 -64.5q-199 0 -237 80t-42 125h152z" />
    <glyph glyph-name="uni2076" unicode="&#x2076;" horiz-adv-x="720" 
d="M364.5 1360q-24.5 0 -48 -7t-41 -21.5t-27.5 -37t-10 -53.5t10 -55.5t27.5 -40t41 -23.5t48 -8t48 8t41 23.5t28 40t10.5 55.5t-10.5 53.5t-28 37t-41 21.5t-48 7zM369 999q-295 0 -295 353q0 385 303 385q119 0 182 -54.5t72 -150.5h-156q0 60 -38.5 75t-64.5 15
q-60 0 -99.5 -51.5t-43.5 -169.5q25 36 76.5 55t99.5 19q108 0 175 -56.5t67 -173.5t-81 -181.5t-197 -64.5z" />
    <glyph glyph-name="uni2077" unicode="&#x2077;" horiz-adv-x="720" 
d="M66 1581v139h589v-98l-327 -606h-172l311 565h-401z" />
    <glyph glyph-name="uni2078" unicode="&#x2078;" horiz-adv-x="720" 
d="M233 1527.5q0 -22.5 9.5 -40t26 -29.5t40 -18t52 -6t52 6t40 18t25.5 29.5t9 40t-9 40t-25.5 30t-40 18.5t-52 6t-52 -6t-40 -18.5t-26 -30t-9.5 -40zM217 1220.5q0 -26.5 10.5 -47t29.5 -34t46 -19.5t57.5 -6t57 6t46 19.5t30 34t10.5 47t-10.5 47t-30 34t-46 19.5
t-57 6t-57.5 -6t-46 -19.5t-29.5 -34t-10.5 -47zM96.5 1316q39.5 48 100.5 60v8q-53 12 -84 54.5t-31 93.5t19.5 87t55.5 62.5t88 41t148 14.5t171 -55.5t75 -144.5t-44 -117.5t-71 -35.5v-8q96 -19 118 -79t22 -101t-20.5 -79t-60.5 -64.5t-96.5 -40t-126 -13.5t-126 13.5
t-117 53.5t-60.5 121t39.5 129z" />
    <glyph glyph-name="uni2079" unicode="&#x2079;" horiz-adv-x="720" 
d="M348.5 1376q24.5 0 47 6.5t41 20.5t28.5 37.5t10 54.5t-10 55.5t-27.5 40t-41 23.5t-48 8t-48.5 -8t-41 -23.5t-27.5 -40t-10.5 -55.5t10.5 -53.5t27.5 -36.5t41 -21.5t48.5 -7.5zM483 1333q-31 -71 -177 -71q-100 0 -170 56.5t-70 169.5t79 181t199 68q295 0 295 -353
q-1 -385 -285 -385q-127 0 -195 56.5t-77 148.5h156q0 -37 34.5 -63.5t71.5 -26.5q67 0 101 47.5t38 171.5z" />
    <glyph glyph-name="uni2080" unicode="&#x2080;" horiz-adv-x="720" 
d="M360.5 287q-147.5 0 -147.5 -212.5t56 -246t91 -33.5q148 0 148 246t-147.5 246zM360.5 -328q-77.5 0 -135 28t-94.5 78t-55.5 117.5t-18.5 145.5t18.5 145.5t55.5 117.5t94.5 78t135 28t135 -28t95.5 -78t55.5 -117.5t17.5 -145.5t-17.5 -145.5t-55.5 -117.5t-95.5 -78
t-135 -28z" />
    <glyph glyph-name="uni2081" unicode="&#x2081;" horiz-adv-x="720" 
d="M467 393v-573h188v-131h-549v131h205v385l-164 -94l-65 110l287 172h98z" />
    <glyph glyph-name="uni2082" unicode="&#x2082;" horiz-adv-x="720" 
d="M483 188q0 99 -109 99t-130 -50.5t-23 -80.5h-147q4 128 85 191t201 63q196 0 237.5 -83t41.5 -132q0 -88 -59.5 -141t-169.5 -105l-50 -25q-35 -15 -74.5 -48.5t-39.5 -55.5h393v-131h-573q0 195 90 258t139 88l49 24q75 39 107 67.5t32 61.5z" />
    <glyph glyph-name="uni2083" unicode="&#x2083;" horiz-adv-x="720" 
d="M398.5 -213q105.5 0 105.5 79.5t-38.5 106.5t-105.5 27h-57v106h57q90 0 108.5 36t18.5 58.5t-9 40t-25.5 30t-40 18.5t-67.5 6t-78 -30t-34 -77h-147q0 161 110 191.5t172 30.5q121 0 196 -55.5t75 -143.5t-44 -118t-71 -36v-6q95 -18 117.5 -79.5t22.5 -102.5
q0 -90 -81 -143.5t-223 -53.5q-290 0 -290 230h147q0 -53 38 -84t143.5 -31z" />
    <glyph glyph-name="uni2084" unicode="&#x2084;" horiz-adv-x="720" 
d="M410 -57v239l-191 -239h191zM49 -180v98l385 475h131v-450h99v-123h-99v-131h-155v131h-361z" />
    <glyph glyph-name="uni2085" unicode="&#x2085;" horiz-adv-x="720" 
d="M401 147q184 0 219 -86t35 -145q0 -117 -81.5 -180.5t-196.5 -63.5q-199 0 -237 80t-42 125h152q20 -90 114 -90t115 48t21 93t-37.5 75t-89.5 30q-86 0 -117 -66l-150 8l25 418h483v-131h-344l-16 -172h8q47 57 139 57z" />
    <glyph glyph-name="uni2086" unicode="&#x2086;" horiz-adv-x="720" 
d="M364.5 33q-24.5 0 -48 -7.5t-41 -21.5t-27.5 -36.5t-10 -53.5t10 -55.5t27.5 -40t41 -23.5t48 -8t48 8t41 23.5t28 40t10.5 55.5t-10.5 53.5t-28 36.5t-41 21.5t-48 7.5zM74 25q0 385 303 385q119 0 182 -54.5t72 -150.5h-156q0 60 -38.5 75t-64.5 15q-59 0 -99 -51
t-44 -170q25 36 75 54.5t100 18.5q110 0 176.5 -56t66.5 -174t-81.5 -181.5t-196.5 -63.5q-295 0 -295 353z" />
    <glyph glyph-name="uni2087" unicode="&#x2087;" horiz-adv-x="720" 
d="M66 254v139h589v-98l-327 -606h-172l311 565h-401z" />
    <glyph glyph-name="uni2088" unicode="&#x2088;" horiz-adv-x="720" 
d="M233 200.5q0 -22.5 9.5 -40t26 -29.5t40 -18.5t52 -6.5t52 6.5t40 18.5t25.5 29.5t9 40t-9 40t-25.5 30t-40 18.5t-52 6t-52 -6t-40 -18.5t-26 -30t-9.5 -40zM217 -106.5q0 -26.5 10.5 -47t29.5 -34t46 -19.5t57.5 -6t57 6t46 19.5t30 34t10.5 47t-10.5 47t-30 34
t-46 19.5t-57 6t-57.5 -6t-46 -19.5t-29.5 -34t-10.5 -47zM96.5 -11q39.5 48 100.5 60v8q-53 12 -84 54.5t-31 93.5t19.5 87t55.5 62.5t88 41t148 14.5t171 -55.5t75 -143.5t-44 -118t-71 -36v-8q96 -19 118 -79t22 -101t-20.5 -79t-60.5 -64.5t-96.5 -40t-126 -13.5
t-126 13.5t-117 53.5t-60.5 121t39.5 129z" />
    <glyph glyph-name="uni2089" unicode="&#x2089;" horiz-adv-x="720" 
d="M348.5 49q24.5 0 47 6t41 20.5t28.5 38t10 54.5t-10 55.5t-27.5 40t-41 23.5t-48 8t-48.5 -8t-41 -23.5t-27.5 -40t-10.5 -55.5t10.5 -53.5t27.5 -37t41 -21.5t48.5 -7zM639 57q-1 -385 -285 -385q-127 0 -195 56.5t-77 148.5h156q0 -37 34.5 -63.5t71.5 -26.5
q68 0 101.5 48t37.5 171q-20 -47 -77.5 -59.5t-99.5 -12.5q-98 0 -169 56t-71 170t79 182t199 68q295 0 295 -353z" />
    <glyph glyph-name="Euro" unicode="&#x20ac;" 
d="M164 782q0 5 4 29h-135l33 115h114q65 364 233.5 436t269.5 72q372 0 447 -369h-174q-37 112 -95 162.5t-145 50.5q-86 0 -191 -46.5t-154 -305.5h415l-32 -115h-400v-13l-2 -50l2 -125h391l-32 -115h-346q43 -274 152.5 -325.5t167.5 -51.5q105 0 162 41t93 131h176
q-82 -328 -430 -328q-217 0 -346 144t-164 389h-186l33 115h141v9z" />
    <glyph glyph-name="afii61289" unicode="&#x2113;" horiz-adv-x="843" 
d="M568.5 1310q-29.5 48 -74.5 48q-44 0 -96 -42t-52 -325v-289l4 -2q170 143 209 271.5t39 209.5t-29.5 129zM346 379q0 -283 186 -283q103 0 158 61.5t84 102.5l45 -33q-77 -182 -182 -217t-152 -35q-232 0 -265.5 134t-33.5 229v151l-4 3l-121 -84l-24 49l149 125v278
q0 301 77 416t141 135.5t108 20.5q94 0 149.5 -71t55.5 -179q0 -190 -111 -328t-260 -252v-223z" />
    <glyph glyph-name="afii61352" unicode="&#x2116;" horiz-adv-x="2482" 
d="M1616 360v132h727v-132h-727zM1616 0v131h727v-131h-727zM1788 1057q0 -53 13.5 -96t39 -75t60 -49.5t77.5 -17.5t79 17.5t61.5 49.5t39 75t13.5 96t-13.5 97t-39 76t-61.5 48t-79 16t-77.5 -16t-60 -48t-39 -76t-13.5 -97zM1716.5 1326.5q98.5 100.5 263.5 100.5
t263 -99.5t98 -269t-100.5 -270t-263.5 -100.5t-261 99t-98 269t98.5 270.5zM180 0v1409h189l770 -1098h8l-8 1098h188v-1409h-188l-770 1090h-9l9 -1090h-189z" />
    <glyph glyph-name="trademark" unicode="&#x2122;" horiz-adv-x="1646" 
d="M8 1286v123h631v-123h-238v-581h-147v581h-246zM737 705v704h205l205 -508h8l205 508h205v-704h-148l8 507h-8l-205 -507h-122l-205 507h-8l8 -507h-148z" />
    <glyph glyph-name="Omega" unicode="&#x2126;" horiz-adv-x="1425" 
d="M836 0v434q118 34 210.5 144.5t92.5 286.5t-117 294.5t-308.5 118.5t-309 -117.5t-117.5 -294.5t91 -285.5t212 -146.5v-434h-467v156h295v184q-224 109 -272 265.5t-48 262.5t44 212t126 186t196 124t317.5 44t374.5 -167t171 -423t-126 -363.5t-193 -140.5v-184h295
v-156h-467z" />
    <glyph glyph-name="estimated" unicode="&#x212e;" horiz-adv-x="1740" 
d="M356 739q0 -12 15 -12h1007q8 0 8 12v396q0 29 -20 49q-147 147 -284.5 176t-208.5 29q-283 0 -494 -211q-23 -23 -23 -54v-385zM1683 684h-994t-333 -8v-397q0 -19 8 -30t34 -39t141.5 -109t342.5 -81t347.5 92.5t167.5 147.5h119q-167 -200 -356.5 -242.5t-321.5 -42.5
t-280 56.5t-261 157t-175.5 233.5t-62.5 282.5t62.5 282.5t175.5 233.5t262 157t313 56.5t312.5 -56.5t261.5 -157t175 -233.5t62 -282v-21z" />
    <glyph glyph-name="uni2153" unicode="&#x2153;" horiz-adv-x="1589" 
d="M467 1409v-573h188v-131h-549v131h205v385l-164 -95l-65 111l287 172h98zM401 -25l713 1459h139l-712 -1459h-140zM1372 204.5q0 106.5 -143 106.5h-58v107h58q87 0 107 35.5t20 58.5t-9.5 40t-25.5 29.5t-40 18.5t-68 6t-77.5 -29.5t-33.5 -76.5h-148q0 160 110 190.5
t172 30.5q122 0 196.5 -55.5t74.5 -144.5t-44 -117.5t-70 -34.5v-7q95 -18 117 -79.5t22 -102.5q0 -90 -80 -143t-223 -53q-291 0 -291 229h147q0 -83 56.5 -99t143.5 -16t87 106.5z" />
    <glyph glyph-name="uni2154" unicode="&#x2154;" horiz-adv-x="1589" 
d="M401 -25l713 1459h139l-712 -1459h-140zM1372 204.5q0 106.5 -143 106.5h-58v107h58q87 0 107 35.5t20 58.5t-9.5 40t-25.5 29.5t-40 18.5t-68 6t-77.5 -29.5t-33.5 -76.5h-148q0 160 110 190.5t172 30.5q122 0 196.5 -55.5t74.5 -144.5t-44 -117.5t-70 -34.5v-7
q95 -18 117 -79.5t22 -102.5q0 -90 -80 -143t-223 -53q-291 0 -291 229h147q0 -83 56.5 -99t143.5 -16t87 106.5zM483 1204q0 99 -108.5 99t-130 -50.5t-23.5 -81.5h-147q4 129 84.5 191.5t201.5 62.5q195 0 237 -82.5t42 -132.5q0 -89 -59.5 -141t-169.5 -104l-50 -25
q-37 -16 -75.5 -50t-38.5 -54h393v-131h-573q0 195 90 258t139 88l49 24q75 39 107 67.5t32 61.5z" />
    <glyph glyph-name="uni2155" unicode="&#x2155;" horiz-adv-x="1589" 
d="M467 1409v-573h188v-131h-549v131h205v385l-164 -95l-65 111l287 172h98zM393 -25l713 1459h139l-713 -1459h-139zM1368 253q0 91 -140 91q-68 0 -104 -65l-149 8l24 418h484v-132h-344l-17 -167h8q53 53 125 53q269 0 269 -234q0 -113 -80.5 -177t-198.5 -64
q-198 0 -236 79.5t-42 124.5h151q22 -90 123 -90q52 0 89.5 32t37.5 123z" />
    <glyph glyph-name="uni2156" unicode="&#x2156;" horiz-adv-x="1589" 
d="M393 -25l713 1459h139l-713 -1459h-139zM483 1204q0 99 -108.5 99t-130 -50.5t-23.5 -81.5h-147q4 129 84.5 191.5t201.5 62.5q195 0 237 -82.5t42 -132.5q0 -89 -59.5 -141t-169.5 -104l-50 -25q-37 -16 -75.5 -50t-38.5 -54h393v-131h-573q0 195 90 258t139 88l49 24
q75 39 107 67.5t32 61.5zM1368 253q0 91 -140 91q-68 0 -104 -65l-149 8l24 418h484v-132h-344l-17 -167h8q44 53 140 53q183 0 218.5 -85.5t35.5 -145.5q0 -116 -80.5 -180t-198.5 -64q-198 0 -236 79.5t-42 124.5h151q22 -90 123 -90q52 0 89.5 32t37.5 123z" />
    <glyph glyph-name="uni2157" unicode="&#x2157;" horiz-adv-x="1589" 
d="M377 -25l713 1459h139l-713 -1459h-139zM398.5 803q105.5 0 105.5 79.5t-38.5 106.5t-105.5 27h-57v106h57q90 0 108.5 36t18.5 58.5t-9 40t-25.5 29.5t-40 18.5t-66.5 6.5t-78 -29.5t-35 -77.5h-147q0 105 76 163t207 58q186 0 228 -76.5t42 -112.5q0 -66 -31 -108.5
t-84 -54.5v-6q95 -18 117.5 -79.5t22.5 -102.5q0 -90 -81 -143.5t-223 -53.5q-290 0 -290 230h147q0 -53 38 -84t143.5 -31zM1368 253q0 91 -140 91q-68 0 -104 -65l-149 8l24 418h484v-132h-344l-17 -167h8q44 53 140 53q183 0 218.5 -85.5t35.5 -145.5q0 -116 -80.5 -180
t-198.5 -64q-198 0 -236 79.5t-42 124.5h151q22 -90 123 -90q52 0 89.5 32t37.5 123z" />
    <glyph glyph-name="uni2158" unicode="&#x2158;" horiz-adv-x="1589" 
d="M410 958v240l-191 -240h191zM377 -25l713 1459h139l-713 -1459h-139zM49 836v98l385 475h131v-451h99v-122h-99v-131h-155v131h-361zM1368 253q0 91 -140 91q-68 0 -104 -65l-149 8l24 418h484v-132h-348l-13 -167h8q44 53 140 53q183 0 218.5 -85.5t35.5 -145.5
q0 -116 -80.5 -180t-198.5 -64q-198 0 -236 79.5t-42 124.5h151q22 -90 123 -90q52 0 89.5 32t37.5 123z" />
    <glyph glyph-name="uni2159" unicode="&#x2159;" horiz-adv-x="1589" 
d="M1232.5 344q-24.5 0 -48 -7t-41 -21.5t-27.5 -37t-10 -53t10 -55.5t27.5 -40t41 -23.5t48 -8.5t48.5 8.5t41 23.5t27.5 40t10.5 55.5t-10.5 53t-27.5 37t-41 21.5t-48.5 7zM467 1409v-573h188v-131h-549v131h205v385l-164 -95l-65 111l287 172h98zM410 -25l712 1459h140
l-713 -1459h-139zM1343 516q0 60 -37.5 75t-64.5 15q-60 0 -99.5 -50t-43.5 -171h8q42 74 164 74q175 0 210.5 -85.5t35.5 -145.5q0 -114 -80 -179t-199 -65q-295 0 -295 352q0 296 118 340.5t183 44.5q122 0 184.5 -54.5t71.5 -150.5h-156z" />
    <glyph glyph-name="uni215A" unicode="&#x215a;" horiz-adv-x="1589" 
d="M1232.5 344q-24.5 0 -47 -7t-41 -21.5t-28.5 -37t-10 -53t10 -55.5t27.5 -40t41 -23.5t48 -8.5t48.5 8.5t41 23.5t27.5 40t10.5 55.5t-10.5 53t-27.5 37t-41 21.5t-48.5 7zM369 -25l712 1459h140l-713 -1459h-139zM250 893q22 -90 116 -90q93 0 113.5 48t20.5 93
t-37.5 75t-89.5 30q-84 0 -117 -66l-150 8l25 418h483v-131h-344l-16 -168h8q44 53 139 53q183 0 218.5 -86t35.5 -145q0 -117 -81.5 -180.5t-196.5 -63.5q-199 0 -237 80t-42 125h152zM1343 516q0 60 -37.5 75t-64.5 15q-60 0 -99.5 -50t-43.5 -171h8q42 74 164 74
q175 0 210.5 -85.5t35.5 -145.5q0 -114 -80 -179t-199 -65q-295 0 -295 352q0 296 118 340.5t183 44.5q122 0 184.5 -54.5t71.5 -150.5h-156z" />
    <glyph glyph-name="uni215B" unicode="&#x215b;" horiz-adv-x="1589" 
d="M1102 512q0 -23 9 -40t25.5 -29.5t40 -18.5t52 -6t52.5 6t40 18.5t25.5 29.5t9.5 40t-9.5 40t-25.5 29.5t-40 18.5t-52.5 6t-52 -6t-40 -18.5t-25.5 -29.5t-9 -40zM1372 204.5q0 106.5 -123 106.5t-143.5 -40t-20.5 -80t39.5 -66.5t143.5 -26.5t104 106.5zM467 1409v-573
h188v-131h-549v131h205v385l-164 -95l-65 111l287 172h98zM401 -25l713 1459h139l-712 -1459h-140zM1065 369q-115 27 -115 163q0 79 75 134t204 55t203.5 -55.5t74.5 -144.5t-44 -117.5t-70 -34.5v-9q95 -18 117 -78.5t22 -101.5t-20.5 -79t-60.5 -64.5t-96.5 -39.5
t-126 -13t-125.5 13t-96 39.5t-60.5 64.5t-20.5 79q0 75 38.5 121.5t100.5 58.5v9z" />
    <glyph glyph-name="uni215C" unicode="&#x215c;" horiz-adv-x="1589" 
d="M1102 512q0 -23 9 -40t25.5 -29.5t40 -18.5t52 -6t52.5 6t40 18.5t25.5 29.5t9.5 40t-9.5 40t-25.5 29.5t-40 18.5t-52.5 6t-52 -6t-40 -18.5t-25.5 -29.5t-9 -40zM1372 204.5q0 106.5 -123 106.5t-143.5 -40t-20.5 -80t39.5 -66.5t143.5 -26.5t104 106.5zM369 -25
l712 1459h140l-713 -1459h-139zM398.5 803q105.5 0 105.5 79.5t-38.5 106.5t-105.5 27h-57v106h57q90 0 108.5 36t18.5 58.5t-9 40t-25.5 29.5t-40 18.5t-66.5 6.5t-78 -29.5t-35 -77.5h-147q0 105 76 163t207 58q186 0 228 -76.5t42 -112.5q0 -66 -31 -108.5t-84 -54.5v-6
q95 -18 117.5 -79.5t22.5 -102.5q0 -90 -81 -143.5t-223 -53.5q-290 0 -290 230h147q0 -53 38 -84t143.5 -31zM1065 369q-115 27 -115 163q0 79 75 134t204 55t203.5 -55.5t74.5 -144.5t-44 -117.5t-70 -34.5v-9q95 -18 117 -78.5t22 -101.5t-20.5 -79t-60.5 -64.5
t-96.5 -39.5t-126 -13t-125.5 13t-96 39.5t-60.5 64.5t-20.5 79q0 75 38.5 121.5t100.5 58.5v9z" />
    <glyph glyph-name="uni215D" unicode="&#x215d;" horiz-adv-x="1589" 
d="M1102 512q0 -23 9 -40t25.5 -29.5t40 -18.5t52 -6t52.5 6t40 18.5t25.5 29.5t9.5 40t-9.5 40t-25.5 29.5t-40 18.5t-52.5 6t-52 -6t-40 -18.5t-25.5 -29.5t-9 -40zM1372 204.5q0 106.5 -123 106.5t-143.5 -40t-20.5 -80t39.5 -66.5t143.5 -26.5t104 106.5zM369 -25
l712 1459h140l-713 -1459h-139zM250 893q22 -90 116 -90q93 0 113.5 48t20.5 93t-37.5 75t-89.5 30q-84 0 -117 -66l-150 8l25 418h483v-131h-344l-16 -168h8q44 53 139 53q183 0 218.5 -86t35.5 -145q0 -117 -81.5 -180.5t-196.5 -63.5q-199 0 -237 80t-42 125h152z
M1065 369q-115 27 -115 163q0 79 75 134t204 55t203.5 -55.5t74.5 -144.5t-44 -117.5t-70 -34.5v-9q95 -18 117 -78.5t22 -101.5t-20.5 -79t-60.5 -64.5t-96.5 -39.5t-126 -13t-125.5 13t-96 39.5t-60.5 64.5t-20.5 79q0 75 38.5 121.5t100.5 58.5v9z" />
    <glyph glyph-name="uni215E" unicode="&#x215e;" horiz-adv-x="1589" 
d="M1102 512q0 -23 9 -40t25.5 -29.5t40 -18.5t52 -6t52.5 6t40 18.5t25.5 29.5t9.5 40t-9.5 40t-25.5 29.5t-40 18.5t-52.5 6t-52 -6t-40 -18.5t-25.5 -29.5t-9 -40zM1372 204.5q0 106.5 -123 106.5t-143.5 -40t-20.5 -80t39.5 -66.5t143.5 -26.5t104 106.5zM66 1270v139
h589v-98l-327 -606h-172l311 565h-401zM311 -25l713 1459h139l-712 -1459h-140zM1065 369q-115 27 -115 163q0 79 75 134t204 55t203.5 -55.5t74.5 -144.5t-44 -117.5t-70 -34.5v-9q95 -18 117 -78.5t22 -101.5t-20.5 -79t-60.5 -64.5t-96.5 -39.5t-126 -13t-125.5 13
t-96 39.5t-60.5 64.5t-20.5 79q0 75 38.5 121.5t100.5 58.5v9z" />
    <glyph glyph-name="uni2190" unicode="&#x2190;" horiz-adv-x="1351" 
d="M504 582h790v-131h-412q-413 0 -593 8l362 -357l-94 -86l-500 500l500 500l94 -86l-362 -357q202 9 215 9z" />
    <glyph glyph-name="uni2191" unicode="&#x2191;" horiz-adv-x="1351" 
d="M741 708v-810h-131v412q0 413 8 593l-356 -362l-86 94l500 500l500 -500l-86 -94l-357 362q8 -180 8 -195z" />
    <glyph glyph-name="uni2192" unicode="&#x2192;" horiz-adv-x="1351" 
d="M866 451h-809v131h411q411 0 479.5 -3.5t113.5 -5.5l-361 357l95 86l499 -500l-499 -500l-95 86l361 357q-180 -8 -195 -8z" />
    <glyph glyph-name="uni2193" unicode="&#x2193;" horiz-adv-x="1351" 
d="M610 324v811h131v-413q0 -413 -8 -593l357 363l86 -95l-500 -499l-500 499l86 95l356 -363q-8 180 -8 195z" />
    <glyph glyph-name="uni2196" unicode="&#x2196;" horiz-adv-x="1351" 
d="M238 999h704v-122h-500q92 -81 129 -119.5t46 -47.5l538 -538l-90 -98l-467 475q-27 27 -52.5 50.5t-56 56t-64.5 68.5t-65 71v-500h-122v704z" />
    <glyph glyph-name="uni2197" unicode="&#x2197;" horiz-adv-x="1351" 
d="M451 877v122h704v-704h-123v500q-114 -129 -162.5 -174.5t-74.5 -71.5l-467 -475l-90 98l467 467q19 19 91 92t154 146h-499z" />
    <glyph glyph-name="uni2198" unicode="&#x2198;" horiz-adv-x="1351" 
d="M451 74v123h499q-90 80 -158 149t-87 88l-467 467l90 98l467 -475q27 -27 62 -59t175 -186v499h123v-704h-704z" />
    <glyph glyph-name="uni2199" unicode="&#x2199;" horiz-adv-x="1351" 
d="M942 197v-123h-704v704h122v-499q31 35 65 70.5t64.5 68.5t56 56.5t52.5 49.5l467 475l90 -98l-273 -273q-274 -274 -307.5 -309t-132.5 -122h500z" />
    <glyph glyph-name="partialdiff" unicode="&#x2202;" 
d="M720.5 227.5q98.5 96.5 98.5 231.5t-72 210.5t-204 75.5q-131 0 -222.5 -95.5t-91.5 -233.5q0 -137 74 -211t196 -74q123 0 221.5 96.5zM543 1278q-172 0 -224 -221h-180q57 268 213 322.5t251 54.5q202 0 332 -153.5t130 -461.5q0 -447 -171 -645.5t-427 -198.5
q-177 0 -301.5 114t-124.5 304q0 230 145 369t355 139q172 0 242.5 -67.5t88.5 -108.5q2 20 2 23l1 14l2 57q0 236 -81 347.5t-253 111.5z" />
    <glyph glyph-name="Delta" unicode="&#x2206;" horiz-adv-x="1318" 
d="M659 1237h-8l-362 -1081h731zM57 0l492 1409h221l492 -1409h-1205z" />
    <glyph glyph-name="product" unicode="&#x220f;" horiz-adv-x="1482" 
d="M188 0v1409h1106v-1409h-180v1253h-745v-1253h-181z" />
    <glyph glyph-name="summation" unicode="&#x2211;" horiz-adv-x="1081" 
d="M49 0v109l451 587l-434 590v123h942v-156h-713l410 -548l-435 -549h770v-156h-991z" />
    <glyph glyph-name="minus" unicode="&#x2212;" 
d="M115 442v156h934v-156h-934z" />
    <glyph glyph-name="uni2215" unicode="&#x2215;" horiz-adv-x="147" 
d="M-352 -25l712 1459h140l-713 -1459h-139z" />
    <glyph glyph-name="uni2219" unicode="&#x2219;" horiz-adv-x="540" 
d="M156 401v230h229v-230h-229z" />
    <glyph glyph-name="radical" unicode="&#x221a;" horiz-adv-x="1204" 
d="M57 623v155l287 90l266 -671h8l431 1212h180l-508 -1409h-205l-280 678z" />
    <glyph glyph-name="infinity" unicode="&#x221e;" horiz-adv-x="1449" 
d="M1072 328q40 0 72 15t54.5 42t34.5 60.5t12 90.5t-47.5 113t-124.5 56q-107 0 -171 -76t-91 -113q100 -137 160.5 -162.5t100.5 -25.5zM378 328q79 0 139.5 52t121.5 136q-99 136 -160 162.5t-101 26.5t-72 -15.5t-54.5 -42t-34.5 -60.5t-12 -71t12 -70.5t47 -75.5
t114 -42zM729 637q151 215 349 215q136 0 229.5 -94t93.5 -242t-94 -242t-242 -94q-197 0 -344 213q-151 -213 -349 -213q-136 0 -229.5 94t-93.5 242t94 242t244 94t230.5 -84t111.5 -131z" />
    <glyph glyph-name="integral" unicode="&#x222b;" horiz-adv-x="745" 
d="M66 -221h49q147 0 173.5 79t27.5 139t-5 159l-57 1015q-13 244 58.5 380.5t301.5 136.5h66v-156h-49q-146 0 -173.5 -79t-28.5 -139.5t5 -158.5l58 -1016q13 -241 -61 -378.5t-300 -137.5h-65v156z" />
    <glyph glyph-name="approxequal" unicode="&#x2248;" 
d="M377 319q-107 0 -107 -163h-155q0 227 104.5 269t162.5 42t110.5 -20.5t119 -60.5t100 -57.5t74.5 -17.5q107 0 107 156h156q0 -150 -73 -230.5t-181 -80.5q-63 0 -117.5 21.5t-123.5 64.5t-103.5 60t-73.5 17zM377 745q-107 0 -107 -163h-155q0 227 104.5 269t162.5 42
t110.5 -20.5t119 -60.5t100 -57.5t74.5 -17.5q107 0 107 156h156q0 -150 -73 -230.5t-181 -80.5q-63 0 -117.5 21.5t-123.5 64.5t-103.5 60t-73.5 17z" />
    <glyph glyph-name="notequal" unicode="&#x2260;" 
d="M115 655v156h536l160 287l131 -74l-119 -213h226v-156h-312l-149 -270h461v-156h-547l-158 -286l-131 73l117 213h-215v156h301l149 270h-450z" />
    <glyph glyph-name="lessequal" unicode="&#x2264;" 
d="M147 0v156h869v-156h-869zM147 655v156l869 369v-164l-686 -279l686 -278v-172z" />
    <glyph glyph-name="greaterequal" unicode="&#x2265;" 
d="M147 0v156h869v-156h-869zM1016 811v-156l-869 -368v164l687 278l-687 279v172z" />
    <glyph glyph-name="uni25A0" unicode="&#x25a0;" horiz-adv-x="1409" 
d="M0 0v1409h1409v-1409h-1409z" />
    <glyph glyph-name="uni25A1" unicode="&#x25a1;" horiz-adv-x="1409" 
d="M164 156h1081v1097h-1081v-1097zM0 0v1409h1409v-1409h-1409z" />
    <glyph glyph-name="uni25B6" unicode="&#x25b6;" horiz-adv-x="1028" 
d="M90 -25v1049l914 -524z" />
    <glyph glyph-name="uni25B7" unicode="&#x25b7;" horiz-adv-x="1028" 
d="M254 246l459 254l-459 254v-508zM90 -25v1049l914 -524z" />
    <glyph glyph-name="uni25C0" unicode="&#x25c0;" horiz-adv-x="1028" 
d="M25 500l913 524v-1049z" />
    <glyph glyph-name="uni25C1" unicode="&#x25c1;" horiz-adv-x="1028" 
d="M315 500l459 -254v508zM25 500l913 524v-1049z" />
    <glyph glyph-name="lozenge" unicode="&#x25ca;" horiz-adv-x="1318" 
d="M659 1262h-8l-385 -551l393 -564h9l385 551zM573 0l-499 705l499 704h172l500 -704l-500 -705h-172z" />
    <glyph glyph-name="uni25CB" unicode="&#x25cb;" horiz-adv-x="1130" 
d="M313 230.5q100 -107.5 255 -107.5q154 0 252 107.5t98 269.5t-101.5 269.5t-254.5 107.5t-251 -106.5t-98 -269.5t100 -270.5zM565.5 1024q216.5 0 366 -149.5t149.5 -371.5t-149.5 -375t-367 -153t-366.5 150.5t-149 372.5t150 374t366.5 152z" />
    <glyph glyph-name="uni25CF" unicode="&#x25cf;" horiz-adv-x="1130" 
d="M565.5 1024q216.5 0 366 -149.5t149.5 -371.5t-149.5 -375t-367 -153t-366.5 150.5t-149 372.5t150 374t366.5 152z" />
    <glyph glyph-name="uni25FB" unicode="&#x25fb;" horiz-adv-x="999" 
d="M164 147h672v705h-672v-705zM0 0v999h999v-999h-999z" />
    <glyph glyph-name="uni25FC" unicode="&#x25fc;" horiz-adv-x="999" 
d="M0 0v999h999v-999h-999z" />
    <glyph glyph-name="uni2605" unicode="&#x2605;" horiz-adv-x="1118" 
d="M217 27l139 374l-331 222l10 32l399 -18l109 387h32l107 -387l401 18l11 -32l-334 -222l141 -374l-29 -21l-313 248l-313 -248z" />
    <glyph glyph-name="dotlessj" unicode="&#xf6be;" horiz-adv-x="491" 
d="M156 -147v1146h180v-1179q0 -271 -279 -271h-65v156h49q115 0 115 148z" />
    <glyph glyph-name="commaaccent" unicode="&#xf6c3;" horiz-adv-x="1146" 
d="M483 -139h181v-160l-76 -209h-82l53 189h-76v180z" />
    <glyph glyph-name="at.sc" horiz-adv-x="1720" 
d="M1016 303v72q-22 -22 -45 -25.5t-37 -5.5l-139 -16q-65 -7 -98 -38t-33 -67q0 -64 52.5 -106.5t150 -11t123.5 89t26 108.5zM492 222.5q0 123.5 100 163.5t170 48l147 17q68 8 87.5 20t19.5 41q0 64 -41.5 103.5t-136.5 39.5q-94 0 -121 -53t-29 -86h-156
q12 131 101.5 196.5t218.5 65.5q238 0 283 -105.5t45 -172.5v-246q0 -164 131 -164q119 0 149.5 122t30.5 228t-46 208t-173.5 210.5t-410.5 108.5t-457.5 -172.5t-174.5 -435t169.5 -430t445.5 -167.5q230 0 344 107h172q-186 -229 -516 -229q-164 0 -302.5 55
t-237.5 153.5t-152.5 231t-53.5 282.5q0 307 213 517.5t549 210.5t493.5 -137.5t213 -262.5t55.5 -255q0 -235 -94 -343t-242 -108q-183 0 -239 120q-74 -129 -285 -129q-126 0 -198 62t-72 185.5z" />
    <glyph glyph-name="a.sc" horiz-adv-x="1073" 
d="M541 885h-9l-182 -479h367zM16 0l418 1065h213l410 -1065h-189l-96 258h-477l-98 -258h-181z" />
    <glyph glyph-name="b.sc" horiz-adv-x="1187" 
d="M844 778q0 131 -172 131h-312v-282h312q123 0 147.5 59t24.5 92zM360 471v-315h345q137 0 162.5 63t25.5 99q0 71 -49 112t-139 41h-345zM1032 802q0 -190 -180 -233v-6q101 -16 165 -86t64 -152q0 -154 -99.5 -239.5t-276.5 -85.5h-525v1065h492q266 0 313 -106.5
t47 -156.5z" />
    <glyph glyph-name="c.sc" horiz-adv-x="1196" 
d="M942 721q-60 205 -314 205q-152 0 -250.5 -109t-98.5 -280t97 -284.5t263 -113.5q236 0 303 205h180q-33 -168 -165.5 -268.5t-325.5 -100.5q-242 0 -391.5 161t-149.5 400t150.5 396.5t390.5 157.5q194 0 326.5 -102t164.5 -267h-180z" />
    <glyph glyph-name="d.sc" horiz-adv-x="1228" 
d="M360 909v-753h213q194 0 285.5 108.5t91.5 268t-91.5 268t-285.5 108.5h-213zM180 0v1065h393q265 0 415.5 -146.5t150.5 -384.5t-150 -386t-416 -148h-393z" />
    <glyph glyph-name="e.sc" horiz-adv-x="1089" 
d="M180 0v1065h778v-156h-598v-291h484v-151h-484v-311h615v-156h-795z" />
    <glyph glyph-name="f.sc" horiz-adv-x="1032" 
d="M180 0v1065h770v-156h-590v-327h467v-152h-467v-430h-180z" />
    <glyph glyph-name="g.sc" horiz-adv-x="1310" 
d="M1010 139q-116 -164 -359 -164t-398 161.5t-155 400.5t157 396t409 157q193 0 325.5 -98t165.5 -247h-188q-25 76 -103 128.5t-182 52.5q-189 0 -292 -109t-103 -282t99 -284.5t254 -111.5t253 70.5t98 202.5v6h-327v147h491v-565h-115l-24 139h-6z" />
    <glyph glyph-name="h.sc" horiz-adv-x="1286" 
d="M180 0v1065h180v-451h566v451h180v-1065h-180v459h-566v-459h-180z" />
    <glyph glyph-name="i.sc" horiz-adv-x="540" 
d="M180 0v1065h180v-1065h-180z" />
    <glyph glyph-name="j.sc" horiz-adv-x="909" 
d="M82 311v49h172v-49q0 -135 63.5 -157.5t120 -22.5t100.5 46t44 142v746h180v-737q0 -264 -134 -308.5t-250 -44.5t-206 82t-90 254z" />
    <glyph glyph-name="k.sc" horiz-adv-x="1146" 
d="M180 0v1065h180v-559l525 559h213l-449 -469l473 -596h-213l-381 473l-168 -176v-297h-180z" />
    <glyph glyph-name="l.sc" horiz-adv-x="950" 
d="M180 0v1065h180v-901h549v-164h-729z" />
    <glyph glyph-name="m.sc" horiz-adv-x="1572" 
d="M180 0v1065h230l378 -827h5l378 827h222v-1065h-181l15 795h-6l-369 -795h-131l-369 795h-8l16 -795h-180z" />
    <glyph glyph-name="n.sc" horiz-adv-x="1286" 
d="M180 0v1065h164l582 -770h6l-6 770h180v-1065h-164l-582 770h-8l8 -770h-180z" />
    <glyph glyph-name="o.sc" horiz-adv-x="1294" 
d="M279 532.5q0 -83.5 25.5 -156.5t74.5 -126t117.5 -82t150.5 -29t150.5 29t118 82t75 126t25.5 156.5t-25.5 156.5t-75 126t-118 82t-150.5 29t-150.5 -29t-117.5 -82t-74.5 -126t-25.5 -156.5zM90 532.5q0 118.5 42 221t117 177.5t177 117t221 42t221.5 -42t177 -117
t116.5 -177.5t42 -221t-42 -221t-116.5 -177.5t-177 -117t-221.5 -42t-221 42t-177 117t-117 177.5t-42 221z" />
    <glyph glyph-name="p.sc" horiz-adv-x="1122" 
d="M647 909h-287v-393h287q147 0 176 77t29 141t-52 119.5t-153 55.5zM180 0v1065h467q186 0 285.5 -97.5t99.5 -255.5t-100.5 -255t-284.5 -97h-287v-360h-180z" />
    <glyph glyph-name="q.sc" horiz-adv-x="1294" 
d="M279 532.5q0 -83.5 25.5 -156.5t74.5 -126t117.5 -82t150.5 -29t150.5 29t118 82t75 126t25.5 156.5t-25.5 156.5t-75 126t-118 82t-150.5 29t-150.5 -29t-117.5 -82t-74.5 -126t-25.5 -156.5zM90 532.5q0 118.5 42 221t117 177.5t177 117t282 42t338 -159.5t158 -402.5
q0 -244 -168 -403l213 -217l-123 -113l-227 236q-253 -105 -467.5 -16.5t-278 244t-63.5 274z" />
    <glyph glyph-name="r.sc" 
d="M360 909v-352h295q144 0 170.5 69.5t26.5 109.5q0 82 -51.5 127.5t-145.5 45.5h-295zM180 0v1065h475q275 0 326 -126.5t51 -194.5q0 -132 -63 -216.5t-178 -111.5l290 -416h-204l-271 401h-246v-401h-180z" />
    <glyph glyph-name="s.sc" horiz-adv-x="1081" 
d="M295 778q0 -105 101.5 -128t168.5 -36l49 -8q176 -29 242 -69.5t96.5 -94t30.5 -172t-120.5 -207t-329.5 -88.5t-326 88t-117 240h180q0 -130 100.5 -155t262.5 -25t162 172q0 103 -100.5 124t-170.5 34l-49 8q-174 30 -239.5 72t-95 95.5t-29.5 129.5q0 151 118.5 241.5
t306.5 90.5t301 -84t113 -236h-172q0 76 -65.5 124t-171.5 48q-246 0 -246 -164z" />
    <glyph glyph-name="t.sc" horiz-adv-x="1048" 
d="M41 909v156h967v-156h-394v-909h-180v909h-393z" />
    <glyph glyph-name="u.sc" horiz-adv-x="1220" 
d="M147 426v639h181v-639q0 -211 105 -249t175 -38q141 0 213 74.5t72 212.5v639h180v-639q0 -233 -126 -342t-398 -109t-337 166t-65 285z" />
    <glyph glyph-name="v.sc" horiz-adv-x="1056" 
d="M410 0l-394 1065h189l323 -885h9l323 885h180l-401 -1065h-229z" />
    <glyph glyph-name="w.sc" horiz-adv-x="1581" 
d="M319 0l-286 1065h188l217 -868h8l259 868h188l256 -868h8l211 868h180l-278 -1065h-230l-243 836h-4l-244 -836h-230z" />
    <glyph glyph-name="x.sc" horiz-adv-x="1015" 
d="M16 0l392 547l-375 518h213l268 -383l264 383h205l-375 -514l391 -551h-196l-301 420l-297 -420h-189z" />
    <glyph glyph-name="y.sc" horiz-adv-x="1032" 
d="M422 0v414l-414 651h213l297 -479h4l305 479h197l-422 -645v-420h-180z" />
    <glyph glyph-name="z.sc" horiz-adv-x="1040" 
d="M106 909v156h836v-115l-620 -794h612v-156h-852v115l618 794h-594z" />
    <glyph glyph-name="ampersand.sc" horiz-adv-x="1196" 
d="M684 827q0 123 -149 123q-102 0 -123 -50t-21 -72q0 -76 103 -179q139 62 164.5 105t25.5 73zM446 492q-165 -76 -165 -200q0 -77 69.5 -123t174.5 -46q162 0 249 63zM98 276q0 114 65 183t187 129q-69 77 -93 126.5t-24 103.5q0 113 81.5 189t230.5 76q223 0 262 -95
t39 -149q0 -103 -63.5 -162t-192.5 -120l278 -262q45 86 45 205v32h156v-30q0 -179 -90 -312l205 -190h-207l-92 86q-138 -111 -357 -111q-308 0 -369 118.5t-61 182.5z" />
    <glyph glyph-name="fi.sc" horiz-adv-x="1572" 
d="M1212 0v1065h181v-1065h-181zM180 0v1065h770v-156h-590v-327h467v-152h-467v-430h-180z" />
    <glyph glyph-name="fl.sc" horiz-adv-x="1982" 
d="M1212 0v1065h181v-901h549v-164h-730zM180 0v1065h770v-156h-590v-327h467v-152h-467v-430h-180z" />
    <glyph glyph-name="germandbls.sc" horiz-adv-x="2138" 
d="M1597 942q-245 0 -245 -164q0 -105 101 -128t169 -36l49 -8q177 -29 242 -69.5t96 -94t31 -171.5t-120.5 -207t-329.5 -89t-326 87.5t-117 240.5h180q0 -130 100.5 -155t262 -25t161.5 172q0 103 -100 124t-170 34l-49 8q-174 30 -239.5 72t-95.5 95.5t-30 129.5
q0 150 118 241t307 91t302 -84t113 -236h-172q0 76 -65.5 124t-172.5 48zM295 778q0 -105 101.5 -128t168.5 -36l49 -8q176 -29 242 -69.5t96.5 -94t30.5 -172t-120.5 -207t-329.5 -88.5t-326 88t-117 240h180q0 -130 100.5 -155t262.5 -25t162 172q0 103 -100.5 124
t-170.5 34l-49 8q-174 30 -239.5 72t-95 95.5t-29.5 129.5q0 151 118.5 241.5t306.5 90.5t301 -84t113 -236h-172q0 76 -65.5 124t-171.5 48q-246 0 -246 -164z" />
    <glyph glyph-name="t_f" horiz-adv-x="1236" 
d="M803 0v852h-434v-549q0 -82 18.5 -114.5t79.5 -32.5h123v-156h-131q-208 0 -239.5 109.5t-31.5 185.5v557h-180v147h180v304h181v-304h434v164q0 250 127 293t209 43h123v-156h-107q-136 0 -154 -70.5t-18 -117.5v-156h246v-147h-246v-852h-180z" />
    <glyph glyph-name="t_t" horiz-adv-x="1286" 
d="M1090 0q-295 0 -295 295v557h-435v-549q0 -79 30 -113t93 -34h99v-156h-107q-295 0 -295 295v557h-180v147h180v304h180v-304h435v304h180v-304h262v-147h-262v-549q0 -147 131 -147h131v-156h-147z" />
    <glyph glyph-name="slashedzero" 
d="M568 139q90 0 203.5 73.5t113.5 492.5q0 245 -58 376l-413 -878q64 -64 154 -64zM582 1270q-303 0 -303 -565q0 -252 55 -377l414 876q-66 66 -166 66zM582 -25q-129 0 -223.5 54.5t-154 154t-87 231.5t-27.5 289.5t27.5 289.5t87 231.5t154 154t223.5 54.5t223 -54.5
t153.5 -154t87 -231.5t27.5 -289.5t-27.5 -289.5t-87 -231.5t-153.5 -154t-223 -54.5z" />
    <glyph glyph-name="zero.PPF" horiz-adv-x="1179" 
d="M590 1270q-311 0 -311 -491t117.5 -565.5t193.5 -74.5t134 37t98 109.5t59.5 178t19.5 311t-80 350.5t-231 145zM590 -25q-129 0 -224.5 54.5t-155.5 154t-90 231.5t-30 289.5t30 289.5t90 231.5t155.5 154t224.5 54.5t224 -54.5t155.5 -154t90.5 -231.5t30 -289.5
t-30 -289.5t-90.5 -231.5t-155.5 -154t-224 -54.5z" />
    <glyph glyph-name="one.PPF" horiz-adv-x="704" 
d="M541 1409v-1409h-181v1186l-245 -170l-82 139l368 254h140z" />
    <glyph glyph-name="two.PPF" horiz-adv-x="1081" 
d="M735.5 1205q-59.5 73 -186.5 73q-262 0 -287 -287h-164q12 232 137.5 337.5t317.5 105.5q193 0 307.5 -104.5t114.5 -289.5q0 -216 -112.5 -302.5t-198.5 -147.5l-140 -98q-195 -136 -214 -215.5t-23 -120.5h704v-156h-909q8 228 83.5 358t244.5 248l139 99
q82 57 116.5 83.5t82 80t47.5 158.5t-59.5 178z" />
    <glyph glyph-name="three.PPF" horiz-adv-x="1114" 
d="M74 426h172q0 -143 84 -219t257 -76t219 99.5t46 159.5q0 120 -88.5 190.5t-214.5 70.5h-107v156h107q107 0 180.5 68t73.5 201.5t-100.5 167.5t-183 34t-153.5 -65t-71 -189h-164q0 187 115 298.5t305 111.5t307 -106.5t117 -274.5q0 -99 -59.5 -191t-145.5 -125v-8
q112 -29 187 -126t75 -204q0 -203 -138.5 -313.5t-351.5 -110.5t-340.5 114t-127.5 337z" />
    <glyph glyph-name="four.PPF" horiz-adv-x="1122" 
d="M688 508v600l-452 -600h452zM41 352v131l688 926h139v-901h197v-156h-197v-352h-180v352h-647z" />
    <glyph glyph-name="five.PPF" horiz-adv-x="1073" 
d="M303 803q98 98 272 98t299 -120.5t125 -338.5t-137 -342.5t-334 -124.5t-321 107t-141 295h180q12 -100 84 -173t197 -73t208.5 81.5t83.5 223.5q0 143 -81 226t-197 83q-151 0 -262 -139l-164 8l41 795h762v-164h-599l-24 -442h8z" />
    <glyph glyph-name="six.PPF" horiz-adv-x="1138" 
d="M303 475q0 -100 20.5 -156.5t57.5 -98.5t89 -65.5t149 -23.5t177.5 82.5t80.5 222.5t-80.5 224.5t-206.5 84.5q-125 0 -206 -85t-81 -185zM90 674q0 391 140.5 575.5t367.5 184.5q193 0 299 -100t127 -277h-180q-27 221 -247 221t-268 -206t-50 -357q60 129 170.5 157.5
t186.5 28.5t157 -31.5t172.5 -126t91.5 -304.5t-137 -337t-330 -127q-357 0 -428.5 250.5t-71.5 448.5z" />
    <glyph glyph-name="seven.PPF" horiz-adv-x="942" 
d="M41 1245v164h877v-131l-599 -1278h-188l590 1245h-680z" />
    <glyph glyph-name="eight.PPF" horiz-adv-x="1146" 
d="M573.5 807q55.5 0 103.5 17.5t84 50t55.5 77.5t19.5 98.5t-19.5 97.5t-55.5 74.5t-84 47t-103.5 16.5t-103.5 -16.5t-84 -47t-55.5 -74.5t-19.5 -97.5t19.5 -98.5t55.5 -77.5t84 -50t103.5 -17.5zM573.5 131q138.5 0 225 69t86.5 188t-89.5 191t-222 72t-222 -72
t-89.5 -191t86.5 -188t225 -69zM82 362q0 142 75.5 240.5t186.5 126.5v8q-83 27 -144 119t-61 185q0 94 31 164.5t87 121.5t137 79t230 28t266.5 -107t117.5 -274q0 -105 -60 -195.5t-145 -120.5v-8q111 -28 186.5 -126.5t75.5 -207.5q0 -110 -35 -186t-100.5 -127
t-156.5 -79t-199.5 -28t-199.5 28t-156.5 79t-100.5 126.5t-35 153.5z" />
    <glyph glyph-name="nine.PPF" horiz-adv-x="1138" 
d="M739 1190q-80 88 -206 88t-206.5 -82.5t-80.5 -222.5t81 -224.5t205 -84.5q125 0 206 85t81 219t-80 222zM1032 754q0 -779 -508 -779q-190 0 -306 105t-120 272h181q13 -155 100 -188t153 -33q304 0 312 561q-62 -128 -172 -156t-186 -28t-157 31.5t-172 125.5t-91 305
t136.5 337.5t329.5 126.5q358 0 429 -246t71 -434z" />
    <glyph glyph-name="slashedzero.PPF" horiz-adv-x="1179" 
d="M579 139q322 0 322 553q0 263 -61 393l-418 -884q70 -62 157 -62zM590 1270q-311 0 -311 -565q0 -235 61 -383l416 884q-64 64 -166 64zM590 -25q-129 0 -224.5 54.5t-155.5 154t-90 231.5t-30 289.5t30 289.5t90 231.5t155.5 154t224.5 54.5t224 -54.5t155.5 -154
t90.5 -231.5t30 -289.5t-30 -289.5t-90.5 -231.5t-155.5 -154t-224 -54.5z" />
    <glyph glyph-name="zero.sc" horiz-adv-x="1032" 
d="M516.5 942q-237.5 0 -237.5 -410q0 -300 89 -354.5t178.5 -54.5t148.5 107.5t59 301.5q0 410 -237.5 410zM516.5 -25q-110.5 0 -192.5 42t-133.5 118t-76 177.5t-24.5 220t24.5 220t76 177.5t133.5 118t192.5 42t192.5 -42t133 -118t75.5 -177.5t24.5 -220t-24.5 -220
t-75.5 -177.5t-133 -118t-192.5 -42z" />
    <glyph glyph-name="one.sc" horiz-adv-x="1032" 
d="M655 1065v-918h279v-147h-754v147h295v703l-262 -162l-74 131l385 246h131z" />
    <glyph glyph-name="two.sc" horiz-adv-x="1032" 
d="M131 745q8 178 116 261.5t273 83.5q166 0 269.5 -80t103.5 -234t-91 -219t-155 -106l-139 -82q-113 -73 -148 -119t-41 -103h590v-147h-794q6 256 106.5 344t171.5 131l139 82q114 71 151.5 110t37.5 109q0 69 -52.5 117.5t-205 48.5t-168.5 -197h-164z" />
    <glyph glyph-name="three.sc" horiz-adv-x="1032" 
d="M106 311h173q0 -148 93 -172t172.5 -24t144.5 46t65 135t-64.5 138t-165.5 49h-90v140h90q134 0 165.5 63.5t31.5 101.5q0 74 -54.5 118t-150.5 44q-140 0 -172.5 -64.5t-32.5 -107.5h-155q0 142 99.5 227t265.5 85t265 -84.5t99 -213.5t-63.5 -174t-100.5 -57v-8
q149 -44 181 -130.5t32 -148.5t-32 -120t-118 -118.5t-268 -60.5q-298 0 -354 125t-56 211z" />
    <glyph glyph-name="four.sc" horiz-adv-x="1032" 
d="M598 385v432l-348 -432h348zM57 238v122l574 705h147v-680h172v-147h-172v-238h-180v238h-541z" />
    <glyph glyph-name="five.sc" horiz-adv-x="1032" 
d="M328 606q92 82 237 82t253 -95t108 -258q0 -164 -120 -262t-290 -98q-275 0 -339.5 118t-70.5 186h181q12 -64 67.5 -110t158.5 -46t167.5 57t64.5 153t-63.5 152t-171.5 56t-199 -107l-172 17l33 614h688v-156h-524l-17 -303h9z" />
    <glyph glyph-name="six.sc" horiz-adv-x="1032" 
d="M373 478q-62 -54 -62 -146t63 -146.5t160 -54.5q98 0 159 55t61 146t-60.5 145.5t-159.5 54.5t-161 -54zM554 688q85 0 154.5 -23.5t120 -68.5t78 -110.5t27.5 -189.5t-115 -222.5t-287 -98.5q-308 0 -371 194.5t-63 344.5q0 291 126 433.5t325 142.5q250 0 305 -115
t64 -180h-181q-30 147 -188 147q-240 0 -262 -377q29 53 105.5 88t161.5 35z" />
    <glyph glyph-name="seven.sc" horiz-adv-x="1032" 
d="M98 901v164h844v-115l-500 -950h-196l491 901h-639z" />
    <glyph glyph-name="eight.sc" horiz-adv-x="1032" 
d="M311 785q0 -118 81 -140t147 -22t124 41.5t58 119.5t-58.5 122t-146.5 44t-146.5 -44t-58.5 -121zM279 296q0 -42 17 -76t49 -57.5t76 -35.5t122.5 -12t144.5 48.5t66 133.5t-66 135.5t-201 50.5t-171.5 -72.5t-36.5 -114.5zM147 800q0 52 25 108.5t73 96t116.5 62.5
t195 23t227.5 -82.5t101 -221.5q0 -75 -43.5 -137.5t-120.5 -87.5v-8q149 -44 181 -130.5t32 -148.5t-30 -121t-86 -98t-133 -59.5t-216.5 -20.5t-255 80.5t-115.5 228.5t83 201.5t130 67.5v8q-114 37 -139 112t-25 127z" />
    <glyph glyph-name="nine.sc" horiz-adv-x="1032" 
d="M526 532q75 0 135 54t60 148t-61.5 147t-159.5 53t-155.5 -54t-57.5 -151q0 -136 82 -166.5t157 -30.5zM743 498q-47 -85 -137 -103t-152 -18t-131 23.5t-119 68.5t-78 110.5t-28 189.5t115 222.5t287 98.5q308 0 371 -195t63 -345q0 -295 -119 -435t-315 -140
q-260 0 -318.5 116t-66.5 179h180q12 -60 61.5 -103.5t151.5 -43.5q221 0 235 375z" />
    <glyph glyph-name="slashedzero.sc" horiz-adv-x="1032" 
d="M664.5 177q89.5 54 89.5 341q0 180 -43 287l-308 -649q49 -33 111 -33q61 0 150.5 54zM516 942q-237 0 -237 -410q0 -174 43 -272l305 649q-49 33 -111 33zM516.5 -25q-110.5 0 -192.5 42t-133.5 118t-76 177.5t-24.5 220t24.5 220t76 177.5t133.5 118t192.5 42
t192.5 -42t133 -118t75.5 -177.5t24.5 -220t-24.5 -220t-75.5 -177.5t-133 -118t-192.5 -42z" />
    <glyph glyph-name="zero.scppf" horiz-adv-x="1064" 
d="M532.5 123q59.5 0 105.5 27.5t76.5 81t47 129t16.5 172t-15 173t-46 129t-77 80t-107.5 27.5t-107.5 -27.5t-77 -80t-46 -129t-15 -173t16 -172t47 -129t77 -81t105.5 -27.5zM532.5 -25q-110.5 0 -193.5 42t-136 118t-79 177.5t-26 220t26 220t79 177.5t136 118t193.5 42
t193.5 -42t136 -118t79 -177.5t26 -220t-26 -220t-79 -177.5t-136 -118t-193.5 -42z" />
    <glyph glyph-name="one.scppf" horiz-adv-x="655" 
d="M475 1065v-1065h-180v850l-205 -129l-74 131l328 213h131z" />
    <glyph glyph-name="two.scppf" horiz-adv-x="950" 
d="M430 942q-152 0 -168 -197h-164q8 178 116 261.5t274 83.5t269 -80t103 -234t-91 -219t-155 -106l-139 -82q-113 -73 -148.5 -120t-39.5 -102h590v-147h-795q6 256 106.5 344t171.5 131l140 82q112 69 150 108t38 110t-53 119t-205 48z" />
    <glyph glyph-name="three.scppf" horiz-adv-x="950" 
d="M57 311h172q0 -99 65.5 -147.5t204 -48.5t172.5 69.5t34 115.5q0 85 -64.5 134t-165.5 49h-90v140h90q134 0 165.5 63.5t31.5 101.5q0 74 -54.5 118t-150.5 44q-140 0 -172.5 -64.5t-32.5 -107.5h-156q0 141 100 226.5t266 85.5t265 -85t99 -214t-63.5 -173.5
t-100.5 -56.5v-8q149 -44 181 -130.5t32 -148.5t-32 -120t-118 -118.5t-268 -60.5q-298 0 -354 125t-56 211z" />
    <glyph glyph-name="four.scppf" horiz-adv-x="966" 
d="M573 385v430l-342 -430h342zM41 238v122l565 705h148v-680h164v-147h-164v-238h-181v238h-532z" />
    <glyph glyph-name="five.scppf" horiz-adv-x="958" 
d="M500 541q-121 0 -205 -107l-172 17l33 614h671v-156h-508l-16 -303h8q82 82 226 82t250 -92.5t106 -258.5t-116.5 -264t-284.5 -98q-270 0 -333 117t-69 187h180q13 -66 67 -111t151 -45t161 56.5t64 151.5t-61.5 152.5t-151.5 57.5z" />
    <glyph glyph-name="six.scppf" horiz-adv-x="1015" 
d="M373 478q-62 -54 -62 -146t63 -146.5t160 -54.5q98 0 159 55t61 146t-60.5 145.5t-159.5 54.5t-161 -54zM554 688q85 0 154.5 -23.5t120 -68.5t78 -110.5t27.5 -189.5t-115 -222.5t-287 -98.5q-308 0 -371 194.5t-63 344.5q0 291 126 433.5t325 142.5q250 0 305 -115
t64 -180h-181q-30 147 -188 147q-240 0 -262 -377q29 53 105.5 88t161.5 35z" />
    <glyph glyph-name="seven.scppf" horiz-adv-x="860" 
d="M57 901v164h762v-115l-500 -950h-188l483 901h-557z" />
    <glyph glyph-name="eight.scppf" horiz-adv-x="983" 
d="M287 785q0 -38 15 -69.5t44 -52t66 -30.5t102.5 -10t123.5 41t58 120t-59 122.5t-123.5 43.5t-101.5 -11t-66 -32.5t-44 -52.5t-15 -69zM254 296q0 -42 17.5 -76t49 -57.5t75.5 -35.5t123.5 -12t144.5 48.5t65 133.5t-65.5 135.5t-200 50.5t-172 -72.5t-37.5 -114.5z
M287 561q-164 53 -164 239q0 52 24.5 108.5t72.5 96t117 62.5t195.5 23t227 -82.5t100.5 -221.5q0 -76 -42.5 -138t-121.5 -87v-8q95 -28 154 -98.5t59 -155.5q0 -86 -29.5 -145.5t-86 -98.5t-133 -59.5t-169 -20.5t-169 20.5t-133 59.5t-86 98t-29.5 121q0 110 59 180.5
t154 98.5v8z" />
    <glyph glyph-name="nine.scppf" horiz-adv-x="1024" 
d="M713 735q0 90 -63 144.5t-160 54.5q-98 0 -159 -55t-61 -146t61 -146t161 -55t160.5 56.5t60.5 146.5zM735 498q-47 -85 -137 -103t-152 -18t-131 23.5t-119.5 68.5t-78 110.5t-27.5 189.5t115 222.5t287 98.5q308 0 371 -195t63 -345q0 -295 -120 -435t-314 -140
q-260 0 -318.5 116t-67.5 179h181q12 -60 61.5 -103.5t151.5 -43.5q221 0 235 375z" />
    <glyph glyph-name="slashedzero.scppf" horiz-adv-x="1064" 
d="M529 123q124 0 186.5 110t62.5 271t-18.5 220.5t-30.5 86.5l-309 -657q47 -31 109 -31zM535 942q-123 0 -185.5 -105.5t-62.5 -271.5t18.5 -225t30.5 -84l309 655q-46 31 -110 31zM532.5 -25q-110.5 0 -193.5 42t-136 118t-79 177.5t-26 220t26 220t79 177.5t136 118
t193.5 42t193.5 -42t136 -118t79 -177.5t26 -220t-26 -220t-79 -177.5t-136 -118t-193.5 -42z" />
    <glyph glyph-name="zero.TOSF" 
d="M800 231.5q85 100.5 85 269.5t-84.5 268t-218.5 99t-218.5 -100t-84.5 -268t84 -268.5t218 -100.5t219 100.5zM229 879q139 145 358 145t352.5 -143.5t133.5 -379.5t-139 -381t-358 -145t-352.5 144t-133.5 380q0 235 139 380z" />
    <glyph glyph-name="one.TOSF" 
d="M713 999v-843h352v-156h-918v156h385v626l-294 -209l-82 132l417 294h140z" />
    <glyph glyph-name="two.TOSF" 
d="M582 877q-271 0 -295 -238h-164q4 199 139.5 292t319.5 93q305 0 369.5 -116.5t64.5 -190.5t-26.5 -128t-72 -89t-94.5 -55.5t-135 -51.5l-139 -49q-150 -53 -181.5 -106.5t-31.5 -81.5h688v-156h-901q0 287 136 366.5t216 108.5l139 49q72 27 147 56t75 133
q0 64 -60.5 114t-193.5 50z" />
    <glyph glyph-name="three.TOSF" 
d="M90 16h172q0 -143 84 -219t256.5 -76t219 99.5t46.5 159.5q0 118 -88.5 190t-214.5 72h-106v155h106q109 0 181.5 69t72.5 175t-72 166.5t-215.5 60.5t-182 -95t-38.5 -159h-164q0 185 114 297.5t306 112.5t308 -106t116 -275q0 -98 -60.5 -191.5t-144.5 -123.5v-9
q114 -29 188.5 -127t74.5 -208q0 -200 -138.5 -309t-345.5 -109q-339 0 -407 168.5t-68 281.5z" />
    <glyph glyph-name="four.TOSF" 
d="M713 156v569l-457 -569h457zM66 0v131l679 868h148v-843h205v-156h-205v-410h-180v410h-647z" />
    <glyph glyph-name="five.TOSF" 
d="M352 393q99 99 283 99t315 -122.5t131 -337.5q0 -214 -140.5 -340t-342.5 -126q-321 0 -398 155.5t-85 245.5h180q13 -101 89.5 -173.5t207.5 -72.5t220 80.5t89 224t-85.5 227t-210.5 83.5t-186 -52.5t-91 -86.5l-164 8l41 794h794v-163h-630l-25 -443h8z" />
    <glyph glyph-name="six.TOSF" 
d="M303 473.5q0 -98.5 21.5 -155t61.5 -98.5t94.5 -65.5t152 -23.5t183 83.5t85.5 222.5t-83.5 223.5t-207.5 84.5q-129 0 -218 -86.5t-89 -185zM243 1249.5q153 184.5 380 184.5q191 0 296.5 -98.5t129.5 -278.5h-181q-27 221 -245 221q-141 0 -238.5 -136t-105.5 -427
q38 81 143 133.5t210 52.5q206 0 327.5 -125.5t121.5 -336.5t-140 -337.5t-335 -126.5q-230 0 -373 166.5t-143 544.5q0 379 153 563.5z" />
    <glyph glyph-name="seven.TOSF" 
d="M106 836v163h967v-131l-598 -1278h-188l590 1246h-771z" />
    <glyph glyph-name="eight.TOSF" 
d="M581.5 807q55.5 0 103.5 17.5t84 50t55.5 77.5t19.5 98.5t-19.5 97.5t-55.5 74.5t-84 47t-103.5 16.5t-103.5 -16.5t-84 -47t-55.5 -74.5t-19.5 -97.5t19.5 -98.5t55.5 -77.5t84 -50t103.5 -17.5zM581.5 131q138.5 0 225 69t86.5 188t-89.5 191t-222 72t-222 -72
t-89.5 -191t86.5 -188t225 -69zM90 362q0 142 75.5 240.5t186.5 126.5v8q-81 26 -143 118t-62 186t31 164.5t87.5 121.5t137 79t229.5 28t266.5 -107t117.5 -274q0 -105 -60 -195.5t-145 -120.5v-8q113 -29 187.5 -127.5t74.5 -207.5t-34.5 -185t-100.5 -127t-157 -79
t-199.5 -28t-199.5 28t-156.5 79t-100.5 126.5t-35 153.5z" />
    <glyph glyph-name="nine.TOSF" 
d="M771.5 340.5q88.5 86.5 88.5 217.5t-85 220.5t-210.5 89.5t-214 -83t-88.5 -221t83.5 -224t210.5 -86t215.5 86.5zM503 98q-77 0 -158 32t-172 126t-91 305q0 210 139 336.5t352 126.5t356.5 -166.5t143.5 -529.5q0 -585 -200.5 -673.5t-308.5 -88.5q-207 0 -315.5 99.5
t-133.5 277.5h180q47 -222 262 -222q321 0 328 562q-61 -125 -183 -155t-199 -30z" />
    <glyph glyph-name="slashedzero.TOSF" 
d="M572 131q143 0 228 100.5t85 268.5q0 93 -21.5 151t-36.5 80l-405 -555q72 -45 150 -45zM592 868q-144 0 -228.5 -100t-84.5 -253t57 -247l405 555q-71 45 -149 45zM229 879q139 145 358 145t352.5 -143.5t133.5 -379.5t-139 -381t-358 -145t-352.5 144t-133.5 380
q0 235 139 380z" />
    <glyph glyph-name="zero.oldstyle" horiz-adv-x="1196" 
d="M598 131q142 0 235 103.5t93 268.5t-92.5 265t-235 100t-235.5 -102.5t-93 -265t93 -266t235 -103.5zM228.5 877.5q146.5 146.5 374.5 146.5t369.5 -145.5t141.5 -378t-146.5 -379t-374.5 -146.5t-369.5 145.5t-141.5 378t146.5 379z" />
    <glyph glyph-name="one.oldstyle" horiz-adv-x="704" 
d="M532 999v-999h-180v776l-246 -170l-81 139l368 254h139z" />
    <glyph glyph-name="two.oldstyle" horiz-adv-x="1007" 
d="M516 877q-238 0 -262 -238h-164q4 200 130.5 292.5t295.5 92.5q284 0 343 -121t59 -191t-24 -121.5t-65 -85.5t-88 -56.5t-127 -55.5l-122 -49q-97 -41 -147 -87t-50 -101h623v-156h-836q0 285 128 363.5t208 111.5l123 49q103 43 149.5 77t46.5 112q0 109 -78.5 136.5
t-142.5 27.5z" />
    <glyph glyph-name="three.oldstyle" horiz-adv-x="1073" 
d="M41 16h172q0 -143 84 -219t256.5 -76t219 99.5t46.5 159.5q0 118 -88.5 190t-214.5 72h-106v155h106q109 0 181.5 69t72.5 175t-72 166.5t-215.5 60.5t-182 -95t-38.5 -159h-164q0 185 114 297.5t306 112.5t308 -106t116 -275q0 -98 -60.5 -191.5t-144.5 -123.5v-9
q113 -29 187.5 -125t74.5 -205q0 -203 -137 -313t-346 -110q-339 0 -407 168.5t-68 281.5z" />
    <glyph glyph-name="four.oldstyle" horiz-adv-x="1097" 
d="M696 156v549l-448 -549h448zM49 0v131l688 868h140v-843h196v-156h-196v-410h-181v410h-647z" />
    <glyph glyph-name="five.oldstyle" horiz-adv-x="1032" 
d="M303 393q99 99 272 99t298.5 -121t125.5 -339t-136.5 -342t-334.5 -124t-321.5 107t-140.5 294h180q12 -100 84 -173t197 -73t208.5 81.5t83.5 223.5q0 143 -81.5 226.5t-196.5 83.5q-148 0 -262 -139l-164 8l41 794h762v-163h-599l-24 -443h8z" />
    <glyph glyph-name="six.oldstyle" horiz-adv-x="1138" 
d="M303 444q0 -135 78 -224t206.5 -89t209 82.5t80.5 222.5t-80.5 224.5t-206.5 84.5q-123 0 -205 -83t-82 -218zM90 674q0 391 140.5 575.5t367.5 184.5q193 0 299 -100t127 -277h-180q-27 221 -247 221t-268 -206t-50 -357q60 129 170.5 157.5t186.5 28.5t157 -31.5
t172.5 -126t91.5 -304.5t-137 -337t-330 -127q-357 0 -428.5 250.5t-71.5 448.5z" />
    <glyph glyph-name="seven.oldstyle" horiz-adv-x="942" 
d="M33 836v163h876v-131l-598 -1278h-188l590 1246h-680z" />
    <glyph glyph-name="eight.oldstyle" horiz-adv-x="1130" 
d="M565.5 807q55.5 0 103.5 17.5t83.5 50t55 77.5t19.5 98.5t-19.5 97.5t-55 74.5t-83.5 47t-103.5 16.5t-103.5 -16.5t-84 -47t-55.5 -74.5t-19.5 -97.5t19.5 -98.5t55.5 -77.5t84 -50t103.5 -17.5zM791 200.5q86 69.5 86 187.5t-90 190.5t-222 72.5t-221.5 -72t-89.5 -191
t86.5 -188t225.5 -69t225 69.5zM74 362q0 141 74.5 239.5t187.5 127.5v8q-83 27 -144 119t-61 185q0 94 31 164.5t87 121.5t137 79t229 28t266 -106.5t118 -271.5t-80.5 -234.5t-123.5 -84.5v-8q111 -28 186.5 -126.5t75.5 -207.5q0 -110 -35 -186t-100.5 -127t-156.5 -79
t-199.5 -28t-200 28t-157 79t-100 126.5t-34.5 153.5z" />
    <glyph glyph-name="nine.oldstyle" horiz-adv-x="1122" 
d="M731 338q80 84 80 219t-80 223t-206 88q-127 0 -207 -82t-80 -222t80 -225t207 -85q126 0 206 84zM524 1024q500 0 500 -680q0 -778 -508 -778q-192 0 -307 104.5t-119 272.5h180q8 -96 71 -159t156 -63t213 62.5t126 499.5q-63 -128 -172.5 -156.5t-185.5 -28.5t-157 32
t-172.5 126.5t-91.5 304.5t136.5 336.5t330.5 126.5z" />
    <glyph glyph-name="slashedzero.oldstyle" horiz-adv-x="1196" 
d="M589 131q151 0 244 103.5t93 256.5t-72 252l-418 -571q74 -41 153 -41zM607 868q-151 0 -244 -102.5t-93 -254.5t74 -255l416 571q-74 41 -153 41zM228.5 877.5q146.5 146.5 374.5 146.5t369.5 -145.5t141.5 -378t-146.5 -379t-374.5 -146.5t-369.5 145.5t-141.5 378
t146.5 379z" />
    <glyph glyph-name="percent.sc" horiz-adv-x="1202" 
d="M828 266q0 -178 102 -178t102 178t-102 178t-102 -178zM929.5 -12q-59.5 0 -102.5 20.5t-71.5 57t-42 87t-13.5 114t13.5 113.5t42 87t71.5 57.5t102.5 20.5t103.5 -20.5t72 -57.5t41 -87t13 -113.5t-13 -114t-41 -87t-72 -57t-103.5 -20.5zM242 -18l604 1101h115
l-607 -1101h-112zM170 799q0 -178 102 -178t102 178t-102 178t-102 -178zM272.5 520q-59.5 0 -102.5 20.5t-71.5 57.5t-42 87t-13.5 113.5t13.5 114t42 87t71.5 57t102.5 20.5t103.5 -20.5t71.5 -57t41 -87t13.5 -114t-13.5 -113.5t-41 -87t-71.5 -57.5t-103.5 -20.5z" />
    <glyph glyph-name="perthousand.sc" horiz-adv-x="1767" 
d="M1393 266q0 -178 102 -178t102 157t-37.5 178t-64.5 21q-102 0 -102 -178zM1495 -12q-59 0 -102 20.5t-72 57t-42 87t-13 114t13 113.5t42 87t72 57.5t102 20.5t103 -20.5t72 -57.5t41 -87t13 -113.5t-13 -114t-41 -87t-72 -57t-103 -20.5zM828 266q0 -178 102 -178
t102 178t-102 178t-102 -178zM929.5 -12q-59.5 0 -102.5 20.5t-71.5 57t-42 87t-13.5 114t13.5 113.5t42 87t71.5 57.5t102.5 20.5t103.5 -20.5t72 -57.5t41 -87t13 -113.5t-13 -114t-41 -87t-72 -57t-103.5 -20.5zM242 -18l604 1101h115l-607 -1101h-112zM170 799
q0 -178 102 -178t102 178t-102 178t-102 -178zM272.5 520q-59.5 0 -102.5 20.5t-71.5 57.5t-42 87t-13.5 113.5t13.5 114t42 87t71.5 57t102.5 20.5t103.5 -20.5t71.5 -57t41 -87t13.5 -114t-13.5 -113.5t-41 -87t-71.5 -57.5t-103.5 -20.5z" />
    <glyph glyph-name="a.inferior" horiz-adv-x="794" 
d="M238 -115q0 -98 122 -98q72 0 122 48.5t50 137.5v62q-15 -23 -36 -27t-33 -6l-115 -14q-110 -15 -110 -103zM419 289q-151 0 -159 -121h-154q8 122 89.5 182t205.5 60q217 0 256 -94.5t39 -157.5v-469h-157v84h-7q-57 -101 -223 -101q-109 0 -172 54t-63 147
q0 184 235 215l133 16q56 8 73 19t17 40q0 56 -32 91t-81 35z" />
    <glyph glyph-name="b.inferior" horiz-adv-x="878" 
d="M270 41q0 -106 52 -172t134 -66t134.5 66.5t52.5 177.5q0 166 -71.5 199t-111.5 33q-85 0 -135.5 -62t-54.5 -166v-10zM508 412q132 0 218.5 -97.5t86.5 -266.5t-93 -272.5t-223 -103.5t-171 47.5t-58 79.5h-6v-110h-156v1056h164v-163q0 -163 -8 -299h6q63 129 240 129z
" />
    <glyph glyph-name="c.inferior" horiz-adv-x="798" 
d="M163.5 306.5q97.5 105.5 249.5 105.5t236 -73.5t92 -186.5h-161q-14 86 -67.5 106.5t-93.5 20.5t-75 -18.5t-59.5 -51.5t-36.5 -76t-12 -119.5t49 -143.5t142 -67t120.5 51.5t32.5 75.5h161q-8 -112 -96 -185t-239 -73t-245.5 102.5t-94.5 264.5t97.5 267.5z" />
    <glyph glyph-name="d.inferior" horiz-adv-x="876" 
d="M287.5 -136q51.5 -61 131.5 -61t132.5 60.5t56.5 165.5v12q0 108 -52.5 173t-133.5 65t-133.5 -66t-52.5 -177t51.5 -172zM373 -328q-131 0 -219 97t-88 267t94.5 273t224.5 103q164 0 225 -129h6q-8 140 -8 147v315h164v-1056h-156v110h-6q-62 -127 -237 -127z" />
    <glyph glyph-name="e.inferior" horiz-adv-x="815" 
d="M242 123h336q-7 71 -48.5 114.5t-111.5 43.5q-144 0 -176 -158zM424 -197q125 0 158 99h151q-16 -99 -99 -163.5t-229 -64.5t-242.5 96.5t-96.5 265.5t100 271.5t250 102.5q151 0 242.5 -93.5t91.5 -253.5v-49h-517q6 -154 78 -182.5t113 -28.5z" />
    <glyph glyph-name="f.inferior" horiz-adv-x="499" 
d="M154 -311v573h-138v131h138v99q0 133 60 193t192 60h102v-135h-78q-64 0 -88.5 -29.5t-24.5 -93.5v-94h166v-131h-166v-573h-163z" />
    <glyph glyph-name="g.inferior" horiz-adv-x="878" 
d="M287.5 -136q51.5 -61 133.5 -61t134.5 65t52.5 173v10q-6 161 -76.5 194.5t-110.5 33.5t-74 -17.5t-72.5 -66t-38.5 -159.5t51.5 -172zM772 -279q0 -362 -360 -362q-229 0 -277.5 92.5t-50.5 151.5h156q0 -56 45.5 -87.5t126.5 -31.5q204 0 204 242v73h-6
q-62 -127 -237 -127q-131 0 -219 97t-88 267t94.5 273t224.5 103q160 0 225 -129h6v110h156v-672z" />
    <glyph glyph-name="h.inferior" horiz-adv-x="843" 
d="M582 94q0 182 -130 182t-156 -83.5t-26 -135.5v-368h-164v1056h164v-159q0 -159 -8 -299h6q53 125 221 125q113 0 184.5 -67.5t71.5 -211.5v-444h-163v405z" />
    <glyph glyph-name="i.inferior" horiz-adv-x="360" 
d="M98 -311v704h164v-704h-164zM92 580v165h176v-165h-176z" />
    <glyph glyph-name="j.inferior" horiz-adv-x="360" 
d="M98 -389v782h164v-796q0 -115 -52.5 -170.5t-174.5 -55.5h-60v135h41q47 0 64.5 25.5t17.5 79.5zM92 580v165h176v-165h-176z" />
    <glyph glyph-name="k.inferior" horiz-adv-x="770" 
d="M106 -311v1056h164v-655l277 303h188l-262 -280l289 -424h-191l-206 307l-95 -102v-205h-164z" />
    <glyph glyph-name="l.inferior" horiz-adv-x="376" 
d="M106 -311v1056h164v-1056h-164z" />
    <glyph glyph-name="m.inferior" horiz-adv-x="1280" 
d="M563 104q0 172 -99.5 172t-146.5 -55t-47 -158v-374h-164v704h156v-106h6q53 125 216 125t218 -144q53 114 124 129t117 15q101 0 170 -65t69 -202v-456h-164v420q0 131 -49 149t-83 18q-67 0 -114 -55t-47 -160v-372h-162v415z" />
    <glyph glyph-name="n.inferior" horiz-adv-x="843" 
d="M582 94q0 182 -130 182t-156 -83.5t-26 -135.5v-368h-164v704h156v-106h6q53 125 221 125q113 0 184.5 -67.5t71.5 -211.5v-444h-163v405z" />
    <glyph glyph-name="o.inferior" horiz-adv-x="854" 
d="M236 41q0 -53 13 -96t38.5 -75t60.5 -49.5t78 -17.5t79 17.5t61.5 49.5t38.5 75t13 96t-13 97t-38.5 76t-61.5 48.5t-79 16.5t-78 -16.5t-60.5 -48.5t-38.5 -76t-13 -97zM165 311q99 101 263 101t262 -100t98 -269.5t-100.5 -270t-262.5 -100.5t-260.5 98.5t-98.5 269
t99 271.5z" />
    <glyph glyph-name="p.inferior" horiz-adv-x="878" 
d="M592.5 217q-50.5 62 -133.5 62q-127 0 -157 -88.5t-32 -139.5v-10q0 -106 52 -172t134 -66t134.5 66.5t52.5 175.5q0 110 -50.5 172zM270 -348v-281h-164v1022h156v-110h6q63 129 240 129q132 0 218.5 -97.5t86.5 -266.5t-93 -272.5t-223 -103.5t-171 47.5t-58 79.5h-6
q8 -140 8 -147z" />
    <glyph glyph-name="q.inferior" horiz-adv-x="878" 
d="M287.5 -136q51.5 -61 133.5 -61q81 0 132 61t55 165v12q0 167 -72.5 202.5t-113.5 35.5t-75 -17.5t-72.5 -66t-38.5 -159.5t51.5 -172zM385 412q169 0 225 -129h6v110h156v-1022h-164v144q0 144 8 284h-6q-54 -127 -237 -127q-131 0 -219 97t-88 267t94.5 273t224.5 103z
" />
    <glyph glyph-name="r.inferior" horiz-adv-x="559" 
d="M426 256q-76 0 -116 -67t-40 -173v-327h-164v704h156v-133h6q55 152 185 152q52 0 98 -31l-39 -148q-46 23 -86 23z" />
    <glyph glyph-name="s.inferior" horiz-adv-x="759" 
d="M356 125l140 -29q198 -37 198 -198q0 -108 -87 -167t-265.5 -59t-225 86.5t-50.5 145.5h155q6 -87 67.5 -102t94.5 -15t60.5 6t47 17.5t29.5 29t10 46t-25.5 47.5t-88.5 32l-140 29q-194 36 -194 201q0 102 83.5 159.5t217.5 57.5q203 0 249 -82t50 -137h-156
q-8 102 -139 102q-102 0 -122.5 -32t-20.5 -61q0 -55 112 -77z" />
    <glyph glyph-name="t.inferior" horiz-adv-x="509" 
d="M143 -78v340h-127v131h127v213h164v-213h170v-131h-170v-330q0 -57 19.5 -80.5t70.5 -23.5h80v-139h-98q-130 0 -183 53.5t-53 179.5z" />
    <glyph glyph-name="u.inferior" horiz-adv-x="843" 
d="M98 -51v444h164v-405q0 -183 108 -183t155.5 57.5t47.5 166.5v364h164v-704h-155v106h-7q-52 -123 -221 -123q-111 0 -183.5 66.5t-72.5 210.5z" />
    <glyph glyph-name="v.inferior" horiz-adv-x="731" 
d="M274 -311l-266 704h185l180 -538l182 538h168l-256 -704h-193z" />
    <glyph glyph-name="w.inferior" horiz-adv-x="1099" 
d="M219 -311l-211 704h166l148 -540l143 540h174l143 -543l150 543h160l-215 -704h-185l-143 528l-146 -528h-184z" />
    <glyph glyph-name="x.inferior" horiz-adv-x="690" 
d="M8 -311l250 352l-246 352h189l147 -221l150 221h180l-248 -346l252 -358h-186l-154 229l-156 -229h-178z" />
    <glyph glyph-name="y.inferior" horiz-adv-x="731" 
d="M80 -492h45q125 0 170 121l-287 764h185l180 -536l182 536h168l-287 -799q-55 -155 -138 -189t-138 -34h-80v137z" />
    <glyph glyph-name="z.inferior" horiz-adv-x="679" 
d="M49 262v131h576v-102l-363 -471h369v-131h-580v94l367 479h-369z" />
    <glyph glyph-name="dollar.inferior" horiz-adv-x="720" 
d="M360 -213q140 0 140 81.5t-140 106.5l-41 9q-114 21 -179.5 62t-65.5 142q0 132 85 170.5t136 44.5v113h131v-113q141 -19 176 -86t37 -104h-156q-16 82 -115 82q-98 0 -118.5 -34t-20.5 -66t35 -50t121 -39l41 -8q105 -21 167 -65.5t62 -136.5t-58.5 -148.5
t-170.5 -71.5v-127h-131v127q-165 18 -201.5 95.5t-36.5 122.5h148q6 -74 64.5 -90.5t90.5 -16.5z" />
    <glyph glyph-name="cent.inferior" horiz-adv-x="720" 
d="M492 115q-22 78 -118 78q-62 0 -99 -41t-37 -152t150 -111q76 0 104 78h155q-14 -112 -86 -148t-119 -44v-103h-131v103q-114 16 -175.5 88t-61.5 207t90 182t147 55v103h131v-105q138 -24 169.5 -91t35.5 -99h-155z" />
    <glyph glyph-name="euro.inferior" horiz-adv-x="720" 
d="M418 -205q87 0 114 90h156q-32 -151 -121 -182t-153 -31q-128 0 -204 72t-97 199h-88l16 65h65v66h-57l17 65h49q33 194 135 232.5t164 38.5q121 0 187.5 -62t86.5 -160h-156q-30 99 -117 99t-109.5 -56.5t-29.5 -91.5h216l-17 -65h-205v-66h181l-17 -65h-158
q24 -148 142 -148z" />
    <glyph glyph-name="plus.inferior" horiz-adv-x="720" 
d="M90 -16v122h205v205h131v-205h205v-122h-205v-205h-131v205h-205z" />
    <glyph glyph-name="minus.inferior" horiz-adv-x="720" 
d="M90 -16v122h541v-122h-541z" />
    <glyph glyph-name="equal.inferior" horiz-adv-x="720" 
d="M90 -139v123h541v-123h-541zM90 106v123h541v-123h-541z" />
    <glyph glyph-name="comma.inferior" horiz-adv-x="376" 
d="M98 -311v188h181v-180l-58 -238h-90l45 230h-78z" />
    <glyph glyph-name="period.inferior" horiz-adv-x="376" 
d="M98 -311v188h181v-188h-181z" />
    <glyph glyph-name="hyphen.inferior" horiz-adv-x="565" 
d="M74 -25v140h418v-140h-418z" />
    <glyph glyph-name="parenleft.inferior" horiz-adv-x="450" 
d="M173 325q50 140 114 216h147q-105 -136 -134.5 -280t-29.5 -253.5t50 -244.5t114 -222h-147q-106 127 -135 275.5t-29 258.5t50 250z" />
    <glyph glyph-name="parenright.inferior" horiz-adv-x="450" 
d="M180 76.5q0 111.5 -51.5 248.5t-112.5 216h148q106 -127 135 -275.5t29 -258.5t-50 -250t-114 -216h-148q107 139 135.5 281.5t28.5 254z" />
    <glyph glyph-name="a.denominator" horiz-adv-x="794" 
d="M532 285v61q-15 -23 -36 -27t-33 -6l-115 -14q-110 -15 -110 -102q0 -47 31.5 -73t76.5 -26q85 0 135.5 48.5t50.5 138.5zM309 -16q-111 0 -173 54t-62 146q0 184 235 215l133 17q58 8 74 18.5t16 39.5q0 55 -31.5 90.5t-80.5 35.5q-152 0 -160 -121h-154q8 122 89.5 182
t205.5 60q217 0 256 -94.5t39 -157.5v-469h-157v84h-7q-56 -100 -223 -100z" />
    <glyph glyph-name="b.denominator" horiz-adv-x="878" 
d="M270 352q0 -106 51.5 -171.5t133.5 -65.5t135 65.5t53 177.5q0 166 -71.5 199t-111.5 33q-84 0 -135 -61t-55 -167v-10zM508 723q132 0 218.5 -97t86.5 -266.5t-92.5 -272.5t-222.5 -103t-171.5 47t-58.5 80h-6v-111h-156v1057h164v-161q0 -162 -8 -302h6q63 129 240 129
z" />
    <glyph glyph-name="c.denominator" horiz-adv-x="798" 
d="M162.5 617q96.5 106 249.5 106t237 -73.5t92 -186.5h-161q-14 86 -67.5 106.5t-93.5 20.5t-75 -18.5t-59.5 -51.5t-36.5 -76t-12 -120t49.5 -143t142.5 -66t120 51t32 76h161q-8 -113 -96 -185.5t-240 -72.5t-245.5 102t-93.5 264q0 161 96.5 267z" />
    <glyph glyph-name="d.denominator" horiz-adv-x="876" 
d="M287 175.5q51 -60.5 132 -60.5t133 60t56 165v12q0 168 -73.5 203t-113.5 35t-74 -17.5t-72.5 -65t-38.5 -159.5t51 -172.5zM373 -16q-131 0 -219 96t-88 266.5t93.5 273.5t225.5 103q91 0 143.5 -33t81.5 -96h6q-8 140 -8 148v315h164v-1057h-156v111h-6
q-62 -127 -237 -127z" />
    <glyph glyph-name="e.denominator" horiz-adv-x="815" 
d="M242 434h336q-7 71 -48.5 114.5t-111.5 43.5q-144 0 -176 -158zM424 115q124 0 158 98h151q-16 -99 -98.5 -163t-229.5 -64t-243 96t-96 265t99 271.5t251 102.5t243 -93t91 -253v-49h-517q6 -156 78 -183.5t113 -27.5z" />
    <glyph glyph-name="f.denominator" horiz-adv-x="499" 
d="M154 0v573h-138v132h138v98q0 134 61 194t191 60h102v-135h-78q-63 0 -88 -29t-25 -94v-94h166v-132h-166v-573h-163z" />
    <glyph glyph-name="g.denominator" horiz-adv-x="878" 
d="M287 175.5q51 -60.5 134 -60.5t135 64.5t52 172.5v10q-6 161 -76.5 194.5t-110.5 33.5t-74 -17.5t-72.5 -65t-38.5 -159.5t51 -172.5zM772 33q0 -363 -360 -363q-229 0 -277.5 92.5t-50.5 151.5h156q0 -87 67.5 -103t104.5 -16q204 0 204 242v74h-6q-62 -127 -237 -127
q-131 0 -219 96t-88 266.5t93.5 273.5t225.5 103q162 0 225 -129h6v111h156v-672z" />
    <glyph glyph-name="h.denominator" horiz-adv-x="843" 
d="M582 406q0 182 -109.5 182t-156 -59t-46.5 -160v-369h-164v1057h164v-159q0 -160 -8 -300h6q53 125 221 125q113 0 184.5 -66.5t71.5 -212.5v-444h-163v406z" />
    <glyph glyph-name="i.denominator" horiz-adv-x="360" 
d="M98 0v705h164v-705h-164zM92 891v166h176v-166h-176z" />
    <glyph glyph-name="j.denominator" horiz-adv-x="360" 
d="M98 -78v783h164v-797q0 -113 -52 -169t-175 -56h-60v135h41q48 0 65 25.5t17 78.5zM92 891v166h176v-166h-176z" />
    <glyph glyph-name="k.denominator" horiz-adv-x="770" 
d="M106 0v1057h164v-656l277 304h188l-262 -281l289 -424h-191l-206 307l-95 -102v-205h-164z" />
    <glyph glyph-name="l.denominator" horiz-adv-x="376" 
d="M106 0v1057h164v-1057h-164z" />
    <glyph glyph-name="m.denominator" horiz-adv-x="1280" 
d="M563 416q0 172 -99 172t-146.5 -55.5t-47.5 -157.5v-375h-164v705h156v-107h6q53 125 216 125t218 -143q53 115 124 129t117 14q101 0 170 -64t69 -202v-457h-164v420q0 130 -49 149t-83 19q-66 0 -113.5 -55.5t-47.5 -159.5v-373h-162v416z" />
    <glyph glyph-name="n.denominator" horiz-adv-x="843" 
d="M582 406q0 182 -109.5 182t-156 -59t-46.5 -160v-369h-164v705h156v-107h6q53 125 221 125q113 0 184.5 -66.5t71.5 -212.5v-444h-163v406z" />
    <glyph glyph-name="o.denominator" horiz-adv-x="854" 
d="M236 352.5q0 -53.5 13 -96.5t38.5 -74.5t60.5 -49t78 -17.5t79 17.5t61.5 49t38.5 74.5t13 96.5t-13 97.5t-38.5 75.5t-61.5 48t-79 16.5t-78 -16.5t-60.5 -48t-38.5 -75.5t-13 -97.5zM164 621.5q98 101.5 264 101.5t263 -100.5t97 -269.5t-100 -269t-263 -100t-261 98
t-98 268t98 271.5z" />
    <glyph glyph-name="p.denominator" horiz-adv-x="878" 
d="M643 357q0 110 -51 171.5t-133 61.5q-128 0 -157.5 -88t-31.5 -140v-10q0 -106 51.5 -171.5t133.5 -65.5t135 65.5t53 176.5zM270 -36v-281h-164v1022h156v-111h6q63 129 240 129q132 0 218.5 -97t86.5 -266.5t-92.5 -272.5t-222.5 -103t-171.5 47t-58.5 80h-6
q8 -140 8 -147z" />
    <glyph glyph-name="q.denominator" horiz-adv-x="878" 
d="M287 175.5q51 -60.5 134 -60.5q82 0 132.5 60.5t54.5 164.5v12q0 167 -72.5 202.5t-113.5 35.5t-75 -17.5t-72.5 -65t-38.5 -159.5t51 -172.5zM385 723q170 0 225 -129h6v111h156v-1022h-164v144q0 144 8 284h-6q-54 -127 -237 -127q-131 0 -219 96t-88 266.5t93.5 273.5
t225.5 103z" />
    <glyph glyph-name="r.denominator" horiz-adv-x="559" 
d="M428 567q-77 0 -117.5 -67t-40.5 -172v-328h-164v705h156v-134h6q55 152 185 152q52 0 98 -31l-39 -147q-44 22 -84 22z" />
    <glyph glyph-name="s.denominator" horiz-adv-x="759" 
d="M356 436l140 -28q198 -37 198 -199q0 -107 -86 -166t-265 -59t-226 86t-51 145h155q5 -84 67 -100.5t95 -16.5t60.5 6.5t47 17.5t29.5 28.5t10 47t-26 47.5t-88 31l-140 29q-194 36 -194 201q0 102 83.5 159.5t217.5 57.5q203 0 249 -82t50 -137h-156q-8 102 -139 102
q-101 0 -122 -31.5t-21 -60.5q0 -56 112 -78z" />
    <glyph glyph-name="t.denominator" horiz-adv-x="509" 
d="M143 233v340h-127v132h127v213h164v-213h170v-132h-170v-329q0 -59 20 -82t70 -23h80v-139h-98q-129 0 -182.5 53.5t-53.5 179.5z" />
    <glyph glyph-name="u.denominator" horiz-adv-x="843" 
d="M98 260v445h164v-406q0 -182 108.5 -182t155.5 58t47 165v365h164v-705h-155v106h-7q-52 -122 -227 -122t-212.5 101t-37.5 175z" />
    <glyph glyph-name="v.denominator" horiz-adv-x="731" 
d="M274 0l-266 705h185l180 -539l182 539h168l-256 -705h-193z" />
    <glyph glyph-name="w.denominator" horiz-adv-x="1099" 
d="M219 0l-211 705h166l148 -541l143 541h174l143 -543l150 543h160l-215 -705h-185l-143 528l-146 -528h-184z" />
    <glyph glyph-name="x.denominator" horiz-adv-x="690" 
d="M8 0l250 352l-246 353h189l147 -222l150 222h180l-248 -347l252 -358h-186l-154 229l-156 -229h-178z" />
    <glyph glyph-name="y.denominator" horiz-adv-x="731" 
d="M80 -180h45q126 0 170 121l-287 764h185l180 -537l182 537h168l-287 -799q-79 -223 -276 -223h-80v137z" />
    <glyph glyph-name="z.denominator" horiz-adv-x="679" 
d="M49 573v132h576v-103l-363 -471h369v-131h-580v94l367 479h-369z" />
    <glyph glyph-name="zero.denominator" horiz-adv-x="720" 
d="M360 106q148 0 148 246t-147.5 246t-147.5 -212.5t56 -246t91 -33.5zM360.5 -16q-77.5 0 -135 27.5t-94.5 77.5t-55.5 117.5t-18.5 145.5t18.5 145.5t55.5 118t94.5 78t135 27.5t135 -27.5t95.5 -78t55.5 -118t17.5 -145.5t-17.5 -145.5t-55.5 -117.5t-95.5 -77.5
t-135 -27.5z" />
    <glyph glyph-name="one.denominator" horiz-adv-x="720" 
d="M467 705v-574h188v-131h-549v131h205v385l-164 -94l-65 110l287 173h98z" />
    <glyph glyph-name="two.denominator" horiz-adv-x="720" 
d="M483 500q0 98 -108.5 98t-130 -50t-23.5 -81h-147q6 189 117.5 221.5t170.5 32.5q123 0 200 -57t77 -168q0 -110 -87 -159.5t-142 -76.5l-50 -24q-37 -16 -75.5 -50t-38.5 -55h393v-131h-573q0 194 90 258t139 88l49 25q104 54 121.5 82t17.5 47z" />
    <glyph glyph-name="three.denominator" horiz-adv-x="720" 
d="M70 213h147q0 -84 56.5 -99.5t87 -15.5t57 6.5t46 19.5t30 33.5t10.5 60t-38.5 66.5t-105.5 27h-57v107h57q89 0 108 35.5t19 58.5t-9 40t-25.5 29.5t-40 18.5t-67.5 6t-78 -30t-34 -76h-147q0 160 110 190.5t172 30.5q121 0 196 -55.5t75 -144.5t-44 -117.5t-71 -34.5
v-7q96 -19 118 -80t22 -102q0 -90 -80 -143t-224 -53q-290 0 -290 229z" />
    <glyph glyph-name="four.denominator" horiz-adv-x="720" 
d="M410 254v240l-191 -240h191zM49 131v98l385 476h131v-451h99v-123h-99v-131h-155v131h-361z" />
    <glyph glyph-name="five.denominator" horiz-adv-x="720" 
d="M373 98q51 0 78.5 23.5t38 48.5t10.5 69.5t-36.5 74.5t-90.5 30q-84 0 -117 -65l-150 8l25 418h483v-132h-344l-16 -172h8q48 58 139 58q183 0 218.5 -85.5t35.5 -145.5q0 -116 -80.5 -180t-197.5 -64q-199 0 -237 79.5t-42 124.5h152q23 -90 123 -90z" />
    <glyph glyph-name="six.denominator" horiz-adv-x="720" 
d="M364.5 344q-24.5 0 -48 -7t-41 -21.5t-27.5 -37t-10 -53t10 -55.5t27.5 -40t41 -23.5t48 -8.5t48 8.5t41 23.5t28 40t10.5 55.5t-10.5 53t-28 37t-41 21.5t-48 7zM475 516q0 60 -38.5 75t-64.5 15q-60 0 -99.5 -50.5t-43.5 -170.5q25 36 76.5 55t99.5 19q108 0 175 -56.5
t67 -173.5t-80.5 -181t-197.5 -64q-295 0 -295 352q0 385 303 385q119 0 182 -54.5t72 -150.5h-156z" />
    <glyph glyph-name="seven.denominator" horiz-adv-x="720" 
d="M66 565v140h589v-99l-327 -606h-172l311 565h-401z" />
    <glyph glyph-name="eight.denominator" horiz-adv-x="720" 
d="M233 512q0 -23 9.5 -40t26 -29.5t40 -18.5t52 -6t52 6t40 18.5t25.5 29.5t9 40t-9 40t-25.5 29.5t-40 18.5t-52 6t-52 -6t-40 -18.5t-26 -29.5t-9.5 -40zM217 204.5q0 -26.5 10.5 -47t29.5 -33.5t46 -19.5t57.5 -6.5t57 6.5t46 19.5t30 33.5t10.5 47t-10.5 47t-30 34
t-46 19.5t-57 6t-57.5 -6t-46 -19.5t-29.5 -34t-10.5 -47zM197 369q-115 27 -115 163q0 79 75 134t203.5 55t203.5 -55.5t75 -144.5t-44 -117.5t-71 -34.5v-9q96 -19 118 -79t22 -101t-20.5 -79t-60.5 -64.5t-96.5 -39.5t-126 -13t-126 13t-96.5 39.5t-60.5 64.5t-20.5 79
q0 73 39 120.5t101 59.5v9z" />
    <glyph glyph-name="nine.denominator" horiz-adv-x="720" 
d="M348.5 360q24.5 0 47 6.5t41 20.5t28.5 38t10 54.5t-10 55t-27.5 40t-41 23.5t-48 8t-48.5 -8t-41 -23.5t-27.5 -40t-10.5 -55t10.5 -53.5t27.5 -37t41 -21.5t48.5 -7.5zM483 317q-31 -71 -177 -71q-100 0 -170 56.5t-70 170.5t79.5 181t198.5 67q295 0 295 -352
q-1 -385 -285 -385q-129 0 -196.5 56.5t-75.5 147.5h156q0 -56 46 -73t72 -17q56 0 89.5 47.5t37.5 171.5z" />
    <glyph glyph-name="dollar.denominator" horiz-adv-x="720" 
d="M360 98q140 0 140 68.5t-39.5 89t-100.5 31.5l-41 8q-111 20 -178 62t-67 143q0 132 85 170.5t136 44.5v112h131v-112q141 -19 176 -86.5t37 -104.5h-156q-16 82 -115 82q-98 0 -118.5 -33.5t-20.5 -66t37.5 -51.5t118.5 -37l41 -8q105 -21 167 -65.5t62 -139.5
q0 -138 -87 -174.5t-142 -42.5v-127h-131v127q-106 12 -172 70.5t-66 146.5h148q6 -72 64.5 -89.5t90.5 -17.5z" />
    <glyph glyph-name="cent.denominator" horiz-adv-x="720" 
d="M492 426q-22 78 -118 78q-62 0 -99 -41t-37 -151.5t139 -110.5q89 0 115 78h155q-14 -113 -86 -149t-119 -44v-102h-131v102q-114 16 -175.5 88t-61.5 207t90 182t147 55v103h131v-105q137 -23 169 -90t36 -100h-155z" />
    <glyph glyph-name="euro.denominator" horiz-adv-x="720" 
d="M418 106q88 0 114 91h156q-45 -213 -270 -213q-261 0 -305 270h-88l16 65h65v66h-57l17 66h49q33 193 135 231.5t164 38.5q121 0 187 -61t87 -160h-156q-29 98 -117 98t-110 -56.5t-29 -90.5h216l-17 -66h-205v-66h181l-17 -65h-158q24 -148 142 -148z" />
    <glyph glyph-name="plus.denominator" horiz-adv-x="720" 
d="M90 295v123h205v205h131v-205h205v-123h-205v-205h-131v205h-205z" />
    <glyph glyph-name="minus.denominator" horiz-adv-x="720" 
d="M90 295v123h541v-123h-541z" />
    <glyph glyph-name="equal.denominator" horiz-adv-x="720" 
d="M90 172v123h541v-123h-541zM90 418v123h541v-123h-541z" />
    <glyph glyph-name="comma.denominator" horiz-adv-x="376" 
d="M98 0v188h181v-180l-58 -237h-90l45 229h-78z" />
    <glyph glyph-name="period.denominator" horiz-adv-x="376" 
d="M98 0v188h181v-188h-181z" />
    <glyph glyph-name="hyphen.denominator" horiz-adv-x="565" 
d="M74 287v139h418v-139h-418z" />
    <glyph glyph-name="parenleft.denominator" horiz-adv-x="450" 
d="M173 636q50 139 114 216h147q-105 -137 -134.5 -280.5t-29.5 -253t50.5 -246t113.5 -219.5h-147q-106 127 -135 275t-29 258.5t50 249.5z" />
    <glyph glyph-name="parenright.denominator" horiz-adv-x="450" 
d="M180 388q0 112 -51 248t-113 216h148q107 -127 135.5 -275.5t28.5 -258.5t-50.5 -251t-113.5 -214h-148q108 140 136 281.5t28 253.5z" />
    <glyph glyph-name="a.numerator" horiz-adv-x="794" 
d="M238 901q0 -98 122 -98q73 0 122.5 48t49.5 138v62q-15 -23 -36 -27t-33 -6l-115 -14q-110 -15 -110 -103zM419 1305q-151 0 -159 -121h-154q8 120 88.5 180.5t206.5 60.5q217 0 256 -94t39 -157v-469h-157v83h-7q-56 -100 -223 -100q-109 0 -172 54t-63 147
q0 184 235 215l133 16q56 8 73 19t17 40q0 54 -32 90t-81 36z" />
    <glyph glyph-name="b.numerator" horiz-adv-x="878" 
d="M270 1057q0 -108 52.5 -173t133.5 -65t134 66.5t53 175.5q0 110 -50.5 171.5t-133.5 61.5q-128 0 -157.5 -88t-31.5 -139v-10zM508 1427q132 0 218.5 -97t86.5 -266t-92 -272.5t-223 -103.5t-172 47t-58 80h-6v-110h-156v1056h164v-161q0 -162 -1 -175l-7 -127h6
q63 129 240 129z" />
    <glyph glyph-name="c.numerator" horiz-adv-x="798" 
d="M580 1167q-20 127 -161 127q-82 0 -132.5 -67t-50.5 -170.5t49 -170.5t142 -67t120.5 51.5t32.5 75.5h161q-8 -112 -96 -185t-240 -73t-245.5 103t-93.5 265q0 161 97 266t250 105q154 0 237 -73t91 -187h-161z" />
    <glyph glyph-name="d.numerator" horiz-adv-x="876" 
d="M288 879q52 -60 131 -60t132 59.5t57 165.5v13q0 108 -52 172.5t-134 64.5t-134 -65.5t-52 -177.5t52 -172zM373 688q-131 0 -219 96t-88 267t94 273.5t225 102.5q91 0 143.5 -33t81.5 -96h6q-8 140 -8 148v315h164v-1056h-156v110h-6q-62 -127 -237 -127z" />
    <glyph glyph-name="e.numerator" horiz-adv-x="815" 
d="M242 1139h336q-7 71 -48 114t-112 43q-144 0 -176 -157zM424 819q125 0 158 99h151q-26 -157 -135.5 -192.5t-183.5 -35.5q-156 0 -252 97t-96 266t99.5 270.5t250.5 101.5q152 0 243 -93t91 -253v-49h-517q6 -154 78 -182.5t113 -28.5z" />
    <glyph glyph-name="f.numerator" horiz-adv-x="499" 
d="M154 705v573h-138v131h138v98q0 134 60 194t192 60h102v-135h-78q-64 0 -88.5 -29.5t-24.5 -93.5v-94h166v-131h-166v-573h-163z" />
    <glyph glyph-name="g.numerator" horiz-adv-x="878" 
d="M288 879q52 -60 133 -60q82 0 134.5 64t52.5 174v10q-6 162 -76.5 194.5t-110.5 32.5t-74 -17t-72.5 -65.5t-38.5 -160.5t52 -172zM772 737q0 -362 -360 -362q-228 0 -277 92t-51 151h156q0 -55 45.5 -86.5t126.5 -31.5q204 0 204 241v74h-6q-62 -127 -237 -127
q-131 0 -219 96t-88 267t94 273.5t225 102.5q162 0 225 -129h6v111h156v-672z" />
    <glyph glyph-name="h.numerator" horiz-adv-x="843" 
d="M582 1110q0 182 -130.5 182t-156 -84t-25.5 -135v-368h-164v1056h164v-161q0 -161 -8 -297h6q25 59 82.5 91.5t124.5 32.5q128 0 199 -67t71 -211v-444h-163v405z" />
    <glyph glyph-name="i.numerator" horiz-adv-x="360" 
d="M98 705v704h164v-704h-164zM92 1595v166h176v-166h-176z" />
    <glyph glyph-name="j.numerator" horiz-adv-x="360" 
d="M98 627v782h164v-797q0 -114 -52.5 -169.5t-174.5 -55.5h-60v135h41q47 0 64.5 25.5t17.5 79.5zM92 1595v166h176v-166h-176z" />
    <glyph glyph-name="k.numerator" horiz-adv-x="770" 
d="M106 705v1056h164v-655l277 303h188l-262 -281l289 -423h-191l-206 307l-95 -103v-204h-164z" />
    <glyph glyph-name="l.numerator" horiz-adv-x="376" 
d="M106 705v1056h164v-1056h-164z" />
    <glyph glyph-name="m.numerator" horiz-adv-x="1280" 
d="M563 1120q0 172 -100 172t-146.5 -56t-46.5 -157v-374h-164v704h156v-106h6q53 124 216 124q164 0 218 -143q53 115 124 129t117 14q102 0 170.5 -64.5t68.5 -201.5v-456h-164v419q0 132 -49 150t-83 18q-68 0 -114.5 -56t-46.5 -159v-372h-162v415z" />
    <glyph glyph-name="n.numerator" horiz-adv-x="843" 
d="M582 1110q0 182 -130.5 182t-156 -84t-25.5 -135v-368h-164v704h156v-106h6q25 59 82.5 91.5t124.5 32.5q128 0 199 -67t71 -211v-444h-163v405z" />
    <glyph glyph-name="o.numerator" horiz-adv-x="854" 
d="M236 1057q0 -53 13 -96t38.5 -75t60.5 -49.5t78 -17.5t79 17.5t61.5 49.5t38.5 75t13 96t-13 97t-38.5 76t-61.5 48t-79 16t-78 -16t-60.5 -48t-38.5 -76t-13 -97zM164.5 1326.5q98.5 100.5 263.5 100.5t262.5 -99.5t97.5 -268.5t-99.5 -270t-263.5 -101t-261.5 99
t-97.5 269t98.5 270.5z" />
    <glyph glyph-name="p.numerator" horiz-adv-x="878" 
d="M592.5 1232.5q-50.5 61.5 -133.5 61.5q-128 0 -157.5 -88t-31.5 -139v-10q0 -108 52.5 -173t133.5 -65t134 66.5t53 175.5q0 110 -50.5 171.5zM270 668v-281h-164v1022h156v-111h6q63 129 240 129q132 0 218.5 -97t86.5 -266t-92 -272.5t-223 -103.5t-172 47t-58 80h-6
q8 -140 8 -147z" />
    <glyph glyph-name="q.numerator" horiz-adv-x="878" 
d="M288 879q52 -60 133 -60t132 60.5t55 164.5v13q0 168 -72.5 202.5t-113.5 34.5t-75 -17t-72.5 -65.5t-38.5 -160.5t52 -172zM385 1427q170 0 225 -129h6v111h156v-1022h-164v144q0 144 8 284h-6q-54 -127 -237 -127q-131 0 -219 96t-88 267t94 273.5t225 102.5z" />
    <glyph glyph-name="r.numerator" horiz-adv-x="559" 
d="M426 1272q-77 0 -116.5 -67.5t-39.5 -172.5v-327h-164v704h156v-133h6q55 151 185 151q53 0 98 -30l-39 -148q-46 23 -86 23z" />
    <glyph glyph-name="s.numerator" horiz-adv-x="759" 
d="M356 1141l140 -29q198 -37 198 -199q0 -107 -87 -166t-265.5 -59t-225 86.5t-50.5 145.5h155q6 -87 67.5 -102t94.5 -15t60.5 6t47 17.5t29.5 28.5t10 46t-25.5 48t-88.5 32l-140 29q-194 36 -194 200q0 102 82.5 159.5t218.5 57.5q204 0 249.5 -81.5t49.5 -137.5h-156
q-8 103 -139 103q-102 0 -122.5 -32t-20.5 -61q0 -55 112 -77z" />
    <glyph glyph-name="t.numerator" horiz-adv-x="509" 
d="M143 938v340h-127v131h127v213h164v-213h170v-131h-170v-330q0 -57 19.5 -80.5t70.5 -23.5h80v-139h-98q-130 0 -183 53t-53 180z" />
    <glyph glyph-name="u.numerator" horiz-adv-x="843" 
d="M98 965v444h164v-405q0 -183 108 -183t155.5 57.5t47.5 165.5v365h164v-704h-155v106h-7q-52 -123 -221 -123q-111 0 -183.5 65.5t-72.5 211.5z" />
    <glyph glyph-name="v.numerator" horiz-adv-x="731" 
d="M274 705l-266 704h185l180 -539l182 539h168l-256 -704h-193z" />
    <glyph glyph-name="w.numerator" horiz-adv-x="1099" 
d="M219 705l-211 704h166l148 -541l143 541h174l143 -543l150 543h160l-215 -704h-185l-143 528l-146 -528h-184z" />
    <glyph glyph-name="x.numerator" horiz-adv-x="690" 
d="M8 705l250 352l-246 352h189l147 -221l150 221h180l-248 -346l252 -358h-186l-154 229l-156 -229h-178z" />
    <glyph glyph-name="y.numerator" horiz-adv-x="731" 
d="M80 524h45q126 0 170 121l-287 764h185l180 -537l182 537h168l-287 -799q-55 -155 -138 -189t-138 -34h-80v137z" />
    <glyph glyph-name="z.numerator" horiz-adv-x="679" 
d="M49 1278v131h576v-102l-363 -471h369v-131h-580v94l367 479h-369z" />
    <glyph glyph-name="zero.numerator" horiz-adv-x="720" 
d="M360.5 1303q-147.5 0 -147.5 -212.5t56 -246t91 -33.5q148 0 148 246t-147.5 246zM360.5 688q-77.5 0 -135 27.5t-94.5 78t-55.5 118t-18.5 145.5t18.5 145.5t55.5 117.5t94.5 77.5t135 27.5t135 -27.5t95.5 -77.5t55.5 -117.5t17.5 -145.5t-17.5 -145.5t-55.5 -118
t-95.5 -78t-135 -27.5z" />
    <glyph glyph-name="one.numerator" horiz-adv-x="720" 
d="M467 1409v-573h188v-131h-549v131h205v385l-164 -95l-65 111l287 172h98z" />
    <glyph glyph-name="two.numerator" horiz-adv-x="720" 
d="M483 1204q0 99 -108.5 99t-130 -50.5t-23.5 -81.5h-147q4 129 84.5 191.5t201.5 62.5q195 0 237 -82.5t42 -132.5q0 -89 -59.5 -141t-169.5 -104l-50 -25q-37 -16 -75.5 -50t-38.5 -54h393v-131h-573q0 195 90 258t139 88l49 24q75 39 107 67.5t32 61.5z" />
    <glyph glyph-name="three.numerator" horiz-adv-x="720" 
d="M398.5 803q105.5 0 105.5 79.5t-38.5 106.5t-105.5 27h-57v106h57q90 0 108.5 36t18.5 58.5t-9 40t-25.5 29.5t-40 18.5t-66.5 6.5t-78 -29.5t-35 -77.5h-147q0 105 76 163t207 58q186 0 228 -76.5t42 -112.5q0 -66 -31 -108.5t-84 -54.5v-6q95 -18 117.5 -79.5
t22.5 -102.5q0 -90 -81 -143.5t-223 -53.5q-290 0 -290 230h147q0 -53 38 -84t143.5 -31z" />
    <glyph glyph-name="four.numerator" horiz-adv-x="720" 
d="M410 958v240l-191 -240h191zM49 836v98l385 475h131v-451h99v-122h-99v-131h-155v131h-361z" />
    <glyph glyph-name="five.numerator" horiz-adv-x="720" 
d="M250 893q22 -90 116 -90q93 0 113.5 48t20.5 93t-37.5 75t-89.5 30q-84 0 -117 -66l-150 8l25 418h483v-131h-344l-16 -172h8q48 57 139 57q183 0 218.5 -86t35.5 -145q0 -117 -81.5 -180.5t-196.5 -63.5q-199 0 -237 80t-42 125h152z" />
    <glyph glyph-name="six.numerator" horiz-adv-x="720" 
d="M364.5 1049q-24.5 0 -48 -7.5t-41 -21.5t-27.5 -36.5t-10 -53.5t10 -55.5t27.5 -40t41 -23.5t48 -8t48 8t41 23.5t28 40t10.5 55.5t-10.5 53.5t-28 36.5t-41 21.5t-48 7.5zM369 688q-295 0 -295 352q0 385 303 385q121 0 183.5 -54.5t70.5 -149.5h-156q0 57 -38.5 73.5
t-64.5 16.5q-59 0 -99 -51t-44 -170q25 36 75 54.5t100 18.5q111 0 177 -57t66 -174t-81.5 -180.5t-196.5 -63.5z" />
    <glyph glyph-name="seven.numerator" horiz-adv-x="720" 
d="M66 1270v139h589v-98l-327 -606h-172l311 565h-401z" />
    <glyph glyph-name="eight.numerator" horiz-adv-x="720" 
d="M233 1216.5q0 -22.5 9.5 -40t26 -29.5t40 -18.5t52 -6.5t52 6.5t40 18.5t25.5 29.5t9 40t-9 40t-25.5 29.5t-40 18.5t-52 6.5t-52 -6.5t-40 -18.5t-26 -29.5t-9.5 -40zM217 909.5q0 -26.5 10.5 -47t29.5 -34t46 -19.5t57.5 -6t57 6t46 19.5t30 34t10.5 47t-10.5 47
t-30 34t-46 19.5t-57 6t-57.5 -6t-46 -19.5t-29.5 -34t-10.5 -47zM96.5 1005q39.5 48 100.5 60v8q-53 12 -84 54.5t-31 93.5t19.5 86.5t55.5 62.5t88 41t149 14t171 -55.5t74 -143.5t-44 -117.5t-71 -35.5v-8q96 -19 118 -79t22 -101t-20.5 -79t-60.5 -64.5t-96.5 -40
t-126 -13.5t-126 13.5t-117 53.5t-60.5 121t39.5 129z" />
    <glyph glyph-name="nine.numerator" horiz-adv-x="720" 
d="M348.5 1065q24.5 0 47 6t41 20.5t28.5 38t10 54t-10 55.5t-27.5 40t-41 23.5t-48 8.5t-48.5 -8.5t-41 -23.5t-27.5 -40t-10.5 -55.5t10.5 -53t27.5 -37t41 -21.5t48.5 -7zM639 1073q-1 -385 -285 -385q-127 0 -195 56.5t-77 148.5h156q0 -37 34.5 -63.5t71.5 -26.5
q67 0 101 47t38 172q-20 -47 -77.5 -59.5t-99.5 -12.5q-98 0 -169 56t-71 170t78.5 181.5t199.5 67.5q295 0 295 -352z" />
    <glyph glyph-name="dollar.numerator" horiz-adv-x="720" 
d="M360 803q140 0 140 81.5t-140 106.5l-41 8q-111 20 -178 62t-67 143q0 132 85 170.5t136 44.5v113h131v-113q141 -19 176 -86t37 -104h-156q-8 40 -42.5 61t-71.5 21q-36 0 -59 -5.5t-41.5 -16.5t-29 -28.5t-10.5 -50.5t39.5 -52t116.5 -36l41 -8q105 -21 167 -65.5
t62 -139.5q0 -136 -87 -174.5t-142 -44.5v-125h-131v127q-164 18 -201 95t-37 122h148q4 -45 47 -75.5t108 -30.5z" />
    <glyph glyph-name="cent.numerator" horiz-adv-x="720" 
d="M442 688h-131v103q-113 16 -175 87.5t-62 207t90 182.5t147 55v102h131v-104q138 -24 169.5 -91t35.5 -100h-155q-22 78 -119 78t-116 -58t-19 -110.5t37 -93.5t113 -41t104 78h155q-14 -112 -86 -148t-119 -44v-103z" />
    <glyph glyph-name="euro.numerator" horiz-adv-x="720" 
d="M414 688q-128 0 -204 71.5t-97 198.5h-88l16 66h65v66h-57l17 65h49q33 193 135 231.5t164 38.5q122 0 187.5 -61t86.5 -160h-156q-30 99 -117 99t-109.5 -56.5t-29.5 -91.5h216l-17 -65h-205v-66h181l-17 -66h-158q24 -147 142 -147q87 0 114 90h156q-32 -151 -121 -182
t-153 -31z" />
    <glyph glyph-name="plus.numerator" horiz-adv-x="720" 
d="M90 999v123h205v205h131v-205h205v-123h-205v-204h-131v204h-205z" />
    <glyph glyph-name="minus.numerator" horiz-adv-x="720" 
d="M90 999v123h541v-123h-541z" />
    <glyph glyph-name="equal.numerator" horiz-adv-x="720" 
d="M90 877v122h541v-122h-541zM90 1122v123h541v-123h-541z" />
    <glyph glyph-name="comma.numerator" horiz-adv-x="376" 
d="M98 705v188h181v-180l-58 -238h-90l45 230h-78z" />
    <glyph glyph-name="period.numerator" horiz-adv-x="376" 
d="M98 705v188h181v-188h-181z" />
    <glyph glyph-name="hyphen.numerator" horiz-adv-x="565" 
d="M74 991v139h418v-139h-418z" />
    <glyph glyph-name="parenleft.numerator" horiz-adv-x="450" 
d="M173.5 1342q50.5 141 113.5 214h147q-105 -136 -134.5 -279.5t-29.5 -253.5t49.5 -244t114.5 -222h-147q-107 127 -135.5 275.5t-28.5 258.5t50.5 251z" />
    <glyph glyph-name="parenright.numerator" horiz-adv-x="450" 
d="M180 1092.5q0 111.5 -52 249.5t-112 214h148q106 -127 135 -275t29 -258.5t-50 -249.5t-114 -216h-148q108 140 136 282t28 253.5z" />
    <glyph glyph-name="a.superior" horiz-adv-x="794" 
d="M238 1212q0 -98 122 -98q72 0 122 48.5t50 137.5v62q-15 -23 -36 -27t-33 -6l-115 -14q-110 -15 -110 -103zM309 999q-109 0 -172 54t-63 147q0 184 235 215l133 17q58 8 74 18.5t16 39.5q0 56 -32 91t-81 35q-151 0 -159 -121h-154q8 122 89.5 182t205.5 60
q217 0 256 -94.5t39 -157.5v-469h-157v84h-7q-57 -101 -223 -101z" />
    <glyph glyph-name="b.superior" horiz-adv-x="878" 
d="M270 1368q0 -106 52 -172t134 -66t134.5 66.5t52.5 177.5q0 166 -71.5 199t-111.5 33q-84 0 -135 -61t-55 -167v-10zM508 1739q132 0 218.5 -97.5t86.5 -266.5t-93 -272.5t-223 -103.5t-171 47.5t-58 79.5h-6v-110h-156v1057h164v-161q0 -162 -8 -302h6q63 129 240 129z
" />
    <glyph glyph-name="c.superior" horiz-adv-x="798" 
d="M163.5 1633.5q97.5 105.5 249.5 105.5t236 -73.5t92 -186.5h-161q-14 86 -67.5 106.5t-93.5 20.5t-75 -18.5t-59.5 -51.5t-36.5 -76t-12 -119.5t49 -143.5t142 -67t120.5 51.5t32.5 75.5h161q-8 -112 -96 -185t-239 -73t-245.5 102.5t-94.5 264.5t97.5 267.5z" />
    <glyph glyph-name="d.superior" horiz-adv-x="876" 
d="M287.5 1191q51.5 -61 131.5 -61t132.5 60.5t56.5 165.5v12q0 108 -52.5 173t-133.5 65t-133.5 -66t-52.5 -177t51.5 -172zM373 999q-130 0 -218.5 96.5t-88.5 267t93.5 273.5t225.5 103q166 0 225 -129h6q-8 140 -8 148v315h164v-1057h-156v110h-6q-62 -127 -237 -127z
" />
    <glyph glyph-name="e.superior" horiz-adv-x="815" 
d="M242 1450h336q-7 71 -48.5 114.5t-111.5 43.5q-144 0 -176 -158zM424 1130q125 0 158 99h151q-16 -99 -99 -163.5t-229 -64.5t-242.5 96.5t-96.5 265.5t100 271.5t251 102.5t242 -94t91 -252v-50h-517q6 -154 78 -182.5t113 -28.5z" />
    <glyph glyph-name="f.superior" horiz-adv-x="499" 
d="M154 1016v573h-138v131h138v99q0 133 60.5 193.5t191.5 60.5h102v-136h-78q-64 0 -88.5 -29.5t-24.5 -92.5v-95h166v-131h-166v-573h-163z" />
    <glyph glyph-name="g.superior" horiz-adv-x="878" 
d="M287.5 1191q51.5 -61 133.5 -61t134.5 65t52.5 173v10q-6 161 -76.5 194.5t-110.5 33.5t-74 -17.5t-72.5 -66t-38.5 -159.5t51.5 -172zM772 1049q0 -363 -360 -363q-229 0 -277.5 92.5t-50.5 151.5h156q0 -56 45.5 -87.5t126.5 -31.5q204 0 204 242v73h-6
q-62 -127 -237 -127q-130 0 -218.5 96.5t-88.5 267t93.5 273.5t225.5 103q160 0 225 -129h6v110h156v-671z" />
    <glyph glyph-name="h.superior" horiz-adv-x="843" 
d="M582 1421q0 183 -109.5 183t-156 -59t-46.5 -161v-368h-164v1057h164v-159q0 -160 -8 -300h6q53 125 221 125q113 0 184.5 -67.5t71.5 -211.5v-444h-163v405z" />
    <glyph glyph-name="i.superior" horiz-adv-x="360" 
d="M98 1016v704h164v-704h-164zM92 1907v166h176v-166h-176z" />
    <glyph glyph-name="j.superior" horiz-adv-x="360" 
d="M98 938v782h164v-796q0 -115 -52.5 -170.5t-174.5 -55.5h-60v136h41q48 0 65 25t17 79zM92 1907v166h176v-166h-176z" />
    <glyph glyph-name="k.superior" horiz-adv-x="770" 
d="M106 1016v1057h164v-656l277 303h188l-262 -280l289 -424h-191l-206 307l-95 -102v-205h-164z" />
    <glyph glyph-name="l.superior" horiz-adv-x="376" 
d="M106 1016v1057h164v-1057h-164z" />
    <glyph glyph-name="m.superior" horiz-adv-x="1280" 
d="M563 1432q0 172 -99 172t-146.5 -55.5t-47.5 -157.5v-375h-164v704h156v-106h6q53 125 216 125t218 -144q53 114 124 129t117 15q101 0 170 -64t69 -202v-457h-164v420q0 130 -49 149t-83 19q-66 0 -113.5 -55.5t-47.5 -159.5v-373h-162v416z" />
    <glyph glyph-name="n.superior" horiz-adv-x="843" 
d="M582 1421q0 183 -109.5 183t-156 -59t-46.5 -161v-368h-164v704h156v-106h6q53 125 221 125q113 0 184.5 -67.5t71.5 -211.5v-444h-163v405z" />
    <glyph glyph-name="o.superior" horiz-adv-x="854" 
d="M236 1368q0 -53 13 -96t38.5 -75t60.5 -49.5t78 -17.5t79 17.5t61.5 49.5t38.5 75t13 96t-13 97t-38.5 76t-61.5 48.5t-79 16.5t-78 -16.5t-60.5 -48.5t-38.5 -76t-13 -97zM164 1637.5q98 101.5 264 101.5t263 -100.5t97 -269.5t-100.5 -269.5t-262.5 -100.5t-260.5 98.5
t-98.5 268.5t98 271.5z" />
    <glyph glyph-name="p.superior" horiz-adv-x="878" 
d="M592 1544.5q-51 61.5 -133 61.5q-128 0 -157.5 -88t-31.5 -140v-10q0 -106 52 -172t134 -66t134.5 66.5t52.5 176.5t-51 171.5zM270 978v-280h-164v1022h156v-110h6q63 129 240 129q132 0 218.5 -97.5t86.5 -266.5t-93 -272.5t-223 -103.5t-171 47.5t-58 79.5h-6
q8 -140 8 -148z" />
    <glyph glyph-name="q.superior" horiz-adv-x="878" 
d="M287.5 1191q51.5 -61 133.5 -61q81 0 132 61t55 165v12q0 167 -72.5 202.5t-113.5 35.5t-75 -17.5t-72.5 -66t-38.5 -159.5t51.5 -172zM385 1739q169 0 225 -129h6v110h156v-1022h-164v146q0 146 1 159l7 123h-6q-54 -127 -237 -127q-130 0 -218.5 96.5t-88.5 267
t93.5 273.5t225.5 103z" />
    <glyph glyph-name="r.superior" horiz-adv-x="559" 
d="M428 1583q-77 0 -117.5 -67t-40.5 -173v-327h-164v704h156v-133h6q55 152 185 152q51 0 98 -31l-39 -147q-44 22 -84 22z" />
    <glyph glyph-name="s.superior" horiz-adv-x="759" 
d="M356 1452l140 -29q198 -37 198 -198q0 -108 -87 -167t-265.5 -59t-225 86.5t-50.5 145.5h155q6 -87 67.5 -102t94.5 -15t60.5 6t47 17.5t29.5 29t10 46t-25.5 47.5t-88.5 32l-140 29q-194 36 -194 201q0 102 83.5 159.5t217.5 57.5q203 0 249 -82t50 -137h-156
q-8 102 -139 102q-101 0 -122 -31.5t-21 -60.5q0 -56 112 -78z" />
    <glyph glyph-name="t.superior" horiz-adv-x="509" 
d="M143 1249v340h-127v131h127v213h164v-213h170v-131h-170v-329q0 -58 19.5 -81.5t70.5 -23.5h80v-139h-98q-130 0 -183 53.5t-53 179.5z" />
    <glyph glyph-name="u.superior" horiz-adv-x="843" 
d="M98 1276v444h164v-405q0 -182 108.5 -182t155.5 58t47 165v364h164v-704h-155v106h-7q-52 -123 -221 -123q-111 0 -183.5 66.5t-72.5 210.5z" />
    <glyph glyph-name="v.superior" horiz-adv-x="731" 
d="M274 1016l-266 704h185l180 -538l182 538h168l-256 -704h-193z" />
    <glyph glyph-name="w.superior" horiz-adv-x="1099" 
d="M219 1016l-211 704h166l148 -540l143 540h174l143 -542l150 542h160l-215 -704h-185l-143 528l-146 -528h-184z" />
    <glyph glyph-name="x.superior" horiz-adv-x="690" 
d="M8 1016l250 352l-246 352h189l147 -221l150 221h180l-248 -346l252 -358h-186l-154 229l-156 -229h-178z" />
    <glyph glyph-name="y.superior" horiz-adv-x="731" 
d="M80 836h45q125 0 170 120l-287 764h185l180 -536l182 536h168l-287 -798q-55 -156 -138 -190t-138 -34h-80v138z" />
    <glyph glyph-name="z.superior" horiz-adv-x="679" 
d="M49 1589v131h576v-102l-363 -471h369v-131h-580v94l367 479h-369z" />
    <glyph glyph-name="dollar.superior" horiz-adv-x="720" 
d="M360 1114q140 0 140 68.5t-36.5 87.5t-103.5 33l-41 8q-111 20 -178 62t-67 143q0 133 85 170.5t136 44.5v112h131v-112q140 -19 175.5 -86.5t37.5 -104.5h-156q-16 82 -115 82q-98 0 -118.5 -34t-20.5 -66t37.5 -51t118.5 -37l41 -9q108 -22 168.5 -66t60.5 -138
q0 -138 -87 -175.5t-142 -44.5v-124h-131v127q-106 12 -172 70.5t-66 146.5h148q6 -74 64.5 -90.5t90.5 -16.5z" />
    <glyph glyph-name="cent.superior" horiz-adv-x="720" 
d="M238 1327.5q0 -110.5 150 -110.5q77 0 104 77h155q-14 -112 -86 -148t-119 -44v-103h-131v103q-114 16 -175.5 88t-61.5 207t90 182t147 55v103h131v-105q137 -23 169 -90t36 -100h-155q-22 78 -118 78q-62 0 -99 -41t-37 -151.5z" />
    <glyph glyph-name="euro.superior" horiz-adv-x="720" 
d="M418 1122q87 0 114 90h156q-32 -151 -121 -182t-153 -31q-128 0 -204 72t-97 199h-88l16 65h65v66h-57l17 65h49q33 194 135 232.5t164 38.5q121 0 187 -61.5t87 -159.5h-156q-29 98 -117 98q-87 0 -109.5 -56.5t-29.5 -91.5h216l-17 -65h-205v-66h181l-17 -65h-158
q24 -148 142 -148z" />
    <glyph glyph-name="plus.superior" horiz-adv-x="720" 
d="M90 1311v123h205v204h131v-204h205v-123h-205v-205h-131v205h-205z" />
    <glyph glyph-name="minus.superior" horiz-adv-x="720" 
d="M90 1311v123h541v-123h-541z" />
    <glyph glyph-name="equal.superior" horiz-adv-x="720" 
d="M90 1188v123h541v-123h-541zM90 1434v122h541v-122h-541z" />
    <glyph glyph-name="comma.superior" horiz-adv-x="376" 
d="M98 1016v188h181v-180l-58 -238h-90l45 230h-78z" />
    <glyph glyph-name="period.superior" horiz-adv-x="376" 
d="M98 1016v188h181v-188h-181z" />
    <glyph glyph-name="hyphen.superior" horiz-adv-x="565" 
d="M74 1303v139h418v-139h-418z" />
    <glyph glyph-name="parenleft.superior" horiz-adv-x="450" 
d="M173 1652q50 140 114 216h147q-105 -136 -134.5 -280t-29.5 -253.5t50 -244.5t114 -222h-147q-106 127 -135 275.5t-29 258.5t50 250z" />
    <glyph glyph-name="parenright.superior" horiz-adv-x="450" 
d="M129 1651q-51 136 -113 217h148q106 -127 135 -275.5t29 -258.5t-50 -250t-114 -216h-148q107 139 135.5 281.5t28.5 254t-51 247.5z" />
    <glyph glyph-name="exclam.sc" horiz-adv-x="573" 
d="M180 0v213h213v-213h-213zM180 1065h213v-295l-57 -459h-98l-58 459v295z" />
    <glyph glyph-name="question.sc" horiz-adv-x="958" 
d="M369 0v213h204v-213h-204zM385 311v41q0 92 41 150.5t123 116t114.5 88.5t32.5 75q0 75 -59.5 117.5t-135.5 42.5q-128 0 -187.5 -55.5t-59.5 -149.5h-172q0 153 107 253t288 100t290.5 -76.5t109.5 -210.5q0 -86 -42 -140.5t-123 -109.5t-118 -93t-37 -100v-49h-172z
" />
    <glyph glyph-name="exclamdown.sc" horiz-adv-x="573" 
d="M180 0v295l58 459h98l57 -459v-295h-213zM180 852v213h213v-213h-213z" />
    <glyph glyph-name="questiondown.sc" horiz-adv-x="958" 
d="M590 1065v-213h-205v213h205zM573 754v-41q0 -92 -40.5 -150.5t-122.5 -116t-115 -89t-33 -75.5q0 -74 59.5 -116.5t134.5 -42.5q128 0 188.5 55.5t60.5 149.5h172q0 -152 -106.5 -252.5t-287.5 -100.5t-291 76t-110 211q0 86 42 140.5t123 109.5t117.5 93t36.5 100v49
h172z" />
    <glyph glyph-name="hyphen.sc" horiz-adv-x="811" 
d="M123 459v164h565v-164h-565z" />
    <glyph glyph-name="endash.sc" horiz-adv-x="1138" 
d="M123 459v164h893v-164h-893z" />
    <glyph glyph-name="emdash.sc" horiz-adv-x="1720" 
d="M123 459v164h1474v-164h-1474z" />
    <glyph glyph-name="periodcentered.sc" horiz-adv-x="524" 
d="M147 426v229h230v-229h-230z" />
    <glyph glyph-name="bullet.sc" horiz-adv-x="835" 
d="M417.5 270q-55.5 0 -104.5 20.5t-87 57.5t-58.5 87t-20.5 105.5t20.5 105.5t58.5 87t87 57.5t104.5 20.5t104.5 -20.5t87 -57.5t58.5 -87t20.5 -105.5t-20.5 -105.5t-58.5 -87t-87 -57.5t-104.5 -20.5z" />
    <glyph glyph-name="guilsinglleft.sc" horiz-adv-x="583" 
d="M330 215l-224 326l224 323h147l-184 -323l184 -326h-147z" />
    <glyph glyph-name="guilsinglright.sc" horiz-adv-x="583" 
d="M106 215l185 326l-185 323h148l223 -323l-223 -326h-148z" />
    <glyph glyph-name="guillemotleft.sc" horiz-adv-x="907" 
d="M328 215l-222 326l222 323h147l-184 -323l184 -326h-147zM653 215l-221 326l221 323h148l-185 -323l185 -326h-148z" />
    <glyph glyph-name="guillemotright.sc" horiz-adv-x="907" 
d="M106 215l185 326l-185 323h148l221 -323l-221 -326h-148zM432 215l184 326l-184 323h148l221 -323l-221 -326h-148z" />
    <glyph glyph-name="parenleft.sc" horiz-adv-x="606" 
d="M254.5 937q74.5 202 163.5 316h155q-84 -113 -156.5 -315.5t-72.5 -448.5t94 -434t135 -243h-155q-90 115 -164 318t-74 404t74.5 403z" />
    <glyph glyph-name="parenright.sc" horiz-adv-x="606" 
d="M191 935q-71 201 -158 318h155q89 -114 163.5 -316t74.5 -450.5t-97.5 -434t-140.5 -240.5h-155q88 118 158.5 320t70.5 402t-71 401z" />
    <glyph glyph-name="bracketleft.sc" horiz-adv-x="606" 
d="M180 -188v1441h393v-139h-237v-1163h237v-139h-393z" />
    <glyph glyph-name="bracketright.sc" horiz-adv-x="606" 
d="M33 -49h237v1163h-237v139h393v-1441h-393v139z" />
    <glyph glyph-name="braceleft.sc" horiz-adv-x="622" 
d="M377 295v-221q0 -75 30 -103t109 -28h74v-131h-90q-152 0 -211.5 64.5t-59.5 197.5v180q0 130 -40 179.5t-148 49.5v107q108 0 148 50.5t40 178.5v172q0 133 59.5 197.5t211.5 64.5h90v-131h-74q-79 0 -109 -28t-30 -103v-213q0 -191 -180 -237v-9q180 -46 180 -237z" />
    <glyph glyph-name="braceright.sc" horiz-adv-x="622" 
d="M246 778v213q0 74 -29.5 102.5t-110.5 28.5h-73v131h90q217 0 243.5 -98t26.5 -164v-172q0 -127 40.5 -178t148.5 -51v-107q-108 0 -148.5 -50t-40.5 -179v-180q0 -134 -60 -198t-210 -64h-90v131h73q81 0 110.5 29t29.5 102v221q0 191 180 237v9q-180 46 -180 237z" />
    <glyph glyph-name="slash.sc" horiz-adv-x="663" 
d="M16 -25l476 1115h155l-475 -1115h-156z" />
    <glyph glyph-name="backslash.sc" horiz-adv-x="663" 
d="M492 -25l-476 1115h156l475 -1115h-155z" />
    <glyph glyph-name="quoteleft.sc" horiz-adv-x="524" 
d="M156 549v205l82 311h98l-57 -295h90v-221h-213z" />
    <glyph glyph-name="quotedblleft.sc" horiz-adv-x="892" 
d="M524 549v205l82 311h99l-58 -295h90v-221h-213zM156 549v205l82 311h98l-57 -295h90v-221h-213z" />
    <glyph glyph-name="quoteright.sc" horiz-adv-x="524" 
d="M156 844v221h213v-205l-82 -311h-99l58 295h-90z" />
    <glyph glyph-name="quotedblright.sc" horiz-adv-x="892" 
d="M524 844v221h213v-205l-82 -311h-98l57 295h-90zM156 844v221h213v-205l-82 -311h-99l58 295h-90z" />
    <glyph glyph-name="asterisk.sc" horiz-adv-x="933" 
d="M393 1081h148l-35 -274l250 119l45 -142l-269 -53l187 -199l-119 -86l-135 238l-131 -238l-119 86l184 201l-266 51l45 142l248 -117z" />
    <glyph glyph-name="degree.sc" horiz-adv-x="737" 
d="M368.5 958q-28.5 0 -54 -10t-45 -30.5t-30 -47t-10.5 -59.5t10.5 -59.5t30 -47t45 -30.5t54 -10t54.5 10t45 30.5t29.5 47t10.5 59.5t-10.5 59.5t-29.5 47t-45 30.5t-54.5 10zM368.5 532q-59.5 0 -112.5 20.5t-92 57.5t-60.5 88.5t-21.5 112.5t21.5 112.5t60.5 88.5
t92 57.5t112.5 20.5t113 -20.5t92 -57.5t60 -88.5t21.5 -112.5t-21.5 -112.5t-60 -88.5t-92 -57.5t-113 -20.5z" />
    <glyph glyph-name="quotesingle.sc" horiz-adv-x="442" 
d="M131 1065h180v-172l-32 -344h-115l-33 344v172z" />
    <glyph glyph-name="quotedbl.sc" horiz-adv-x="802" 
d="M492 1065h180v-172l-33 -344h-115l-32 344v172zM131 1065h180v-172l-32 -344h-115l-33 344v172z" />
    <glyph glyph-name="ordfeminine.sc" horiz-adv-x="598" 
d="M403 745v50q-5 -14 -24 -18.5t-29 -6.5l-86 -12q-61 -5 -72.5 -33.5t-11.5 -44.5q0 -31 22.5 -52.5t57.5 -21.5q61 0 102 33.5t41 105.5zM281 1079q245 0 245 -192v-355h-118v64h-5q-51 -76 -170 -76q-80 0 -129 40.5t-49 111.5q0 134 178 162l101 12q46 8 57.5 16
t11.5 29q0 43 -25.5 69.5t-76.5 26.5q-96 0 -104 -92h-117q4 93 66 138.5t135 45.5z" />
    <glyph glyph-name="ordmasculine.sc" horiz-adv-x="638" 
d="M319.5 618q64.5 0 105 50t40.5 111t-10.5 94.5t-29.5 57t-46 36t-77 12.5t-89 -50.5t-39 -109.5t10.5 -93t40.5 -71t94.5 -37zM318 520q-124 0 -197.5 75.5t-73.5 202.5t75.5 204t199.5 77q123 0 197.5 -76t74.5 -203.5t-76 -203.5t-200 -76z" />
    <glyph glyph-name="trademark.sc" horiz-adv-x="1277" 
d="M8 958v107h484v-107h-173v-426h-131v426h-180zM565 532v533h180l136 -360h4l139 360h172v-533h-123l6 369h-6l-147 -369h-99l-139 369h-8l8 -369h-123z" />
    <glyph glyph-name="copyright.sc" horiz-adv-x="1253" 
d="M360 540.5q0 118.5 72 198.5t209 80q138 0 179.5 -73.5t47.5 -114.5h-123q-31 82 -124 82t-115.5 -67.5t-22.5 -124t40 -104.5t116 -48q77 0 106 82h123q-12 -85 -76.5 -137t-144.5 -52q-79 0 -130.5 21.5t-104 80t-52.5 177zM318.5 216q121.5 -134 302.5 -134
t308.5 135.5t127.5 322.5t-124.5 315t-309.5 128t-305.5 -126t-120.5 -316.5t121.5 -324.5zM234 932.5q152 157.5 387 157.5t392.5 -157.5t157.5 -393t-156 -400t-391 -164.5t-388.5 165t-153.5 400t152 392.5z" />
    <glyph glyph-name="registered.sc" horiz-adv-x="1253" 
d="M729 656q0 44 -90 44h-107v-147h107q65 0 77.5 29.5t12.5 73.5zM401 279v524h254q151 0 178 -65.5t27 -99.5q0 -61 -33 -106.5t-84 -64.5l125 -188h-131l-114 172h-91v-172h-131zM318.5 216q121.5 -134 302.5 -134t308.5 135.5t127.5 322.5t-124.5 315t-309.5 128
t-305.5 -126t-120.5 -316.5t121.5 -324.5zM234 932.5q152 157.5 387 157.5t392.5 -157.5t157.5 -393t-156 -400t-391 -164.5t-388.5 165t-153.5 400t152 392.5z" />
    <glyph glyph-name="paragraph.sc" horiz-adv-x="1058" 
d="M412 0v385q-237 25 -283.5 146.5t-46.5 195.5q0 155 105 246.5t286 91.5h105v-1065h-166zM713 0v1065h166v-1065h-166z" />
    <glyph glyph-name="dagger.sc" horiz-adv-x="753" 
d="M90 672v131h213v262h148v-262h213v-131h-213v-672h-148v672h-213z" />
    <glyph glyph-name="daggerdbl.sc" horiz-adv-x="753" 
d="M90 688v131h213v246h148v-246h213v-131h-213v-319h213v-131h-213v-238h-148v238h-213v131h213v319h-213z" />
    <glyph glyph-name="section.sc" horiz-adv-x="878" 
d="M485 199q154 43 154 159q0 59 -37 88.5t-119 55.5l-94 30q-151 -44 -151 -160q0 -59 35.5 -87t119.5 -56zM467 961q-197 0 -197 -140q0 -93 148 -139l147 -49q179 -59 204.5 -131t25.5 -123q0 -160 -170 -234q145 -66 145 -219q0 -126 -94 -202t-250 -76
q-231 0 -281.5 92.5t-54.5 153.5h156q4 -60 54 -91.5t110 -31.5q196 0 196 139q0 56 -38 86.5t-109 52.5l-148 49q-178 58 -203.5 130.5t-25.5 123.5q0 158 170 232q-73 38 -109.5 90t-36.5 122q0 134 94.5 210.5t250.5 76.5q229 0 280 -92t55 -153h-155q-4 59 -54.5 91
t-109.5 32z" />
    <glyph glyph-name="exclamdown.cap" horiz-adv-x="573" 
d="M180 0v393l58 623h98l57 -623v-393h-213zM180 1188v221h213v-221h-213z" />
    </font>
</defs>
</svg>
