<?xml version="1.0" standalone="no"?>
<!DOCTYPE svg PUBLIC "-//W3C//DTD SVG 1.1//EN" "http://www.w3.org/Graphics/SVG/1.1/DTD/svg11.dtd" >
<svg xmlns="http://www.w3.org/2000/svg">
<metadata>
Created by FontPrep 20130207 at Wed Sep 14 14:58:38 2016
 By Callum Flack
(c) Copyright (c) 2010. All rights reserved. Fakt is a design by Thomas Thiemich, published by OurType. www.ourtype.com
</metadata>
<defs>
<font id="84dc425620c8182a3c20181cd28d4fbb" horiz-adv-x='1024' >
  <font-face 
    font-family="FaktPro-SemiBold"
    font-weight="600"
    font-stretch="normal"
    units-per-em="2048"
    panose-1="2 0 0 0 0 0 0 0 0 0"
    ascent="1532"
    descent="-516"
    x-height="999"
    cap-height="1409"
    bbox="-360 -641 2513 2073"
    underline-thickness="0"
    underline-position="0"
    unicode-range="U+0020-FB04"
  />
<missing-glyph horiz-adv-x="1458" 
d="M475 377l258 264l258 -264l107 106l-260 267l260 266l-107 106l-258 -264l-258 264l-106 -106l258 -266l-258 -267zM0 0v1475h1458v-1475h-1458z" />
    <glyph glyph-name="ff" unicode="ff" horiz-adv-x="1339" 
d="M193 0v803h-189v196h189v119q0 199 91 290t294 91h106v-205h-63q-133 0 -148.5 -62.5t-15.5 -107.5v-125h377v119q0 199 91 290t294 91h141v-205h-98q-133 0 -148.5 -62.5t-15.5 -107.5v-125h229v-196h-229v-803h-264v803h-377v-803h-264z" />
    <glyph glyph-name="fi" unicode="fi" horiz-adv-x="1241" 
d="M825 1253v246h281v-246h-281zM834 0v803h-377v-803h-264v803h-189v196h189v119q0 199 91 290t294 91h106v-205h-63q-133 0 -148.5 -62.5t-15.5 -107.5v-125h641v-999h-264z" />
    <glyph glyph-name="fl" unicode="fl" horiz-adv-x="1241" 
d="M193 0v803h-189v196h189v119q0 199 91 290t294 91h520v-1499h-264v1294h-213q-133 0 -148.5 -62.5t-15.5 -107.5v-125h198v-196h-198v-803h-264z" />
    <glyph glyph-name="ffi" unicode="ffi" horiz-adv-x="1882" 
d="M1466 1253v246h279v-246h-279zM834 0v803h-377v-803h-264v803h-189v196h189v119q0 199 91 290t294 91h116v-205h-73q-133 0 -148.5 -62.5t-15.5 -107.5v-125h377v119q0 199 91 290t294 91h106v-205h-63q-133 0 -148.5 -62.5t-15.5 -107.5v-125h639v-999h-262v803h-377
v-803h-264z" />
    <glyph glyph-name="ffl" unicode="ffl" horiz-adv-x="1882" 
d="M834 0v803h-377v-803h-264v803h-189v196h189v119q0 199 91 290t294 91h106v-205h-63q-133 0 -148.5 -62.5t-15.5 -107.5v-125h377v119q0 199 91 290t294 91h518v-1499h-262v1294h-213q-133 0 -148.5 -62.5t-15.5 -107.5v-125h223v-196h-223v-803h-264z" />
    <glyph glyph-name="f_b" unicode="fb" horiz-adv-x="1949" 
d="M1098 500q0 -149 70 -236.5t181.5 -87.5t180.5 89.5t69 278t-97 234t-151 45.5q-111 0 -180 -82.5t-73 -226.5v-14zM1098 1499v-261q0 -260 -13 -382h9q82 168 327 168q194 0 322.5 -137t128.5 -380t-134 -387.5t-333 -144.5q-166 0 -228.5 63.5t-82.5 104.5h-9v-143
h-251v1294h-213q-133 0 -148.5 -62.5t-15.5 -107.5v-125h198v-196h-198v-803h-264v803h-189v196h189v119q0 199 91 290t294 91h520z" />
    <glyph glyph-name="f_h" unicode="fh" horiz-adv-x="1916" 
d="M1522 573q0 246 -197 246q-102 0 -164.5 -78.5t-62.5 -214.5v-526h-264v1294h-213q-133 0 -148.5 -62.5t-15.5 -107.5v-125h198v-196h-198v-803h-264v803h-189v196h189v119q0 199 91 290t294 91h520v-258q0 -258 -13 -385h9q39 80 118 124t174 44q183 0 290.5 -99
t107.5 -319v-606h-262v573z" />
    <glyph glyph-name="f_j" unicode="fj" horiz-adv-x="1241" 
d="M825 1253v246h281v-246h-281zM662 -246h53q67 0 93 37t26 115v897h-377v-803h-264v803h-189v196h189v119q0 199 91 290t294 91h106v-205h-63q-133 0 -148.5 -62.5t-15.5 -107.5v-125h641v-1112q0 -169 -79.5 -253.5t-270.5 -84.5h-86v205z" />
    <glyph glyph-name="f_k" unicode="fk" horiz-adv-x="1816" 
d="M834 0v1294h-213q-133 0 -148.5 -62.5t-15.5 -107.5v-125h198v-196h-198v-803h-264v803h-189v196h189v119q0 199 91 290t294 91h520v-913l372 413h299l-372 -399l411 -600h-305l-280 416l-125 -135v-281h-264z" />
    <glyph glyph-name="f_t" unicode="ft" horiz-adv-x="1384" 
d="M825 344v459h-368v-803h-264v803h-189v196h189v119q0 199 91 290t294 91h106v-205h-63q-133 0 -148.5 -62.5t-15.5 -107.5v-125h368v304h262v-304h248v-196h-248v-443q0 -80 31.5 -113.5t104.5 -33.5h112v-213h-159q-195 0 -273 78t-78 266z" />
    <glyph glyph-name="f_f_b" unicode="ffb" horiz-adv-x="2590" 
d="M1737 499.5q0 -73.5 18.5 -134t53 -102.5t80.5 -64.5t101.5 -22.5t101.5 23.5t80 67.5t51.5 105.5t17.5 135.5t-17.5 133t-51.5 99t-80 61.5t-101.5 21.5t-101.5 -22.5t-80.5 -64.5t-53 -102.5t-18.5 -134zM1737 1499v-272q0 -272 -11 -371h9q82 168 327 168
q194 0 322.5 -137t128.5 -380t-134 -387.5t-333 -144.5q-166 0 -228.5 63.5t-82.5 104.5h-9v-143h-251v1294h-213q-133 0 -148.5 -62.5t-15.5 -107.5v-125h223v-196h-223v-803h-264v803h-377v-803h-264v803h-189v196h189v119q0 199 91 290t294 91h106v-205h-63
q-133 0 -148.5 -62.5t-15.5 -107.5v-125h377v119q0 199 91 290t294 91h518z" />
    <glyph glyph-name="f_f_h" unicode="ffh" horiz-adv-x="2555" 
d="M2163 573q0 246 -197 246q-99 0 -164 -79t-65 -216v-524h-262v1294h-213q-133 0 -148.5 -62.5t-15.5 -107.5v-125h223v-196h-223v-803h-264v803h-377v-803h-264v803h-189v196h189v119q0 199 91 290t294 91h106v-205h-63q-133 0 -148.5 -62.5t-15.5 -107.5v-125h377v119
q0 199 91 290t294 91h518v-267q0 -268 -11 -376h9q82 168 307 168q270 0 326.5 -152.5t56.5 -265.5v-606h-262v573z" />
    <glyph glyph-name="f_f_j" unicode="ffj" horiz-adv-x="1882" 
d="M1466 1253v246h279v-246h-279zM834 0v803h-377v-803h-264v803h-189v196h189v119q0 199 91 290t294 91h116v-205h-73q-133 0 -148.5 -62.5t-15.5 -107.5v-125h377v119q0 199 91 290t294 91h106v-205h-63q-133 0 -148.5 -62.5t-15.5 -107.5v-125h639v-1112q0 -168 -78 -253
t-273 -85h-83v205h53q67 0 93 37t26 115v897h-377v-803h-264z" />
    <glyph glyph-name="f_f_k" unicode="ffk" horiz-adv-x="2455" 
d="M834 0v803h-377v-803h-264v803h-189v196h189v119q0 199 91 290t294 91h106v-205h-63q-133 0 -148.5 -62.5t-15.5 -107.5v-125h377v119q0 199 91 290t294 91h518v-915l374 415h299l-372 -399l409 -600h-303l-280 416l-127 -137v-279h-262v1294h-213q-133 0 -148.5 -62.5
t-15.5 -107.5v-125h223v-196h-223v-803h-264z" />
    <glyph glyph-name="f_f_t" unicode="fft" horiz-adv-x="2025" 
d="M834 0v803h-377v-803h-264v803h-189v196h189v119q0 199 91 290t294 91h106v-205h-63q-133 0 -148.5 -62.5t-15.5 -107.5v-125h377v119q0 199 91 290t294 91h106v-205h-63q-133 0 -148.5 -62.5t-15.5 -107.5v-125h368v304h263v-304h247v-196h-247v-443q0 -81 31 -114
t104 -33h112v-213h-159q-195 0 -273 78t-78 266v459h-368v-803h-264z" />
    <glyph glyph-name=".notdef" horiz-adv-x="1458" 
d="M475 377l258 264l258 -264l107 106l-260 267l260 266l-107 106l-258 -264l-258 264l-106 -106l258 -266l-258 -267zM0 0v1475h1458v-1475h-1458z" />
    <glyph glyph-name=".null" horiz-adv-x="0" 
 />
    <glyph glyph-name="nonmarkingreturn" horiz-adv-x="681" 
 />
    <glyph glyph-name="space" unicode=" " horiz-adv-x="450" 
 />
    <glyph glyph-name="exclam" unicode="!" horiz-adv-x="587" 
d="M158 0v270h272v-270h-272zM150 1409h288v-385l-67 -604h-152l-69 604v385z" />
    <glyph glyph-name="quotedbl" unicode="&#x22;" horiz-adv-x="882" 
d="M522 1409h240v-203l-37 -372h-166l-37 372v203zM119 1409h241v-203l-36 -372h-168l-37 372v203z" />
    <glyph glyph-name="numbersign" unicode="#" horiz-adv-x="1292" 
d="M555 907l-70 -405h254l70 405h-254zM127 907v180h248l55 322h213l-55 -322h254l55 322h213l-55 -322h202v-180h-235l-70 -405h213l-4 -180h-241l-56 -322h-213l56 322h-254l-56 -322h-213l56 322h-207v180h239l70 405h-215z" />
    <glyph glyph-name="dollar" unicode="$" horiz-adv-x="1163" 
d="M574 172q110 0 173.5 55t63.5 161t-80 139.5t-135 50.5l-170 49q-224 66 -277 185.5t-53 204.5q0 166 101.5 273t271.5 135v222h209v-224q159 -24 259 -125.5t110 -248.5h-261q-17 135 -94.5 159.5t-119.5 24.5q-87 0 -147 -46.5t-60 -131.5q0 -86 44.5 -125t153.5 -72
l170 -51q260 -77 303 -196t43 -203q0 -172 -108 -286t-293 -138v-230h-209v230q-283 37 -341 183t-60 234h260q6 -163 100 -196t146 -33z" />
    <glyph glyph-name="percent" unicode="%" horiz-adv-x="1660" 
d="M248 1057q0 -211 127 -211q95 0 112 81t17 130q0 211 -128 211t-128 -211zM1413 352q0 211 -111 211t-128 -81t-17 -156t33.5 -130t128 -55t94.5 211zM391 -25l713 1459h166l-713 -1459h-166zM1286 -16q-82 0 -144.5 27.5t-103.5 77.5t-61.5 116.5t-20.5 146.5
t20.5 146.5t61.5 117t103.5 78t144.5 27.5t144.5 -27.5t102.5 -78t60.5 -117t20.5 -146.5t-20.5 -146.5t-60.5 -116.5t-102.5 -77.5t-144.5 -27.5zM375 688q-82 0 -144.5 27.5t-103.5 78t-61.5 117t-20.5 146.5t20.5 146.5t61.5 116.5t103.5 77.5t144.5 27.5t144.5 -27.5
t103.5 -77.5t61.5 -116.5t20.5 -146.5t-20.5 -146.5t-61.5 -117t-103.5 -78t-144.5 -27.5z" />
    <glyph glyph-name="ampersand" unicode="&#x26;" horiz-adv-x="1492" 
d="M606 868q110 52 169 104t59 122t-46.5 114.5t-130.5 44.5q-130 0 -155 -64t-25 -107q0 -85 129 -214zM634 172q177 0 281 76l-389 381q-92 -54 -138 -107t-46 -118q0 -64 23.5 -105t87 -84t181.5 -43zM1067 98q-174 -123 -433 -123q-260 0 -407 107t-147 296t122 272
t189 118q-88 92 -121.5 161t-33.5 146q0 78 26.5 140.5t80.5 112.5t134 78t228.5 28t262 -89.5t113.5 -238.5q0 -185 -131 -262.5t-207 -112.5l312 -309q47 106 47 254v29h233v-41q0 -222 -116 -404l262 -260h-314z" />
    <glyph glyph-name="quotesingle" unicode="'" horiz-adv-x="479" 
d="M119 1409h241v-203l-36 -372h-168l-37 372v203z" />
    <glyph glyph-name="parenleft" unicode="(" horiz-adv-x="634" 
d="M31 600.5q0 223.5 98.5 481t237.5 442.5h239q-113 -145 -220 -422t-107 -566t105.5 -564.5t221.5 -438.5h-239q-224 297 -280 570.5t-56 497z" />
    <glyph glyph-name="parenright" unicode=")" horiz-adv-x="634" 
d="M248.5 1102q-107.5 276 -219.5 422h239q227 -307 281.5 -571.5t54.5 -490t-102.5 -492t-233.5 -437.5h-239q116 163 221.5 438.5t105.5 565t-107.5 565.5z" />
    <glyph glyph-name="asterisk" unicode="*" horiz-adv-x="964" 
d="M383 1425h195l-31 -251l227 108l62 -186l-246 -49l170 -181l-158 -114l-121 219l-121 -219l-157 112l168 185l-244 47l59 186l228 -104z" />
    <glyph glyph-name="plus" unicode="+" horiz-adv-x="1163" 
d="M119 420v205h354v358h217v-358h354v-205h-354v-359h-217v359h-354z" />
    <glyph glyph-name="comma" unicode="," horiz-adv-x="577" 
d="M141 0v287h297v-269l-112 -364h-129l71 346h-127z" />
    <glyph glyph-name="hyphen" unicode="-" horiz-adv-x="811" 
d="M109 403v226h593v-226h-593z" />
    <glyph glyph-name="period" unicode="." horiz-adv-x="577" 
d="M141 0v287h297v-287h-297z" />
    <glyph glyph-name="slash" unicode="/" horiz-adv-x="872" 
d="M8 -25l631 1459h223l-631 -1459h-223z" />
    <glyph glyph-name="zero" unicode="0" horiz-adv-x="1163" 
d="M581.5 193q243.5 0 243.5 512q1 512 -243 512t-244 -512t243.5 -512zM581.5 -25q-135.5 0 -233.5 54.5t-159.5 154t-91 231.5t-29.5 289.5t29.5 289.5t91 231.5t159.5 154t233.5 54.5t233.5 -54.5t159.5 -154t91.5 -231.5t30 -289.5t-30 -289.5t-91.5 -231.5t-159.5 -154
t-233.5 -54.5z" />
    <glyph glyph-name="one" unicode="1" horiz-adv-x="1163" 
d="M754 1409v-1196h317v-213h-917v213h338v872l-275 -186l-108 186l473 324h172z" />
    <glyph glyph-name="two" unicode="2" horiz-adv-x="1163" 
d="M739.5 1163.5q-53.5 57.5 -157.5 57.5q-153 0 -186.5 -91.5t-35.5 -150.5h-256q17 345 202.5 400t284.5 55q206 0 337 -109.5t131 -285.5t-73 -271.5t-226 -192.5l-164 -102q-158 -101 -178.5 -163t-24.5 -97h670v-213h-971q8 245 82.5 389t247.5 252l162 102
q105 65 157 122.5t52 149.5q0 91 -53.5 148.5z" />
    <glyph glyph-name="three" unicode="3" horiz-adv-x="1163" 
d="M76 426h258q0 -184 94 -217t146 -33q109 0 174 59t65 161t-68 164.5t-172 62.5h-110v208h110q88 0 148.5 57t60.5 148t-60.5 144t-149.5 53t-148 -56t-59 -161h-240q0 193 125 305.5t327 112.5t329.5 -106t127.5 -272t-82 -234t-123 -85v-8q112 -33 181 -128t69 -206
q0 -206 -142.5 -313t-366.5 -107q-225 0 -359.5 110.5t-134.5 340.5z" />
    <glyph glyph-name="four" unicode="4" horiz-adv-x="1163" 
d="M672 520v512l-365 -512h365zM51 307v168l660 934h223v-889h178v-213h-178v-307h-262v307h-621z" />
    <glyph glyph-name="five" unicode="5" horiz-adv-x="1163" 
d="M625 901q201 0 324.5 -119.5t123.5 -339.5t-142 -343.5t-359 -123.5t-344.5 108t-143.5 294h258q20 -133 100 -165t130 -32q106 0 171.5 70.5t65.5 187.5t-63.5 187.5t-170.5 70.5q-72 0 -120 -33t-90 -94l-240 27l45 813h825v-217h-594l-22 -367h10q86 76 236 76z" />
    <glyph glyph-name="six" unicode="6" horiz-adv-x="1163" 
d="M610 696q-49 0 -93 -18.5t-75.5 -52t-49 -80.5t-17.5 -104.5t16.5 -105.5t48 -83t73.5 -53.5t117.5 -18.5t141.5 70t66 192q0 173 -89.5 213.5t-138.5 40.5zM623 1229q-109 0 -184 -111.5t-87 -359.5q40 65 123.5 104t178.5 39q195 0 321.5 -120.5t126.5 -335.5
q0 -216 -143.5 -343t-348.5 -127q-379 0 -454.5 254.5t-75.5 450.5q0 385 153.5 569.5t393.5 184.5q200 0 310.5 -100t131.5 -277h-256q-28 172 -190 172z" />
    <glyph glyph-name="seven" unicode="7" horiz-adv-x="1163" 
d="M92 1182v227h995v-162l-567 -1247h-270l555 1182h-713z" />
    <glyph glyph-name="eight" unicode="8" horiz-adv-x="1163" 
d="M605.5 831q68.5 0 129 56.5t60.5 147.5t-59.5 146.5t-153 55.5t-153.5 -54.5t-60 -144.5q0 -145 84 -176t152.5 -31zM338 397q0 -51 18.5 -93t51 -70.5t76.5 -43t125 -14.5t148.5 59t67.5 161t-68 164.5t-205 62.5t-175.5 -87.5t-38.5 -138.5zM72 364q0 141 69 237
t181 128v8q-87 28 -146 116.5t-59 184.5t33.5 168t95 123t147.5 78t242 27t284 -106t128 -281q0 -103 -57.5 -191t-147.5 -119v-8q110 -32 180 -127t70 -206t-37 -187t-104.5 -128t-161 -79t-208 -27t-207.5 27t-161 79t-104.5 127.5t-36.5 155.5z" />
    <glyph glyph-name="nine" unicode="9" horiz-adv-x="1163" 
d="M549 713q103 0 169 71.5t66 188.5t-65.5 186.5t-164 69.5t-165.5 -69t-67 -193q0 -174 89 -214t138 -40zM480 508q-68 0 -148 28.5t-176.5 120.5t-96.5 308q0 217 142.5 343t347.5 126q379 0 454.5 -254t75.5 -452q0 -394 -143.5 -573.5t-390.5 -179.5
q-304 0 -373.5 146.5t-79.5 230.5h254q28 -172 203 -172q120 0 185 109.5t73 361.5q-60 -99 -159.5 -121t-167.5 -22z" />
    <glyph glyph-name="colon" unicode=":" horiz-adv-x="577" 
d="M141 0v287h297v-287h-297zM141 713v286h297v-286h-297z" />
    <glyph glyph-name="semicolon" unicode=";" horiz-adv-x="577" 
d="M141 0v287h297v-269l-112 -364h-129l71 346h-127zM141 713v286h297v-286h-297z" />
    <glyph glyph-name="less" unicode="&#x3c;" horiz-adv-x="1163" 
d="M147 416v213l869 360v-223l-625 -242l625 -243v-230z" />
    <glyph glyph-name="equal" unicode="=" horiz-adv-x="1163" 
d="M115 195v204h934v-204h-934zM115 641v205h934v-205h-934z" />
    <glyph glyph-name="greater" unicode="&#x3e;" horiz-adv-x="1163" 
d="M1016 625v-213l-869 -361v223l623 240l-623 246v229z" />
    <glyph glyph-name="question" unicode="?" horiz-adv-x="1058" 
d="M379 0v270h272v-270h-272zM391 424v49q0 125 47 201t141.5 149.5t129 109.5t34.5 90q0 95 -53.5 146.5t-131.5 51.5q-136 0 -193.5 -68.5t-57.5 -169.5h-252q0 190 121.5 320.5t347.5 130.5t355 -103t129 -280q0 -115 -48.5 -184.5t-142.5 -140.5t-136 -117t-42 -126v-59
h-248z" />
    <glyph glyph-name="at" unicode="@" horiz-adv-x="2117" 
d="M1235 389v103q-15 -25 -47.5 -34t-50.5 -14l-158 -24q-143 -22 -143 -137q0 -59 42 -95t101 -36q110 0 183 62.5t73 174.5zM578 262q0 191 124.5 240t212.5 63l193 29q75 12 101 27t26 54q0 76 -44.5 120.5t-178 44.5t-150.5 -164h-248q12 166 128 257t311 91
q446 0 446 -381v-305q0 -209 133 -209q89 0 149 106.5t60 296.5q0 351 -216 549.5t-560 198.5q-178 0 -324.5 -62.5t-305.5 -234t-159 -521.5q0 -351 208 -563t517 -212q310 0 451 141h231q-219 -295 -665 -295q-399 0 -590.5 190.5t-260.5 363.5t-69 376t69 379t197 309
t307 208t388 75q423 0 691.5 -243.5t268.5 -633.5q0 -289 -123.5 -433t-312.5 -144q-238 0 -303 155q-108 -160 -365 -160q-163 0 -250 79t-87 208z" />
    <glyph glyph-name="A" unicode="A" horiz-adv-x="1404" 
d="M705 1149h-9l-215 -612h432zM16 0l525 1409h323l525 -1409h-291l-109 315h-583l-111 -315h-279z" />
    <glyph glyph-name="B" unicode="B" horiz-adv-x="1435" 
d="M791 1192h-355v-363h352q108 0 166 52t58 141q0 170 -221 170zM829 625h-393v-408h391q177 0 207.5 82t30.5 128q0 93 -61 145.5t-175 52.5zM1286 1058q0 -244 -221 -308v-9q200 -38 239 -149.5t39 -187.5t-30.5 -153t-123.5 -164t-323 -87h-706v1409h665
q347 0 404 -140.5t57 -210.5z" />
    <glyph glyph-name="C" unicode="C" horiz-adv-x="1499" 
d="M788 -25q-318 0 -508 204.5t-190 523.5t193.5 525t509.5 206q258 0 421 -132t203 -358h-274q-67 254 -350 254q-191 0 -305.5 -135t-114.5 -355t116 -358.5t304 -138.5q280 0 350 254h274q-40 -227 -204.5 -358.5t-424.5 -131.5z" />
    <glyph glyph-name="D" unicode="D" horiz-adv-x="1505" 
d="M440 1182v-955h209q249 0 366.5 134.5t117.5 343t-117.5 343t-366.5 134.5h-209zM166 0v1409h502q361 0 554 -195t193 -509.5t-193 -509.5t-554 -195h-502z" />
    <glyph glyph-name="E" unicode="E" horiz-adv-x="1310" 
d="M166 0v1409h1022v-227h-748v-355h602v-217h-602v-383h766v-227h-1040z" />
    <glyph glyph-name="F" unicode="F" horiz-adv-x="1236" 
d="M166 0v1409h997v-227h-723v-416h578v-225h-578v-541h-274z" />
    <glyph glyph-name="G" unicode="G" horiz-adv-x="1587" 
d="M1229 170q-145 -195 -448 -195t-497 206t-194 523q0 316 197.5 523t525.5 207q253 0 421 -126t208 -329h-275q-47 152 -163.5 185.5t-202.5 33.5t-168 -36t-140.5 -101.5t-89 -156.5t-30.5 -256.5t121 -301t301 -135.5t289.5 88t109.5 242v10h-381v209h625v-760h-174
l-31 170h-4z" />
    <glyph glyph-name="H" unicode="H" horiz-adv-x="1544" 
d="M166 0v1409h274v-580h664v580h274v-1409h-274v596h-664v-596h-274z" />
    <glyph glyph-name="I" unicode="I" horiz-adv-x="606" 
d="M166 0v1409h274v-1409h-274z" />
    <glyph glyph-name="J" unicode="J" horiz-adv-x="1138" 
d="M604 203q115 0 115 237v969h276v-967q0 -247 -123 -357t-337 -110t-337.5 108.5t-123.5 340.5v61h270v-55q0 -171 72.5 -199t187.5 -28z" />
    <glyph glyph-name="K" unicode="K" horiz-adv-x="1425" 
d="M166 0v1409h274v-668l619 668h317l-571 -606l604 -803h-315l-465 616l-189 -200v-416h-274z" />
    <glyph glyph-name="L" unicode="L" horiz-adv-x="1185" 
d="M166 0v1409h274v-1178h674v-231h-948z" />
    <glyph glyph-name="M" unicode="M" horiz-adv-x="1918" 
d="M166 0v1409h369l426 -1034h6l426 1034h360v-1409h-274l20 1032h-8l-428 -1032h-207l-428 1018h-8l20 -1018h-274z" />
    <glyph glyph-name="N" unicode="N" horiz-adv-x="1560" 
d="M166 0v1409h248l706 -942h8l-8 942h275v-1409h-244l-711 942h-8l8 -942h-274z" />
    <glyph glyph-name="O" unicode="O" horiz-adv-x="1615" 
d="M373 704.5q0 -106.5 30.5 -197.5t89 -157.5t139.5 -102.5t177 -36t176 37t138.5 103.5t89 156.5t30.5 196.5t-30.5 196.5t-89 156.5t-138.5 103.5t-176 37t-177 -36t-139.5 -102.5t-89 -157.5t-30.5 -197.5zM90 704.5q0 320.5 198.5 525t518.5 204.5q321 0 520 -206.5
t199 -523t-199 -523t-520 -206.5t-519 204.5t-198 525z" />
    <glyph glyph-name="P" unicode="P" horiz-adv-x="1382" 
d="M440 1188v-506h308q194 0 231 100.5t37 156.5q0 114 -69.5 181.5t-198.5 67.5h-308zM166 0v1409h606q246 0 384 -126.5t138 -339.5t-137.5 -347.5t-384.5 -134.5h-332v-461h-274z" />
    <glyph glyph-name="Q" unicode="Q" horiz-adv-x="1622" 
d="M373 704.5q0 -106.5 30.5 -197.5t89 -157.5t139.5 -102.5t177 -36t176 37t138.5 103.5t89 156.5t30.5 196.5t-30.5 196.5t-89 156.5t-138.5 103.5t-176 37t-177 -36t-139.5 -102.5t-89 -157.5t-30.5 -197.5zM807 -25q-158 0 -292 54.5t-229.5 153t-145.5 232.5t-50 372
t198.5 442.5t518.5 204.5q321 0 520 -206.5t199 -526.5t-207 -527l260 -270l-172 -170l-287 303q-155 -62 -313 -62z" />
    <glyph glyph-name="R" unicode="R" horiz-adv-x="1421" 
d="M758 1188h-318v-461h318q184 0 219 94.5t35 146.5q0 104 -67.5 162t-186.5 58zM166 0v1409h604q251 0 385.5 -114.5t134.5 -336.5t-112.5 -305.5t-184.5 -107.5l350 -545h-299l-323 512h-281v-512h-274z" />
    <glyph glyph-name="S" unicode="S" horiz-adv-x="1368" 
d="M102 401h269q0 -102 83.5 -161.5t223.5 -59.5q141 0 224 56t83 150q0 95 -72.5 134t-207.5 66l-95 16q-106 18 -295.5 72.5t-189.5 335.5q0 183 152 303.5t398 120.5q247 0 396.5 -110t149.5 -296h-269q0 94 -76.5 147.5t-198.5 53.5t-200 -50t-78 -157t118 -137.5
t192 -42.5l94 -17q214 -39 338.5 -123.5t124.5 -283.5t-157.5 -321t-432.5 -122t-424.5 113t-149.5 313z" />
    <glyph glyph-name="T" unicode="T" horiz-adv-x="1261" 
d="M16 1180v229h1229v-229h-477v-1180h-274v1180h-478z" />
    <glyph glyph-name="U" unicode="U" horiz-adv-x="1492" 
d="M1354 565q0 -590 -607.5 -590t-607.5 590v844h277v-840q0 -358 332 -358q245 0 287 136t42 222v840h277v-844z" />
    <glyph glyph-name="V" unicode="V" horiz-adv-x="1372" 
d="M522 0l-506 1409h291l377 -1149h8l385 1149h279l-510 -1409h-324z" />
    <glyph glyph-name="W" unicode="W" horiz-adv-x="2002" 
d="M383 0l-363 1409h295l252 -1114h8l289 1114h285l295 -1114h8l244 1114h286l-356 -1409h-340l-280 1061h-9l-276 -1061h-338z" />
    <glyph glyph-name="X" unicode="X" horiz-adv-x="1341" 
d="M16 0l494 719l-477 690h315l324 -485l317 485h303l-469 -686l502 -723h-315l-348 520l-343 -520h-303z" />
    <glyph glyph-name="Y" unicode="Y" horiz-adv-x="1361" 
d="M539 0v541l-519 868h312l346 -606h8l365 606h290l-526 -860v-549h-276z" />
    <glyph glyph-name="Z" unicode="Z" horiz-adv-x="1253" 
d="M100 1184v225h1082v-160l-752 -1024h748v-225h-1108v160l753 1024h-723z" />
    <glyph glyph-name="bracketleft" unicode="[" horiz-adv-x="714" 
d="M393 -262h291v-205h-530v1991h530v-205h-291v-1581z" />
    <glyph glyph-name="backslash" unicode="\" horiz-adv-x="872" 
d="M639 -25l-631 1459h223l631 -1459h-223z" />
    <glyph glyph-name="bracketright" unicode="]" horiz-adv-x="714" 
d="M29 -262h293v1581h-293v205h530v-1991h-530v205z" />
    <glyph glyph-name="asciicircum" unicode="^" horiz-adv-x="1163" 
d="M684 1409v-2l8 2l375 -688h-238l-251 481l-252 -481h-232l373 688h217z" />
    <glyph glyph-name="underscore" unicode="_" horiz-adv-x="1024" 
d="M0 -147h1024v-211h-1024v211z" />
    <glyph glyph-name="grave" unicode="`" horiz-adv-x="1200" 
d="M512 1163l-303 336h276l207 -336h-180z" />
    <glyph glyph-name="a" unicode="a" horiz-adv-x="1140" 
d="M506 160q99 0 169 62t70 181v89q-15 -25 -47 -34t-51 -14l-153 -24q-148 -23 -148 -135q0 -125 160 -125zM86 288q0 161 126 211t214 64l192 29q78 11 102.5 27.5t24.5 52.5q0 75 -44.5 121.5t-178 46.5t-151.5 -164h-246q12 166 131.5 257t310.5 91q329 0 386 -137
t57 -228v-659h-252v119h-13q-95 -144 -319 -144q-163 0 -251.5 76t-88.5 237z" />
    <glyph glyph-name="b" unicode="b" horiz-adv-x="1259" 
d="M408 500q0 -229 99 -276.5t154.5 -47.5t101.5 23.5t78.5 67.5t51 105.5t18.5 135.5t-18.5 133t-51 99t-78.5 61.5t-127.5 21.5t-152.5 -81t-75 -228v-14zM408 1499v-249q0 -248 -13 -394h8q82 168 328 168q196 0 323.5 -135.5t127.5 -380t-134 -389t-333 -144.5
q-164 0 -227.5 63.5t-84.5 104.5h-8v-143h-252v1499h265z" />
    <glyph glyph-name="c" unicode="c" horiz-adv-x="1132" 
d="M216.5 881.5q142.5 142.5 364.5 142.5t347.5 -104.5t142.5 -268.5h-260q-29 172 -217 172q-108 0 -178 -88.5t-70 -235t70 -235t178 -88.5q141 0 176 68.5t41 103.5h260q-17 -166 -142 -269.5t-350 -103.5t-365 137t-140 382t142.5 387.5z" />
    <glyph glyph-name="d" unicode="d" horiz-adv-x="1259" 
d="M350 491.5q0 -151.5 70 -233.5t178 -82t179 83t75 224v17q0 148 -70 235.5t-181.5 87.5t-181 -90t-69.5 -241.5zM852 1012v487h264v-1499h-252v143h-8q-82 -168 -328 -168q-194 0 -322 136t-128 380t134 388.5t333 144.5q229 0 311 -168h8q-12 135 -12 156z" />
    <glyph glyph-name="e" unicode="e" horiz-adv-x="1155" 
d="M813 616q-24 218 -221 218q-188 0 -240 -218h461zM600 168q170 0 215 135h256q-25 -140 -155 -234t-320 -94q-247 0 -384.5 134t-137.5 380q0 245 143 390t372.5 145t360.5 -131t131 -367v-73h-737q12 -203 106.5 -244t149.5 -41z" />
    <glyph glyph-name="f" unicode="f" horiz-adv-x="698" 
d="M193 0v803h-189v196h189v119q0 199 91 290t294 91h141v-205h-98q-133 0 -148.5 -62.5t-15.5 -107.5v-125h229v-196h-229v-803h-264z" />
    <glyph glyph-name="g" unicode="g" horiz-adv-x="1259" 
d="M350 455q0 -188 97.5 -233.5t181 -45.5t153.5 87.5t70 236.5v14q-4 142 -75 225.5t-179 83.5q-109 0 -178.5 -90t-69.5 -278zM545 1024q229 0 311 -168h8v143h252v-946q0 -520 -530 -520q-336 0 -407 129t-73 215h248q4 -70 66.5 -115t148.5 -45q158 0 226.5 81.5
t68.5 254.5v90h-8q-82 -168 -328 -168q-194 0 -322 136t-128 380t134 388.5t333 144.5z" />
    <glyph glyph-name="h" unicode="h" horiz-adv-x="1226" 
d="M408 1499v-245q0 -245 -13 -398h8q39 80 118.5 124t174.5 44q186 0 293 -100.5t107 -317.5v-606h-265v573q0 192 -74.5 219t-121.5 27q-99 0 -163 -77.5t-64 -213.5v-528h-265v1499h265z" />
    <glyph glyph-name="i" unicode="i" horiz-adv-x="550" 
d="M143 0v999h265v-999h-265zM135 1253v246h281v-246h-281z" />
    <glyph glyph-name="j" unicode="j" horiz-adv-x="550" 
d="M143 -94v1093h265v-1112q0 -169 -79.5 -253.5t-271.5 -84.5h-84v205h54q92 0 104 56.5t12 95.5zM135 1253v246h281v-246h-281z" />
    <glyph glyph-name="k" unicode="k" horiz-adv-x="1126" 
d="M143 0v1499h265v-915l374 415h299l-372 -399l409 -600h-303l-280 414l-127 -135v-279h-265z" />
    <glyph glyph-name="l" unicode="l" horiz-adv-x="550" 
d="M143 0v1499h265v-1499h-265z" />
    <glyph glyph-name="m" unicode="m" horiz-adv-x="1863" 
d="M1733 614v-614h-265v586q0 184 -67.5 208.5t-112.5 24.5q-93 0 -156 -77.5t-63 -213.5v-528h-262v586q0 182 -67.5 207.5t-112.5 25.5q-92 0 -155.5 -75t-63.5 -214v-530h-265v999h252v-143h8q39 80 118.5 124t160.5 44q268 0 350 -195q99 195 347 195t301 -149.5
t53 -260.5z" />
    <glyph glyph-name="n" unicode="n" horiz-adv-x="1226" 
d="M143 0v999h252v-143h8q39 80 118.5 124t174.5 44q186 0 293 -100.5t107 -317.5v-606h-265v573q0 192 -74.5 219t-121.5 27q-100 0 -163.5 -80t-63.5 -213v-526h-265z" />
    <glyph glyph-name="o" unicode="o" horiz-adv-x="1214" 
d="M795.5 264.5q68.5 88.5 68.5 236.5q0 149 -68 234.5t-186.5 85.5t-189 -87.5t-70.5 -235t70.5 -235t188.5 -87.5t186.5 88.5zM226 882q148 142 387 142q238 0 381 -141t143 -383t-149 -383.5t-386 -141.5q-238 0 -381 141t-143 383q0 241 148 383z" />
    <glyph glyph-name="p" unicode="p" horiz-adv-x="1259" 
d="M911 508q0 74 -18.5 133t-51 99t-78.5 61.5t-127.5 21.5t-152.5 -81t-75 -228v-14q0 -229 99 -276.5t154.5 -47.5t101.5 23.5t78.5 67.5t51 105.5t18.5 135.5zM408 -22v-429h-265v1450h252v-143h8q82 168 328 168q196 0 323.5 -135.5t127.5 -380t-134 -389t-333 -144.5
q-164 0 -227.5 63.5t-84.5 104.5h-8q13 -146 13 -165z" />
    <glyph glyph-name="q" unicode="q" horiz-adv-x="1255" 
d="M350 491.5q0 -73.5 17.5 -133t51.5 -99.5t80 -61.5t101 -21.5t101.5 22.5t80 64.5t52 102.5t18.5 134t-18.5 134t-52 102.5t-80 64.5t-101.5 22.5t-101 -23.5t-80 -67.5t-51.5 -105.5t-17.5 -135zM545 1024q229 0 311 -168h8v143h252v-1450h-264v229q0 230 12 365h-8
q-82 -168 -328 -168q-194 0 -322 136t-128 380t134 388.5t333 144.5z" />
    <glyph glyph-name="r" unicode="r" horiz-adv-x="808" 
d="M631 788q-111 0 -167 -85.5t-56 -225.5v-477h-265v999h252v-151h4q55 125 137 150.5t114 25.5q90 0 155 -41l-53 -227q-64 32 -121 32z" />
    <glyph glyph-name="s" unicode="s" horiz-adv-x="1079" 
d="M526 150q211 0 211 124q0 52 -38.5 77t-108.5 36l-182 29q-312 45 -312 282q0 152 123 239t318 87q309 0 372.5 -113.5t63.5 -189.5h-244q0 129 -162.5 129t-189.5 -45t-27 -71q0 -47 36 -74.5t122 -38.5l180 -29q223 -33 267 -123t44 -166q0 -159 -128 -243.5
t-339 -84.5t-336.5 77.5t-125.5 234.5h247q0 -105 84 -121t125 -16z" />
    <glyph glyph-name="t" unicode="t" horiz-adv-x="739" 
d="M180 344v459h-188v196h188v304h262v-304h248v-196h-248v-443q0 -80 31 -113.5t109 -33.5h108v-213h-160q-194 0 -272 78t-78 266z" />
    <glyph glyph-name="u" unicode="u" horiz-adv-x="1218" 
d="M391 426q0 -246 195 -246q100 0 162.5 78t62.5 213v528h262v-999h-250v143h-8q-82 -168 -303 -168q-269 0 -327 152.5t-58 265.5v606h264v-573z" />
    <glyph glyph-name="v" unicode="v" horiz-adv-x="1060" 
d="M377 0l-369 999h287l242 -739h8l239 739h269l-359 -999h-317z" />
    <glyph glyph-name="w" unicode="w" horiz-adv-x="1589" 
d="M303 0l-291 999h264l183 -739h8l203 739h258l202 -739h9l182 739h256l-291 -999h-297l-190 729h-8l-193 -729h-295z" />
    <glyph glyph-name="x" unicode="x" horiz-adv-x="1032" 
d="M16 0l355 504l-346 495h297l208 -317l203 317h275l-349 -493l357 -506h-295l-219 328l-209 -328h-277z" />
    <glyph glyph-name="y" unicode="y" horiz-adv-x="1060" 
d="M248 -467h-121v209h61q136 0 179 68.5t59 117.5l23 72h-72l-369 999h287l242 -739h8l239 739h269l-400 -1122q-119 -344 -405 -344z" />
    <glyph glyph-name="z" unicode="z" horiz-adv-x="980" 
d="M66 799v200h841v-153l-504 -645h512v-201h-845v143l512 656h-516z" />
    <glyph glyph-name="braceleft" unicode="{" horiz-adv-x="786" 
d="M256 -137v307q0 155 -46.5 212.5t-182.5 57.5v193q135 0 182 57t47 213v291q0 174 82 252t278 78h140v-199h-105q-131 0 -144 -58.5t-13 -105.5v-350q0 -167 -74 -211.5t-131 -58.5v-9q159 -39 182 -126t23 -144v-366q0 -95 34.5 -129.5t122.5 -34.5h105v-199h-140
q-196 0 -278 78t-82 252z" />
    <glyph glyph-name="bar" unicode="|" horiz-adv-x="583" 
d="M180 -492v2048h223v-2048h-223z" />
    <glyph glyph-name="braceright" unicode="}" horiz-adv-x="786" 
d="M29 -268h106q90 0 123 35.5t33 128.5v366q0 167 73.5 211.5t131.5 58.5v9q-161 39 -183 126t-22 144v350q0 93 -33 128.5t-123 35.5h-106v199h141q197 0 278.5 -77.5t81.5 -252.5v-291q0 -154 46.5 -212t183.5 -58v-193q-138 0 -184 -58.5t-46 -211.5v-307
q0 -175 -81.5 -252.5t-278.5 -77.5h-141v199z" />
    <glyph glyph-name="asciitilde" unicode="~" horiz-adv-x="1163" 
d="M391 514q-98 0 -98 -156h-193q0 177 79.5 267t201.5 90q63 0 115.5 -19.5t118 -58.5t94 -53.5t59.5 -14.5q106 0 106 154h193q0 -176 -119 -310t-290 -32t-200.5 117.5t-66.5 15.5z" />
    <glyph glyph-name="uni00A0" unicode="&#xa0;" horiz-adv-x="450" 
 />
    <glyph glyph-name="exclamdown" unicode="&#xa1;" horiz-adv-x="587" 
d="M434 -410h-280v385l65 605h152l63 -605v-385zM158 729v270h272v-270h-272z" />
    <glyph glyph-name="cent" unicode="&#xa2;" horiz-adv-x="1163" 
d="M502 -25v222q-192 28 -303 166t-111 346t114.5 348.5t307.5 171.5v205h209v-205q244 -42 302 -169.5t66 -195.5h-260q-29 172 -217 172q-110 0 -180 -88.5t-70 -235t70 -235t180 -88.5q144 0 177.5 68.5t39.5 103.5h260q-16 -141 -111.5 -241.5t-264.5 -124.5v-220h-209z
" />
    <glyph glyph-name="sterling" unicode="&#xa3;" horiz-adv-x="1163" 
d="M262 283q-30 0 -46.5 -7.5t-29 -19.5t-18.5 -28.5t-6 -46.5t24.5 -53.5t56.5 -23.5q52 0 78.5 34.5t47.5 105.5q-77 39 -107 39zM385 440q0 96 -41 211h-221v152h162q-62 164 -62 258q0 176 111.5 274.5t300.5 98.5q366 0 391 -361h-242q-12 137 -66 156.5t-87 19.5
q-68 0 -110 -42t-42 -134t72 -270h313v-152h-262q27 -104 27 -194t-31 -187q109 -76 147.5 -87t63.5 -11q113 0 121 186h200q-9 -181 -76.5 -282t-222.5 -101q-82 0 -154.5 38t-152.5 106q-100 -144 -272 -144q-110 0 -179 56t-69 159t71 166.5t183 63.5q60 0 127 -25v45z
" />
    <glyph glyph-name="currency" unicode="&#xa4;" horiz-adv-x="1163" 
d="M581.5 526q36.5 0 67.5 12.5t54.5 36t36 56.5t12.5 73.5t-12.5 73.5t-36 56.5t-54.5 36t-67.5 12.5t-67.5 -12.5t-54.5 -36t-35.5 -56.5t-12 -73.5t12 -73.5t35.5 -56.5t54.5 -36t67.5 -12.5zM233 707.5q0 93.5 56 175.5l-121 123l117 114l123 -125q81 45 175 45t171 -45
l125 125l116 -114l-121 -123q56 -84 56 -176.5t-56 -182.5l123 -123l-116 -114l-127 127q-81 -45 -177 -45t-169 45l-125 -127l-117 114l121 123q-54 90 -54 183.5z" />
    <glyph glyph-name="yen" unicode="&#xa5;" horiz-adv-x="1163" 
d="M168 477v137h281l-447 795h303l279 -539h8l287 539h282l-446 -795h280v-137h-282v-133h282v-137h-282v-207h-262v207h-283v137h283v133h-283z" />
    <glyph glyph-name="brokenbar" unicode="&#xa6;" horiz-adv-x="583" 
d="M180 -336v721h223v-721h-223zM180 688v721h223v-721h-223z" />
    <glyph glyph-name="section" unicode="&#xa7;" horiz-adv-x="1179" 
d="M384 370.5q44 -44.5 144 -73.5l113 -33q140 30 169.5 101t29.5 109q0 74 -43 120.5t-146 75.5l-121 32q-86 -19 -138 -77.5t-52 -133.5q0 -76 44 -120.5zM1042 -100q0 -165 -123.5 -266t-340.5 -101q-317 0 -388 123t-77 201h243q6 -108 92.5 -129t134.5 -21
q99 0 156.5 43t57.5 128t-69 113.5t-116 43.5l-204 57q-308 91 -308 352q0 166 89.5 233.5t144.5 90.5q-197 96 -197 299q0 164 122.5 265.5t332.5 101.5t336.5 -83t138.5 -241h-244q-11 108 -94.5 129t-131.5 21q-98 0 -157 -42.5t-59 -127.5t68.5 -114.5t117.5 -43.5
l203 -58q160 -47 234.5 -134.5t74.5 -217.5q0 -164 -90 -233.5t-143 -91.5q196 -100 196 -297z" />
    <glyph glyph-name="dieresis" unicode="&#xa8;" horiz-adv-x="1200" 
d="M256 1223v237h240v-237h-240zM702 1223v237h242v-237h-242z" />
    <glyph glyph-name="copyright" unicode="&#xa9;" horiz-adv-x="1589" 
d="M536 969.5q98 103.5 263 103.5q195 0 251 -95t64 -151h-174q-39 97 -130 97q-90 0 -137.5 -60t-47.5 -152q0 -91 47 -151.5t119 -60.5t102 25.5t47 70.5h174q-16 -110 -102 -177t-231 -67t-244 102.5t-99 256.5q0 155 98 258.5zM393 287q157 -174 399 -174t402 175
t160 424.5t-157.5 412.5t-402 163t-401.5 -162.5t-157 -413.5t157 -425zM70 712.5q0 151.5 53 284.5t206.5 285t463.5 152q309 0 518 -207t209 -436.5t-53.5 -364.5t-151.5 -236.5t-232.5 -158t-288 -56.5t-287.5 56.5t-232.5 158t-151.5 236.5t-53 286.5z" />
    <glyph glyph-name="ordfeminine" unicode="&#xaa;" horiz-adv-x="827" 
d="M528 973v63q-13 -20 -32 -24t-31 -6l-92 -13q-52 -4 -73 -28.5t-21 -49.5q0 -44 24.5 -67t64.5 -23q69 0 114.5 37t45.5 111zM528 784q-67 -96 -231 -96t-195.5 77t-31.5 192.5t237 146.5l131 16q57 8 73.5 20.5t16.5 38.5q0 45 -27 74t-85 29q-117 0 -125 -108h-193
q8 127 95.5 190t222.5 63q321 0 321 -270v-452h-200v79h-9z" />
    <glyph glyph-name="guillemotleft" unicode="&#xab;" horiz-adv-x="1150" 
d="M389 98l-291 418l291 418h217l-231 -418l231 -418h-217zM545 516l291 418h215l-230 -418l230 -418h-215z" />
    <glyph glyph-name="logicalnot" unicode="&#xac;" horiz-adv-x="1163" 
d="M119 420v205h925v-568h-217v363h-708z" />
    <glyph glyph-name="uni00AD" unicode="&#xad;" horiz-adv-x="811" 
d="M109 403v226h593v-226h-593z" />
    <glyph glyph-name="registered" unicode="&#xae;" horiz-adv-x="1589" 
d="M674 920v-179h153q75 0 90 35t15 66.5t-28.5 54.5t-76.5 23h-153zM1112 845q0 -161 -149 -222l174 -263h-195l-147 240h-121v-240h-180v705h344q201 0 237.5 -88t36.5 -132zM393 287q157 -174 399 -174t402 175t160 424.5t-157.5 412.5t-402 163t-401.5 -162.5
t-157 -413.5t157 -425zM70 712.5q0 151.5 53 284.5t206.5 285t463.5 152q309 0 518 -207t209 -436.5t-53.5 -364.5t-151.5 -236.5t-232.5 -158t-288 -56.5t-287.5 56.5t-232.5 158t-151.5 236.5t-53 286.5z" />
    <glyph glyph-name="macron" unicode="&#xaf;" horiz-adv-x="1200" 
d="M291 1243v176h610v-176h-610z" />
    <glyph glyph-name="degree" unicode="&#xb0;" horiz-adv-x="813" 
d="M405.5 1272q-28.5 0 -54 -10.5t-44 -30t-30 -47t-11.5 -60t11.5 -60.5t30 -47.5t44 -29.5t54 -10t54 10t45 29.5t30 47.5t10.5 60.5t-10.5 60t-30 47t-45 30t-54 10.5zM405.5 817q-69.5 0 -129 22.5t-103.5 63.5t-67.5 97.5t-23.5 124t23.5 125t67.5 98.5t103.5 63.5
t129 22.5t129 -22.5t103.5 -63.5t68.5 -98.5t24.5 -125t-24.5 -124t-68.5 -97.5t-103.5 -63.5t-129 -22.5z" />
    <glyph glyph-name="plusminus" unicode="&#xb1;" horiz-adv-x="1163" 
d="M115 0v205h934v-205h-934zM123 670v204h350v328h217v-328h359v-204h-359v-328h-217v328h-350z" />
    <glyph glyph-name="twosuperior" unicode="&#xb2;" 
d="M262 1479h-196q4 126 92.5 192t222.5 66t218.5 -59t84.5 -170t-81 -157t-134 -71l-37 -16q-129 -55 -129 -90h377v-158h-623q0 210 96.5 275t151.5 89l35 19q114 49 128.5 72.5t14.5 40.5q0 79 -106.5 79t-114.5 -112z" />
    <glyph glyph-name="threesuperior" unicode="&#xb3;" 
d="M369 1438q108 0 108 85t-86.5 85t-102.5 -37t-16 -60h-184q6 166 116.5 196t209 30t179.5 -55t81 -146q0 -56 -31.5 -99.5t-87.5 -56.5v-6q97 -19 118 -76t21 -99q0 -92 -83.5 -146t-235.5 -54q-295 0 -303 234h188q0 -51 23.5 -70.5t44 -27t47 -7.5t48 6.5t37 18.5
t24 29.5t8.5 51.5t-33.5 57.5t-89.5 23.5h-43v123h43z" />
    <glyph glyph-name="acute" unicode="&#xb4;" horiz-adv-x="1200" 
d="M508 1163l205 336h278l-303 -336h-180z" />
    <glyph glyph-name="mu" unicode="&#xb5;" horiz-adv-x="1220" 
d="M399 426q0 -246 197 -246q100 0 161.5 81.5t61.5 213.5v524h264v-999h-252v143h-8q-78 -168 -299 -168q-75 0 -149 37q24 -196 24 -338v-125h-262v1450h262v-573z" />
    <glyph glyph-name="paragraph" unicode="&#xb6;" horiz-adv-x="1286" 
d="M506 0v510q-198 24 -311 141t-113 316t138 320.5t378 121.5h145v-1409h-237zM893 0v1409h237v-1409h-237z" />
    <glyph glyph-name="periodcentered" unicode="&#xb7;" horiz-adv-x="577" 
d="M141 379v278h297v-278h-297z" />
    <glyph glyph-name="cedilla" unicode="&#xb8;" horiz-adv-x="1200" 
d="M659 -250q0 70 -96 70h-67l63 180h84v-78q136 -6 162 -72.5t26 -106.5q0 -87 -60.5 -140.5t-178.5 -53.5h-137v127h108q74 0 85 27t11 47z" />
    <glyph glyph-name="onesuperior" unicode="&#xb9;" 
d="M508 1720v-546h188v-158h-594v158h197v307l-139 -78l-82 137l305 180h125z" />
    <glyph glyph-name="ordmasculine" unicode="&#xba;" horiz-adv-x="880" 
d="M439 854q38 0 69 14.5t51.5 42t31.5 64.5t11 106t-42.5 124t-121.5 55q-114 0 -138 -79t-24 -124t11.5 -82t32 -64.5t51 -42t68.5 -14.5zM161.5 1326q102.5 101 278.5 101q175 0 277 -99.5t102 -270t-103.5 -270t-277.5 -99.5q-175 0 -277 99t-102 268.5t102.5 270.5z
" />
    <glyph glyph-name="guillemotright" unicode="&#xbb;" horiz-adv-x="1150" 
d="M98 98l232 418l-232 418h215l293 -418l-293 -418h-215zM545 98l229 418l-229 418h215l291 -418l-291 -418h-215z" />
    <glyph glyph-name="onequarter" unicode="&#xbc;" horiz-adv-x="1660" 
d="M1309 268v203l-160 -203h160zM508 1409v-547h188v-157h-594v157h197v307l-139 -77l-82 137l305 180h125zM469 -25l713 1459h166l-713 -1459h-166zM952 119v114l385 476h176v-441h95v-149h-95v-119h-204v119h-357z" />
    <glyph glyph-name="onehalf" unicode="&#xbd;" horiz-adv-x="1660" 
d="M508 1409v-547h188v-157h-594v157h197v307l-139 -77l-82 137l305 180h125zM424 -25l713 1459h166l-713 -1459h-166zM1261 575q-78 0 -90 -112h-194q4 128 92.5 193t221.5 65t217.5 -59t84.5 -154t-51.5 -143.5t-163.5 -100.5l-37 -16q-129 -55 -129 -90h377v-158h-620
q0 211 95 275.5t150 89.5l35 18q112 48 128 71.5t16 41.5q0 37 -27 58t-105 21z" />
    <glyph glyph-name="threequarters" unicode="&#xbe;" horiz-adv-x="1660" 
d="M1309 268v203l-160 -203h160zM432 -25q674 1377 713 1459h166l-713 -1459h-166zM401 1296q-76 0 -102.5 -27.5t-26.5 -68.5h-184q4 108 81 166.5t211.5 58.5t214 -55t79.5 -145q0 -56 -31.5 -99.5t-87.5 -56.5v-6q97 -19 118 -76t21 -99q0 -92 -83.5 -146t-235.5 -54
q-295 0 -303 234h188q0 -75 44 -90t70.5 -15t48 6t37 18.5t24 30t8.5 52t-35 57.5t-88 23h-43v122h43q108 0 108 85t-76 85zM952 119v114l385 476h176v-441h95v-149h-95v-119h-204v119h-357z" />
    <glyph glyph-name="questiondown" unicode="&#xbf;" horiz-adv-x="1058" 
d="M55 -38q0 102 48.5 171.5t142.5 140t136 116.5t42 126v59h248v-49q0 -125 -47 -200.5t-141.5 -149.5t-129.5 -110t-35 -90q0 -93 53.5 -145t131.5 -52q136 0 194 68t58 169h252q0 -190 -121.5 -320t-348.5 -130t-355 103t-128 293zM412 729v270h272v-270h-272z" />
    <glyph glyph-name="Agrave" unicode="&#xc0;" horiz-adv-x="1404" 
d="M612 1573l-303 336h277l207 -336h-181zM705 1149h-9l-215 -612h432zM16 0l525 1409h323l525 -1409h-291l-109 315h-583l-111 -315h-279z" />
    <glyph glyph-name="Aacute" unicode="&#xc1;" horiz-adv-x="1404" 
d="M608 1573l205 336h279l-304 -336h-180zM705 1149h-9l-215 -612h432zM16 0l525 1409h323l525 -1409h-291l-109 315h-583l-111 -315h-279z" />
    <glyph glyph-name="Acircumflex" unicode="&#xc2;" horiz-adv-x="1404" 
d="M338 1573l262 336h201l262 -336h-217l-146 203l-145 -203h-217zM705 1149h-9l-215 -612h432zM16 0l525 1409h323l525 -1409h-291l-109 315h-583l-111 -315h-279z" />
    <glyph glyph-name="Atilde" unicode="&#xc3;" horiz-adv-x="1404" 
d="M545 1671q-67 0 -78 -98h-125q0 116 54.5 186t156.5 70q66 0 145.5 -36t105 -46t52.5 -10q67 0 78 98h125q-6 -184 -84 -219t-124 -35q-69 0 -168.5 45t-137.5 45zM705 1149h-9l-215 -612h432zM16 0l525 1409h323l525 -1409h-291l-109 315h-583l-111 -315h-279z" />
    <glyph glyph-name="Adieresis" unicode="&#xc4;" horiz-adv-x="1404" 
d="M356 1573v237h240v-237h-240zM803 1573v237h241v-237h-241zM705 1149h-9l-215 -612h432zM16 0l525 1409h323l525 -1409h-291l-109 315h-583l-111 -315h-279z" />
    <glyph glyph-name="Aring" unicode="&#xc5;" horiz-adv-x="1404" 
d="M700.5 1655q20.5 0 38 7t30.5 20.5t21.5 32t8.5 39t-8.5 38.5t-21.5 32.5t-30.5 21.5t-38 7t-38 -7t-31 -21.5t-21.5 -32.5t-8 -38.5t8 -39t21.5 -32t31 -20.5t38 -7zM700 1546q-45 0 -85 15.5t-70.5 43t-47 65.5t-16.5 83t16.5 84t47 66.5t70.5 43t85 15.5t85 -15.5
t70 -43t47.5 -66.5t17.5 -84t-16.5 -83t-47.5 -65.5t-71 -43t-85 -15.5zM705 1149h-9l-215 -612h432zM16 0l525 1409h323l525 -1409h-291l-109 315h-583l-111 -315h-279z" />
    <glyph glyph-name="AE" unicode="&#xc6;" horiz-adv-x="2287" 
d="M1141 532v603h-8l-428 -603h436zM2165 1409v-227h-750v-355h606v-217h-606v-383h770v-227h-1044v315h-592l-223 -315h-316l1018 1409h1137z" />
    <glyph glyph-name="Ccedilla" unicode="&#xc7;" horiz-adv-x="1499" 
d="M852 -250q0 70 -96 70h-68l55 157q-302 16 -477.5 217.5t-175.5 514.5t193.5 519t509.5 206q258 0 421 -132t203 -358h-274q-67 254 -350 254q-191 0 -305.5 -135t-114.5 -355t116 -358.5t304 -138.5q280 0 350 254h274q-37 -218 -188 -346t-393 -142v-55
q133 -6 160.5 -72.5t27.5 -106.5q0 -86 -60 -140t-180 -54h-137v127h109q74 0 85 27t11 47z" />
    <glyph glyph-name="Egrave" unicode="&#xc8;" horiz-adv-x="1310" 
d="M590 1573l-303 336h276l207 -336h-180zM166 0v1409h1022v-227h-748v-355h602v-217h-602v-383h766v-227h-1040z" />
    <glyph glyph-name="Eacute" unicode="&#xc9;" horiz-adv-x="1310" 
d="M586 1573l205 336h278l-303 -336h-180zM166 0v1409h1022v-227h-748v-355h602v-217h-602v-383h766v-227h-1040z" />
    <glyph glyph-name="Ecircumflex" unicode="&#xca;" horiz-adv-x="1310" 
d="M315 1573l263 336h200l262 -336h-217l-145 203l-146 -203h-217zM166 0v1409h1022v-227h-748v-355h602v-217h-602v-383h766v-227h-1040z" />
    <glyph glyph-name="Edieresis" unicode="&#xcb;" horiz-adv-x="1310" 
d="M334 1573v237h239v-237h-239zM780 1573v237h242v-237h-242zM166 0v1409h1022v-227h-748v-355h602v-217h-602v-383h766v-227h-1040z" />
    <glyph glyph-name="Igrave" unicode="&#xcc;" horiz-adv-x="606" 
d="M215 1573l-303 336h276l207 -336h-180zM166 0v1409h274v-1409h-274z" />
    <glyph glyph-name="Iacute" unicode="&#xcd;" horiz-adv-x="606" 
d="M211 1573l205 336h278l-303 -336h-180zM166 0v1409h274v-1409h-274z" />
    <glyph glyph-name="Icircumflex" unicode="&#xce;" horiz-adv-x="606" 
d="M-59 1573l262 336h200l263 -336h-217l-146 203l-145 -203h-217zM166 0v1409h274v-1409h-274z" />
    <glyph glyph-name="Idieresis" unicode="&#xcf;" horiz-adv-x="606" 
d="M-41 1573v237h240v-237h-240zM406 1573v237h241v-237h-241zM166 0v1409h274v-1409h-274z" />
    <glyph glyph-name="Eth" unicode="&#xd0;" horiz-adv-x="1505" 
d="M440 1182v-391h305v-168h-305v-396h209q249 0 366.5 134.5t117.5 343t-117.5 343t-366.5 134.5h-209zM8 623v168h158v618h502q361 0 554 -195t193 -509.5t-193 -509.5t-554 -195h-502v623h-158z" />
    <glyph glyph-name="Ntilde" unicode="&#xd1;" horiz-adv-x="1560" 
d="M625 1671q-67 0 -78 -98h-125q0 116 54.5 186t156.5 70q66 0 145.5 -36t105 -46t52.5 -10q67 0 78 98h125q-6 -184 -84 -219t-124 -35q-68 0 -168.5 45t-137.5 45zM166 0v1409h248l706 -942h8l-8 942h275v-1409h-244l-711 942h-8l8 -942h-274z" />
    <glyph glyph-name="Ograve" unicode="&#xd2;" horiz-adv-x="1615" 
d="M721 1573l-303 336h276l207 -336h-180zM373 704.5q0 -106.5 30.5 -197.5t89 -157.5t139.5 -102.5t177 -36t176 37t138.5 103.5t89 156.5t30.5 196.5t-30.5 196.5t-89 156.5t-138.5 103.5t-176 37t-177 -36t-139.5 -102.5t-89 -157.5t-30.5 -197.5zM90 704.5
q0 320.5 198.5 525t518.5 204.5q321 0 520 -206.5t199 -523t-199 -523t-520 -206.5t-519 204.5t-198 525z" />
    <glyph glyph-name="Oacute" unicode="&#xd3;" horiz-adv-x="1615" 
d="M717 1573l205 336h278l-303 -336h-180zM373 704.5q0 -106.5 30.5 -197.5t89 -157.5t139.5 -102.5t177 -36t176 37t138.5 103.5t89 156.5t30.5 196.5t-30.5 196.5t-89 156.5t-138.5 103.5t-176 37t-177 -36t-139.5 -102.5t-89 -157.5t-30.5 -197.5zM90 704.5
q0 320.5 198.5 525t518.5 204.5q321 0 520 -206.5t199 -523t-199 -523t-520 -206.5t-519 204.5t-198 525z" />
    <glyph glyph-name="Ocircumflex" unicode="&#xd4;" horiz-adv-x="1615" 
d="M446 1573l263 336h200l262 -336h-217l-145 203l-145 -203h-218zM373 704.5q0 -106.5 30.5 -197.5t89 -157.5t139.5 -102.5t177 -36t176 37t138.5 103.5t89 156.5t30.5 196.5t-30.5 196.5t-89 156.5t-138.5 103.5t-176 37t-177 -36t-139.5 -102.5t-89 -157.5t-30.5 -197.5
zM90 704.5q0 320.5 198.5 525t518.5 204.5q321 0 520 -206.5t199 -523t-199 -523t-520 -206.5t-519 204.5t-198 525z" />
    <glyph glyph-name="Otilde" unicode="&#xd5;" horiz-adv-x="1615" 
d="M653 1671q-62 0 -78 -98h-124q0 117 54 186.5t157 69.5q64 0 144.5 -36t106 -46t52.5 -10q66 0 77 98h125q-6 -184 -83.5 -219t-123.5 -35q-68 0 -168.5 45t-138.5 45zM373 704.5q0 -106.5 30.5 -197.5t89 -157.5t139.5 -102.5t177 -36t176 37t138.5 103.5t89 156.5
t30.5 196.5t-30.5 196.5t-89 156.5t-138.5 103.5t-176 37t-177 -36t-139.5 -102.5t-89 -157.5t-30.5 -197.5zM90 704.5q0 320.5 198.5 525t518.5 204.5q321 0 520 -206.5t199 -523t-199 -523t-520 -206.5t-519 204.5t-198 525z" />
    <glyph glyph-name="Odieresis" unicode="&#xd6;" horiz-adv-x="1615" 
d="M465 1573v237h240v-237h-240zM911 1573v237h242v-237h-242zM373 704.5q0 -106.5 30.5 -197.5t89 -157.5t139.5 -102.5t177 -36t176 37t138.5 103.5t89 156.5t30.5 196.5t-30.5 196.5t-89 156.5t-138.5 103.5t-176 37t-177 -36t-139.5 -102.5t-89 -157.5t-30.5 -197.5z
M90 704.5q0 320.5 198.5 525t518.5 204.5q321 0 520 -206.5t199 -523t-199 -523t-520 -206.5t-519 204.5t-198 525z" />
    <glyph glyph-name="multiply" unicode="&#xd7;" horiz-adv-x="1163" 
d="M137 821l148 146l297 -301l297 301l147 -146l-299 -301l303 -305l-147 -145l-301 303l-301 -303l-148 145l303 305z" />
    <glyph glyph-name="Oslash" unicode="&#xd8;" horiz-adv-x="1615" 
d="M1243 687q0 199 -88 329l-598 -727q117 -78 233 -78q210 0 331.5 138.5t121.5 337.5zM826 1198q-212 0 -332.5 -137t-120.5 -339q0 -201 88 -331l598 727q-120 80 -233 80zM289 180q-199 207 -199 524t199 523.5t520 206.5q227 0 410 -119l98 119h182l-172 -209
q199 -207 199 -521t-147.5 -467t-280.5 -207.5t-289 -54.5q-241 0 -414 117l-94 -117h-182z" />
    <glyph glyph-name="Ugrave" unicode="&#xd9;" horiz-adv-x="1492" 
d="M659 1573l-303 336h277l207 -336h-181zM1354 565q0 -590 -607.5 -590t-607.5 590v844h277v-840q0 -358 332 -358q245 0 287 136t42 222v840h277v-844z" />
    <glyph glyph-name="Uacute" unicode="&#xda;" horiz-adv-x="1492" 
d="M655 1573l205 336h279l-303 -336h-181zM1354 565q0 -590 -607.5 -590t-607.5 590v844h277v-840q0 -358 332 -358q245 0 287 136t42 222v840h277v-844z" />
    <glyph glyph-name="Ucircumflex" unicode="&#xdb;" horiz-adv-x="1492" 
d="M385 1573l262 336h201l262 -336h-217l-145 203l-146 -203h-217zM1354 565q0 -590 -607.5 -590t-607.5 590v844h277v-840q0 -358 332 -358q245 0 287 136t42 222v840h277v-844z" />
    <glyph glyph-name="Udieresis" unicode="&#xdc;" horiz-adv-x="1492" 
d="M403 1573v237h240v-237h-240zM850 1573v237h242v-237h-242zM1354 565q0 -590 -607.5 -590t-607.5 590v844h277v-840q0 -358 332 -358q245 0 287 136t42 222v840h277v-844z" />
    <glyph glyph-name="Yacute" unicode="&#xdd;" horiz-adv-x="1361" 
d="M590 1573l205 336h278l-303 -336h-180zM539 0v541l-519 868h312l346 -606h8l365 606h290l-526 -860v-549h-276z" />
    <glyph glyph-name="Thorn" unicode="&#xde;" horiz-adv-x="1382" 
d="M748 971h-308v-508h308q127 0 197.5 72t70.5 185t-69 182t-199 69zM166 0v1409h274v-217h332q248 0 385 -129t137 -340t-136 -345t-386 -134h-332v-244h-274z" />
    <glyph glyph-name="germandbls" unicode="&#xdf;" horiz-adv-x="1257" 
d="M143 0v1026q0 243 135.5 370.5t359.5 127.5t329.5 -95t105.5 -231q0 -70 -25.5 -121t-77.5 -108.5t-69.5 -79t-17.5 -61.5t17.5 -56t115.5 -93t141 -144.5t43 -162.5q0 -181 -115.5 -276.5t-285.5 -95.5h-217v205h190q120 0 143 53t23 100t-34 81t-112.5 90.5
t-118.5 114.5t-40 140t25.5 131.5t74.5 103.5t70.5 85t21.5 69q0 72 -47 113t-143 41q-227 0 -227 -291v-1036h-265z" />
    <glyph glyph-name="agrave" unicode="&#xe0;" horiz-adv-x="1140" 
d="M492 1163l-304 336h277l207 -336h-180zM506 160q99 0 169 62t70 181v89q-15 -25 -47 -34t-51 -14l-153 -24q-148 -23 -148 -135q0 -125 160 -125zM86 288q0 161 126 211t214 64l192 29q78 11 102.5 27.5t24.5 52.5q0 75 -44.5 121.5t-178 46.5t-151.5 -164h-246
q12 166 131.5 257t310.5 91q329 0 386 -137t57 -228v-659h-252v119h-13q-95 -144 -319 -144q-163 0 -251.5 76t-88.5 237z" />
    <glyph glyph-name="aacute" unicode="&#xe1;" horiz-adv-x="1140" 
d="M455 1163l204 336h279l-303 -336h-180zM506 160q99 0 169 62t70 181v89q-15 -25 -47 -34t-51 -14l-153 -24q-148 -23 -148 -135q0 -125 160 -125zM86 288q0 161 126 211t214 64l192 29q78 11 102.5 27.5t24.5 52.5q0 75 -44.5 121.5t-178 46.5t-151.5 -164h-246
q12 166 131.5 257t310.5 91q329 0 386 -137t57 -228v-659h-252v119h-13q-95 -144 -319 -144q-163 0 -251.5 76t-88.5 237z" />
    <glyph glyph-name="acircumflex" unicode="&#xe2;" horiz-adv-x="1140" 
d="M201 1163l262 336h201l262 -336h-217l-146 203l-145 -203h-217zM506 160q99 0 169 62t70 181v89q-15 -25 -47 -34t-51 -14l-153 -24q-148 -23 -148 -135q0 -125 160 -125zM86 288q0 161 126 211t214 64l192 29q78 11 102.5 27.5t24.5 52.5q0 75 -44.5 121.5t-178 46.5
t-151.5 -164h-246q12 166 131.5 257t310.5 91q329 0 386 -137t57 -228v-659h-252v119h-13q-95 -144 -319 -144q-163 0 -251.5 76t-88.5 237z" />
    <glyph glyph-name="atilde" unicode="&#xe3;" horiz-adv-x="1140" 
d="M408 1300q-68 0 -78 -98h-125q0 183 81 218.5t126 35.5q73 0 170.5 -45t136.5 -45q67 0 78 98h125q-6 -186 -84 -221t-124 -35t-85 12.5t-91.5 36t-78 33.5t-51.5 10zM506 160q99 0 169 62t70 181v89q-15 -25 -47 -34t-51 -14l-153 -24q-148 -23 -148 -135
q0 -125 160 -125zM86 288q0 161 126 211t214 64l192 29q78 11 102.5 27.5t24.5 52.5q0 75 -44.5 121.5t-178 46.5t-151.5 -164h-246q12 166 131.5 257t310.5 91q329 0 386 -137t57 -228v-659h-252v119h-13q-95 -144 -319 -144q-163 0 -251.5 76t-88.5 237z" />
    <glyph glyph-name="adieresis" unicode="&#xe4;" horiz-adv-x="1140" 
d="M219 1223v237h240v-237h-240zM666 1223v237h241v-237h-241zM506 160q99 0 169 62t70 181v89q-15 -25 -47 -34t-51 -14l-153 -24q-148 -23 -148 -135q0 -125 160 -125zM86 288q0 161 126 211t214 64l192 29q78 11 102.5 27.5t24.5 52.5q0 75 -44.5 121.5t-178 46.5
t-151.5 -164h-246q12 166 131.5 257t310.5 91q329 0 386 -137t57 -228v-659h-252v119h-13q-95 -144 -319 -144q-163 0 -251.5 76t-88.5 237z" />
    <glyph glyph-name="aring" unicode="&#xe5;" horiz-adv-x="1140" 
d="M563.5 1245q20.5 0 37.5 7.5t30.5 20.5t22 31.5t8.5 39t-8.5 39t-22 33t-30.5 21.5t-37.5 7t-38 -7t-31 -21.5t-21.5 -33t-8 -39t8 -39t21.5 -31.5t31 -20.5t38 -7.5zM563 1137q-45 0 -85 15t-70.5 43t-47 65.5t-16.5 83t16.5 84t47 66.5t70.5 43t85 15t85 -15t70 -43
t47 -66.5t17 -84t-16 -83t-47 -65.5t-71 -43t-85 -15zM506 160q99 0 169 62t70 181v89q-15 -25 -47 -34t-51 -14l-153 -24q-148 -23 -148 -135q0 -125 160 -125zM86 288q0 161 126 211t214 64l192 29q78 11 102.5 27.5t24.5 52.5q0 75 -44.5 121.5t-178 46.5t-151.5 -164
h-246q12 166 131.5 257t310.5 91q329 0 386 -137t57 -228v-659h-252v119h-13q-95 -144 -319 -144q-163 0 -251.5 76t-88.5 237z" />
    <glyph glyph-name="ae" unicode="&#xe6;" horiz-adv-x="1777" 
d="M1434 612q-17 222 -205 222q-135 0 -175 -84t-50 -138h430zM674.5 220.5q70.5 60.5 70.5 182.5v89q-15 -25 -47 -34t-51 -14l-153 -24q-107 -16 -127.5 -63t-20.5 -75t10.5 -51.5t41.5 -47t119 -23.5q87 0 157.5 60.5zM86 286q0 160 126 212.5t214 64.5l192 29
q80 12 103.5 29t23.5 54q0 72 -44.5 118.5t-130.5 46.5t-140.5 -41.5t-58.5 -122.5h-246q12 174 134 261t308 87q242 0 336 -121q129 121 335 121t336 -132t130 -366v-73h-707q12 -208 99.5 -246.5t140.5 -38.5q154 0 199 135h256q-25 -140 -151 -234t-308 -94
q-268 0 -391 193q-119 -193 -393 -193q-175 0 -269 75.5t-94 235.5z" />
    <glyph glyph-name="ccedilla" unicode="&#xe7;" horiz-adv-x="1132" 
d="M653 -250q0 70 -96 70h-68l56 157q-220 12 -345.5 151t-125.5 375t142.5 378.5t364.5 142.5t347.5 -104.5t142.5 -268.5h-260q-29 172 -217 172q-108 0 -178 -88.5t-70 -235t70 -235t178 -88.5q141 0 176 68.5t41 103.5h260q-16 -153 -126 -255t-308 -116v-55
q136 -6 162 -72.5t26 -106.5q0 -87 -60.5 -140.5t-178.5 -53.5h-137v127h108q74 0 85 27t11 47z" />
    <glyph glyph-name="egrave" unicode="&#xe8;" horiz-adv-x="1155" 
d="M504 1163l-303 336h276l207 -336h-180zM813 616q-24 218 -221 218q-188 0 -240 -218h461zM600 168q170 0 215 135h256q-25 -140 -155 -234t-320 -94q-247 0 -384.5 134t-137.5 380q0 245 143 390t372.5 145t360.5 -131t131 -367v-73h-737q12 -203 106.5 -244t149.5 -41z
" />
    <glyph glyph-name="eacute" unicode="&#xe9;" horiz-adv-x="1155" 
d="M500 1163l205 336h278l-303 -336h-180zM813 616q-24 218 -221 218q-188 0 -240 -218h461zM600 168q170 0 215 135h256q-25 -140 -155 -234t-320 -94q-247 0 -384.5 134t-137.5 380q0 245 143 390t372.5 145t360.5 -131t131 -367v-73h-737q12 -203 106.5 -244t149.5 -41z
" />
    <glyph glyph-name="ecircumflex" unicode="&#xea;" horiz-adv-x="1155" 
d="M229 1163l263 336h200l262 -336h-217l-145 203l-146 -203h-217zM813 616q-24 218 -221 218q-188 0 -240 -218h461zM600 168q170 0 215 135h256q-25 -140 -155 -234t-320 -94q-247 0 -384.5 134t-137.5 380q0 245 143 390t372.5 145t360.5 -131t131 -367v-73h-737
q12 -203 106.5 -244t149.5 -41z" />
    <glyph glyph-name="edieresis" unicode="&#xeb;" horiz-adv-x="1155" 
d="M248 1223v237h239v-237h-239zM694 1223v237h242v-237h-242zM813 616q-24 218 -221 218q-188 0 -240 -218h461zM600 168q170 0 215 135h256q-25 -140 -155 -234t-320 -94q-247 0 -384.5 134t-137.5 380q0 245 143 390t372.5 145t360.5 -131t131 -367v-73h-737
q12 -203 106.5 -244t149.5 -41z" />
    <glyph glyph-name="igrave" unicode="&#xec;" horiz-adv-x="550" 
d="M188 1163l-303 336h277l207 -336h-181zM143 0v999h265v-999h-265z" />
    <glyph glyph-name="iacute" unicode="&#xed;" horiz-adv-x="550" 
d="M184 1163l205 336h279l-303 -336h-181zM143 0v999h265v-999h-265z" />
    <glyph glyph-name="icircumflex" unicode="&#xee;" horiz-adv-x="550" 
d="M-86 1163l262 336h201l262 -336h-217l-146 203l-145 -203h-217zM143 0v999h265v-999h-265z" />
    <glyph glyph-name="idieresis" unicode="&#xef;" horiz-adv-x="550" 
d="M-68 1223v237h240v-237h-240zM379 1223v237h242v-237h-242zM143 0v999h265v-999h-265z" />
    <glyph glyph-name="eth" unicode="&#xf0;" horiz-adv-x="1247" 
d="M620.5 176q116.5 0 189.5 81t73 211t-72 210t-190 80t-190.5 -81t-72.5 -210t73 -210t189.5 -81zM1153 553v-4q0 -281 -142.5 -427.5t-388.5 -146.5t-389 134.5t-143 354.5t141 357t355 137q126 0 189 -38.5t87 -65.5h10q-33 111 -85.5 187t-137.5 137l-213 -148l-80 115
l160 110q-93 45 -223 84l67 185q206 -56 351 -135l188 131l80 -113l-141 -98q238 -174 276.5 -392.5t38.5 -363.5z" />
    <glyph glyph-name="ntilde" unicode="&#xf1;" horiz-adv-x="1226" 
d="M463 1300q-68 0 -78 -98h-125q0 115 55 184.5t156 69.5q69 0 147 -36t104 -45t52 -9q67 0 78 98h125q-6 -186 -84 -221t-124 -35q-69 0 -170.5 46t-135.5 46zM143 0v999h252v-143h8q39 80 118.5 124t174.5 44q186 0 293 -100.5t107 -317.5v-606h-265v573q0 192 -74.5 219
t-121.5 27q-100 0 -163.5 -80t-63.5 -213v-526h-265z" />
    <glyph glyph-name="ograve" unicode="&#xf2;" horiz-adv-x="1214" 
d="M520 1163l-303 336h277l206 -336h-180zM795.5 264.5q68.5 88.5 68.5 236.5q0 149 -68 234.5t-186.5 85.5t-189 -87.5t-70.5 -235t70.5 -235t188.5 -87.5t186.5 88.5zM226 882q148 142 387 142q238 0 381 -141t143 -383t-149 -383.5t-386 -141.5q-238 0 -381 141t-143 383
q0 241 148 383z" />
    <glyph glyph-name="oacute" unicode="&#xf3;" horiz-adv-x="1214" 
d="M516 1163l205 336h278l-303 -336h-180zM795.5 264.5q68.5 88.5 68.5 236.5q0 149 -68 234.5t-186.5 85.5t-189 -87.5t-70.5 -235t70.5 -235t188.5 -87.5t186.5 88.5zM226 882q148 142 387 142q238 0 381 -141t143 -383t-149 -383.5t-386 -141.5q-238 0 -381 141t-143 383
q0 241 148 383z" />
    <glyph glyph-name="ocircumflex" unicode="&#xf4;" horiz-adv-x="1214" 
d="M246 1163l262 336h201l262 -336h-217l-146 203l-145 -203h-217zM795.5 264.5q68.5 88.5 68.5 236.5q0 149 -68 234.5t-186.5 85.5t-189 -87.5t-70.5 -235t70.5 -235t188.5 -87.5t186.5 88.5zM226 882q148 142 387 142q238 0 381 -141t143 -383t-149 -383.5t-386 -141.5
q-238 0 -381 141t-143 383q0 241 148 383z" />
    <glyph glyph-name="otilde" unicode="&#xf5;" horiz-adv-x="1214" 
d="M453 1300q-68 0 -78 -98h-125q0 115 55 184.5t156 69.5q69 0 147 -36t103.5 -45t52.5 -9q67 0 78 98h125q-6 -186 -84 -221t-124 -35t-85 12.5t-91.5 36t-78 33.5t-51.5 10zM795.5 264.5q68.5 88.5 68.5 236.5q0 149 -68 234.5t-186.5 85.5t-189 -87.5t-70.5 -235
t70.5 -235t188.5 -87.5t186.5 88.5zM226 882q148 142 387 142q238 0 381 -141t143 -383t-149 -383.5t-386 -141.5q-238 0 -381 141t-143 383q0 241 148 383z" />
    <glyph glyph-name="odieresis" unicode="&#xf6;" horiz-adv-x="1214" 
d="M264 1223v237h240v-237h-240zM711 1223v237h241v-237h-241zM795.5 264.5q68.5 88.5 68.5 236.5q0 149 -68 234.5t-186.5 85.5t-189 -87.5t-70.5 -235t70.5 -235t188.5 -87.5t186.5 88.5zM226 882q148 142 387 142q238 0 381 -141t143 -383t-149 -383.5t-386 -141.5
q-238 0 -381 141t-143 383q0 241 148 383z" />
    <glyph glyph-name="divide" unicode="&#xf7;" horiz-adv-x="1163" 
d="M465 25v239h233v-239h-233zM115 420v205h934v-205h-934zM465 778v240h233v-240h-233z" />
    <glyph glyph-name="oslash" unicode="&#xf8;" horiz-adv-x="1206" 
d="M862 477q0 123 -33 193l-370 -447q55 -47 128 -47q136 0 205.5 89t69.5 212zM346 500q0 -85 14.5 -124.5t22.5 -58.5l375 451q-62 53 -136 53q-135 0 -205.5 -89t-70.5 -232zM217 117q-143 143 -143 382t149 382t381 143q174 0 301 -78l64 78h153l-125 -150
q136 -144 136 -378t-148.5 -377.5t-380.5 -143.5q-157 0 -293 70l-57 -70h-154z" />
    <glyph glyph-name="ugrave" unicode="&#xf9;" horiz-adv-x="1218" 
d="M524 1163l-303 336h277l207 -336h-181zM391 426q0 -246 195 -246q100 0 162.5 78t62.5 213v528h262v-999h-250v143h-8q-82 -168 -303 -168q-269 0 -327 152.5t-58 265.5v606h264v-573z" />
    <glyph glyph-name="uacute" unicode="&#xfa;" horiz-adv-x="1218" 
d="M520 1163l205 336h279l-304 -336h-180zM391 426q0 -246 195 -246q100 0 162.5 78t62.5 213v528h262v-999h-250v143h-8q-82 -168 -303 -168q-269 0 -327 152.5t-58 265.5v606h264v-573z" />
    <glyph glyph-name="ucircumflex" unicode="&#xfb;" horiz-adv-x="1218" 
d="M250 1163l262 336h201l262 -336h-217l-146 203l-145 -203h-217zM391 426q0 -246 195 -246q100 0 162.5 78t62.5 213v528h262v-999h-250v143h-8q-82 -168 -303 -168q-269 0 -327 152.5t-58 265.5v606h264v-573z" />
    <glyph glyph-name="udieresis" unicode="&#xfc;" horiz-adv-x="1218" 
d="M268 1223v237h240v-237h-240zM715 1223v237h241v-237h-241zM391 426q0 -246 195 -246q100 0 162.5 78t62.5 213v528h262v-999h-250v143h-8q-82 -168 -303 -168q-269 0 -327 152.5t-58 265.5v606h264v-573z" />
    <glyph glyph-name="yacute" unicode="&#xfd;" horiz-adv-x="1060" 
d="M436 1163l205 336h279l-304 -336h-180zM248 -467h-121v209h61q136 0 179 68.5t59 117.5l23 72h-72l-369 999h287l242 -739h8l239 739h269l-400 -1122q-119 -344 -405 -344z" />
    <glyph glyph-name="thorn" unicode="&#xfe;" horiz-adv-x="1259" 
d="M911 508q0 74 -18.5 133t-51 99t-78.5 61.5t-127.5 21.5t-152.5 -81t-75 -228v-14q0 -229 99 -276.5t154.5 -47.5t101.5 23.5t78.5 67.5t51 105.5t18.5 135.5zM408 1499v-245q0 -245 -13 -398h8q82 168 328 168q196 0 323.5 -135.5t127.5 -380t-134 -389t-333 -144.5
q-164 0 -227.5 63.5t-84.5 104.5h-8q13 -153 13 -171v-423h-265v1950h265z" />
    <glyph glyph-name="ydieresis" unicode="&#xff;" horiz-adv-x="1060" 
d="M184 1223v237h240v-237h-240zM631 1223v237h241v-237h-241zM248 -467h-121v209h61q136 0 179 68.5t59 117.5l23 72h-72l-369 999h287l242 -739h8l239 739h269l-400 -1122q-119 -344 -405 -344z" />
    <glyph glyph-name="Amacron" unicode="&#x100;" horiz-adv-x="1404" 
d="M391 1589v178h610v-178h-610zM705 1149h-9l-215 -612h432zM16 0l525 1409h323l525 -1409h-291l-109 315h-583l-111 -315h-279z" />
    <glyph glyph-name="amacron" unicode="&#x101;" horiz-adv-x="1140" 
d="M254 1243v176h610v-176h-610zM506 160q99 0 169 62t70 181v89q-15 -25 -47 -34t-51 -14l-153 -24q-148 -23 -148 -135q0 -125 160 -125zM86 288q0 161 126 211t214 64l192 29q78 11 102.5 27.5t24.5 52.5q0 75 -44.5 121.5t-178 46.5t-151.5 -164h-246q12 166 131.5 257
t310.5 91q329 0 386 -137t57 -228v-659h-252v119h-13q-95 -144 -319 -144q-163 0 -251.5 76t-88.5 237z" />
    <glyph glyph-name="Abreve" unicode="&#x102;" horiz-adv-x="1404" 
d="M484.5 1647q-90.5 74 -101.5 235h145q25 -160 172 -160q68 0 114 42t58 118h146q-11 -159 -101.5 -234t-216 -75t-216 74zM705 1149h-9l-215 -612h432zM16 0l525 1409h323l525 -1409h-291l-109 315h-583l-111 -315h-279z" />
    <glyph glyph-name="abreve" unicode="&#x103;" horiz-adv-x="1140" 
d="M563 1325q107 0 136.5 62.5t35.5 99.5h146q-11 -161 -100.5 -236t-255.5 -75t-219.5 113.5t-59.5 197.5h145q25 -162 172 -162zM506 160q99 0 169 62t70 181v89q-15 -25 -47 -34t-51 -14l-153 -24q-148 -23 -148 -135q0 -125 160 -125zM86 288q0 161 126 211t214 64
l192 29q78 11 102.5 27.5t24.5 52.5q0 75 -44.5 121.5t-178 46.5t-151.5 -164h-246q12 166 131.5 257t310.5 91q329 0 386 -137t57 -228v-659h-252v119h-13q-95 -144 -319 -144q-163 0 -251.5 76t-88.5 237z" />
    <glyph glyph-name="Aogonek" unicode="&#x104;" horiz-adv-x="1404" 
d="M705 1149h-9l-215 -612h432zM1348 -451q-254 0 -254 189q0 128 166 262h-162l-109 315h-583l-111 -315h-279l525 1409h323l525 -1409q-123 -130 -123 -215.5t104 -85.5h60v-150h-82z" />
    <glyph glyph-name="aogonek" unicode="&#x105;" horiz-adv-x="1140" 
d="M506 160q99 0 169 62t70 181v89q-15 -25 -47 -34t-51 -14l-153 -24q-148 -23 -148 -135q0 -125 160 -125zM965 -451q-254 0 -254 189q0 128 166 262h-119v119h-13q-95 -144 -319 -144q-163 0 -251.5 76t-88.5 237t126 211t214 64l192 29q78 11 102.5 27.5t24.5 52.5
q0 75 -44.5 121.5t-178 46.5t-151.5 -164h-246q12 166 131.5 257t310.5 91q329 0 386 -137t57 -228v-659h-4q-123 -130 -123 -215.5t104 -85.5h60v-150h-82z" />
    <glyph glyph-name="Cacute" unicode="&#x106;" horiz-adv-x="1499" 
d="M700 1573l205 336h279l-303 -336h-181zM788 -25q-318 0 -508 204.5t-190 523.5t193.5 525t509.5 206q258 0 421 -132t203 -358h-274q-67 254 -350 254q-191 0 -305.5 -135t-114.5 -355t116 -358.5t304 -138.5q280 0 350 254h274q-40 -227 -204.5 -358.5t-424.5 -131.5z
" />
    <glyph glyph-name="cacute" unicode="&#x107;" horiz-adv-x="1132" 
d="M502 1163l205 336h278l-303 -336h-180zM216.5 881.5q142.5 142.5 364.5 142.5t347.5 -104.5t142.5 -268.5h-260q-29 172 -217 172q-108 0 -178 -88.5t-70 -235t70 -235t178 -88.5q141 0 176 68.5t41 103.5h260q-17 -166 -142 -269.5t-350 -103.5t-365 137t-140 382
t142.5 387.5z" />
    <glyph glyph-name="Ccircumflex" unicode="&#x108;" horiz-adv-x="1499" 
d="M430 1573l262 336h201l262 -336h-217l-145 203l-146 -203h-217zM788 -25q-318 0 -508 204.5t-190 523.5t193.5 525t509.5 206q258 0 421 -132t203 -358h-274q-67 254 -350 254q-191 0 -305.5 -135t-114.5 -355t116 -358.5t304 -138.5q280 0 350 254h274
q-40 -227 -204.5 -358.5t-424.5 -131.5z" />
    <glyph glyph-name="ccircumflex" unicode="&#x109;" horiz-adv-x="1132" 
d="M231 1163l263 336h200l262 -336h-217l-145 203l-145 -203h-218zM216.5 881.5q142.5 142.5 364.5 142.5t347.5 -104.5t142.5 -268.5h-260q-29 172 -217 172q-108 0 -178 -88.5t-70 -235t70 -235t178 -88.5q141 0 176 68.5t41 103.5h260q-17 -166 -142 -269.5t-350 -103.5
t-365 137t-140 382t142.5 387.5z" />
    <glyph glyph-name="Cdotaccent" unicode="&#x10a;" horiz-adv-x="1499" 
d="M672 1573v237h241v-237h-241zM788 -25q-318 0 -508 204.5t-190 523.5t193.5 525t509.5 206q258 0 421 -132t203 -358h-274q-67 254 -350 254q-191 0 -305.5 -135t-114.5 -355t116 -358.5t304 -138.5q280 0 350 254h274q-40 -227 -204.5 -358.5t-424.5 -131.5z" />
    <glyph glyph-name="cdotaccent" unicode="&#x10b;" horiz-adv-x="1132" 
d="M473 1223v237h242v-237h-242zM216.5 881.5q142.5 142.5 364.5 142.5t347.5 -104.5t142.5 -268.5h-260q-29 172 -217 172q-108 0 -178 -88.5t-70 -235t70 -235t178 -88.5q141 0 176 68.5t41 103.5h260q-17 -166 -142 -269.5t-350 -103.5t-365 137t-140 382t142.5 387.5z
" />
    <glyph glyph-name="Ccaron" unicode="&#x10c;" horiz-adv-x="1499" 
d="M692 1573l-262 336h217l146 -203l145 203h217l-262 -336h-201zM788 -25q-318 0 -508 204.5t-190 523.5t193.5 525t509.5 206q258 0 421 -132t203 -358h-274q-67 254 -350 254q-191 0 -305.5 -135t-114.5 -355t116 -358.5t304 -138.5q280 0 350 254h274
q-40 -227 -204.5 -358.5t-424.5 -131.5z" />
    <glyph glyph-name="ccaron" unicode="&#x10d;" horiz-adv-x="1132" 
d="M494 1163l-263 336h218l145 -203l145 203h217l-262 -336h-200zM216.5 881.5q142.5 142.5 364.5 142.5t347.5 -104.5t142.5 -268.5h-260q-29 172 -217 172q-108 0 -178 -88.5t-70 -235t70 -235t178 -88.5q141 0 176 68.5t41 103.5h260q-17 -166 -142 -269.5t-350 -103.5
t-365 137t-140 382t142.5 387.5z" />
    <glyph glyph-name="Dcaron" unicode="&#x10e;" horiz-adv-x="1505" 
d="M598 1573l-262 336h217l145 -203l146 203h217l-262 -336h-201zM440 1182v-955h209q249 0 366.5 134.5t117.5 343t-117.5 343t-366.5 134.5h-209zM166 0v1409h502q361 0 554 -195t193 -509.5t-193 -509.5t-554 -195h-502z" />
    <glyph glyph-name="dcaron" unicode="&#x10f;" horiz-adv-x="1259" 
d="M1260 1280v219h249v-196l-104 -246h-113l72 223h-104zM350 455q0 -188 97.5 -233.5t181 -45.5t153.5 87.5t70 236.5v14q-4 142 -75 225.5t-179 83.5q-109 0 -178.5 -90t-69.5 -278zM852 1016v483h264v-1499h-252v143h-8q-82 -168 -328 -168q-194 0 -322 136t-128 380
t134 388.5t333 144.5q229 0 311 -168h8q-12 141 -12 160z" />
    <glyph glyph-name="Dcroat" unicode="&#x110;" horiz-adv-x="1505" 
d="M440 1182v-391h305v-168h-305v-396h209q249 0 366.5 134.5t117.5 343t-117.5 343t-366.5 134.5h-209zM8 623v168h158v618h502q361 0 554 -195t193 -509.5t-193 -509.5t-554 -195h-502v623h-158z" />
    <glyph glyph-name="dcroat" unicode="&#x111;" horiz-adv-x="1259" 
d="M350 455q0 -188 97.5 -233.5t181 -45.5t153.5 87.5t70 236.5v14q-4 142 -75 225.5t-179 83.5q-109 0 -178.5 -90t-69.5 -278zM852 1016v188h-291v144h291v151h264v-151h144v-144h-144v-1204h-252v143h-8q-82 -168 -328 -168q-194 0 -322 136t-128 380t134 388.5
t333 144.5q229 0 311 -168h8q-12 141 -12 160z" />
    <glyph glyph-name="Emacron" unicode="&#x112;" horiz-adv-x="1310" 
d="M369 1589v178h610v-178h-610zM166 0v1409h1022v-227h-748v-355h602v-217h-602v-383h766v-227h-1040z" />
    <glyph glyph-name="emacron" unicode="&#x113;" horiz-adv-x="1155" 
d="M283 1243v176h610v-176h-610zM813 616q-24 218 -221 218q-188 0 -240 -218h461zM600 168q170 0 215 135h256q-25 -140 -155 -234t-320 -94q-247 0 -384.5 134t-137.5 380q0 245 143 390t372.5 145t360.5 -131t131 -367v-73h-737q12 -203 106.5 -244t149.5 -41z" />
    <glyph glyph-name="Ebreve" unicode="&#x114;" horiz-adv-x="1310" 
d="M462.5 1647q-89.5 74 -102.5 235h146q25 -160 172 -160q106 0 136 61.5t36 98.5h145q-11 -160 -101 -234.5t-216 -74.5t-215.5 74zM166 0v1409h1022v-227h-748v-355h602v-217h-602v-383h766v-227h-1040z" />
    <glyph glyph-name="ebreve" unicode="&#x115;" horiz-adv-x="1155" 
d="M592 1325q107 0 136.5 62.5t35.5 99.5h145q-12 -162 -100.5 -236.5t-254.5 -74.5t-219.5 113.5t-60.5 197.5h146q25 -162 172 -162zM813 616q-24 218 -221 218q-188 0 -240 -218h461zM600 168q170 0 215 135h256q-25 -140 -155 -234t-320 -94q-247 0 -384.5 134
t-137.5 380q0 245 143 390t372.5 145t360.5 -131t131 -367v-73h-737q12 -203 106.5 -244t149.5 -41z" />
    <glyph glyph-name="Edotaccent" unicode="&#x116;" horiz-adv-x="1310" 
d="M557 1573v237h242v-237h-242zM166 0v1409h1022v-227h-748v-355h602v-217h-602v-383h766v-227h-1040z" />
    <glyph glyph-name="edotaccent" unicode="&#x117;" horiz-adv-x="1155" 
d="M471 1223v237h242v-237h-242zM813 616q-24 218 -221 218q-188 0 -240 -218h461zM600 168q170 0 215 135h256q-25 -140 -155 -234t-320 -94q-247 0 -384.5 134t-137.5 380q0 245 143 390t372.5 145t360.5 -131t131 -367v-73h-737q12 -203 106.5 -244t149.5 -41z" />
    <glyph glyph-name="Eogonek" unicode="&#x118;" horiz-adv-x="1310" 
d="M911 -262q0 126 166 262h-911v1409h1022v-227h-748v-355h602v-217h-602v-383h766v-227q-123 -130 -123 -215.5t105 -85.5h59v-150h-82q-254 0 -254 189z" />
    <glyph glyph-name="eogonek" unicode="&#x119;" horiz-adv-x="1155" 
d="M813 616q-24 218 -221 218q-188 0 -240 -218h461zM705 -451q-261 0 -261 201q0 122 164 225h-12q-247 0 -384.5 134t-137.5 380q0 245 143 390t372.5 145t360.5 -131t131 -367v-73h-737q12 -203 106.5 -244t149.5 -41q170 0 215 135h256q-24 -154 -201 -264
q-117 -73 -182 -132t-65 -116q0 -92 102 -92h61v-150h-81z" />
    <glyph glyph-name="Ecaron" unicode="&#x11a;" horiz-adv-x="1310" 
d="M578 1573l-263 336h217l146 -203l145 203h217l-262 -336h-200zM166 0v1409h1022v-227h-748v-355h602v-217h-602v-383h766v-227h-1040z" />
    <glyph glyph-name="ecaron" unicode="&#x11b;" horiz-adv-x="1155" 
d="M492 1163l-263 336h217l146 -203l145 203h217l-262 -336h-200zM813 616q-24 218 -221 218q-188 0 -240 -218h461zM600 168q170 0 215 135h256q-25 -140 -155 -234t-320 -94q-247 0 -384.5 134t-137.5 380q0 245 143 390t372.5 145t360.5 -131t131 -367v-73h-737
q12 -203 106.5 -244t149.5 -41z" />
    <glyph glyph-name="Gcircumflex" unicode="&#x11c;" horiz-adv-x="1587" 
d="M451 1573l262 336h200l263 -336h-218l-145 203l-145 -203h-217zM1229 170q-145 -195 -448 -195t-497 206t-194 523q0 316 197.5 523t525.5 207q253 0 421 -126t208 -329h-275q-47 152 -163.5 185.5t-202.5 33.5t-168 -36t-140.5 -101.5t-89 -156.5t-30.5 -256.5t121 -301
t301 -135.5t289.5 88t109.5 242v10h-381v209h625v-760h-174l-31 170h-4z" />
    <glyph glyph-name="gcircumflex" unicode="&#x11d;" horiz-adv-x="1259" 
d="M238 1163l262 336h200l263 -336h-218l-145 203l-145 -203h-217zM350 455q0 -188 97.5 -233.5t181 -45.5t153.5 87.5t70 236.5v14q-4 142 -75 225.5t-179 83.5q-109 0 -178.5 -90t-69.5 -278zM545 1024q229 0 311 -168h8v143h252v-946q0 -520 -530 -520q-336 0 -407 129
t-73 215h248q4 -70 66.5 -115t148.5 -45q158 0 226.5 81.5t68.5 254.5v90h-8q-82 -168 -328 -168q-194 0 -322 136t-128 380t134 388.5t333 144.5z" />
    <glyph glyph-name="Gbreve" unicode="&#x11e;" horiz-adv-x="1587" 
d="M813 1573q-126 0 -216 74.5t-101 234.5h145q25 -160 172 -160q106 0 136 61.5t36 98.5h145q-11 -160 -101 -234.5t-216 -74.5zM1229 170q-145 -195 -448 -195t-497 206t-194 523q0 316 197.5 523t525.5 207q253 0 421 -126t208 -329h-275q-47 152 -163.5 185.5
t-202.5 33.5t-168 -36t-140.5 -101.5t-89 -156.5t-30.5 -256.5t121 -301t301 -135.5t289.5 88t109.5 242v10h-381v209h625v-760h-174l-31 170h-4z" />
    <glyph glyph-name="gbreve" unicode="&#x11f;" horiz-adv-x="1259" 
d="M600 1325q107 0 136.5 62.5t35.5 99.5h146q-11 -161 -100.5 -236t-255.5 -75t-219.5 113.5t-59.5 197.5h145q25 -162 172 -162zM350 455q0 -188 97.5 -233.5t181 -45.5t153.5 87.5t70 236.5v14q-4 142 -75 225.5t-179 83.5q-109 0 -178.5 -90t-69.5 -278zM545 1024
q229 0 311 -168h8v143h252v-946q0 -520 -530 -520q-336 0 -407 129t-73 215h248q4 -70 66.5 -115t148.5 -45q158 0 226.5 81.5t68.5 254.5v90h-8q-82 -168 -328 -168q-194 0 -322 136t-128 380t134 388.5t333 144.5z" />
    <glyph glyph-name="Gdotaccent" unicode="&#x120;" horiz-adv-x="1587" 
d="M692 1573v237h242v-237h-242zM1229 170q-145 -195 -448 -195t-497 206t-194 523q0 316 197.5 523t525.5 207q253 0 421 -126t208 -329h-275q-47 152 -163.5 185.5t-202.5 33.5t-168 -36t-140.5 -101.5t-89 -156.5t-30.5 -256.5t121 -301t301 -135.5t289.5 88t109.5 242
v10h-381v209h625v-760h-174l-31 170h-4z" />
    <glyph glyph-name="gdotaccent" unicode="&#x121;" horiz-adv-x="1259" 
d="M479 1223v237h242v-237h-242zM350 455q0 -188 97.5 -233.5t181 -45.5t153.5 87.5t70 236.5v14q-4 142 -75 225.5t-179 83.5q-109 0 -178.5 -90t-69.5 -278zM545 1024q229 0 311 -168h8v143h252v-946q0 -520 -530 -520q-336 0 -407 129t-73 215h248q4 -70 66.5 -115
t148.5 -45q158 0 226.5 81.5t68.5 254.5v90h-8q-82 -168 -328 -168q-194 0 -322 136t-128 380t134 388.5t333 144.5z" />
    <glyph glyph-name="Gcommaaccent" unicode="&#x122;" horiz-adv-x="1587" 
d="M672 -125h241v-180l-102 -221h-109l72 194h-102v207zM1229 170q-145 -195 -448 -195t-497 206t-194 523q0 316 197.5 523t525.5 207q253 0 421 -126t208 -329h-275q-47 152 -163.5 185.5t-202.5 33.5t-168 -36t-140.5 -101.5t-89 -156.5t-30.5 -256.5t121 -301
t301 -135.5t289.5 88t109.5 242v10h-381v209h625v-760h-174l-31 170h-4z" />
    <glyph glyph-name="gcommaaccent" unicode="&#x123;" horiz-adv-x="1259" 
d="M479 1163v180l103 224h106l-70 -197h103v-207h-242zM350 455q0 -188 97.5 -233.5t181 -45.5t153.5 87.5t70 236.5v14q-4 142 -75 225.5t-179 83.5q-109 0 -178.5 -90t-69.5 -278zM545 1024q229 0 311 -168h8v143h252v-946q0 -520 -530 -520q-336 0 -407 129t-73 215h248
q4 -70 66.5 -115t148.5 -45q158 0 226.5 81.5t68.5 254.5v90h-8q-82 -168 -328 -168q-194 0 -322 136t-128 380t134 388.5t333 144.5z" />
    <glyph glyph-name="Hcircumflex" unicode="&#x124;" horiz-adv-x="1544" 
d="M410 1573l262 336h200l263 -336h-217l-146 203l-145 -203h-217zM166 0v1409h274v-580h664v580h274v-1409h-274v596h-664v-596h-274z" />
    <glyph glyph-name="hcircumflex" unicode="&#x125;" horiz-adv-x="1226" 
d="M-86 1651l262 336h201l262 -336h-217l-146 202l-145 -202h-217zM408 1499v-245q0 -245 -13 -398h8q39 80 118.5 124t174.5 44q186 0 293 -100.5t107 -317.5v-606h-265v573q0 192 -74.5 219t-121.5 27q-99 0 -163 -77.5t-64 -213.5v-528h-265v1499h265z" />
    <glyph glyph-name="Hbar" unicode="&#x126;" horiz-adv-x="1544" 
d="M440 1044v-215h664v215h-664zM4 1044v166h162v199h274v-199h664v199h274v-199h162v-166h-162v-1044h-274v596h-664v-596h-274v1044h-162z" />
    <glyph glyph-name="hbar" unicode="&#x127;" horiz-adv-x="1226" 
d="M408 1204v-98q0 -97 -13 -250h8q39 80 118.5 124t174.5 44q186 0 293 -100.5t107 -317.5v-606h-265v573q0 192 -74.5 219t-121.5 27q-100 0 -163.5 -80t-63.5 -215v-524h-265v1204h-143v144h143v151h265v-151h290v-144h-290z" />
    <glyph glyph-name="Itilde" unicode="&#x128;" horiz-adv-x="606" 
d="M147 1671q-66 0 -77 -98h-125q0 185 80.5 220.5t126.5 35.5t85 -12.5t91.5 -36t78 -33.5t52.5 -10q67 0 78 98h125q-6 -184 -84 -219t-124 -35q-68 0 -168.5 45t-138.5 45zM166 0v1409h274v-1409h-274z" />
    <glyph glyph-name="itilde" unicode="&#x129;" horiz-adv-x="550" 
d="M121 1300q-68 0 -78 -98h-125q0 115 55 184.5t156 69.5q69 0 147 -36t104 -45t52 -9q67 0 78 98h125q-6 -186 -84 -221t-124 -35q-69 0 -170.5 46t-135.5 46zM143 0v999h265v-999h-265z" />
    <glyph glyph-name="Imacron" unicode="&#x12a;" horiz-adv-x="606" 
d="M-6 1589v178h610v-178h-610zM166 0v1409h274v-1409h-274z" />
    <glyph glyph-name="imacron" unicode="&#x12b;" horiz-adv-x="550" 
d="M-33 1243v176h611v-176h-611zM143 0v999h265v-999h-265z" />
    <glyph glyph-name="Ibreve" unicode="&#x12c;" horiz-adv-x="606" 
d="M303 1573q-126 0 -216 74.5t-101 234.5h145q25 -160 172 -160q106 0 136 61.5t36 98.5h146q-11 -159 -101.5 -234t-216.5 -75zM166 0v1409h274v-1409h-274z" />
    <glyph glyph-name="ibreve" unicode="&#x12d;" horiz-adv-x="550" 
d="M449 1487h145q-11 -161 -100.5 -236t-254.5 -75t-219.5 113.5t-60.5 197.5h145q25 -162 170 -162q144 0 175 162zM143 0v999h265v-999h-265z" />
    <glyph glyph-name="Iogonek" unicode="&#x12e;" horiz-adv-x="606" 
d="M139 -262q0 126 166 262h-139v1409h274v-1409h-6q-123 -130 -123 -215.5t105 -85.5h59v-150h-82q-254 0 -254 189z" />
    <glyph glyph-name="iogonek" unicode="&#x12f;" horiz-adv-x="550" 
d="M135 1253v246h281v-246h-281zM113 -262q0 128 166 262h-136v999h265v-999q-123 -130 -123 -215.5t104 -85.5h60v-150h-82q-254 0 -254 189z" />
    <glyph glyph-name="Idotaccent" unicode="&#x130;" horiz-adv-x="606" 
d="M182 1573v237h242v-237h-242zM166 0v1409h274v-1409h-274z" />
    <glyph glyph-name="dotlessi" unicode="&#x131;" horiz-adv-x="550" 
d="M143 0v999h265v-999h-265z" />
    <glyph glyph-name="IJ" unicode="&#x132;" horiz-adv-x="1748" 
d="M954 424q0 -221 187.5 -221t187.5 233v973h275v-967q0 -354 -176.5 -410.5t-282.5 -56.5q-214 0 -337.5 109t-123.5 340v61h270v-61zM166 0v1409h274v-1409h-274z" />
    <glyph glyph-name="ij" unicode="&#x133;" horiz-adv-x="1103" 
d="M696 -94v1093h262v-1112q0 -169 -77.5 -253.5t-272.5 -84.5h-84v205h54q94 0 106 56.5t12 95.5zM688 1253v246h279v-246h-279zM143 0v999h265v-999h-265zM135 1253v246h281v-246h-281z" />
    <glyph glyph-name="Jcircumflex" unicode="&#x134;" horiz-adv-x="1138" 
d="M500 1573l262 336h201l262 -336h-217l-146 203l-145 -203h-217zM604 203q115 0 115 237v969h276v-967q0 -247 -123 -357t-337 -110t-337.5 108.5t-123.5 340.5v61h270v-55q0 -171 72.5 -199t187.5 -28z" />
    <glyph glyph-name="jcircumflex" unicode="&#x135;" horiz-adv-x="550" 
d="M-86 1163l262 336h201l262 -336h-217l-146 203l-145 -203h-217zM143 -94v1093h265v-1112q0 -169 -79.5 -253.5t-271.5 -84.5h-84v205h54q92 0 104 56.5t12 95.5z" />
    <glyph glyph-name="Kcommaaccent" unicode="&#x136;" horiz-adv-x="1425" 
d="M612 -125h242v-180l-102 -221h-109l72 194h-103v207zM166 0v1409h274v-668l619 668h317l-571 -606l604 -803h-315l-465 616l-189 -200v-416h-274z" />
    <glyph glyph-name="kcommaaccent" unicode="&#x137;" horiz-adv-x="1126" 
d="M473 -125h242v-180l-103 -221h-108l71 194h-102v207zM143 0v1499h265v-915l374 415h299l-372 -399l409 -600h-303l-280 414l-127 -135v-279h-265z" />
    <glyph glyph-name="Lacute" unicode="&#x139;" horiz-adv-x="1185" 
d="M209 1573l205 336h278l-303 -336h-180zM166 0v1409h274v-1178h674v-231h-948z" />
    <glyph glyph-name="lacute" unicode="&#x13a;" horiz-adv-x="550" 
d="M184 1651l205 336h279l-303 -336h-181zM143 0v1499h265v-1499h-265z" />
    <glyph glyph-name="Lcommaaccent" unicode="&#x13b;" horiz-adv-x="1185" 
d="M512 -125h242v-180l-103 -221h-108l71 194h-102v207zM166 0v1409h274v-1178h674v-231h-948z" />
    <glyph glyph-name="lcommaaccent" unicode="&#x13c;" horiz-adv-x="550" 
d="M156 -125h241v-180l-102 -221h-109l72 194h-102v207zM143 0v1499h265v-1499h-265z" />
    <glyph glyph-name="Lcaron" unicode="&#x13d;" horiz-adv-x="1185" 
d="M692 1190v219h250v-197l-104 -245h-113l72 223h-105zM166 0v1409h274v-1178h674v-231h-948z" />
    <glyph glyph-name="lcaron" unicode="&#x13e;" horiz-adv-x="550" 
d="M143 0v1499h265v-1499h-265zM551 1280v219h250v-196l-105 -246h-112l71 223h-104z" />
    <glyph glyph-name="Ldot" unicode="&#x13f;" horiz-adv-x="1185" 
d="M664 623v245h249v-245h-249zM166 0v1409h274v-1178h674v-231h-948z" />
    <glyph glyph-name="ldot" unicode="&#x140;" horiz-adv-x="784" 
d="M547 549v246h250v-246h-250zM143 0v1499h265v-1499h-265z" />
    <glyph glyph-name="Lslash" unicode="&#x141;" horiz-adv-x="1185" 
d="M166 1409h274v-561l267 190v-194l-267 -191v-422h674v-231h-948v459l-158 -115v195l158 114v756z" />
    <glyph glyph-name="lslash" unicode="&#x142;" horiz-adv-x="550" 
d="M143 1499h265v-594l133 119v-190l-133 -121v-713h-265v479l-131 -114v190l131 117v827z" />
    <glyph glyph-name="Nacute" unicode="&#x143;" horiz-adv-x="1560" 
d="M688 1573l205 336h278l-303 -336h-180zM166 0v1409h248l706 -942h8l-8 942h275v-1409h-244l-711 942h-8l8 -942h-274z" />
    <glyph glyph-name="nacute" unicode="&#x144;" horiz-adv-x="1226" 
d="M526 1163l205 336h279l-303 -336h-181zM143 0v999h252v-143h8q39 80 118.5 124t174.5 44q186 0 293 -100.5t107 -317.5v-606h-265v573q0 192 -74.5 219t-121.5 27q-100 0 -163.5 -80t-63.5 -213v-526h-265z" />
    <glyph glyph-name="Ncommaaccent" unicode="&#x145;" horiz-adv-x="1560" 
d="M659 -125h242v-180l-102 -221h-109l72 194h-103v207zM166 0v1409h248l706 -942h8l-8 942h275v-1409h-244l-711 942h-8l8 -942h-274z" />
    <glyph glyph-name="ncommaaccent" unicode="&#x146;" horiz-adv-x="1226" 
d="M489 -125h242v-180l-102 -221h-109l72 194h-103v207zM143 0v999h252v-143h8q39 80 118.5 124t174.5 44q186 0 293 -100.5t107 -317.5v-606h-265v573q0 192 -74.5 219t-121.5 27q-100 0 -163.5 -80t-63.5 -213v-526h-265z" />
    <glyph glyph-name="Ncaron" unicode="&#x147;" horiz-adv-x="1560" 
d="M680 1573l-262 336h217l145 -203l146 203h217l-262 -336h-201zM166 0v1409h248l706 -942h8l-8 942h275v-1409h-244l-711 942h-8l8 -942h-274z" />
    <glyph glyph-name="ncaron" unicode="&#x148;" horiz-adv-x="1226" 
d="M518 1163l-262 336h217l145 -203l146 203h217l-262 -336h-201zM143 0v999h252v-143h8q39 80 118.5 124t174.5 44q186 0 293 -100.5t107 -317.5v-606h-265v573q0 192 -74.5 219t-121.5 27q-100 0 -163.5 -80t-63.5 -213v-526h-265z" />
    <glyph glyph-name="napostrophe" unicode="&#x149;" horiz-adv-x="1226" 
d="M129 1360v207h242v-183l-103 -221h-108l71 197h-102zM143 0v999h252v-143h8q39 80 118.5 124t174.5 44q186 0 293 -100.5t107 -317.5v-606h-265v573q0 192 -74.5 219t-121.5 27q-100 0 -163.5 -80t-63.5 -213v-526h-265z" />
    <glyph glyph-name="Eng" unicode="&#x14a;" horiz-adv-x="1560" 
d="M166 0v1409h248l710 -942h9l-13 942h275v-1452q0 -224 -90 -316t-301 -92h-121v218h82q130 0 150 71.5t20 126.5v55l-699 922h-8l12 -942h-274z" />
    <glyph glyph-name="eng" unicode="&#x14b;" horiz-adv-x="1226" 
d="M831 -94v667q0 192 -74.5 219t-121.5 27q-100 0 -163.5 -80t-63.5 -213v-526h-265v999h252v-143h8q39 80 118.5 124t174.5 44q186 0 293 -100.5t107 -317.5v-719q0 -169 -79.5 -253.5t-271.5 -84.5h-86v205h54q94 0 106 56.5t12 95.5z" />
    <glyph glyph-name="Omacron" unicode="&#x14c;" horiz-adv-x="1615" 
d="M500 1589v178h610v-178h-610zM373 704.5q0 -106.5 30.5 -197.5t89 -157.5t139.5 -102.5t177 -36t176 37t138.5 103.5t89 156.5t30.5 196.5t-30.5 196.5t-89 156.5t-138.5 103.5t-176 37t-177 -36t-139.5 -102.5t-89 -157.5t-30.5 -197.5zM90 704.5q0 320.5 198.5 525
t518.5 204.5q321 0 520 -206.5t199 -523t-199 -523t-520 -206.5t-519 204.5t-198 525z" />
    <glyph glyph-name="omacron" unicode="&#x14d;" horiz-adv-x="1214" 
d="M299 1243v176h610v-176h-610zM795.5 264.5q68.5 88.5 68.5 236.5q0 149 -68 234.5t-186.5 85.5t-189 -87.5t-70.5 -235t70.5 -235t188.5 -87.5t186.5 88.5zM226 882q148 142 387 142q238 0 381 -141t143 -383t-149 -383.5t-386 -141.5q-238 0 -381 141t-143 383
q0 241 148 383z" />
    <glyph glyph-name="Obreve" unicode="&#x14e;" horiz-adv-x="1615" 
d="M809 1573q-126 0 -216 74.5t-101 234.5h145q25 -160 172 -160q106 0 136 61.5t36 98.5h145q-11 -160 -101 -234.5t-216 -74.5zM373 704.5q0 -106.5 30.5 -197.5t89 -157.5t139.5 -102.5t177 -36t176 37t138.5 103.5t89 156.5t30.5 196.5t-30.5 196.5t-89 156.5
t-138.5 103.5t-176 37t-177 -36t-139.5 -102.5t-89 -157.5t-30.5 -197.5zM90 704.5q0 320.5 198.5 525t518.5 204.5q321 0 520 -206.5t199 -523t-199 -523t-520 -206.5t-519 204.5t-198 525z" />
    <glyph glyph-name="obreve" unicode="&#x14f;" horiz-adv-x="1214" 
d="M608 1325q107 0 136.5 62.5t35.5 99.5h146q-11 -161 -100.5 -236t-255.5 -75t-219.5 113.5t-59.5 197.5h145q25 -162 172 -162zM795.5 264.5q68.5 88.5 68.5 236.5q0 149 -68 234.5t-186.5 85.5t-189 -87.5t-70.5 -235t70.5 -235t188.5 -87.5t186.5 88.5zM226 882
q148 142 387 142q238 0 381 -141t143 -383t-149 -383.5t-386 -141.5q-238 0 -381 141t-143 383q0 241 148 383z" />
    <glyph glyph-name="Ohungarumlaut" unicode="&#x150;" horiz-adv-x="1615" 
d="M514 1573l205 336h276l-301 -336h-180zM920 1573l204 336h279l-303 -336h-180zM373 704.5q0 -106.5 30.5 -197.5t89 -157.5t139.5 -102.5t177 -36t176 37t138.5 103.5t89 156.5t30.5 196.5t-30.5 196.5t-89 156.5t-138.5 103.5t-176 37t-177 -36t-139.5 -102.5
t-89 -157.5t-30.5 -197.5zM90 704.5q0 320.5 198.5 525t518.5 204.5q321 0 520 -206.5t199 -523t-199 -523t-520 -206.5t-519 204.5t-198 525z" />
    <glyph glyph-name="ohungarumlaut" unicode="&#x151;" horiz-adv-x="1214" 
d="M313 1163l205 336h277l-301 -336h-181zM719 1163l205 336h278l-303 -336h-180zM795.5 264.5q68.5 88.5 68.5 236.5q0 149 -68 234.5t-186.5 85.5t-189 -87.5t-70.5 -235t70.5 -235t188.5 -87.5t186.5 88.5zM226 882q148 142 387 142q238 0 381 -141t143 -383t-149 -383.5
t-386 -141.5q-238 0 -381 141t-143 383q0 241 148 383z" />
    <glyph glyph-name="OE" unicode="&#x152;" horiz-adv-x="2203" 
d="M373 704.5q0 -210.5 117.5 -344t367.5 -133.5h191v955h-191q-250 0 -367.5 -133.5t-117.5 -344zM840 0q-364 0 -557 195t-193 509.5t193 509.5t557 195h1241v-227h-758v-355h614v-217h-614v-383h778v-227h-1261z" />
    <glyph glyph-name="oe" unicode="&#x153;" horiz-adv-x="1931" 
d="M1587 612q-23 222 -221 222q-184 0 -240 -222h461zM346 499.5q0 -145.5 70.5 -234.5t188.5 -89t187.5 89t69.5 236t-70 234.5t-187.5 87.5t-188 -89t-70.5 -234.5zM985 143q-127 -168 -409 -168q-90 0 -188.5 37t-169.5 105.5t-107.5 166t-36.5 277t148 321.5t382 142
q191 0 274 -65.5t113 -106.5q130 172 366 172t368.5 -132.5t132.5 -365.5v-73h-740q12 -203 106.5 -244t145.5 -41q98 0 150.5 40t68.5 95h256q-25 -140 -153.5 -234t-318.5 -94q-261 0 -388 168z" />
    <glyph glyph-name="Racute" unicode="&#x154;" horiz-adv-x="1421" 
d="M578 1573l204 336h279l-303 -336h-180zM758 1188h-318v-461h318q184 0 219 94.5t35 146.5q0 104 -67.5 162t-186.5 58zM166 0v1409h604q251 0 385.5 -114.5t134.5 -336.5t-112.5 -305.5t-184.5 -107.5l350 -545h-299l-323 512h-281v-512h-274z" />
    <glyph glyph-name="racute" unicode="&#x155;" horiz-adv-x="808" 
d="M381 1163l205 336h278l-303 -336h-180zM631 788q-111 0 -167 -85.5t-56 -225.5v-477h-265v999h252v-151h4q55 125 137 150.5t114 25.5q90 0 155 -41l-53 -227q-64 32 -121 32z" />
    <glyph glyph-name="Rcommaaccent" unicode="&#x156;" horiz-adv-x="1421" 
d="M586 -125h241v-180l-102 -221h-109l72 194h-102v207zM758 1188h-318v-461h318q184 0 219 94.5t35 146.5q0 104 -67.5 162t-186.5 58zM166 0v1409h604q251 0 385.5 -114.5t134.5 -336.5t-112.5 -305.5t-184.5 -107.5l350 -545h-299l-323 512h-281v-512h-274z" />
    <glyph glyph-name="rcommaaccent" unicode="&#x157;" horiz-adv-x="808" 
d="M152 -125h241v-180l-102 -221h-109l72 194h-102v207zM631 788q-111 0 -167 -85.5t-56 -225.5v-477h-265v999h252v-151h4q55 125 137 150.5t114 25.5q90 0 155 -41l-53 -227q-64 32 -121 32z" />
    <glyph glyph-name="Rcaron" unicode="&#x158;" horiz-adv-x="1421" 
d="M569 1573l-262 336h217l146 -203l145 203h217l-262 -336h-201zM758 1188h-318v-461h318q184 0 219 94.5t35 146.5q0 104 -67.5 162t-186.5 58zM166 0v1409h604q251 0 385.5 -114.5t134.5 -336.5t-112.5 -305.5t-184.5 -107.5l350 -545h-299l-323 512h-281v-512h-274z" />
    <glyph glyph-name="rcaron" unicode="&#x159;" horiz-adv-x="808" 
d="M373 1163l-262 336h217l145 -203l145 203h218l-263 -336h-200zM631 788q-111 0 -167 -85.5t-56 -225.5v-477h-265v999h252v-151h4q55 125 137 150.5t114 25.5q90 0 155 -41l-53 -227q-64 32 -121 32z" />
    <glyph glyph-name="Sacute" unicode="&#x15a;" horiz-adv-x="1368" 
d="M586 1573l205 336h278l-303 -336h-180zM102 401h269q0 -102 83.5 -161.5t223.5 -59.5q141 0 224 56t83 150q0 95 -72.5 134t-207.5 66l-95 16q-106 18 -295.5 72.5t-189.5 335.5q0 183 152 303.5t398 120.5q247 0 396.5 -110t149.5 -296h-269q0 94 -76.5 147.5
t-198.5 53.5t-200 -50t-78 -157t118 -137.5t192 -42.5l94 -17q214 -39 338.5 -123.5t124.5 -283.5t-157.5 -321t-432.5 -122t-424.5 113t-149.5 313z" />
    <glyph glyph-name="sacute" unicode="&#x15b;" horiz-adv-x="1079" 
d="M444 1163l205 336h279l-303 -336h-181zM526 150q211 0 211 124q0 52 -38.5 77t-108.5 36l-182 29q-312 45 -312 282q0 152 123 239t318 87q309 0 372.5 -113.5t63.5 -189.5h-244q0 129 -162.5 129t-189.5 -45t-27 -71q0 -47 36 -74.5t122 -38.5l180 -29q223 -33 267 -123
t44 -166q0 -159 -128 -243.5t-339 -84.5t-336.5 77.5t-125.5 234.5h247q0 -105 84 -121t125 -16z" />
    <glyph glyph-name="Scircumflex" unicode="&#x15c;" horiz-adv-x="1368" 
d="M315 1573l263 336h200l262 -336h-217l-145 203l-146 -203h-217zM102 401h269q0 -102 83.5 -161.5t223.5 -59.5q141 0 224 56t83 150q0 95 -72.5 134t-207.5 66l-95 16q-106 18 -295.5 72.5t-189.5 335.5q0 183 152 303.5t398 120.5q247 0 396.5 -110t149.5 -296h-269
q0 94 -76.5 147.5t-198.5 53.5t-200 -50t-78 -157t118 -137.5t192 -42.5l94 -17q214 -39 338.5 -123.5t124.5 -283.5t-157.5 -321t-432.5 -122t-424.5 113t-149.5 313z" />
    <glyph glyph-name="scircumflex" unicode="&#x15d;" horiz-adv-x="1079" 
d="M174 1163l262 336h201l262 -336h-217l-145 203l-146 -203h-217zM526 150q211 0 211 124q0 52 -38.5 77t-108.5 36l-182 29q-312 45 -312 282q0 152 123 239t318 87q309 0 372.5 -113.5t63.5 -189.5h-244q0 129 -162.5 129t-189.5 -45t-27 -71q0 -47 36 -74.5t122 -38.5
l180 -29q223 -33 267 -123t44 -166q0 -159 -128 -243.5t-339 -84.5t-336.5 77.5t-125.5 234.5h247q0 -105 84 -121t125 -16z" />
    <glyph glyph-name="Scedilla" unicode="&#x15e;" horiz-adv-x="1368" 
d="M733 -250q0 70 -96 70h-68l56 157q-383 18 -453 174t-70 250h269q0 -102 83.5 -161.5t223.5 -59.5q141 0 224 56t83 150q0 95 -72.5 134t-207.5 66l-95 16q-106 18 -295.5 72.5t-189.5 335.5q0 183 152 303.5t398 120.5q247 0 396.5 -110t149.5 -296h-269
q0 94 -76.5 147.5t-198.5 53.5t-200 -50t-78 -157t118 -137.5t192 -42.5l94 -17q214 -39 338.5 -123.5t124.5 -279.5t-145 -315t-404 -130v-55q136 -6 162 -72.5t26 -106.5q0 -87 -60.5 -140.5t-178.5 -53.5h-138v127h109q74 0 85 27t11 47z" />
    <glyph glyph-name="scedilla" unicode="&#x15f;" horiz-adv-x="1079" 
d="M489 -324q97 0 97 72t-97 72h-67l55 157q-181 8 -294 86t-113 224h247q0 -105 84 -121t125 -16q211 0 211 124q0 52 -38.5 77t-108.5 36l-182 29q-312 45 -312 282q0 152 123 239t318 87q309 0 372.5 -113.5t63.5 -189.5h-244q0 129 -162.5 129t-189.5 -45t-27 -71
q0 -47 36 -74.5t122 -38.5l180 -29q223 -33 267 -123t44 -164q0 -153 -116 -235.5t-314 -92.5v-55q134 -6 161.5 -72.5t27.5 -106.5q0 -86 -60 -140t-180 -54h-137v127h108z" />
    <glyph glyph-name="Scaron" unicode="&#x160;" horiz-adv-x="1368" 
d="M578 1573l-263 336h217l146 -203l145 203h217l-262 -336h-200zM102 401h269q0 -102 83.5 -161.5t223.5 -59.5q141 0 224 56t83 150q0 95 -72.5 134t-207.5 66l-95 16q-106 18 -295.5 72.5t-189.5 335.5q0 183 152 303.5t398 120.5q247 0 396.5 -110t149.5 -296h-269
q0 94 -76.5 147.5t-198.5 53.5t-200 -50t-78 -157t118 -137.5t192 -42.5l94 -17q214 -39 338.5 -123.5t124.5 -283.5t-157.5 -321t-432.5 -122t-424.5 113t-149.5 313z" />
    <glyph glyph-name="scaron" unicode="&#x161;" horiz-adv-x="1079" 
d="M436 1163l-262 336h217l146 -203l145 203h217l-262 -336h-201zM526 150q211 0 211 124q0 52 -38.5 77t-108.5 36l-182 29q-312 45 -312 282q0 152 123 239t318 87q309 0 372.5 -113.5t63.5 -189.5h-244q0 129 -162.5 129t-189.5 -45t-27 -71q0 -47 36 -74.5t122 -38.5
l180 -29q223 -33 267 -123t44 -166q0 -159 -128 -243.5t-339 -84.5t-336.5 77.5t-125.5 234.5h247q0 -105 84 -121t125 -16z" />
    <glyph glyph-name="Tcommaaccent" unicode="&#x162;" horiz-adv-x="1261" 
d="M692 -250q0 70 -96 70h-68l64 180h-98v1180h-478v229h1229v-229h-477v-1180h-92v-78q136 -6 162 -72.5t26 -106.5q0 -87 -60.5 -140.5t-178.5 -53.5h-138v127h109q74 0 85 27t11 47z" />
    <glyph glyph-name="tcommaaccent" unicode="&#x163;" horiz-adv-x="739" 
d="M391 -324q94 0 94 72t-94 72h-69l61 194q-157 34 -180 145t-23 185v459h-188v196h188v304h262v-304h248v-196h-248v-443q0 -80 31 -113.5t109 -33.5h108v-213h-120l-99 2v-80q136 -6 162 -72.5t26 -106.5q0 -88 -62 -141t-179 -53h-137v127h110z" />
    <glyph glyph-name="Tcaron" unicode="&#x164;" horiz-adv-x="1261" 
d="M528 1573l-262 336h217l146 -203l145 203h217l-262 -336h-201zM16 1180v229h1229v-229h-477v-1180h-274v1180h-478z" />
    <glyph glyph-name="tcaron" unicode="&#x165;" horiz-adv-x="739" 
d="M526 1337v219h250v-196l-104 -246h-113l72 223h-105zM180 344v459h-188v196h188v304h262v-304h248v-196h-248v-443q0 -80 31 -113.5t109 -33.5h108v-213h-160q-194 0 -272 78t-78 266z" />
    <glyph glyph-name="Tbar" unicode="&#x166;" horiz-adv-x="1261" 
d="M16 1180v229h1227v-229h-475v-473h358v-162h-358v-545h-274v545h-359v162h359v473h-478z" />
    <glyph glyph-name="tbar" unicode="&#x167;" horiz-adv-x="739" 
d="M-8 444v142h188v217h-188v196h188v304h262v-304h248v-196h-248v-217h248v-142h-248v-92q0 -75 31.5 -107t108.5 -32h108v-213h-162q-188 0 -268 76t-80 246v122h-188z" />
    <glyph glyph-name="Utilde" unicode="&#x168;" horiz-adv-x="1492" 
d="M592 1671q-67 0 -78 -98h-125q0 116 54.5 186t156.5 70q66 0 145.5 -36t105.5 -46t52 -10q67 0 78 98h125q-6 -184 -84 -219t-124 -35q-69 0 -168.5 45t-137.5 45zM1354 565q0 -590 -607.5 -590t-607.5 590v844h277v-840q0 -358 332 -358q245 0 287 136t42 222v840h277
v-844z" />
    <glyph glyph-name="utilde" unicode="&#x169;" horiz-adv-x="1218" 
d="M457 1300q-68 0 -78 -98h-125q0 115 55 184.5t156 69.5q69 0 147 -36t103.5 -45t52.5 -9q67 0 78 98h125q-6 -186 -84 -221t-124 -35q-69 0 -170.5 46t-135.5 46zM391 426q0 -246 195 -246q100 0 162.5 78t62.5 213v528h262v-999h-250v143h-8q-82 -168 -303 -168
q-269 0 -327 152.5t-58 265.5v606h264v-573z" />
    <glyph glyph-name="Umacron" unicode="&#x16a;" horiz-adv-x="1492" 
d="M438 1589v178h611v-178h-611zM1354 565q0 -590 -607.5 -590t-607.5 590v844h277v-840q0 -358 332 -358q245 0 287 136t42 222v840h277v-844z" />
    <glyph glyph-name="umacron" unicode="&#x16b;" horiz-adv-x="1218" 
d="M303 1243v176h610v-176h-610zM391 426q0 -246 195 -246q100 0 162.5 78t62.5 213v528h262v-999h-250v143h-8q-82 -168 -303 -168q-269 0 -327 152.5t-58 265.5v606h264v-573z" />
    <glyph glyph-name="Ubreve" unicode="&#x16c;" horiz-adv-x="1492" 
d="M747.5 1573q-125.5 0 -216 75t-101.5 234h145q25 -160 173 -160q67 0 112 41.5t60 118.5h145q-11 -159 -101.5 -234t-216 -75zM1354 565q0 -590 -607.5 -590t-607.5 590v844h277v-840q0 -358 332 -358q245 0 287 136t42 222v840h277v-844z" />
    <glyph glyph-name="ubreve" unicode="&#x16d;" horiz-adv-x="1218" 
d="M612 1325q68 0 113.5 41.5t58.5 120.5h146q-11 -161 -100.5 -236t-255.5 -75t-219.5 113.5t-59.5 197.5h145q25 -162 172 -162zM391 426q0 -246 195 -246q100 0 162.5 78t62.5 213v528h262v-999h-250v143h-8q-82 -168 -303 -168q-269 0 -327 152.5t-58 265.5v606h264
v-573z" />
    <glyph glyph-name="Uring" unicode="&#x16e;" horiz-adv-x="1492" 
d="M747.5 1655q20.5 0 38 7t30.5 20.5t21.5 32t8.5 39t-8.5 38.5t-21.5 32.5t-30.5 21.5t-38 7t-38 -7t-30.5 -21.5t-21.5 -32.5t-8.5 -38.5t8.5 -39t21.5 -32t30.5 -20.5t38 -7zM747.5 1546q-45.5 0 -85 15.5t-70.5 43t-47.5 65.5t-16.5 83t16.5 84t47.5 66.5t70.5 43
t85 15.5t85 -15.5t69.5 -43t47.5 -66.5t17.5 -84t-16.5 -83t-47.5 -65.5t-70.5 -43t-85 -15.5zM1354 565q0 -590 -607.5 -590t-607.5 590v844h277v-840q0 -358 332 -358q245 0 287 136t42 222v840h277v-844z" />
    <glyph glyph-name="uring" unicode="&#x16f;" horiz-adv-x="1218" 
d="M612.5 1245q20.5 0 38 7.5t30.5 20.5t21.5 31.5t8.5 39t-8.5 39t-21.5 33t-30.5 21.5t-38 7t-38 -7t-31 -21.5t-21.5 -33t-8 -39t8 -39t21.5 -31.5t31 -20.5t38 -7.5zM612 1137q-45 0 -85 15t-70.5 43t-47 65.5t-16.5 83t16.5 84t47 66.5t70.5 43t85 15t85 -15t70 -43
t47 -66.5t17 -84t-16 -83t-47 -65.5t-71 -43t-85 -15zM391 426q0 -246 195 -246q100 0 162.5 78t62.5 213v528h262v-999h-250v143h-8q-82 -168 -303 -168q-269 0 -327 152.5t-58 265.5v606h264v-573z" />
    <glyph glyph-name="Uhungarumlaut" unicode="&#x170;" horiz-adv-x="1492" 
d="M453 1573l204 336h277l-301 -336h-180zM858 1573l205 336h278l-303 -336h-180zM1354 565q0 -590 -607.5 -590t-607.5 590v844h277v-840q0 -358 332 -358q245 0 287 136t42 222v840h277v-844z" />
    <glyph glyph-name="uhungarumlaut" unicode="&#x171;" horiz-adv-x="1218" 
d="M317 1163l205 336h277l-301 -336h-181zM723 1163l205 336h278l-303 -336h-180zM391 426q0 -246 195 -246q100 0 162.5 78t62.5 213v528h262v-999h-250v143h-8q-82 -168 -303 -168q-269 0 -327 152.5t-58 265.5v606h264v-573z" />
    <glyph glyph-name="Uogonek" unicode="&#x172;" horiz-adv-x="1492" 
d="M915 -451q-260 0 -260 201q0 126 160 227h-3l-17 -1l-47 -1q-609 0 -609 590v844h277v-840q0 -358 332 -358q245 0 287 136t42 222v840h277v-844q0 -385 -269 -524q-129 -70 -190 -131t-61 -119q0 -92 102 -92h61v-150h-82z" />
    <glyph glyph-name="uogonek" unicode="&#x173;" horiz-adv-x="1218" 
d="M1032 -451q-254 0 -254 189q0 126 166 262h-121v143h-8q-82 -168 -303 -168q-270 0 -327.5 153t-57.5 265v606h264v-573q0 -246 195 -246q100 0 162.5 78t62.5 213v528h262v-999q-123 -130 -123 -215.5t105 -85.5h59v-150h-82z" />
    <glyph glyph-name="Wcircumflex" unicode="&#x174;" horiz-adv-x="2002" 
d="M641 1573l262 336h201l262 -336h-217l-145 203l-146 -203h-217zM383 0l-363 1409h295l252 -1114h8l289 1114h285l295 -1114h8l244 1114h286l-356 -1409h-340l-280 1061h-9l-276 -1061h-338z" />
    <glyph glyph-name="wcircumflex" unicode="&#x175;" horiz-adv-x="1589" 
d="M432 1163l262 336h201l262 -336h-217l-145 203l-146 -203h-217zM303 0l-291 999h264l183 -739h8l203 739h258l202 -739h9l182 739h256l-291 -999h-297l-190 729h-8l-193 -729h-295z" />
    <glyph glyph-name="Ycircumflex" unicode="&#x176;" horiz-adv-x="1361" 
d="M319 1573l263 336h200l262 -336h-217l-145 203l-145 -203h-218zM539 0v541l-519 868h312l346 -606h8l365 606h290l-526 -860v-549h-276z" />
    <glyph glyph-name="ycircumflex" unicode="&#x177;" horiz-adv-x="1060" 
d="M166 1163l262 336h201l262 -336h-217l-146 203l-145 -203h-217zM248 -467h-121v209h61q136 0 179 68.5t59 117.5l23 72h-72l-369 999h287l242 -739h8l239 739h269l-400 -1122q-119 -344 -405 -344z" />
    <glyph glyph-name="Ydieresis" unicode="&#x178;" horiz-adv-x="1361" 
d="M338 1573v237h240v-237h-240zM784 1573v237h242v-237h-242zM539 0v541l-519 868h312l346 -606h8l365 606h290l-526 -860v-549h-276z" />
    <glyph glyph-name="Zacute" unicode="&#x179;" horiz-adv-x="1253" 
d="M535 1573l204 336h279l-303 -336h-180zM100 1184v225h1082v-160l-752 -1024h748v-225h-1108v160l753 1024h-723z" />
    <glyph glyph-name="zacute" unicode="&#x17a;" horiz-adv-x="980" 
d="M395 1163l205 336h279l-304 -336h-180zM66 799v200h841v-153l-504 -645h512v-201h-845v143l512 656h-516z" />
    <glyph glyph-name="Zdotaccent" unicode="&#x17b;" horiz-adv-x="1253" 
d="M506 1573v237h242v-237h-242zM100 1184v225h1082v-160l-752 -1024h748v-225h-1108v160l753 1024h-723z" />
    <glyph glyph-name="zdotaccent" unicode="&#x17c;" horiz-adv-x="980" 
d="M367 1223v237h241v-237h-241zM66 799v200h841v-153l-504 -645h512v-201h-845v143l512 656h-516z" />
    <glyph glyph-name="Zcaron" unicode="&#x17d;" horiz-adv-x="1253" 
d="M526 1573l-262 336h217l146 -203l145 203h217l-262 -336h-201zM100 1184v225h1082v-160l-752 -1024h748v-225h-1108v160l753 1024h-723z" />
    <glyph glyph-name="zcaron" unicode="&#x17e;" horiz-adv-x="980" 
d="M387 1163l-262 336h217l145 -203l146 203h217l-262 -336h-201zM66 799v200h841v-153l-504 -645h512v-201h-845v143l512 656h-516z" />
    <glyph glyph-name="longs" unicode="&#x17f;" horiz-adv-x="698" 
d="M193 0v803h-189v196h189v134q0 283 138 324.5t236 41.5h152v-205h-98q-95 0 -129.5 -38.5t-34.5 -131.5v-1124h-264z" />
    <glyph glyph-name="florin" unicode="&#x192;" horiz-adv-x="1163" 
d="M208.5 -201q101.5 0 117.5 178l61 590h-240v166h259l34 330q38 371 381 371q243 0 279.5 -125t29.5 -213l-6 -78h-223l4 63q16 160 -73.5 160t-107 -66.5t-22.5 -111.5l-34 -330h290v-166h-307l-61 -590q-38 -370 -383 -370q-331 0 -307 338l4 78h225l-6 -64
q-16 -160 85.5 -160z" />
    <glyph glyph-name="AEacute" unicode="&#x1fc;" horiz-adv-x="2287" 
d="M1188 1573l205 336h278l-303 -336h-180zM1141 532v603h-8l-428 -603h436zM2165 1409v-227h-750v-355h606v-217h-606v-383h770v-227h-1044v315h-592l-223 -315h-316l1018 1409h1137z" />
    <glyph glyph-name="aeacute" unicode="&#x1fd;" horiz-adv-x="1777" 
d="M782 1163l205 336h279l-303 -336h-181zM1434 612q-17 222 -205 222q-135 0 -175 -84t-50 -138h430zM674.5 220.5q70.5 60.5 70.5 182.5v89q-15 -25 -47 -34t-51 -14l-153 -24q-107 -16 -127.5 -63t-20.5 -75t10.5 -51.5t41.5 -47t119 -23.5q87 0 157.5 60.5zM86 286
q0 160 126 212.5t214 64.5l192 29q80 12 103.5 29t23.5 54q0 72 -44.5 118.5t-130.5 46.5t-140.5 -41.5t-58.5 -122.5h-246q12 174 134 261t308 87q242 0 336 -121q129 121 335 121t336 -132t130 -366v-73h-707q12 -208 99.5 -246.5t140.5 -38.5q154 0 199 135h256
q-25 -140 -151 -234t-308 -94q-268 0 -391 193q-119 -193 -393 -193q-175 0 -269 75.5t-94 235.5z" />
    <glyph glyph-name="Oslashacute" unicode="&#x1fe;" horiz-adv-x="1615" 
d="M717 1573l205 336h278l-303 -336h-180zM1243 687q0 199 -88 329l-598 -727q117 -78 233 -78q210 0 331.5 138.5t121.5 337.5zM826 1198q-212 0 -332.5 -137t-120.5 -339q0 -201 88 -331l598 727q-120 80 -233 80zM289 180q-199 207 -199 524t199 523.5t520 206.5
q227 0 410 -119l98 119h182l-172 -209q199 -207 199 -521t-147.5 -467t-280.5 -207.5t-289 -54.5q-241 0 -414 117l-94 -117h-182z" />
    <glyph glyph-name="oslashacute" unicode="&#x1ff;" horiz-adv-x="1206" 
d="M512 1163l205 336h278l-303 -336h-180zM862 477q0 123 -33 193l-370 -447q55 -47 128 -47q136 0 205.5 89t69.5 212zM346 500q0 -85 14.5 -124.5t22.5 -58.5l375 451q-62 53 -136 53q-135 0 -205.5 -89t-70.5 -232zM217 117q-143 143 -143 382t149 382t381 143
q174 0 301 -78l64 78h153l-125 -150q136 -144 136 -378t-148.5 -377.5t-380.5 -143.5q-157 0 -293 70l-57 -70h-154z" />
    <glyph glyph-name="Scommaaccent" unicode="&#x218;" horiz-adv-x="1368" 
d="M553 -125h242v-180l-103 -221h-108l71 194h-102v207zM102 401h269q0 -102 83.5 -161.5t223.5 -59.5q141 0 224 56t83 150q0 95 -72.5 134t-207.5 66l-95 16q-106 18 -295.5 72.5t-189.5 335.5q0 183 152 303.5t398 120.5q247 0 396.5 -110t149.5 -296h-269
q0 94 -76.5 147.5t-198.5 53.5t-200 -50t-78 -157t118 -137.5t192 -42.5l94 -17q214 -39 338.5 -123.5t124.5 -283.5t-157.5 -321t-432.5 -122t-424.5 113t-149.5 313z" />
    <glyph glyph-name="scommaaccent" unicode="&#x219;" horiz-adv-x="1079" 
d="M406 -125h241v-180l-102 -221h-109l72 194h-102v207zM526 150q211 0 211 124q0 52 -38.5 77t-108.5 36l-182 29q-312 45 -312 282q0 152 123 239t318 87q309 0 372.5 -113.5t63.5 -189.5h-244q0 129 -162.5 129t-189.5 -45t-27 -71q0 -47 36 -74.5t122 -38.5l180 -29
q223 -33 267 -123t44 -166q0 -159 -128 -243.5t-339 -84.5t-336.5 77.5t-125.5 234.5h247q0 -105 84 -121t125 -16z" />
    <glyph glyph-name="uni021A" unicode="&#x21a;" horiz-adv-x="1261" 
d="M512 -125h242v-180l-103 -221h-108l71 194h-102v207zM16 1180v229h1229v-229h-477v-1180h-274v1180h-478z" />
    <glyph glyph-name="uni021B" unicode="&#x21b;" horiz-adv-x="739" 
d="M309 -125h242v-180l-102 -221h-109l72 194h-103v207zM180 344v459h-188v196h188v304h262v-304h248v-196h-248v-443q0 -80 31 -113.5t109 -33.5h108v-213h-160q-194 0 -272 78t-78 266z" />
    <glyph glyph-name="circumflex" unicode="&#x2c6;" horiz-adv-x="1200" 
d="M238 1163l262 336h200l263 -336h-218l-145 203l-145 -203h-217z" />
    <glyph glyph-name="caron" unicode="&#x2c7;" horiz-adv-x="1200" 
d="M500 1163l-262 336h217l145 -203l145 203h218l-263 -336h-200z" />
    <glyph glyph-name="uni02C9" unicode="&#x2c9;" horiz-adv-x="1200" 
d="M291 1243v176h610v-176h-610z" />
    <glyph glyph-name="breve" unicode="&#x2d8;" horiz-adv-x="1200" 
d="M600 1325q107 0 136.5 62.5t35.5 99.5h146q-11 -161 -100.5 -236t-255.5 -75t-219.5 113.5t-59.5 197.5h145q25 -162 172 -162z" />
    <glyph glyph-name="dotaccent" unicode="&#x2d9;" horiz-adv-x="1200" 
d="M479 1223v237h242v-237h-242z" />
    <glyph glyph-name="ring" unicode="&#x2da;" horiz-adv-x="1200" 
d="M600.5 1245q20.5 0 37.5 7.5t30.5 20.5t21.5 31.5t8 39t-8 39t-21.5 33t-30.5 21.5t-37.5 7t-38 -7t-31 -21.5t-21.5 -33t-8 -39t8 -39t21.5 -31.5t31 -20.5t38 -7.5zM600 1137q-45 0 -85 15t-70.5 43t-47 65.5t-16.5 83t16.5 84t47 66.5t70.5 43t85 15t85 -15t69.5 -43
t47 -66.5t17.5 -84t-16.5 -83t-47 -65.5t-70.5 -43t-85 -15z" />
    <glyph glyph-name="ogonek" unicode="&#x2db;" horiz-adv-x="1200" 
d="M690 -451q-254 0 -254 189q0 126 166 262h129q-123 -130 -123 -215.5t105 -85.5h59v-150h-82z" />
    <glyph glyph-name="tilde" unicode="&#x2dc;" horiz-adv-x="1200" 
d="M444 1300q-67 0 -77 -98h-125q0 183 80 218.5t126 35.5q72 0 170.5 -45t137.5 -45q62 0 78 98h124q-6 -186 -83.5 -221t-123.5 -35t-85 12.5t-91.5 36t-78 33.5t-52.5 10z" />
    <glyph glyph-name="hungarumlaut" unicode="&#x2dd;" horiz-adv-x="1200" 
d="M305 1163l205 336h276l-301 -336h-180zM711 1163l204 336h279l-303 -336h-180z" />
    <glyph glyph-name="uni0394" unicode="&#x394;" horiz-adv-x="1353" 
d="M674 1124h-8l-312 -911h631zM27 0l508 1409h284l506 -1409h-1298z" />
    <glyph glyph-name="uni03A9" unicode="&#x3a9;" horiz-adv-x="1425" 
d="M821 0v477q110 30 187 128.5t77 257.5t-104.5 262.5t-267.5 103.5t-268 -103t-105 -262t77.5 -256.5t186.5 -130.5v-477h-495v197h278v161q-220 104 -265.5 258t-45.5 258t45 209t129 184t202.5 123t332 44t389.5 -165.5t176 -412.5q0 -167 -83.5 -298.5t-228.5 -199.5
v-161h279v-197h-496z" />
    <glyph glyph-name="uni03BC" unicode="&#x3bc;" horiz-adv-x="1220" 
d="M399 426q0 -246 197 -246q100 0 161.5 81.5t61.5 213.5v524h264v-999h-252v143h-8q-78 -168 -299 -168q-75 0 -149 37q24 -196 24 -338v-125h-262v1450h262v-573z" />
    <glyph glyph-name="pi" unicode="&#x3c0;" horiz-adv-x="1249" 
d="M154 0v999h942v-999h-262v795h-418v-795h-262z" />
    <glyph glyph-name="Wgrave" unicode="&#x1e80;" horiz-adv-x="2002" 
d="M915 1573l-303 336h277l207 -336h-181zM383 0l-363 1409h295l252 -1114h8l289 1114h285l295 -1114h8l244 1114h286l-356 -1409h-340l-280 1061h-9l-276 -1061h-338z" />
    <glyph glyph-name="wgrave" unicode="&#x1e81;" horiz-adv-x="1589" 
d="M707 1163l-304 336h277l207 -336h-180zM303 0l-291 999h264l183 -739h8l203 739h258l202 -739h9l182 739h256l-291 -999h-297l-190 729h-8l-193 -729h-295z" />
    <glyph glyph-name="Wacute" unicode="&#x1e82;" horiz-adv-x="2002" 
d="M911 1573l205 336h279l-303 -336h-181zM383 0l-363 1409h295l252 -1114h8l289 1114h285l295 -1114h8l244 1114h286l-356 -1409h-340l-280 1061h-9l-276 -1061h-338z" />
    <glyph glyph-name="wacute" unicode="&#x1e83;" horiz-adv-x="1589" 
d="M702 1163l205 336h279l-303 -336h-181zM303 0l-291 999h264l183 -739h8l203 739h258l202 -739h9l182 739h256l-291 -999h-297l-190 729h-8l-193 -729h-295z" />
    <glyph glyph-name="Wdieresis" unicode="&#x1e84;" horiz-adv-x="2002" 
d="M659 1573v237h240v-237h-240zM1106 1573v237h242v-237h-242zM383 0l-363 1409h295l252 -1114h8l289 1114h285l295 -1114h8l244 1114h286l-356 -1409h-340l-280 1061h-9l-276 -1061h-338z" />
    <glyph glyph-name="wdieresis" unicode="&#x1e85;" horiz-adv-x="1589" 
d="M451 1223v237h239v-237h-239zM897 1223v237h242v-237h-242zM303 0l-291 999h264l183 -739h8l203 739h258l202 -739h9l182 739h256l-291 -999h-297l-190 729h-8l-193 -729h-295z" />
    <glyph glyph-name="Ygrave" unicode="&#x1ef2;" horiz-adv-x="1361" 
d="M594 1573l-303 336h276l207 -336h-180zM539 0v541l-519 868h312l346 -606h8l365 606h290l-526 -860v-549h-276z" />
    <glyph glyph-name="ygrave" unicode="&#x1ef3;" horiz-adv-x="1060" 
d="M440 1163l-303 336h277l207 -336h-181zM248 -467h-121v209h61q136 0 179 68.5t59 117.5l23 72h-72l-369 999h287l242 -739h8l239 739h269l-400 -1122q-119 -344 -405 -344z" />
    <glyph glyph-name="endash" unicode="&#x2013;" horiz-adv-x="1138" 
d="M109 403v226h921v-226h-921z" />
    <glyph glyph-name="emdash" unicode="&#x2014;" horiz-adv-x="1720" 
d="M109 403v226h1503v-226h-1503z" />
    <glyph glyph-name="quoteleft" unicode="&#x2018;" horiz-adv-x="538" 
d="M135 834v245l94 330h123l-67 -313h116v-262h-266z" />
    <glyph glyph-name="quoteright" unicode="&#x2019;" horiz-adv-x="538" 
d="M135 1147v262h266v-246l-92 -329h-123l66 313h-117z" />
    <glyph glyph-name="quotesinglbase" unicode="&#x201a;" horiz-adv-x="538" 
d="M135 0v262h266v-246l-92 -329h-123l66 313h-117z" />
    <glyph glyph-name="quotedblleft" unicode="&#x201c;" horiz-adv-x="958" 
d="M557 834v245l94 330h123l-67 -313h116v-262h-266zM135 834v245l94 330h123l-67 -313h116v-262h-266z" />
    <glyph glyph-name="quotedblright" unicode="&#x201d;" horiz-adv-x="958" 
d="M557 1147v262h266v-246l-94 -329h-121l66 313h-117zM135 1147v262h266v-246l-92 -329h-123l66 313h-117z" />
    <glyph glyph-name="quotedblbase" unicode="&#x201e;" horiz-adv-x="958" 
d="M557 0v262h266v-246l-94 -329h-121l66 313h-117zM135 0v262h266v-246l-92 -329h-123l66 313h-117z" />
    <glyph glyph-name="dagger" unicode="&#x2020;" horiz-adv-x="960" 
d="M90 877v188h279v344h223v-344h278v-188h-278v-877h-223v877h-279z" />
    <glyph glyph-name="daggerdbl" unicode="&#x2021;" horiz-adv-x="960" 
d="M90 899v188h279v322h223v-322h278v-188h-278v-397h278v-189h-278v-313h-223v313h-279v189h279v397h-279z" />
    <glyph glyph-name="bullet" unicode="&#x2022;" horiz-adv-x="999" 
d="M499.5 164q-73.5 0 -138 26.5t-112.5 74.5t-75 112.5t-27 138.5t27 138.5t75 112.5t112.5 74.5t138 26.5t138 -26.5t113 -74.5t75 -112.5t26.5 -138.5t-26.5 -138.5t-75 -112.5t-113 -74.5t-138 -26.5z" />
    <glyph glyph-name="ellipsis" unicode="&#x2026;" horiz-adv-x="1718" 
d="M141 0v287h297v-287h-297zM711 0v287h297v-287h-297zM1280 0v287h297v-287h-297z" />
    <glyph glyph-name="perthousand" unicode="&#x2030;" horiz-adv-x="2412" 
d="M248 1057q0 -211 127 -211q95 0 112 81t17 130q0 211 -128 211t-128 -211zM1909 352q0 -211 128 -211q61 0 94.5 55t33.5 156q0 211 -128 211t-128 -211zM1413 352q0 211 -111 211t-128 -81t-17 -156t33.5 -130t128 -55t94.5 211zM391 -25l713 1459h166l-713 -1459h-166z
M1286 -16q-82 0 -144.5 27.5t-103.5 77.5t-61.5 116.5t-20.5 146.5t20.5 146.5t61.5 117t103.5 78t144.5 27.5t144.5 -27.5t102.5 -78t60.5 -117t20.5 -146.5t-20.5 -146.5t-60.5 -116.5t-102.5 -77.5t-144.5 -27.5zM2036 -16q-82 0 -144.5 27.5t-103.5 77.5t-61.5 116.5
t-20.5 146.5t20.5 146.5t61.5 117t103.5 78t144.5 27.5t144.5 -27.5t103 -78t61 -117t20.5 -146.5t-20.5 -146.5t-61 -116.5t-103 -77.5t-144.5 -27.5zM375 688q-82 0 -144.5 27.5t-103.5 78t-61.5 117t-20.5 146.5t20.5 146.5t61.5 116.5t103.5 77.5t144.5 27.5
t144.5 -27.5t103.5 -77.5t61.5 -116.5t20.5 -146.5t-20.5 -146.5t-61.5 -117t-103.5 -78t-144.5 -27.5z" />
    <glyph glyph-name="guilsinglleft" unicode="&#x2039;" horiz-adv-x="708" 
d="M393 98l-295 418l295 418h215l-229 -418l229 -418h-215z" />
    <glyph glyph-name="guilsinglright" unicode="&#x203a;" horiz-adv-x="708" 
d="M98 98l232 418l-232 418h215l295 -418l-295 -418h-215z" />
    <glyph glyph-name="fraction" unicode="&#x2044;" horiz-adv-x="159" 
d="M-360 -25q643 1314 712 1459h166l-713 -1459h-165z" />
    <glyph glyph-name="uni2070" unicode="&#x2070;" 
d="M248 1368q0 -211 128 -211q61 0 94.5 55t33.5 156q0 211 -128 211t-128 -211zM375 999q-82 0 -144.5 28t-103.5 78t-61.5 116.5t-20.5 146.5t20.5 146.5t61.5 116.5t103.5 78t144.5 28t144.5 -28t103.5 -78t61.5 -116.5t20.5 -146.5t-20.5 -146.5t-61.5 -116.5
t-103.5 -78t-144.5 -28z" />
    <glyph glyph-name="uni2074" unicode="&#x2074;" 
d="M397 1284v201l-157 -201h157zM41 1135v114l385 475h176v-440h96v-149h-96v-119h-205v119h-356z" />
    <glyph glyph-name="uni2075" unicode="&#x2075;" 
d="M432 1466q170 0 208 -83t38 -142q0 -114 -82.5 -178t-210.5 -64q-212 0 -256.5 80t-48.5 125h199q11 -78 100 -78q40 0 63 20.5t31 41t8 59t-29 65.5t-73 27q-71 0 -96 -59l-189 18l29 422h518v-153h-350l-12 -150h6q49 49 147 49z" />
    <glyph glyph-name="uni2076" unicode="&#x2076;" 
d="M386 1339q-22 0 -40 -6t-32.5 -18t-22.5 -32.5t-8 -61t31 -68t62 -27.5q32 0 50 7.5t31.5 20.5t21.5 33.5t8 47.5t-8 46t-21.5 32.5t-31.5 19.5t-40 6zM391 999q-325 0 -325 353q0 292 128 338.5t198 46.5q136 0 204 -55.5t72 -153.5h-193q0 48 -32.5 62t-54.5 14
q-47 0 -78.5 -41t-39.5 -156q49 59 168 59q170 0 208 -83t38 -142q0 -114 -82.5 -178t-210.5 -64z" />
    <glyph glyph-name="uni2077" unicode="&#x2077;" 
d="M66 1550v170h626v-121l-327 -583h-213l303 534h-389z" />
    <glyph glyph-name="uni2078" unicode="&#x2078;" 
d="M401 1438q76 0 76 63t-19.5 78.5t-39 22t-44 6.5t-43 -6.5t-31.5 -16.5t-20.5 -26.5t-7.5 -46t26.5 -52t102.5 -22.5zM389 1315q-129 0 -129 -69t32 -93.5t71 -24.5t60 6.5t36.5 18.5t24 29.5t8.5 51t-32 57.5t-71 24zM95.5 1313q38.5 47 101.5 59v8q-82 20 -100.5 72.5
t-18.5 90.5t20.5 75t59.5 63.5t94 41t156 14.5t183.5 -54.5t82.5 -146.5q0 -56 -31.5 -99.5t-87.5 -56.5v-8q98 -19 118.5 -78t20.5 -100t-21.5 -79t-62.5 -63.5t-100 -39t-135 -13.5t-135.5 13.5t-121 51.5t-61.5 120t38.5 129z" />
    <glyph glyph-name="uni2079" unicode="&#x2079;" 
d="M356 1397q22 0 41 6t33 19.5t22.5 33t8.5 58.5t-30.5 67.5t-63.5 28.5q-32 0 -50 -7.5t-31.5 -20.5t-21.5 -33.5t-8 -47t8 -46t21.5 -33t31 -19.5t39.5 -6zM469 1327q-28 -57 -170 -57q-98 0 -170 51t-72 164t83.5 182.5t211.5 69.5q324 0 324 -353q0 -385 -320 -385
q-264 0 -282 209h194q0 -29 27.5 -52t57.5 -23q56 0 84 41.5t32 152.5z" />
    <glyph glyph-name="uni2080" unicode="&#x2080;" 
d="M248 41q0 -211 128 -211q61 0 94.5 55t33.5 156q0 211 -128 211t-128 -211zM375 -328q-82 0 -144.5 28t-103.5 78t-61.5 116.5t-20.5 146.5t20.5 146.5t61.5 116.5t103.5 78t144.5 28t144.5 -28t103.5 -78t61.5 -116.5t20.5 -146.5t-20.5 -146.5t-61.5 -116.5t-103.5 -78
t-144.5 -28z" />
    <glyph glyph-name="uni2081" unicode="&#x2081;" 
d="M508 393v-547h188v-157h-594v157h197v308l-139 -78l-82 137l305 180h125z" />
    <glyph glyph-name="uni2082" unicode="&#x2082;" 
d="M66 152q4 126 92.5 192t222.5 66t218.5 -59t84.5 -171t-81 -157.5t-134 -69.5l-37 -16q-129 -55 -129 -91h377v-157h-623q0 210 96.5 275t151.5 89l35 19q114 49 128.5 72.5t14.5 40.5q0 37 -27 58t-106.5 21t-87.5 -112h-196z" />
    <glyph glyph-name="uni2083" unicode="&#x2083;" 
d="M369 111q108 0 108 85t-86.5 85t-102.5 -37t-16 -60h-184q6 166 116.5 196t209 30t179.5 -55t81 -146q0 -56 -31.5 -99.5t-87.5 -56.5v-6q97 -19 118 -76t21 -99q0 -92 -83.5 -146t-235.5 -54q-295 0 -303 234h188q0 -51 23.5 -70.5t44 -27t47 -7.5t48 6.5t37 18.5
t24 29.5t8.5 52t-35 57.5t-88 23h-43v123h43z" />
    <glyph glyph-name="uni2084" unicode="&#x2084;" 
d="M397 -43v201l-157 -201h157zM41 -193v115l385 475h176v-440h96v-150h-96v-118h-205v118h-356z" />
    <glyph glyph-name="uni2085" unicode="&#x2085;" 
d="M432 139q169 0 207.5 -83t38.5 -142q0 -116 -83 -179t-210 -63q-212 0 -256.5 80t-48.5 125h199q11 -78 100 -78q40 0 63 20.5t31 41t8 59t-29 65.5t-73 27q-71 0 -96 -59l-189 18l29 422h518v-153h-350l-12 -150h6q49 49 147 49z" />
    <glyph glyph-name="uni2086" unicode="&#x2086;" 
d="M386 12q-22 0 -40 -6t-32.5 -18.5t-22.5 -33t-8 -60.5t31 -67.5t62 -27.5q32 0 50 7.5t31.5 20.5t21.5 33.5t8 47t-8 46t-21.5 33t-31.5 19.5t-40 6zM391 -328q-325 0 -325 353q0 292 128 338.5t198 46.5q136 0 204 -55.5t72 -153.5h-193q0 30 -24 52.5t-54 22.5
q-56 0 -87.5 -40.5t-39.5 -155.5q49 59 168 59q169 0 207.5 -83t38.5 -142q0 -116 -83 -179t-210 -63z" />
    <glyph glyph-name="uni2087" unicode="&#x2087;" 
d="M66 223v170h626v-121l-327 -583h-213l303 534h-389z" />
    <glyph glyph-name="uni2088" unicode="&#x2088;" 
d="M477 174q0 63 -19.5 78.5t-39 22t-44 6.5t-43 -6.5t-31.5 -16.5t-20.5 -26.5t-7.5 -46t26.5 -52t102.5 -22.5t76 63zM292 -174.5q32 -24.5 71 -24.5t60 6.5t36.5 18.5t24 29.5t8.5 51.5t-44.5 65.5t-104.5 13.5t-71.5 -43t-11.5 -59t32 -58.5zM95.5 -14q38.5 47 101.5 59
v8q-82 20 -100.5 72.5t-18.5 90.5t20.5 75t59.5 63.5t94 41t156 14.5t183.5 -54.5t82.5 -146.5q0 -56 -31.5 -99.5t-87.5 -56.5v-8q98 -19 118.5 -78t20.5 -100t-21.5 -79t-62.5 -63.5t-100 -39t-135 -13.5t-135.5 13.5t-121 52t-61.5 119.5q0 82 38.5 129z" />
    <glyph glyph-name="uni2089" unicode="&#x2089;" 
d="M356 70q22 0 41 6t33 19.5t22.5 32.5t8.5 58.5t-40.5 77.5t-102.5 12t-62 -88.5t21.5 -84t39 -27.5t39.5 -6zM469 0q-28 -57 -170 -57q-98 0 -170 51t-72 164t83.5 182.5t211.5 69.5q324 0 324 -353q0 -385 -320 -385q-264 0 -282 209h194q0 -29 28.5 -52.5t57.5 -23.5
q55 0 83 42t32 153z" />
    <glyph glyph-name="Euro" unicode="&#x20ac;" horiz-adv-x="1163" 
d="M670 1434q207 0 318.5 -106.5t146.5 -293.5h-248q-29 99 -76 143t-114 44q-115 0 -178.5 -74t-88.5 -225h375l-39 -138h-350v-149h342l-41 -139h-287q49 -308 252 -308q109 0 145.5 60.5t51.5 103.5h249q-88 -377 -452 -377q-221 0 -350 139t-166 382h-180l40 139h127
l-1 9v36l1 104h-129l39 138h105q58 368 229 440t279 72z" />
    <glyph glyph-name="afii61289" unicode="&#x2113;" horiz-adv-x="843" 
d="M568.5 1310q-29.5 48 -74.5 48q-44 0 -96 -42t-52 -325v-289l4 -2q170 143 209 271.5t39 209.5t-29.5 129zM346 379q0 -283 186 -283q103 0 158 61.5t84 102.5l45 -33q-77 -182 -182 -217t-152 -35q-232 0 -265.5 134t-33.5 229v151l-4 3l-121 -84l-24 49l149 125v278
q0 301 77 416t141 135.5t108 20.5q94 0 149.5 -71t55.5 -179q0 -190 -111 -328t-260 -252v-223z" />
    <glyph glyph-name="afii61352" unicode="&#x2116;" horiz-adv-x="2486" 
d="M1843 1057q0 -47 11.5 -85t33 -65.5t51 -42t68.5 -14.5t68.5 14.5t51 42t33 65.5t11.5 85t-11.5 86t-33 65.5t-51 41t-68.5 14.5t-68.5 -14.5t-51 -42t-33 -65.5t-11.5 -85zM1630 356v154h754v-154h-754zM1630 0v154h754v-154h-754zM1730 1326.5q102 100.5 278 100.5
t278 -100.5t102 -270t-103.5 -269t-277.5 -99.5t-276.5 98.5t-102.5 269t102 271zM150 0v1409h253l701 -944h8l-8 944h276v-1409h-250l-704 942h-8l8 -942h-276z" />
    <glyph glyph-name="trademark" unicode="&#x2122;" horiz-adv-x="1695" 
d="M8 1249v160h654v-160h-230v-544h-190v544h-234zM750 705v704h264l168 -455h8l166 455h266v-704h-190l8 477h-8l-175 -477h-145l-174 477h-8l8 -477h-188z" />
    <glyph glyph-name="Omega" unicode="&#x2126;" horiz-adv-x="1425" 
d="M821 0v477q110 30 187 128.5t77 257.5t-104.5 262.5t-267.5 103.5t-268 -103t-105 -262t77.5 -256.5t186.5 -130.5v-477h-495v197h278v161q-220 104 -265.5 258t-45.5 258t45 209t129 184t202.5 123t332 44t389.5 -165.5t176 -412.5q0 -167 -83.5 -298.5t-228.5 -199.5
v-161h279v-197h-496z" />
    <glyph glyph-name="estimated" unicode="&#x212e;" horiz-adv-x="1740" 
d="M356 739q0 -12 15 -12h1007q8 0 8 12v396q0 29 -20 49q-147 147 -284.5 176t-208.5 29q-283 0 -494 -211q-23 -23 -23 -54v-385zM1683 684h-994t-333 -8v-397q0 -19 8 -30t34 -39t141.5 -109t342.5 -81t347.5 92.5t167.5 147.5h119q-167 -200 -356.5 -242.5t-321.5 -42.5
t-280 56.5t-261 157t-175.5 233.5t-62.5 282.5t62.5 282.5t175.5 233.5t262 157t313 56.5t312.5 -56.5t261.5 -157t175 -233.5t62 -282v-21z" />
    <glyph glyph-name="uni2153" unicode="&#x2153;" horiz-adv-x="1660" 
d="M508 1409v-547h188v-157h-594v157h197v307l-139 -77l-82 137l305 180h125zM436 -25l713 1459h164l-713 -1459h-164zM1169 217q0 -74 45.5 -89t71.5 -15t47 6t36 18.5t23.5 29.5t8.5 51t-33 57.5t-90 23.5h-43v123h43q80 0 95.5 31.5t15.5 52t-7.5 37t-19.5 27t-31.5 16.5
t-58 6t-63.5 -27t-25 -69h-187q6 165 117 195t209 30t179 -55t81 -146q0 -58 -31.5 -100t-87.5 -55v-7q97 -19 118.5 -75.5t21.5 -98.5q0 -93 -82.5 -146.5t-235.5 -53.5q-297 0 -305 233h188z" />
    <glyph glyph-name="uni2154" unicode="&#x2154;" horiz-adv-x="1660" 
d="M432 -25l713 1459h166l-713 -1459h-166zM1169 217q0 -74 45.5 -89t71.5 -15t47 6t36 18.5t23.5 29.5t8.5 51t-33 57.5t-90 23.5h-43v123h43q80 0 95.5 31.5t15.5 52t-7.5 37t-19.5 27t-31.5 16.5t-58 6t-63.5 -27t-25 -69h-187q6 165 117 195t209 30t179 -55t81 -146
q0 -58 -31.5 -100t-87.5 -55v-7q97 -19 118.5 -75.5t21.5 -98.5q0 -93 -82.5 -146.5t-235.5 -53.5q-297 0 -305 233h188zM349.5 1280q-79.5 0 -87.5 -113h-196q4 127 91.5 192.5t223.5 65.5t219.5 -59t83.5 -170t-81 -157t-134 -70l-37 -17q-129 -55 -129 -90h377v-157h-623
q0 211 96.5 275t151.5 89l35 18q113 49 128 73t15 41q0 37 -27 58t-106.5 21z" />
    <glyph glyph-name="uni2155" unicode="&#x2155;" horiz-adv-x="1660" 
d="M508 1409v-547h188v-157h-594v157h197v307l-139 -77l-82 137l305 180h125zM420 -25l713 1459h165l-712 -1459h-166zM1341 451q169 0 207.5 -82.5t38.5 -142.5q0 -115 -82 -178.5t-211 -63.5q-212 0 -256.5 79.5t-48.5 124.5h201q11 -77 89 -77t95 41t17 79t-29.5 65.5
t-73.5 27.5q-72 0 -96 -60l-186 19l28 422h516v-154h-350l-12 -150h6q50 50 147 50z" />
    <glyph glyph-name="uni2156" unicode="&#x2156;" horiz-adv-x="1660" 
d="M416 -25l712 1459h166l-712 -1459h-166zM1341 451q169 0 207.5 -82.5t38.5 -142.5q0 -115 -82 -178.5t-211 -63.5q-212 0 -256.5 79.5t-48.5 124.5h201q11 -77 89 -77t95 41t17 79t-29.5 65.5t-73.5 27.5q-72 0 -96 -60l-186 19l28 422h516v-154h-350l-12 -150h6
q50 50 147 50zM349.5 1280q-79.5 0 -87.5 -113h-196q4 127 91.5 192.5t223.5 65.5t219.5 -59t83.5 -170t-81 -157t-134 -70l-37 -17q-129 -55 -129 -90h377v-157h-623q0 211 96.5 275t151.5 89l35 18q113 49 128 73t15 41q0 37 -27 58t-106.5 21z" />
    <glyph glyph-name="uni2157" unicode="&#x2157;" horiz-adv-x="1660" 
d="M389 -25l713 1459h164l-713 -1459h-164zM401 1296q-76 0 -102.5 -27.5t-26.5 -68.5h-184q4 108 81 166.5t211.5 58.5t214 -55t79.5 -145q0 -56 -31.5 -99.5t-87.5 -56.5v-6q97 -19 118 -76t21 -99q0 -92 -83.5 -146t-235.5 -54q-295 0 -303 234h188q0 -75 44 -90
t70.5 -15t48 6t37 18.5t24 30t8.5 52t-35 57.5t-88 23h-43v122h43q108 0 108 85t-76 85zM1341 451q169 0 207.5 -82.5t38.5 -142.5q0 -115 -82 -178.5t-211 -63.5q-212 0 -256.5 79.5t-48.5 124.5h201q11 -77 89 -77t95 41t17 79t-29.5 65.5t-73.5 27.5q-72 0 -96 -60
l-186 19l28 422h516v-154h-350l-12 -150h6q50 50 147 50z" />
    <glyph glyph-name="uni2158" unicode="&#x2158;" horiz-adv-x="1660" 
d="M397 973v201l-157 -201h157zM395 -25q674 1377 713 1459h166l-713 -1459h-166zM41 823v115l385 475h176v-440h96v-150h-96v-118h-205v118h-356zM1341 451q169 0 207.5 -82.5t38.5 -142.5q0 -115 -82 -178.5t-211 -63.5q-212 0 -256.5 79.5t-48.5 124.5h201q11 -77 89 -77
t95 41t17 79t-29.5 65.5t-73.5 27.5q-72 0 -96 -60l-186 19l28 422h516v-154h-350l-12 -150h6q50 50 147 50z" />
    <glyph glyph-name="uni2159" unicode="&#x2159;" horiz-adv-x="1660" 
d="M1296 324q-22 0 -40.5 -6.5t-33 -18.5t-22.5 -32.5t-8 -60t39.5 -76t102.5 -13t63 87t-21.5 85t-39.5 28t-40 6.5zM508 1409v-547h188v-157h-594v157h197v307l-139 -77l-82 137l305 180h125zM440 -25l713 1459h166l-713 -1459h-166zM1384 512q0 48 -31 62t-53 14
q-47 0 -80.5 -43.5t-37.5 -155.5h6q44 62 162 62q168 0 206.5 -82.5t38.5 -142.5q0 -115 -82 -178.5t-213 -63.5q-323 0 -323 352q0 293 127 339t197 46q260 0 278 -209h-195z" />
    <glyph glyph-name="uni215A" unicode="&#x215a;" horiz-adv-x="1660" 
d="M1296 324q-22 0 -40.5 -6.5t-33 -18.5t-22.5 -32.5t-8 -60t39.5 -76t102.5 -13t63 87t-21.5 85t-39.5 28t-40 6.5zM391 -25l713 1459h166l-713 -1459h-166zM432 1155q169 0 207.5 -83t38.5 -142q0 -116 -83 -179t-210 -63q-212 0 -256.5 80t-48.5 125h199q11 -78 100 -78
q42 0 64 20.5t30 41t8 59t-29 65.5t-73 27q-71 0 -96 -59l-189 18l29 422h518v-154h-350l-12 -149h6q49 49 147 49zM1384 512q0 48 -31 62t-53 14q-47 0 -80.5 -43.5t-37.5 -155.5h6q44 62 162 62q168 0 206.5 -82.5t38.5 -142.5q0 -115 -82 -178.5t-213 -63.5
q-323 0 -323 352q0 293 127 339t197 46q260 0 278 -209h-195z" />
    <glyph glyph-name="uni215B" unicode="&#x215b;" horiz-adv-x="1660" 
d="M1184 505.5q0 -20.5 7 -35.5t19.5 -26.5t32 -16.5t44 -5t43 5t31.5 16.5t20.5 26.5t7.5 35.5t-7.5 37t-20.5 27t-31.5 16.5t-43 6t-44 -6t-32 -16.5t-19.5 -27t-7 -37zM1326.5 117.5q74.5 20.5 74.5 88.5t-45 80.5t-71 12.5t-47 -6t-45 -24t-24 -61.5t41.5 -77t116 -13z
M508 1409v-547h188v-157h-594v157h197v307l-139 -77l-82 137l305 180h125zM432 -25l713 1459h166l-713 -1459h-166zM1106 356v9q-57 14 -88 56.5t-31 92.5q0 51 20.5 88t60.5 63.5t95.5 41t156.5 14.5t182 -55t81 -146q0 -58 -31.5 -100t-87.5 -55v-9q96 -19 118 -78
t22 -100t-20.5 -79t-61.5 -63.5t-100.5 -38.5t-135.5 -13t-135 13t-121.5 52t-62.5 120q0 160 139 187z" />
    <glyph glyph-name="uni215C" unicode="&#x215c;" horiz-adv-x="1660" 
d="M1184 505.5q0 -20.5 7 -35.5t19.5 -26.5t32 -16.5t44 -5t43 5t31.5 16.5t20.5 26.5t7.5 35.5t-7.5 37t-20.5 27t-31.5 16.5t-43 6t-44 -6t-32 -16.5t-19.5 -27t-7 -37zM1326.5 117.5q74.5 20.5 74.5 88.5t-45 80.5t-71 12.5t-47 -6t-45 -24t-24 -61.5t41.5 -77t116 -13z
M395 -25l713 1459h166l-713 -1459h-166zM401 1296q-76 0 -102.5 -27.5t-26.5 -68.5h-184q4 108 81 166.5t211.5 58.5t214 -55t79.5 -145q0 -56 -31.5 -99.5t-87.5 -56.5v-6q97 -19 118 -76t21 -99q0 -92 -83.5 -146t-235.5 -54q-295 0 -303 234h188q0 -75 44 -90t70.5 -15
t48 6t37 18.5t24 30t8.5 52t-35 57.5t-88 23h-43v122h43q108 0 108 85t-76 85zM1106 356v9q-57 14 -88 56.5t-31 92.5q0 51 20.5 88t60.5 63.5t95.5 41t156.5 14.5t182 -55t81 -146q0 -58 -31.5 -100t-87.5 -55v-9q96 -19 118 -78t22 -100t-20.5 -79t-61.5 -63.5
t-100.5 -38.5t-135.5 -13t-135 13t-121.5 52t-62.5 120q0 160 139 187z" />
    <glyph glyph-name="uni215D" unicode="&#x215d;" horiz-adv-x="1660" 
d="M1184 505.5q0 -20.5 7 -35.5t19.5 -26.5t32 -16.5t44 -5t43 5t31.5 16.5t20.5 26.5t7.5 35.5t-7.5 37t-20.5 27t-31.5 16.5t-43 6t-44 -6t-32 -16.5t-19.5 -27t-7 -37zM1326.5 117.5q74.5 20.5 74.5 88.5t-45 80.5t-71 12.5t-47 -6t-45 -24t-24 -61.5t41.5 -77t116 -13z
M391 -25l713 1459h166l-713 -1459h-166zM432 1155q169 0 207.5 -83t38.5 -142q0 -116 -83 -179t-210 -63q-212 0 -256.5 80t-48.5 125h199q11 -78 100 -78q42 0 64 20.5t30 41t8 59t-29 65.5t-73 27q-71 0 -96 -59l-189 18l29 422h518v-154h-350l-12 -149h6q49 49 147 49z
M1106 356v9q-57 14 -88 56.5t-31 92.5q0 51 20.5 88t60.5 63.5t95.5 41t156.5 14.5t182 -55t81 -146q0 -58 -31.5 -100t-87.5 -55v-9q96 -19 118 -78t22 -100t-20.5 -79t-61.5 -63.5t-100.5 -38.5t-135.5 -13t-135 13t-121.5 52t-62.5 120q0 160 139 187z" />
    <glyph glyph-name="uni215E" unicode="&#x215e;" horiz-adv-x="1660" 
d="M1184 505.5q0 -20.5 7 -35.5t19.5 -26.5t32 -16.5t44 -5t43 5t31.5 16.5t20.5 26.5t7.5 35.5t-7.5 37t-20.5 27t-31.5 16.5t-43 6t-44 -6t-32 -16.5t-19.5 -27t-7 -37zM1326.5 117.5q74.5 20.5 74.5 88.5t-45 80.5t-71 12.5t-47 -6t-45 -24t-24 -61.5t41.5 -77t116 -13z
M66 1239v170h626v-121l-327 -583h-213l303 534h-389zM334 -25l713 1459h165l-712 -1459h-166zM1106 356v9q-57 14 -88 56.5t-31 92.5q0 51 20.5 88t60.5 63.5t95.5 41t156.5 14.5t182 -55t81 -146q0 -58 -31.5 -100t-87.5 -55v-9q96 -19 118 -78t22 -100t-20.5 -79
t-61.5 -63.5t-100.5 -38.5t-135.5 -13t-135 13t-121.5 52t-62.5 120q0 160 139 187z" />
    <glyph glyph-name="uni2190" unicode="&#x2190;" horiz-adv-x="1351" 
d="M611 618h683v-204h-349q-349 0 -529 8l305 -303l-137 -129l-527 526l527 526l137 -129l-305 -303q180 8 195 8z" />
    <glyph glyph-name="uni2191" unicode="&#x2191;" horiz-adv-x="1351" 
d="M788 573v-675h-206v345q0 345 8 533l-303 -305l-129 137l526 527l526 -527l-129 -137l-301 305q8 -188 8 -203z" />
    <glyph glyph-name="uni2192" unicode="&#x2192;" horiz-adv-x="1351" 
d="M740 414h-683v204h349q348 0 528 -8l-303 303l137 129l526 -526l-526 -526l-137 129l303 303q-180 -8 -194 -8z" />
    <glyph glyph-name="uni2193" unicode="&#x2193;" horiz-adv-x="1351" 
d="M573 470v665h205v-349q0 -350 -8 -530l303 305l129 -137l-526 -526l-526 526l129 137l303 -305q-9 202 -9 214z" />
    <glyph glyph-name="uni2196" unicode="&#x2196;" horiz-adv-x="1351" 
d="M188 977h746v-186h-420q35 -31 68.5 -64t97.5 -96t72 -72l385 -383l-144 -147q-383 385 -392 394l-69 69q-59 59 -92.5 96t-64.5 71v-428h-187v746z" />
    <glyph glyph-name="uni2197" unicode="&#x2197;" horiz-adv-x="1351" 
d="M391 791v186h746v-746h-187v428q-77 -87 -156 -166t-462 -464l-144 147q445 443 507 506t114 109h-418z" />
    <glyph glyph-name="uni2198" unicode="&#x2198;" horiz-adv-x="1351" 
d="M391 29v186h418q-52 46 -107 101t-56 55t-73 75l-385 383l144 148l383 -385q20 -20 46.5 -47t73 -73t115.5 -126v428h187v-745h-746z" />
    <glyph glyph-name="uni2199" unicode="&#x2199;" horiz-adv-x="1351" 
d="M934 215v-186h-746v745h187v-428q87 98 144.5 155t90.5 91l383 385l144 -148l-385 -383q-107 -115 -238 -231h420z" />
    <glyph glyph-name="partialdiff" unicode="&#x2202;" horiz-adv-x="1163" 
d="M689.5 258.5q76.5 78.5 76.5 197.5t-56 179.5t-161 60.5q-106 0 -181 -78.5t-75 -198.5t59.5 -179.5t160.5 -59.5q100 0 176.5 78.5zM827 831q0 307 -91 352.5t-159.5 45.5t-122.5 -47.5t-71 -124.5h-252q57 267 218 322t262 55q211 0 343.5 -147t132.5 -460
q0 -450 -171.5 -651t-440.5 -201q-187 0 -314.5 114t-127.5 308q0 241 144 372.5t341 131.5q160 0 224.5 -55t82.5 -88l1 9z" />
    <glyph glyph-name="Delta" unicode="&#x2206;" horiz-adv-x="1353" 
d="M674 1124h-8l-312 -911h631zM27 0l508 1409h284l506 -1409h-1298z" />
    <glyph glyph-name="product" unicode="&#x220f;" horiz-adv-x="1517" 
d="M170 0v1409h1178v-1409h-265v1196h-651v-1196h-262z" />
    <glyph glyph-name="summation" unicode="&#x2211;" horiz-adv-x="1126" 
d="M31 0v109l461 583l-445 594v123h1006v-209h-643l374 -491l-393 -500h680v-209h-1040z" />
    <glyph glyph-name="minus" unicode="&#x2212;" horiz-adv-x="1163" 
d="M119 420v205h925v-205h-925z" />
    <glyph glyph-name="uni2215" unicode="&#x2215;" horiz-adv-x="159" 
d="M-360 -25q643 1314 712 1459h166l-713 -1459h-165z" />
    <glyph glyph-name="uni2219" unicode="&#x2219;" horiz-adv-x="577" 
d="M141 379v278h297v-278h-297z" />
    <glyph glyph-name="radical" unicode="&#x221a;" horiz-adv-x="1245" 
d="M53 573v205l344 109l226 -600h8l381 1122h252l-490 -1409h-289l-249 633z" />
    <glyph glyph-name="infinity" unicode="&#x221e;" horiz-adv-x="1449" 
d="M410.5 362q86.5 0 199.5 158q-72 105 -130 131.5t-91 26.5t-60.5 -12.5t-47 -34t-29.5 -50t-10 -61.5t10 -61.5t41 -62.5t117.5 -34zM1037.5 362q88.5 0 129.5 45t41 95.5t-10 79t-29.5 50t-47 34t-74 12.5t-105.5 -47.5t-102 -110.5q109 -158 197.5 -158zM53 520
q0 153 95 246.5t240 93.5t227.5 -79t113.5 -124q156 203 317 203t256 -93.5t95 -246.5t-95 -246.5t-245 -93.5q-191 0 -336 201q-154 -201 -328 -201q-150 0 -245 93.5t-95 246.5z" />
    <glyph glyph-name="integral" unicode="&#x222b;" horiz-adv-x="745" 
d="M47 -172h68q118 0 146.5 75.5t14.5 248.5l-63 1024q-16 252 66 384t317 132h96v-205h-69q-120 0 -147 -74.5t-15 -249.5l65 -1024q16 -249 -65.5 -382.5t-317.5 -133.5h-96v205z" />
    <glyph glyph-name="approxequal" unicode="&#x2248;" horiz-adv-x="1163" 
d="M391 262q-98 0 -98 -156h-193q0 177 79.5 267t201.5 90q63 0 115.5 -19.5t118 -57.5t94 -52.5t65.5 -14.5q100 0 100 152h193q0 -176 -79.5 -266t-196.5 -90q-63 0 -116.5 19.5t-120.5 59t-96.5 54t-66.5 14.5zM391 731q-98 0 -98 -158h-193q0 177 79.5 267t201.5 90
q63 0 115.5 -19.5t118 -57.5t94 -52.5t65.5 -14.5q100 0 100 152h193q0 -176 -79.5 -266t-196.5 -90q-63 0 -116.5 19.5t-120.5 59t-96.5 55t-66.5 15.5z" />
    <glyph glyph-name="notequal" unicode="&#x2260;" horiz-adv-x="1163" 
d="M115 641v205h534l144 274l153 -82l-100 -192h203v-205h-312l-125 -242h437v-204h-543l-144 -275l-153 82l100 193h-194v204h301l125 242h-426z" />
    <glyph glyph-name="lessequal" unicode="&#x2264;" horiz-adv-x="1163" 
d="M147 0v205h869v-205h-869zM147 670v213l869 346v-225l-615 -226l615 -229v-227z" />
    <glyph glyph-name="greaterequal" unicode="&#x2265;" horiz-adv-x="1163" 
d="M147 0v205h869v-205h-869zM1016 879v-211l-869 -346v223l613 223l-613 231v230z" />
    <glyph glyph-name="uni25A0" unicode="&#x25a0;" horiz-adv-x="1409" 
d="M0 0v1409h1409v-1409h-1409z" />
    <glyph glyph-name="uni25A1" unicode="&#x25a1;" horiz-adv-x="1409" 
d="M227 213h955v983h-955v-983zM0 0v1409h1409v-1409h-1409z" />
    <glyph glyph-name="uni25B6" unicode="&#x25b6;" horiz-adv-x="1028" 
d="M90 -25v1049l914 -524z" />
    <glyph glyph-name="uni25B7" unicode="&#x25b7;" horiz-adv-x="1028" 
d="M279 289l376 211l-376 211v-422zM90 -25v1049l914 -524z" />
    <glyph glyph-name="uni25C0" unicode="&#x25c0;" horiz-adv-x="1028" 
d="M25 500l913 524v-1049z" />
    <glyph glyph-name="uni25C1" unicode="&#x25c1;" horiz-adv-x="1028" 
d="M373 500l377 -211v422zM25 500l913 524v-1049z" />
    <glyph glyph-name="lozenge" unicode="&#x25ca;" horiz-adv-x="1355" 
d="M682 1190h-12l-344 -485l350 -490h8l346 483zM559 0l-508 705l508 704h240l506 -704l-506 -705h-240z" />
    <glyph glyph-name="uni25CB" unicode="&#x25cb;" horiz-adv-x="1130" 
d="M351.5 267.5q85.5 -91.5 216.5 -91.5t213.5 91t82.5 232t-85.5 232.5t-216.5 91.5t-213.5 -91t-82.5 -232t85.5 -232.5zM939 876.5q151 -147.5 151 -373.5t-151 -377t-374.5 -151t-373.5 148.5t-150 374.5q0 225 150.5 375.5t373.5 150.5t374 -147.5z" />
    <glyph glyph-name="uni25CF" unicode="&#x25cf;" horiz-adv-x="1130" 
d="M939 876.5q151 -147.5 151 -373.5t-151 -377t-374.5 -151t-373.5 148.5t-150 374.5q0 225 150.5 375.5t373.5 150.5t374 -147.5z" />
    <glyph glyph-name="uni25FB" unicode="&#x25fb;" horiz-adv-x="999" 
d="M213 201h573v598h-573v-598zM0 0v999h999v-999h-999z" />
    <glyph glyph-name="uni25FC" unicode="&#x25fc;" horiz-adv-x="999" 
d="M0 0v999h999v-999h-999z" />
    <glyph glyph-name="uni2605" unicode="&#x2605;" horiz-adv-x="1118" 
d="M217 27l139 374l-331 222l10 32l399 -18l109 387h32l107 -387l401 18l11 -32l-334 -222l141 -374l-29 -21l-313 248l-313 -248z" />
    <glyph glyph-name="dotlessj" unicode="&#xf6be;" horiz-adv-x="550" 
d="M143 -94v1093h265v-1112q0 -169 -79.5 -253.5t-271.5 -84.5h-84v205h54q92 0 104 56.5t12 95.5z" />
    <glyph glyph-name="commaaccent" unicode="&#xf6c3;" horiz-adv-x="1200" 
d="M479 -125h242v-180l-103 -221h-108l72 194h-103v207z" />
    <glyph glyph-name="at.sc" horiz-adv-x="1720" 
d="M935.5 168q49.5 39 49.5 121v65q-18 -18 -39.5 -22t-34.5 -6l-102 -13q-100 -15 -100 -92q0 -41 29.5 -66.5t88.5 -25.5t108.5 39zM1319 117q154 1 154 323q0 102 -45.5 200.5t-167.5 206t-396 107.5q-275 0 -445.5 -168.5t-170.5 -425t163.5 -420t436.5 -163.5
q213 0 317 100h195q-176 -233 -510 -233t-543 205t-209 512t213 518t549 211t493.5 -137.5t213 -262.5t55.5 -255q0 -238 -101.5 -344.5t-256.5 -106.5q-196 0 -246 114q-81 -118 -273 -118t-229 85t-37 133q0 96 65 156t199 76l140 16q85 11 93.5 28.5t8.5 37.5
q0 48 -32.5 78.5t-77.5 30.5q-142 0 -150 -117h-207q11 201 144.5 235.5t207.5 34.5q160 0 250 -73t90 -216v-227q0 -141 109 -141z" />
    <glyph glyph-name="a.sc" horiz-adv-x="1167" 
d="M578 825l-152 -417h307l-147 417h-8zM12 0l418 1065h311l414 -1065h-278l-74 211h-449l-75 -211h-267z" />
    <glyph glyph-name="b.sc" horiz-adv-x="1247" 
d="M702 874h-274v-235h274q103 0 120.5 49t17.5 75q0 51 -33.5 81t-104.5 30zM428 455v-265h307q109 0 129.5 52.5t20.5 82.5q0 57 -40.5 93.5t-109.5 36.5h-307zM1108 800q0 -190 -176 -231v-6q158 -24 191.5 -114.5t33.5 -148.5q0 -126 -98 -213t-275 -87h-618v1065h582
q266 0 313 -106.5t47 -158.5z" />
    <glyph glyph-name="c.sc" horiz-adv-x="1226" 
d="M651 197q186 0 250 165h258q-32 -174 -168.5 -280.5t-345.5 -106.5q-261 0 -414 158.5t-153 401.5t155 399t416 156q204 0 342.5 -106.5t167.5 -281.5h-258q-54 166 -250 166q-138 0 -219.5 -91.5t-81.5 -244.5q0 -233 116 -284t185 -51z" />
    <glyph glyph-name="d.sc" horiz-adv-x="1277" 
d="M428 856v-647h172q169 0 248.5 92t79.5 232.5t-78.5 231.5t-249.5 91h-172zM166 0v1065h465q268 0 417.5 -145.5t149.5 -383.5q0 -239 -148.5 -387.5t-420.5 -148.5h-463z" />
    <glyph glyph-name="e.sc" horiz-adv-x="1138" 
d="M166 0v1065h850v-201h-588v-229h475v-191h-475v-243h606v-201h-868z" />
    <glyph glyph-name="f.sc" horiz-adv-x="1077" 
d="M166 0v1065h829v-201h-567v-278h457v-195h-457v-391h-262z" />
    <glyph glyph-name="g.sc" horiz-adv-x="1333" 
d="M659 -25q-259 0 -416 158.5t-157 399.5t162 399t430 158q211 0 349.5 -104t162.5 -255h-264q-16 54 -81.5 97.5t-152.5 43.5q-86 0 -145.5 -24.5t-101.5 -69.5t-64.5 -107.5t-22.5 -178t86.5 -210t219.5 -94.5q134 0 211 58.5t81 152.5h-274v185h508v-584h-168l-21 111
h-6q-118 -136 -336 -136z" />
    <glyph glyph-name="h.sc" horiz-adv-x="1335" 
d="M166 0v1065h262v-420h479v420h262v-1065h-262v428h-479v-428h-262z" />
    <glyph glyph-name="i.sc" horiz-adv-x="593" 
d="M166 0v1065h262v-1065h-262z" />
    <glyph glyph-name="j.sc" horiz-adv-x="991" 
d="M334 324q0 -140 129 -140q62 0 96.5 37.5t34.5 106.5v737h262v-700q0 -196 -103 -293t-290 -97q-277 0 -331 133.5t-54 225.5v45h256v-55z" />
    <glyph glyph-name="k.sc" horiz-adv-x="1228" 
d="M166 0v1065h262v-481l444 481h304l-441 -463l473 -602h-307l-336 426l-137 -145v-281h-262z" />
    <glyph glyph-name="l.sc" horiz-adv-x="1007" 
d="M166 0v1065h262v-844h530v-221h-792z" />
    <glyph glyph-name="m.sc" horiz-adv-x="1636" 
d="M166 0v1065h352l301 -721h4l307 721h343v-1065h-261l21 723h-8l-316 -723h-188l-309 723h-6l18 -723h-258z" />
    <glyph glyph-name="n.sc" horiz-adv-x="1335" 
d="M166 0v1065h227l514 -649h8l-8 649h262v-1065h-223l-518 649h-10l10 -649h-262z" />
    <glyph glyph-name="o.sc" horiz-adv-x="1331" 
d="M893 289q88 92 88 242t-87.5 243.5t-228 93.5t-228 -94t-87.5 -242t87.5 -241.5t227.5 -93.5t228 92zM78 532.5q0 118.5 42 221t120.5 178.5t187.5 117t238 41t237.5 -41t187 -117t120.5 -178.5t42 -221t-42 -221t-119.5 -178.5t-187 -117t-238.5 -41t-238 41t-187.5 117
t-120.5 178.5t-42 221z" />
    <glyph glyph-name="p.sc" horiz-adv-x="1189" 
d="M428 864v-334h242q127 0 150.5 66t23.5 120.5t-44.5 101t-129.5 46.5h-242zM166 0v1065h539q190 0 298.5 -100.5t108.5 -266.5t-108.5 -267t-298.5 -101h-277v-330h-262z" />
    <glyph glyph-name="q.sc" horiz-adv-x="1331" 
d="M893 289q88 92 88 242t-87.5 243.5t-228 93.5t-228 -94t-87.5 -242t87.5 -241.5t227.5 -93.5t228 92zM78 532.5q0 118.5 42 221t120.5 178.5t187.5 117t304 41t358 -157.5t163 -401.5q0 -243 -159 -394l202 -207l-161 -149l-230 235q-111 -41 -239 -41q-129 0 -238 41
t-187.5 117t-120.5 178.5t-42 221z" />
    <glyph glyph-name="r.sc" horiz-adv-x="1230" 
d="M678 864h-250v-299h250q122 0 144 59.5t22 93.5q0 65 -42.5 105.5t-123.5 40.5zM166 0v1065h543q193 0 298 -91.5t105 -262.5q0 -170 -86 -234.5t-141 -83.5l276 -393h-289l-247 367h-197v-367h-262z" />
    <glyph glyph-name="s.sc" horiz-adv-x="1134" 
d="M567 905q-200 0 -200 -131q0 -61 57.5 -86t167.5 -41l57 -8q188 -30 259 -71.5t105 -98.5t34 -140q0 -164 -127 -259t-359 -95t-355.5 89t-123.5 243h260q0 -106 84 -126.5t133 -20.5q217 0 217 139q0 60 -59.5 84t-165.5 39l-57 8q-86 14 -150.5 30.5t-154 71.5
t-89.5 211t125.5 251.5t338.5 95.5t329.5 -89.5t116.5 -234.5h-250q0 100 -76 119.5t-117 19.5z" />
    <glyph glyph-name="t.sc" horiz-adv-x="1101" 
d="M49 850v215h1004v-215h-371v-850h-262v850h-371z" />
    <glyph glyph-name="u.sc" horiz-adv-x="1269" 
d="M1137 434q0 -459 -504 -459q-364 0 -432 166t-68 293v631h262v-625q0 -111 59.5 -176t208.5 -65t180 93t31 148v625h263v-631z" />
    <glyph glyph-name="v.sc" horiz-adv-x="1150" 
d="M410 0l-398 1065h283l280 -825h9l290 825h265l-398 -1065h-331z" />
    <glyph glyph-name="w.sc" horiz-adv-x="1660" 
d="M301 0l-276 1065h278l180 -793h9l225 793h239l228 -793h8l168 793h274l-274 -1065h-324l-198 723h-7l-202 -723h-328z" />
    <glyph glyph-name="x.sc" horiz-adv-x="1132" 
d="M12 0l400 545l-383 520h311l235 -338l226 338h299l-379 -518l399 -547h-299l-264 371l-254 -371h-291z" />
    <glyph glyph-name="y.sc" horiz-adv-x="1138" 
d="M434 0v401l-426 664h299l262 -428h6l275 428h280l-432 -657v-408h-264z" />
    <glyph glyph-name="z.sc" horiz-adv-x="1081" 
d="M92 852v213h907v-150l-561 -702h555v-213h-919v150l565 702h-547z" />
    <glyph glyph-name="ampersand.sc" horiz-adv-x="1245" 
d="M686 796.5q0 68.5 -34.5 98t-77.5 29.5q-68 0 -102 -30t-34 -84t86 -148q162 66 162 134.5zM737 197l-288 258q-67 -37 -97 -70.5t-30 -75.5q0 -41 16 -68.5t61.5 -57t148.5 -29.5t189 43zM80 272q0 108 64 179.5t182 123.5q-109 116 -109 232q0 117 88.5 196.5
t259.5 79.5q252 0 294 -100.5t42 -156.5q0 -102 -65.5 -165t-188.5 -118l230 -209q38 68 38 174v24h213v-30q0 -182 -98 -307l213 -195h-287l-69 61q-142 -86 -338 -86q-351 0 -410 116.5t-59 180.5z" />
    <glyph glyph-name="fi.sc" horiz-adv-x="1671" 
d="M1243 0v1065h262v-1065h-262zM166 0v1065h829v-201h-567v-282h457v-195h-457v-387h-262z" />
    <glyph glyph-name="fl.sc" horiz-adv-x="2084" 
d="M1243 0v1065h262v-844h531v-221h-793zM166 0v1065h829v-201h-567v-282h457v-195h-457v-387h-262z" />
    <glyph glyph-name="germandbls.sc" horiz-adv-x="2269" 
d="M1700 905q-199 0 -199 -131q0 -61 57 -86t168 -41l58 -8q188 -30 259 -71.5t104.5 -98.5t33.5 -140q0 -165 -126.5 -259.5t-358.5 -94.5t-355.5 89t-123.5 243h260q0 -106 84 -126.5t133 -20.5q217 0 217 139q0 60 -59.5 84t-165.5 39l-58 8q-86 14 -150.5 30.5
t-153.5 71.5t-89 211t125 251.5t338 95.5t329.5 -88.5t116.5 -235.5h-250q0 100 -75.5 119.5t-118.5 19.5zM567 905q-200 0 -200 -131q0 -61 57.5 -86t167.5 -41l57 -8q188 -30 259 -71.5t105 -98.5t34 -140q0 -164 -127 -259t-359 -95t-355.5 89t-123.5 243h260
q0 -106 84 -126.5t133 -20.5q217 0 217 139q0 60 -59.5 84t-165.5 39l-57 8q-86 14 -150.5 30.5t-154 71.5t-89.5 211t125.5 251.5t338.5 95.5t329.5 -89.5t116.5 -234.5h-250q0 100 -76 119.5t-117 19.5z" />
    <glyph glyph-name="t_f" horiz-adv-x="1327" 
d="M821 0v803h-377v-443q0 -80 17.5 -105.5t40 -33.5t59.5 -8h82v-213h-125q-192 0 -265 77t-73 267v459h-184v196h184v304h264v-304h377v119q0 199 91 290t294 91h142v-205h-99q-131 0 -147.5 -62.5t-16.5 -107.5v-125h230v-196h-230v-803h-264z" />
    <glyph glyph-name="t_t" horiz-adv-x="1380" 
d="M821 344v459h-379v-443q0 -78 29.5 -112.5t101.5 -34.5h76v-213h-119q-194 0 -272 78t-78 266v459h-184v196h184v304h262v-304h379v304h262v-304h248v-196h-248v-443q0 -80 31 -113.5t105 -33.5h112v-213h-160q-194 0 -272 78t-78 266z" />
    <glyph glyph-name="slashedzero" horiz-adv-x="1163" 
d="M582 193q243 0 243 512q0 192 -30 301l-353 -754q59 -59 140 -59zM589 1217q-134 0 -192.5 -128t-58.5 -355q0 -226 31 -333l352 754q-62 62 -132 62zM581.5 -25q-135.5 0 -233.5 54.5t-159.5 154t-91 231.5t-29.5 289.5t29.5 289.5t91 231.5t159.5 154t233.5 54.5
t233.5 -54.5t159.5 -154t91.5 -231.5t30 -289.5t-30 -289.5t-91.5 -231.5t-159.5 -154t-233.5 -54.5z" />
    <glyph glyph-name="zero.PPF" horiz-adv-x="1239" 
d="M621 1217q-267 0 -267 -512t231 -512t266.5 193.5t35.5 383t-68 318.5t-198 129zM620.5 -25q-139.5 0 -243 55.5t-169 156t-96 231.5t-30.5 286.5t30.5 286.5t96 231.5t169 156t243 55.5t242 -55.5t168 -156t96 -231.5t30.5 -286.5t-30.5 -286.5t-96 -231.5t-168 -156
t-242 -55.5z" />
    <glyph glyph-name="one.PPF" horiz-adv-x="786" 
d="M627 1409v-1409h-262v1087l-232 -157l-108 188l430 291h172z" />
    <glyph glyph-name="two.PPF" horiz-adv-x="1126" 
d="M776 1014q0 45 -11 82t-35.5 64.5t-64.5 44t-124.5 16.5t-143.5 -64.5t-63 -177.5h-254q8 239 145 347t348 108t340 -107t129 -312t-117.5 -298.5t-193.5 -141.5l-153 -98q-164 -110 -180.5 -169.5t-20.5 -94.5h672v-213h-979q8 242 82.5 385t248.5 256l156 98
q119 76 153.5 115t50 77t15.5 83z" />
    <glyph glyph-name="three.PPF" horiz-adv-x="1163" 
d="M59 426h258q0 -181 98.5 -215.5t154.5 -34.5t103.5 15.5t81 45t52 71.5t18.5 115.5t-70.5 136.5t-183.5 63h-102v208h102q95 0 156 59t61 148q0 138 -85 166.5t-156 28.5t-132 -55t-61 -162h-241q0 200 126.5 309t334.5 109t336 -104t128 -279q0 -106 -60 -195t-151 -119
v-8q116 -28 190.5 -121.5t74.5 -203.5q0 -208 -147.5 -318.5t-378.5 -110.5t-369 114.5t-138 336.5z" />
    <glyph glyph-name="four.PPF" horiz-adv-x="1179" 
d="M674 520v506l-375 -506h375zM33 307v168l684 934h219v-889h201v-213h-201v-307h-262v307h-641z" />
    <glyph glyph-name="five.PPF" horiz-adv-x="1136" 
d="M377 817q84 84 257 84t303 -117.5t130 -338.5t-145.5 -345.5t-364.5 -124.5q-218 0 -349 107t-147 295h258q21 -129 104 -163t135 -34t96 17.5t78 50.5t53.5 81t19.5 137.5t-68 159.5t-172 70q-137 0 -223 -125l-231 21l49 817h825v-217h-594l-22 -375h8z" />
    <glyph glyph-name="six.PPF" horiz-adv-x="1198" 
d="M446 623q-67 -73 -67 -187t67.5 -185t176 -71t175 70t66.5 186q0 117 -67.5 188.5t-175.5 71.5t-175 -73zM354 756q88 145 340 145q72 0 154 -28.5t181 -119.5t99 -310q0 -218 -147 -343t-354 -125q-545 -1 -545 699q0 386 150.5 573t400.5 187q211 0 325.5 -101.5
t137.5 -283.5h-256q-28 180 -207 180q-121 0 -196 -109.5t-83 -363.5z" />
    <glyph glyph-name="seven.PPF" horiz-adv-x="1001" 
d="M37 1182v227h938v-162l-569 -1247h-271l555 1182h-653z" />
    <glyph glyph-name="eight.PPF" horiz-adv-x="1183" 
d="M592 831q47 0 88 14.5t70.5 42t46 65.5t16.5 83t-16.5 82t-46 63.5t-70.5 41t-88 14.5t-88 -14.5t-71 -41t-46 -63.5t-16 -82t16 -83t46 -65.5t71 -42t88 -14.5zM334 399.5q0 -49.5 18.5 -91.5t52 -71.5t82 -45t105.5 -15.5t105 15.5t82 45t52.5 71.5t18.5 91.5t-18.5 90
t-53.5 70.5t-83 46.5t-103 16.5t-103.5 -16.5t-83 -46.5t-53 -70.5t-18.5 -90zM68 366q0 141 74.5 239.5t189.5 123.5v8q-94 29 -152.5 115.5t-58.5 184.5t33.5 169.5t97 122.5t149.5 78t244 27t289 -105.5t131 -281.5q0 -108 -60 -193.5t-153 -116.5v-8q114 -25 190 -123
t76 -209q0 -112 -38 -188t-107.5 -128t-166.5 -79t-214 -27t-214 27t-167 79t-106.5 128t-36.5 157z" />
    <glyph glyph-name="nine.PPF" horiz-adv-x="1198" 
d="M744 786q67 73 67 186q0 112 -67 184.5t-175 72.5q-107 0 -175 -70t-68 -186t68.5 -188t175.5 -72t174 73zM563 1434q545 0 545 -689q0 -401 -148 -585.5t-401 -184.5q-210 0 -331.5 106t-133.5 279h256q13 -126 87.5 -153t127.5 -27q119 0 189 108t80 365
q-34 -62 -121 -103.5t-188 -41.5q-203 0 -333.5 120t-130.5 338q0 217 147.5 342.5t354.5 125.5z" />
    <glyph glyph-name="slashedzero.PPF" horiz-adv-x="1239" 
d="M608 193q78 0 178.5 67t100.5 445q0 190 -43 323l-367 -782q53 -53 131 -53zM621 1217q-267 0 -267 -512q0 -193 43 -326l365 784q-63 54 -141 54zM620.5 -25q-139.5 0 -243 55.5t-169 156t-96 231.5t-30.5 286.5t30.5 286.5t96 231.5t169 156t243 55.5t242 -55.5
t168 -156t96 -231.5t30.5 -286.5t-30.5 -286.5t-96 -231.5t-168 -156t-242 -55.5z" />
    <glyph glyph-name="zero.sc" horiz-adv-x="1032" 
d="M516 172q180 0 180 360q0 273 -66.5 317t-136 44t-113.5 -87.5t-44 -273.5q0 -272 66.5 -316t113.5 -44zM516 -25q-119 0 -205 42t-139 118t-78.5 177.5t-25.5 220t25.5 220t78.5 177.5t139 118t205 42t205 -42t139 -118t79 -177.5t26 -220t-26 -220t-79 -177.5
t-139 -118t-205 -42z" />
    <glyph glyph-name="one.sc" horiz-adv-x="1032" 
d="M690 1065v-864h256v-201h-792v201h276v557l-213 -127l-100 176l407 258h166z" />
    <glyph glyph-name="two.sc" horiz-adv-x="1032" 
d="M104 727q8 186 126 274.5t297 88.5t290 -84.5t111 -240.5t-90 -226t-154 -103l-141 -76q-94 -54 -125 -85t-35 -74h545v-201h-836q6 295 107.5 383t175.5 127l143 74q90 48 124 85.5t34 79.5q0 69 -40.5 106.5t-115.5 37.5q-164 0 -172 -166h-244z" />
    <glyph glyph-name="three.sc" horiz-adv-x="1032" 
d="M748 551q200 -59 200 -277q0 -62 -32.5 -121t-122.5 -118.5t-289 -59.5q-308 0 -366 129.5t-58 219.5h244q0 -131 71.5 -152.5t132.5 -21.5t113.5 39t52.5 122q0 115 -71.5 136.5t-112.5 21.5h-80v166h82q106 0 131 55t25 87q0 64 -42.5 102.5t-97.5 38.5
q-87 0 -133.5 -40t-46.5 -108h-227q0 150 108.5 235t285.5 85t284.5 -78.5t107.5 -214.5t-61.5 -181t-97.5 -57v-8z" />
    <glyph glyph-name="four.sc" horiz-adv-x="1032" 
d="M563 397v355l-270 -355h270zM53 203v157l547 705h219v-668h150v-194h-150v-203h-256v203h-510z" />
    <glyph glyph-name="five.sc" horiz-adv-x="1032" 
d="M496 158q196 0 196 178q0 125 -67.5 149.5t-104.5 24.5q-103 0 -164 -94l-235 22l37 627h716v-205h-503l-17 -246h8q80 70 221 70t249 -84.5t108 -258.5t-121.5 -270t-298.5 -96q-390 0 -432 312h252q8 -57 52.5 -93t103.5 -36z" />
    <glyph glyph-name="six.sc" horiz-adv-x="1032" 
d="M532.5 506q-36.5 0 -68.5 -11.5t-55.5 -34t-36 -55t-12.5 -94t48 -105.5t106 -44q57 0 89 11t54.5 33.5t35 55.5t12.5 74t-12.5 72.5t-36 53t-55.5 33t-68.5 11.5zM346 584q70 100 262 100q135 0 239.5 -84t104.5 -258q0 -173 -121 -270t-294 -97q-453 0 -453 533
q0 446 182.5 514t276.5 68q180 0 276 -83t113 -221h-240q-19 121 -147 121q-185 0 -199 -323z" />
    <glyph glyph-name="seven.sc" horiz-adv-x="1032" 
d="M90 844v221h864v-145l-467 -920h-272l451 844h-576z" />
    <glyph glyph-name="eight.sc" horiz-adv-x="1032" 
d="M356 778q0 -33 11.5 -59.5t34 -46t51 -28.5t63.5 -9t63.5 9t51 28.5t34 46t11.5 59.5t-12.5 59.5t-34 45t-50 29t-63.5 10.5t-63.5 -10.5t-50 -29t-34 -45t-12.5 -59.5zM332 308q0 -38 13 -67.5t39 -50t59.5 -30.5t94 -10t111.5 41t51 116t-50 118.5t-155.5 43.5
t-134 -61.5t-28.5 -99.5zM756 551q200 -59 200 -277q0 -62 -31.5 -121t-91 -99t-139.5 -59.5t-229 -19.5t-269 80.5t-120 228.5t76.5 200.5t123.5 66.5v8q-159 51 -159 243q0 56 28.5 112.5t82 95.5t127 59.5t207.5 20.5t243.5 -80.5t109.5 -214.5t-61 -179t-98 -57v-8z" />
    <glyph glyph-name="nine.sc" horiz-adv-x="1032" 
d="M619.5 603.5q48.5 44.5 48.5 129.5q0 122 -66.5 146t-105.5 24t-70 -11t-53.5 -33.5t-33.5 -55.5t-11 -74t12 -72.5t45 -64.5t109 -33q77 0 125.5 44.5zM684 481q-70 -100 -262 -100q-132 0 -239 83.5t-107 257.5t121 271t295 97q454 0 454 -533q0 -446 -178 -514
t-273 -68q-183 0 -282.5 83.5t-116.5 220.5h240q8 -52 46.5 -86.5t94.5 -34.5t126 32.5t81 290.5z" />
    <glyph glyph-name="slashedzero.sc" horiz-adv-x="1032" 
d="M696 532q0 111 -18 201l-254 -530q39 -31 92 -31q180 0 180 360zM523 893q-100 0 -143.5 -87.5t-43.5 -235.5t18 -238l254 530q-31 31 -85 31zM516 -25q-119 0 -205 42t-139 118t-78.5 177.5t-25.5 220t25.5 220t78.5 177.5t139 118t205 42t205 -42t139 -118t79 -177.5
t26 -220t-26 -220t-79 -177.5t-139 -118t-205 -42z" />
    <glyph glyph-name="zero.scppf" horiz-adv-x="1110" 
d="M756 532q0 361 -201 361t-201 -313.5t76 -360.5t150.5 -47t125 95t50.5 265zM555 -25q-123 0 -213 43t-146.5 120t-83 177.5t-26.5 217t26.5 217t83 177.5t146.5 120t213 43t213 -43t146.5 -120t83 -177.5t26.5 -217t-26.5 -217t-83 -177.5t-146.5 -120t-213 -43z" />
    <glyph glyph-name="one.scppf" horiz-adv-x="727" 
d="M561 1065v-1065h-258v760l-182 -111l-101 176l377 240h164z" />
    <glyph glyph-name="two.scppf" horiz-adv-x="1017" 
d="M86 727q8 187 130 275t305 88t297 -85t114 -240t-95.5 -225.5t-158.5 -103.5l-143 -76q-92 -53 -125 -84t-37 -75h561v-201h-860q6 294 113.5 382.5t181.5 127.5l143 74q96 53 132 87.5t36 90.5t-43 93.5t-123 37.5q-176 0 -184 -166h-244z" />
    <glyph glyph-name="three.scppf" horiz-adv-x="1007" 
d="M903 802q0 -192 -160 -243v-8q141 -42 171 -128.5t30 -148.5t-33.5 -121t-125 -118.5t-296.5 -59.5q-318 0 -377 129.5t-59 219.5h244q0 -131 77 -152.5t141.5 -21.5t119.5 39.5t55 121.5q0 115 -76.5 136.5t-119.5 21.5h-78v166h82q112 0 139 55t27 87q0 63 -45 102
t-104 39q-193 0 -193 -148h-228q0 149 111 234.5t289 85.5q294 0 351.5 -116t57.5 -172z" />
    <glyph glyph-name="four.scppf" horiz-adv-x="1024" 
d="M565 397v361l-282 -361h282zM41 203v157l561 705h219v-668h154v-194h-154v-203h-256v203h-524z" />
    <glyph glyph-name="five.scppf" horiz-adv-x="1011" 
d="M700 335q0 82 -52.5 128.5t-129.5 46.5q-110 0 -176 -94l-233 22l34 627h742v-205h-529l-16 -246h8q80 70 231 70t261 -84.5t110 -258.5t-124 -270t-308 -96q-400 0 -442 312h254q27 -129 184 -129q130 0 158 67.5t28 109.5z" />
    <glyph glyph-name="six.scppf" horiz-adv-x="1056" 
d="M416 459q-51 -47 -51 -126t52 -125t134 -46q132 0 160 66.5t28 106.5t-14 72.5t-51.5 65.5t-122 33t-135.5 -47zM86 508q0 446 188.5 514t286.5 68q188 0 287.5 -82t118.5 -222h-242q-7 49 -44.5 85t-99.5 36q-63 0 -139.5 -32t-93.5 -291q48 69 136 84.5t144 15.5
q141 0 250 -84t109 -257q0 -174 -125 -271t-307 -97q-469 0 -469 533z" />
    <glyph glyph-name="seven.scppf" horiz-adv-x="901" 
d="M45 844v221h819v-145l-465 -920h-268l447 844h-533z" />
    <glyph glyph-name="eight.scppf" horiz-adv-x="1036" 
d="M346 778q0 -33 12.5 -59.5t36 -46t55 -28.5t68.5 -9t68.5 9t54.5 28.5t35 46t12 59.5t-12 59.5t-35 45t-54.5 29t-68.5 10.5t-68.5 -10.5t-55 -29t-36 -45t-12.5 -59.5zM322 308q0 -116 76.5 -137t142.5 -21t120 41.5t54 116.5t-55 118t-141.5 43t-141.5 -42.5
t-55 -118.5zM268 559q-159 49 -159 244q0 55 29.5 111.5t112 116t267.5 59.5t297.5 -81t112.5 -223q0 -76 -41.5 -139t-118.5 -88v-8q141 -42 171 -128.5t30 -148.5t-33 -121t-92.5 -99t-142.5 -59.5t-183 -19.5t-183 19.5t-143.5 59.5t-93 99t-32.5 121q0 111 55 180.5
t147 96.5v8z" />
    <glyph glyph-name="nine.scppf" horiz-adv-x="1060" 
d="M530 559q61 0 114.5 46t53.5 128q0 122 -73.5 146t-136.5 24t-113.5 -46.5t-50.5 -127.5q0 -121 72.5 -145.5t133.5 -24.5zM506 1090q469 0 469 -533q0 -447 -183.5 -514.5t-282.5 -67.5q-191 0 -294.5 83.5t-120.5 220.5h242q8 -48 50.5 -84.5t103.5 -36.5t136.5 29.5
t86.5 293.5q-48 -69 -134.5 -84.5t-142.5 -15.5q-141 0 -250.5 84t-109.5 257q0 174 125 271t305 97z" />
    <glyph glyph-name="slashedzero.scppf" horiz-adv-x="1110" 
d="M354 568q0 -140 11.5 -187t17.5 -70l264 555q-45 27 -93 27q-98 0 -149 -92.5t-51 -232.5zM756 517q0 155 -31 237l-264 -555q45 -27 94 -27q100 0 150.5 95t50.5 250zM555 -25q-123 0 -213 43t-146.5 120t-83 177.5t-26.5 217t26.5 217t83 177.5t146.5 120t213 43
t213 -43t146.5 -120t83 -177.5t26.5 -217t-26.5 -217t-83 -177.5t-146.5 -120t-213 -43z" />
    <glyph glyph-name="zero.TOSF" horiz-adv-x="1163" 
d="M332 499.5q0 -73.5 18.5 -133t51 -101.5t78.5 -63.5t130 -21.5t152.5 87.5t68.5 235.5t-67.5 232t-211.5 84t-182 -123t-38 -196.5zM207.5 878.5q139.5 145.5 376.5 145.5t374.5 -145.5t137.5 -377.5t-139.5 -379t-377.5 -147t-374.5 146t-136.5 379t139.5 378.5z" />
    <glyph glyph-name="one.TOSF" horiz-adv-x="1163" 
d="M750 999v-798h329v-201h-944v201h361v489l-254 -174l-105 176l445 307h168z" />
    <glyph glyph-name="two.TOSF" horiz-adv-x="1163" 
d="M96 0q0 308 141.5 393.5t223.5 112.5l112 37q72 25 142.5 49t70.5 112t-71.5 110t-152 22t-140.5 -51t-64 -142h-249q4 194 143 287.5t342 93.5t328 -85t125 -230q0 -197 -124 -248t-208 -80l-113 -37q-187 -61 -199 -147h639v-197h-946z" />
    <glyph glyph-name="three.TOSF" horiz-adv-x="1163" 
d="M68 16h258q0 -122 65.5 -185.5t173.5 -63.5q169 0 204.5 85t35.5 137q0 101 -69 162.5t-171 61.5h-110v209h110q89 0 149 58t60 146q0 89 -59 143t-176 54t-150 -82t-33 -135h-239q0 194 124.5 306t328.5 112t330 -106.5t126 -271.5q0 -164 -82 -233t-123 -85v-9
q173 -50 211.5 -167t38.5 -197t-38 -155.5t-141 -154.5t-331 -79t-360.5 111t-132.5 339z" />
    <glyph glyph-name="four.TOSF" horiz-adv-x="1163" 
d="M672 164v481l-361 -481h361zM51 -49v168l660 895h223v-850h178v-213h-178v-361h-262v361h-621z" />
    <glyph glyph-name="five.TOSF" horiz-adv-x="1163" 
d="M641 492q200 0 324.5 -120.5t124.5 -340.5t-142 -342.5t-354 -122.5q-335 0 -410.5 154.5t-83.5 246.5h258q12 -80 72 -138t162 -58q157 0 195 98.5t38 158.5q0 119 -64 189t-167 70t-148 -49.5t-65 -77.5l-240 26l45 813h826v-217h-594l-23 -366h11q85 76 235 76z" />
    <glyph glyph-name="six.TOSF" horiz-adv-x="1163" 
d="M606 696q-49 0 -93 -18.5t-75.5 -52t-49 -80.5t-17.5 -104.5t16 -105.5t48 -83t74 -53.5t117.5 -18.5t141.5 70t66 192q0 173 -89.5 213.5t-138.5 40.5zM618 1229q-107 0 -182.5 -110t-87.5 -361q40 65 123.5 104t178.5 39q195 0 321.5 -120.5t126.5 -335.5
q0 -216 -143.5 -343t-348.5 -127q-379 0 -454.5 254.5t-75.5 450.5q0 385 153.5 569.5t393.5 184.5q200 0 310.5 -100t131.5 -277h-256q-28 172 -191 172z" />
    <glyph glyph-name="seven.TOSF" horiz-adv-x="1163" 
d="M92 772v227h995v-161l-567 -1248h-270l555 1182h-713z" />
    <glyph glyph-name="eight.TOSF" horiz-adv-x="1163" 
d="M605.5 831q68.5 0 129 56.5t60.5 147.5t-59.5 146.5t-153 55.5t-153.5 -54.5t-60 -144.5q0 -145 84 -176t152.5 -31zM338 397q0 -51 18.5 -93t51 -70.5t76.5 -43t125 -14.5t148.5 59t67.5 161t-68 164.5t-205 62.5t-175.5 -87.5t-38.5 -138.5zM72 364q0 141 69 237
t181 128v8q-87 28 -146 116.5t-59 184.5t33.5 168t95 123t147.5 78t242 27t284 -106t128 -281q0 -103 -57.5 -191t-147.5 -119v-8q110 -32 180 -127t70 -206t-37 -187t-104.5 -128t-161 -79t-208 -27t-207.5 27t-161 79t-104.5 127.5t-36.5 155.5z" />
    <glyph glyph-name="nine.TOSF" horiz-adv-x="1163" 
d="M722 375q66 72 66 188t-65 186t-164 70t-166 -68.5t-67 -188.5t65.5 -189.5t161.5 -69.5q103 0 169 72zM484 98q-68 0 -148 29t-176.5 120t-96.5 309t143 343t347 125q240 0 385 -165t145 -531q0 -586 -206.5 -674t-318.5 -88q-216 0 -328.5 101.5t-133.5 275.5h254
q28 -172 203 -172q181 0 217.5 171t40.5 300q-59 -98 -159 -121t-168 -23z" />
    <glyph glyph-name="slashedzero.TOSF" horiz-adv-x="1163" 
d="M577 180q116 0 185 87.5t69 210.5t-36 204l-342 -465q64 -37 124 -37zM332 520q0 -125 37 -203l342 465q-65 37 -124 37q-119 0 -187 -87t-68 -212zM207.5 878.5q139.5 145.5 376.5 145.5t374.5 -145.5t137.5 -377.5t-139.5 -379t-377.5 -147t-374.5 146t-136.5 379
t139.5 378.5z" />
    <glyph glyph-name="zero.oldstyle" horiz-adv-x="1249" 
d="M338 499.5q0 -147.5 82 -233.5t204.5 -86t204.5 86t82 236t-81.5 233.5t-204.5 83.5t-205 -86t-82 -233.5zM74 499q0 229 150 377t402 148t400 -147t148 -376t-150.5 -377.5t-402.5 -148.5t-399.5 147.5t-147.5 376.5z" />
    <glyph glyph-name="one.oldstyle" horiz-adv-x="790" 
d="M627 999v-999h-262v678l-232 -158l-108 189l428 290h174z" />
    <glyph glyph-name="two.oldstyle" horiz-adv-x="1071" 
d="M223.5 930q133.5 94 329.5 94q195 0 315.5 -86.5t120.5 -232.5q0 -191 -116.5 -242t-200.5 -82l-105 -37q-182 -62 -190 -147h604v-197h-911q0 309 137 393t219 113l102 37q110 37 155.5 68.5t45.5 88.5t-43 96.5t-188.5 39.5t-161.5 -193h-250q4 193 137.5 287z" />
    <glyph glyph-name="three.oldstyle" horiz-adv-x="1140" 
d="M41 16h258q0 -118 68.5 -183.5t185.5 -65.5q177 0 215.5 87t38.5 161t-71.5 136t-182.5 62h-102v209h102q95 0 156 59t61 148t-60 141.5t-185 52.5t-156 -82t-31 -135h-244q0 199 126 308.5t335 109.5t338 -104.5t129 -278.5q0 -99 -61.5 -192t-151.5 -121v-9
q120 -29 193 -121.5t73 -203.5q0 -207 -145.5 -317.5t-376.5 -110.5q-365 0 -438.5 169.5t-73.5 280.5z" />
    <glyph glyph-name="four.oldstyle" horiz-adv-x="1161" 
d="M678 164v475l-371 -475h371zM37 -49v168l686 895h217v-850h201v-213h-201v-361h-262v361h-641z" />
    <glyph glyph-name="five.oldstyle" horiz-adv-x="1099" 
d="M377 408q84 84 256 84t303 -117t131 -339t-145 -346t-365 -124t-350 107.5t-146 293.5h258q21 -130 104 -163t135 -33t96 17t78 50t53.5 81t19.5 137.5t-68.5 160t-171.5 70.5q-134 0 -223 -125l-231 20l49 817h825v-217h-594l-22 -374h8z" />
    <glyph glyph-name="six.oldstyle" horiz-adv-x="1198" 
d="M446 623q-67 -73 -67 -187t67.5 -185t176 -71t175 70t66.5 186q0 117 -67.5 188.5t-175.5 71.5t-175 -73zM354 756q88 145 340 145q72 0 154 -28.5t181 -119.5t99 -310q0 -218 -147 -343t-354 -125q-545 -1 -545 699q0 386 150.5 573t400.5 187q211 0 325.5 -101.5
t137.5 -283.5h-256q-28 180 -207 180q-121 0 -196 -109.5t-83 -363.5z" />
    <glyph glyph-name="seven.oldstyle" horiz-adv-x="1001" 
d="M33 772v227h936v-161l-568 -1248h-270l555 1182h-653z" />
    <glyph glyph-name="eight.oldstyle" horiz-adv-x="1175" 
d="M588 831q47 0 88 14.5t70.5 42t46 65.5t16.5 83t-16.5 82t-46 63.5t-70.5 41t-88 14.5t-88 -14.5t-71 -41t-46 -63.5t-16 -82t16 -83t46 -65.5t71 -42t88 -14.5zM330 399.5q0 -49.5 18.5 -91.5t52 -71.5t81.5 -45t105.5 -15.5t105.5 15.5t82 45t52.5 71.5t18.5 91.5
t-18.5 90t-53.5 70.5t-83 46.5t-103.5 16.5t-103.5 -16.5t-82.5 -46.5t-53 -70.5t-18.5 -90zM61 366q0 143 77 241t190 122v8q-93 29 -152 114t-59 185q0 99 33.5 170.5t97 122.5t149.5 78t243 27t288 -105.5t131 -281.5q0 -106 -58.5 -192.5t-152.5 -117.5v-8
q112 -24 189 -122t77 -210t-38 -188t-107.5 -128t-166.5 -79t-214 -27t-214.5 27t-167 79t-107.5 128t-38 157z" />
    <glyph glyph-name="nine.oldstyle" horiz-adv-x="1189" 
d="M744.5 377q66.5 74 66.5 186t-67.5 184t-174.5 72t-175 -69.5t-68 -185.5t68.5 -188.5t172.5 -72.5q111 0 177.5 74zM563 1024q545 0 545 -688q0 -402 -148.5 -586t-400.5 -184q-212 0 -332.5 106.5t-132.5 278.5h256q13 -128 87.5 -154t127.5 -26q118 0 188.5 107
t80.5 366q-34 -62 -122 -104t-188 -42q-200 0 -331.5 120t-131.5 338t147 343t355 125z" />
    <glyph glyph-name="slashedzero.oldstyle" horiz-adv-x="1249" 
d="M635 819q-133 0 -215 -86t-82 -221t57 -217l363 493q-54 31 -123 31zM615 180q132 0 214 86t82 220t-57 219l-362 -494q54 -31 123 -31zM74 499q0 229 150 377t402 148t400 -147t148 -376t-150.5 -377.5t-402.5 -148.5t-399.5 147.5t-147.5 376.5z" />
    <glyph glyph-name="percent.sc" horiz-adv-x="1255" 
d="M881 266.5q0 -155.5 92 -155.5t92 155.5t-92 155.5t-92 -155.5zM972.5 -12q-61.5 0 -109.5 20.5t-78.5 57t-46 88t-15.5 113t15.5 112.5t46 88t78.5 57.5t109.5 20.5t108.5 -20.5t78 -57.5t46.5 -88t15.5 -112.5t-15.5 -113t-46.5 -88t-78 -57t-108.5 -20.5zM258 -18
l612 1101h129l-610 -1101h-131zM193 798.5q0 -155.5 91 -155.5t91 155.5t-91 155.5t-91 -155.5zM284.5 520q-61.5 0 -109.5 20.5t-78.5 57.5t-46 88t-15.5 112.5t15.5 113t46 88t78.5 57t109.5 20.5t108.5 -20.5t78 -57t46 -88t15 -113t-15 -112.5t-46 -88t-78 -57.5
t-108.5 -20.5z" />
    <glyph glyph-name="perthousand.sc" horiz-adv-x="1851" 
d="M1475 266.5q0 -155.5 92 -155.5t92 155.5t-92 155.5t-92 -155.5zM1568 -12q-62 0 -109.5 20.5t-78 57t-46 88t-15.5 145t63 170t185 76.5q184 0 217 -108.5t33 -170t-15.5 -113t-46.5 -88t-78 -57t-109 -20.5zM881 266.5q0 -155.5 92 -155.5t92 155.5t-92 155.5
t-92 -155.5zM972.5 -12q-61.5 0 -109.5 20.5t-78.5 57t-46 88t-15.5 113t15.5 112.5t46 88t78.5 57.5t109.5 20.5t108.5 -20.5t78 -57.5t46.5 -88t15.5 -112.5t-15.5 -113t-46.5 -88t-78 -57t-108.5 -20.5zM258 -18l612 1101h129l-610 -1101h-131zM193 798.5
q0 -155.5 91 -155.5t91 155.5t-91 155.5t-91 -155.5zM284.5 520q-61.5 0 -109.5 20.5t-78.5 57.5t-46 88t-15.5 112.5t15.5 113t46 88t78.5 57t109.5 20.5t108.5 -20.5t78 -57t46 -88t15 -113t-15 -112.5t-46 -88t-78 -57.5t-108.5 -20.5z" />
    <glyph glyph-name="a.inferior" horiz-adv-x="829" 
d="M485.5 -147.5q42.5 38.5 42.5 116.5v54q-13 -19 -32 -23t-31 -6l-92 -12q-94 -7 -94 -86q0 -37 24.5 -59.5t81.5 -22.5q58 0 100.5 38.5zM528 -227q-57 -101 -226 -101q-170 0 -201 77t-31 192.5t237 146.5l131 16q57 8 73.5 20.5t16.5 38.5q0 45 -27 74t-85 29
q-117 0 -125 -108h-193q11 187 132.5 219.5t185.5 32.5q321 0 321 -269v-452h-200v84h-9z" />
    <glyph glyph-name="b.inferior" horiz-adv-x="903" 
d="M305 41q0 -47 11.5 -85t33 -65.5t51 -42t84.5 -14.5t98.5 58.5t43.5 154.5q0 141 -61.5 171t-98.5 30t-66.5 -14.5t-51 -42t-33 -65.5t-11.5 -85zM297 -207v-104h-203v1056h211v-150q0 -150 -8 -306h6q59 123 236 123q127 0 215 -95.5t88 -270.5t-93 -274.5t-227 -99.5
q-164 0 -219 121h-6z" />
    <glyph glyph-name="c.inferior" horiz-adv-x="833" 
d="M578 141q-21 103 -140 103q-73 0 -116 -57.5t-43 -123.5q0 -115 42.5 -170t111.5 -55q121 0 145 103h202q-8 -113 -98 -191t-256 -78t-265.5 101.5t-99.5 266.5t101.5 268.5t265.5 103.5q165 0 254.5 -77t97.5 -194h-202z" />
    <glyph glyph-name="d.inferior" horiz-adv-x="903" 
d="M279 37q0 -96 43 -149.5t114 -53.5q70 0 115 51t49 138v18q0 147 -62.5 177t-99.5 30t-66.5 -15.5t-61 -58t-31.5 -137.5zM367 -328q-128 0 -217 96t-89 269t94.5 274t225.5 101q162 0 219 -123h6q-6 117 -6 129v327h209v-1056h-201v104h-8q-55 -121 -233 -121z" />
    <glyph glyph-name="e.inferior" horiz-adv-x="854" 
d="M575 123q-23 135 -143 135q-93 0 -120 -51t-33 -84h296zM780 -98q-16 -99 -107.5 -163.5t-249.5 -64.5t-260 98t-102 267t105 270t312.5 101t261 -138.5t53.5 -226.5v-49h-519q16 -170 170 -170q107 0 138 76h198z" />
    <glyph glyph-name="f.inferior" horiz-adv-x="544" 
d="M154 -311v536h-134v168h134v68q0 153 63.5 218.5t212.5 65.5h119v-174h-82q-56 0 -78 -22t-22 -86v-70h157v-168h-157v-536h-213z" />
    <glyph glyph-name="g.inferior" horiz-adv-x="903" 
d="M279 37q0 -47 11 -85t31.5 -63.5t50 -40t85 -14.5t99.5 56t44 151v18q-6 132 -66.5 160.5t-96.5 28.5t-65.5 -15.5t-50 -43t-31.5 -66.5t-11 -86zM608 -254v47h-8q-58 -121 -233 -121q-128 0 -217 96t-89 269t94.5 274t225.5 101q162 0 219 -123h8v104h201v-645
q0 -309 -145.5 -349t-230.5 -40q-165 0 -250 60.5t-97 185.5h199q8 -94 145 -94q95 0 136.5 55t41.5 180z" />
    <glyph glyph-name="h.inferior" horiz-adv-x="874" 
d="M578 84q0 160 -127 160q-99 0 -122.5 -66.5t-23.5 -109.5v-379h-211v1056h211v-153q0 -153 -8 -301h6q55 121 229 121q175 0 214.5 -102.5t39.5 -176.5v-444h-208v395z" />
    <glyph glyph-name="i.inferior" horiz-adv-x="391" 
d="M90 -311v704h209v-704h-209zM84 547v198h223v-198h-223z" />
    <glyph glyph-name="j.inferior" horiz-adv-x="391" 
d="M90 -342v735h209v-739q0 -150 -54 -216.5t-208 -66.5h-70v178h41q46 0 64 25t18 84zM84 547v198h223v-198h-223z" />
    <glyph glyph-name="k.inferior" horiz-adv-x="815" 
d="M94 -311v1056h213v-618l240 266h235l-262 -280l287 -424h-238l-188 274l-74 -80v-194h-213z" />
    <glyph glyph-name="l.inferior" horiz-adv-x="399" 
d="M94 -311v1056h211v-1056h-211z" />
    <glyph glyph-name="m.inferior" horiz-adv-x="1320" 
d="M561 90q0 154 -119 154q-94 0 -115.5 -69t-21.5 -114v-372h-211v704h203v-102h6q55 121 215 121q116 0 162.5 -50.5t62.5 -87.5q64 138 240 138q105 0 177.5 -66t72.5 -207v-450h-209v403q0 152 -115 152q-100 0 -120.5 -69t-20.5 -114v-372h-207v401z" />
    <glyph glyph-name="n.inferior" horiz-adv-x="874" 
d="M578 84q0 160 -127 160q-103 0 -124.5 -70t-21.5 -113v-372h-211v704h203v-102h6q55 121 229 121q175 0 214.5 -102.5t39.5 -176.5v-444h-208v395z" />
    <glyph glyph-name="o.inferior" horiz-adv-x="882" 
d="M279 41q0 -47 11 -85t31.5 -65.5t50 -42t68.5 -14.5t70 14.5t52.5 42t32.5 65.5t11 85t-11 86t-32.5 65.5t-52.5 41t-70 14.5t-68.5 -14.5t-50 -42t-31.5 -65.5t-11 -85zM164.5 310.5q103.5 101.5 277.5 101.5t276.5 -100t102.5 -270.5t-103.5 -270t-277.5 -99.5
q-173 0 -276 99t-103 268.5t103.5 271z" />
    <glyph glyph-name="p.inferior" horiz-adv-x="903" 
d="M627 46q0 46 -11.5 84t-32 63.5t-50 40t-66.5 14.5t-66.5 -14.5t-51 -42t-33 -65.5t-11.5 -85t11.5 -85t33 -65.5t51 -42t66.5 -14.5t66.5 15.5t50 43t32 67.5t11.5 86zM305 -368v-261h-211v1022h203v-104h6q56 123 236 123q127 0 215 -95.5t88 -270.5t-93 -274.5
t-227 -99.5q-164 0 -219 121h-6q8 -156 8 -161z" />
    <glyph glyph-name="q.inferior" horiz-adv-x="903" 
d="M279 37q0 -47 11 -85t31.5 -63.5t50 -40t85 -14.5t99.5 56t44 151v18q-6 132 -66.5 160.5t-96.5 28.5t-65.5 -15.5t-50 -43t-31.5 -66.5t-11 -86zM377 412q166 0 223 -123h8v104h201v-1022h-209v153q0 152 6 269h-6q-55 -121 -233 -121q-128 0 -217 96t-89 269t93 274
t223 101z" />
    <glyph glyph-name="r.inferior" horiz-adv-x="600" 
d="M307 -23v-288h-213v704h205v-133h8q55 152 182 152q50 0 99 -33l-37 -189q-38 23 -83 23q-81 0 -121 -67t-40 -169z" />
    <glyph glyph-name="s.inferior" horiz-adv-x="790" 
d="M397 276q-87 0 -105 -26.5t-18 -49.5t22 -38t85 -27l108 -20q128 -22 186 -65t58 -142q0 -173 -133 -204.5t-245 -31.5t-201 59t-97 173h195q6 -71 59 -85t83 -14t53.5 5.5t41 14.5t26.5 23.5t9 42t-28.5 42t-79.5 22.5l-109 18q-179 24 -208 92t-29 119q0 106 90.5 167
t232.5 61t228 -58.5t94 -163.5h-193q-15 86 -125 86z" />
    <glyph glyph-name="t.inferior" horiz-adv-x="557" 
d="M145 -61v286h-129v168h129v213h209v-213h168v-168h-168v-258q0 -58 20 -80t75 -22h73v-176h-102q-158 0 -216.5 53t-58.5 197z" />
    <glyph glyph-name="u.inferior" horiz-adv-x="874" 
d="M350 -328q-114 0 -189 67t-75 210v444h211v-395q0 -160 127 -160q101 0 123 68.5t22 113.5v373h209v-704h-200v102h-7q-54 -119 -221 -119z" />
    <glyph glyph-name="v.inferior" horiz-adv-x="786" 
d="M268 -311l-260 704h232l159 -502l164 502h215l-252 -704h-258z" />
    <glyph glyph-name="w.inferior" horiz-adv-x="1159" 
d="M217 -311l-209 704h211l129 -504l133 504h199l131 -506l133 506h207l-211 -704h-231l-129 483l-131 -483h-232z" />
    <glyph glyph-name="x.inferior" horiz-adv-x="741" 
d="M8 -311l256 348l-246 356h234l125 -194l133 194h221l-250 -346l252 -358h-231l-135 202l-138 -202h-221z" />
    <glyph glyph-name="y.inferior" horiz-adv-x="786" 
d="M111 -629v174h43q100 0 127.5 41t40.5 76l8 27h-68l-254 704h232l157 -502l166 502h215l-270 -770q-88 -252 -309 -252h-88z" />
    <glyph glyph-name="z.inferior" horiz-adv-x="714" 
d="M49 221v172h608v-131l-325 -401h334v-172h-615v127l328 405h-330z" />
    <glyph glyph-name="dollar.inferior" 
d="M465 -178q27 23 27 50q0 45 -36.5 62.5t-103.5 28.5l-45 8q-116 23 -176.5 64.5t-60.5 144.5q0 132 87 173.5t142 49.5v113h154v-113q150 -24 184.5 -94.5t36.5 -107.5h-195q-6 55 -44.5 66.5t-60.5 11.5t-41.5 -5.5t-34.5 -14.5t-23.5 -24.5t-8.5 -41.5t35 -44t102 -30
l46 -8q111 -22 176 -64.5t65 -144.5q0 -197 -237 -226v-127h-154v127q-113 12 -175.5 68.5t-66.5 149.5h189q6 -68 56 -81.5t93 -13.5t70 23z" />
    <glyph glyph-name="cent.inferior" 
d="M66 37q0 107 64.5 175.5t176.5 84.5v113h154v-113q155 -23 187 -95.5t36 -105.5h-201q-7 48 -41 60t-58 12t-45.5 -8t-35.5 -24.5t-22.5 -41t-8.5 -72t29.5 -82t88.5 -34.5t75 29.5t18 44.5h201q-14 -119 -92 -158t-131 -47v-103h-154v105q-112 16 -176.5 84.5
t-64.5 175.5z" />
    <glyph glyph-name="euro.inferior" 
d="M430 -328q-276 0 -326 279h-84l17 61h61v58h-57l16 61h47q33 200 142.5 239.5t179.5 39.5q243 0 289 -234h-195q-18 80 -92 80q-99 0 -115 -125h187l-17 -61h-176v-58h158l-16 -61h-138q18 -98 55 -111.5t62 -13.5q76 0 92 74h195q-33 -162 -126 -195t-159 -33z" />
    <glyph glyph-name="plus.inferior" 
d="M90 -31v152h205v205h162v-205h205v-152h-205v-205h-162v205h-205z" />
    <glyph glyph-name="minus.inferior" 
d="M90 -31v152h572v-152h-572z" />
    <glyph glyph-name="equal.inferior" 
d="M90 -166v154h572v-154h-572zM90 98v154h572v-154h-572z" />
    <glyph glyph-name="comma.inferior" horiz-adv-x="413" 
d="M106 -311v211h203v-203l-65 -252h-101l50 244h-87z" />
    <glyph glyph-name="period.inferior" horiz-adv-x="413" 
d="M106 -311v211h203v-211h-203z" />
    <glyph glyph-name="hyphen.inferior" horiz-adv-x="587" 
d="M70 -37v164h448v-164h-448z" />
    <glyph glyph-name="parenleft.inferior" horiz-adv-x="491" 
d="M173 325q50 140 114 216h188q-105 -136 -134.5 -280t-29.5 -253.5t50 -244.5t114 -222h-188q-106 127 -135 275.5t-29 258.5t50 250z" />
    <glyph glyph-name="parenright.inferior" horiz-adv-x="491" 
d="M180 76.5q0 111.5 -51.5 248.5t-112.5 216h189q106 -127 135 -275.5t29 -258.5t-50 -250t-114 -216h-189q107 139 135.5 281.5t28.5 254z" />
    <glyph glyph-name="a.denominator" horiz-adv-x="829" 
d="M485.5 163.5q42.5 38.5 42.5 117.5v53q-13 -19 -32 -23t-31 -6l-92 -12q-94 -7 -94 -86q0 -36 24 -59t82 -23t100.5 38.5zM528 84q-56 -100 -226 -100t-201 76.5t-31 192t237 146.5l131 17q59 8 74.5 20t15.5 38q0 47 -27.5 75.5t-84.5 28.5q-117 0 -125 -109h-193
q11 187 132.5 219.5t185.5 32.5q321 0 321 -268v-453h-200v84h-9z" />
    <glyph glyph-name="b.denominator" horiz-adv-x="903" 
d="M305 352q0 -47 11.5 -85t33 -65.5t51 -42t84.5 -14.5t98.5 58.5t43.5 154.5q0 141 -61.5 171t-98.5 30t-66.5 -14.5t-51 -42t-33 -65.5t-11.5 -85zM297 104v-104h-203v1057h211v-151q0 -150 -8 -306h6q59 123 236 123q126 0 214.5 -94.5t88.5 -271.5q0 -176 -93.5 -274.5
t-226.5 -98.5q-163 0 -219 120h-6z" />
    <glyph glyph-name="c.denominator" horiz-adv-x="833" 
d="M161.5 619q100.5 104 266.5 104q165 0 254.5 -77t97.5 -193h-202q-20 102 -136 102q-77 0 -120 -57.5t-43 -123.5q0 -115 42 -169.5t112 -54.5t102.5 30.5t42.5 71.5h202q-8 -114 -98.5 -191t-256.5 -77t-265 101t-99 265.5t100.5 268.5z" />
    <glyph glyph-name="d.denominator" horiz-adv-x="903" 
d="M279 348q0 -96 43 -149.5t114 -53.5q70 0 115 51t49 138v18q0 147 -62.5 177t-99.5 30t-66.5 -15.5t-61 -58t-31.5 -137.5zM367 -16q-128 0 -217 95t-89 270q0 174 94 274t226 100q163 0 219 -123h6q-6 117 -6 130v327h209v-1057h-201v104h-8q-54 -120 -233 -120z" />
    <glyph glyph-name="e.denominator" horiz-adv-x="854" 
d="M575 434q-23 135 -143 135q-93 0 -120 -51t-33 -84h296zM444 137q105 0 138 76h198q-16 -99 -106.5 -163t-250.5 -64q-159 0 -260.5 97.5t-101.5 266.5t104.5 270t313 101t261.5 -138.5t53 -226.5v-49h-519q12 -126 73 -148t97 -22z" />
    <glyph glyph-name="f.denominator" horiz-adv-x="544" 
d="M154 0v537h-134v168h134v67q0 153 64 219t212 66h119v-174h-82q-55 0 -77.5 -22.5t-22.5 -86.5v-69h157v-168h-157v-537h-213z" />
    <glyph glyph-name="g.denominator" horiz-adv-x="903" 
d="M279 348q0 -47 11 -85t31.5 -63.5t50 -40t85 -14.5t99.5 56t44 151v19q-6 131 -66.5 159.5t-96.5 28.5t-65.5 -15.5t-50 -43t-31.5 -66.5t-11 -86zM608 57v47h-8q-58 -120 -233 -120q-128 0 -217 95t-89 270q0 174 94 274t226 100q163 0 219 -123h8v105h201v-646
q0 -309 -145.5 -349t-230.5 -40q-165 0 -250 60.5t-97 185.5h199q8 -94 145 -94q96 0 137 55.5t41 179.5z" />
    <glyph glyph-name="h.denominator" horiz-adv-x="874" 
d="M578 395q0 160 -127 160q-99 0 -122.5 -66.5t-23.5 -109.5v-379h-211v1057h211v-153q0 -154 -8 -302h6q55 121 230 121t214 -102.5t39 -176.5v-444h-208v395z" />
    <glyph glyph-name="i.denominator" horiz-adv-x="391" 
d="M90 0v705h209v-705h-209zM84 858v199h223v-199h-223z" />
    <glyph glyph-name="j.denominator" horiz-adv-x="391" 
d="M90 -31v736h209v-740q0 -150 -54 -216t-208 -66h-70v178h41q47 0 64.5 25t17.5 83zM84 858v199h223v-199h-223z" />
    <glyph glyph-name="k.denominator" horiz-adv-x="815" 
d="M94 0v1057h213v-619l240 267h235l-262 -281l287 -424h-238l-188 274l-74 -79v-195h-213z" />
    <glyph glyph-name="l.denominator" horiz-adv-x="399" 
d="M94 0v1057h211v-1057h-211z" />
    <glyph glyph-name="m.denominator" horiz-adv-x="1320" 
d="M1233 451v-451h-209v403q0 118 -43 135t-73 17q-65 0 -102.5 -47.5t-37.5 -134.5v-373h-207v401q0 121 -45 137.5t-75 16.5q-61 0 -98.5 -48.5t-37.5 -133.5v-373h-211v705h203v-103h6q55 121 218 121t222 -137q63 137 240 137q105 0 177.5 -65.5t72.5 -206.5z" />
    <glyph glyph-name="n.denominator" horiz-adv-x="874" 
d="M578 395q0 160 -127 160q-65 0 -105.5 -48.5t-40.5 -133.5v-373h-211v705h203v-103h6q55 121 230 121t214 -102.5t39 -176.5v-444h-208v395z" />
    <glyph glyph-name="o.denominator" horiz-adv-x="882" 
d="M279 352q0 -47 11 -85t31.5 -65.5t50 -42t68.5 -14.5t70 14.5t52.5 42t32.5 65.5t11 85t-11 86t-32.5 65.5t-52.5 41t-70 14.5t-68.5 -14.5t-50 -42t-31.5 -65.5t-11 -85zM163.5 621.5q102.5 101.5 278.5 101.5t277.5 -100t101.5 -270.5t-103.5 -269.5t-277.5 -99
t-276.5 98.5t-102.5 268t102.5 271z" />
    <glyph glyph-name="p.denominator" horiz-adv-x="903" 
d="M627 357q0 46 -11.5 84t-32 63.5t-50 40t-66.5 14.5t-66.5 -14.5t-51 -42t-33 -65.5t-11.5 -85t11.5 -85t33 -65.5t51 -42t66.5 -14.5t66.5 15.5t50 43t32 67.5t11.5 86zM305 -58v-259h-211v1022h203v-105h6q56 123 236 123q126 0 214.5 -94.5t88.5 -271.5
q0 -176 -93.5 -274.5t-226.5 -98.5q-163 0 -219 120h-6q8 -156 8 -162z" />
    <glyph glyph-name="q.denominator" horiz-adv-x="903" 
d="M279 348q0 -47 11 -85t31.5 -63.5t50 -40t85 -14.5t99.5 56t44 151v19q-6 131 -66.5 159.5t-96.5 28.5t-65.5 -15.5t-50 -43t-31.5 -66.5t-11 -86zM377 723q167 0 223 -123h8v105h201v-1022h-209v153q0 154 6 268h-6q-54 -120 -233 -120q-128 0 -217 95t-89 269
q0 173 92.5 274t223.5 101z" />
    <glyph glyph-name="r.denominator" horiz-adv-x="600" 
d="M469 524q-82 0 -122 -67t-40 -168v-289h-213v705h205v-134h8q55 152 182 152q42 0 63 -11.5t36 -21.5l-37 -188q-37 22 -82 22z" />
    <glyph glyph-name="s.denominator" horiz-adv-x="790" 
d="M397 588q-85 0 -104 -26.5t-19 -50t20 -37t87 -28.5l108 -20q128 -22 186 -65t58 -151t-93.5 -167t-284.5 -59t-242.5 87t-55.5 144h195q4 -45 42 -71.5t101 -26.5q129 0 129 56.5t-29 70.5t-79 22l-109 19q-178 24 -207.5 91.5t-29.5 119.5q0 106 90.5 166.5t232.5 60.5
t228 -58.5t94 -162.5h-193q-15 86 -125 86z" />
    <glyph glyph-name="t.denominator" horiz-adv-x="557" 
d="M145 250v287h-129v168h129v213h209v-213h168v-168h-168v-258q0 -59 20 -81t75 -22h73v-176h-102q-156 0 -215.5 53t-59.5 197z" />
    <glyph glyph-name="u.denominator" horiz-adv-x="874" 
d="M86 260v445h211v-396q0 -126 49 -142.5t79 -16.5q64 0 104 46t40 136v373h209v-705h-200v102h-7q-53 -118 -230 -118t-216 101t-39 175z" />
    <glyph glyph-name="v.denominator" horiz-adv-x="786" 
d="M268 0l-260 705h232l159 -502l164 502h215l-252 -705h-258z" />
    <glyph glyph-name="w.denominator" horiz-adv-x="1159" 
d="M217 0l-209 705h211l129 -504l133 504h199l131 -506l133 506h207l-211 -705h-231l-129 483l-131 -483h-232z" />
    <glyph glyph-name="x.denominator" horiz-adv-x="741" 
d="M8 0l256 348l-246 357h234l125 -195l133 195h221l-250 -347l252 -358h-231l-135 203l-138 -203h-221z" />
    <glyph glyph-name="y.denominator" horiz-adv-x="786" 
d="M199 -317h-88v174h43q100 0 127.5 41t40.5 75l8 27h-68l-254 705h232l157 -502l166 502h215l-270 -771q-88 -251 -309 -251z" />
    <glyph glyph-name="z.denominator" horiz-adv-x="714" 
d="M49 532v173h608v-132l-325 -401h334v-172h-615v127l328 405h-330z" />
    <glyph glyph-name="zero.denominator" 
d="M248 352q0 -211 128 -211q61 0 94.5 55t33.5 156q0 211 -128 211t-128 -211zM375 -16q-82 0 -144.5 27.5t-103.5 77.5t-61.5 116.5t-20.5 146.5t20.5 146.5t61.5 117t103.5 78t144.5 27.5t144.5 -27.5t103.5 -78t61.5 -117t20.5 -146.5t-20.5 -146.5t-61.5 -116.5
t-103.5 -77.5t-144.5 -27.5z" />
    <glyph glyph-name="one.denominator" 
d="M508 705v-547h188v-158h-594v158h197v307l-139 -78l-82 137l305 181h125z" />
    <glyph glyph-name="two.denominator" 
d="M262 463h-196q4 128 92.5 193t222.5 65t218.5 -59t84.5 -170t-81 -157t-134 -71l-37 -16q-129 -55 -129 -90h377v-158h-623q0 212 96.5 276t151.5 89l35 18q113 49 128 72t15 41q0 78 -106.5 78.5t-114.5 -111.5z" />
    <glyph glyph-name="three.denominator" 
d="M555 358q139 -26 139 -174q0 -93 -82.5 -146.5t-236.5 -53.5q-295 0 -303 233h188q0 -74 44 -89t70.5 -15t48 6t37 18.5t24 29.5t8.5 51t-33.5 57.5t-89.5 23.5h-43v123h43q108 0 108 85t-76 85t-102.5 -27.5t-26.5 -68.5h-184q6 165 116.5 195t209 30t179.5 -55t81 -146
q0 -56 -31 -98.5t-88 -56.5v-7z" />
    <glyph glyph-name="four.denominator" 
d="M397 268v201l-157 -201h157zM41 119v114l385 476h176v-441h96v-149h-96v-119h-205v119h-356z" />
    <glyph glyph-name="five.denominator" 
d="M432 451q169 0 207.5 -82.5t38.5 -142.5q0 -115 -82 -178.5t-211 -63.5q-212 0 -256.5 79.5t-48.5 124.5h199q11 -77 100 -77q42 0 64 20.5t30 41t8 59.5t-30 65.5t-72 26.5q-72 0 -96 -60l-189 19l29 422h518v-154h-350l-12 -150h6q50 50 147 50z" />
    <glyph glyph-name="six.denominator" 
d="M386 324q-22 0 -40 -6.5t-32.5 -18.5t-22.5 -32.5t-8 -60t39.5 -76.5t102 -12.5t62.5 101t-39.5 91t-61.5 14.5zM270 391q50 60 180 60q93 0 163.5 -55t70.5 -170t-82 -178.5t-211 -63.5q-325 0 -325 352q0 292 128 338.5t198 46.5q136 0 204 -55.5t72 -153.5h-193
q0 48 -32.5 62t-54.5 14q-47 0 -78.5 -41.5t-39.5 -155.5z" />
    <glyph glyph-name="seven.denominator" 
d="M66 535v170h626v-121l-327 -584h-213l303 535h-389z" />
    <glyph glyph-name="eight.denominator" 
d="M272 505.5q0 -20.5 7.5 -35.5t20.5 -26.5t31.5 -16.5t43 -5t44 5t32 16.5t19.5 26.5t7 35.5t-7 37t-19.5 27t-32 16.5t-44 6t-43 -6t-31.5 -16.5t-20.5 -27t-7.5 -37zM389 299q-129 0 -129 -68t31 -93t71 -25t61 6t36.5 18.5t24 29.5t8.5 50.5t-32 57.5t-71 24z
M94.5 296.5q37.5 46.5 102.5 59.5v9q-56 13 -87.5 55t-31.5 93q0 52 20.5 89t59.5 63.5t94 41t156 14.5t183.5 -54.5t82.5 -146.5q0 -56 -31 -98.5t-88 -56.5v-9q98 -19 118.5 -78t20.5 -100t-21.5 -79t-62.5 -63.5t-100 -38.5t-135 -13t-135.5 13t-121 51t-61.5 120
t37.5 128.5z" />
    <glyph glyph-name="nine.denominator" 
d="M356 381q22 0 41 6t33 19.5t22.5 33t8.5 58.5t-30 67.5t-63 28.5t-51 -7t-31.5 -20.5t-21.5 -34t-8 -47t8 -46t21.5 -33t31 -19.5t39.5 -6zM469 311q-28 -57 -170 -57q-99 0 -170.5 52t-71.5 165t84 181.5t211 68.5q324 0 324 -352q0 -385 -320 -385q-264 0 -282 209h194
q0 -28 27.5 -52t57.5 -24q56 0 84 41.5t32 152.5z" />
    <glyph glyph-name="dollar.denominator" 
d="M454.5 246q-37.5 17 -102.5 28l-45 9q-118 23 -177.5 64t-59.5 145q0 132 87 173.5t142 49.5v112h154v-112q149 -24 184 -95t37 -108h-195q-4 34 -32 56t-61 22q-34 0 -53.5 -5t-34.5 -14.5t-23.5 -25t-8.5 -42t37 -44.5t100 -29l46 -8q111 -22 176 -64.5t65 -144.5
q0 -145 -90 -182t-147 -43v-127h-154v127q-112 12 -175 68t-67 149h189q8 -94 134 -94q59 0 85.5 22.5t26.5 59.5q0 36 -37.5 53z" />
    <glyph glyph-name="cent.denominator" 
d="M66 348q0 107 64.5 175.5t176.5 84.5v113h154v-113q155 -23 187 -95.5t36 -104.5h-201q-7 47 -41 59t-58 12t-45.5 -8t-35.5 -24.5t-22.5 -41t-8.5 -72t29.5 -82t88.5 -34.5t75 29.5t18 44.5h201q-14 -119 -92 -158t-131 -47v-102h-154v104q-112 16 -176.5 84.5
t-64.5 175.5z" />
    <glyph glyph-name="euro.denominator" 
d="M98 324v57h-57l16 61h47q33 200 142.5 239.5t179.5 39.5q244 0 289 -234h-195q-18 80 -92 80q-99 0 -115 -125h187l-17 -61h-176v-57h158l-16 -62h-138q12 -67 40.5 -96t76.5 -29q76 0 92 74h195q-46 -227 -285 -227q-276 0 -326 278h-84l17 62h61z" />
    <glyph glyph-name="plus.denominator" 
d="M90 281v151h205v205h162v-205h205v-151h-205v-205h-162v205h-205z" />
    <glyph glyph-name="minus.denominator" 
d="M90 281v151h572v-151h-572z" />
    <glyph glyph-name="equal.denominator" 
d="M90 145v154h572v-154h-572zM90 410v153h572v-153h-572z" />
    <glyph glyph-name="comma.denominator" horiz-adv-x="413" 
d="M106 0v211h203v-203l-65 -252h-101l50 244h-87z" />
    <glyph glyph-name="period.denominator" horiz-adv-x="413" 
d="M106 0v211h203v-211h-203z" />
    <glyph glyph-name="hyphen.denominator" horiz-adv-x="587" 
d="M70 274v164h448v-164h-448z" />
    <glyph glyph-name="parenleft.denominator" horiz-adv-x="491" 
d="M173 636q50 139 114 216h188q-105 -137 -134.5 -280.5t-29.5 -253t50.5 -246t113.5 -219.5h-188q-106 127 -135 275t-29 258.5t50 249.5z" />
    <glyph glyph-name="parenright.denominator" horiz-adv-x="491" 
d="M180 388q0 112 -51 248t-113 216h189q107 -127 135.5 -275.5t28.5 -258.5t-50.5 -251t-113.5 -214h-189q108 140 136 281.5t28 253.5z" />
    <glyph glyph-name="a.numerator" horiz-adv-x="829" 
d="M279 919q0 -90 103 -90q60 0 103 39t43 117v53q-12 -18 -31.5 -22t-31.5 -6l-92 -13q-52 -4 -73 -28t-21 -50zM528 788q-56 -100 -226 -100t-201 77t-31 192.5t237 146.5l131 16q57 8 73.5 20.5t16.5 38.5q0 45 -27 74t-85 29q-117 0 -125 -108h-193q8 129 97.5 190
t220.5 61q321 0 321 -268v-452h-200v83h-9z" />
    <glyph glyph-name="b.numerator" horiz-adv-x="903" 
d="M305 1057q0 -47 11.5 -85t33 -65.5t51 -42t84.5 -14.5t98.5 58.5t43.5 154.5q0 141 -61.5 171t-98.5 30t-66.5 -14.5t-51 -42t-33 -65.5t-11.5 -85zM522 688q-164 0 -219 121h-6v-104h-203v1056h211v-152q0 -152 -8 -304h6q59 122 236 122q126 0 214.5 -94.5t88.5 -271.5
q0 -176 -93.5 -274.5t-226.5 -98.5z" />
    <glyph glyph-name="c.numerator" horiz-adv-x="833" 
d="M578 1157q-21 103 -140 103q-73 0 -116 -58t-43 -124q0 -114 42.5 -169t116.5 -55q114 0 140 102h202q-8 -112 -98 -190t-257 -78t-265.5 102t-98.5 266.5t101 267.5t266 103t254 -76t98 -194h-202z" />
    <glyph glyph-name="d.numerator" horiz-adv-x="903" 
d="M279 1053q0 -96 43 -149.5t114 -53.5q70 0 115 51t49 137v19q0 147 -62.5 177t-99.5 30t-66.5 -15.5t-61 -58t-31.5 -137.5zM367 688q-128 0 -217 95t-89 270q0 174 94 274t226 100q162 0 219 -122h6q-6 117 -6 129v327h209v-1056h-201v104h-8q-55 -121 -233 -121z" />
    <glyph glyph-name="e.numerator" horiz-adv-x="854" 
d="M575 1139q-23 135 -143 135q-93 0 -120 -51.5t-33 -83.5h296zM780 918q-17 -101 -108 -164.5t-250 -63.5q-158 0 -259.5 98t-101.5 267t104.5 269.5t313 100.5t261.5 -138t53 -226v-49h-519q16 -170 170 -170q107 0 138 76h198z" />
    <glyph glyph-name="f.numerator" horiz-adv-x="544" 
d="M154 705v536h-134v168h134v68q0 153 63.5 218.5t212.5 65.5h119v-174h-82q-56 0 -78 -22.5t-22 -85.5v-70h157v-168h-157v-536h-213z" />
    <glyph glyph-name="g.numerator" horiz-adv-x="903" 
d="M279 1053q0 -47 11 -85t31.5 -63.5t50 -40t85 -14.5t99.5 56t44 151v18q-6 132 -66.5 160.5t-96.5 28.5t-65.5 -15.5t-50 -43t-31.5 -66.5t-11 -86zM608 762v47h-8q-58 -121 -233 -121q-128 0 -217 95t-89 270q0 174 94 274t226 100q162 0 219 -122h8v104h201v-645
q0 -309 -145.5 -349t-230.5 -40q-167 0 -251 60.5t-96 185.5h199q8 -95 146 -95t157.5 87t19.5 149z" />
    <glyph glyph-name="h.numerator" horiz-adv-x="874" 
d="M578 1100q0 160 -127 160q-99 0 -122.5 -67t-23.5 -110v-378h-211v1056h211v-155q0 -155 -8 -299h6q54 120 229 120t214.5 -102t39.5 -176v-444h-208v395z" />
    <glyph glyph-name="i.numerator" horiz-adv-x="391" 
d="M90 705v704h209v-704h-209zM84 1563v198h223v-198h-223z" />
    <glyph glyph-name="j.numerator" horiz-adv-x="391" 
d="M90 674v735h209v-739q0 -150 -54 -216.5t-208 -66.5h-70v178h41q46 0 64 25t18 84zM84 1563v198h223v-198h-223z" />
    <glyph glyph-name="k.numerator" horiz-adv-x="815" 
d="M94 705v1056h213v-618l240 266h235l-262 -281l287 -423h-238l-188 274l-74 -80v-194h-213z" />
    <glyph glyph-name="l.numerator" horiz-adv-x="399" 
d="M94 705v1056h211v-1056h-211z" />
    <glyph glyph-name="m.numerator" horiz-adv-x="1320" 
d="M561 1106q0 154 -119 154q-94 0 -115.5 -69t-21.5 -114v-372h-211v704h203v-102h6q54 120 217 120t223 -137q63 137 238 137t213.5 -100t38.5 -172v-450h-209v403q0 152 -115 152q-100 0 -120.5 -69t-20.5 -114v-372h-207v401z" />
    <glyph glyph-name="n.numerator" horiz-adv-x="874" 
d="M578 1100q0 160 -127 160q-103 0 -124.5 -70t-21.5 -113v-372h-211v704h203v-102h6q54 120 229 120t214.5 -102t39.5 -176v-444h-208v395z" />
    <glyph glyph-name="o.numerator" horiz-adv-x="882" 
d="M279 1057q0 -47 11 -85t31.5 -65.5t50 -42t68.5 -14.5t70 14.5t52.5 42t32.5 65.5t11 85t-11 86t-32.5 65.5t-52.5 41t-70 14.5t-68.5 -14.5t-50 -42t-31.5 -65.5t-11 -85zM163.5 1326q102.5 101 278.5 101q175 0 277 -99.5t102 -270t-103.5 -270t-277.5 -99.5
q-175 0 -277 99t-102 268.5t102.5 270.5z" />
    <glyph glyph-name="p.numerator" horiz-adv-x="903" 
d="M627 1062q0 46 -11.5 84t-32 63.5t-50 40t-66.5 14.5t-66.5 -14.5t-51 -42t-33 -65.5t-11.5 -85t11.5 -85t33 -65.5t51 -42t66.5 -14.5t66.5 15.5t50 43t32 67.5t11.5 86zM305 648v-261h-211v1022h203v-104h6q55 122 236 122q126 0 214.5 -94.5t88.5 -271.5
q0 -176 -93.5 -274.5t-226.5 -98.5q-164 0 -219 121h-6q8 -156 8 -161z" />
    <glyph glyph-name="q.numerator" horiz-adv-x="903" 
d="M279 1053q0 -47 11 -85t31.5 -63.5t50 -40t85 -14.5t99.5 56t44 151v18q-6 132 -66.5 160.5t-96.5 28.5t-65.5 -15.5t-50 -43t-31.5 -66.5t-11 -86zM377 1427q166 0 223 -122h8v104h201v-1022h-209v153q0 152 6 269h-6q-55 -121 -233 -121q-128 0 -217 95t-89 269
q0 173 92.5 274t223.5 101z" />
    <glyph glyph-name="r.numerator" horiz-adv-x="600" 
d="M468 1229q-81 0 -121 -67.5t-40 -168.5v-288h-213v704h205v-133h8q55 151 182 151q51 0 99 -32l-37 -189q-39 23 -83 23z" />
    <glyph glyph-name="s.numerator" horiz-adv-x="790" 
d="M397 1292q-87 0 -105 -26.5t-18 -49.5t21 -37.5t86 -27.5l108 -21q130 -22 187 -64.5t57 -141.5q0 -173 -133 -204.5t-245 -31.5t-201 59t-97 173h195q6 -71 59 -85t83 -14t53.5 5t41 14.5t26.5 24t9 42t-30.5 42.5t-77.5 22l-109 18q-179 24 -208 92t-29 119
q0 105 89.5 166t235.5 61q219 0 267.5 -85t52.5 -136h-193q-15 86 -125 86z" />
    <glyph glyph-name="t.numerator" horiz-adv-x="557" 
d="M145 954v287h-129v168h129v213h209v-213h168v-168h-168v-258q0 -60 20 -81t75 -21h73v-176h-102q-157 0 -216 52.5t-59 196.5z" />
    <glyph glyph-name="u.numerator" horiz-adv-x="874" 
d="M350 688q-114 0 -189 66t-75 211v444h211v-395q0 -127 49 -143.5t79 -16.5q63 0 103.5 46.5t40.5 135.5v373h209v-704h-200v102h-7q-54 -119 -221 -119z" />
    <glyph glyph-name="v.numerator" horiz-adv-x="786" 
d="M268 705l-260 704h232l159 -502l164 502h215l-252 -704h-258z" />
    <glyph glyph-name="w.numerator" horiz-adv-x="1159" 
d="M217 705l-209 704h211l129 -504l133 504h199l131 -506l133 506h207l-211 -704h-231l-129 483l-131 -483h-232z" />
    <glyph glyph-name="x.numerator" horiz-adv-x="741" 
d="M8 705l256 348l-246 356h234l125 -195l133 195h221l-250 -346l252 -358h-231l-135 202l-138 -202h-221z" />
    <glyph glyph-name="y.numerator" horiz-adv-x="786" 
d="M111 387v174h43q100 0 127.5 41t40.5 76l8 27h-68l-254 704h232l157 -502l166 502h215l-270 -770q-88 -252 -309 -252h-88z" />
    <glyph glyph-name="z.numerator" horiz-adv-x="714" 
d="M49 1237v172h608v-131l-325 -401h334v-172h-615v126l328 406h-330z" />
    <glyph glyph-name="zero.numerator" 
d="M248 1057q0 -211 127 -211q95 0 112 81t17 130q0 211 -128 211t-128 -211zM375 688q-82 0 -144.5 27.5t-103.5 78t-61.5 117t-20.5 146.5t20.5 146.5t61.5 116.5t103.5 77.5t144.5 27.5t144.5 -27.5t103.5 -77.5t61.5 -116.5t20.5 -146.5t-20.5 -146.5t-61.5 -117
t-103.5 -78t-144.5 -27.5z" />
    <glyph glyph-name="one.numerator" 
d="M508 1409v-547h188v-157h-594v157h197v307l-139 -77l-82 137l305 180h125z" />
    <glyph glyph-name="two.numerator" 
d="M349.5 1280q-79.5 0 -87.5 -113h-196q4 127 91.5 192.5t223.5 65.5t219.5 -59t83.5 -170t-81 -157t-134 -70l-37 -17q-129 -55 -129 -90h377v-157h-623q0 211 96.5 275t151.5 89l35 18q113 49 128 73t15 41q0 37 -27 58t-106.5 21z" />
    <glyph glyph-name="three.numerator" 
d="M401 1296q-76 0 -102.5 -27.5t-26.5 -68.5h-184q4 108 81 166.5t211.5 58.5t214 -55t79.5 -145q0 -56 -31.5 -99.5t-87.5 -56.5v-6q97 -19 118 -76t21 -99q0 -92 -83.5 -146t-235.5 -54q-295 0 -303 234h188q0 -75 44 -90t70.5 -15t48 6t37 18.5t24 30t8.5 52t-35 57.5
t-88 23h-43v122h43q108 0 108 85t-76 85z" />
    <glyph glyph-name="four.numerator" 
d="M397 973v201l-157 -201h157zM41 823v115l385 475h176v-440h96v-150h-96v-118h-205v118h-356z" />
    <glyph glyph-name="five.numerator" 
d="M432 1155q169 0 207.5 -83t38.5 -142q0 -116 -83 -179t-210 -63q-212 0 -256.5 80t-48.5 125h199q11 -78 100 -78q42 0 64 20.5t30 41t8 59t-29 65.5t-73 27q-71 0 -96 -59l-189 18l29 422h518v-154h-350l-12 -149h6q49 49 147 49z" />
    <glyph glyph-name="six.numerator" 
d="M386 1028q-22 0 -40 -6t-32.5 -18.5t-22.5 -33t-8 -60t30 -67.5t63 -28q32 0 50 7t31.5 20.5t21.5 34t8 47t-8 46t-21.5 33t-31.5 19.5t-40 6zM391 688q-325 0 -325 352q0 292 128 338.5t198 46.5q138 0 205 -55.5t71 -152.5h-193q0 30 -24 52.5t-54 22.5
q-56 0 -87.5 -40.5t-39.5 -155.5q49 59 168 59q169 0 207.5 -83t38.5 -142q0 -116 -83 -179t-210 -63z" />
    <glyph glyph-name="seven.numerator" 
d="M66 1239v170h626v-121l-327 -583h-213l303 534h-389z" />
    <glyph glyph-name="eight.numerator" 
d="M477 1233.5q0 62.5 -87.5 62.5t-102.5 -32.5t-15 -53t7.5 -36t20.5 -26.5t31.5 -16.5t56.5 -5.5t63.5 22.5t25.5 85zM388 1004q-128 0 -128 -68.5t31 -93.5t71 -25t61 6t36.5 18.5t24 30t8.5 51.5t-33 57.5t-71 23.5zM95.5 1002q38.5 47 101.5 59v8q-82 20 -100.5 72.5
t-18.5 90.5t20.5 74.5t59.5 63.5t94 41t157.5 14t183.5 -55t81 -145q0 -56 -31.5 -99.5t-87.5 -56.5v-8q98 -19 118.5 -78t20.5 -100t-21.5 -79t-62.5 -63.5t-100 -39t-135 -13.5t-135.5 13.5t-121 52t-61.5 119.5q0 82 38.5 129z" />
    <glyph glyph-name="nine.numerator" 
d="M356 1085q22 0 41 6.5t33 19.5t22.5 32.5t8.5 58.5t-30 67.5t-63 28.5t-51 -7t-31.5 -20.5t-21.5 -33.5t-8 -47t8 -46.5t21.5 -32.5t31 -19.5t39.5 -6.5zM676 1073q0 -385 -320 -385q-264 0 -282 209h194q0 -29 28.5 -52.5t57.5 -23.5q55 0 83 42t32 153
q-19 -37 -75 -47.5t-95 -10.5q-97 0 -169.5 51.5t-72.5 164.5t83 182t212 69q324 0 324 -352z" />
    <glyph glyph-name="dollar.numerator" 
d="M385 1294q-119 0 -119 -56.5t35.5 -73.5t101.5 -29l46 -9q113 -22 177 -64t64 -144q0 -146 -90 -183t-147 -43v-127h-154v127q-113 12 -175.5 68.5t-66.5 148.5h189q4 -44 30.5 -63t51 -25t52.5 -6q60 0 86 23t26 50q0 45 -39 63t-101 28l-45 8q-116 23 -176.5 64.5
t-60.5 144.5q0 132 87 173.5t142 49.5v113h154v-113q150 -25 184.5 -95.5t36.5 -106.5h-195q-4 35 -32.5 56t-61.5 21z" />
    <glyph glyph-name="cent.numerator" 
d="M130.5 1228.5q64.5 68.5 176.5 84.5v112h154v-112q154 -23 186.5 -95.5t36.5 -105.5h-201q-7 46 -41 59t-58 13t-45.5 -8.5t-35.5 -24.5t-22.5 -41t-8.5 -72t29.5 -81.5t88.5 -34.5q60 0 75.5 29.5t17.5 43.5h201q-13 -118 -91.5 -157t-131.5 -47v-103h-154v105
q-111 16 -176 84t-65 175.5t64.5 176z" />
    <glyph glyph-name="euro.numerator" 
d="M430 688q-276 0 -326 279h-84l17 61h61v57h-57l16 62h47q33 199 142.5 238.5t179.5 39.5q243 0 289 -233h-195q-18 80 -92 80q-99 0 -115 -125h187l-17 -62h-176v-57h158l-16 -61h-138q18 -98 55 -111.5t62 -13.5q76 0 92 73h195q-33 -160 -126 -193.5t-159 -33.5z" />
    <glyph glyph-name="plus.numerator" 
d="M90 985v152h205v204h162v-204h205v-152h-205v-205h-162v205h-205z" />
    <glyph glyph-name="minus.numerator" 
d="M90 985v152h572v-152h-572z" />
    <glyph glyph-name="equal.numerator" 
d="M90 850v154h572v-154h-572zM90 1114v154h572v-154h-572z" />
    <glyph glyph-name="comma.numerator" horiz-adv-x="413" 
d="M106 705v210h203v-202l-65 -252h-101l50 244h-87z" />
    <glyph glyph-name="period.numerator" horiz-adv-x="413" 
d="M106 705v210h203v-210h-203z" />
    <glyph glyph-name="hyphen.numerator" horiz-adv-x="587" 
d="M70 979v164h448v-164h-448z" />
    <glyph glyph-name="parenleft.numerator" horiz-adv-x="491" 
d="M173.5 1342q50.5 141 113.5 214h188q-105 -136 -134.5 -279.5t-29.5 -253.5t49.5 -244t114.5 -222h-188q-107 127 -135.5 275.5t-28.5 258.5t50.5 251z" />
    <glyph glyph-name="parenright.numerator" horiz-adv-x="491" 
d="M180 1092.5q0 111.5 -52 249.5t-112 214h189q106 -127 135 -275t29 -258.5t-50 -249.5t-114 -216h-189q108 140 136 282t28 253.5z" />
    <glyph glyph-name="a.superior" horiz-adv-x="829" 
d="M485.5 1179.5q42.5 38.5 42.5 116.5v54q-13 -19 -32 -23t-31 -6l-92 -12q-94 -7 -94 -86q0 -36 24 -59t82 -23t100.5 38.5zM528 1100q-57 -101 -226 -101q-170 0 -201 77t-31 192.5t237 146.5l131 17q59 8 74.5 20t15.5 38q0 45 -27 74t-85 29q-117 0 -125 -108h-193
q11 187 132.5 219.5t185.5 32.5q321 0 321 -269v-452h-200v84h-9z" />
    <glyph glyph-name="b.superior" horiz-adv-x="903" 
d="M305 1368q0 -47 11.5 -85t33 -65.5t51 -42t84.5 -14.5t98.5 58.5t43.5 154.5q0 141 -61.5 171t-98.5 30t-66.5 -14.5t-51 -42t-33 -65.5t-11.5 -85zM522 999q-163 0 -219 121h-6v-104h-203v1057h211v-151q0 -150 -8 -306h6q59 123 236 123q126 0 214.5 -94.5t88.5 -271.5
q0 -176 -94 -275t-226 -99z" />
    <glyph glyph-name="c.superior" horiz-adv-x="833" 
d="M578 1468q-21 103 -140 103q-73 0 -116 -57.5t-43 -123.5q0 -115 42.5 -170t111.5 -55q121 0 145 103h202q-8 -113 -98 -191t-256 -78t-265.5 101.5t-99.5 266t100.5 268.5t266.5 104q165 0 254.5 -77t97.5 -194h-202z" />
    <glyph glyph-name="d.superior" horiz-adv-x="903" 
d="M279 1364q0 -96 43 -149.5t114 -53.5q70 0 115 51t49 138v18q0 147 -62.5 177t-99.5 30t-66.5 -15.5t-61 -58t-31.5 -137.5zM367 999q-128 0 -217 96t-89 269t93.5 274t226.5 101q163 0 219 -123h6q-6 117 -6 130v327h209v-1057h-201v104h-8q-55 -121 -233 -121z" />
    <glyph glyph-name="e.superior" horiz-adv-x="854" 
d="M575 1450q-23 135 -143 135q-93 0 -120 -51t-33 -84h296zM444 1153q107 0 138 76h198q-16 -99 -107.5 -163.5t-249.5 -64.5t-260 98t-102 267t105 270t312.5 101t261 -138.5t53.5 -226.5v-49h-519q12 -126 73 -148t97 -22z" />
    <glyph glyph-name="f.superior" horiz-adv-x="544" 
d="M154 1016v536h-134v168h134v68q0 153 64 219t212 66h119v-175h-82q-56 0 -78 -22t-22 -86v-70h157v-168h-157v-536h-213z" />
    <glyph glyph-name="g.superior" horiz-adv-x="903" 
d="M279 1364q0 -47 11 -85t31.5 -63.5t50 -40t85 -14.5t99.5 56t44 151v18q-6 132 -66.5 160.5t-96.5 28.5t-65.5 -15.5t-50 -43t-31.5 -66.5t-11 -86zM608 1073v47h-8q-58 -121 -233 -121q-128 0 -217 96t-89 269t93.5 274t226.5 101q163 0 219 -123h8v104h201v-645
q0 -309 -145.5 -349t-230.5 -40q-165 0 -250 60.5t-97 185.5h199q8 -94 145 -94q96 0 137 55.5t41 179.5z" />
    <glyph glyph-name="h.superior" horiz-adv-x="874" 
d="M578 1411q0 160 -127 160q-99 0 -122.5 -66.5t-23.5 -109.5v-379h-211v1057h211v-153q0 -154 -8 -302h6q55 121 229 121q175 0 214.5 -102.5t39.5 -176.5v-444h-208v395z" />
    <glyph glyph-name="i.superior" horiz-adv-x="391" 
d="M90 1016v704h209v-704h-209zM84 1874v199h223v-199h-223z" />
    <glyph glyph-name="j.superior" horiz-adv-x="391" 
d="M90 985v735h209v-739q0 -150 -54 -216.5t-208 -66.5h-70v179h41q46 0 64 24.5t18 83.5zM84 1874v199h223v-199h-223z" />
    <glyph glyph-name="k.superior" horiz-adv-x="815" 
d="M94 1016v1057h213v-619l240 266h235l-262 -280l287 -424h-238l-188 274l-74 -80v-194h-213z" />
    <glyph glyph-name="l.superior" horiz-adv-x="399" 
d="M94 1016v1057h211v-1057h-211z" />
    <glyph glyph-name="m.superior" horiz-adv-x="1320" 
d="M561 1417q0 154 -119 154q-94 0 -115.5 -68.5t-21.5 -113.5v-373h-211v704h203v-102h6q55 121 217 121t223 -137q63 137 240 137q105 0 177.5 -65.5t72.5 -207.5v-450h-209v403q0 152 -115 152q-100 0 -120.5 -68.5t-20.5 -113.5v-373h-207v401z" />
    <glyph glyph-name="n.superior" horiz-adv-x="874" 
d="M578 1411q0 160 -127 160q-65 0 -105.5 -48.5t-40.5 -133.5v-373h-211v704h203v-102h6q55 121 229 121q175 0 214.5 -102.5t39.5 -176.5v-444h-208v395z" />
    <glyph glyph-name="o.superior" horiz-adv-x="882" 
d="M279 1368q0 -47 11 -85t31.5 -65.5t50 -42t68.5 -14.5t70 14.5t52.5 42t32.5 65.5t11 85t-11 86t-32.5 65.5t-52.5 41t-70 14.5t-68.5 -14.5t-50 -42t-31.5 -65.5t-11 -85zM163.5 1637.5q102.5 101.5 278.5 101.5t277.5 -100t101.5 -270.5t-103.5 -270t-277.5 -99.5
q-173 0 -276 99t-103 268.5t102.5 271z" />
    <glyph glyph-name="p.superior" horiz-adv-x="903" 
d="M627 1373q0 46 -11.5 84t-32 63.5t-50 40t-66.5 14.5t-66.5 -14.5t-51 -42t-33 -65.5t-11.5 -85t11.5 -85t33 -65.5t51 -42t66.5 -14.5t66.5 15.5t50 43t32 67.5t11.5 86zM305 958v-260h-211v1022h203v-104h6q56 123 236 123q126 0 214.5 -94.5t88.5 -271.5
q0 -176 -94 -275t-226 -99q-163 0 -219 121h-6q8 -156 8 -162z" />
    <glyph glyph-name="q.superior" horiz-adv-x="903" 
d="M279 1364q0 -47 11 -85t31.5 -63.5t50 -40t85 -14.5t99.5 56t44 151v18q-6 132 -66.5 160.5t-96.5 28.5t-65.5 -15.5t-50 -43t-31.5 -66.5t-11 -86zM377 1739q167 0 223 -123h8v104h201v-1022h-209v152q0 153 6 270h-6q-55 -121 -233 -121q-128 0 -217 96t-89 268t92 274
t224 102z" />
    <glyph glyph-name="r.superior" horiz-adv-x="600" 
d="M469 1540q-82 0 -122 -67t-40 -168v-289h-213v704h205v-133h8q55 152 182 152q42 0 63 -11.5t36 -21.5l-37 -188q-37 22 -82 22z" />
    <glyph glyph-name="s.superior" horiz-adv-x="790" 
d="M397 1604q-86 0 -104.5 -27t-18.5 -50t22 -38t85 -27l108 -20q128 -22 186 -65t58 -142q0 -173 -133 -204.5t-245 -31.5t-201 59t-97 173h195q9 -98 140 -98q132 0 132 61.5t-41 72.5t-67 15l-109 18q-178 24 -207.5 92t-29.5 119q0 106 90.5 167t232.5 61t228 -58.5
t94 -162.5h-193q-15 86 -125 86z" />
    <glyph glyph-name="t.superior" horiz-adv-x="557" 
d="M145 1266v286h-129v168h129v213h209v-213h168v-168h-168v-258q0 -58 20 -80t75 -22h73v-176h-102q-158 0 -216.5 53t-58.5 197z" />
    <glyph glyph-name="u.superior" horiz-adv-x="874" 
d="M350 999q-114 0 -189 67t-75 210v444h211v-395q0 -160 127 -160q102 0 123.5 69t21.5 114v372h209v-704h-200v102h-7q-54 -119 -221 -119z" />
    <glyph glyph-name="v.superior" horiz-adv-x="786" 
d="M268 1016l-260 704h232l159 -501l164 501h215l-252 -704h-258z" />
    <glyph glyph-name="w.superior" horiz-adv-x="1159" 
d="M217 1016l-209 704h211l129 -503l133 503h199l131 -506l133 506h207l-211 -704h-231l-129 483l-131 -483h-232z" />
    <glyph glyph-name="x.superior" horiz-adv-x="741" 
d="M8 1016l256 348l-246 356h234l125 -194l133 194h221l-250 -346l252 -358h-231l-135 203l-138 -203h-221z" />
    <glyph glyph-name="y.superior" horiz-adv-x="786" 
d="M111 698v174h43q100 0 127.5 41t40.5 76l8 27h-68l-254 704h232l157 -501l166 501h215l-270 -770q-88 -252 -309 -252h-88z" />
    <glyph glyph-name="z.superior" horiz-adv-x="714" 
d="M49 1548v172h608v-131l-325 -401h334v-172h-615v127l328 405h-330z" />
    <glyph glyph-name="dollar.superior" 
d="M465 1149q27 23 27 50q0 45 -36.5 62.5t-103.5 28.5l-45 8q-116 23 -176.5 64.5t-60.5 144.5q0 132 87 173.5t142 50.5v112h154v-112q149 -24 184 -95t37 -108h-195q-6 55 -44.5 66.5t-60.5 11.5t-41.5 -5.5t-34.5 -14.5t-23.5 -24.5t-8.5 -41.5t35 -44t102 -30l46 -8
q111 -22 176 -64.5t65 -144.5q0 -145 -90 -182t-147 -43v-127h-154v127q-112 12 -175 68t-67 149h189q6 -68 56 -81.5t93 -13.5t70 23z" />
    <glyph glyph-name="cent.superior" 
d="M66 1364q0 107 64.5 175.5t176.5 84.5v113h154v-113q155 -23 187 -95.5t36 -105.5h-201q-7 48 -41 60t-58 12t-45.5 -8t-35.5 -24.5t-22.5 -41t-8.5 -72t29.5 -82t88.5 -34.5t75 29.5t18 44.5h201q-14 -119 -92 -158t-131 -47v-103h-154v105q-112 16 -176.5 84.5
t-64.5 175.5z" />
    <glyph glyph-name="euro.superior" 
d="M430 999q-276 0 -326 279h-84l17 61h61v58h-57l16 61h47q33 200 142.5 239.5t179.5 39.5q243 0 289 -234h-195q-18 80 -92 80q-99 0 -115 -125h187l-17 -61h-176v-58h158l-16 -61h-138q18 -98 55 -111.5t62 -13.5q76 0 92 74h195q-33 -162 -126 -195t-159 -33z" />
    <glyph glyph-name="plus.superior" 
d="M90 1296v152h205v205h162v-205h205v-152h-205v-204h-162v204h-205z" />
    <glyph glyph-name="minus.superior" 
d="M90 1296v152h572v-152h-572z" />
    <glyph glyph-name="equal.superior" 
d="M90 1161v154h572v-154h-572zM90 1425v154h572v-154h-572z" />
    <glyph glyph-name="comma.superior" horiz-adv-x="413" 
d="M106 1016v211h203v-203l-65 -252h-101l50 244h-87z" />
    <glyph glyph-name="period.superior" horiz-adv-x="413" 
d="M106 1016v211h203v-211h-203z" />
    <glyph glyph-name="hyphen.superior" horiz-adv-x="587" 
d="M70 1290v164h448v-164h-448z" />
    <glyph glyph-name="parenleft.superior" horiz-adv-x="491" 
d="M173 1652q50 140 114 216h188q-105 -136 -134.5 -280t-29.5 -253.5t50 -244.5t114 -222h-188q-106 127 -135 275.5t-29 258.5t50 250z" />
    <glyph glyph-name="parenright.superior" horiz-adv-x="491" 
d="M129 1651q-51 136 -113 217h189q106 -127 135 -275.5t29 -258.5t-50 -250t-114 -216h-189q107 139 135.5 281.5t28.5 254t-51 247.5z" />
    <glyph glyph-name="exclam.sc" horiz-adv-x="573" 
d="M158 0v244h258v-244h-258zM150 1065h274v-287l-62 -444h-151l-61 444v287z" />
    <glyph glyph-name="question.sc" horiz-adv-x="976" 
d="M346 0v244h254v-244h-254zM354 334v33q0 98 42 157.5t132 114.5t116 75.5t26 57.5q0 64 -51.5 98.5t-115.5 34.5q-110 0 -159 -45.5t-49 -118.5h-240q0 148 109.5 248.5t313.5 100.5t324 -80t120 -226q0 -88 -44 -141t-130 -105.5t-121 -81t-35 -83.5v-39h-238z" />
    <glyph glyph-name="exclamdown.sc" horiz-adv-x="573" 
d="M150 0v287l61 444h151l62 -444v-287h-274zM158 821v244h258v-244h-258z" />
    <glyph glyph-name="questiondown.sc" horiz-adv-x="976" 
d="M631 1065v-244h-254v244h254zM623 731v-33q0 -98 -42 -157.5t-132.5 -114.5t-116 -75.5t-25.5 -57.5q0 -64 51.5 -98.5t115.5 -34.5q111 0 159.5 46.5t48.5 117.5h240q0 -147 -109.5 -248t-314.5 -101t-324 81.5t-119 224.5q0 88 44 141t131 105.5t122 81t35 83.5v39h236
z" />
    <glyph glyph-name="hyphen.sc" horiz-adv-x="811" 
d="M109 428v221h593v-221h-593z" />
    <glyph glyph-name="endash.sc" horiz-adv-x="1138" 
d="M109 428v221h921v-221h-921z" />
    <glyph glyph-name="emdash.sc" horiz-adv-x="1720" 
d="M109 428v221h1503v-221h-1503z" />
    <glyph glyph-name="periodcentered.sc" horiz-adv-x="536" 
d="M139 414v252h256v-252h-256z" />
    <glyph glyph-name="bullet.sc" horiz-adv-x="835" 
d="M417.5 266q-55.5 0 -104.5 20.5t-87 57.5t-58.5 87t-20.5 105.5t20.5 105.5t58.5 87t87 57.5t104.5 20.5t104.5 -20.5t87 -57.5t58.5 -87t20.5 -105.5t-20.5 -105.5t-58.5 -87t-87 -57.5t-104.5 -20.5z" />
    <glyph glyph-name="guilsinglleft.sc" horiz-adv-x="624" 
d="M326 211l-228 326l228 325h198l-182 -325l182 -326h-198z" />
    <glyph glyph-name="guilsinglright.sc" horiz-adv-x="624" 
d="M98 211l183 326l-183 325h201l225 -325l-225 -326h-201z" />
    <glyph glyph-name="guillemotleft.sc" horiz-adv-x="999" 
d="M324 211l-226 326l226 325h200l-182 -325l182 -326h-200zM700 211l-225 326l225 325h199l-182 -325l182 -326h-199z" />
    <glyph glyph-name="guillemotright.sc" horiz-adv-x="999" 
d="M98 211l183 326l-183 325h201l225 -325l-225 -326h-201zM475 211l182 326l-182 325h199l225 -325l-225 -326h-199z" />
    <glyph glyph-name="parenleft.sc" horiz-adv-x="647" 
d="M154 581q0 159 69.5 350t167.5 322h227q-82 -103 -157.5 -305.5t-75.5 -459.5t98 -442t135 -234h-227q-157 211 -197 410.5t-40 358.5z" />
    <glyph glyph-name="parenright.sc" horiz-adv-x="647" 
d="M186.5 947.5q-75.5 202.5 -157.5 305.5h227q159 -213 198.5 -411.5t39.5 -358.5t-70.5 -350.5t-167.5 -320.5h-227q84 112 158.5 311t74.5 410.5t-75.5 414z" />
    <glyph glyph-name="bracketleft.sc" horiz-adv-x="636" 
d="M154 -188v1441h454v-192h-227v-1057h227v-192h-454z" />
    <glyph glyph-name="bracketright.sc" horiz-adv-x="636" 
d="M29 4h227v1057h-227v192h454v-1441h-454v192z" />
    <glyph glyph-name="braceleft.sc" horiz-adv-x="686" 
d="M440 770q0 -183 -186 -229v-9q146 -40 166 -110t20 -115v-166q0 -81 30.5 -111t113.5 -30h73v-188h-116q-253 0 -288.5 107t-35.5 181v142q0 113 -39 160t-151 47v176q111 0 150.5 47.5t39.5 161.5v131q0 220 117 254t207 34h116v-188h-73q-89 0 -116.5 -26.5
t-27.5 -106.5v-162z" />
    <glyph glyph-name="braceright.sc" horiz-adv-x="686" 
d="M246 770v162q0 80 -27.5 106.5t-116.5 26.5h-73v188h116q177 0 250.5 -69.5t73.5 -218.5v-131q0 -115 41 -162t152 -47v-176q-112 0 -152.5 -46.5t-40.5 -160.5v-142q0 -149 -73.5 -218.5t-250.5 -69.5h-116v188h73q83 0 113.5 30t30.5 111v166q0 133 68.5 172t119.5 53
v9q-188 44 -188 229z" />
    <glyph glyph-name="slash.sc" horiz-adv-x="712" 
d="M8 -25l475 1115h222l-476 -1115h-221z" />
    <glyph glyph-name="backslash.sc" horiz-adv-x="712" 
d="M483 -25l-475 1115h221l476 -1115h-222z" />
    <glyph glyph-name="quoteleft.sc" horiz-adv-x="546" 
d="M141 489v246l92 330h123l-65 -313h115v-263h-265z" />
    <glyph glyph-name="quotedblleft.sc" horiz-adv-x="968" 
d="M561 489v246l94 330h123l-67 -313h116v-263h-266zM141 489v246l92 330h123l-65 -313h115v-263h-265z" />
    <glyph glyph-name="quoteright.sc" horiz-adv-x="546" 
d="M141 803v262h265v-246l-93 -330h-123l68 314h-117z" />
    <glyph glyph-name="quotedblright.sc" horiz-adv-x="968" 
d="M561 803v262h266v-246l-92 -330h-123l66 314h-117zM141 803v262h265v-246l-93 -330h-123l68 314h-117z" />
    <glyph glyph-name="asterisk.sc" horiz-adv-x="964" 
d="M383 1085h195l-31 -251l227 108l62 -186l-246 -49l170 -181l-158 -114l-121 219l-121 -219l-157 112l170 185l-246 47l59 186l228 -104z" />
    <glyph glyph-name="degree.sc" horiz-adv-x="813" 
d="M405.5 928q-28.5 0 -54 -10.5t-44 -30t-30 -47t-11.5 -60t11.5 -60.5t30 -47.5t44 -29.5t54 -10t54 10t45 29.5t30 47.5t10.5 60.5t-10.5 60t-30 47t-45 30t-54 10.5zM405.5 473q-69.5 0 -129 22.5t-103.5 63.5t-67.5 97.5t-23.5 124t23.5 125t67.5 98t103.5 63.5t129 23
t129 -23t103.5 -63.5t68.5 -98t24.5 -125t-24.5 -124t-68.5 -97.5t-103.5 -63.5t-129 -22.5z" />
    <glyph glyph-name="quotesingle.sc" horiz-adv-x="479" 
d="M119 1065h241v-203l-36 -373h-168l-37 373v203z" />
    <glyph glyph-name="quotedbl.sc" horiz-adv-x="882" 
d="M522 1065h240v-203l-37 -373h-166l-37 373v203zM119 1065h241v-203l-36 -373h-168l-37 373v203z" />
    <glyph glyph-name="ordfeminine.sc" horiz-adv-x="626" 
d="M401 739v45q-5 -15 -51 -24l-67 -8q-72 -7 -72 -64q0 -65 76 -65q43 0 78.5 27.5t35.5 88.5zM401 592q-54 -72 -177 -72t-147 58.5t-24 109.5t40 91t138 55l101 12q53 5 61 20t8 29q0 32 -23 53t-65 21q-85 0 -92 -82h-147q12 145 102 168.5t137 23.5q244 0 244 -205
v-342h-151v60h-5z" />
    <glyph glyph-name="ordmasculine.sc" horiz-adv-x="663" 
d="M423.5 688q33.5 43 33.5 94q0 52 -8.5 80.5t-24.5 49t-40 31.5t-52.5 11t-51 -11t-39 -32.5t-24.5 -50.5t-8 -61.5t8 -61t34 -60.5t82.5 -32t90 43zM331.5 520q-65.5 0 -118.5 19.5t-91 56.5t-57.5 88t-19.5 114.5t20.5 116t58.5 89t90 56t117.5 19.5t120 -19.5t92.5 -56
t57.5 -89t19.5 -116t-20.5 -114.5t-58.5 -88t-91.5 -56.5t-119 -19.5z" />
    <glyph glyph-name="trademark.sc" horiz-adv-x="1312" 
d="M12 928v137h502v-137h-172v-396h-158v396h-172zM578 532v533h208l119 -324h6l117 324h205v-533h-148l9 338h-7l-131 -338h-106l-127 338h-6l8 -338h-147z" />
    <glyph glyph-name="copyright.sc" horiz-adv-x="1249" 
d="M352 538q0 121 74 199t209 78q97 0 164.5 -54t81.5 -143h-154q-26 64 -92 64q-89 0 -105 -56.5t-16 -107.5t34 -89t95 -38t84 64h154q-12 -87 -80.5 -142t-151.5 -55q-148 0 -222.5 79.5t-74.5 200.5zM327 222q118 -126 295 -126t298.5 127.5t121.5 314t-120.5 309
t-299 122.5t-296 -123.5t-117.5 -310.5t118 -313zM1018 932q158 -158 158 -394t-157.5 -399.5t-395 -163.5t-393.5 161.5t-156 398.5t155.5 396t393 159t395.5 -158z" />
    <glyph glyph-name="registered.sc" horiz-adv-x="1249" 
d="M715 616q0 62 -74 62h-94v-129h94q74 0 74 67zM874 618q0 -114 -110 -163l123 -181h-168l-105 162h-67v-162h-160v525h277q155 0 182.5 -70t27.5 -111zM327 222q118 -126 295 -126t298.5 127.5t121.5 314t-120.5 309t-299 122.5t-296 -123.5t-117.5 -310.5t118 -313z
M1018 932q158 -158 158 -394t-157.5 -399.5t-395 -163.5t-393.5 161.5t-156 398.5t155.5 396t393 159t395.5 -158z" />
    <glyph glyph-name="paragraph.sc" horiz-adv-x="1077" 
d="M385 0v385q-138 24 -220.5 110.5t-82.5 236.5t105 241.5t286 91.5h125v-1065h-213zM725 0v1065h213v-1065h-213z" />
    <glyph glyph-name="dagger.sc" horiz-adv-x="811" 
d="M90 635v168h213v262h205v-262h213v-168h-213v-635h-205v635h-213z" />
    <glyph glyph-name="daggerdbl.sc" horiz-adv-x="811" 
d="M90 670v168h213v227h205v-227h213v-168h-213v-283h213v-168h-213v-219h-205v219h-213v168h213v283h-213z" />
    <glyph glyph-name="section.sc" horiz-adv-x="868" 
d="M293.5 293.5q29.5 -26.5 114.5 -51.5l63 -21q54 15 92.5 53.5t38.5 76.5q0 63 -33 92t-112 51l-64 18q-88 -24 -108.5 -70.5t-20.5 -83.5q0 -38 29.5 -64.5zM454 934q-157 0 -157 -111q0 -47 30.5 -70t104.5 -46l148 -45q175 -53 201 -128t26 -120q0 -81 -48 -149
t-126 -99q155 -75 155 -227q0 -125 -95.5 -208t-274.5 -83q-240 0 -297.5 94.5t-61.5 155.5h217q11 -69 64 -83t85 -14q66 0 105 27.5t39 77.5t-29 72.5t-108 48.5l-147 45q-121 37 -173.5 96.5t-52.5 168.5q0 110 65.5 161t106.5 69q-155 75 -155 230q0 127 96.5 207.5
t273.5 80.5q242 0 298.5 -93t60.5 -154h-215q-8 44 -48.5 70t-87.5 26z" />
    <glyph glyph-name="exclamdown.cap" horiz-adv-x="587" 
d="M150 0v385l69 604h152l67 -604v-385h-288zM158 1139v270h272v-270h-272z" />
    <glyph glyph-name="questiondown.cap" horiz-adv-x="1058" 
d="M55 370q0 102 48.5 172t142.5 141t136 117t42 126v59h248v-49q0 -125 -47 -201t-141.5 -149.5t-129.5 -109.5t-35 -90q0 -94 54 -146t132 -52q136 0 193.5 68.5t57.5 169.5h252q0 -190 -121.5 -320.5t-347.5 -130.5t-355 103t-129 292zM412 1139v270h272v-270h-272z" />
    <glyph glyph-name="hyphen.cap" horiz-adv-x="811" 
d="M109 600v225h593v-225h-593z" />
    <glyph glyph-name="endash.cap" horiz-adv-x="1138" 
d="M109 600v225h921v-225h-921z" />
    <glyph glyph-name="emdash.cap" horiz-adv-x="1720" 
d="M109 600v225h1503v-225h-1503z" />
    <glyph glyph-name="periodcentered.cap" horiz-adv-x="577" 
d="M143 575v275h283v-275h-283z" />
    <glyph glyph-name="bullet.cap" horiz-adv-x="999" 
d="M499.5 360q-73.5 0 -138 27t-112.5 75t-75 112.5t-27 138t27 138t75 113t112.5 75t138 26.5t138 -26.5t113 -75t75 -113t26.5 -138t-26.5 -138t-75 -112.5t-113 -75t-138 -27z" />
    <glyph glyph-name="guilsinglleft.cap" horiz-adv-x="708" 
d="M393 295l-295 418l295 417h215l-229 -417l229 -418h-215z" />
    </font>
</defs>
</svg>
